<svg width="40" height="40" viewBox="0 0 40 40" fill="none" xmlns="http://www.w3.org/2000/svg">
<path d="M26.6212 26.9133C27.0829 25.2961 27.3884 23.4172 27.5048 21.6133C27.5073 21.5662 27.5002 21.519 27.4838 21.4748C27.4674 21.4305 27.4421 21.3901 27.4094 21.356C27.3767 21.322 27.3374 21.295 27.2939 21.2767C27.2503 21.2585 27.2035 21.2494 27.1563 21.25H21.6048C21.5593 21.2496 21.5142 21.2581 21.4721 21.2752C21.4299 21.2922 21.3916 21.3173 21.3591 21.3492C21.3267 21.381 21.3009 21.4189 21.2831 21.4608C21.2653 21.5026 21.256 21.5475 21.2555 21.593V25.9133C21.2565 26.0006 21.2904 26.0842 21.3503 26.1477C21.4103 26.2111 21.4919 26.2496 21.579 26.2555C23.1435 26.3819 24.6892 26.6803 26.1884 27.1453C26.2765 27.1718 26.3716 27.1623 26.4527 27.1188C26.5339 27.0753 26.5945 27.0014 26.6212 26.9133ZM25.2798 29.4774C24.0904 29.1301 22.8718 28.8924 21.6391 28.7672C21.5915 28.7619 21.5433 28.7665 21.4976 28.7808C21.4519 28.7951 21.4096 28.8188 21.3736 28.8503C21.3375 28.8819 21.3084 28.9205 21.288 28.9639C21.2677 29.0073 21.2567 29.0545 21.2555 29.1024V34.1992C21.2574 34.26 21.2751 34.3193 21.307 34.3711C21.3388 34.423 21.3836 34.4656 21.4369 34.4948C21.4903 34.524 21.5504 34.5388 21.6112 34.5376C21.672 34.5365 21.7315 34.5195 21.7837 34.4883C23.0259 33.7641 24.0493 32.5477 24.9743 30.9391C25.1259 30.6766 25.3563 30.2242 25.4954 29.9477C25.517 29.9032 25.5285 29.8545 25.529 29.805C25.5296 29.7556 25.5192 29.7066 25.4985 29.6616C25.4779 29.6167 25.4476 29.5768 25.4098 29.545C25.372 29.5131 25.3276 29.49 25.2798 29.4774ZM18.3821 28.7813C17.151 28.8984 15.9333 29.129 14.7446 29.4703C14.5384 29.5297 14.4516 29.8141 14.5454 30.0008C14.6852 30.2789 14.8579 30.6344 15.0055 30.9C16.0212 32.6969 17.1024 33.8297 18.2274 34.4883C18.2796 34.5195 18.3391 34.5365 18.3999 34.5376C18.4607 34.5388 18.5208 34.524 18.5742 34.4948C18.6275 34.4656 18.6723 34.423 18.7041 34.3711C18.736 34.3193 18.7537 34.26 18.7555 34.1992V29.1C18.7552 29.0535 18.7448 29.0075 18.7251 28.9653C18.7055 28.9231 18.677 28.8857 18.6416 28.8554C18.6061 28.8252 18.5647 28.8029 18.5199 28.7901C18.4751 28.7774 18.4281 28.7743 18.3821 28.7813ZM18.4063 21.25H12.8548C12.8076 21.2494 12.7609 21.2585 12.7174 21.2767C12.6739 21.2949 12.6347 21.3218 12.602 21.3558C12.5693 21.3897 12.544 21.4301 12.5275 21.4742C12.5111 21.5184 12.5039 21.5654 12.5063 21.6125C12.622 23.4141 12.9259 25.2969 13.386 26.9125C13.3991 26.9567 13.4208 26.9979 13.4498 27.0337C13.4789 27.0695 13.5148 27.0991 13.5554 27.1209C13.5961 27.1427 13.6406 27.1562 13.6865 27.1607C13.7324 27.1651 13.7787 27.1605 13.8227 27.1469C15.3217 26.6819 16.8676 26.3842 18.4321 26.2594C18.5193 26.2537 18.6012 26.2153 18.6613 26.1518C18.7214 26.0884 18.7553 26.0046 18.7563 25.9172V21.5938C18.756 21.5482 18.7467 21.5031 18.7289 21.4611C18.7112 21.4192 18.6853 21.3811 18.6528 21.3492C18.6202 21.3172 18.5817 21.292 18.5394 21.275C18.4971 21.258 18.4519 21.2495 18.4063 21.25ZM21.6407 11.2328C22.8725 11.1174 24.0896 10.8782 25.2735 10.5188C25.321 10.5059 25.3651 10.4828 25.4027 10.451C25.4403 10.4192 25.4705 10.3796 25.491 10.3349C25.5116 10.2901 25.5221 10.2414 25.5218 10.1922C25.5215 10.143 25.5103 10.0945 25.4891 10.05C25.3493 9.77111 25.1556 9.37189 25.0071 9.10548C24.047 7.38673 22.9649 6.18751 21.7852 5.51173C21.733 5.48078 21.6736 5.46397 21.6128 5.46294C21.5521 5.46191 21.4921 5.47671 21.4389 5.50587C21.3856 5.53503 21.3408 5.57756 21.3089 5.62927C21.2771 5.68098 21.2592 5.74009 21.2571 5.80079V10.8969C21.2582 10.9448 21.2693 10.992 21.2896 11.0354C21.3099 11.0788 21.339 11.1176 21.3751 11.1491C21.4112 11.1807 21.4534 11.2045 21.4991 11.2189C21.5448 11.2333 21.5931 11.238 21.6407 11.2328ZM21.6048 18.75H27.1563C27.2031 18.7508 27.2495 18.742 27.2928 18.7242C27.3361 18.7064 27.3752 18.6799 27.4078 18.6464C27.4405 18.6129 27.4659 18.573 27.4826 18.5293C27.4992 18.4856 27.5068 18.4389 27.5048 18.3922C27.3891 16.6133 27.0931 14.6578 26.6329 13.0625C26.6194 13.0186 26.5974 12.9779 26.5682 12.9425C26.5389 12.9072 26.503 12.878 26.4624 12.8566C26.4218 12.8351 26.3774 12.822 26.3317 12.8178C26.286 12.8135 26.24 12.8184 26.1962 12.832C24.7118 13.2805 23.1657 13.6469 21.5798 13.7695C21.4931 13.7745 21.4115 13.812 21.3514 13.8746C21.2912 13.9372 21.257 14.0202 21.2555 14.107V18.4125C21.2572 18.5035 21.2949 18.5902 21.3604 18.6535C21.4258 18.7168 21.5137 18.7515 21.6048 18.75ZM18.2274 5.51251C17.0227 6.18204 15.9485 7.42111 14.9876 9.13517C14.8384 9.40157 14.6602 9.76876 14.5188 10.0469C14.4978 10.0913 14.4868 10.1399 14.4865 10.1891C14.4863 10.2382 14.4968 10.2869 14.5173 10.3315C14.5379 10.3762 14.568 10.4159 14.6055 10.4477C14.643 10.4795 14.687 10.5027 14.7345 10.5156C15.9179 10.8816 17.1366 11.1218 18.3704 11.232C18.418 11.2372 18.4661 11.2325 18.5118 11.2182C18.5575 11.2038 18.5997 11.1801 18.6357 11.1486C18.6718 11.1171 18.7009 11.0785 18.7213 11.0352C18.7416 10.9918 18.7528 10.9447 18.754 10.8969V5.80157C18.7515 5.7412 18.7335 5.68248 18.7017 5.63112C18.6698 5.57976 18.6253 5.53749 18.5723 5.50841C18.5193 5.47933 18.4597 5.46443 18.3993 5.46515C18.3389 5.46587 18.2797 5.48218 18.2274 5.51251ZM18.4313 13.7703C16.8454 13.6492 15.2977 13.2828 13.8149 12.8328C13.7711 12.8192 13.725 12.8143 13.6794 12.8185C13.6337 12.8227 13.5893 12.8359 13.5487 12.8573C13.5081 12.8788 13.4722 12.908 13.4429 12.9433C13.4137 12.9787 13.3917 13.0194 13.3782 13.0633C12.918 14.6586 12.622 16.6141 12.5063 18.393C12.5043 18.4397 12.5118 18.4864 12.5285 18.5301C12.5452 18.5738 12.5706 18.6136 12.6033 18.6471C12.6359 18.6807 12.675 18.7071 12.7183 18.725C12.7616 18.7428 12.808 18.7516 12.8548 18.7508H18.4063C18.4515 18.7515 18.4964 18.7433 18.5385 18.7267C18.5805 18.71 18.6188 18.6852 18.6513 18.6537C18.6837 18.6222 18.7096 18.5846 18.7275 18.5431C18.7454 18.5016 18.7549 18.4569 18.7555 18.4117V14.1078C18.7541 14.021 18.7199 13.938 18.6597 13.8754C18.5996 13.8128 18.518 13.7752 18.4313 13.7703Z" fill="#00B3B8"/>
<path d="M32.3741 7.6259C30.752 5.98775 28.8222 4.68624 26.6956 3.79615C24.5689 2.90606 22.2874 2.44494 19.982 2.43926C17.6767 2.43359 15.3929 2.88348 13.2619 3.76309C11.1309 4.6427 9.19475 5.93469 7.5646 7.56484C5.93445 9.19499 4.64245 11.1312 3.76284 13.2621C2.88323 15.3931 2.43334 17.6769 2.43902 19.9823C2.44469 22.2877 2.90582 24.5692 3.79591 26.6958C4.686 28.8224 5.9875 30.7522 7.62566 32.3743C9.24777 34.0125 11.1776 35.314 13.3042 36.2041C15.4308 37.0942 17.7123 37.5553 20.0177 37.561C22.3231 37.5667 24.6069 37.1168 26.7379 36.2372C28.8688 35.3575 30.805 34.0656 32.4352 32.4354C34.0653 30.8053 35.3573 28.8691 36.2369 26.7381C37.1165 24.6071 37.5664 22.3233 37.5607 20.018C37.5551 17.7126 37.0939 15.4311 36.2038 13.3044C35.3138 11.1778 34.0123 9.24801 32.3741 7.6259ZM13.7968 33.6603C13.4448 33.1659 13.1193 32.6532 12.8218 32.1243C12.6655 31.8361 12.4436 31.4009 12.296 31.0986C12.2621 31.0268 12.2137 30.963 12.1537 30.9111C12.0938 30.8591 12.0236 30.8203 11.9478 30.7971C11.872 30.7738 11.7921 30.7667 11.7134 30.7761C11.6346 30.7855 11.5587 30.8112 11.4905 30.8517C11.1546 31.04 10.7093 31.2986 10.3866 31.5103C9.70996 30.996 9.09239 30.4083 8.54519 29.7579C9.30193 29.2238 10.0959 28.7445 10.921 28.3236C11.0663 28.2454 11.1374 28.1564 11.0913 27.997C10.4868 25.9047 10.1176 23.7516 9.9905 21.5775C9.98672 21.4905 9.9498 21.4083 9.88733 21.3478C9.82486 21.2872 9.74158 21.2528 9.65456 21.2517H5.22175C5.18407 21.2521 5.1475 21.2389 5.11879 21.2145C5.09008 21.1901 5.07115 21.1561 5.0655 21.1189C5.0164 20.7481 4.99447 20.3741 4.99988 20.0001C4.99453 19.6268 5.01699 19.2537 5.06706 18.8837C5.07272 18.8465 5.09164 18.8125 5.12035 18.7881C5.14907 18.7637 5.18563 18.7505 5.22331 18.7509H9.65613C9.83503 18.7509 9.98191 18.6478 9.99128 18.4673C10.1167 16.3022 10.4835 14.1579 11.085 12.0743C11.1074 11.9983 11.1026 11.9168 11.0714 11.8439C11.0401 11.771 10.9845 11.7114 10.9139 11.6751C10.1066 11.2614 9.32775 10.7942 8.58269 10.2767C9.12699 9.62653 9.73236 9.03005 10.3905 8.49543C10.7093 8.70481 11.1249 8.94153 11.4577 9.12903C11.531 9.17072 11.6122 9.19691 11.696 9.20598C11.7799 9.21505 11.8647 9.20681 11.9453 9.18176C12.0259 9.15671 12.1004 9.1154 12.1644 9.06037C12.2283 9.00534 12.2803 8.93777 12.3171 8.86184C12.4639 8.5595 12.6296 8.22278 12.7905 7.93372C13.0893 7.39827 13.4164 6.87905 13.7702 6.37825C15.7182 5.46054 17.8466 4.98969 19.9999 5.00012C22.2608 5.00012 24.3671 5.547 26.2913 6.44231C26.6311 6.91934 26.944 7.4149 27.2288 7.92668C27.4311 8.29075 27.646 8.73684 27.8272 9.12356C27.8467 9.16474 27.8743 9.20152 27.9085 9.23166C27.9426 9.26179 27.9826 9.28465 28.0259 9.29883C28.0692 9.31302 28.1149 9.31823 28.1602 9.31415C28.2056 9.31008 28.2497 9.2968 28.2897 9.27512C28.71 9.04778 29.1655 8.78606 29.5663 8.52278C30.2263 9.06265 30.8332 9.66434 31.3788 10.3197C30.6541 10.8222 29.8955 11.2741 29.1085 11.672C29.0378 11.7083 28.9821 11.7681 28.951 11.8412C28.9199 11.9143 28.9153 11.9959 28.9382 12.072C29.5494 14.1414 29.9127 16.2762 30.0202 18.4314C30.0244 18.5178 30.0616 18.5994 30.124 18.6592C30.1865 18.7191 30.2696 18.7527 30.3561 18.7532L34.7796 18.7478C34.8172 18.7474 34.8538 18.7606 34.8825 18.785C34.9112 18.8094 34.9302 18.8433 34.9358 18.8806C35.027 19.6231 35.027 20.374 34.9358 21.1165C34.9305 21.1541 34.9117 21.1884 34.883 21.2131C34.8542 21.2378 34.8175 21.2513 34.7796 21.2509H30.3522C30.2652 21.2518 30.1818 21.2861 30.1192 21.3468C30.0567 21.4074 30.0199 21.4897 30.0163 21.5767C29.8946 23.7278 29.5311 25.8584 28.9327 27.9282C28.9101 28.0052 28.9147 28.0876 28.9459 28.1615C28.9771 28.2354 29.0329 28.2962 29.1038 28.3337C29.4944 28.5361 29.9296 28.7618 30.3046 28.9915C30.6796 29.2212 31.0507 29.4665 31.4085 29.7212C30.8671 30.3735 30.2655 30.9732 29.6116 31.5126C29.421 31.3868 29.1944 31.2439 28.9991 31.1267C28.8647 31.0486 28.6171 30.9103 28.4796 30.8329C28.1811 30.6657 27.8639 30.7907 27.7147 31.0986C27.5655 31.4064 27.3374 31.8478 27.178 32.1337C26.8843 32.6594 26.5622 33.1688 26.2132 33.6595C24.2897 34.5603 22.2608 35.0001 19.9999 35.0001C17.7389 35.0001 15.721 34.5603 13.7968 33.6603Z" fill="#00B3B8"/>
</svg>
