<svg width="23" height="21" viewBox="0 0 23 21" fill="none" xmlns="http://www.w3.org/2000/svg">
<path d="M19.5001 0.125H10.4092C9.56563 0.125902 8.75685 0.461419 8.16034 1.05793C7.56382 1.65444 7.22831 2.46322 7.22741 3.30682V9.21591H15.9416L12.9484 6.22216C12.7851 6.05028 12.6954 5.82142 12.6985 5.58437C12.7015 5.34731 12.797 5.12082 12.9647 4.95318C13.1323 4.78554 13.3588 4.69002 13.5959 4.68699C13.8329 4.68395 14.0618 4.77364 14.2337 4.93693L18.7791 9.48239C18.9495 9.65286 19.0452 9.884 19.0452 10.125C19.0452 10.366 18.9495 10.5971 18.7791 10.7676L14.2337 15.3131C14.0618 15.4764 13.8329 15.566 13.5959 15.563C13.3588 15.56 13.1323 15.4645 12.9647 15.2968C12.797 15.1292 12.7015 14.9027 12.6985 14.6656C12.6954 14.4286 12.7851 14.1997 12.9484 14.0278L15.9416 11.0341H7.22741V16.9432C7.22741 18.7642 9.14729 20.125 10.8638 20.125H19.5001C20.3437 20.1241 21.1525 19.7886 21.749 19.1921C22.3455 18.5956 22.681 17.7868 22.682 16.9432V3.30682C22.681 2.46322 22.3455 1.65444 21.749 1.05793C21.1525 0.461419 20.3437 0.125902 19.5001 0.125ZM1.77286 9.21591C1.53175 9.21591 1.30052 9.31169 1.13004 9.48218C0.959549 9.65266 0.86377 9.88389 0.86377 10.125C0.86377 10.3661 0.959549 10.5973 1.13004 10.7678C1.30052 10.9383 1.53175 11.0341 1.77286 11.0341H7.22741V9.21591H1.77286Z" fill="#111315"/>
</svg>
