<svg width="500" height="483" viewBox="0 0 500 483" fill="none" xmlns="http://www.w3.org/2000/svg">
<g clip-path="url(#clip0_33_8079)">
<path d="M407.766 429.724C424.491 418.859 438.389 404.168 448.311 386.867C508.917 281.454 495.229 125.867 378.512 59.1747C324.565 28.3522 246.909 8.84287 188.615 40.5031C141.326 66.1832 112.338 114.522 88.3645 158.513C73.2766 186.176 60.8606 215.949 42.295 241.831C18.1946 275.399 -8.32317 320.228 18.4491 359.226C54.9336 412.346 123.842 436.627 186.335 452.531C254.13 469.856 330.354 472.316 392.975 438.525C398.043 435.817 402.973 432.884 407.766 429.724Z" fill="white"/>
<path opacity="0.7" d="M407.766 429.724C424.491 418.859 438.389 404.168 448.311 386.867C508.917 281.454 495.229 125.867 378.512 59.1747C324.565 28.3522 246.909 8.84287 188.615 40.5031C141.326 66.1832 112.338 114.522 88.3645 158.513C73.2766 186.176 60.8606 215.949 42.295 241.831C18.1946 275.399 -8.32317 320.228 18.4491 359.226C54.9336 412.346 123.842 436.627 186.335 452.531C254.13 469.856 330.354 472.316 392.975 438.525C398.043 435.817 402.973 432.884 407.766 429.724Z" fill="url(#paint0_linear_33_8079)"/>
<path d="M340.034 66.0772C384.566 66.7664 421.804 83.678 451.099 117.501C452.04 118.525 452.763 119.728 453.226 121.039C453.689 122.349 453.881 123.74 453.792 125.127C453.703 126.514 453.334 127.869 452.707 129.109C452.08 130.35 451.209 131.451 450.145 132.345C449.112 133.225 447.913 133.889 446.619 134.298C445.325 134.707 443.963 134.852 442.612 134.726C441.261 134.599 439.949 134.203 438.753 133.562C437.557 132.92 436.503 132.044 435.651 130.988C425.195 118.635 412.482 108.387 398.191 100.791C376.223 89.1203 351.256 84.3198 326.526 87.012C301.797 89.7043 278.447 99.7651 259.505 115.89C254.119 120.438 249.327 125.729 244.47 130.871C240.229 135.335 234.069 136.046 229.626 132.218C225.184 128.39 224.908 121.997 228.916 117.374C253.451 88.9229 284.334 72.1174 321.564 66.9573C324.48 66.5544 327.417 66.2469 330.364 66.1091C333.577 65.9606 336.811 66.0772 340.034 66.0772Z" fill="#0F3015"/>
<path d="M343.713 107.407C371.885 108.139 398.382 120.131 419.217 144.263C423.331 149.013 422.853 155.141 418.284 159.107C413.947 162.839 407.681 162.341 403.641 157.697C392.762 145.1 379.583 135.865 363.509 131.529C330.757 122.686 302.436 130.744 278.686 154.993C277.806 155.894 276.99 156.859 276.152 157.803C274.363 159.867 271.828 161.136 269.104 161.331C266.38 161.526 263.69 160.63 261.626 158.842C259.562 157.053 258.293 154.518 258.098 151.794C257.903 149.07 258.798 146.38 260.587 144.316C269.75 133.443 281.059 124.578 293.806 118.275C308.427 110.991 323.875 107.481 343.713 107.407Z" fill="#0F3015"/>
<path d="M390.069 177.906C390.075 179.99 389.449 182.026 388.273 183.747C387.098 185.467 385.428 186.791 383.485 187.544C381.509 188.322 379.34 188.463 377.28 187.945C375.221 187.428 373.375 186.279 372.002 184.66C367.708 179.63 362.328 175.642 356.267 172.997C339.303 165.829 320.695 170.282 308.109 184.49C305.13 187.862 301.408 189.081 297.103 187.777C295.462 187.277 293.971 186.376 292.767 185.153C291.562 183.931 290.683 182.427 290.208 180.778C289.732 179.13 289.677 177.388 290.046 175.713C290.415 174.037 291.197 172.48 292.321 171.183C313.866 145.206 353.5 141.495 379.424 163.189C382.388 165.657 385.118 168.393 387.578 171.364C389.009 173.103 389.624 175.509 390.61 177.619L390.069 177.906Z" fill="#0F3015"/>
<path d="M339.992 232.023C335.892 232.035 331.881 230.829 328.468 228.558C325.055 226.286 322.393 223.052 320.822 219.265C319.251 215.478 318.84 211.31 319.642 207.289C320.445 203.268 322.423 199.577 325.328 196.683C328.232 193.789 331.931 191.824 335.954 191.036C339.978 190.248 344.145 190.674 347.926 192.259C351.707 193.844 354.932 196.516 357.191 199.938C359.45 203.359 360.642 207.375 360.614 211.474C360.603 216.934 358.424 222.165 354.557 226.018C350.69 229.871 345.451 232.031 339.992 232.023Z" fill="#0F3015"/>
<path d="M216.021 331.07C225.649 321.442 225.649 305.834 216.021 296.207C206.394 286.58 190.786 286.58 181.159 296.207C171.532 305.834 171.532 321.442 181.159 331.07C190.786 340.697 206.394 340.697 216.021 331.07Z" stroke="#076567" stroke-width="2" stroke-linecap="round" stroke-linejoin="round"/>
<path d="M198.581 338.295C205.315 338.295 210.775 327.258 210.775 313.643C210.775 300.029 205.315 288.992 198.581 288.992C191.847 288.992 186.388 300.029 186.388 313.643C186.388 327.258 191.847 338.295 198.581 338.295Z" stroke="#076567" stroke-width="2" stroke-linecap="round" stroke-linejoin="round"/>
<path d="M181.617 296.202C186.237 300.584 192.374 303.009 198.743 302.968C205.111 302.926 211.216 300.422 215.779 295.979" stroke="#076567" stroke-width="2" stroke-linecap="round" stroke-linejoin="round"/>
<path d="M215.61 331.149C210.982 326.721 204.812 324.269 198.407 324.313C192.002 324.356 185.866 326.892 181.299 331.382" stroke="#076567" stroke-width="2" stroke-linecap="round" stroke-linejoin="round"/>
<path d="M173.929 313.644H223.233" stroke="#076567" stroke-width="2" stroke-linecap="round" stroke-linejoin="round"/>
<path d="M198.581 288.992V338.295" stroke="#076567" stroke-width="2" stroke-linecap="round" stroke-linejoin="round"/>
<path d="M198.708 281.199V278.548" stroke="#011204" stroke-linecap="round" stroke-linejoin="round"/>
<path d="M198.708 273.162V6.84912" stroke="#011204" stroke-linecap="round" stroke-linejoin="round" stroke-dasharray="5.07 5.07"/>
<path d="M198.708 4.15609V1.50537" stroke="#011204" stroke-linecap="round" stroke-linejoin="round"/>
<path d="M158.927 137.498C154.867 137.504 150.975 139.12 148.107 141.993C145.238 144.866 143.627 148.759 143.627 152.819C143.627 161.302 158.948 178.574 158.948 178.574C158.948 178.574 174.258 161.28 174.258 152.819C174.26 150.806 173.864 148.812 173.094 146.952C172.324 145.092 171.194 143.402 169.77 141.979C168.346 140.556 166.655 139.427 164.795 138.658C162.934 137.89 160.94 137.495 158.927 137.498ZM158.927 159.764C157.548 159.766 156.2 159.359 155.053 158.595C153.905 157.83 153.011 156.742 152.482 155.469C151.954 154.195 151.815 152.794 152.083 151.442C152.352 150.089 153.015 148.847 153.99 147.872C154.965 146.897 156.207 146.234 157.56 145.965C158.912 145.697 160.313 145.836 161.587 146.364C162.86 146.893 163.948 147.787 164.713 148.934C165.477 150.082 165.884 151.43 165.882 152.809C165.882 154.654 165.15 156.425 163.846 157.731C162.541 159.037 160.772 159.772 158.927 159.775V159.764Z" fill="#FF7872" stroke="#011204" stroke-linecap="round" stroke-linejoin="round"/>
<path d="M158.927 137.498V134.847" stroke="#011204" stroke-linecap="round" stroke-linejoin="round"/>
<path d="M158.927 129.62V6.7749" stroke="#011204" stroke-linecap="round" stroke-linejoin="round" stroke-dasharray="4.93 4.93"/>
<path d="M158.927 4.15609V1.50537" stroke="#011204" stroke-linecap="round" stroke-linejoin="round"/>
<path d="M122.707 263.174H92.3512C89.9778 263.174 87.7016 264.117 86.0234 265.795C84.3452 267.474 83.4023 269.75 83.4023 272.123V285.907C83.4023 288.28 84.3452 290.556 86.0234 292.235C87.7016 293.913 89.9778 294.856 92.3512 294.856L92.6587 308.745L102.201 294.856H122.728C125.102 294.856 127.378 293.913 129.056 292.235C130.734 290.556 131.677 288.28 131.677 285.907V272.123C131.677 270.946 131.445 269.781 130.994 268.694C130.543 267.607 129.882 266.619 129.049 265.788C128.215 264.957 127.226 264.298 126.138 263.849C125.05 263.401 123.884 263.172 122.707 263.174Z" fill="url(#paint1_linear_33_8079)" stroke="#011204" stroke-linecap="round" stroke-linejoin="round"/>
<path d="M111.256 270.628H136.205C138.153 270.642 140.018 271.421 141.396 272.798C142.775 274.174 143.557 276.038 143.574 277.986V289.353C143.557 291.301 142.775 293.164 141.396 294.541C140.018 295.918 138.153 296.697 136.205 296.711L135.961 308.12L128.136 296.711H111.256C109.305 296.711 107.433 295.936 106.053 294.556C104.673 293.176 103.898 291.304 103.898 289.353V277.986C103.898 276.035 104.673 274.163 106.053 272.783C107.433 271.403 109.305 270.628 111.256 270.628Z" fill="#011204" stroke="#011204" stroke-linecap="round" stroke-linejoin="round"/>
<path d="M118.71 283.659C118.71 283.115 118.548 282.584 118.246 282.132C117.944 281.68 117.515 281.328 117.012 281.121C116.51 280.913 115.957 280.859 115.424 280.966C114.891 281.073 114.402 281.336 114.018 281.721C113.634 282.106 113.374 282.596 113.269 283.129C113.164 283.663 113.22 284.215 113.43 284.717C113.639 285.219 113.993 285.647 114.446 285.947C114.899 286.248 115.431 286.407 115.974 286.405C116.701 286.402 117.397 286.111 117.909 285.597C118.422 285.082 118.71 284.385 118.71 283.659Z" fill="#E5D9B6"/>
<path d="M124.467 286.405C125.984 286.405 127.213 285.175 127.213 283.659C127.213 282.142 125.984 280.913 124.467 280.913C122.95 280.913 121.721 282.142 121.721 283.659C121.721 285.175 122.95 286.405 124.467 286.405Z" fill="#E5D9B6"/>
<path d="M132.96 286.405C134.477 286.405 135.706 285.175 135.706 283.659C135.706 282.142 134.477 280.913 132.96 280.913C131.443 280.913 130.214 282.142 130.214 283.659C130.214 285.175 131.443 286.405 132.96 286.405Z" fill="#E5D9B6"/>
<path d="M116.6 253.472V250.822" stroke="#011204" stroke-linecap="round" stroke-linejoin="round"/>
<path d="M116.6 245.595V7.72949" stroke="#011204" stroke-linecap="round" stroke-linejoin="round" stroke-dasharray="4.93 4.93"/>
<path d="M116.6 5.11068V2.45996" stroke="#011204" stroke-linecap="round" stroke-linejoin="round"/>
<path d="M105.287 175.583H51.6785V206.915H105.287V175.583Z" fill="url(#paint2_linear_33_8079)" stroke="#011204" stroke-linecap="round" stroke-linejoin="round"/>
<path d="M51.6785 206.915L78.0584 182.55L105.287 206.915H51.6785Z" fill="url(#paint3_linear_33_8079)" stroke="#011204" stroke-linecap="round" stroke-linejoin="round"/>
<path d="M51.6785 175.583L78.4825 191.255L105.287 175.583H51.6785Z" fill="url(#paint4_linear_33_8079)" stroke="#011204" stroke-linecap="round" stroke-linejoin="round"/>
<path d="M78.0054 174.152V171.501" stroke="#011204" stroke-linecap="round" stroke-linejoin="round"/>
<path d="M78.0054 166.529V129.196" stroke="#011204" stroke-linecap="round" stroke-linejoin="round" stroke-dasharray="4.69 4.69"/>
<path d="M78.0054 126.704V124.054" stroke="#011204" stroke-linecap="round" stroke-linejoin="round"/>
<path d="M92.3404 78.8113C89.7186 73.5506 85.5623 69.2093 80.4207 66.361C75.279 63.5128 69.3942 62.2918 63.5438 62.8594C57.6935 63.4269 52.153 65.7564 47.6548 69.5398C43.1565 73.3232 39.9122 78.3826 38.3505 84.0491C37.884 84.0491 37.4175 83.9749 36.9509 83.9749C32.4304 83.881 28.0474 85.5325 24.7129 88.5862C21.3784 91.64 19.3487 95.8611 19.0457 100.373C18.7426 104.884 20.1895 109.339 23.0857 112.811C25.9819 116.283 30.1046 118.506 34.5971 119.017V119.229H88.8308C93.9926 119.351 99.0067 117.501 102.853 114.057C106.7 110.613 109.09 105.833 109.537 100.689C109.984 95.5451 108.455 90.4242 105.26 86.3679C102.065 82.3117 97.4457 79.6247 92.3404 78.8537V78.8113Z" fill="url(#paint5_linear_33_8079)" stroke="#011204" stroke-linecap="round" stroke-linejoin="round"/>
<path d="M66.3103 62.7269V60.0762" stroke="#011204" stroke-linecap="round" stroke-linejoin="round"/>
<path d="M66.3103 54.9018V5.76807" stroke="#011204" stroke-linecap="round" stroke-linejoin="round" stroke-dasharray="4.88 4.88"/>
<path d="M66.3103 3.18099V0.530273" stroke="#011204" stroke-linecap="round" stroke-linejoin="round"/>
<path d="M31.8509 251.871C30.6356 251.876 29.4551 252.278 28.4898 253.016L15.1408 242.997C15.389 242.365 15.5149 241.692 15.5119 241.014C15.5239 239.754 15.1089 238.527 14.3345 237.533C13.5602 236.539 12.472 235.837 11.2474 235.54C10.0228 235.244 8.73393 235.371 7.59067 235.9C6.44742 236.43 5.51719 237.331 4.95153 238.457C4.38588 239.583 4.21813 240.867 4.47561 242.101C4.7331 243.334 5.40064 244.444 6.3695 245.249C7.33836 246.055 8.55143 246.509 9.8111 246.537C11.0708 246.565 12.3028 246.165 13.3065 245.404L26.6555 255.413C26.4133 256.05 26.2876 256.725 26.2844 257.406C26.2868 258.084 26.4126 258.756 26.6555 259.389L13.3065 269.398C12.3062 268.64 11.0792 268.243 9.82465 268.27C8.57007 268.297 7.3615 268.747 6.395 269.548C5.42851 270.348 4.7608 271.452 4.50022 272.679C4.23963 273.907 4.40145 275.186 4.95942 276.31C5.5174 277.434 6.43879 278.337 7.57411 278.871C8.70943 279.406 9.99206 279.541 11.2139 279.255C12.4358 278.969 13.5252 278.279 14.3053 277.296C15.0855 276.313 15.5107 275.095 15.5119 273.841C15.5137 273.159 15.3879 272.483 15.1408 271.847L28.4898 261.838C29.1941 262.37 30.0147 262.726 30.884 262.879C31.7532 263.031 32.6462 262.974 33.4892 262.713C34.3323 262.452 35.1012 261.995 35.7326 261.378C36.364 260.762 36.8398 260.004 37.1207 259.167C37.4017 258.331 37.4797 257.44 37.3483 256.567C37.217 255.694 36.88 254.865 36.3653 254.149C35.8506 253.432 35.1728 252.848 34.3879 252.444C33.603 252.041 32.7334 251.83 31.8509 251.829V251.871Z" fill="#F75A74"/>
<path d="M23.6443 69.1522V66.5015" stroke="#011204" stroke-linecap="round" stroke-linejoin="round"/>
<path d="M23.6443 60.8183V6.74365" stroke="#011204" stroke-linecap="round" stroke-linejoin="round" stroke-dasharray="5.37 5.37"/>
<path d="M23.6443 3.89144V1.24072" stroke="#011204" stroke-linecap="round" stroke-linejoin="round"/>
<path d="M23.6443 240.081V237.431" stroke="#011204" stroke-linecap="round" stroke-linejoin="round"/>
<path d="M23.6443 232.119V128.391" stroke="#011204" stroke-linecap="round" stroke-linejoin="round" stroke-dasharray="5.02 5.02"/>
<path d="M23.6443 125.729V123.079" stroke="#011204" stroke-linecap="round" stroke-linejoin="round"/>
<path d="M80.4335 404.649C87.8586 404.649 93.8779 388.86 93.8779 369.383C93.8779 349.907 87.8586 334.118 80.4335 334.118C73.0083 334.118 66.989 349.907 66.989 369.383C66.989 388.86 73.0083 404.649 80.4335 404.649Z" fill="#0F3015" stroke="#011204" stroke-miterlimit="10"/>
<path d="M122.206 347.655C126.41 334.428 125.148 322.222 119.389 320.392C113.629 318.562 105.553 327.8 101.35 341.027C97.1465 354.253 98.4079 366.459 104.167 368.289C109.927 370.119 118.003 360.881 122.206 347.655Z" fill="#0F3015" stroke="#011204" stroke-miterlimit="10"/>
<path d="M23.549 427.402C9.86072 425.08 -0.413471 418.369 0.593803 412.42C1.60108 406.472 13.5187 403.514 27.1964 405.825C40.8741 408.137 51.1589 414.859 50.1517 420.807C49.1444 426.755 37.2268 429.714 23.549 427.402Z" fill="#0F3015" stroke="#011204" stroke-miterlimit="10"/>
<path d="M134.858 394.799C123.428 406.133 109.92 411.053 104.693 405.773C99.4656 400.492 104.491 387.037 115.921 375.703C127.351 364.368 140.859 359.449 146.086 364.729C151.314 370.009 146.288 383.464 134.858 394.799Z" fill="#0F3015" stroke="#011204" stroke-miterlimit="10"/>
<path d="M56.0892 363.7C67.148 379.742 70.4667 396.643 63.4476 401.457C56.4284 406.271 41.8389 397.184 30.7801 381.121C19.7213 365.057 16.392 348.252 23.4217 343.385C30.4514 338.518 45.0198 347.669 56.0892 363.7Z" fill="#0F3015" stroke="#011204" stroke-miterlimit="10"/>
<path d="M81.3665 402.888L82.4161 451.375" stroke="#011204" stroke-miterlimit="10" stroke-linecap="round"/>
<path d="M80.1155 356.268L81.3666 402.888" stroke="#011204" stroke-miterlimit="10" stroke-linecap="round"/>
<path d="M80.2109 348.665L80.1155 352.228" stroke="#011204" stroke-miterlimit="10" stroke-linecap="round"/>
<path d="M63.3948 399.146C71.1088 415.078 75.6225 432.369 76.6802 450.039" stroke="#011204" stroke-miterlimit="10" stroke-linecap="round"/>
<path d="M40.3015 363.838C49.5269 374.534 57.2924 386.407 63.3946 399.145" stroke="#011204" stroke-miterlimit="10" stroke-linecap="round"/>
<path d="M33.0386 356.151C33.0386 356.151 34.4275 357.434 36.7178 359.862" stroke="#011204" stroke-miterlimit="10" stroke-linecap="round"/>
<path d="M105.53 404.15C96.0999 417.37 88.7483 431.955 83.731 447.4" stroke="#011204" stroke-miterlimit="10" stroke-linecap="round"/>
<path d="M120.99 386.422C115.297 391.854 110.122 397.803 105.531 404.193" stroke="#011204" stroke-miterlimit="10" stroke-linecap="round"/>
<path d="M137.509 373.784C133.305 376.172 129.358 378.986 125.729 382.181" stroke="#011204" stroke-miterlimit="10" stroke-linecap="round"/>
<path d="M104.958 364.994C97.5358 388.437 87.5161 423.066 82.8508 453.135" stroke="#011204" stroke-miterlimit="10" stroke-linecap="round"/>
<path d="M109.496 351.093C108.171 355.048 106.633 359.735 104.958 364.994" stroke="#011204" stroke-miterlimit="10" stroke-linecap="round"/>
<path d="M114.151 337.649C114.151 337.649 112.846 341.243 110.747 347.393" stroke="#011204" stroke-miterlimit="10" stroke-linecap="round"/>
<path d="M49.4624 417.563C58.7717 421.094 67.8478 427.901 72.2692 440.794" stroke="#011204" stroke-miterlimit="10" stroke-linecap="round"/>
<path d="M32.2964 414.064C38.1681 414.365 43.9615 415.545 49.4837 417.563" stroke="#011204" stroke-miterlimit="10" stroke-linecap="round"/>
<path d="M21.1316 414.34C21.1316 414.34 22.7856 414.107 25.5212 414" stroke="#011204" stroke-miterlimit="10" stroke-linecap="round"/>
<path d="M140.658 427.402C154.346 425.08 164.62 418.369 163.613 412.42C162.606 406.472 150.688 403.514 137 405.825C123.312 408.137 113.048 414.859 114.055 420.807C115.063 426.755 126.97 429.714 140.658 427.402Z" fill="#0F3015" stroke="#011204" stroke-miterlimit="10"/>
<path d="M114.999 417.457C105.584 420.945 96.3591 427.763 91.8953 440.783" stroke="#011204" stroke-miterlimit="10" stroke-linecap="round"/>
<path d="M133.374 413.99C127.104 414.168 120.902 415.338 114.999 417.457" stroke="#011204" stroke-miterlimit="10" stroke-linecap="round"/>
<path d="M143.065 414.339C143.065 414.339 142.004 414.191 140.106 414.074" stroke="#011204" stroke-miterlimit="10" stroke-linecap="round"/>
<path d="M114.84 481.996C118.98 473.325 121.152 463.847 121.202 454.238C121.208 448.488 120.35 442.769 118.657 437.273H47.0451C45.3467 442.768 44.4888 448.487 44.5004 454.238C44.5544 463.846 46.7266 473.324 50.8621 481.996H114.84Z" fill="#011204"/>
<path d="M45.2003 445.205C44.9988 446.509 44.8398 447.823 44.7231 449.17H120.968C120.852 447.823 120.693 446.509 120.491 445.205H45.2003Z" fill="#E5D9B6"/>
<path d="M120.163 465.477C120.396 464.162 120.608 462.837 120.767 461.512H44.9353C45.0943 462.837 45.2958 464.162 45.5397 465.477H120.163Z" fill="#E5D9B6"/>
<path d="M53.7566 454.461C53.7566 455.071 53.5756 455.668 53.2366 456.175C52.8976 456.682 52.4157 457.078 51.8519 457.311C51.2881 457.545 50.6677 457.606 50.0692 457.487C49.4707 457.368 48.9209 457.074 48.4894 456.643C48.0579 456.211 47.764 455.661 47.645 455.063C47.5259 454.464 47.587 453.844 47.8206 453.28C48.0541 452.716 48.4496 452.235 48.957 451.895C49.4644 451.556 50.0609 451.375 50.6711 451.375C51.4886 451.378 52.2717 451.704 52.8498 452.282C53.4278 452.86 53.7538 453.643 53.7566 454.461Z" fill="#E5D9B6"/>
<path d="M69.1838 454.461C69.1838 455.071 69.0029 455.668 68.6638 456.175C68.3248 456.682 67.8429 457.078 67.2791 457.311C66.7153 457.545 66.095 457.606 65.4964 457.487C64.8979 457.368 64.3481 457.074 63.9166 456.643C63.4851 456.211 63.1913 455.661 63.0722 455.063C62.9532 454.464 63.0143 453.844 63.2478 453.28C63.4813 452.716 63.8768 452.235 64.3842 451.895C64.8916 451.556 65.4881 451.375 66.0984 451.375C66.9167 451.375 67.7015 451.701 68.2801 452.279C68.8587 452.858 69.1838 453.643 69.1838 454.461Z" fill="#E5D9B6"/>
<path d="M84.6111 454.461C84.6111 455.071 84.4301 455.668 84.0911 456.175C83.752 456.682 83.2702 457.078 82.7064 457.311C82.1426 457.545 81.5222 457.606 80.9237 457.487C80.3252 457.368 79.7754 457.074 79.3439 456.643C78.9124 456.211 78.6185 455.661 78.4995 455.063C78.3804 454.464 78.4415 453.844 78.6751 453.28C78.9086 452.716 79.3041 452.235 79.8115 451.895C80.3189 451.556 80.9154 451.375 81.5256 451.375C82.3439 451.375 83.1287 451.701 83.7074 452.279C84.286 452.858 84.6111 453.643 84.6111 454.461Z" fill="#E5D9B6"/>
<path d="M96.9634 457.546C98.6674 457.546 100.049 456.165 100.049 454.461C100.049 452.757 98.6674 451.375 96.9634 451.375C95.2593 451.375 93.8779 452.757 93.8779 454.461C93.8779 456.165 95.2593 457.546 96.9634 457.546Z" fill="#E5D9B6"/>
<path d="M115.466 454.461C115.466 455.071 115.285 455.668 114.946 456.175C114.607 456.682 114.125 457.078 113.561 457.311C112.997 457.545 112.377 457.606 111.778 457.487C111.18 457.368 110.63 457.074 110.198 456.643C109.767 456.211 109.473 455.661 109.354 455.063C109.235 454.464 109.296 453.844 109.53 453.28C109.763 452.716 110.159 452.235 110.666 451.895C111.173 451.556 111.77 451.375 112.38 451.375C113.198 451.375 113.983 451.701 114.562 452.279C115.14 452.858 115.466 453.643 115.466 454.461Z" fill="#E5D9B6"/>
<path d="M451.799 240.187C450.729 240.064 449.653 240.368 448.806 241.033C447.958 241.698 447.407 242.67 447.272 243.739L426.723 402.506L440.104 404.012L455.425 244.661C455.527 243.589 455.204 242.52 454.526 241.684C453.848 240.847 452.869 240.31 451.799 240.187Z" fill="#011204" stroke="#011204" stroke-linecap="round" stroke-linejoin="round"/>
<path d="M245.17 240.187C246.241 240.064 247.316 240.368 248.164 241.033C249.011 241.698 249.562 242.67 249.698 243.739L270.267 402.506L256.887 404.012L241.544 244.661C241.443 243.589 241.766 242.52 242.444 241.684C243.122 240.847 244.101 240.31 245.17 240.187Z" fill="#011204" stroke="#011204" stroke-linecap="round" stroke-linejoin="round"/>
<path d="M475.433 399.304H266.27C263.582 399.304 261.403 401.483 261.403 404.171V477.119C261.403 479.807 263.582 481.985 266.27 481.985H475.433C478.121 481.985 480.3 479.807 480.3 477.119V404.171C480.3 401.483 478.121 399.304 475.433 399.304Z" fill="url(#paint6_linear_33_8079)" stroke="#011204" stroke-linecap="round" stroke-linejoin="round"/>
<path d="M480.512 409.504H261.191C258.75 409.504 256.77 411.484 256.77 413.926V467.386C256.77 469.827 258.75 471.807 261.191 471.807H480.512C482.954 471.807 484.933 469.827 484.933 467.386V413.926C484.933 411.484 482.954 409.504 480.512 409.504Z" fill="url(#paint7_linear_33_8079)" stroke="#011204" stroke-linecap="round" stroke-linejoin="round"/>
<path d="M360.636 399.304H151.473C148.785 399.304 146.606 401.483 146.606 404.171V477.119C146.606 479.807 148.785 481.985 151.473 481.985H360.636C363.324 481.985 365.502 479.807 365.502 477.119V404.171C365.502 401.483 363.324 399.304 360.636 399.304Z" fill="url(#paint8_linear_33_8079)" stroke="#011204" stroke-linecap="round" stroke-linejoin="round"/>
<path d="M365.725 409.504H146.405C143.963 409.504 141.983 411.484 141.983 413.926V467.386C141.983 469.827 143.963 471.807 146.405 471.807H365.725C368.167 471.807 370.147 469.827 370.147 467.386V413.926C370.147 411.484 368.167 409.504 365.725 409.504Z" fill="url(#paint9_linear_33_8079)" stroke="#011204" stroke-linecap="round" stroke-linejoin="round"/>
<path d="M347.605 423.161H166.486C163.553 423.161 161.174 425.539 161.174 428.473V451.333C161.174 454.266 163.553 456.645 166.486 456.645H347.605C350.539 456.645 352.917 454.266 352.917 451.333V428.473C352.917 425.539 350.539 423.161 347.605 423.161Z" fill="#011204" stroke="#011204" stroke-linecap="round" stroke-linejoin="round"/>
<path d="M171.82 431.272C169.907 432.037 168.319 433.443 167.327 435.249C166.336 437.054 166.001 439.148 166.382 441.173C166.762 443.198 167.833 445.028 169.412 446.35C170.991 447.673 172.981 448.407 175.041 448.427C177.101 448.446 179.104 447.75 180.708 446.457C182.312 445.164 183.417 443.354 183.835 441.337C184.253 439.32 183.959 437.22 183.001 435.396C182.043 433.572 180.482 432.137 178.584 431.336" stroke="#0F3015" stroke-width="3" stroke-miterlimit="10" stroke-linecap="round"/>
<path d="M175.223 427.826V434.411" stroke="#0F3015" stroke-width="3" stroke-miterlimit="10" stroke-linecap="round"/>
<path d="M278.993 449.223C278.993 449.223 270.331 451.948 268.497 452.297C266.662 452.647 261.075 451.237 260.852 453.358C260.629 455.478 264.096 457.525 269.536 459.719C274.975 461.914 280.944 463.706 284.995 463.526C289.045 463.346 288.271 455.362 288.494 453.983C288.716 452.605 278.993 449.223 278.993 449.223Z" fill="#FFFDF9" stroke="#011204" stroke-linecap="round" stroke-linejoin="round"/>
<path d="M272.377 457.79C265.602 454.991 262.442 453.549 261.064 452.859C260.938 453.013 260.864 453.202 260.852 453.4C260.682 455.616 264.096 457.567 269.536 459.762C274.975 461.957 280.944 463.749 284.995 463.568C286.511 463.494 287.349 462.338 287.815 460.843C282.515 460.882 277.263 459.844 272.377 457.79Z" fill="#FFFDF9" stroke="#011204" stroke-linecap="round" stroke-linejoin="round"/>
<path d="M331.637 367.92L329.368 369.16V372.458C329.368 372.458 282.047 380.346 281.432 384.471C280.817 388.595 278.94 449.954 278.94 449.954C278.94 449.954 286.575 458.172 288.218 456.316C289.861 454.461 290.286 448.512 290.286 448.512L298.132 394.162C298.132 394.162 351.432 399.06 359.48 396.579C367.527 394.098 371.44 383.389 371.641 378.438C371.843 373.486 371.853 371.217 371.853 371.217L335.539 366.276L331.637 367.92Z" fill="#0F3015" stroke="#011204" stroke-linecap="round" stroke-linejoin="round"/>
<path d="M315.552 451.439L315.213 452.001C313.501 454.734 311.546 457.307 309.371 459.688C305.861 463.399 300.093 466.495 300.295 467.725C300.496 468.955 304.419 469.792 317.821 465.668C323.854 463.812 328.339 463.812 328.954 461.745C329.569 459.677 324.628 450.824 324.628 450.824L315.552 451.439Z" fill="#FFFDF9" stroke="#011204" stroke-linecap="round" stroke-linejoin="round"/>
<path d="M328.954 461.703C329.032 460.705 328.849 459.704 328.424 458.797C323.893 460.952 319.172 462.684 314.322 463.972C309.938 465.186 305.469 466.068 300.952 466.612C300.507 467.046 300.252 467.417 300.295 467.672C300.496 468.913 304.419 469.74 317.821 465.615C323.875 463.823 328.339 463.823 328.954 461.703Z" fill="#FFFDF9" stroke="#011204" stroke-linecap="round" stroke-linejoin="round"/>
<path d="M344.636 376.784C344.636 376.784 339.684 372.458 339.271 374.929C338.857 377.399 338.03 378.025 338.03 378.025C338.03 378.025 303.391 382.181 299.489 384.62C295.587 387.058 294.336 390.398 296.605 395.35C298.874 400.301 314.131 454.535 314.131 454.535C315.72 455.253 317.38 455.804 319.083 456.179C321.352 456.592 326.091 454.323 326.091 454.323C326.091 454.323 325.519 444.218 324.077 440.921C322.635 437.623 316.729 399.57 316.729 399.57C316.729 399.57 341.762 399.665 350.223 399.665C358.685 399.665 367.952 392.657 369.807 386.878C371.663 381.1 370.867 379.87 370.867 379.87" fill="#0F3015"/>
<path d="M344.636 376.784C344.636 376.784 339.684 372.458 339.271 374.929C338.857 377.399 338.03 378.025 338.03 378.025C338.03 378.025 303.391 382.181 299.489 384.62C295.587 387.058 294.336 390.398 296.605 395.35C298.874 400.301 314.131 454.535 314.131 454.535C315.72 455.253 317.38 455.804 319.083 456.179C321.352 456.592 326.091 454.323 326.091 454.323C326.091 454.323 325.519 444.218 324.077 440.921C322.635 437.623 316.729 399.57 316.729 399.57C316.729 399.57 341.762 399.665 350.223 399.665C358.685 399.665 367.952 392.657 369.807 386.878C371.663 381.1 370.867 379.87 370.867 379.87" stroke="#011204" stroke-linecap="round" stroke-linejoin="round"/>
<path d="M316.708 399.58L315.52 393.091" stroke="#011204" stroke-linecap="round" stroke-linejoin="round"/>
<path d="M356.076 385.902C356.74 386.828 357.279 387.836 357.677 388.903" stroke="#011204" stroke-linecap="round" stroke-linejoin="round"/>
<path d="M346.65 378.746C349.702 380.005 352.46 381.882 354.751 384.259" stroke="#011204" stroke-linecap="round" stroke-linejoin="round"/>
<path d="M354.486 379.912C357.675 381.373 360.318 383.808 362.035 386.867" stroke="#011204" stroke-linecap="round" stroke-linejoin="round"/>
<path d="M332.146 317.312C332.146 317.312 332.146 317.609 332.093 318.118C331.912 321.034 328.679 325.371 330.608 330.842C334.987 343.183 334.097 352.249 333.704 349.609C334.319 353.733 330.608 362.597 330.608 365.513C330.608 368.429 322.974 368.832 340.299 373.995C357.624 379.159 363.626 378.926 367.93 377.272C372.235 375.618 375.352 374.176 375.766 370.677C376.18 367.178 372.469 360.986 372.267 355.621C372.066 350.256 371.323 333.471 366.17 322.752C361.017 312.032 347.403 304.6 347.403 304.6L332.146 317.312Z" fill="url(#paint10_linear_33_8079)" stroke="#011204" stroke-linecap="round" stroke-linejoin="round"/>
<path d="M359.289 357.794C360.19 357.105 361.028 356.405 361.802 355.674" stroke="#011204" stroke-linecap="round" stroke-linejoin="round"/>
<path d="M337.553 369.924C343.94 367.117 350.104 363.828 355.992 360.084" stroke="#011204" stroke-linecap="round" stroke-linejoin="round"/>
<path d="M344.201 368.736C341.751 369.962 339.187 370.946 336.546 371.673" stroke="#011204" stroke-linecap="round" stroke-linejoin="round"/>
<path d="M347.552 366.923C347.552 366.923 346.969 367.284 345.993 367.814" stroke="#011204" stroke-linecap="round" stroke-linejoin="round"/>
<path d="M350.415 339.664L355.981 332.856" stroke="#011204" stroke-linecap="round" stroke-linejoin="round"/>
<path d="M330.237 271.582C328.842 273.039 327.598 274.634 326.526 276.343C325.625 278.124 325.466 279.418 323.928 280.584C322.391 281.75 319.21 280.998 319.295 282.832C319.38 284.666 321.288 286.416 321.288 286.416C321.288 286.416 319.74 297.612 320.323 299.394C320.907 301.175 328.922 301.514 328.922 301.514L333.004 314.81L347.414 305.045L347.795 301.175C348.156 299.606 350.743 294.75 352.885 291.102C355.027 287.455 354.072 277.849 348.898 273.714C343.724 269.578 336.874 270.003 334.764 269.854C332.655 269.706 330.237 271.582 330.237 271.582Z" fill="#F6A36A" stroke="#011204" stroke-linecap="round" stroke-linejoin="round"/>
<path d="M322.221 288.579C322.902 289.259 323.76 289.733 324.698 289.947C325.636 290.16 326.615 290.105 327.523 289.787" stroke="#011204" stroke-linecap="round" stroke-linejoin="round"/>
<path d="M328.35 281.846C328 282.662 327.449 283.203 327.12 283.065C326.791 282.927 326.812 282.143 327.173 281.326C327.533 280.51 328.074 279.969 328.392 280.107C328.71 280.245 328.7 281.029 328.35 281.846Z" fill="#011204"/>
<path d="M327.788 277.796C327.788 277.796 330.894 277.181 331.361 280.256" stroke="#011204" stroke-linecap="round" stroke-linejoin="round"/>
<path d="M328.869 301.461L333.863 301.271L330.449 305.448L328.869 301.461Z" fill="#011204" stroke="#011204" stroke-linecap="round" stroke-linejoin="round"/>
<path d="M340.267 296.287L338.104 295.64L336.822 297.655" stroke="#011204" stroke-linecap="round" stroke-linejoin="round"/>
<path d="M339.059 266.662C339.059 266.662 342.176 263.079 338.433 261.361C334.69 259.643 321.956 262.75 323.324 268.338C324.692 273.925 336.578 274.636 337.712 274.699C338.847 274.763 335.443 275.993 336.376 277.689C337.309 279.386 339.557 280.234 339.674 282.068C339.79 283.903 337.553 286.363 338.613 287.434C339.674 288.504 341.37 286.903 342.452 286.49C343.533 286.076 346.491 289.056 344.159 292.852C341.826 296.647 340.257 296.255 340.257 296.255C339.983 296.954 339.937 297.722 340.128 298.448C340.319 299.174 340.735 299.821 341.317 300.295C343.438 302.087 347.679 301.557 348.739 299.818C349.799 298.079 351.634 296.51 355.451 292.756C359.268 289.003 361.081 279.524 358.441 272.982C355.801 266.44 343.83 263.778 339.059 266.662Z" fill="#011204" stroke="#011204" stroke-linecap="round" stroke-linejoin="round"/>
<path d="M347.371 301.482L327.714 315.955L328.838 322.19L350.955 305.904L347.371 301.482Z" fill="url(#paint11_linear_33_8079)" stroke="#011204" stroke-linecap="round" stroke-linejoin="round"/>
<path d="M298.312 385.87L332.92 378.289L324.84 373.486L292.003 380.813L298.312 385.87Z" fill="url(#paint12_linear_33_8079)" stroke="#011204" stroke-linecap="round" stroke-linejoin="round"/>
<path d="M282.906 353.023L298.312 385.871L292.003 380.813L276.343 350.001L282.906 353.023Z" fill="#011204" stroke="#011204" stroke-linecap="round" stroke-linejoin="round"/>
<path d="M310.739 371.907L302.765 373.964L297.824 381.121C298.023 381.313 298.259 381.461 298.518 381.556C298.778 381.651 299.054 381.691 299.33 381.672C300.157 381.534 302.352 379.604 302.352 379.604L308.13 378.088C308.13 378.088 305.108 379.88 305.108 380.294C305.108 380.707 305.66 380.845 307.028 380.707C308.395 380.569 311.703 377.526 311.703 377.526L313.909 374.77L310.739 371.907Z" fill="#F6A36A" stroke="#011204" stroke-linecap="round" stroke-linejoin="round"/>
<path d="M332.284 336.101L328.212 354.719L310.749 371.907L314.874 375.755L329.378 369.16L330.375 366.541L333.885 350.945L332.284 336.101Z" fill="url(#paint13_linear_33_8079)" stroke="#011204" stroke-linecap="round" stroke-linejoin="round"/>
<path d="M305.903 368.153C305.903 368.153 300.337 368.98 298.28 368.98C296.223 368.98 291.272 369.393 290.445 369.807C289.617 370.22 285.694 372.691 285.906 374.546C286.119 376.402 289.617 374.758 289.617 374.758C290.345 376.427 291.244 378.015 292.3 379.498C293.943 381.767 294.77 380.94 298.068 379.71C301.365 378.48 306.317 374.758 306.317 374.758L309.212 372.076L305.903 368.153Z" fill="#F6A36A" stroke="#011204" stroke-linecap="round" stroke-linejoin="round"/>
<path d="M354.327 310.176C354.327 310.176 345.845 308.936 342.78 313.06C339.26 318.035 336.931 323.752 335.973 329.771C335.348 335.125 331.435 345.855 331.435 345.855L305.214 367.686L309.752 374.483C309.752 374.483 341.561 359.639 342.367 358.642C343.173 357.646 353.701 330.386 353.701 330.386" fill="url(#paint14_linear_33_8079)"/>
<path d="M354.327 310.176C354.327 310.176 345.845 308.936 342.78 313.06C339.26 318.035 336.931 323.752 335.973 329.771C335.348 335.125 331.435 345.855 331.435 345.855L305.214 367.686L309.752 374.483C309.752 374.483 341.561 359.639 342.367 358.642C343.173 357.646 353.701 330.386 353.701 330.386" stroke="#011204" stroke-linecap="round" stroke-linejoin="round"/>
<path d="M11.6208 481.996H499.47" stroke="#011204" stroke-linecap="round" stroke-linejoin="round"/>
</g>
<defs>
<linearGradient id="paint0_linear_33_8079" x1="384.5" y1="66" x2="40.5001" y2="367.5" gradientUnits="userSpaceOnUse">
<stop stop-color="#FFFDF9"/>
<stop offset="1" stop-color="#E5D9B6"/>
</linearGradient>
<linearGradient id="paint1_linear_33_8079" x1="107.54" y1="263.174" x2="107.54" y2="308.745" gradientUnits="userSpaceOnUse">
<stop stop-color="#FAFFF2"/>
<stop offset="1" stop-color="#E5D9B6"/>
</linearGradient>
<linearGradient id="paint2_linear_33_8079" x1="78.4825" y1="175.583" x2="78.4825" y2="206.915" gradientUnits="userSpaceOnUse">
<stop stop-color="#E5D9B6"/>
<stop offset="1" stop-color="#FCD246"/>
</linearGradient>
<linearGradient id="paint3_linear_33_8079" x1="78.4825" y1="182.55" x2="78.4825" y2="206.915" gradientUnits="userSpaceOnUse">
<stop stop-color="#E5D9B6"/>
<stop offset="1" stop-color="#FCD246"/>
</linearGradient>
<linearGradient id="paint4_linear_33_8079" x1="78.4825" y1="175.583" x2="78.4825" y2="191.255" gradientUnits="userSpaceOnUse">
<stop stop-color="#E5D9B6"/>
<stop offset="1" stop-color="#FCD246"/>
</linearGradient>
<linearGradient id="paint5_linear_33_8079" x1="64.3096" y1="62.7236" x2="64.3096" y2="119.235" gradientUnits="userSpaceOnUse">
<stop stop-color="#FAFFF2"/>
<stop offset="1" stop-color="#E5D9B6"/>
</linearGradient>
<linearGradient id="paint6_linear_33_8079" x1="370.852" y1="399.304" x2="370.852" y2="481.985" gradientUnits="userSpaceOnUse">
<stop stop-color="#FAFFF2"/>
<stop offset="1" stop-color="#E5D9B6"/>
</linearGradient>
<linearGradient id="paint7_linear_33_8079" x1="370.852" y1="409.504" x2="370.852" y2="471.807" gradientUnits="userSpaceOnUse">
<stop stop-color="#FAFFF2"/>
<stop offset="1" stop-color="#E5D9B6"/>
</linearGradient>
<linearGradient id="paint8_linear_33_8079" x1="256.054" y1="399.304" x2="256.054" y2="481.985" gradientUnits="userSpaceOnUse">
<stop stop-color="#FAFFF2"/>
<stop offset="1" stop-color="#E5D9B6"/>
</linearGradient>
<linearGradient id="paint9_linear_33_8079" x1="256.065" y1="409.504" x2="256.065" y2="471.807" gradientUnits="userSpaceOnUse">
<stop stop-color="#FAFFF2"/>
<stop offset="1" stop-color="#E5D9B6"/>
</linearGradient>
<linearGradient id="paint10_linear_33_8079" x1="352.366" y1="304.6" x2="352.366" y2="378.324" gradientUnits="userSpaceOnUse">
<stop stop-color="#FAFFF2"/>
<stop offset="1" stop-color="#E5D9B6"/>
</linearGradient>
<linearGradient id="paint11_linear_33_8079" x1="339.334" y1="301.482" x2="339.334" y2="322.19" gradientUnits="userSpaceOnUse">
<stop stop-color="#FAFFF2"/>
<stop offset="1" stop-color="#E5D9B6"/>
</linearGradient>
<linearGradient id="paint12_linear_33_8079" x1="312.461" y1="373.486" x2="312.461" y2="385.87" gradientUnits="userSpaceOnUse">
<stop stop-color="#FAFFF2"/>
<stop offset="1" stop-color="#E5D9B6"/>
</linearGradient>
<linearGradient id="paint13_linear_33_8079" x1="322.317" y1="336.101" x2="322.317" y2="375.755" gradientUnits="userSpaceOnUse">
<stop stop-color="#FAFFF2"/>
<stop offset="1" stop-color="#E5D9B6"/>
</linearGradient>
<linearGradient id="paint14_linear_33_8079" x1="329.771" y1="310.001" x2="329.771" y2="374.483" gradientUnits="userSpaceOnUse">
<stop stop-color="#FAFFF2"/>
<stop offset="1" stop-color="#E5D9B6"/>
</linearGradient>
<clipPath id="clip0_33_8079">
<rect width="500" height="482.526" fill="white"/>
</clipPath>
</defs>
</svg>
