<svg width="107" height="204" viewBox="0 0 107 204" fill="none" xmlns="http://www.w3.org/2000/svg">
<path d="M96.4 128.6H39.7V158H22.9V84.5L37.6 69.8H22.9V55.1H96.4V69.8H39.7V126.5L52.3 113.9H96.4V128.6Z" fill="#A1D0D4"/>
<path d="M13.6 149.8C13.9867 149.8 14.32 149.94 14.6 150.22C14.8667 150.487 15 150.813 15 151.2V158.2H8L6.6 156.8V158.2H5.2L5.2 152.6C5.2 152.213 5.34 151.887 5.62 151.62C5.88667 151.34 6.21333 151.2 6.6 151.2H9.4V151.16C9.4 150.773 9.54 150.453 9.82 150.2C10.0867 149.933 10.4133 149.8 10.8 149.8H13.6ZM9.4 152.8H6.6V156.6H10.6L9.4 155.4V152.8ZM13.6 151.4H10.8V156.6H13.6V151.4ZM15 137.998V140.038L10.8 144.198V139.798H6.6V144.998H15L15 146.598H7.98L6.6 145.198V146.598H5.2V139.598C5.2 139.225 5.34 138.898 5.62 138.618C5.9 138.338 6.22667 138.198 6.6 138.198H10.4C11.4667 138.198 12 138.665 12 139.598V140.798H12.22L15 137.998ZM13.6 126.795C13.9867 126.795 14.32 126.935 14.6 127.215C14.8667 127.481 15 127.808 15 128.195V133.795C15 134.181 14.8667 134.515 14.6 134.795C14.32 135.061 13.9867 135.195 13.6 135.195H6.6C6.21333 135.195 5.88667 135.061 5.62 134.795C5.34 134.515 5.2 134.181 5.2 133.795V128.195C5.2 127.808 5.34 127.481 5.62 127.215C5.88667 126.935 6.21333 126.795 6.6 126.795H13.6ZM13.6 128.395H6.6V133.595H13.6V128.395ZM15 114.898L15 116.498H12.2V121.698H15V123.298H6.6C6.21333 123.298 5.88667 123.164 5.62 122.898C5.34 122.618 5.2 122.284 5.2 121.898V114.898H15ZM10.8 116.498H6.6V121.698H12L10.8 120.498V116.498ZM13.6 102.905C13.9733 102.905 14.3 103.045 14.58 103.325C14.86 103.605 15 103.932 15 104.305V111.305H8L6.6 109.905V111.305H5.2L5.2 104.305C5.2 103.932 5.34 103.605 5.62 103.325C5.9 103.045 6.22667 102.905 6.6 102.905H13.6ZM13.6 104.505H6.6L6.6 109.705H14.8L13.6 108.505V104.505ZM13.6 91.0109C13.9867 91.0109 14.32 91.1509 14.6 91.4309C14.8667 91.6976 15 92.0243 15 92.4109V99.4109H8L6.6 98.0109V99.4109H5.2L5.2 93.8109C5.2 93.4243 5.34 93.0976 5.62 92.8309C5.88667 92.5509 6.21333 92.4109 6.6 92.4109H9.4V92.3709C9.4 91.9843 9.54 91.6643 9.82 91.4109C10.0867 91.1443 10.4133 91.0109 10.8 91.0109H13.6ZM9.4 94.0109H6.6L6.6 97.8109H10.6L9.4 96.6109V94.0109ZM13.6 92.6109H10.8V97.8109H13.6V92.6109ZM15 79.4094V81.0094H12.2V86.2094H15L15 87.8094H6.6C6.21333 87.8094 5.88667 87.676 5.62 87.4094C5.34 87.1294 5.2 86.796 5.2 86.4094L5.2 79.4094H15ZM10.8 81.0094H6.6V86.2094H12L10.8 85.0094V81.0094ZM14.98 67.4172V70.2172L6.68 74.0172V74.8172L7.68 74.2172H14.98V75.8172H5.18V72.9972L13.48 69.2172V68.4172L12.48 69.0172H5.18V67.4172H14.98ZM13.6 55.425C13.9733 55.425 14.3 55.565 14.58 55.845C14.86 56.125 15 56.4517 15 56.825L15 63.825H8L6.6 62.425V63.825H5.2V56.825C5.2 56.4517 5.34 56.125 5.62 55.845C5.9 55.565 6.22667 55.425 6.6 55.425H13.6ZM13.6 57.025H6.6V62.225H14.8L13.6 61.025L13.6 57.025Z" fill="#A1D0D4"/>
</svg>
