<svg width="50" height="50" viewBox="0 0 50 50" fill="none" xmlns="http://www.w3.org/2000/svg">
<path d="M47.1807 23.963C45.1094 14.5987 41.9922 9.6007 37.3682 8.23546C36.3962 7.95036 35.388 7.80792 34.3751 7.81261C33.0362 7.81261 31.8702 8.13878 30.6368 8.48449C29.1504 8.90148 27.462 9.37511 25.0001 9.37511C22.5381 9.37511 20.8487 8.90246 19.3594 8.48546C18.1251 8.13878 16.96 7.81261 15.6251 7.81261C14.5776 7.80898 13.5348 7.95096 12.5264 8.23449C7.92682 9.59386 4.81158 14.59 2.71002 23.9571C0.450254 34.0372 1.56256 40.4015 5.82916 41.878C6.414 42.0842 7.02936 42.1905 7.64947 42.1925C10.5723 42.1925 12.9161 39.7579 14.5176 37.7648C16.3272 35.5089 18.4454 34.3644 25.0001 34.3644C30.8545 34.3644 33.2774 35.1583 35.3702 37.7648C36.6856 39.4034 37.9288 40.5499 39.169 41.2716C40.8184 42.2306 42.4669 42.4435 44.0674 41.8937C46.5889 41.0333 48.0342 38.7589 48.3643 35.1319C48.6153 32.3507 48.2286 28.6974 47.1807 23.963ZM20.3126 23.4376H17.1876V26.5626C17.1876 26.977 17.0229 27.3744 16.7299 27.6675C16.4369 27.9605 16.0395 28.1251 15.6251 28.1251C15.2107 28.1251 14.8132 27.9605 14.5202 27.6675C14.2272 27.3744 14.0626 26.977 14.0626 26.5626V23.4376H10.9376C10.5232 23.4376 10.1257 23.273 9.8327 22.98C9.53968 22.6869 9.37506 22.2895 9.37506 21.8751C9.37506 21.4607 9.53968 21.0633 9.8327 20.7703C10.1257 20.4772 10.5232 20.3126 10.9376 20.3126H14.0626V17.1876C14.0626 16.7732 14.2272 16.3758 14.5202 16.0828C14.8132 15.7897 15.2107 15.6251 15.6251 15.6251C16.0395 15.6251 16.4369 15.7897 16.7299 16.0828C17.0229 16.3758 17.1876 16.7732 17.1876 17.1876V20.3126H20.3126C20.727 20.3126 21.1244 20.4772 21.4174 20.7703C21.7104 21.0633 21.8751 21.4607 21.8751 21.8751C21.8751 22.2895 21.7104 22.6869 21.4174 22.98C21.1244 23.273 20.727 23.4376 20.3126 23.4376ZM28.5157 23.8282C28.1294 23.8282 27.7518 23.7137 27.4306 23.4991C27.1094 23.2845 26.8591 22.9794 26.7112 22.6225C26.5634 22.2657 26.5247 21.8729 26.6001 21.4941C26.6754 21.1152 26.8615 20.7672 27.1346 20.494C27.4078 20.2209 27.7558 20.0349 28.1346 19.9595C28.5135 19.8842 28.9062 19.9228 29.2631 20.0707C29.62 20.2185 29.925 20.4688 30.1396 20.79C30.3543 21.1112 30.4688 21.4888 30.4688 21.8751C30.4688 22.3931 30.263 22.8899 29.8968 23.2562C29.5305 23.6225 29.0337 23.8282 28.5157 23.8282ZM32.8126 28.1251C32.4261 28.1251 32.0482 28.0104 31.727 27.7956C31.4057 27.5808 31.1553 27.2755 31.0076 26.9183C30.86 26.5611 30.8216 26.1682 30.8973 25.7892C30.9731 25.4101 31.1596 25.0621 31.4332 24.7892C31.7069 24.5162 32.0553 24.3306 32.4345 24.2558C32.8137 24.181 33.2066 24.2204 33.5634 24.3689C33.9202 24.5175 34.2249 24.7686 34.4389 25.0904C34.6529 25.4123 34.7666 25.7904 34.7657 26.1769C34.7644 26.694 34.558 27.1896 34.1919 27.5548C33.8258 27.92 33.3297 28.1251 32.8126 28.1251ZM32.8126 19.5314C32.4263 19.5314 32.0486 19.4168 31.7275 19.2022C31.4063 18.9876 31.1559 18.6826 31.0081 18.3257C30.8603 17.9688 30.8216 17.5761 30.897 17.1972C30.9723 16.8183 31.1583 16.4703 31.4315 16.1972C31.7046 15.924 32.0527 15.738 32.4315 15.6626C32.8104 15.5873 33.2031 15.626 33.56 15.7738C33.9169 15.9216 34.2219 16.1719 34.4365 16.4931C34.6511 16.8143 34.7657 17.1919 34.7657 17.5782C34.7657 18.0962 34.5599 18.593 34.1936 18.9593C33.8273 19.3256 33.3306 19.5314 32.8126 19.5314ZM37.1094 23.8282C36.7231 23.8282 36.3455 23.7137 36.0243 23.4991C35.7031 23.2845 35.4528 22.9794 35.305 22.6225C35.1572 22.2657 35.1185 21.8729 35.1938 21.4941C35.2692 21.1152 35.4552 20.7672 35.7284 20.494C36.0015 20.2209 36.3495 20.0349 36.7284 19.9595C37.1073 19.8842 37.5 19.9228 37.8569 20.0707C38.2137 20.2185 38.5188 20.4688 38.7334 20.79C38.948 21.1112 39.0626 21.4888 39.0626 21.8751C39.0626 22.3931 38.8568 22.8899 38.4905 23.2562C38.1242 23.6225 37.6274 23.8282 37.1094 23.8282Z" fill="#E5D9B6"/>
</svg>
