<svg width="50" height="50" viewBox="0 0 50 50" fill="none" xmlns="http://www.w3.org/2000/svg">
<path d="M25.543 9.89053C25.3976 9.75145 25.2041 9.67383 25.0029 9.67383C24.8017 9.67383 24.6083 9.75145 24.4629 9.89053L6.48438 27.0653C6.40802 27.1384 6.34728 27.2261 6.30582 27.3233C6.26436 27.4205 6.24304 27.5251 6.24316 27.6308L6.24023 43.7499C6.24023 44.5787 6.56947 45.3736 7.15553 45.9596C7.74158 46.5457 8.53643 46.8749 9.36523 46.8749H18.75C19.1644 46.8749 19.5618 46.7103 19.8549 46.4173C20.1479 46.1242 20.3125 45.7268 20.3125 45.3124V32.0312C20.3125 31.824 20.3948 31.6252 20.5413 31.4787C20.6878 31.3322 20.8865 31.2499 21.0938 31.2499H28.9062C29.1135 31.2499 29.3122 31.3322 29.4587 31.4787C29.6052 31.6252 29.6875 31.824 29.6875 32.0312V45.3124C29.6875 45.7268 29.8521 46.1242 30.1451 46.4173C30.4382 46.7103 30.8356 46.8749 31.25 46.8749H40.6309C41.4597 46.8749 42.2545 46.5457 42.8406 45.9596C43.4266 45.3736 43.7559 44.5787 43.7559 43.7499V27.6308C43.756 27.5251 43.7347 27.4205 43.6932 27.3233C43.6517 27.2261 43.591 27.1384 43.5146 27.0653L25.543 9.89053Z" fill="#E5D9B6"/>
<path d="M47.9405 23.8428L40.6358 16.8545V6.25C40.6358 5.8356 40.4712 5.43817 40.1781 5.14515C39.8851 4.85212 39.4877 4.6875 39.0733 4.6875H34.3858C33.9714 4.6875 33.5739 4.85212 33.2809 5.14515C32.9879 5.43817 32.8233 5.8356 32.8233 6.25V9.375L27.167 3.9668C26.6377 3.43164 25.8506 3.125 25 3.125C24.1524 3.125 23.3672 3.43164 22.8379 3.96777L2.06644 23.8408C1.45902 24.4268 1.38285 25.3906 1.93558 26.0254C2.07438 26.1856 2.24433 26.3159 2.43509 26.4084C2.62585 26.5008 2.83343 26.5535 3.04519 26.5632C3.25696 26.5729 3.46847 26.5394 3.66688 26.4647C3.86528 26.39 4.04641 26.2758 4.19926 26.1289L24.4629 6.76562C24.6083 6.62654 24.8018 6.54892 25.003 6.54892C25.2042 6.54892 25.3976 6.62654 25.543 6.76562L45.8086 26.1289C46.1072 26.4152 46.507 26.5714 46.9205 26.5634C47.3341 26.5553 47.7275 26.3836 48.0147 26.0859C48.6143 25.4648 48.5645 24.4395 47.9405 23.8428Z" fill="#E5D9B6"/>
</svg>
