<svg width="33" height="30" viewBox="0 0 33 30" fill="none" xmlns="http://www.w3.org/2000/svg">
<path d="M27.9545 0H14.3182C13.0528 0.0013536 11.8396 0.504628 10.9448 1.39939C10.0501 2.29416 9.54681 3.50734 9.54545 4.77273V13.6364H22.6168L18.127 9.14574C17.8821 8.88793 17.7475 8.54463 17.7521 8.18905C17.7566 7.83346 17.8999 7.49373 18.1514 7.24227C18.4028 6.99081 18.7426 6.84753 19.0981 6.84298C19.4537 6.83843 19.797 6.97296 20.0548 7.2179L26.873 14.0361C27.1285 14.2918 27.2721 14.6385 27.2721 15C27.2721 15.3615 27.1285 15.7082 26.873 15.9639L20.0548 22.7821C19.797 23.027 19.4537 23.1616 19.0981 23.157C18.7426 23.1525 18.4028 23.0092 18.1514 22.7577C17.8999 22.5063 17.7566 22.1665 17.7521 21.811C17.7475 21.4554 17.8821 21.1121 18.127 20.8543L22.6168 16.3636H9.54545V25.2273C9.54545 27.9588 12.4253 30 15 30H27.9545C29.2199 29.9986 30.4331 29.4954 31.3279 28.6006C32.2226 27.7058 32.7259 26.4927 32.7273 25.2273V4.77273C32.7259 3.50734 32.2226 2.29416 31.3279 1.39939C30.4331 0.504628 29.2199 0.0013536 27.9545 0ZM1.36364 13.6364C1.00198 13.6364 0.655132 13.78 0.3994 14.0358C0.143669 14.2915 0 14.6383 0 15C0 15.3617 0.143669 15.7085 0.3994 15.9642C0.655132 16.22 1.00198 16.3636 1.36364 16.3636H9.54545V13.6364H1.36364Z" fill="#FCFDFD"/>
</svg>
