<svg width="500" height="373" viewBox="0 0 500 373" fill="none" xmlns="http://www.w3.org/2000/svg">
<path d="M500 327.4H0V327.65H500V327.4Z" fill="#EBEBEB"/>
<path d="M449.9 343.49H428.22V343.74H449.9V343.49Z" fill="#EBEBEB"/>
<path d="M344.67 338.3H310.56V338.55H344.67V338.3Z" fill="#EBEBEB"/>
<path d="M441.12 334.21H396.59V334.46H441.12V334.21Z" fill="#EBEBEB"/>
<path d="M173.02 339.25H161.88V339.5H173.02V339.25Z" fill="#EBEBEB"/>
<path d="M152.97 339.25H114.58V339.5H152.97V339.25Z" fill="#EBEBEB"/>
<path d="M94.0101 335.03H66.3101V335.28H94.0101V335.03Z" fill="#EBEBEB"/>
<path d="M237 282.8H43.91C42.3973 282.797 40.9475 282.195 39.8788 281.124C38.8102 280.053 38.21 278.603 38.21 277.09V5.66C38.2231 4.15602 38.8292 2.71798 39.8964 1.65822C40.9637 0.598458 42.4059 0.00257639 43.91 0H237C238.514 0 239.967 0.601588 241.038 1.67242C242.108 2.74325 242.71 4.19561 242.71 5.71V277.09C242.71 278.604 242.108 280.057 241.038 281.128C239.967 282.198 238.514 282.8 237 282.8ZM43.91 0.200001C42.4636 0.20265 41.0774 0.779065 40.0556 1.80273C39.0338 2.82639 38.46 4.21365 38.46 5.66V277.09C38.46 278.536 39.0338 279.924 40.0556 280.947C41.0774 281.971 42.4636 282.547 43.91 282.55H237C238.447 282.547 239.834 281.971 240.858 280.948C241.881 279.924 242.457 278.537 242.46 277.09V5.66C242.457 4.21273 241.881 2.82549 240.858 1.80212C239.834 0.77874 238.447 0.202644 237 0.200001H43.91Z" fill="#EBEBEB"/>
<path d="M453.31 282.8H260.21C258.696 282.797 257.246 282.195 256.175 281.125C255.105 280.054 254.503 278.604 254.5 277.09V5.66C254.516 4.15511 255.124 2.71708 256.193 1.65759C257.262 0.598109 258.705 0.00254829 260.21 0H453.31C454.812 0.0052045 456.252 0.602249 457.317 1.66173C458.382 2.72121 458.987 4.15775 459 5.66V277.09C459 278.601 458.401 280.05 457.335 281.121C456.268 282.191 454.821 282.795 453.31 282.8ZM260.21 0.200001C258.763 0.202644 257.375 0.77874 256.352 1.80212C255.329 2.82549 254.753 4.21273 254.75 5.66V277.09C254.753 278.537 255.329 279.924 256.352 280.948C257.375 281.971 258.763 282.547 260.21 282.55H453.31C454.757 282.547 456.145 281.971 457.168 280.948C458.191 279.924 458.767 278.537 458.77 277.09V5.66C458.767 4.21273 458.191 2.82549 457.168 1.80212C456.145 0.77874 454.757 0.202644 453.31 0.200001H260.21Z" fill="#EBEBEB"/>
<path d="M115 119.63C120.546 119.63 125.864 117.427 129.786 113.505C133.707 109.584 135.91 104.265 135.91 98.7198C135.91 93.1741 133.707 87.8556 129.786 83.9342C125.864 80.0128 120.546 77.8098 115 77.8098H112.43V119.63H115Z" fill="#011204"/>
<path d="M112.41 119.62C123.958 119.62 133.32 110.258 133.32 98.7098C133.32 87.1615 123.958 77.7998 112.41 77.7998C100.862 77.7998 91.5 87.1615 91.5 98.7098C91.5 110.258 100.862 119.62 112.41 119.62Z" fill="#A4BE7B"/>
<path d="M111.45 101.34C104.024 101.34 96.902 98.39 91.651 93.139C86.3999 87.888 83.45 80.7661 83.45 73.34V56.63C83.45 55.9325 83.727 55.2635 84.2203 54.7703C84.7135 54.2771 85.3824 54 86.08 54C86.7775 54 87.4464 54.2771 87.9396 54.7703C88.4329 55.2635 88.71 55.9325 88.71 56.63V73.35C88.7152 79.3777 91.1114 85.1571 95.3727 89.4202C99.6339 93.6834 105.412 96.0821 111.44 96.09C111.798 96.0679 112.157 96.1193 112.495 96.2413C112.833 96.3632 113.142 96.5529 113.404 96.7989C113.665 97.0448 113.874 97.3417 114.016 97.6712C114.159 98.0007 114.232 98.356 114.232 98.715C114.232 99.074 114.159 99.4293 114.016 99.7588C113.874 100.088 113.665 100.385 113.404 100.631C113.142 100.877 112.833 101.067 112.495 101.189C112.157 101.311 111.798 101.362 111.44 101.34H111.45Z" fill="#011204"/>
<path d="M62.83 71.3499H109.35C110.094 71.35 110.828 71.1793 111.496 70.851C112.163 70.5227 112.747 70.0455 113.201 69.4561C113.655 68.8668 113.967 68.1811 114.115 67.4518C114.262 66.7226 114.24 65.9692 114.05 65.2499L110 49.9999C109.727 48.9639 109.119 48.0473 108.27 47.3926C107.422 46.7379 106.381 46.3819 105.31 46.3799H66.87C65.7972 46.3814 64.755 46.7371 63.9052 47.3916C63.0553 48.0462 62.4453 48.9631 62.17 49.9999L58.17 65.2299C57.9753 65.9474 57.9482 66.7001 58.0907 67.4298C58.2332 68.1594 58.5416 68.8466 58.992 69.4381C59.4424 70.0296 60.0228 70.5097 60.6883 70.8411C61.3537 71.1726 62.0865 71.3467 62.83 71.3499Z" fill="#A4BE7B"/>
<path d="M410.28 119.63C415.826 119.63 421.144 117.427 425.066 113.505C428.987 109.584 431.19 104.265 431.19 98.7198C431.19 93.1741 428.987 87.8556 425.066 83.9342C421.144 80.0128 415.826 77.8098 410.28 77.8098H407.71V119.63H410.28Z" fill="#011204"/>
<path d="M407.71 119.62C419.258 119.62 428.62 110.258 428.62 98.7098C428.62 87.1615 419.258 77.7998 407.71 77.7998C396.162 77.7998 386.8 87.1615 386.8 98.7098C386.8 110.258 396.162 119.62 407.71 119.62Z" fill="#A4BE7B"/>
<path d="M406.75 101.34C399.324 101.34 392.202 98.39 386.951 93.139C381.7 87.888 378.75 80.7661 378.75 73.34V56.63C378.75 55.9325 379.027 55.2635 379.52 54.7703C380.014 54.2771 380.682 54 381.38 54C382.078 54 382.746 54.2771 383.24 54.7703C383.733 55.2635 384.01 55.9325 384.01 56.63V73.35C384.015 79.3777 386.411 85.1571 390.673 89.4202C394.934 93.6834 400.712 96.0821 406.74 96.09C407.098 96.0679 407.457 96.1193 407.795 96.2413C408.133 96.3632 408.442 96.5529 408.704 96.7989C408.965 97.0448 409.174 97.3417 409.316 97.6712C409.459 98.0007 409.532 98.356 409.532 98.715C409.532 99.074 409.459 99.4293 409.316 99.7588C409.174 100.088 408.965 100.385 408.704 100.631C408.442 100.877 408.133 101.067 407.795 101.189C407.457 101.311 407.098 101.362 406.74 101.34H406.75Z" fill="#011204"/>
<path d="M358.13 71.3499H404.65C405.394 71.35 406.128 71.1794 406.796 70.851C407.463 70.5227 408.047 70.0455 408.501 69.4561C408.955 68.8668 409.267 68.1811 409.415 67.4518C409.562 66.7226 409.54 65.9693 409.35 65.2499L405.35 50.0199C405.077 48.9839 404.469 48.0673 403.62 47.4126C402.772 46.7579 401.731 46.4019 400.66 46.3999H362.17C361.097 46.4014 360.055 46.7571 359.205 47.4117C358.355 48.0662 357.745 48.9831 357.47 50.0199L353.47 65.2499C353.279 65.9661 353.255 66.7166 353.399 67.4437C353.543 68.1708 353.852 68.8552 354.302 69.4442C354.752 70.0333 355.331 70.5113 355.995 70.8417C356.658 71.1721 357.389 71.3459 358.13 71.3499Z" fill="#A4BE7B"/>
<path d="M133.98 260.85H149.19V201.92H133.98V260.85Z" fill="#A4BE7B"/>
<path d="M92.75 260.85H143.22L150.84 191.88H100.37L92.75 260.85Z" fill="#0F3015"/>
<path d="M87.28 260.85H139.42L147.04 191.88H94.91L87.28 260.85Z" fill="#5F8D4E"/>
<path d="M135.65 255.42L142.07 197.31H98.67L92.25 255.42H135.65Z" fill="#FAFFF2"/>
<path d="M126.69 241.33L127 239C128.61 224.42 119.51 211.43 107.69 211.43L107.42 213.8C105.81 228.37 114.91 241.36 126.74 241.36L126.69 241.33Z" fill="#5F8D4E"/>
<path d="M59.0902 327.4H103.93L103.93 260.85H59.0902L59.0902 327.4Z" fill="#A4BE7B"/>
<path d="M63.5901 327.4H59.0801V314.57H68.3201L63.5901 327.4Z" fill="#0F3015"/>
<path d="M184.76 327.4H229.6V260.85H184.76V327.4Z" fill="#A4BE7B"/>
<path d="M59.0799 319.53H188.69V260.86H59.0799V319.53Z" fill="#0F3015"/>
<path d="M184.18 327.4H188.69V314.57H179.45L184.18 327.4Z" fill="#0F3015"/>
<path d="M62.5799 288.2H185.19V264.52H62.5799V288.2Z" fill="#A4BE7B"/>
<path d="M115.71 280H132.06C135.575 280.001 139.054 279.286 142.283 277.896C145.512 276.507 148.424 274.473 150.84 271.92H96.9302C99.3474 274.472 102.259 276.505 105.488 277.894C108.717 279.283 112.195 280 115.71 280Z" fill="#0F3015"/>
<path d="M62.5799 315.7H185.19V292.02H62.5799V315.7Z" fill="#A4BE7B"/>
<path d="M115.71 307.46H132.06C135.575 307.461 139.054 306.745 142.283 305.356C145.512 303.967 148.424 301.933 150.84 299.38H96.9302C99.3474 301.932 102.259 303.965 105.488 305.354C108.717 306.743 112.195 307.46 115.71 307.46Z" fill="#0F3015"/>
<path d="M180.48 258.14H181.64C181.64 255.75 181.64 249.7 181.76 235.83C181.97 210.68 182.37 209.15 182.37 209.15L179.61 220.76C177.86 233.61 180.12 246.53 180.48 258.14Z" fill="#A4BE7B"/>
<path d="M178.19 219C174.19 214.27 165.74 212.89 157.06 211.71C153.65 211.25 166.01 219.04 172.06 224.57C176.76 228.87 179.76 230.06 181.06 234.34C181.72 229 181.61 223.11 178.19 219Z" fill="#A4BE7B"/>
<path d="M183.46 227.48C187.46 222.75 195.91 221.38 204.59 220.2C208 219.74 195.59 227.53 189.59 233.06C184.89 237.36 181.89 238.55 180.59 242.83C179.93 237.49 180 231.56 183.46 227.48Z" fill="#A4BE7B"/>
<path d="M181.76 208C184.76 202.34 192.22 197 200.63 195C203.93 194.21 192.98 205.44 188.82 212.69C185.59 218.31 181.31 224.93 180.64 229.69C179.64 220.31 178.78 213.69 181.76 208Z" fill="#A4BE7B"/>
<path d="M181.4 260.85C177.86 260.85 174.93 259.08 174.72 256.8L174.13 252.92H188.68L188.08 256.8C187.88 259.08 185 260.85 181.4 260.85Z" fill="#0F3015"/>
<path d="M189.62 254.41H173.19L172.72 250.08H190.09L189.62 254.41Z" fill="#0F3015"/>
<path d="M169.54 171.72L329.75 171.72V25.5897L169.54 25.5897L169.54 171.72Z" fill="#011204"/>
<path d="M165.94 171.72L328.18 171.72V25.5897L165.94 25.5897L165.94 171.72Z" fill="#285430"/>
<path d="M321.7 165.18V32.1399L172.4 32.1399V165.18H321.7Z" fill="#E5D9B6"/>
<path d="M303.39 165.17L244.63 32.1399H224.67L283.43 165.17H303.39Z" fill="#E5D9B6"/>
<path d="M277.77 165.17L219.01 32.1399H205.27L264.03 165.17H277.77Z" fill="#E5D9B6"/>
<path d="M227.84 165.17V32.1299H220.12V165.17H227.84Z" fill="#011204"/>
<path d="M279.16 165.17V32.1299H271.44V165.17H279.16Z" fill="#011204"/>
<path d="M226.45 169.33V27.2698H216.69V169.33H226.45Z" fill="#285430"/>
<path d="M277.77 169.33V27.2698H268.01V169.33H277.77Z" fill="#285430"/>
<path d="M173.1 165.17V32.1299H172.41V165.17H173.1Z" fill="#011204"/>
<path d="M163.22 17.1699H336.78C337.002 17.1725 337.214 17.2619 337.371 17.4188C337.528 17.5758 337.617 17.788 337.62 18.0099C337.617 18.231 337.528 18.4421 337.37 18.5974C337.213 18.7528 337.001 18.8399 336.78 18.8399H163.22C162.999 18.8399 162.787 18.7528 162.629 18.5974C162.472 18.4421 162.383 18.231 162.38 18.0099C162.382 17.788 162.472 17.5758 162.629 17.4188C162.786 17.2619 162.998 17.1725 163.22 17.1699Z" fill="#011204"/>
<path d="M329.75 22.68C330.048 22.6774 330.333 22.5571 330.543 22.3455C330.752 22.1339 330.87 21.848 330.87 21.55V19.13C330.871 18.9821 330.843 18.8354 330.788 18.6983C330.732 18.5613 330.65 18.4366 330.546 18.3316C330.441 18.2265 330.318 18.1431 330.181 18.0862C330.045 18.0293 329.898 18 329.75 18C329.452 18 329.166 18.1177 328.955 18.3274C328.743 18.5372 328.623 18.822 328.62 19.12V21.54C328.62 21.8406 328.739 22.1291 328.95 22.3426C329.162 22.5561 329.45 22.6774 329.75 22.68Z" fill="#011204"/>
<path d="M175.8 22.68C176.099 22.6774 176.385 22.5575 176.596 22.3461C176.807 22.1348 176.927 21.8489 176.93 21.55V19.13C176.93 18.8303 176.811 18.5429 176.599 18.331C176.387 18.1191 176.099 18 175.8 18C175.503 18 175.218 18.118 175.008 18.328C174.798 18.5381 174.68 18.823 174.68 19.12V21.54C174.678 21.6884 174.706 21.8356 174.762 21.9732C174.817 22.1108 174.9 22.2361 175.004 22.342C175.108 22.4478 175.231 22.5322 175.368 22.5902C175.505 22.6482 175.651 22.6787 175.8 22.68Z" fill="#011204"/>
<path opacity="0.6" d="M163.48 132.44L325.61 132.44V17.9999L163.48 17.9999V132.44Z" fill="#FAFFF2"/>
<path d="M340.29 204.97H312.33C309.359 204.97 306.95 207.378 306.95 210.35V223.29C306.95 226.261 309.359 228.67 312.33 228.67H340.29C343.261 228.67 345.67 226.261 345.67 223.29V210.35C345.67 207.378 343.261 204.97 340.29 204.97Z" fill="#A4BE7B"/>
<path d="M343.86 200.59H308.76C307.761 200.59 306.95 201.4 306.95 202.4V203.86C306.95 204.859 307.761 205.67 308.76 205.67H343.86C344.86 205.67 345.67 204.859 345.67 203.86V202.4C345.67 201.4 344.86 200.59 343.86 200.59Z" fill="#0F3015"/>
<path d="M307.52 255C307.52 255 308.03 271.67 327.45 271.67C346.87 271.67 347.38 255 347.38 255H307.52Z" fill="#011204"/>
<path d="M351.8 255C351.8 255 352.31 271.67 371.73 271.67C391.15 271.67 391.66 255 391.66 255H351.8Z" fill="#011204"/>
<path d="M382.04 194.23H343.64C339.553 194.23 336.24 197.543 336.24 201.63V221.27C336.24 225.357 339.553 228.67 343.64 228.67H382.04C386.127 228.67 389.44 225.357 389.44 221.27V201.63C389.44 197.543 386.127 194.23 382.04 194.23Z" fill="#011204"/>
<path d="M386.96 188.22H338.72C337.35 188.22 336.24 189.33 336.24 190.7V192.72C336.24 194.09 337.35 195.2 338.72 195.2H386.96C388.329 195.2 389.44 194.09 389.44 192.72V190.7C389.44 189.33 388.329 188.22 386.96 188.22Z" fill="#285430"/>
<path d="M292.89 327.4H297.93V244.76H292.89V327.4Z" fill="#0F3015"/>
<path d="M438.42 228.67H411.13V244.75H438.42V228.67Z" fill="#0F3015"/>
<path d="M275.44 244.75L411.12 244.75V228.67L275.44 228.67V244.75Z" fill="#285430"/>
<path d="M438.42 271.62H411.13V287.7H438.42V271.62Z" fill="#0F3015"/>
<path d="M275.44 287.7H411.12V271.62H275.44V287.7Z" fill="#285430"/>
<path d="M428.57 327.4H433.61V244.76H428.57V327.4Z" fill="#0F3015"/>
<path d="M406.09 327.4H411.13V244.76H406.09V327.4Z" fill="#285430"/>
<path d="M275.44 327.4H280.48V244.76H275.44V327.4Z" fill="#285430"/>
<path d="M250 372.56C357.082 372.56 443.89 367.492 443.89 361.24C443.89 354.989 357.082 349.92 250 349.92C142.917 349.92 56.1099 354.989 56.1099 361.24C56.1099 367.492 142.917 372.56 250 372.56Z" fill="#E5D9B6" fill-opacity="0.38"/>
<path d="M260.414 310L260.41 310.5V310H132.844C130.92 309.972 129.077 309.218 127.686 307.889C126.294 306.56 125.456 304.753 125.339 302.832C125.339 302.831 125.339 302.831 125.339 302.83L113.899 81.2844L113.899 81.2844L113.899 81.2781C113.84 80.3613 113.971 79.4423 114.284 78.5785C114.597 77.7148 115.084 76.925 115.717 76.2586C116.349 75.5922 117.112 75.0636 117.958 74.7059C118.805 74.3483 119.716 74.1693 120.634 74.1802L120.634 74.1802H120.64H248.207C250.13 74.2059 251.972 74.9579 253.364 76.2854C254.756 77.6127 255.594 79.4171 255.711 81.3367C255.711 81.3379 255.711 81.3391 255.711 81.3403L267.131 302.886L267.131 302.892C267.19 303.808 267.059 304.726 266.748 305.589C266.436 306.452 265.95 307.242 265.32 307.909C264.69 308.575 263.929 309.105 263.085 309.465C262.241 309.825 261.331 310.007 260.414 310Z" fill="#FAFFF2" stroke="#0F3015"/>
<path opacity="0.8" d="M260.414 310L260.41 310.5V310H132.844C130.92 309.972 129.077 309.218 127.686 307.889C126.294 306.56 125.456 304.753 125.339 302.832C125.339 302.831 125.339 302.831 125.339 302.83L113.899 81.2844L113.899 81.2844L113.899 81.2781C113.84 80.3613 113.971 79.4423 114.284 78.5785C114.597 77.7148 115.084 76.925 115.717 76.2586C116.349 75.5922 117.112 75.0636 117.958 74.7059C118.805 74.3483 119.716 74.1693 120.634 74.1802L120.634 74.1802H120.64H248.207C250.13 74.2059 251.972 74.9579 253.364 76.2854C254.756 77.6127 255.594 79.4171 255.711 81.3367C255.711 81.3379 255.711 81.3391 255.711 81.3403L267.131 302.886L267.131 302.892C267.19 303.808 267.059 304.726 266.748 305.589C266.436 306.452 265.95 307.242 265.32 307.909C264.69 308.575 263.929 309.105 263.085 309.465C262.241 309.825 261.331 310.007 260.414 310Z" fill="#0F3015" stroke="#0F3015"/>
<mask id="path-69-inside-1_33_8088" fill="white">
<path d="M235.62 66.4502H221.51V67.4502H235.62V66.4502Z"/>
</mask>
<path d="M235.62 66.4502H221.51V67.4502H235.62V66.4502Z" fill="#FAFFF2"/>
<path d="M221.51 66.4502V65.4502H220.51V66.4502H221.51ZM235.62 66.4502H236.62V65.4502H235.62V66.4502ZM235.62 67.4502V68.4502H236.62V67.4502H235.62ZM221.51 67.4502H220.51V68.4502H221.51V67.4502ZM221.51 67.4502H235.62V65.4502H221.51V67.4502ZM234.62 66.4502V67.4502H236.62V66.4502H234.62ZM235.62 66.4502H221.51V68.4502H235.62V66.4502ZM222.51 67.4502V66.4502H220.51V67.4502H222.51Z" fill="#0F3015" mask="url(#path-69-inside-1_33_8088)"/>
<mask id="path-71-inside-2_33_8088" fill="white">
<path d="M216.62 66.4502H211.45V67.4502H216.62V66.4502Z"/>
</mask>
<path d="M216.62 66.4502H211.45V67.4502H216.62V66.4502Z" fill="#FAFFF2"/>
<path d="M211.45 66.4502V65.4502H210.45V66.4502H211.45ZM216.62 66.4502H217.62V65.4502H216.62V66.4502ZM216.62 67.4502V68.4502H217.62V67.4502H216.62ZM211.45 67.4502H210.45V68.4502H211.45V67.4502ZM211.45 67.4502H216.62V65.4502H211.45V67.4502ZM215.62 66.4502V67.4502H217.62V66.4502H215.62ZM216.62 66.4502H211.45V68.4502H216.62V66.4502ZM212.45 67.4502V66.4502H210.45V67.4502H212.45Z" fill="#0F3015" mask="url(#path-71-inside-2_33_8088)"/>
<path d="M265.906 295.94H265.9H143.902C142.065 295.922 140.303 295.208 138.97 293.943C137.638 292.678 136.834 290.956 136.719 289.122C136.719 289.121 136.719 289.12 136.719 289.119L125.8 77.2245L125.8 77.2245L125.799 77.2181C125.743 76.3437 125.868 75.4672 126.166 74.6434C126.465 73.8196 126.93 73.0664 127.534 72.4309C128.137 71.7955 128.865 71.2915 129.672 70.9507C130.479 70.6098 131.348 70.4394 132.224 70.4502L132.224 70.4502H132.23H254.227C256.065 70.4712 257.826 71.187 259.157 72.4536C260.487 73.7202 261.289 75.4437 261.401 77.2774C261.401 77.2784 261.401 77.2794 261.401 77.2804L272.321 289.176L272.321 289.182C272.378 290.055 272.253 290.931 271.955 291.753C271.657 292.576 271.192 293.328 270.59 293.962C269.988 294.597 269.261 295.1 268.455 295.441C267.649 295.781 266.781 295.951 265.906 295.94Z" fill="#FAFFF2" stroke="#0F3015"/>
<mask id="path-74-inside-3_33_8088" fill="white">
<path d="M265.9 291.57H143.9C143.185 291.546 142.503 291.259 141.985 290.765C141.467 290.271 141.148 289.604 141.09 288.89L130.16 77.0001C130.135 76.7183 130.171 76.4344 130.264 76.1672C130.357 75.9 130.505 75.6556 130.7 75.4501C130.895 75.2451 131.131 75.0839 131.393 74.977C131.655 74.8701 131.937 74.8201 132.22 74.8301H254.22C254.934 74.8571 255.613 75.1447 256.129 75.6386C256.645 76.1324 256.962 76.7983 257.02 77.5101L268 289.4C268.024 289.681 267.989 289.964 267.896 290.23C267.803 290.496 267.655 290.739 267.461 290.944C267.268 291.149 267.033 291.311 266.772 291.419C266.512 291.527 266.232 291.578 265.95 291.57H265.9ZM132.22 75.0801C131.971 75.0721 131.724 75.1159 131.493 75.2089C131.262 75.3019 131.054 75.4419 130.88 75.6201C130.713 75.8048 130.585 76.0214 130.505 76.2569C130.424 76.4924 130.392 76.7419 130.41 76.9901L141.33 288.88C141.386 289.529 141.677 290.135 142.148 290.585C142.62 291.034 143.239 291.296 143.89 291.32H265.89C266.137 291.33 266.384 291.287 266.613 291.194C266.843 291.101 267.049 290.96 267.22 290.78C267.391 290.598 267.521 290.382 267.602 290.146C267.683 289.91 267.713 289.659 267.69 289.41L256.78 77.5201C256.727 76.872 256.438 76.2659 255.968 75.8163C255.498 75.3667 254.88 75.1048 254.23 75.0801H132.22Z"/>
</mask>
<path d="M265.9 291.57H143.9C143.185 291.546 142.503 291.259 141.985 290.765C141.467 290.271 141.148 289.604 141.09 288.89L130.16 77.0001C130.135 76.7183 130.171 76.4344 130.264 76.1672C130.357 75.9 130.505 75.6556 130.7 75.4501C130.895 75.2451 131.131 75.0839 131.393 74.977C131.655 74.8701 131.937 74.8201 132.22 74.8301H254.22C254.934 74.8571 255.613 75.1447 256.129 75.6386C256.645 76.1324 256.962 76.7983 257.02 77.5101L268 289.4C268.024 289.681 267.989 289.964 267.896 290.23C267.803 290.496 267.655 290.739 267.461 290.944C267.268 291.149 267.033 291.311 266.772 291.419C266.512 291.527 266.232 291.578 265.95 291.57H265.9ZM132.22 75.0801C131.971 75.0721 131.724 75.1159 131.493 75.2089C131.262 75.3019 131.054 75.4419 130.88 75.6201C130.713 75.8048 130.585 76.0214 130.505 76.2569C130.424 76.4924 130.392 76.7419 130.41 76.9901L141.33 288.88C141.386 289.529 141.677 290.135 142.148 290.585C142.62 291.034 143.239 291.296 143.89 291.32H265.89C266.137 291.33 266.384 291.287 266.613 291.194C266.843 291.101 267.049 290.96 267.22 290.78C267.391 290.598 267.521 290.382 267.602 290.146C267.683 289.91 267.713 289.659 267.69 289.41L256.78 77.5201C256.727 76.872 256.438 76.2659 255.968 75.8163C255.498 75.3667 254.88 75.1048 254.23 75.0801H132.22Z" fill="#0F3015"/>
<path d="M143.9 291.57L143.866 292.57L143.883 292.57H143.9V291.57ZM141.09 288.89L140.091 288.942L140.092 288.957L140.093 288.972L141.09 288.89ZM130.16 77.0001L131.159 76.9486L131.158 76.9306L131.156 76.9126L130.16 77.0001ZM130.7 75.4501L129.976 74.7608L129.974 74.7626L130.7 75.4501ZM132.22 74.8301L132.184 75.8295L132.202 75.8301H132.22V74.8301ZM254.22 74.8301L254.258 73.8308L254.239 73.8301H254.22V74.8301ZM257.02 77.5101L258.019 77.4584L258.018 77.4435L258.017 77.4286L257.02 77.5101ZM268 289.4L267.001 289.452L267.002 289.469L267.004 289.486L268 289.4ZM265.95 291.57L265.979 290.571L265.964 290.57H265.95V291.57ZM132.22 75.0801L132.188 76.0796L132.204 76.0801H132.22V75.0801ZM130.88 75.6201L130.164 74.9223L130.151 74.9357L130.138 74.9495L130.88 75.6201ZM130.41 76.9901L131.409 76.9387L131.408 76.9274L131.407 76.9162L130.41 76.9901ZM141.33 288.88L140.331 288.932L140.332 288.949L140.334 288.966L141.33 288.88ZM143.89 291.32L143.852 292.319L143.871 292.32H143.89V291.32ZM265.89 291.32L265.93 290.321L265.91 290.32H265.89V291.32ZM267.22 290.78L267.945 291.469L267.949 291.465L267.22 290.78ZM267.69 289.41L266.691 289.462L266.692 289.483L266.694 289.504L267.69 289.41ZM256.78 77.5201L257.779 77.4687L257.778 77.4534L257.777 77.4381L256.78 77.5201ZM254.23 75.0801L254.268 74.0808L254.249 74.0801H254.23V75.0801ZM265.9 290.57H143.9V292.57H265.9V290.57ZM143.934 290.571C143.464 290.555 143.016 290.366 142.675 290.041L141.295 291.489C141.99 292.152 142.905 292.537 143.866 292.57L143.934 290.571ZM142.675 290.041C142.334 289.716 142.125 289.278 142.087 288.809L140.093 288.972C140.172 289.93 140.599 290.825 141.295 291.489L142.675 290.041ZM142.089 288.839L131.159 76.9486L129.161 77.0516L140.091 288.942L142.089 288.839ZM131.156 76.9126C131.144 76.7717 131.161 76.6298 131.208 76.4962L129.319 75.8382C129.18 76.239 129.127 76.6648 129.164 77.0876L131.156 76.9126ZM131.208 76.4962C131.255 76.3626 131.329 76.2404 131.426 76.1376L129.974 74.7626C129.682 75.0708 129.459 75.4374 129.319 75.8382L131.208 76.4962ZM131.424 76.1395C131.522 76.037 131.64 75.9564 131.771 75.9029L131.016 74.0511C130.623 74.2114 130.268 74.4532 129.976 74.7608L131.424 76.1395ZM131.771 75.9029C131.902 75.8495 132.043 75.8245 132.184 75.8295L132.256 73.8308C131.831 73.8157 131.409 73.8907 131.016 74.0511L131.771 75.9029ZM132.22 75.8301H254.22V73.8301H132.22V75.8301ZM254.182 75.8294C254.652 75.8471 255.098 76.0363 255.437 76.361L256.82 74.9162C256.128 74.2532 255.216 73.8671 254.258 73.8308L254.182 75.8294ZM255.437 76.361C255.777 76.6857 255.985 77.1235 256.023 77.5916L258.017 77.4286C257.939 76.473 257.513 75.5791 256.82 74.9162L255.437 76.361ZM256.021 77.5619L267.001 289.452L268.999 289.348L258.019 77.4584L256.021 77.5619ZM267.004 289.486C267.016 289.626 266.998 289.767 266.952 289.9L268.84 290.559C268.979 290.16 269.032 289.736 268.996 289.315L267.004 289.486ZM266.952 289.9C266.905 290.033 266.831 290.155 266.734 290.258L268.188 291.631C268.478 291.324 268.701 290.959 268.84 290.559L266.952 289.9ZM266.734 290.258C266.637 290.36 266.52 290.441 266.39 290.495L267.155 292.343C267.546 292.181 267.898 291.938 268.188 291.631L266.734 290.258ZM266.39 290.495C266.26 290.549 266.12 290.575 265.979 290.571L265.921 292.57C266.344 292.582 266.764 292.504 267.155 292.343L266.39 290.495ZM265.95 290.57H265.9V292.57H265.95V290.57ZM132.252 74.0806C131.865 74.0681 131.479 74.1365 131.119 74.2814L131.867 76.1364C131.969 76.0954 132.078 76.0761 132.188 76.0796L132.252 74.0806ZM131.119 74.2814C130.76 74.4263 130.434 74.6446 130.164 74.9223L131.596 76.3179C131.673 76.2393 131.765 76.1775 131.867 76.1364L131.119 74.2814ZM130.138 74.9495C129.881 75.2346 129.683 75.569 129.559 75.9324L131.45 76.5814C131.487 76.4739 131.546 76.375 131.622 76.2907L130.138 74.9495ZM129.559 75.9324C129.434 76.2959 129.384 76.6809 129.413 77.0641L131.407 76.9162C131.399 76.8028 131.414 76.6889 131.45 76.5814L129.559 75.9324ZM129.411 77.0416L140.331 288.932L142.329 288.829L131.409 76.9387L129.411 77.0416ZM140.334 288.966C140.41 289.858 140.81 290.691 141.458 291.309L142.838 289.861C142.543 289.58 142.361 289.201 142.326 288.795L140.334 288.966ZM141.458 291.309C142.106 291.926 142.958 292.286 143.852 292.319L143.928 290.321C143.52 290.306 143.133 290.142 142.838 289.861L141.458 291.309ZM143.89 292.32H265.89V290.32H143.89V292.32ZM265.851 292.319C266.24 292.335 266.628 292.267 266.989 292.12L266.237 290.267C266.14 290.307 266.035 290.325 265.93 290.321L265.851 292.319ZM266.989 292.12C267.351 291.974 267.676 291.752 267.945 291.469L266.495 290.091C266.423 290.168 266.335 290.228 266.237 290.267L266.989 292.12ZM267.949 291.465C268.217 291.18 268.421 290.841 268.548 290.47L266.657 289.821C266.622 289.923 266.565 290.017 266.491 290.095L267.949 291.465ZM268.548 290.47C268.675 290.1 268.722 289.707 268.686 289.317L266.694 289.504C266.704 289.611 266.692 289.719 266.657 289.821L268.548 290.47ZM268.689 289.359L257.779 77.4687L255.781 77.5715L266.691 289.462L268.689 289.359ZM257.777 77.4381C257.703 76.5464 257.306 75.7124 256.659 75.0938L255.277 76.5388C255.57 76.8194 255.75 77.1976 255.783 77.6021L257.777 77.4381ZM256.659 75.0938C256.013 74.4752 255.162 74.1148 254.268 74.0808L254.192 76.0794C254.598 76.0948 254.983 76.2583 255.277 76.5388L256.659 75.0938ZM254.23 74.0801H132.22V76.0801H254.23V74.0801Z" fill="#0F3015" mask="url(#path-74-inside-3_33_8088)"/>
<path opacity="0.3" d="M220.86 100.171C235.67 114.604 236.535 137.673 222.869 151.697C209.202 165.721 186.118 165.452 171.308 151.019C156.497 136.587 155.632 113.517 169.298 99.493C182.965 85.4686 206.049 85.7377 220.86 100.171Z" fill="#0F3015" stroke="#0F3015"/>
<path d="M197.665 155L197.664 155C192.27 154.952 186.98 153.507 182.309 150.808C177.639 148.109 173.746 144.246 171.011 139.597L171.009 139.593C168.461 135.343 166.995 130.533 166.739 125.584L166.739 125.584L166.739 125.578C166.497 121.789 167.039 117.991 168.332 114.421C169.626 110.851 171.642 107.587 174.254 104.832C176.867 102.077 180.021 99.8915 183.517 98.4113C187.013 96.9312 190.778 96.1886 194.574 96.2302L194.575 96.2302C202.493 96.3127 210.086 99.3927 215.825 104.85C221.563 110.307 225.02 117.736 225.501 125.64C225.775 130.468 224.804 135.285 222.681 139.63C220.383 144.288 216.815 148.202 212.39 150.922C207.964 153.641 202.86 155.055 197.665 155Z" fill="#0F3015" stroke="#0F3015"/>
<path d="M197.636 155L197.635 155C192.24 154.952 186.95 153.508 182.28 150.808C177.744 148.187 173.942 144.469 171.221 139.998C178.655 134.978 187.431 132.311 196.408 132.35L196.408 132.35C205.645 132.385 214.678 135.049 222.452 140.026C220.149 144.51 216.66 148.28 212.36 150.922C207.934 153.641 202.83 155.055 197.636 155Z" fill="#FAFFF2" stroke="#0F3015"/>
<path d="M204.267 106.451C209.49 111.541 209.779 119.651 204.989 124.566C200.2 129.482 192.084 129.402 186.861 124.313C181.639 119.223 181.35 111.112 186.14 106.197C190.929 101.282 199.045 101.361 204.267 106.451Z" fill="#FAFFF2" stroke="#0F3015"/>
<path d="M248.416 213.5L248.41 214V213.5H152.883C152.178 213.492 151.502 213.218 150.991 212.732C150.481 212.247 150.172 211.585 150.129 210.882C150.129 210.881 150.129 210.88 150.129 210.88L149.409 196.884L149.409 196.884L149.409 196.879C149.388 196.549 149.436 196.219 149.549 195.909C149.662 195.599 149.838 195.315 150.065 195.076C150.293 194.836 150.568 194.647 150.872 194.518C151.176 194.39 151.504 194.326 151.834 194.33L151.834 194.33H151.84H247.367C248.071 194.338 248.745 194.611 249.256 195.095C249.766 195.579 250.075 196.237 250.121 196.939C250.121 196.94 250.121 196.941 250.121 196.942L250.841 210.936L250.841 210.943C250.863 211.273 250.816 211.604 250.703 211.916C250.591 212.227 250.415 212.512 250.188 212.752C249.96 212.992 249.685 213.182 249.38 213.311C249.075 213.44 248.747 213.504 248.416 213.5Z" fill="#0F3015" stroke="#0F3015"/>
<path opacity="0.3" d="M221.421 180.031L221.92 180L221.421 180.027L221.421 180.029M221.421 180.031L219.16 185.6H179.262C178.554 185.594 177.875 185.32 177.362 184.832C176.849 184.344 176.541 183.68 176.499 182.973L176.349 179.975L176.349 179.975L176.349 179.967C176.327 179.637 176.374 179.306 176.486 178.995C176.599 178.683 176.774 178.399 177.002 178.159C177.23 177.918 177.505 177.728 177.81 177.599C178.115 177.47 178.443 177.406 178.774 177.41L178.774 177.41H178.78H218.667C219.372 177.418 220.048 177.692 220.558 178.178C221.069 178.664 221.378 179.325 221.421 180.029M221.421 180.031C221.421 180.03 221.421 180.029 221.421 180.029M221.421 180.031L221.421 180.029" fill="#0F3015" stroke="#0F3015"/>
<path opacity="0.3" d="M168.849 269.125L168.849 269.124C168.818 268.514 168.91 267.903 169.122 267.33C169.334 266.757 169.661 266.233 170.082 265.79C170.503 265.347 171.01 264.994 171.571 264.754C172.133 264.513 172.738 264.389 173.349 264.39H173.35H233.097C234.385 264.407 235.619 264.909 236.553 265.797C237.486 266.685 238.05 267.893 238.131 269.179C238.131 269.179 238.131 269.18 238.131 269.181L238.481 276.075L238.481 276.076C238.512 276.685 238.42 277.294 238.209 277.866C237.999 278.438 237.674 278.961 237.255 279.404C236.835 279.847 236.331 280.2 235.771 280.441C235.212 280.683 234.609 280.808 233.999 280.81C233.999 280.81 233.999 280.81 233.999 280.81L174.233 280.81C172.945 280.793 171.711 280.291 170.777 279.403C169.844 278.515 169.28 277.307 169.199 276.022L168.849 269.125Z" fill="#E5D9B6" stroke="#0F3015"/>
<path d="M250.163 247.36L250.16 247.86V247.36H154.623C153.919 247.35 153.245 247.075 152.734 246.59C152.224 246.104 151.915 245.444 151.869 244.741L151.149 230.744L151.149 230.744L151.149 230.739C151.129 230.409 151.176 230.078 151.289 229.767C151.402 229.456 151.578 229.172 151.806 228.932C152.033 228.692 152.308 228.501 152.613 228.372C152.917 228.242 153.245 228.177 153.576 228.18L153.576 228.18H153.58H249.107C249.812 228.188 250.488 228.462 250.999 228.948C251.51 229.434 251.818 230.095 251.861 230.798C251.861 230.799 251.861 230.8 251.861 230.8L252.591 244.796L252.591 244.799C252.61 245.129 252.562 245.46 252.448 245.771C252.335 246.081 252.159 246.365 251.931 246.605C251.704 246.845 251.429 247.036 251.125 247.166C250.821 247.296 250.493 247.362 250.163 247.36Z" fill="#0F3015" stroke="#0F3015"/>
<path d="M164.501 203.942C164.451 203.149 164.103 202.404 163.527 201.856C162.95 201.309 162.189 201 161.394 200.99L164.501 203.942ZM164.501 203.942C164.524 204.315 164.47 204.689 164.342 205.04M164.501 203.942L164.342 205.04M158.659 203.88L158.659 203.88C158.707 204.672 159.053 205.417 159.627 205.964C160.202 206.511 160.962 206.821 161.756 206.83L158.659 203.88ZM158.659 203.88L158.659 203.877M158.659 203.88L158.659 203.877M158.659 203.877C158.634 203.505 158.687 203.131 158.814 202.78M158.659 203.877L158.814 202.78M164.342 205.04C164.214 205.392 164.015 205.713 163.758 205.984M164.342 205.04L163.758 205.984M163.758 205.984C163.5 206.255 163.189 206.47 162.845 206.616M163.758 205.984L162.845 206.616M162.845 206.616C162.5 206.761 162.13 206.834 161.756 206.83L162.845 206.616ZM158.814 202.78C158.941 202.429 159.139 202.107 159.396 201.836M158.814 202.78L159.396 201.836M159.396 201.836C159.652 201.565 159.962 201.35 160.306 201.204M159.396 201.836L160.306 201.204M160.306 201.204C160.65 201.059 161.02 200.986 161.394 200.99L160.306 201.204Z" fill="#E5D9B6" stroke="#0F3015"/>
<path d="M172.296 206.83L172.294 206.83C171.501 206.823 170.739 206.514 170.165 205.967C169.59 205.419 169.245 204.674 169.199 203.881L169.199 203.881L169.199 203.877C169.174 203.505 169.227 203.131 169.354 202.78C169.481 202.429 169.679 202.107 169.936 201.836C170.192 201.565 170.502 201.35 170.846 201.204C171.19 201.059 171.561 200.986 171.934 200.99L171.935 200.99C172.729 200.998 173.49 201.306 174.065 201.854C174.639 202.401 174.985 203.147 175.031 203.939L175.53 203.91L175.031 203.943C175.055 204.316 175.002 204.689 174.876 205.041C174.749 205.392 174.551 205.713 174.294 205.984C174.037 206.255 173.727 206.47 173.383 206.616C173.039 206.762 172.669 206.835 172.296 206.83Z" fill="#E5D9B6" stroke="#0F3015"/>
<path d="M185.501 203.94L185.501 203.94C185.453 203.148 185.107 202.404 184.533 201.856C183.958 201.309 183.198 201 182.404 200.99L185.501 203.94ZM185.501 203.94L185.501 203.943M185.501 203.94L185.501 203.943M185.501 203.943C185.526 204.316 185.473 204.689 185.346 205.041M185.501 203.943L185.346 205.041M185.346 205.041C185.219 205.392 185.021 205.713 184.764 205.984M185.346 205.041L184.764 205.984M184.764 205.984C184.507 206.255 184.197 206.47 183.853 206.616M184.764 205.984L183.853 206.616M183.853 206.616C183.51 206.762 183.139 206.834 182.766 206.83L183.853 206.616ZM182.766 206.83C181.971 206.821 181.209 206.512 180.633 205.964C180.057 205.417 179.709 204.672 179.659 203.879C179.636 203.506 179.69 203.132 179.818 202.78C179.945 202.429 180.144 202.107 180.402 201.836C180.66 201.565 180.971 201.35 181.315 201.204C181.659 201.059 182.03 200.986 182.404 200.99L182.766 206.83Z" fill="#E5D9B6" stroke="#0F3015"/>
<path d="M191.183 205.964C190.607 205.417 190.259 204.672 190.209 203.879C190.186 203.506 190.239 203.133 190.367 202.782C190.494 202.431 190.692 202.11 190.949 201.839C191.206 201.568 191.516 201.353 191.859 201.207C192.202 201.061 192.572 200.987 192.945 200.99C193.739 201 194.501 201.309 195.077 201.856C195.653 202.403 196.001 203.148 196.051 203.942C196.074 204.314 196.02 204.687 195.893 205.038C195.766 205.389 195.567 205.71 195.311 205.981C195.054 206.252 194.744 206.467 194.401 206.613C194.057 206.759 193.688 206.833 193.315 206.83C192.52 206.821 191.759 206.511 191.183 205.964Z" fill="#E5D9B6" stroke="#0F3015"/>
<path d="M166.271 237.78L166.271 237.78C166.223 236.988 165.877 236.244 165.303 235.696C164.728 235.149 163.968 234.84 163.174 234.83L166.271 237.78ZM166.271 237.78L166.271 237.783M166.271 237.78L166.271 237.783M166.271 237.783C166.296 238.155 166.243 238.529 166.116 238.88M166.271 237.783L166.116 238.88M166.116 238.88C165.989 239.232 165.791 239.553 165.534 239.824M166.116 238.88L165.534 239.824M165.534 239.824C165.277 240.095 164.967 240.31 164.623 240.456M165.534 239.824L164.623 240.456M164.623 240.456C164.28 240.601 163.909 240.674 163.536 240.67L164.623 240.456ZM163.536 240.67C162.741 240.661 161.979 240.351 161.403 239.804C160.827 239.257 160.479 238.512 160.429 237.719C160.406 237.346 160.46 236.972 160.588 236.62C160.716 236.269 160.914 235.947 161.172 235.676C161.43 235.405 161.741 235.19 162.085 235.044C162.43 234.899 162.8 234.826 163.174 234.83L163.536 240.67Z" fill="#E5D9B6" stroke="#0F3015"/>
<path d="M170.939 237.717L170.939 237.719C170.989 238.512 171.337 239.257 171.913 239.804C172.489 240.351 173.251 240.661 174.045 240.67C174.418 240.673 174.788 240.599 175.131 240.453C175.474 240.307 175.784 240.092 176.041 239.821C176.298 239.55 176.496 239.229 176.623 238.878C176.75 238.527 176.804 238.154 176.781 237.782C176.731 236.988 176.383 236.243 175.807 235.696C175.231 235.149 174.469 234.839 173.674 234.83L170.939 237.717ZM170.939 237.717C170.914 237.345 170.967 236.971 171.094 236.62M170.939 237.717L171.094 236.62M171.094 236.62C171.221 236.268 171.419 235.947 171.676 235.676M171.094 236.62L171.676 235.676M171.676 235.676C171.933 235.405 172.243 235.19 172.587 235.044M171.676 235.676L172.587 235.044M172.587 235.044C172.931 234.899 173.301 234.826 173.674 234.83L172.587 235.044Z" fill="#E5D9B6" stroke="#0F3015"/>
<path d="M184.544 240.67L184.545 240.67C184.919 240.674 185.29 240.601 185.635 240.456C185.979 240.31 186.29 240.095 186.548 239.824C186.805 239.553 187.004 239.231 187.132 238.88C187.26 238.529 187.314 238.155 187.291 237.782C187.241 236.988 186.893 236.243 186.317 235.696C185.74 235.149 184.979 234.839 184.184 234.83L184.544 240.67ZM184.544 240.67C183.751 240.663 182.989 240.354 182.415 239.806C181.84 239.259 181.495 238.514 181.449 237.721L181.449 237.721M184.544 240.67L181.449 237.721M181.449 237.721L181.449 237.717M181.449 237.721L181.449 237.717M181.449 237.717C181.424 237.345 181.477 236.971 181.604 236.62M181.449 237.717L181.604 236.62M181.604 236.62C181.731 236.268 181.929 235.947 182.186 235.676M181.604 236.62L182.186 235.676M182.186 235.676C182.442 235.405 182.752 235.19 183.096 235.044M182.186 235.676L183.096 235.044M183.096 235.044C183.44 234.899 183.811 234.826 184.184 234.83L183.096 235.044Z" fill="#E5D9B6" stroke="#0F3015"/>
<path d="M197.791 237.779L197.791 237.779C197.745 236.987 197.4 236.241 196.825 235.694C196.25 235.146 195.489 234.837 194.695 234.83L194.694 234.83C194.32 234.826 193.95 234.899 193.605 235.044C193.261 235.19 192.95 235.405 192.692 235.676C192.435 235.947 192.236 236.269 192.108 236.62C191.98 236.972 191.926 237.346 191.949 237.719C191.999 238.512 192.347 239.257 192.923 239.804C193.499 240.351 194.261 240.661 195.056 240.67L197.791 237.779ZM197.791 237.779L197.791 237.783M197.791 237.779L197.791 237.783M197.791 237.783C197.816 238.155 197.763 238.529 197.636 238.88M197.791 237.783L197.636 238.88M197.636 238.88C197.509 239.232 197.311 239.553 197.054 239.824M197.636 238.88L197.054 239.824M197.054 239.824C196.797 240.095 196.487 240.31 196.143 240.456M197.054 239.824L196.143 240.456M196.143 240.456C195.8 240.601 195.429 240.674 195.056 240.67L196.143 240.456Z" fill="#E5D9B6" stroke="#0F3015"/>
<path d="M208.301 237.783L208.301 237.782C208.251 236.989 207.903 236.244 207.327 235.696C206.751 235.149 205.989 234.84 205.195 234.83C204.822 234.827 204.452 234.901 204.109 235.047C203.766 235.193 203.456 235.408 203.199 235.679C202.942 235.95 202.744 236.271 202.617 236.622C202.489 236.973 202.436 237.346 202.459 237.719C202.509 238.512 202.857 239.257 203.433 239.804C204.009 240.352 204.771 240.661 205.566 240.67L208.301 237.783ZM208.301 237.783C208.325 238.156 208.273 238.529 208.146 238.881M208.301 237.783L208.146 238.881M208.146 238.881C208.019 239.232 207.821 239.553 207.564 239.824M208.146 238.881L207.564 239.824M207.564 239.824C207.307 240.095 206.997 240.31 206.653 240.456M207.564 239.824L206.653 240.456M206.653 240.456C206.309 240.602 205.939 240.675 205.566 240.67L206.653 240.456Z" fill="#E5D9B6" stroke="#0F3015"/>
<path d="M218.811 237.782C218.761 236.988 218.413 236.243 217.837 235.696C217.26 235.149 216.499 234.839 215.704 234.83L218.811 237.782ZM218.811 237.782C218.834 238.155 218.78 238.529 218.652 238.88M218.811 237.782L218.652 238.88M212.969 237.72L212.969 237.72C213.017 238.512 213.363 239.256 213.937 239.804C214.512 240.351 215.272 240.661 216.066 240.67L212.969 237.72ZM212.969 237.72L212.969 237.717M212.969 237.72L212.969 237.717M212.969 237.717C212.944 237.345 212.997 236.971 213.124 236.62M212.969 237.717L213.124 236.62M218.652 238.88C218.524 239.231 218.325 239.553 218.068 239.824M218.652 238.88L218.068 239.824M218.068 239.824C217.81 240.095 217.499 240.31 217.155 240.456M218.068 239.824L217.155 240.456M217.155 240.456C216.81 240.601 216.44 240.674 216.066 240.67L217.155 240.456ZM213.124 236.62C213.251 236.268 213.449 235.947 213.706 235.676M213.124 236.62L213.706 235.676M213.706 235.676C213.962 235.405 214.272 235.19 214.616 235.044M213.706 235.676L214.616 235.044M214.616 235.044C214.96 234.899 215.331 234.826 215.704 234.83L214.616 235.044Z" fill="#E5D9B6" stroke="#0F3015"/>
<path d="M333 121.62C333.25 122 333.38 122.2 333.54 122.47L333.99 123.21C334.28 123.71 334.54 124.21 334.79 124.7C335.29 125.7 335.79 126.7 336.19 127.7C337.028 129.686 337.749 131.72 338.35 133.79C339.561 137.88 340.358 142.081 340.73 146.33L340.8 147.12C340.808 147.28 340.808 147.44 340.8 147.6V148.13C340.817 148.826 340.776 149.521 340.68 150.21C340.488 151.487 340.153 152.738 339.68 153.94C338.801 156.086 337.638 158.105 336.22 159.94C333.575 163.327 330.437 166.296 326.91 168.75L324.15 165.52C326.661 162.684 328.886 159.605 330.79 156.33C331.647 154.844 332.319 153.259 332.79 151.61C332.981 150.912 333.092 150.194 333.12 149.47C333.151 149.161 333.151 148.849 333.12 148.54V148.33C333.13 148.237 333.13 148.143 333.12 148.05L333 147.35C332.357 143.623 331.448 139.947 330.28 136.35C329.7 134.56 328.99 132.83 328.28 131.14C327.93 130.29 327.53 129.46 327.13 128.66L326.51 127.48L326.2 126.93L325.94 126.49L333 121.62Z" fill="#803E3C"/>
<path d="M323.7 168.77L327.32 176.42L330.19 169.95C330.19 169.95 327.64 164.35 324.19 164.87L323.7 168.77Z" fill="#7F3E3B"/>
<path d="M329.91 176.8L332.79 172.08L330.19 169.95L327.32 176.42L329.91 176.8Z" fill="#7F3E3B"/>
<path d="M313.63 353.22C314.379 353.201 315.123 353.101 315.85 352.92C315.887 352.909 315.92 352.888 315.946 352.86C315.973 352.832 315.991 352.797 316 352.76C316.006 352.721 316.001 352.682 315.985 352.646C315.969 352.611 315.943 352.581 315.91 352.56C315.62 352.37 313.08 350.73 312.1 351.17C311.991 351.221 311.898 351.299 311.83 351.397C311.761 351.496 311.72 351.61 311.71 351.73C311.68 351.911 311.694 352.096 311.751 352.271C311.809 352.445 311.908 352.603 312.04 352.73C312.493 353.08 313.058 353.254 313.63 353.22ZM315.28 352.63C313.83 352.93 312.73 352.88 312.28 352.49C312.188 352.399 312.121 352.286 312.084 352.162C312.047 352.038 312.042 351.906 312.07 351.78C312.07 351.61 312.17 351.56 312.24 351.53C312.78 351.29 314.25 352 315.28 352.63Z" fill="#459C9E"/>
<path d="M315.8 352.92H315.9C315.93 352.9 315.955 352.874 315.972 352.842C315.99 352.811 315.999 352.776 316 352.74C316 352.64 316 350.23 315.08 349.42C314.967 349.319 314.834 349.243 314.689 349.198C314.544 349.153 314.39 349.14 314.24 349.16C314.082 349.161 313.93 349.217 313.808 349.317C313.686 349.417 313.602 349.556 313.57 349.71C313.38 350.66 314.9 352.46 315.7 352.92H315.8ZM314.37 349.53C314.451 349.528 314.532 349.542 314.607 349.571C314.683 349.6 314.752 349.644 314.81 349.7C315.338 350.478 315.61 351.4 315.59 352.34C314.79 351.7 313.84 350.34 313.96 349.77C313.96 349.68 314.03 349.56 314.28 349.53H314.37Z" fill="#459C9E"/>
<path d="M304.19 349.14C304.214 349.111 304.229 349.075 304.234 349.038C304.24 349.001 304.235 348.963 304.221 348.929C304.206 348.894 304.183 348.864 304.153 348.841C304.123 348.818 304.088 348.804 304.05 348.8C303.64 348.8 300.05 348.63 299.23 349.51V349.57C299.162 349.656 299.119 349.759 299.103 349.868C299.087 349.977 299.1 350.088 299.14 350.19C299.194 350.362 299.288 350.518 299.415 350.645C299.542 350.772 299.699 350.866 299.87 350.92C301.03 351.28 303.08 349.97 304.2 349.16L304.19 349.14ZM299.53 349.77C299.98 349.29 301.96 349.16 303.44 349.18C301.89 350.24 300.6 350.74 299.95 350.54C299.837 350.505 299.734 350.444 299.65 350.36C299.566 350.276 299.505 350.173 299.47 350.06C299.45 350.021 299.44 349.978 299.44 349.935C299.44 349.891 299.45 349.848 299.47 349.81L299.53 349.77Z" fill="#459C9E"/>
<path d="M304.19 349.14C304.205 349.109 304.213 349.075 304.213 349.04C304.213 349.005 304.205 348.971 304.19 348.94C304.14 348.86 303.02 346.94 301.7 346.54C301.511 346.484 301.312 346.468 301.116 346.492C300.92 346.516 300.731 346.58 300.56 346.68C300.08 346.96 300.05 347.29 300.11 347.5C300.37 348.43 302.92 349.25 304.02 349.24C304.055 349.239 304.089 349.23 304.118 349.212C304.148 349.195 304.173 349.17 304.19 349.14ZM300.6 347.14C300.657 347.085 300.721 347.037 300.79 347C300.914 346.921 301.053 346.871 301.198 346.852C301.343 346.833 301.491 346.846 301.63 346.89C302.5 347.12 303.31 348.24 303.68 348.79C302.49 348.66 300.68 347.93 300.53 347.37C300.517 347.327 300.517 347.282 300.53 347.24C300.542 347.197 300.567 347.159 300.6 347.13V347.14Z" fill="#459C9E"/>
<path d="M315.2 92.3301C314.2 97.3301 312.04 108.14 315.51 111.46C315.51 111.46 314.15 116.46 304.92 116.46C294.76 116.46 300.07 111.46 300.07 111.46C305.61 110.14 305.47 106.02 304.5 102.16L315.2 92.3301Z" fill="#7F3E3B"/>
<path d="M298.28 80.6101C298.336 80.6192 298.394 80.6192 298.45 80.6101C298.497 80.5867 298.54 80.5541 298.575 80.5142C298.609 80.4743 298.636 80.4279 298.653 80.3777C298.669 80.3275 298.676 80.2744 298.672 80.2216C298.668 80.1688 298.654 80.1173 298.63 80.0701C298.361 79.4997 297.959 79.0021 297.458 78.6193C296.957 78.2365 296.371 77.9795 295.75 77.8701C295.646 77.8614 295.542 77.8927 295.46 77.9578C295.379 78.0228 295.325 78.1167 295.31 78.2201C295.299 78.3247 295.329 78.4296 295.395 78.5119C295.46 78.5943 295.555 78.6475 295.66 78.6601C296.15 78.7542 296.611 78.9639 297.004 79.2717C297.397 79.5795 297.711 79.9766 297.92 80.4301C297.959 80.4892 298.012 80.537 298.076 80.5687C298.139 80.6003 298.209 80.6146 298.28 80.6101Z" fill="#263238"/>
<path d="M295.25 85C294.463 86.4598 293.481 87.8055 292.33 89C292.642 89.285 293.011 89.4988 293.414 89.6265C293.816 89.7543 294.241 89.793 294.66 89.74L295.25 85Z" fill="#630F0F"/>
<path d="M296 83.8701C295.92 84.5401 295.49 85.0401 295.06 84.9901C294.63 84.9401 294.33 84.3501 294.41 83.6801C294.49 83.0101 294.92 82.5101 295.41 82.5601C295.9 82.6101 296.07 83.2001 296 83.8701Z" fill="#263238"/>
<path d="M295.54 82.62L294 82C294 82 294.65 83.32 295.54 82.62Z" fill="#263238"/>
<path d="M313.02 347.23L304.86 349.14L299.9 330.38L308.06 328.47L313.02 347.23Z" fill="#7F3E3B"/>
<path d="M325.54 352.72H317.17L317.82 333.32H326.2L325.54 352.72Z" fill="#7F3E3B"/>
<path d="M316.5 351.75H325.91C326.073 351.749 326.231 351.807 326.355 351.913C326.478 352.02 326.558 352.168 326.58 352.33L327.65 359.77C327.671 359.958 327.652 360.149 327.595 360.329C327.537 360.509 327.441 360.675 327.315 360.816C327.188 360.957 327.033 361.069 326.86 361.146C326.687 361.222 326.499 361.261 326.31 361.26C323.03 361.21 321.45 361.01 317.31 361.01C314.76 361.01 311.04 361.28 307.53 361.28C304.02 361.28 303.82 357.8 305.29 357.49C311.85 356.07 312.89 354.13 315.1 352.27C315.49 351.936 315.987 351.752 316.5 351.75Z" fill="#263238"/>
<path d="M304.14 347.89L312.69 343.96C312.835 343.891 313.001 343.877 313.155 343.921C313.31 343.966 313.443 344.065 313.53 344.2L317.62 350.52C317.715 350.683 317.776 350.864 317.797 351.051C317.818 351.239 317.8 351.428 317.744 351.608C317.687 351.788 317.594 351.954 317.469 352.096C317.344 352.238 317.191 352.351 317.02 352.43C314.02 353.75 312.5 354.24 308.74 355.97C306.43 357.03 301.74 359.47 298.56 360.97C295.38 362.47 293.74 359.36 294.94 358.46C300.31 354.46 301.85 351.59 303.08 348.98C303.288 348.499 303.665 348.112 304.14 347.89Z" fill="#263238"/>
<path opacity="0.2" d="M299.9 330.38L302.56 340.43L310.62 338.15L308.07 328.48L299.9 330.38Z" fill="#222831"/>
<path opacity="0.2" d="M326.2 333.33H317.82L317.49 343.33H325.87L326.2 333.33Z" fill="#222831"/>
<path d="M330 113.36C333.48 114.13 337.2 126.64 337.2 126.64L327.36 137.11C327.36 137.11 319.19 125.35 320.86 121.03C322.55 116.52 325.85 112.46 330 113.36Z" fill="#263238"/>
<path opacity="0.4" d="M324.44 121.33C322.68 119.72 321.49 120.2 320.68 121.48C319.88 125.2 324.62 132.99 326.53 135.94C327.41 132.42 328.42 125 324.44 121.33Z" fill="#222831"/>
<path d="M285.91 113.61C285.91 113.61 281.91 115.01 289.91 164.16H323.91C323.34 150.32 323.32 141.78 329.91 113.36C325.146 112.377 320.317 111.742 315.46 111.46C310.32 111.09 305.16 111.09 300.02 111.46C293.43 112.07 285.91 113.61 285.91 113.61Z" fill="#263238"/>
<path opacity="0.4" d="M285.6 132.47C285.82 134.86 286.11 137.55 286.49 140.59C289.28 138.08 291.56 130.94 290.72 126.78C288.727 128.398 286.999 130.318 285.6 132.47Z" fill="#222831"/>
<path d="M289.24 125C287.405 129.618 285.339 134.14 283.05 138.55C280.787 143.119 278.109 147.471 275.05 151.55L274.41 152.34L274.09 152.73C273.98 152.86 273.89 152.98 273.72 153.16C273.118 153.817 272.448 154.407 271.72 154.92C270.434 155.81 269.026 156.511 267.54 157C264.948 157.828 262.258 158.305 259.54 158.42C254.45 158.622 249.354 158.169 244.38 157.07L244.93 152.87C247.23 152.87 249.64 152.87 251.93 152.68C254.23 152.567 256.521 152.313 258.79 151.92C260.897 151.591 262.958 151.014 264.93 150.2C265.726 149.86 266.47 149.409 267.14 148.86C267.395 148.646 267.627 148.404 267.83 148.14C267.83 148.14 267.95 147.98 268.03 147.87L268.26 147.54L268.73 146.88C271.239 143.004 273.475 138.958 275.42 134.77C277.42 130.52 279.42 126.11 281.25 121.77L289.24 125Z" fill="#803E3C"/>
<path d="M285.91 113.61C281.74 114.61 276.62 126.05 276.62 126.05L285.26 138.75C285.26 138.75 296.77 124.26 295.4 119.84C294 115.23 291 112.37 285.91 113.61Z" fill="#263238"/>
<path d="M247.33 153.51L240.12 150.18L239.4 157.35C239.4 157.35 245.4 159.12 248.4 157.35L247.33 153.51Z" fill="#7F3E3B"/>
<path d="M235.81 149.46L235.12 154.91L239.4 157.35L240.12 150.18L235.81 149.46Z" fill="#7F3E3B"/>
<path d="M318.82 84.36C317.29 92.53 316.82 96.03 312.14 99.74C305.14 105.32 295.39 101.66 294.45 93.2C293.59 85.58 296.23 73.5 304.7 71.2C306.566 70.6853 308.533 70.6571 310.412 71.1181C312.292 71.5792 314.022 72.5141 315.438 73.8337C316.854 75.1533 317.908 76.8136 318.5 78.6563C319.093 80.499 319.203 82.4627 318.82 84.36Z" fill="#7F3E3B"/>
<path d="M300.87 86.0802C300.4 90.2502 300.22 101.08 309.38 101.42C320.59 101.83 323.95 92.2502 322.95 88.4202C328.79 83.6702 329.63 75.5002 323.07 69.2502C316.51 63.0002 302.07 66.4902 298.07 72.5802C293 80.1302 300.87 86.0802 300.87 86.0802Z" fill="#263238"/>
<path d="M312.1 71.68C311.56 67.28 311.98 64.25 316.1 64.25C320.22 64.25 325.84 65.74 327.9 69.95C329.96 74.16 330.13 80.75 324.38 80.08C318.63 79.41 312.75 76.94 312.1 71.68Z" fill="#459C9E"/>
<path d="M318.48 70.6201C317.48 65.3801 322.17 50.6201 333.56 49.6201C338.84 49.1701 341.28 54.8501 338.56 55.7901C343.56 55.7301 346.76 62.3401 342.1 63.3301C345.78 65.6901 344.87 70.5301 339.62 72.9101C335.71 74.7101 319.83 77.8801 318.48 70.6201Z" fill="#263238"/>
<path d="M330.65 76.25C326.98 76.25 323.15 75.71 320.77 74.12C320.105 73.7189 319.544 73.1649 319.136 72.5041C318.727 71.8433 318.482 71.0946 318.42 70.32C318.417 70.2543 318.439 70.1898 318.482 70.1397C318.525 70.0896 318.585 70.0575 318.65 70.05C318.683 70.0458 318.717 70.0486 318.749 70.0581C318.781 70.0677 318.811 70.0838 318.836 70.1054C318.861 70.1271 318.882 70.1538 318.896 70.1838C318.911 70.2139 318.919 70.2467 318.92 70.28C318.98 70.979 319.205 71.6539 319.575 72.2498C319.945 72.8458 320.45 73.3461 321.05 73.71C325.58 76.71 336.05 75.71 339.31 74.71C342.13 73.79 344.04 72 344.42 69.94C344.539 69.1841 344.445 68.4101 344.151 67.704C343.856 66.9979 343.371 66.3873 342.75 65.94C342.726 65.9176 342.707 65.8905 342.694 65.8604C342.681 65.8303 342.674 65.7978 342.674 65.765C342.674 65.7322 342.681 65.6998 342.694 65.6697C342.707 65.6396 342.726 65.6125 342.75 65.59C342.797 65.5442 342.86 65.5186 342.925 65.5186C342.991 65.5186 343.053 65.5442 343.1 65.59C343.798 66.0993 344.341 66.7927 344.668 67.5927C344.994 68.3926 345.092 69.2677 344.95 70.12C344.54 72.37 342.51 74.29 339.51 75.27C336.615 75.9997 333.634 76.3294 330.65 76.25Z" fill="#263238"/>
<path d="M298.32 85.0002C297.389 86.3064 297.005 87.9248 297.25 89.5102C297.58 91.6102 299.62 91.7502 301.1 90.4102C302.58 89.0702 303.87 86.6502 302.78 84.9102C302.538 84.5343 302.203 84.2267 301.809 84.0166C301.414 83.8065 300.972 83.701 300.525 83.71C300.078 83.719 299.641 83.8423 299.255 84.0681C298.869 84.294 298.547 84.6148 298.32 85.0002Z" fill="#7F3E3B"/>
<path d="M298.89 164.16C298.89 164.16 303.75 221.65 308.8 254.05C312.87 280.22 316.09 341.39 316.09 341.39H327.51C327.51 341.39 331.57 282.05 329.51 256.17C324.28 190.67 335.95 185.33 323.94 164.17L298.89 164.16Z" fill="#459C9E"/>
<path opacity="0.4" d="M313.27 185.89C308.744 190.64 305.092 196.151 302.48 202.17C303.81 215.09 305.39 229.43 307.07 241.99C313.964 224.143 316.1 204.811 313.27 185.89Z" fill="#222831"/>
<path d="M290.9 163.8C290.9 163.8 280.35 226.59 278.69 254.89C282.83 281.06 299.77 336.38 299.77 336.38L310.16 332.61C310.16 332.61 304.41 272.29 298.16 255.78C312.23 208.41 322.57 196.43 319.56 164.16C312.35 164.16 290.9 163.8 290.9 163.8Z" fill="#459C9E"/>
<path d="M298.38 339.14L312.42 335.32L311.62 329.73L296.59 333.79L298.38 339.14Z" fill="#263238"/>
<path d="M314.52 341.62H329.07L329.83 336.51L314.44 335.99L314.52 341.62Z" fill="#263238"/>
<path d="M324.44 162.16L325.97 165.21C326.09 165.45 325.81 165.69 325.42 165.69H289.74C289.44 165.69 289.18 165.54 289.16 165.34L288.85 162.34C288.85 162.13 289.1 161.95 289.43 161.95H323.88C323.984 161.936 324.089 161.948 324.187 161.984C324.284 162.021 324.371 162.081 324.44 162.16Z" fill="#459C9E"/>
<path opacity="0.5" d="M324.44 162.16L325.97 165.21C326.09 165.45 325.81 165.69 325.42 165.69H289.74C289.44 165.69 289.18 165.54 289.16 165.34L288.85 162.34C288.85 162.13 289.1 161.95 289.43 161.95H323.88C323.984 161.936 324.089 161.948 324.187 161.984C324.284 162.021 324.371 162.081 324.44 162.16Z" fill="#222831"/>
<path d="M319.81 166H320.73C320.92 166 321.06 165.9 321.05 165.79L320.61 161.79C320.61 161.67 320.44 161.58 320.26 161.58H319.33C319.15 161.58 319.01 161.67 319.02 161.79L319.45 165.79C319.47 165.92 319.63 166 319.81 166Z" fill="#459C9E"/>
<path d="M307.43 136.88C307.32 136.878 307.213 136.842 307.125 136.775C307.037 136.709 306.972 136.616 306.94 136.51C303.68 124.45 296.94 114.51 293.67 113.01C293.416 112.854 293.111 112.804 292.82 112.87C292.76 112.902 292.693 112.921 292.625 112.926C292.557 112.932 292.489 112.923 292.424 112.901C292.36 112.878 292.3 112.843 292.25 112.797C292.2 112.751 292.159 112.695 292.131 112.633C292.103 112.571 292.088 112.504 292.087 112.435C292.086 112.367 292.099 112.299 292.125 112.236C292.151 112.173 292.19 112.116 292.239 112.069C292.288 112.021 292.346 111.984 292.41 111.96C292.683 111.86 292.975 111.82 293.265 111.844C293.556 111.869 293.837 111.956 294.09 112.1C297.55 113.74 304.39 123.54 307.81 135.87C310.26 135.87 314.04 135.54 314.96 135.46C316.1 134.1 324.48 123.62 321.35 112.15C321.332 112.087 321.327 112.021 321.335 111.956C321.342 111.891 321.363 111.828 321.396 111.771C321.429 111.714 321.472 111.664 321.525 111.625C321.577 111.585 321.636 111.556 321.7 111.54C321.827 111.506 321.963 111.524 322.077 111.59C322.191 111.655 322.275 111.763 322.31 111.89C325.8 124.65 315.68 136.16 315.57 136.27C315.531 136.319 315.482 136.359 315.427 136.388C315.372 136.417 315.312 136.435 315.25 136.44C315.2 136.44 310.21 136.88 307.43 136.88Z" fill="#459C9E"/>
<path d="M324 143.94C318.55 133.73 316.32 133.01 315.35 129.73C316.085 127.896 317.134 126.204 318.45 124.73C317.79 124.54 316.37 124.26 315.45 124.09C315.55 123.64 315.66 123.2 315.76 122.77C314.759 122.658 313.746 122.705 312.76 122.91V121.91C311.49 121.634 310.185 121.55 308.89 121.66C309.003 122.134 309.113 122.614 309.22 123.1C308.22 123.29 306.7 123.6 305.97 123.81C307.388 125.417 308.43 127.32 309.02 129.38C306.08 134.43 294.66 166.89 313.24 169.38C331.82 171.87 329.44 154.16 324 143.94Z" fill="#459C9E"/>
<path opacity="0.4" d="M324 143.94C318.55 133.73 316.32 133.01 315.35 129.73C316.085 127.896 317.134 126.204 318.45 124.73C317.79 124.54 316.37 124.26 315.45 124.09C315.55 123.64 315.66 123.2 315.76 122.77C314.759 122.658 313.746 122.705 312.76 122.91V121.91C311.49 121.634 310.185 121.55 308.89 121.66C309.003 122.134 309.113 122.614 309.22 123.1C308.22 123.29 306.7 123.6 305.97 123.81C307.388 125.417 308.43 127.32 309.02 129.38C306.08 134.43 294.66 166.89 313.24 169.38C331.82 171.87 329.44 154.16 324 143.94Z" fill="#A1D0D4"/>
<path d="M308.26 128.41C308.144 128.925 308.094 129.453 308.11 129.98C308.11 130.35 309.11 130.6 310.22 130.71C311.33 130.82 315.99 131 315.84 130.48C315.69 129.96 316.07 129.25 316.09 128.81C316.11 128.37 314.24 128.35 312.67 128.41C311.1 128.47 308.57 127.85 308.26 128.41Z" fill="#459C9E"/>
<path d="M297.45 166H298.37C298.55 166 298.69 165.9 298.68 165.79L298.25 161.79C298.25 161.67 298.08 161.58 297.89 161.58H297C296.82 161.58 296.68 161.67 296.69 161.79L297.12 165.79C297.1 165.92 297.26 166 297.45 166Z" fill="#459C9E"/>
</svg>
