<svg width="500" height="373" viewBox="0 0 500 373" fill="none" xmlns="http://www.w3.org/2000/svg">
<path d="M500 327.4H0V327.65H500V327.4Z" fill="#EBEBEB"/>
<path d="M449.9 343.49H428.22V343.74H449.9V343.49Z" fill="#EBEBEB"/>
<path d="M344.67 338.3H310.56V338.55H344.67V338.3Z" fill="#EBEBEB"/>
<path d="M441.12 334.21H396.59V334.46H441.12V334.21Z" fill="#EBEBEB"/>
<path d="M173.02 339.25H161.88V339.5H173.02V339.25Z" fill="#EBEBEB"/>
<path d="M152.97 339.25H114.58V339.5H152.97V339.25Z" fill="#EBEBEB"/>
<path d="M94.0101 335.03H66.3101V335.28H94.0101V335.03Z" fill="#EBEBEB"/>
<path d="M237 282.8H43.91C42.3973 282.797 40.9475 282.195 39.8788 281.124C38.8102 280.053 38.21 278.603 38.21 277.09V5.66C38.2231 4.15602 38.8292 2.71798 39.8964 1.65822C40.9637 0.598458 42.4059 0.00257639 43.91 0H237C238.514 0 239.967 0.601588 241.038 1.67242C242.108 2.74325 242.71 4.19561 242.71 5.71V277.09C242.71 278.604 242.108 280.057 241.038 281.128C239.967 282.198 238.514 282.8 237 282.8ZM43.91 0.200001C42.4636 0.20265 41.0774 0.779065 40.0556 1.80273C39.0338 2.82639 38.46 4.21365 38.46 5.66V277.09C38.46 278.536 39.0338 279.924 40.0556 280.947C41.0774 281.971 42.4636 282.547 43.91 282.55H237C238.447 282.547 239.834 281.971 240.858 280.948C241.881 279.924 242.457 278.537 242.46 277.09V5.66C242.457 4.21273 241.881 2.82549 240.858 1.80212C239.834 0.77874 238.447 0.202644 237 0.200001H43.91Z" fill="#EBEBEB"/>
<path d="M453.31 282.8H260.21C258.696 282.797 257.246 282.195 256.175 281.125C255.105 280.054 254.503 278.604 254.5 277.09V5.66C254.516 4.15511 255.124 2.71708 256.193 1.65759C257.262 0.598109 258.705 0.00254829 260.21 0H453.31C454.812 0.0052045 456.252 0.602249 457.317 1.66173C458.382 2.72121 458.987 4.15775 459 5.66V277.09C459 278.601 458.401 280.05 457.335 281.121C456.268 282.191 454.821 282.795 453.31 282.8ZM260.21 0.200001C258.763 0.202644 257.375 0.77874 256.352 1.80212C255.329 2.82549 254.753 4.21273 254.75 5.66V277.09C254.753 278.537 255.329 279.924 256.352 280.948C257.375 281.971 258.763 282.547 260.21 282.55H453.31C454.757 282.547 456.145 281.971 457.168 280.948C458.191 279.924 458.767 278.537 458.77 277.09V5.66C458.767 4.21273 458.191 2.82549 457.168 1.80212C456.145 0.77874 454.757 0.202644 453.31 0.200001H260.21Z" fill="#EBEBEB"/>
<path d="M115 119.63C120.546 119.63 125.864 117.427 129.786 113.505C133.707 109.584 135.91 104.265 135.91 98.7198C135.91 93.1741 133.707 87.8556 129.786 83.9342C125.864 80.0128 120.546 77.8098 115 77.8098H112.43V119.63H115Z" fill="#222831"/>
<path d="M112.41 119.62C123.958 119.62 133.32 110.258 133.32 98.7098C133.32 87.1615 123.958 77.7998 112.41 77.7998C100.862 77.7998 91.5 87.1615 91.5 98.7098C91.5 110.258 100.862 119.62 112.41 119.62Z" fill="#75A8CF"/>
<path d="M111.45 101.34C104.024 101.34 96.902 98.39 91.651 93.139C86.3999 87.888 83.45 80.7661 83.45 73.34V56.63C83.45 55.9325 83.727 55.2635 84.2203 54.7703C84.7135 54.2771 85.3824 54 86.08 54C86.7775 54 87.4464 54.2771 87.9396 54.7703C88.4329 55.2635 88.71 55.9325 88.71 56.63V73.35C88.7152 79.3777 91.1114 85.1571 95.3727 89.4202C99.6339 93.6834 105.412 96.0821 111.44 96.09C111.798 96.0679 112.157 96.1193 112.495 96.2413C112.833 96.3632 113.142 96.5529 113.404 96.7989C113.665 97.0448 113.874 97.3417 114.016 97.6712C114.159 98.0007 114.232 98.356 114.232 98.715C114.232 99.074 114.159 99.4293 114.016 99.7588C113.874 100.088 113.665 100.385 113.404 100.631C113.142 100.877 112.833 101.067 112.495 101.189C112.157 101.311 111.798 101.362 111.44 101.34H111.45Z" fill="#222831"/>
<path d="M62.83 71.3499H109.35C110.094 71.35 110.828 71.1793 111.496 70.851C112.163 70.5227 112.747 70.0455 113.201 69.4561C113.655 68.8668 113.967 68.1811 114.115 67.4518C114.262 66.7226 114.24 65.9692 114.05 65.2499L110 49.9999C109.727 48.9639 109.119 48.0473 108.27 47.3926C107.422 46.7379 106.381 46.3819 105.31 46.3799H66.87C65.7972 46.3814 64.755 46.7371 63.9052 47.3916C63.0553 48.0462 62.4453 48.9631 62.17 49.9999L58.17 65.2299C57.9753 65.9474 57.9482 66.7001 58.0907 67.4298C58.2332 68.1594 58.5416 68.8466 58.992 69.4381C59.4424 70.0296 60.0228 70.5097 60.6883 70.8411C61.3537 71.1726 62.0865 71.3467 62.83 71.3499Z" fill="#75A8CF"/>
<path d="M410.28 119.63C415.826 119.63 421.144 117.427 425.066 113.505C428.987 109.584 431.19 104.265 431.19 98.7198C431.19 93.1741 428.987 87.8556 425.066 83.9342C421.144 80.0128 415.826 77.8098 410.28 77.8098H407.71V119.63H410.28Z" fill="#222831"/>
<path d="M407.71 119.62C419.258 119.62 428.62 110.258 428.62 98.7098C428.62 87.1615 419.258 77.7998 407.71 77.7998C396.162 77.7998 386.8 87.1615 386.8 98.7098C386.8 110.258 396.162 119.62 407.71 119.62Z" fill="#75A8CF"/>
<path d="M406.75 101.34C399.324 101.34 392.202 98.39 386.951 93.139C381.7 87.888 378.75 80.7661 378.75 73.34V56.63C378.75 55.9325 379.027 55.2635 379.52 54.7703C380.014 54.2771 380.682 54 381.38 54C382.078 54 382.746 54.2771 383.24 54.7703C383.733 55.2635 384.01 55.9325 384.01 56.63V73.35C384.015 79.3777 386.411 85.1571 390.673 89.4202C394.934 93.6834 400.712 96.0821 406.74 96.09C407.098 96.0679 407.457 96.1193 407.795 96.2413C408.133 96.3632 408.442 96.5529 408.704 96.7989C408.965 97.0448 409.174 97.3417 409.316 97.6712C409.459 98.0007 409.532 98.356 409.532 98.715C409.532 99.074 409.459 99.4293 409.316 99.7588C409.174 100.088 408.965 100.385 408.704 100.631C408.442 100.877 408.133 101.067 407.795 101.189C407.457 101.311 407.098 101.362 406.74 101.34H406.75Z" fill="#222831"/>
<path d="M358.13 71.3499H404.65C405.394 71.35 406.128 71.1794 406.796 70.851C407.463 70.5227 408.047 70.0455 408.501 69.4561C408.955 68.8668 409.267 68.1811 409.415 67.4518C409.562 66.7226 409.54 65.9693 409.35 65.2499L405.35 50.0199C405.077 48.9839 404.469 48.0673 403.62 47.4126C402.772 46.7579 401.731 46.4019 400.66 46.3999H362.17C361.097 46.4014 360.055 46.7571 359.205 47.4117C358.355 48.0662 357.745 48.9831 357.47 50.0199L353.47 65.2499C353.279 65.9661 353.255 66.7166 353.399 67.4437C353.543 68.1708 353.852 68.8552 354.302 69.4442C354.752 70.0333 355.331 70.5113 355.995 70.8417C356.658 71.1721 357.389 71.3459 358.13 71.3499Z" fill="#75A8CF"/>
<path d="M133.98 260.85H149.19V201.92H133.98V260.85Z" fill="#006871"/>
<path d="M92.75 260.85H143.22L150.84 191.88H100.37L92.75 260.85Z" fill="#003034"/>
<path d="M87.28 260.85H139.42L147.04 191.88H94.91L87.28 260.85Z" fill="#3C698B"/>
<path d="M135.65 255.42L142.07 197.31H98.67L92.25 255.42H135.65Z" fill="#A1D0D4"/>
<path d="M126.69 241.33L127 239C128.61 224.42 119.51 211.43 107.69 211.43L107.42 213.8C105.81 228.37 114.91 241.36 126.74 241.36L126.69 241.33Z" fill="#3C698B"/>
<path d="M59.0902 327.4H103.93L103.93 260.85H59.0902L59.0902 327.4Z" fill="#006871"/>
<path d="M63.5901 327.4H59.0801V314.57H68.3201L63.5901 327.4Z" fill="#003034"/>
<path d="M184.76 327.4H229.6V260.85H184.76V327.4Z" fill="#006871"/>
<path d="M59.0799 319.53H188.69V260.86H59.0799V319.53Z" fill="#003034"/>
<path d="M184.18 327.4H188.69V314.57H179.45L184.18 327.4Z" fill="#003034"/>
<path d="M62.5799 288.2H185.19V264.52H62.5799V288.2Z" fill="#006871"/>
<path d="M115.71 280H132.06C135.575 280.001 139.054 279.286 142.283 277.896C145.512 276.507 148.424 274.473 150.84 271.92H96.9302C99.3474 274.472 102.259 276.505 105.488 277.894C108.717 279.283 112.195 280 115.71 280Z" fill="#003034"/>
<path d="M62.5799 315.7H185.19V292.02H62.5799V315.7Z" fill="#006871"/>
<path d="M115.71 307.46H132.06C135.575 307.461 139.054 306.745 142.283 305.356C145.512 303.967 148.424 301.933 150.84 299.38H96.9302C99.3474 301.932 102.259 303.965 105.488 305.354C108.717 306.743 112.195 307.46 115.71 307.46Z" fill="#003034"/>
<path d="M180.48 258.14H181.64C181.64 255.75 181.64 249.7 181.76 235.83C181.97 210.68 182.37 209.15 182.37 209.15L179.61 220.76C177.86 233.61 180.12 246.53 180.48 258.14Z" fill="#006871"/>
<path d="M178.19 219C174.19 214.27 165.74 212.89 157.06 211.71C153.65 211.25 166.01 219.04 172.06 224.57C176.76 228.87 179.76 230.06 181.06 234.34C181.72 229 181.61 223.11 178.19 219Z" fill="#006871"/>
<path d="M183.46 227.48C187.46 222.75 195.91 221.38 204.59 220.2C208 219.74 195.59 227.53 189.59 233.06C184.89 237.36 181.89 238.55 180.59 242.83C179.93 237.49 180 231.56 183.46 227.48Z" fill="#006871"/>
<path d="M181.76 208C184.76 202.34 192.22 197 200.63 195C203.93 194.21 192.98 205.44 188.82 212.69C185.59 218.31 181.31 224.93 180.64 229.69C179.64 220.31 178.78 213.69 181.76 208Z" fill="#006871"/>
<path d="M181.4 260.85C177.86 260.85 174.93 259.08 174.72 256.8L174.13 252.92H188.68L188.08 256.8C187.88 259.08 185 260.85 181.4 260.85Z" fill="#003034"/>
<path d="M189.62 254.41H173.19L172.72 250.08H190.09L189.62 254.41Z" fill="#003034"/>
<path d="M169.54 171.72L329.75 171.72V25.5897L169.54 25.5897L169.54 171.72Z" fill="#085258"/>
<path d="M165.94 171.72L328.18 171.72V25.5897L165.94 25.5897L165.94 171.72Z" fill="#648CAB"/>
<path d="M321.7 165.18V32.1399L172.4 32.1399V165.18H321.7Z" fill="#A1EEF4"/>
<path d="M303.39 165.17L244.63 32.1399H224.67L283.43 165.17H303.39Z" fill="#A1EEF4"/>
<path d="M277.77 165.17L219.01 32.1399H205.27L264.03 165.17H277.77Z" fill="#A1EEF4"/>
<path d="M227.84 165.17V32.1299H220.12V165.17H227.84Z" fill="#085258"/>
<path d="M279.16 165.17V32.1299H271.44V165.17H279.16Z" fill="#085258"/>
<path d="M226.45 169.33V27.2698H216.69V169.33H226.45Z" fill="#648CAB"/>
<path d="M277.77 169.33V27.2698H268.01V169.33H277.77Z" fill="#648CAB"/>
<path d="M173.1 165.17V32.1299H172.41V165.17H173.1Z" fill="#085258"/>
<path d="M163.22 17.1699H336.78C337.002 17.1725 337.214 17.2619 337.371 17.4188C337.528 17.5758 337.617 17.788 337.62 18.0099C337.617 18.231 337.528 18.4421 337.37 18.5974C337.213 18.7528 337.001 18.8399 336.78 18.8399H163.22C162.999 18.8399 162.787 18.7528 162.629 18.5974C162.472 18.4421 162.383 18.231 162.38 18.0099C162.382 17.788 162.472 17.5758 162.629 17.4188C162.786 17.2619 162.998 17.1725 163.22 17.1699Z" fill="#085258"/>
<path d="M329.75 22.68C330.048 22.6774 330.333 22.5571 330.543 22.3455C330.752 22.1339 330.87 21.848 330.87 21.55V19.13C330.871 18.9821 330.843 18.8354 330.788 18.6983C330.732 18.5613 330.65 18.4366 330.546 18.3316C330.441 18.2265 330.318 18.1431 330.181 18.0862C330.045 18.0293 329.898 18 329.75 18C329.452 18 329.166 18.1177 328.955 18.3274C328.743 18.5372 328.623 18.822 328.62 19.12V21.54C328.62 21.8406 328.739 22.1291 328.95 22.3426C329.162 22.5561 329.45 22.6774 329.75 22.68Z" fill="#085258"/>
<path d="M175.8 22.68C176.099 22.6774 176.385 22.5575 176.596 22.3461C176.807 22.1348 176.927 21.8489 176.93 21.55V19.13C176.93 18.8303 176.811 18.5429 176.599 18.331C176.387 18.1191 176.099 18 175.8 18C175.503 18 175.218 18.118 175.008 18.328C174.798 18.5381 174.68 18.823 174.68 19.12V21.54C174.678 21.6884 174.706 21.8356 174.762 21.9732C174.817 22.1108 174.9 22.2361 175.004 22.342C175.108 22.4478 175.231 22.5322 175.368 22.5902C175.505 22.6482 175.651 22.6787 175.8 22.68Z" fill="#085258"/>
<path opacity="0.6" d="M163.48 132.44L325.61 132.44V17.9999L163.48 17.9999V132.44Z" fill="white"/>
<path d="M340.29 204.97H312.33C309.359 204.97 306.95 207.378 306.95 210.35V223.29C306.95 226.261 309.359 228.67 312.33 228.67H340.29C343.261 228.67 345.67 226.261 345.67 223.29V210.35C345.67 207.378 343.261 204.97 340.29 204.97Z" fill="#A1D0D4"/>
<path d="M343.86 200.59H308.76C307.761 200.59 306.95 201.4 306.95 202.4V203.86C306.95 204.859 307.761 205.67 308.76 205.67H343.86C344.86 205.67 345.67 204.859 345.67 203.86V202.4C345.67 201.4 344.86 200.59 343.86 200.59Z" fill="#006871"/>
<path d="M307.52 255C307.52 255 308.03 271.67 327.45 271.67C346.87 271.67 347.38 255 347.38 255H307.52Z" fill="#003034"/>
<path d="M351.8 255C351.8 255 352.31 271.67 371.73 271.67C391.15 271.67 391.66 255 391.66 255H351.8Z" fill="#003034"/>
<path d="M382.04 194.23H343.64C339.553 194.23 336.24 197.543 336.24 201.63V221.27C336.24 225.357 339.553 228.67 343.64 228.67H382.04C386.127 228.67 389.44 225.357 389.44 221.27V201.63C389.44 197.543 386.127 194.23 382.04 194.23Z" fill="#003034"/>
<path d="M386.96 188.22H338.72C337.35 188.22 336.24 189.33 336.24 190.7V192.72C336.24 194.09 337.35 195.2 338.72 195.2H386.96C388.329 195.2 389.44 194.09 389.44 192.72V190.7C389.44 189.33 388.329 188.22 386.96 188.22Z" fill="#3C698B"/>
<path d="M292.89 327.4H297.93V244.76H292.89V327.4Z" fill="#006871"/>
<path d="M438.42 228.67H411.13V244.75H438.42V228.67Z" fill="#006871"/>
<path d="M275.44 244.75L411.12 244.75V228.67L275.44 228.67V244.75Z" fill="#3C698B"/>
<path d="M438.42 271.62H411.13V287.7H438.42V271.62Z" fill="#006871"/>
<path d="M275.44 287.7H411.12V271.62H275.44V287.7Z" fill="#3C698B"/>
<path d="M428.57 327.4H433.61V244.76H428.57V327.4Z" fill="#006871"/>
<path d="M406.09 327.4H411.13V244.76H406.09V327.4Z" fill="#3C698B"/>
<path d="M275.44 327.4H280.48V244.76H275.44V327.4Z" fill="#3C698B"/>
<path d="M250 372.56C357.082 372.56 443.89 367.492 443.89 361.24C443.89 354.989 357.082 349.92 250 349.92C142.917 349.92 56.1099 354.989 56.1099 361.24C56.1099 367.492 142.917 372.56 250 372.56Z" fill="#2A5576" fill-opacity="0.17"/>
<path d="M260.41 310.5H132.84C130.789 310.471 128.824 309.668 127.34 308.251C125.857 306.834 124.963 304.908 124.84 302.86L113.4 81.3102C113.337 80.3247 113.477 79.3368 113.814 78.4083C114.15 77.4798 114.674 76.6308 115.354 75.9144C116.034 75.1981 116.854 74.6298 117.764 74.2454C118.673 73.8609 119.653 73.6685 120.64 73.6802H248.21C250.261 73.7068 252.225 74.5082 253.709 75.9235C255.193 77.3389 256.086 79.2632 256.21 81.3102L267.63 302.86C267.693 303.844 267.553 304.831 267.218 305.759C266.883 306.686 266.361 307.535 265.683 308.252C265.006 308.969 264.188 309.538 263.281 309.925C262.374 310.312 261.396 310.508 260.41 310.5Z" fill="#E9F5FF"/>
<path opacity="0.8" d="M260.41 310.5H132.84C130.789 310.471 128.824 309.668 127.34 308.251C125.857 306.834 124.963 304.908 124.84 302.86L113.4 81.3102C113.337 80.3247 113.477 79.3368 113.814 78.4083C114.15 77.4798 114.674 76.6308 115.354 75.9144C116.034 75.1981 116.854 74.6298 117.764 74.2454C118.673 73.8609 119.653 73.6685 120.64 73.6802H248.21C250.261 73.7068 252.225 74.5082 253.709 75.9235C255.193 77.3389 256.086 79.2632 256.21 81.3102L267.63 302.86C267.693 303.844 267.553 304.831 267.218 305.759C266.883 306.686 266.361 307.535 265.683 308.252C265.006 308.969 264.188 309.538 263.281 309.925C262.374 310.312 261.396 310.508 260.41 310.5Z" fill="#A1D0D4"/>
<path d="M235.62 66.4502H221.51V67.4502H235.62V66.4502Z" fill="#E9F5FF"/>
<path d="M216.62 66.4502H211.45V67.4502H216.62V66.4502Z" fill="#E9F5FF"/>
<path d="M265.9 296.44H143.9C141.936 296.421 140.051 295.659 138.626 294.306C137.201 292.953 136.342 291.111 136.22 289.15L125.3 77.2502C125.24 76.3071 125.374 75.3616 125.696 74.4731C126.018 73.5845 126.52 72.7721 127.171 72.0867C127.822 71.4013 128.607 70.8577 129.477 70.4901C130.348 70.1224 131.285 69.9386 132.23 69.9502H254.23C256.195 69.9719 258.078 70.737 259.501 72.0915C260.924 73.4459 261.782 75.2892 261.9 77.2502L272.82 289.15C272.881 290.092 272.746 291.036 272.425 291.924C272.104 292.811 271.602 293.622 270.953 294.307C270.303 294.991 269.519 295.534 268.649 295.901C267.78 296.268 266.844 296.452 265.9 296.44Z" fill="#E9F5FF"/>
<path d="M265.9 291.57H143.9C143.185 291.546 142.503 291.259 141.985 290.765C141.467 290.271 141.148 289.604 141.09 288.89L130.16 77.0001C130.135 76.7183 130.171 76.4344 130.264 76.1672C130.357 75.9 130.505 75.6556 130.7 75.4501C130.895 75.2451 131.131 75.0839 131.393 74.977C131.655 74.8701 131.937 74.8201 132.22 74.8301H254.22C254.934 74.8571 255.613 75.1447 256.129 75.6386C256.645 76.1324 256.962 76.7983 257.02 77.5101L268 289.4C268.024 289.681 267.989 289.964 267.896 290.23C267.803 290.496 267.655 290.74 267.461 290.944C267.268 291.149 267.033 291.311 266.772 291.419C266.512 291.527 266.232 291.578 265.95 291.57H265.9ZM132.22 75.0801C131.971 75.0721 131.724 75.1159 131.493 75.2089C131.262 75.3019 131.054 75.4419 130.88 75.6201C130.713 75.8048 130.585 76.0214 130.505 76.2569C130.424 76.4924 130.392 76.7419 130.41 76.9901L141.33 288.88C141.386 289.529 141.677 290.135 142.148 290.585C142.62 291.034 143.239 291.296 143.89 291.32H265.89C266.137 291.33 266.384 291.287 266.613 291.194C266.843 291.101 267.049 290.96 267.22 290.78C267.391 290.598 267.521 290.382 267.602 290.146C267.684 289.91 267.713 289.659 267.69 289.41L256.78 77.5201C256.727 76.872 256.438 76.2659 255.968 75.8163C255.498 75.3667 254.88 75.1048 254.23 75.0801H132.22Z" fill="#A1D0D4"/>
<path opacity="0.3" d="M223.227 152.046C237.103 137.807 236.199 114.421 221.209 99.8125C206.218 85.2041 182.817 84.9048 168.94 99.144C155.064 113.383 155.968 136.769 170.959 151.378C185.949 165.986 209.351 166.285 223.227 152.046Z" fill="#A1D0D4"/>
<path d="M226 125.61C226.28 130.524 225.291 135.428 223.13 139.85C220.79 144.593 217.158 148.579 212.651 151.348C208.145 154.117 202.948 155.556 197.66 155.5C192.179 155.451 186.805 153.984 182.059 151.241C177.314 148.499 173.359 144.574 170.58 139.85C167.99 135.53 166.5 130.64 166.24 125.61C165.993 121.752 166.546 117.885 167.862 114.251C169.179 110.616 171.232 107.293 173.892 104.488C176.552 101.683 179.762 99.4578 183.322 97.9509C186.882 96.4439 190.714 95.6879 194.58 95.7302C202.625 95.814 210.339 98.9433 216.169 104.488C221.999 110.032 225.512 117.58 226 125.61Z" fill="#A1D0D4"/>
<path d="M223.1 139.85C220.76 144.593 217.128 148.579 212.622 151.348C208.116 154.117 202.919 155.556 197.63 155.5C192.15 155.451 186.775 153.984 182.03 151.241C177.284 148.499 173.329 144.574 170.55 139.85C178.15 134.602 187.175 131.81 196.41 131.85C205.892 131.886 215.162 134.664 223.1 139.85Z" fill="#E9F5FF"/>
<path d="M205.348 124.915C210.347 119.785 210.019 111.358 204.616 106.093C199.213 100.828 190.781 100.718 185.781 105.848C180.782 110.978 181.11 119.406 186.513 124.671C191.916 129.936 200.348 130.045 205.348 124.915Z" fill="#E9F5FF"/>
<path d="M248.41 214H152.88C152.048 213.991 151.25 213.668 150.647 213.095C150.044 212.521 149.68 211.741 149.63 210.91L148.91 196.91C148.885 196.512 148.943 196.113 149.079 195.738C149.216 195.363 149.428 195.02 149.703 194.731C149.978 194.442 150.31 194.213 150.678 194.058C151.045 193.903 151.441 193.825 151.84 193.83H247.37C248.2 193.838 248.997 194.161 249.6 194.732C250.202 195.303 250.567 196.081 250.62 196.91L251.34 210.91C251.366 211.309 251.31 211.709 251.174 212.085C251.038 212.462 250.826 212.806 250.551 213.096C250.275 213.386 249.943 213.616 249.575 213.772C249.206 213.927 248.81 214.005 248.41 214Z" fill="#A1D0D4"/>
<path opacity="0.3" d="M219.16 186.1H179.26C178.425 186.094 177.623 185.77 177.017 185.194C176.412 184.619 176.048 183.834 176 183L175.85 180C175.824 179.601 175.88 179.201 176.016 178.825C176.152 178.449 176.364 178.105 176.639 177.815C176.915 177.524 177.247 177.294 177.615 177.139C177.984 176.983 178.38 176.905 178.78 176.91H218.67C219.502 176.919 220.3 177.242 220.903 177.816C221.506 178.389 221.869 179.17 221.92 180L222.08 183C222.105 183.398 222.047 183.798 221.912 184.173C221.776 184.548 221.565 184.892 221.291 185.182C221.017 185.473 220.687 185.704 220.321 185.862C219.954 186.02 219.559 186.101 219.16 186.1Z" fill="#222831"/>
<path opacity="0.3" d="M234 281.31H174.23C172.815 281.293 171.458 280.741 170.433 279.765C169.407 278.79 168.788 277.463 168.7 276.05L168.35 269.15C168.315 268.472 168.418 267.794 168.653 267.157C168.889 266.52 169.251 265.937 169.719 265.445C170.187 264.953 170.75 264.561 171.375 264.294C171.999 264.027 172.671 263.889 173.35 263.89H233.1C234.515 263.908 235.872 264.459 236.897 265.435C237.923 266.41 238.542 267.737 238.63 269.15L238.98 276.05C239.015 276.727 238.913 277.403 238.678 278.039C238.444 278.674 238.083 279.256 237.618 279.748C237.152 280.24 236.591 280.632 235.969 280.9C235.347 281.169 234.677 281.308 234 281.31Z" fill="#E3F1F2"/>
<path d="M250.16 247.86H154.62C153.789 247.849 152.992 247.525 152.39 246.952C151.787 246.379 151.423 245.6 151.37 244.77L150.65 230.77C150.625 230.371 150.683 229.972 150.819 229.596C150.956 229.221 151.168 228.878 151.443 228.588C151.718 228.298 152.049 228.068 152.417 227.911C152.785 227.755 153.181 227.677 153.58 227.68H249.11C249.942 227.689 250.74 228.012 251.343 228.586C251.946 229.159 252.31 229.939 252.36 230.77L253.09 244.77C253.113 245.168 253.055 245.567 252.918 245.942C252.781 246.317 252.569 246.66 252.294 246.949C252.019 247.239 251.688 247.469 251.321 247.626C250.954 247.782 250.559 247.862 250.16 247.86Z" fill="#A1D0D4"/>
<path d="M165 203.91C165.027 204.352 164.963 204.795 164.812 205.211C164.661 205.627 164.425 206.008 164.12 206.329C163.815 206.649 163.447 206.904 163.039 207.076C162.631 207.249 162.192 207.335 161.75 207.33C160.83 207.319 159.948 206.96 159.282 206.326C158.616 205.691 158.215 204.828 158.16 203.91C158.131 203.469 158.193 203.026 158.344 202.61C158.494 202.194 158.728 201.813 159.033 201.492C159.337 201.171 159.704 200.916 160.111 200.744C160.519 200.572 160.957 200.485 161.4 200.49C162.321 200.501 163.203 200.859 163.871 201.494C164.539 202.128 164.942 202.991 165 203.91Z" fill="#474949"/>
<path d="M175.53 203.91C175.559 204.352 175.496 204.794 175.346 205.21C175.196 205.626 174.961 206.007 174.657 206.328C174.353 206.649 173.985 206.904 173.578 207.076C173.171 207.249 172.732 207.335 172.29 207.33C171.369 207.322 170.486 206.964 169.82 206.329C169.153 205.694 168.753 204.829 168.7 203.91C168.671 203.469 168.733 203.026 168.884 202.61C169.034 202.194 169.268 201.813 169.573 201.492C169.877 201.171 170.244 200.916 170.651 200.744C171.059 200.572 171.497 200.485 171.94 200.49C172.86 200.499 173.743 200.857 174.41 201.492C175.076 202.127 175.477 202.991 175.53 203.91Z" fill="#474949"/>
<path d="M186 203.91C186.029 204.352 185.966 204.794 185.816 205.21C185.666 205.626 185.431 206.007 185.127 206.328C184.823 206.649 184.456 206.904 184.048 207.076C183.641 207.249 183.202 207.335 182.76 207.33C181.839 207.319 180.957 206.961 180.289 206.327C179.621 205.692 179.218 204.829 179.16 203.91C179.133 203.468 179.196 203.025 179.348 202.609C179.499 202.193 179.735 201.813 180.04 201.492C180.345 201.171 180.713 200.916 181.12 200.744C181.528 200.572 181.967 200.485 182.41 200.49C183.33 200.501 184.211 200.86 184.877 201.494C185.543 202.129 185.945 202.992 186 203.91Z" fill="#474949"/>
<path d="M196.55 203.91C196.577 204.351 196.514 204.793 196.363 205.209C196.212 205.624 195.978 206.004 195.674 206.325C195.37 206.646 195.003 206.9 194.596 207.073C194.19 207.246 193.752 207.334 193.31 207.33C192.389 207.319 191.506 206.961 190.839 206.327C190.171 205.692 189.768 204.829 189.71 203.91C189.682 203.469 189.746 203.027 189.897 202.612C190.047 202.196 190.282 201.816 190.586 201.495C190.89 201.175 191.257 200.92 191.663 200.747C192.07 200.574 192.508 200.486 192.95 200.49C193.871 200.501 194.753 200.859 195.421 201.494C196.089 202.128 196.492 202.991 196.55 203.91Z" fill="#474949"/>
<path d="M166.77 237.75C166.799 238.191 166.736 238.634 166.586 239.05C166.436 239.466 166.201 239.847 165.897 240.168C165.593 240.489 165.226 240.744 164.818 240.916C164.411 241.089 163.972 241.175 163.53 241.17C162.609 241.159 161.727 240.801 161.059 240.167C160.391 239.532 159.988 238.669 159.93 237.75C159.903 237.308 159.966 236.865 160.118 236.449C160.269 236.033 160.505 235.653 160.81 235.332C161.115 235.011 161.483 234.756 161.89 234.584C162.298 234.411 162.737 234.325 163.18 234.33C164.1 234.341 164.981 234.7 165.647 235.334C166.313 235.969 166.715 236.832 166.77 237.75Z" fill="#474949"/>
<path d="M177.28 237.75C177.307 238.191 177.244 238.633 177.093 239.049C176.942 239.464 176.708 239.844 176.404 240.165C176.1 240.486 175.733 240.74 175.326 240.913C174.92 241.086 174.482 241.174 174.04 241.17C173.119 241.159 172.236 240.801 171.569 240.167C170.901 239.532 170.498 238.669 170.44 237.75C170.411 237.309 170.474 236.866 170.624 236.45C170.774 236.034 171.009 235.653 171.313 235.332C171.617 235.011 171.984 234.756 172.392 234.584C172.799 234.411 173.238 234.325 173.68 234.33C174.601 234.341 175.484 234.699 176.151 235.334C176.819 235.968 177.222 236.831 177.28 237.75Z" fill="#474949"/>
<path d="M187.79 237.75C187.817 238.192 187.753 238.635 187.602 239.051C187.451 239.467 187.215 239.847 186.91 240.168C186.605 240.489 186.237 240.744 185.829 240.916C185.422 241.089 184.983 241.175 184.54 241.17C183.619 241.161 182.736 240.803 182.07 240.168C181.403 239.534 181.003 238.669 180.95 237.75C180.921 237.309 180.983 236.866 181.134 236.45C181.284 236.034 181.518 235.653 181.823 235.332C182.127 235.011 182.494 234.756 182.901 234.584C183.309 234.411 183.747 234.325 184.19 234.33C185.111 234.341 185.993 234.699 186.661 235.334C187.329 235.968 187.732 236.831 187.79 237.75Z" fill="#474949"/>
<path d="M198.29 237.75C198.319 238.191 198.256 238.634 198.106 239.05C197.956 239.466 197.722 239.847 197.417 240.168C197.113 240.489 196.746 240.744 196.338 240.916C195.931 241.089 195.492 241.175 195.05 241.17C194.129 241.159 193.247 240.801 192.579 240.167C191.911 239.532 191.508 238.669 191.45 237.75C191.423 237.308 191.486 236.865 191.638 236.449C191.789 236.033 192.025 235.653 192.33 235.332C192.635 235.011 193.003 234.756 193.41 234.584C193.818 234.411 194.257 234.325 194.7 234.33C195.621 234.339 196.503 234.697 197.17 235.332C197.836 235.967 198.237 236.831 198.29 237.75Z" fill="#474949"/>
<path d="M208.8 237.75C208.829 238.192 208.766 238.634 208.616 239.05C208.466 239.466 208.231 239.847 207.927 240.168C207.623 240.489 207.255 240.744 206.848 240.916C206.441 241.089 206.002 241.175 205.56 241.17C204.639 241.159 203.756 240.801 203.089 240.167C202.421 239.532 202.018 238.669 201.96 237.75C201.932 237.309 201.996 236.867 202.147 236.452C202.297 236.036 202.532 235.656 202.836 235.336C203.14 235.015 203.507 234.76 203.913 234.587C204.32 234.414 204.758 234.327 205.2 234.33C206.121 234.341 207.003 234.699 207.671 235.334C208.339 235.968 208.742 236.831 208.8 237.75Z" fill="#474949"/>
<path d="M219.31 237.75C219.337 238.192 219.273 238.635 219.122 239.051C218.971 239.467 218.735 239.847 218.43 240.168C218.125 240.489 217.757 240.744 217.349 240.916C216.942 241.089 216.503 241.175 216.06 241.17C215.14 241.159 214.258 240.8 213.592 240.166C212.926 239.531 212.525 238.668 212.47 237.75C212.441 237.309 212.503 236.866 212.654 236.45C212.804 236.034 213.038 235.653 213.343 235.332C213.647 235.011 214.014 234.756 214.421 234.584C214.829 234.411 215.267 234.325 215.71 234.33C216.631 234.341 217.513 234.699 218.181 235.334C218.849 235.968 219.252 236.831 219.31 237.75Z" fill="#474949"/>
<path d="M333 121.62C333.25 122 333.38 122.2 333.54 122.47L333.99 123.21C334.28 123.71 334.54 124.21 334.79 124.7C335.29 125.7 335.79 126.7 336.19 127.7C337.028 129.686 337.749 131.72 338.35 133.79C339.561 137.88 340.358 142.081 340.73 146.33L340.8 147.12C340.808 147.28 340.808 147.44 340.8 147.6V148.13C340.817 148.826 340.776 149.521 340.68 150.21C340.488 151.487 340.153 152.738 339.68 153.94C338.801 156.086 337.638 158.105 336.22 159.94C333.575 163.327 330.437 166.296 326.91 168.75L324.15 165.52C326.661 162.684 328.886 159.605 330.79 156.33C331.647 154.844 332.319 153.259 332.79 151.61C332.981 150.912 333.092 150.194 333.12 149.47C333.151 149.161 333.151 148.849 333.12 148.54V148.33C333.13 148.237 333.13 148.143 333.12 148.05L333 147.35C332.357 143.623 331.448 139.947 330.28 136.35C329.7 134.56 328.99 132.83 328.28 131.14C327.93 130.29 327.53 129.46 327.13 128.66L326.51 127.48L326.2 126.93L325.94 126.49L333 121.62Z" fill="#803E3C"/>
<path d="M323.7 168.77L327.32 176.42L330.19 169.95C330.19 169.95 327.64 164.35 324.19 164.87L323.7 168.77Z" fill="#7F3E3B"/>
<path d="M329.91 176.8L332.79 172.08L330.19 169.95L327.32 176.42L329.91 176.8Z" fill="#7F3E3B"/>
<path d="M313.63 353.22C314.379 353.201 315.123 353.101 315.85 352.92C315.887 352.909 315.92 352.888 315.946 352.86C315.973 352.832 315.991 352.797 316 352.76C316.006 352.721 316.001 352.682 315.985 352.646C315.969 352.611 315.943 352.581 315.91 352.56C315.62 352.37 313.08 350.73 312.1 351.17C311.991 351.221 311.898 351.299 311.83 351.397C311.761 351.496 311.72 351.61 311.71 351.73C311.68 351.911 311.694 352.096 311.751 352.271C311.809 352.445 311.908 352.603 312.04 352.73C312.493 353.08 313.058 353.254 313.63 353.22ZM315.28 352.63C313.83 352.93 312.73 352.88 312.28 352.49C312.188 352.399 312.121 352.286 312.084 352.162C312.047 352.038 312.042 351.906 312.07 351.78C312.07 351.61 312.17 351.56 312.24 351.53C312.78 351.29 314.25 352 315.28 352.63Z" fill="#459C9E"/>
<path d="M315.8 352.92H315.9C315.93 352.9 315.955 352.874 315.972 352.842C315.99 352.811 315.999 352.776 316 352.74C316 352.64 316 350.23 315.08 349.42C314.967 349.319 314.834 349.243 314.689 349.198C314.544 349.153 314.39 349.14 314.24 349.16C314.082 349.161 313.93 349.217 313.808 349.317C313.686 349.417 313.602 349.556 313.57 349.71C313.38 350.66 314.9 352.46 315.7 352.92H315.8ZM314.37 349.53C314.451 349.528 314.532 349.542 314.607 349.571C314.683 349.6 314.752 349.644 314.81 349.7C315.338 350.478 315.61 351.4 315.59 352.34C314.79 351.7 313.84 350.34 313.96 349.77C313.96 349.68 314.03 349.56 314.28 349.53H314.37Z" fill="#459C9E"/>
<path d="M304.19 349.14C304.214 349.111 304.229 349.075 304.234 349.038C304.24 349.001 304.235 348.963 304.221 348.929C304.206 348.894 304.183 348.864 304.153 348.841C304.123 348.818 304.088 348.804 304.05 348.8C303.64 348.8 300.05 348.63 299.23 349.51V349.57C299.162 349.656 299.119 349.759 299.103 349.868C299.087 349.977 299.1 350.088 299.14 350.19C299.194 350.362 299.288 350.518 299.415 350.645C299.542 350.772 299.699 350.866 299.87 350.92C301.03 351.28 303.08 349.97 304.2 349.16L304.19 349.14ZM299.53 349.77C299.98 349.29 301.96 349.16 303.44 349.18C301.89 350.24 300.6 350.74 299.95 350.54C299.837 350.505 299.734 350.444 299.65 350.36C299.566 350.276 299.505 350.173 299.47 350.06C299.45 350.021 299.44 349.978 299.44 349.935C299.44 349.891 299.45 349.848 299.47 349.81L299.53 349.77Z" fill="#459C9E"/>
<path d="M304.19 349.14C304.205 349.109 304.213 349.075 304.213 349.04C304.213 349.005 304.205 348.971 304.19 348.94C304.14 348.86 303.02 346.94 301.7 346.54C301.511 346.484 301.312 346.468 301.116 346.492C300.92 346.516 300.731 346.58 300.56 346.68C300.08 346.96 300.05 347.29 300.11 347.5C300.37 348.43 302.92 349.25 304.02 349.24C304.055 349.239 304.089 349.23 304.118 349.212C304.148 349.195 304.173 349.17 304.19 349.14ZM300.6 347.14C300.657 347.085 300.721 347.037 300.79 347C300.914 346.921 301.053 346.871 301.198 346.852C301.343 346.833 301.491 346.846 301.63 346.89C302.5 347.12 303.31 348.24 303.68 348.79C302.49 348.66 300.68 347.93 300.53 347.37C300.517 347.327 300.517 347.282 300.53 347.24C300.542 347.197 300.567 347.159 300.6 347.13V347.14Z" fill="#459C9E"/>
<path d="M315.2 92.3301C314.2 97.3301 312.04 108.14 315.51 111.46C315.51 111.46 314.15 116.46 304.92 116.46C294.76 116.46 300.07 111.46 300.07 111.46C305.61 110.14 305.47 106.02 304.5 102.16L315.2 92.3301Z" fill="#7F3E3B"/>
<path d="M298.28 80.6101C298.336 80.6192 298.394 80.6192 298.45 80.6101C298.497 80.5867 298.54 80.5541 298.575 80.5142C298.609 80.4743 298.636 80.4279 298.653 80.3777C298.669 80.3275 298.676 80.2744 298.672 80.2216C298.668 80.1688 298.654 80.1173 298.63 80.0701C298.361 79.4997 297.959 79.0021 297.458 78.6193C296.957 78.2365 296.371 77.9795 295.75 77.8701C295.646 77.8614 295.542 77.8927 295.46 77.9578C295.379 78.0228 295.325 78.1167 295.31 78.2201C295.299 78.3247 295.329 78.4296 295.395 78.5119C295.46 78.5943 295.555 78.6475 295.66 78.6601C296.15 78.7542 296.611 78.9639 297.004 79.2717C297.397 79.5795 297.711 79.9766 297.92 80.4301C297.959 80.4892 298.012 80.537 298.076 80.5687C298.139 80.6003 298.209 80.6146 298.28 80.6101Z" fill="#263238"/>
<path d="M295.25 85C294.463 86.4598 293.481 87.8055 292.33 89C292.642 89.285 293.011 89.4988 293.414 89.6265C293.816 89.7543 294.241 89.793 294.66 89.74L295.25 85Z" fill="#630F0F"/>
<path d="M296 83.8701C295.92 84.5401 295.49 85.0401 295.06 84.9901C294.63 84.9401 294.33 84.3501 294.41 83.6801C294.49 83.0101 294.92 82.5101 295.41 82.5601C295.9 82.6101 296.07 83.2001 296 83.8701Z" fill="#263238"/>
<path d="M295.54 82.62L294 82C294 82 294.65 83.32 295.54 82.62Z" fill="#263238"/>
<path d="M313.02 347.23L304.86 349.14L299.9 330.38L308.06 328.47L313.02 347.23Z" fill="#7F3E3B"/>
<path d="M325.54 352.72H317.17L317.82 333.32H326.2L325.54 352.72Z" fill="#7F3E3B"/>
<path d="M316.5 351.75H325.91C326.073 351.749 326.231 351.807 326.355 351.913C326.478 352.02 326.558 352.168 326.58 352.33L327.65 359.77C327.671 359.958 327.652 360.149 327.595 360.329C327.537 360.509 327.441 360.675 327.315 360.816C327.188 360.957 327.033 361.069 326.86 361.146C326.687 361.222 326.499 361.261 326.31 361.26C323.03 361.21 321.45 361.01 317.31 361.01C314.76 361.01 311.04 361.28 307.53 361.28C304.02 361.28 303.82 357.8 305.29 357.49C311.85 356.07 312.89 354.13 315.1 352.27C315.49 351.936 315.987 351.752 316.5 351.75Z" fill="#263238"/>
<path d="M304.14 347.89L312.69 343.96C312.835 343.891 313.001 343.877 313.155 343.921C313.31 343.966 313.443 344.065 313.53 344.2L317.62 350.52C317.715 350.683 317.776 350.864 317.797 351.051C317.818 351.239 317.8 351.428 317.744 351.608C317.687 351.788 317.594 351.954 317.469 352.096C317.344 352.238 317.191 352.351 317.02 352.43C314.02 353.75 312.5 354.24 308.74 355.97C306.43 357.03 301.74 359.47 298.56 360.97C295.38 362.47 293.74 359.36 294.94 358.46C300.31 354.46 301.85 351.59 303.08 348.98C303.288 348.499 303.665 348.112 304.14 347.89Z" fill="#263238"/>
<path opacity="0.2" d="M299.9 330.38L302.56 340.43L310.62 338.15L308.07 328.48L299.9 330.38Z" fill="#222831"/>
<path opacity="0.2" d="M326.2 333.33H317.82L317.49 343.33H325.87L326.2 333.33Z" fill="#222831"/>
<path d="M330 113.36C333.48 114.13 337.2 126.64 337.2 126.64L327.36 137.11C327.36 137.11 319.19 125.35 320.86 121.03C322.55 116.52 325.85 112.46 330 113.36Z" fill="#263238"/>
<path opacity="0.4" d="M324.44 121.33C322.68 119.72 321.49 120.2 320.68 121.48C319.88 125.2 324.62 132.99 326.53 135.94C327.41 132.42 328.42 125 324.44 121.33Z" fill="#222831"/>
<path d="M285.91 113.61C285.91 113.61 281.91 115.01 289.91 164.16H323.91C323.34 150.32 323.32 141.78 329.91 113.36C325.146 112.377 320.317 111.742 315.46 111.46C310.32 111.09 305.16 111.09 300.02 111.46C293.43 112.07 285.91 113.61 285.91 113.61Z" fill="#263238"/>
<path opacity="0.4" d="M285.6 132.47C285.82 134.86 286.11 137.55 286.49 140.59C289.28 138.08 291.56 130.94 290.72 126.78C288.727 128.398 286.999 130.318 285.6 132.47Z" fill="#222831"/>
<path d="M289.24 125C287.405 129.618 285.339 134.14 283.05 138.55C280.787 143.119 278.109 147.471 275.05 151.55L274.41 152.34L274.09 152.73C273.98 152.86 273.89 152.98 273.72 153.16C273.118 153.817 272.448 154.407 271.72 154.92C270.434 155.81 269.026 156.511 267.54 157C264.948 157.828 262.258 158.305 259.54 158.42C254.45 158.622 249.354 158.169 244.38 157.07L244.93 152.87C247.23 152.87 249.64 152.87 251.93 152.68C254.23 152.567 256.521 152.313 258.79 151.92C260.897 151.591 262.958 151.014 264.93 150.2C265.726 149.86 266.47 149.409 267.14 148.86C267.395 148.646 267.627 148.404 267.83 148.14C267.83 148.14 267.95 147.98 268.03 147.87L268.26 147.54L268.73 146.88C271.239 143.004 273.475 138.958 275.42 134.77C277.42 130.52 279.42 126.11 281.25 121.77L289.24 125Z" fill="#803E3C"/>
<path d="M285.91 113.61C281.74 114.61 276.62 126.05 276.62 126.05L285.26 138.75C285.26 138.75 296.77 124.26 295.4 119.84C294 115.23 291 112.37 285.91 113.61Z" fill="#263238"/>
<path d="M247.33 153.51L240.12 150.18L239.4 157.35C239.4 157.35 245.4 159.12 248.4 157.35L247.33 153.51Z" fill="#7F3E3B"/>
<path d="M235.81 149.46L235.12 154.91L239.4 157.35L240.12 150.18L235.81 149.46Z" fill="#7F3E3B"/>
<path d="M318.82 84.36C317.29 92.53 316.82 96.03 312.14 99.74C305.14 105.32 295.39 101.66 294.45 93.2C293.59 85.58 296.23 73.5 304.7 71.2C306.566 70.6853 308.533 70.6571 310.412 71.1181C312.292 71.5792 314.022 72.5141 315.438 73.8337C316.854 75.1533 317.908 76.8136 318.5 78.6563C319.093 80.499 319.203 82.4627 318.82 84.36Z" fill="#7F3E3B"/>
<path d="M300.87 86.0802C300.4 90.2502 300.22 101.08 309.38 101.42C320.59 101.83 323.95 92.2502 322.95 88.4202C328.79 83.6702 329.63 75.5002 323.07 69.2502C316.51 63.0002 302.07 66.4902 298.07 72.5802C293 80.1302 300.87 86.0802 300.87 86.0802Z" fill="#263238"/>
<path d="M312.1 71.68C311.56 67.28 311.98 64.25 316.1 64.25C320.22 64.25 325.84 65.74 327.9 69.95C329.96 74.16 330.13 80.75 324.38 80.08C318.63 79.41 312.75 76.94 312.1 71.68Z" fill="#459C9E"/>
<path d="M318.48 70.6201C317.48 65.3801 322.17 50.6201 333.56 49.6201C338.84 49.1701 341.28 54.8501 338.56 55.7901C343.56 55.7301 346.76 62.3401 342.1 63.3301C345.78 65.6901 344.87 70.5301 339.62 72.9101C335.71 74.7101 319.83 77.8801 318.48 70.6201Z" fill="#263238"/>
<path d="M330.65 76.25C326.98 76.25 323.15 75.71 320.77 74.12C320.105 73.7189 319.544 73.1649 319.136 72.5041C318.727 71.8433 318.482 71.0946 318.42 70.32C318.417 70.2543 318.439 70.1898 318.482 70.1397C318.525 70.0896 318.585 70.0575 318.65 70.05C318.683 70.0458 318.717 70.0486 318.749 70.0581C318.781 70.0677 318.811 70.0838 318.836 70.1054C318.861 70.1271 318.882 70.1538 318.896 70.1838C318.911 70.2139 318.919 70.2467 318.92 70.28C318.98 70.979 319.205 71.6539 319.575 72.2498C319.945 72.8458 320.45 73.3461 321.05 73.71C325.58 76.71 336.05 75.71 339.31 74.71C342.13 73.79 344.04 72 344.42 69.94C344.539 69.1841 344.445 68.4101 344.151 67.704C343.856 66.9979 343.371 66.3873 342.75 65.94C342.726 65.9176 342.707 65.8905 342.694 65.8604C342.681 65.8303 342.674 65.7978 342.674 65.765C342.674 65.7322 342.681 65.6998 342.694 65.6697C342.707 65.6396 342.726 65.6125 342.75 65.59C342.797 65.5442 342.86 65.5186 342.925 65.5186C342.991 65.5186 343.053 65.5442 343.1 65.59C343.798 66.0993 344.341 66.7927 344.668 67.5927C344.994 68.3926 345.092 69.2677 344.95 70.12C344.54 72.37 342.51 74.29 339.51 75.27C336.615 75.9997 333.634 76.3294 330.65 76.25Z" fill="#263238"/>
<path d="M298.32 85.0002C297.389 86.3064 297.005 87.9248 297.25 89.5102C297.58 91.6102 299.62 91.7502 301.1 90.4102C302.58 89.0702 303.87 86.6502 302.78 84.9102C302.538 84.5343 302.203 84.2267 301.809 84.0166C301.414 83.8065 300.972 83.701 300.525 83.71C300.078 83.719 299.641 83.8423 299.255 84.0681C298.869 84.294 298.547 84.6148 298.32 85.0002Z" fill="#7F3E3B"/>
<path d="M298.89 164.16C298.89 164.16 303.75 221.65 308.8 254.05C312.87 280.22 316.09 341.39 316.09 341.39H327.51C327.51 341.39 331.57 282.05 329.51 256.17C324.28 190.67 335.95 185.33 323.94 164.17L298.89 164.16Z" fill="#459C9E"/>
<path opacity="0.4" d="M313.27 185.89C308.744 190.64 305.092 196.151 302.48 202.17C303.81 215.09 305.39 229.43 307.07 241.99C313.964 224.143 316.1 204.811 313.27 185.89Z" fill="#222831"/>
<path d="M290.9 163.8C290.9 163.8 280.35 226.59 278.69 254.89C282.83 281.06 299.77 336.38 299.77 336.38L310.16 332.61C310.16 332.61 304.41 272.29 298.16 255.78C312.23 208.41 322.57 196.43 319.56 164.16C312.35 164.16 290.9 163.8 290.9 163.8Z" fill="#459C9E"/>
<path d="M298.38 339.14L312.42 335.32L311.62 329.73L296.59 333.79L298.38 339.14Z" fill="#263238"/>
<path d="M314.52 341.62H329.07L329.83 336.51L314.44 335.99L314.52 341.62Z" fill="#263238"/>
<path d="M324.44 162.16L325.97 165.21C326.09 165.45 325.81 165.69 325.42 165.69H289.74C289.44 165.69 289.18 165.54 289.16 165.34L288.85 162.34C288.85 162.13 289.1 161.95 289.43 161.95H323.88C323.984 161.936 324.089 161.948 324.187 161.984C324.284 162.021 324.371 162.081 324.44 162.16Z" fill="#459C9E"/>
<path opacity="0.5" d="M324.44 162.16L325.97 165.21C326.09 165.45 325.81 165.69 325.42 165.69H289.74C289.44 165.69 289.18 165.54 289.16 165.34L288.85 162.34C288.85 162.13 289.1 161.95 289.43 161.95H323.88C323.984 161.936 324.089 161.948 324.187 161.984C324.284 162.021 324.371 162.081 324.44 162.16Z" fill="#222831"/>
<path d="M319.81 166H320.73C320.92 166 321.06 165.9 321.05 165.79L320.61 161.79C320.61 161.67 320.44 161.58 320.26 161.58H319.33C319.15 161.58 319.01 161.67 319.02 161.79L319.45 165.79C319.47 165.92 319.63 166 319.81 166Z" fill="#459C9E"/>
<path d="M307.43 136.88C307.32 136.878 307.213 136.842 307.125 136.775C307.037 136.709 306.972 136.616 306.94 136.51C303.68 124.45 296.94 114.51 293.67 113.01C293.416 112.854 293.111 112.804 292.82 112.87C292.76 112.902 292.693 112.921 292.625 112.926C292.557 112.932 292.489 112.923 292.424 112.901C292.36 112.878 292.3 112.843 292.25 112.797C292.2 112.751 292.159 112.695 292.131 112.633C292.103 112.571 292.088 112.504 292.087 112.435C292.086 112.367 292.099 112.299 292.125 112.236C292.151 112.173 292.19 112.116 292.239 112.069C292.288 112.021 292.346 111.984 292.41 111.96C292.683 111.86 292.975 111.82 293.265 111.844C293.556 111.869 293.837 111.956 294.09 112.1C297.55 113.74 304.39 123.54 307.81 135.87C310.26 135.87 314.04 135.54 314.96 135.46C316.1 134.1 324.48 123.62 321.35 112.15C321.332 112.087 321.327 112.021 321.335 111.956C321.342 111.891 321.363 111.828 321.396 111.771C321.429 111.714 321.472 111.664 321.525 111.625C321.577 111.585 321.636 111.556 321.7 111.54C321.827 111.506 321.963 111.524 322.077 111.59C322.191 111.655 322.275 111.763 322.31 111.89C325.8 124.65 315.68 136.16 315.57 136.27C315.531 136.319 315.482 136.359 315.427 136.388C315.372 136.417 315.312 136.435 315.25 136.44C315.2 136.44 310.21 136.88 307.43 136.88Z" fill="#459C9E"/>
<path d="M324 143.94C318.55 133.73 316.32 133.01 315.35 129.73C316.085 127.896 317.134 126.204 318.45 124.73C317.79 124.54 316.37 124.26 315.45 124.09C315.55 123.64 315.66 123.2 315.76 122.77C314.759 122.658 313.746 122.705 312.76 122.91V121.91C311.49 121.634 310.185 121.55 308.89 121.66C309.003 122.134 309.113 122.614 309.22 123.1C308.22 123.29 306.7 123.6 305.97 123.81C307.388 125.417 308.43 127.32 309.02 129.38C306.08 134.43 294.66 166.89 313.24 169.38C331.82 171.87 329.44 154.16 324 143.94Z" fill="#459C9E"/>
<path opacity="0.4" d="M324 143.94C318.55 133.73 316.32 133.01 315.35 129.73C316.085 127.896 317.134 126.204 318.45 124.73C317.79 124.54 316.37 124.26 315.45 124.09C315.55 123.64 315.66 123.2 315.76 122.77C314.759 122.658 313.746 122.705 312.76 122.91V121.91C311.49 121.634 310.185 121.55 308.89 121.66C309.003 122.134 309.113 122.614 309.22 123.1C308.22 123.29 306.7 123.6 305.97 123.81C307.388 125.417 308.43 127.32 309.02 129.38C306.08 134.43 294.66 166.89 313.24 169.38C331.82 171.87 329.44 154.16 324 143.94Z" fill="#A1D0D4"/>
<path d="M308.26 128.41C308.144 128.925 308.094 129.453 308.11 129.98C308.11 130.35 309.11 130.6 310.22 130.71C311.33 130.82 315.99 131 315.84 130.48C315.69 129.96 316.07 129.25 316.09 128.81C316.11 128.37 314.24 128.35 312.67 128.41C311.1 128.47 308.57 127.85 308.26 128.41Z" fill="#459C9E"/>
<path d="M297.45 166H298.37C298.55 166 298.69 165.9 298.68 165.79L298.25 161.79C298.25 161.67 298.08 161.58 297.89 161.58H297C296.82 161.58 296.68 161.67 296.69 161.79L297.12 165.79C297.1 165.92 297.26 166 297.45 166Z" fill="#459C9E"/>
</svg>
