<svg width="20" height="20" viewBox="0 0 20 20" fill="none" xmlns="http://www.w3.org/2000/svg">
<path d="M10.1131 1.87478C5.54353 1.81306 1.81306 5.54353 1.87478 10.1131C1.93572 14.4955 5.50408 18.0638 9.8865 18.1248C14.4568 18.1873 18.1865 14.4568 18.124 9.88728C18.0638 5.50408 14.4955 1.93572 10.1131 1.87478ZM9.96931 7.81658C9.97751 7.7697 9.9865 7.72283 9.99704 7.67634C10.0957 7.22015 10.3155 6.79899 10.6334 6.4572C11.1369 5.92087 11.8506 5.62478 12.6431 5.62478C12.9766 5.62341 13.3078 5.67971 13.622 5.79118C14.0127 5.93028 14.3645 6.16062 14.6482 6.46306C15.0656 6.91415 15.314 7.49575 15.3513 8.10915C15.3621 8.25739 15.3621 8.40622 15.3513 8.55447C15.3213 8.97459 15.2126 9.38535 15.031 9.7654C15.0112 9.80681 14.9905 9.84783 14.9689 9.88845C14.9256 9.96931 14.8791 10.0486 14.8291 10.1252C14.7295 10.278 14.6167 10.4218 14.492 10.5549C13.9795 11.1017 13.3232 11.4037 12.6439 11.4037C12.3892 11.4035 12.1362 11.3616 11.8951 11.2795C11.8141 11.252 11.7345 11.2203 11.6568 11.1845C11.3313 11.0327 11.0384 10.8188 10.7947 10.5549C10.2874 10.0046 9.98407 9.29702 9.93533 8.55017C9.9283 8.44913 9.92595 8.34913 9.92829 8.25017C9.93132 8.10509 9.94503 7.96042 9.96931 7.81736V7.81658ZM4.12048 8.76736C4.13949 8.48863 4.20829 8.21557 4.32361 7.96111C4.35614 7.89023 4.39239 7.82113 4.4322 7.75408C4.51183 7.61967 4.60602 7.49443 4.71306 7.38064C4.87163 7.21147 5.05626 7.06878 5.25994 6.95798C5.36166 6.90239 5.46758 6.85485 5.57673 6.81579C5.99498 6.66951 6.44464 6.63729 6.87947 6.72243C7.34021 6.81155 7.76103 7.04397 8.08181 7.3865C8.46246 7.7974 8.67698 8.33501 8.68376 8.89509C8.68572 8.97751 8.68376 9.06033 8.6779 9.14431C8.65407 9.46592 8.57477 9.78098 8.44353 10.0756C8.38069 10.2174 8.3058 10.3536 8.2197 10.4826C8.0541 10.7328 7.84571 10.9519 7.60408 11.1299C7.54548 11.1717 7.48454 11.2107 7.42165 11.2498C7.29796 11.3234 7.16707 11.3843 7.03103 11.4314C6.82761 11.5025 6.6137 11.5389 6.39822 11.5392C6.36189 11.5392 6.32556 11.5392 6.28962 11.5361C6.21786 11.5322 6.14639 11.5241 6.07556 11.5119C6.00509 11.4996 5.93533 11.4836 5.86658 11.4638C5.7633 11.434 5.66248 11.3963 5.56501 11.351C5.5322 11.3357 5.50017 11.3197 5.46814 11.3029C4.76501 10.9322 4.23493 10.1638 4.13103 9.26697C4.12634 9.22595 4.12243 9.18493 4.1197 9.14353C4.11088 9.01828 4.11114 8.89256 4.12048 8.76736V8.76736ZM6.22673 15.7439C5.18667 15.0584 4.3508 14.105 3.8072 12.9842C3.78945 12.9483 3.78611 12.907 3.79789 12.8688C3.80966 12.8306 3.83564 12.7983 3.87048 12.7787C4.59626 12.3705 5.52322 12.1482 6.399 12.1482C7.06306 12.1482 7.59822 12.2263 8.06658 12.3779C8.11967 12.3954 8.16711 12.4268 8.20395 12.4688C8.24078 12.5109 8.26566 12.562 8.27599 12.617C8.28633 12.6719 8.28173 12.7286 8.2627 12.7812C8.24366 12.8337 8.21087 12.8802 8.16775 12.9158C7.25564 13.658 6.66775 14.5775 6.39158 15.6795C6.38744 15.6963 6.37932 15.7119 6.36789 15.725C6.35645 15.738 6.34205 15.7482 6.32588 15.7545C6.30972 15.7608 6.29228 15.7631 6.27502 15.7613C6.25776 15.7595 6.2412 15.7535 6.22673 15.7439V15.7439ZM9.99978 16.8748C9.12032 16.8757 8.24895 16.707 7.43337 16.3779C7.40004 16.3641 7.3725 16.3393 7.35541 16.3075C7.33833 16.2758 7.33275 16.2391 7.33962 16.2037C7.35525 16.1236 7.37244 16.0506 7.38767 15.9896C7.66579 14.8791 8.35486 13.9584 9.37986 13.3263C10.2896 12.7658 11.4502 12.4572 12.6424 12.4572C13.8595 12.4572 14.9861 12.7533 15.9033 13.3131C15.9267 13.3277 15.9434 13.3508 15.9501 13.3776C15.9567 13.4043 15.9527 13.4326 15.9388 13.4564C15.334 14.4955 14.4673 15.358 13.4253 15.9578C12.3832 16.5575 11.2021 16.8737 9.99978 16.8748V16.8748Z" fill="#1272B2"/>
<path d="M6.28896 11.5345C6.2172 11.5305 6.14573 11.5225 6.0749 11.5103C6.14573 11.5225 6.2172 11.5305 6.28896 11.5345V11.5345ZM5.25928 6.9583C5.0556 7.0691 4.87097 7.21179 4.7124 7.38096C4.60536 7.49475 4.51117 7.61999 4.43154 7.75439C4.51117 7.61999 4.60536 7.49475 4.7124 7.38096C4.87097 7.21179 5.0556 7.0691 5.25928 6.9583V6.9583ZM8.44404 10.0739C8.57529 9.77935 8.65458 9.46429 8.67842 9.14268C8.68428 9.05869 8.68623 8.97588 8.68428 8.89346C8.68636 8.97549 8.68441 9.05856 8.67842 9.14268C8.65458 9.46429 8.57529 9.77935 8.44404 10.0739V10.0739ZM5.25928 6.9583C5.361 6.90271 5.46693 6.85517 5.57607 6.81611C5.46693 6.85517 5.361 6.90271 5.25928 6.9583V6.9583ZM5.86748 11.4622C5.76421 11.4324 5.66339 11.3946 5.56592 11.3493C5.66339 11.3946 5.76421 11.4324 5.86748 11.4622V11.4622ZM4.13193 9.26533C4.23584 10.1638 4.76709 10.9306 5.46904 11.3013C4.76553 10.9306 4.23584 10.1622 4.13193 9.26533ZM9.93506 8.55479C9.9838 9.30164 10.2871 10.0092 10.7944 10.5595C11.0382 10.8234 11.331 11.0373 11.6565 11.1892C11.331 11.0373 11.0382 10.8234 10.7944 10.5595C10.2871 10.0092 9.9838 9.30164 9.93506 8.55479C9.92803 8.45374 9.92568 8.35374 9.92803 8.25479C9.92568 8.35244 9.92803 8.45244 9.93506 8.55479V8.55479ZM11.8944 11.2821C11.8134 11.2546 11.7339 11.2229 11.6562 11.1872C11.7339 11.2229 11.8134 11.2546 11.8944 11.2821V11.2821ZM9.99717 7.67744C10.0958 7.22125 10.3157 6.80009 10.6335 6.4583C10.3157 6.80009 10.0958 7.22125 9.99717 7.67744V7.67744ZM14.6483 6.46338C15.0657 6.91447 15.3141 7.49607 15.3515 8.10947C15.3141 7.49607 15.0657 6.91447 14.6483 6.46338C14.3646 6.16094 14.0128 5.9306 13.6222 5.7915C14.0128 5.9306 14.3646 6.16094 14.6483 6.46338V6.46338ZM15.3515 8.55479C15.3214 8.97491 15.2127 9.38567 15.0312 9.76572C15.2127 9.38567 15.3214 8.97491 15.3515 8.55479V8.55479ZM9.92803 8.25283C9.93106 8.10696 9.9449 7.96151 9.96943 7.81768C9.9449 7.96151 9.93106 8.10696 9.92803 8.25283V8.25283ZM8.08115 7.38486C8.46181 7.79577 8.67632 8.33338 8.68311 8.89346C8.67632 8.33338 8.46181 7.79577 8.08115 7.38486C7.76037 7.04233 7.33956 6.80992 6.87881 6.7208C7.33956 6.80992 7.76037 7.04233 8.08115 7.38486V7.38486ZM7.42178 11.2501C7.29808 11.3238 7.1672 11.3846 7.03115 11.4317C7.1672 11.3846 7.29808 11.3238 7.42178 11.2501V11.2501ZM4.12061 8.76768C4.13961 8.48895 4.20841 8.21589 4.32373 7.96143C4.20841 8.21589 4.13961 8.48895 4.12061 8.76768V8.76768ZM7.60459 11.1282C7.54561 11.172 7.48467 11.211 7.42178 11.2501C7.48467 11.211 7.54561 11.172 7.60459 11.1282ZM8.44404 10.0739C8.3812 10.2157 8.30632 10.3519 8.22022 10.481C8.30632 10.3519 8.3812 10.2157 8.44404 10.0739V10.0739ZM4.32373 7.96143C4.35626 7.89055 4.39251 7.82145 4.43232 7.75439C4.39251 7.82145 4.35626 7.89055 4.32373 7.96143V7.96143ZM7.60459 11.1282C7.84622 10.9503 8.05462 10.7312 8.22022 10.481C8.05462 10.7312 7.84622 10.9503 7.60459 11.1282Z" fill="#1272B2"/>
</svg>
