<svg width="50" height="50" viewBox="0 0 50 50" fill="none" xmlns="http://www.w3.org/2000/svg">
<path d="M28.3144 24.9999L37.5917 15.7226C38.032 15.283 38.2797 14.6866 38.2802 14.0645C38.2808 13.4424 38.0342 12.8455 37.5946 12.4052C37.1551 11.9649 36.5587 11.7172 35.9366 11.7167C35.3144 11.7161 34.7176 11.9627 34.2773 12.4023L24.9999 21.6796L15.7226 12.4023C15.2823 11.962 14.6851 11.7146 14.0624 11.7146C13.4397 11.7146 12.8426 11.962 12.4023 12.4023C11.962 12.8426 11.7146 13.4397 11.7146 14.0624C11.7146 14.6851 11.962 15.2823 12.4023 15.7226L21.6796 24.9999L12.4023 34.2773C11.962 34.7176 11.7146 35.3147 11.7146 35.9374C11.7146 36.5601 11.962 37.1573 12.4023 37.5976C12.8426 38.0379 13.4397 38.2852 14.0624 38.2852C14.6851 38.2852 15.2823 38.0379 15.7226 37.5976L24.9999 28.3202L34.2773 37.5976C34.7176 38.0379 35.3147 38.2852 35.9374 38.2852C36.5601 38.2852 37.1573 38.0379 37.5976 37.5976C38.0379 37.1573 38.2852 36.5601 38.2852 35.9374C38.2852 35.3147 38.0379 34.7176 37.5976 34.2773L28.3144 24.9999Z" fill="#0F3015"/>
</svg>
