<svg width="501" height="311" viewBox="0 0 501 311" fill="none" xmlns="http://www.w3.org/2000/svg">
<path d="M220.416 0.708163C139.43 -4.39441 110.703 35.5708 69.5406 76.8897C28.3779 118.209 9.35112 161.811 33.2722 223.89C57.1933 285.969 113.664 301.76 202.304 301.76C290.945 301.76 382.226 310.403 428.424 276.641C474.622 242.879 490.399 165.709 423.418 125.334C383.996 101.555 332.375 7.73722 220.416 0.708163Z" fill="url(#paint0_linear_194_7476)"/>
<path d="M90.6352 288.713C89.7723 277.958 86.2764 267.745 82.8028 257.6C79.3589 247.58 75.4911 237.011 75.32 226.292C75.2456 221.666 77.3581 212.257 83.9557 214.027C86.1872 214.622 87.5855 217.047 88.5897 218.929C89.8881 221.432 90.9874 224.033 91.8773 226.709C95.3361 236.743 95.9534 247.476 95.9311 258.001C95.9311 265.915 95.3584 273.867 96.0055 281.803C96.0055 281.902 96.0447 281.997 96.1144 282.066C96.1842 282.136 96.2788 282.175 96.3774 282.175C96.4761 282.175 96.5706 282.136 96.6404 282.066C96.7101 281.997 96.7493 281.902 96.7493 281.803C96.6021 270.716 97.4535 259.638 99.2932 248.704C100.253 243.493 101.494 238.338 103.012 233.262C103.548 231.44 105.244 228.65 107.111 228.167C109.885 227.423 113.322 228.226 114.385 231.216C118.372 242.374 114.995 254.446 111.276 265.201C109.792 269.763 108.076 274.247 106.136 278.635C104.495 282.19 102.883 285.763 101.301 289.353C100.833 290.402 100.379 291.451 99.9329 292.514C99.7543 292.961 100.468 293.146 100.677 292.715C103.496 285.924 107.007 279.408 109.483 272.498C113.203 262.137 117.353 251.5 116.884 240.298C116.761 237.825 116.374 235.371 115.731 232.979C115.166 230.83 114.497 229.201 112.57 227.988C111.151 227.225 109.516 226.963 107.929 227.244C105.965 227.482 105.288 227.988 104.21 229.61C103.808 230.22 102.863 231.097 102.663 231.782C102.286 233.031 101.921 234.283 101.569 235.538C100.825 238.193 100.171 240.871 99.5758 243.564C98.5042 248.502 97.6874 253.492 97.1287 258.514C96.3094 266.242 95.9394 274.011 96.0204 281.781H96.7642C96.0204 272.684 96.7642 263.52 96.6749 254.409C96.5485 244.107 95.4105 233.76 91.7211 224.068C90.3674 220.52 88.7459 216.236 85.5326 213.967C82.1929 211.617 78.4812 214.198 76.6589 217.106C74.234 220.982 74.3828 226.144 74.8737 230.495C75.513 235.533 76.5729 240.51 78.0424 245.371C82.2003 259.794 88.6864 273.636 89.9062 288.765C89.9434 289.241 90.6872 289.241 90.65 288.765L90.6352 288.713Z" fill="#0F3015"/>
<path d="M90.5682 288.594C90.4088 286.531 90.1256 284.479 89.7203 282.45C89.6952 282.363 89.6397 282.288 89.5638 282.238C89.4879 282.188 89.3968 282.167 89.3068 282.179C89.2168 282.191 89.134 282.234 89.0734 282.302C89.0128 282.369 88.9784 282.456 88.9764 282.547C89.1029 284.615 89.4004 286.66 89.7203 288.706C89.7946 289.182 90.5161 288.981 90.4641 288.505C90.1517 286.526 89.869 284.548 89.7203 282.554L88.9764 282.659C89.3715 284.624 89.6472 286.611 89.8021 288.609C89.8467 289.085 90.5905 289.085 90.5459 288.609L90.5682 288.594Z" fill="#0F3015"/>
<path d="M80.4077 288.877C77.2614 280.561 70.6712 274.462 64.7876 268.05C61.5615 264.686 58.8089 260.897 56.6056 256.789C54.6122 252.832 51.8973 246.896 54.6197 242.709C56.9701 239.086 62.1173 242.017 64.676 243.742C67.9414 245.974 70.5224 248.89 72.9919 251.924C79.881 260.36 84.9782 270.112 87.9723 280.584C88.6918 283.149 89.263 285.755 89.6831 288.386C89.7575 288.862 90.4716 288.661 90.4269 288.193C88.7046 278.051 84.9855 268.353 79.4854 259.66C75.2828 252.899 70.0389 245.624 62.8909 241.727C60.5702 240.462 57.5503 239.495 55.1626 241.094C52.1428 243.125 52.6188 247.573 53.3998 250.586C55.6312 259.184 61.738 265.856 67.6439 272.156C72.3968 277.222 77.1945 282.451 79.6862 289.056C79.8573 289.495 80.5788 289.309 80.43 288.855L80.4077 288.877Z" fill="#0F3015"/>
<path d="M109.461 232.883C104.537 240.559 105.474 250.355 103.964 258.998C103.101 263.967 101.324 268.667 100.416 273.651C99.4568 278.858 98.408 284.064 97.1584 289.271C97.0468 289.74 97.7683 289.933 97.9022 289.465C99.0923 284.506 100.141 279.53 101.049 274.536C101.897 269.82 103.533 265.32 104.448 260.627C105.311 256.164 105.683 251.664 106.107 247.134C106.56 242.277 107.453 237.464 110.131 233.269C110.391 232.868 109.744 232.525 109.483 232.897L109.461 232.883Z" fill="#0F3015"/>
<path d="M81.6276 221.666C81.9623 227.274 83.859 232.585 85.1533 238.03C86.5963 244.092 87.7715 250.221 88.9839 256.328C90.174 262.278 91.2153 268.229 92.517 274.179C93.9559 280.279 94.761 286.51 94.9195 292.775C94.9195 292.873 94.9587 292.968 95.0285 293.038C95.0982 293.107 95.1928 293.147 95.2914 293.147C95.3901 293.147 95.4847 293.107 95.5544 293.038C95.6242 292.968 95.6634 292.873 95.6634 292.775C95.5381 287.14 94.868 281.53 93.6625 276.024C92.4278 269.875 91.2029 263.726 89.9881 257.577C88.8277 251.679 87.6599 245.773 86.3433 239.904C84.9896 233.865 82.7433 227.914 82.3714 221.696C82.3714 221.22 81.6276 221.212 81.6276 221.696V221.666Z" fill="#0F3015"/>
<path d="M63.1363 252.675C68.7372 258.009 73.3489 264.242 77.5589 270.706C79.6936 273.978 81.6275 277.4 83.554 280.807C85.7111 284.6 86.9458 288.624 88.5078 292.708C88.6789 293.146 89.4004 292.953 89.2516 292.507C87.8458 288.847 86.7896 285.128 84.9003 281.669C82.9143 278.032 80.8242 274.387 78.5779 270.899C74.2712 264.205 69.4885 257.696 63.7016 252.177C63.3594 251.85 62.8313 252.371 63.1809 252.705L63.1363 252.675Z" fill="#0F3015"/>
<path d="M64.1628 262.695C68.6777 265.722 73.6241 268.11 77.8936 271.501C78.2655 271.799 78.7936 271.278 78.4217 270.973C74.1001 267.544 69.1017 265.119 64.5347 262.048C64.133 261.78 63.7909 262.427 64.1628 262.695V262.695Z" fill="#0F3015"/>
<path d="M76.5994 262.115C78.2507 264.294 79.2399 267.098 80.1697 269.642C81.2637 272.795 82.1629 276.012 82.8623 279.274C82.9739 279.743 83.688 279.542 83.6061 279.081C82.8594 275.658 81.9005 272.284 80.735 268.98C79.8424 266.533 78.8457 263.825 77.2614 261.743C76.9713 261.363 76.3316 261.743 76.6217 262.115H76.5994Z" fill="#0F3015"/>
<path d="M101.086 253.457C101.346 256.595 102.864 259.459 102.96 262.628C102.96 263.104 103.704 263.104 103.704 262.628C103.607 259.459 102.09 256.595 101.83 253.457C101.792 252.98 101.049 252.973 101.086 253.457Z" fill="#0F3015"/>
<path d="M86.5591 227.304C85.5177 230.577 85.659 234.14 85.2202 237.509C85.1607 237.985 85.9045 237.978 85.964 237.509C86.3954 234.199 86.2541 230.711 87.2805 227.505C87.4219 227.044 86.7078 226.85 86.5367 227.304H86.5591Z" fill="#0F3015"/>
<path d="M80.6458 240.864C82.2822 243.17 83.6211 245.654 85.2946 247.923C86.8953 249.882 88.0502 252.166 88.679 254.617C88.7831 255.086 89.4972 254.885 89.4228 254.416C88.9263 252.347 88.0182 250.399 86.7525 248.689C84.9227 245.989 83.2045 243.185 81.3152 240.507C81.0475 240.12 80.4003 240.507 80.6756 240.879L80.6458 240.864Z" fill="#0F3015"/>
<path d="M92.5988 249.871C91.855 254.453 91.1112 259.028 90.6574 263.654C90.6128 264.13 91.3566 264.123 91.4013 263.654C91.8327 259.095 92.5616 254.58 93.3129 250.072C93.3947 249.603 92.6732 249.403 92.569 249.871H92.5988Z" fill="#0F3015"/>
<path d="M112.206 238.045C110.369 242.85 107.252 247.089 105.073 251.738C104.872 252.17 105.519 252.549 105.72 252.11C107.951 247.402 111.06 243.11 112.927 238.245C113.098 237.792 112.377 237.606 112.183 238.045H112.206Z" fill="#0F3015"/>
<path d="M377.755 300.369C376.375 296.912 374.39 293.728 371.894 290.967C368.688 287.479 364.545 285.188 361.704 281.297C358.988 277.408 356.505 273.362 354.266 269.181C352.85 266.851 351.863 264.286 351.35 261.609C350.989 258.916 350.944 256.19 351.216 253.486L350.658 253.806C352.458 254.55 353.782 255.941 355.233 257.205C356.683 258.47 358.371 259.437 359.911 260.545C363.527 263.276 366.712 266.536 369.358 270.215C371.79 273.547 373.493 277.467 375.145 281.223C376.58 284.488 377.74 288.222 379.868 291.116C380.098 291.428 380.693 291.257 380.545 290.833C377.98 283.313 376.816 275.387 377.108 267.448C377.254 263.841 377.619 260.247 378.202 256.685C378.614 253.192 379.682 249.808 381.348 246.71H380.708C381.564 248.384 381.764 250.213 382.107 252.028C382.54 254.062 383.152 256.053 383.936 257.979C385.443 262.318 386.568 266.78 387.298 271.315C388.226 275.941 388.349 280.691 387.663 285.359C386.994 289.762 385.774 294.069 384.859 298.428C384.777 298.822 385.342 299.104 385.543 298.71C386.852 296.062 388.087 293.384 389.188 290.64C390.385 287.664 391.181 284.54 392.237 281.506C393.904 276.738 396.745 272.401 401.297 270.029C406.749 267.18 419.208 264.353 420.636 273.19L421.187 272.773C412.953 269.285 406.496 276.976 402.361 283.112C399.564 287.263 396.663 291.168 393.435 295.013C392.17 296.546 391.032 298.435 389.552 299.766C388.236 300.956 385.67 302.779 383.803 302.6C383.319 302.556 383.326 303.3 383.803 303.344C386.279 303.575 389.716 301.061 391.099 299.156C393.918 295.266 397.266 291.785 400.085 287.888C404.726 281.476 410.877 269.196 420.778 273.391C420.842 273.425 420.914 273.441 420.987 273.435C421.059 273.43 421.129 273.403 421.187 273.359C421.245 273.315 421.289 273.256 421.314 273.188C421.339 273.119 421.344 273.045 421.328 272.974C419.915 264.205 408.445 266.168 402.599 268.578C398.136 270.408 395.042 273.658 392.929 277.943C391.441 280.918 390.698 284.146 389.649 287.278C388.32 291.069 386.732 294.765 384.896 298.338L385.58 298.621C386.54 294.046 387.774 289.531 388.481 284.905C389.099 280.556 388.986 276.133 388.146 271.821C387.394 267.047 386.232 262.346 384.673 257.771C383.92 255.833 383.306 253.845 382.836 251.82C382.434 249.931 382.263 248.101 381.348 246.323C381.315 246.268 381.268 246.222 381.212 246.19C381.156 246.158 381.093 246.141 381.028 246.141C380.964 246.141 380.9 246.158 380.844 246.19C380.788 246.222 380.741 246.268 380.708 246.323C377.316 252.103 376.826 259.608 376.424 266.161C375.908 274.598 377.066 283.054 379.831 291.041L380.507 290.759C378.276 287.702 377.041 283.715 375.524 280.256C373.87 276.207 371.754 272.363 369.216 268.801C366.788 265.609 363.953 262.748 360.781 260.292C358.996 258.916 357.018 257.785 355.314 256.298C353.946 255.108 352.726 253.903 351.037 253.174C350.98 253.144 350.916 253.129 350.852 253.13C350.787 253.131 350.724 253.148 350.668 253.18C350.612 253.212 350.564 253.257 350.53 253.312C350.496 253.367 350.476 253.429 350.472 253.494C350.13 258.284 350.323 262.858 352.406 267.247C354.692 271.762 357.271 276.123 360.127 280.301C361.27 282.086 362.613 283.735 364.129 285.217C365.81 286.831 367.796 288.103 369.536 289.68C372.823 292.699 375.386 296.422 377.034 300.57C377.22 301.009 377.934 300.815 377.778 300.376L377.755 300.369Z" fill="#0F3015"/>
<path d="M372.682 300.837C368.472 294.024 365.11 284.786 357.062 281.669C352.763 280.01 347.571 280.925 343.54 282.867C338.98 285.024 335.358 288.869 332.159 292.655C332.105 292.715 332.072 292.79 332.063 292.871C332.055 292.951 332.072 293.032 332.113 293.101C332.153 293.171 332.215 293.226 332.289 293.258C332.363 293.29 332.445 293.298 332.524 293.28C339.419 291.249 348.077 290.826 354.466 294.641C357.516 296.456 359.904 299.55 362.314 302.117C363.905 303.813 365.073 306.661 367.52 307.249C367.989 307.361 368.182 306.646 367.721 306.505C366.07 306.111 364.947 304.274 364.002 303.039C363.071 301.864 362.078 300.739 361.027 299.669C358.572 297.029 356.155 294.381 352.778 292.938C346.426 290.23 338.817 290.617 332.308 292.529C332.435 292.737 332.554 292.945 332.673 293.154C338.541 286.214 347.058 279.021 356.847 282.353C360.856 283.73 363.734 287.419 365.988 290.818C368.242 294.217 369.945 297.78 372.05 301.187C372.303 301.588 372.943 301.187 372.69 300.808L372.682 300.837Z" fill="#0F3015"/>
<path d="M361.421 268.519C364.396 274.834 369.782 279.505 373.62 285.262C375.525 288.188 377.201 291.256 378.633 294.44C380.411 298.279 379.845 302.236 379.816 306.342C379.816 306.44 379.855 306.535 379.925 306.605C379.994 306.674 380.089 306.713 380.188 306.713C380.286 306.713 380.381 306.674 380.451 306.605C380.52 306.535 380.559 306.44 380.559 306.342C380.559 302.875 381.177 299.208 380.016 295.883C378.804 292.395 376.766 289.063 374.892 285.887C371.172 279.572 365.222 274.841 362.068 268.147C361.86 267.715 361.22 268.095 361.421 268.526V268.519Z" fill="#0F3015"/>
<path d="M351.201 287.65C356.713 290.573 362.098 293.6 365.914 298.673C367.275 300.458 368.599 302.28 369.975 304.051C370.377 304.571 371.463 306.52 372.348 306.431C372.824 306.379 372.824 305.635 372.348 305.687C371.73 305.747 369.715 302.504 369.417 302.109C368.167 300.458 366.955 298.777 365.698 297.141C362.098 292.529 356.668 289.703 351.566 287.01C351.142 286.787 350.762 287.426 351.186 287.65H351.201Z" fill="#0F3015"/>
<path d="M382.055 267.209C382.114 270.49 383.007 273.636 383.386 276.879C383.742 280.801 383.58 284.752 382.903 288.631C381.854 295.712 382.345 302.905 380.388 309.867L381.132 309.964V309.131C381.132 309.032 381.093 308.938 381.023 308.868C380.954 308.798 380.859 308.759 380.76 308.759C380.662 308.759 380.567 308.798 380.497 308.868C380.428 308.938 380.388 309.032 380.388 309.131V309.964C380.389 310.055 380.422 310.143 380.482 310.212C380.542 310.281 380.625 310.326 380.715 310.339C380.806 310.351 380.898 310.331 380.974 310.281C381.051 310.231 381.107 310.156 381.132 310.068C383.014 303.329 382.858 296.293 383.579 289.383C384.094 285.687 384.323 281.956 384.264 278.225C384.085 274.506 382.888 270.936 382.821 267.202C382.821 267.103 382.782 267.009 382.712 266.939C382.642 266.869 382.547 266.83 382.449 266.83C382.35 266.83 382.256 266.869 382.186 266.939C382.116 267.009 382.077 267.103 382.077 267.202L382.055 267.209Z" fill="#0F3015"/>
<path d="M406.243 271.918C400.553 275.518 396.418 281.744 393.175 287.538C390.051 293.094 387.306 299.938 381.088 302.682C380.649 302.876 381.028 303.515 381.467 303.322C386.993 300.882 389.909 295.14 392.624 290.097C396.075 283.67 400.323 276.567 406.615 272.587C407.017 272.327 406.615 271.687 406.243 271.94V271.918Z" fill="#0F3015"/>
<path d="M251.374 149.739C251.372 151.639 250.615 153.461 249.271 154.804C247.926 156.147 246.104 156.902 244.203 156.902V156.902C242.304 156.902 240.482 156.147 239.138 154.804C237.795 153.46 237.04 151.638 237.04 149.739V144.763C237.04 142.863 237.795 141.041 239.138 139.698C240.482 138.354 242.304 137.6 244.203 137.6C246.104 137.6 247.926 138.354 249.271 139.697C250.615 141.04 251.372 142.862 251.374 144.763V149.739Z" fill="#0F3015"/>
<path d="M324.424 227.981C322.445 218.311 313.891 192.226 293.057 182.794C272.223 173.363 252.683 181.039 245.453 185.42C238.223 189.801 229.877 206.924 226.151 222.938C222.424 238.952 209.698 238.729 199.827 242.24L204.387 258.916L306.178 259.571L306.401 256.938C332.94 255.405 326.365 237.636 324.424 227.981ZM220.29 253.538C224.351 253.538 242.448 239.942 246.182 240.373C248.041 250.355 248.265 255.621 248.48 256.283C248.696 256.945 221.39 261.765 220.29 253.538Z" fill="#0F3015"/>
<path d="M256.454 190.031C255.137 196.316 249.722 234.786 258.938 260.084C266.101 260.671 276.79 260.084 276.79 260.084C274.744 246.777 270.646 209.921 279.125 188.863C270.639 188.997 256.454 190.031 256.454 190.031Z" fill="#5F8D4E"/>
<path d="M261.133 178.621C253.895 179.06 252.207 186.885 255.502 191.712C258.797 196.539 265.008 192.59 266.101 190.172C273.934 197.558 284.094 190.916 286.288 179.937C286.288 179.06 273.844 176.65 261.133 178.621Z" fill="#5F8D4E"/>
<path d="M281.751 138.969C281.424 131.672 273.934 117.74 256.164 118.528C243.519 119.503 241.972 131.486 241.972 131.486C241.533 132.832 239.272 135.673 239.272 135.673C238.61 130.058 242.158 115.181 258.135 114.787C276.12 114.333 284.711 128.414 285.046 138.522C283.618 140.88 281.751 138.969 281.751 138.969Z" fill="#0F3015"/>
<path d="M246.464 125.155C240.388 129.321 236.75 136.246 239.83 143.134C242.909 150.021 243.779 153.063 240.797 158.456C236.594 166.036 234.846 173.117 237.985 179.551C257.042 176.918 265.424 174.775 265.424 174.775C265.424 174.775 258.053 124.352 246.464 125.155Z" fill="#31241C"/>
<path d="M274.752 159.854C274.752 159.854 279.46 174.054 279.906 180.057C280.315 185.553 262.107 189.228 260.82 183.463C259.474 176.598 257.473 164.935 257.473 164.935" fill="#FF9858"/>
<path d="M276.262 165.783L274.774 159.833L257.48 164.935C257.48 164.935 258.098 168.52 258.886 173.013C260.195 173.263 261.527 173.363 262.858 173.31C265.525 173.188 268.126 172.444 270.453 171.137C272.78 169.83 274.77 167.996 276.262 165.783V165.783Z" fill="#AB5D2D"/>
<path d="M244.545 152.952C244.641 155.2 245.179 157.406 246.128 159.445C247.077 161.484 248.42 163.316 250.078 164.836C251.736 166.356 253.677 167.534 255.791 168.303C257.905 169.072 260.15 169.416 262.397 169.316V169.316C264.644 169.221 266.851 168.683 268.89 167.733C270.929 166.784 272.761 165.442 274.281 163.784C275.801 162.126 276.979 160.184 277.748 158.07C278.517 155.956 278.861 153.712 278.761 151.465L277.95 133.353C277.855 131.102 277.316 128.893 276.364 126.851C275.412 124.809 274.067 122.975 272.405 121.455C270.743 119.935 268.797 118.757 266.679 117.991C264.56 117.224 262.312 116.884 260.061 116.989V116.989C257.814 117.084 255.608 117.622 253.569 118.571C251.529 119.521 249.697 120.863 248.177 122.521C246.657 124.179 245.479 126.121 244.711 128.235C243.942 130.348 243.598 132.593 243.698 134.84L244.545 152.952Z" fill="#FF9858"/>
<path d="M267.15 134.208C264.985 133.048 262.144 132.505 259.883 133.673C259.035 134.111 259.786 135.383 260.627 134.952C262.39 134.037 264.733 134.587 266.399 135.48C267.239 135.934 267.983 134.662 267.143 134.208H267.15Z" fill="#31241C"/>
<path d="M246.494 136.596C247.007 136.128 247.625 135.79 248.295 135.609C248.965 135.428 249.668 135.409 250.347 135.554C251.277 135.748 251.671 134.327 250.741 134.134C249.811 133.925 248.843 133.946 247.922 134.193C247.001 134.441 246.154 134.908 245.453 135.554C244.761 136.209 245.81 137.25 246.494 136.596V136.596Z" fill="#31241C"/>
<path d="M256.737 149.806C256.602 149.803 256.473 149.753 256.372 149.664L253.032 146.689C252.965 146.629 252.913 146.554 252.881 146.47C252.848 146.386 252.837 146.295 252.846 146.206C252.856 146.117 252.887 146.033 252.936 145.959C252.985 145.885 253.051 145.824 253.129 145.782L256.491 143.885C256.62 143.812 256.773 143.793 256.916 143.833C257.059 143.873 257.181 143.968 257.254 144.097C257.327 144.226 257.345 144.379 257.305 144.522C257.266 144.665 257.171 144.786 257.042 144.859L254.356 146.347L257.109 148.764C257.196 148.839 257.258 148.939 257.286 149.05C257.315 149.161 257.308 149.279 257.268 149.386C257.227 149.493 257.154 149.586 257.059 149.65C256.964 149.715 256.851 149.748 256.737 149.746V149.806Z" fill="#31241C"/>
<path d="M257.949 154.536C257.072 154.549 256.21 154.304 255.472 153.83C255.35 153.746 255.266 153.617 255.239 153.471C255.211 153.325 255.243 153.175 255.327 153.052C255.411 152.93 255.54 152.846 255.686 152.819C255.831 152.792 255.982 152.824 256.104 152.907C256.652 153.228 257.272 153.403 257.906 153.416C258.54 153.429 259.167 153.279 259.727 152.982C260.188 152.728 260.563 152.343 260.804 151.875C261.045 151.408 261.141 150.879 261.08 150.356C261.076 150.283 261.087 150.21 261.111 150.14C261.136 150.071 261.174 150.007 261.223 149.953C261.272 149.898 261.331 149.854 261.397 149.822C261.463 149.791 261.535 149.772 261.609 149.769C261.757 149.762 261.902 149.815 262.012 149.916C262.122 150.016 262.188 150.155 262.196 150.304C262.266 151.034 262.121 151.769 261.779 152.418C261.436 153.067 260.912 153.601 260.27 153.956C259.557 154.342 258.759 154.541 257.949 154.536V154.536Z" fill="#31241C"/>
<path d="M260.456 143.625C260.601 144.01 260.858 144.343 261.193 144.583C261.528 144.822 261.927 144.957 262.339 144.97C262.75 144.982 263.156 144.873 263.506 144.655C263.855 144.437 264.132 144.12 264.302 143.745C264.471 143.37 264.526 142.952 264.458 142.546C264.391 142.14 264.204 141.763 263.922 141.462C263.64 141.162 263.276 140.952 262.874 140.859C262.473 140.766 262.053 140.794 261.668 140.939C261.412 141.036 261.178 141.182 260.978 141.369C260.779 141.557 260.618 141.781 260.506 142.031C260.393 142.28 260.331 142.549 260.322 142.823C260.314 143.096 260.359 143.369 260.456 143.625V143.625Z" fill="#1A191F"/>
<path d="M248.004 144.368C248.15 144.753 248.407 145.087 248.742 145.326C249.077 145.566 249.475 145.7 249.887 145.713C250.299 145.726 250.705 145.617 251.054 145.399C251.404 145.181 251.681 144.864 251.85 144.489C252.02 144.113 252.074 143.696 252.007 143.29C251.939 142.883 251.753 142.506 251.471 142.206C251.189 141.906 250.824 141.696 250.423 141.603C250.022 141.51 249.602 141.538 249.217 141.683C248.961 141.78 248.726 141.926 248.527 142.113C248.327 142.3 248.167 142.525 248.054 142.774C247.941 143.024 247.879 143.293 247.871 143.566C247.862 143.84 247.907 144.112 248.004 144.368V144.368Z" fill="#1A191F"/>
<path d="M248.555 143.885C248.465 143.882 248.378 143.857 248.302 143.811L246.271 142.568C246.16 142.5 246.08 142.391 246.049 142.264C246.018 142.137 246.039 142.003 246.107 141.892C246.175 141.78 246.285 141.7 246.412 141.67C246.539 141.639 246.673 141.66 246.784 141.728L248.815 142.978C248.869 143.011 248.917 143.055 248.954 143.107C248.991 143.159 249.018 143.217 249.033 143.28C249.047 143.342 249.049 143.406 249.039 143.469C249.028 143.533 249.005 143.593 248.971 143.647C248.928 143.719 248.867 143.779 248.794 143.82C248.721 143.862 248.639 143.884 248.555 143.885V143.885Z" fill="#1A191F"/>
<path d="M263.297 143.149C263.193 143.147 263.093 143.113 263.01 143.051C262.927 142.988 262.865 142.901 262.835 142.802C262.804 142.703 262.806 142.597 262.84 142.499C262.873 142.401 262.937 142.316 263.022 142.256L265.142 140.768C265.195 140.732 265.255 140.706 265.318 140.692C265.381 140.679 265.447 140.678 265.51 140.69C265.574 140.702 265.634 140.726 265.688 140.761C265.743 140.796 265.789 140.842 265.826 140.895C265.863 140.948 265.888 141.008 265.902 141.071C265.915 141.134 265.916 141.2 265.905 141.263C265.893 141.327 265.869 141.387 265.833 141.441C265.798 141.496 265.753 141.542 265.7 141.579L263.58 143.067C263.496 143.121 263.397 143.15 263.297 143.149Z" fill="#1A191F"/>
<path d="M295.088 153.064C292.239 146.942 295.75 143.134 294.24 137.302C292.908 132.2 286.839 132.356 283.707 125.126C278.902 114.043 254.208 104.061 244.992 126.554C255.234 119.614 265.729 123.222 269.709 128.354C277.742 138.708 269.5 143.089 272.602 149.248C274.834 153.711 276.321 156.753 273.42 163.537C270.519 170.32 274.588 176.776 274.588 176.776C284.146 175.72 294.954 174.776 304.772 173.117C304.772 156.552 297.922 159.185 295.088 153.064Z" fill="#31241C"/>
<path d="M251.627 237.851C243.288 238.595 240.075 241.072 232.615 245.021C225.154 248.971 223.548 249.849 225.303 250.578C220.914 250.868 223.473 253.211 226.545 252.184C224.5 253.062 227.348 254.014 231.447 252.482C232.466 254.089 237.732 253.36 241.116 251.455C244.501 249.551 252.527 247.945 259.838 250.429C260.716 245.899 257.942 238 257.942 238L251.627 237.851Z" fill="#FF9858"/>
<path d="M256.93 237.963C261.393 236.974 274 235.955 281.476 236.393C281.915 242.24 278.701 254.089 278.701 254.089L258.804 249.7C258.804 249.7 259.779 243.445 256.93 237.963Z" fill="#0F3015"/>
<path d="M256.551 238.089C265.432 236.81 274.402 236.832 283.365 236.602C287.679 236.483 291.815 235.977 296.084 235.493C300.146 235.025 304.958 235.91 308.856 237.085C308.905 237.098 308.956 237.102 309.006 237.095C309.056 237.089 309.104 237.072 309.148 237.047C309.192 237.022 309.23 236.988 309.261 236.948C309.292 236.908 309.315 236.862 309.328 236.814C309.341 236.765 309.345 236.714 309.338 236.664C309.332 236.613 309.315 236.565 309.29 236.521C309.265 236.477 309.231 236.439 309.191 236.408C309.151 236.377 309.105 236.354 309.057 236.341C305.301 235.182 301.391 234.601 297.46 234.616C295.583 234.729 293.715 234.963 291.867 235.315C289.288 235.627 286.692 235.791 284.094 235.806C274.834 236.103 265.551 236.036 256.357 237.368C255.881 237.435 256.082 238.149 256.551 238.111V238.089Z" fill="#1F0E03"/>
<path d="M296.159 215.284C297.008 221.446 297.443 227.659 297.46 233.879C297.46 233.978 297.5 234.073 297.569 234.142C297.639 234.212 297.734 234.251 297.832 234.251C297.931 234.251 298.026 234.212 298.095 234.142C298.165 234.073 298.204 233.978 298.204 233.879C298.186 227.592 297.751 221.313 296.903 215.083C296.836 214.615 296.114 214.815 296.159 215.284Z" fill="#1F0E03"/>
<path d="M258.224 250.072C260.909 250.072 263.431 251.233 265.952 251.924C268.987 252.742 271.955 253.776 274.982 254.609C281.133 256.298 287.442 257.34 293.808 257.719C303.894 258.299 316.123 257.808 323.717 250.28C323.787 250.21 323.827 250.115 323.827 250.016C323.827 249.917 323.787 249.822 323.717 249.752C323.647 249.682 323.552 249.643 323.453 249.643C323.354 249.643 323.259 249.682 323.189 249.752C315.215 257.622 302.109 257.629 291.696 256.833C285.418 256.306 279.211 255.129 273.175 253.323C270.475 252.534 267.782 251.709 265.09 250.905C262.821 250.228 260.627 249.299 258.217 249.328C258.118 249.328 258.024 249.368 257.954 249.437C257.884 249.507 257.845 249.602 257.845 249.7C257.845 249.799 257.884 249.893 257.954 249.963C258.024 250.033 258.118 250.072 258.217 250.072H258.224Z" fill="#1F0E03"/>
<path d="M243.348 207.63C242.686 209.623 242.879 211.773 242.909 213.841C242.954 216.697 243.162 219.546 243.311 222.387C243.459 225.229 243.541 228.018 243.764 230.822C243.973 233.418 244.955 235.872 245.088 238.439C245.088 238.915 245.832 238.922 245.832 238.439C245.713 236.096 244.813 233.872 244.575 231.521C244.315 228.955 244.233 226.367 244.121 223.793C244.01 221.219 243.824 218.586 243.72 215.998C243.616 213.409 243.229 210.33 244.062 207.816C244.218 207.362 243.497 207.169 243.318 207.622L243.348 207.63Z" fill="#1F0E03"/>
<path d="M254.632 182.177C253.464 186.298 252.646 191.549 257.257 193.862C258.923 194.703 260.82 194.286 262.427 193.557C263.538 192.98 264.562 192.249 265.469 191.385C266.414 190.574 266.83 191.802 267.663 192.397C274.447 197.246 283.38 190.53 285.626 183.843C285.775 183.382 285.061 183.188 284.883 183.642C282.487 190.783 272.238 197.343 266.347 190.061C266.312 190.026 266.271 189.999 266.226 189.98C266.18 189.961 266.132 189.951 266.083 189.951C266.034 189.951 265.985 189.961 265.94 189.98C265.894 189.999 265.853 190.026 265.819 190.061C263.371 192.255 260.195 194.859 256.856 192.798C253.218 190.567 254.386 185.695 255.323 182.385C255.35 182.286 255.336 182.181 255.285 182.093C255.235 182.004 255.15 181.939 255.052 181.913C254.953 181.886 254.848 181.9 254.759 181.951C254.671 182.002 254.606 182.086 254.58 182.184L254.632 182.177Z" fill="#1F0E03"/>
<path d="M231.105 253.129C233.448 252.713 235.33 251.247 237.301 250.013C240.016 248.309 243.073 247.327 246.018 246.108C246.457 245.929 246.271 245.208 245.825 245.364C243.393 246.368 240.893 247.216 238.543 248.413C235.984 249.708 233.805 251.872 230.904 252.385C230.435 252.467 230.636 253.181 231.105 253.129Z" fill="#1F0E03"/>
<path d="M225.779 253.092C231.73 250.593 237.159 247.075 243.244 244.91C243.69 244.754 243.497 244.032 243.043 244.166C236.899 246.323 231.387 249.864 225.407 252.393C224.968 252.579 225.348 253.219 225.779 253.033V253.092Z" fill="#1F0E03"/>
<path d="M224.462 251.336C226.805 249.916 229.476 249.261 231.901 247.982C234.325 246.702 236.646 245.423 239.116 244.322C239.547 244.121 239.175 243.482 238.736 243.675C236.274 244.776 233.901 246.07 231.529 247.342C229.156 248.614 226.456 249.276 224.091 250.697C223.681 250.942 224.053 251.589 224.462 251.336Z" fill="#1F0E03"/>
<path d="M263.037 196.383C263.29 197.7 265.157 197.655 265.759 196.636C265.825 196.5 265.862 196.352 265.871 196.201C265.879 196.051 265.857 195.9 265.806 195.757C265.756 195.615 265.678 195.484 265.577 195.372C265.475 195.26 265.353 195.169 265.216 195.104C264.893 194.91 264.511 194.838 264.139 194.899C263.768 194.96 263.43 195.152 263.185 195.439C262.918 195.833 263.557 196.183 263.833 195.811C264.108 195.439 265.528 195.811 265.045 196.361C264.681 196.77 263.877 196.8 263.758 196.183C263.669 195.714 262.955 195.915 263.014 196.383H263.037Z" fill="#1F0E03"/>
<path d="M262.055 201.888C261.862 203.204 263.394 203.569 264.286 202.84C264.529 202.661 264.696 202.397 264.754 202.101C264.812 201.805 264.756 201.498 264.599 201.241C264.373 201.027 264.088 200.887 263.781 200.84C263.474 200.792 263.16 200.838 262.881 200.973C262.419 201.114 262.62 201.828 263.074 201.717C263.217 201.655 263.372 201.622 263.528 201.622C263.684 201.622 263.838 201.655 263.981 201.717C264.212 201.851 263.907 202.267 263.781 202.357C263.513 202.557 262.709 202.699 262.784 202.141C262.858 201.583 262.137 201.471 262.04 201.947L262.055 201.888Z" fill="#1F0E03"/>
<path d="M261.601 209.006C261.668 210.493 263.833 209.898 264.086 208.775C264.361 207.399 261.958 206.648 261.728 208.136C261.653 208.604 262.367 208.805 262.471 208.336C262.576 207.868 263.386 208.158 263.394 208.604C263.401 209.05 262.397 209.43 262.375 209.006C262.352 208.582 261.631 208.522 261.631 209.006H261.601Z" fill="#1F0E03"/>
<path d="M247.127 249.7C247.013 250.85 247.166 252.011 247.573 253.092C247.751 253.531 248.473 253.338 248.317 252.891C247.924 251.876 247.779 250.783 247.893 249.7C247.937 249.224 247.193 249.224 247.149 249.7H247.127Z" fill="#1F0E03"/>
<path d="M256.409 238.178C257.8 239.153 257.897 241.087 258.306 242.589C258.819 244.582 259.206 247.052 258.306 249.001C258.105 249.432 258.752 249.812 258.946 249.373C259.942 247.178 259.526 244.664 258.998 242.396C258.589 240.633 258.343 238.639 256.766 237.531C256.372 237.256 256.022 237.903 256.387 238.178H256.409Z" fill="#1F0E03"/>
<path d="M238.468 154.038C237.301 162.711 250.117 162.741 255.651 162.473C256.127 162.473 256.127 161.729 255.651 161.729C250.764 161.96 238.111 162.198 239.19 154.232C239.249 153.763 238.535 153.562 238.446 154.038H238.468Z" fill="#1F0E03"/>
<path d="M259.965 161.989C259.965 163.217 258.737 164.221 257.22 164.221C255.703 164.221 254.483 163.224 254.483 161.989C254.483 160.755 255.71 159.758 257.22 159.758C258.73 159.758 259.965 160.732 259.965 161.989Z" fill="#0F3015"/>
<path d="M258.135 114.787C249.023 115.01 243.958 119.949 241.407 125.2C242.304 125.307 243.178 125.558 243.995 125.944C245.884 122.672 249.47 119.071 256.164 118.558C273.934 117.77 281.454 131.701 281.751 138.998C281.751 138.998 283.618 140.91 285.046 138.552C284.712 128.414 276.12 114.333 258.135 114.787Z" fill="#0F3015"/>
<path d="M290.826 149.739C290.824 151.639 290.067 153.461 288.723 154.804C287.378 156.147 285.556 156.902 283.655 156.902V156.902C281.756 156.902 279.934 156.147 278.59 154.804C277.247 153.46 276.492 151.638 276.492 149.739V144.763C276.492 142.863 277.247 141.041 278.59 139.698C279.934 138.354 281.756 137.6 283.655 137.6C285.556 137.6 287.378 138.354 288.723 139.697C290.067 141.04 290.824 142.862 290.826 144.763V149.739Z" fill="#0F3015"/>
<path d="M289.137 148.972C289.104 149.993 288.718 150.971 288.045 151.739C287.372 152.507 286.453 153.017 285.445 153.183C284.437 153.349 283.403 153.16 282.519 152.649C281.636 152.137 280.956 151.335 280.598 150.378C280.07 149.017 280.375 147.098 280.375 145.67C280.375 140.724 287.181 139.868 288.907 144.272C289.435 145.625 289.137 147.544 289.137 148.972C289.137 149.071 289.176 149.166 289.246 149.235C289.316 149.305 289.41 149.344 289.509 149.344C289.608 149.344 289.702 149.305 289.772 149.235C289.842 149.166 289.881 149.071 289.881 148.972C289.881 145.997 290.171 143.111 287.337 141.252C283.908 139.02 279.825 141.995 279.631 145.67C279.468 148.608 279.445 151.62 282.168 153.398C285.597 155.63 289.68 152.654 289.881 148.972C289.903 148.496 289.159 148.496 289.137 148.972Z" fill="#1F0E03"/>
<path d="M205.265 253.062H262.449C265.082 253.062 265.67 258.328 261.281 258.328H130.095C126.145 250.429 108.45 202.17 106.694 197.633C104.939 193.096 106.545 187.837 113.716 187.837H164.02C169.286 187.837 175.14 188.715 178.792 196.763C182.444 204.811 205.265 253.062 205.265 253.062Z" fill="#5F8D4E"/>
<path d="M262.628 258.12C262.791 258.063 262.95 257.993 263.104 257.912H263.141C265.372 256.655 264.628 253.085 262.449 253.085H205.265L205.22 252.988L205.108 252.757C204.908 252.326 204.513 251.485 203.948 250.303C199.046 239.889 181.916 203.651 178.792 196.748C175.14 188.707 169.286 187.822 164.02 187.822H159.341C164.608 187.822 170.454 188.7 174.114 196.748C177.773 204.796 200.586 253.055 200.586 253.055L202.557 258.18L208.961 258.321H261.281C261.53 258.322 261.779 258.302 262.025 258.262C262.163 258.238 262.3 258.206 262.434 258.165L262.628 258.12Z" fill="#0F3015"/>
<path d="M157.735 223.815C159.178 227.386 157.467 230.279 153.912 230.279C150.356 230.279 146.31 227.386 144.867 223.815C143.424 220.245 145.135 217.352 148.683 217.352C152.231 217.352 156.322 220.238 157.735 223.815Z" stroke="#1F0E03" stroke-miterlimit="10"/>
<path d="M329.541 262.412H123.237V295.14C145.886 299.96 176.412 303.441 206.47 303.82C247.617 304.341 290.283 303.88 329.541 301.968V262.412Z" fill="#0F3015"/>
<path d="M338.103 261.601C338.101 262.539 337.727 263.437 337.063 264.1C336.399 264.762 335.5 265.134 334.562 265.134H118.208C117.271 265.134 116.373 264.762 115.71 264.099C115.048 263.437 114.675 262.538 114.675 261.601V261.601C114.675 260.663 115.047 259.764 115.71 259.1C116.372 258.436 117.271 258.063 118.208 258.061H334.562C335.501 258.061 336.402 258.434 337.066 259.098C337.73 259.762 338.103 260.662 338.103 261.601V261.601Z" fill="#FF9858"/>
<path d="M98.3784 136.313C103.28 140.962 107.304 140.962 107.304 136.313C107.304 131.664 107.304 124.07 107.267 119.421C107.23 114.772 103.243 110.971 98.3412 110.971H80.5194C75.6251 110.971 75.6325 114.772 80.5194 119.421C85.4062 124.07 93.4692 131.672 98.3784 136.313Z" fill="#0F3015"/>
<path d="M186.796 25.1943H81.9846C66.2182 25.1943 53.437 37.9755 53.437 53.742V91.3567C53.437 107.123 66.2182 119.904 81.9846 119.904H186.796C202.562 119.904 215.343 107.123 215.343 91.3567V53.742C215.343 37.9755 202.562 25.1943 186.796 25.1943Z" fill="#0F3015"/>
<path d="M126.264 57V42.4545H129.339V48.456H135.582V42.4545H138.651V57H135.582V50.9915H129.339V57H126.264ZM141.186 57V42.4545H150.987V44.9901H144.261V48.456H150.483V50.9915H144.261V54.4645H151.016V57H141.186ZM153.432 57V42.4545H156.507V54.4645H162.743V57H153.432ZM164.78 57V42.4545H170.518C171.622 42.4545 172.562 42.6652 173.338 43.0866C174.115 43.5033 174.706 44.0833 175.114 44.8267C175.526 45.5653 175.732 46.4176 175.732 47.3835C175.732 48.3494 175.523 49.2017 175.107 49.9403C174.69 50.679 174.086 51.2543 173.295 51.6662C172.509 52.0781 171.558 52.2841 170.44 52.2841H166.783V49.8196H169.943C170.535 49.8196 171.023 49.7178 171.406 49.5142C171.795 49.3059 172.083 49.0194 172.273 48.6548C172.467 48.2855 172.564 47.8617 172.564 47.3835C172.564 46.9006 172.467 46.4792 172.273 46.1193C172.083 45.7547 171.795 45.473 171.406 45.2741C171.018 45.0705 170.526 44.9688 169.929 44.9688H167.855V57H164.78ZM181.287 42.4545L181.01 52.6392H178.411L178.127 42.4545H181.287ZM179.711 57.1847C179.242 57.1847 178.839 57.0189 178.503 56.6875C178.167 56.3513 178.001 55.9489 178.006 55.4801C178.001 55.0161 178.167 54.6184 178.503 54.2869C178.839 53.9555 179.242 53.7898 179.711 53.7898C180.16 53.7898 180.556 53.9555 180.897 54.2869C181.238 54.6184 181.41 55.0161 181.415 55.4801C181.41 55.7926 181.328 56.0791 181.167 56.3395C181.01 56.5952 180.804 56.8011 180.549 56.9574C180.293 57.1089 180.014 57.1847 179.711 57.1847Z" fill="#FFC6A4"/>
<path d="M200.036 74.3628H126.941V79.1158H200.036V74.3628Z" fill="url(#paint1_linear_194_7476)"/>
<path d="M190.061 85.9141H126.941V90.667H190.061V85.9141Z" fill="url(#paint2_linear_194_7476)"/>
<path d="M168.81 97.458H126.941V102.211H168.81V97.458Z" fill="url(#paint3_linear_194_7476)"/>
<path d="M112.436 99.9997C110.265 94.5922 102.722 90.7243 98.8767 90.7764H85.8599C81.5904 91.1781 74.4795 94.5922 72.3002 99.9997C77.6658 105.251 84.8751 108.192 92.3832 108.192C99.8912 108.192 107.101 105.251 112.466 99.9997H112.436Z" fill="#31241C"/>
<path d="M87.0575 79.6567C87.0575 79.6567 85.8079 89.8916 84.9451 95.6711C84.3202 99.8959 99.4867 101.086 99.9478 96.5339C100.349 91.1264 100.811 81.97 100.811 81.97" fill="#FFC6A4"/>
<path d="M86.4401 84.3723L87.0574 79.6714L100.811 81.9847C100.811 81.9847 100.669 84.8037 100.476 88.3294C99.4938 88.6465 98.4776 88.8463 97.4485 88.9244C95.3854 89.0797 93.3147 88.7486 91.4027 87.958C89.4908 87.1674 87.791 85.9393 86.4401 84.3723V84.3723Z" fill="#AB5D2D"/>
<path d="M109.647 71.5863C109.909 75.0965 108.767 78.5673 106.471 81.2355C104.175 83.9038 100.914 85.5512 97.4039 85.8155C93.8925 86.0778 90.4207 84.9345 87.7522 82.637C85.0838 80.3396 83.4372 77.0762 83.1748 73.5648L82.126 59.5737C81.9961 57.8354 82.21 56.0885 82.7555 54.4329C83.3009 52.7774 84.1672 51.2454 85.3049 49.9247C86.4425 48.604 87.8293 47.5204 89.3858 46.7358C90.9424 45.9512 92.6383 45.4809 94.3766 45.3519V45.3519C96.1149 45.221 97.862 45.4339 99.518 45.9784C101.174 46.5229 102.706 47.3884 104.028 48.5254C105.349 49.6624 106.434 51.0486 107.219 52.6048C108.005 54.161 108.476 55.8567 108.606 57.5951L109.647 71.5863Z" fill="#FFC6A4"/>
<path d="M91.6096 61.0613C93.4043 60.7547 95.0068 59.7557 96.0725 58.2795C96.6229 57.5356 95.3287 56.7918 94.7931 57.5356C93.9169 58.6801 92.6272 59.4357 91.2005 59.6406C90.2707 59.834 90.6649 61.2621 91.5947 61.0613H91.6096Z" fill="#31241C"/>
<path d="M106.597 58.1231C106.121 58.06 105.667 57.8795 105.278 57.5977C104.888 57.316 104.575 56.9419 104.366 56.509C103.905 55.6759 102.633 56.4197 103.087 57.2528C103.389 57.8461 103.824 58.3615 104.358 58.7589C104.892 59.1563 105.511 59.4249 106.166 59.5438C107.096 59.7223 107.49 58.3016 106.56 58.1231H106.597Z" fill="#31241C"/>
<path d="M99.9478 70.411C99.8129 70.4115 99.6827 70.361 99.5834 70.2697C99.5286 70.2209 99.484 70.1618 99.4521 70.0957C99.4202 70.0296 99.4017 69.9579 99.3975 69.8847C99.3934 69.8115 99.4037 69.7381 99.4279 69.6689C99.4522 69.5997 99.4898 69.5359 99.5387 69.4812L101.309 67.4952L99.271 66.6547C99.2031 66.6264 99.1414 66.585 99.0895 66.5328C99.0377 66.4807 98.9966 66.4188 98.9686 66.3508C98.9406 66.2828 98.9263 66.2099 98.9265 66.1363C98.9267 66.0628 98.9414 65.99 98.9697 65.9221C98.998 65.8542 99.0395 65.7925 99.0916 65.7407C99.1438 65.6888 99.2056 65.6477 99.2736 65.6197C99.3417 65.5917 99.4146 65.5774 99.4881 65.5776C99.5617 65.5778 99.6345 65.5925 99.7024 65.6208L102.462 66.7663C102.545 66.8001 102.619 66.8536 102.678 66.9223C102.736 66.9909 102.777 67.0727 102.797 67.1605C102.814 67.2471 102.811 67.3366 102.788 67.4219C102.765 67.5072 102.722 67.5858 102.663 67.6514L100.364 70.2251C100.312 70.2836 100.248 70.3305 100.176 70.3625C100.104 70.3946 100.026 70.4111 99.9478 70.411Z" fill="#31241C"/>
<path d="M96.6007 76.0492C96.5111 76.0495 96.4228 76.0288 96.3427 75.9888C96.2626 75.9487 96.193 75.8905 96.1395 75.8187C96.055 75.6969 96.0217 75.5469 96.0467 75.4008C96.0717 75.2547 96.1532 75.1243 96.2734 75.0377C98.5048 73.4831 100.446 72.8583 102.142 73.1856C102.287 73.2127 102.415 73.2959 102.499 73.4172C102.582 73.5384 102.614 73.6878 102.588 73.8327C102.56 73.978 102.475 74.1062 102.352 74.1897C102.23 74.2731 102.08 74.3052 101.934 74.279C100.55 74.0186 98.8619 74.5765 96.9205 75.9526C96.8263 76.0167 96.7147 76.0505 96.6007 76.0492V76.0492Z" fill="#31241C"/>
<path d="M96.5486 65.8738C96.4727 66.1843 96.3063 66.4653 96.0705 66.6811C95.8348 66.8969 95.5402 67.0379 95.2242 67.0861C94.9082 67.1344 94.585 67.0877 94.2956 66.952C94.0062 66.8164 93.7635 66.5978 93.5985 66.3241C93.4334 66.0504 93.3533 65.7338 93.3684 65.4145C93.3834 65.0952 93.493 64.7876 93.6831 64.5306C93.8732 64.2736 94.1353 64.0789 94.4362 63.9711C94.7372 63.8632 95.0633 63.8472 95.3734 63.925C95.5787 63.9755 95.772 64.066 95.9422 64.1913C96.1125 64.3167 96.2563 64.4744 96.3655 64.6554C96.4747 64.8365 96.547 65.0373 96.5785 65.2463C96.6099 65.4554 96.5997 65.6686 96.5486 65.8738V65.8738Z" fill="#1A191F"/>
<path d="M106.196 65.301C106.12 65.6115 105.954 65.8925 105.718 66.1083C105.482 66.3242 105.187 66.4651 104.871 66.5134C104.555 66.5616 104.232 66.5149 103.943 66.3793C103.653 66.2436 103.411 66.0251 103.246 65.7513C103.081 65.4776 103.001 65.161 103.016 64.8417C103.031 64.5224 103.14 64.2148 103.33 63.9578C103.52 63.7008 103.783 63.5061 104.083 63.3983C104.384 63.2905 104.711 63.2744 105.021 63.3522C105.226 63.4027 105.419 63.4932 105.589 63.6186C105.76 63.7439 105.904 63.9016 106.013 64.0827C106.122 64.2637 106.194 64.4645 106.226 64.6736C106.257 64.8827 106.247 65.0959 106.196 65.301V65.301Z" fill="#1A191F"/>
<path d="M85.7186 70.0466C86.019 71.2893 85.8141 72.6005 85.149 73.6924C84.4838 74.7842 83.4127 75.5676 82.1706 75.8707V75.8707C80.9278 76.1711 79.6167 75.9662 78.5248 75.3011C77.433 74.6359 76.6495 73.5648 76.3465 72.3227L75.9895 70.8351C75.8397 70.2197 75.8127 69.5808 75.91 68.955C76.0073 68.3291 76.2269 67.7286 76.5565 67.1877C76.886 66.6468 77.3188 66.1762 77.8303 65.8027C78.3418 65.4292 78.9219 65.1602 79.5375 65.011V65.011C80.7793 64.7107 82.0895 64.9158 83.1801 65.5811C84.2708 66.2464 85.0528 67.3175 85.3541 68.559L85.7186 70.0466Z" fill="#FFC6A4"/>
<path d="M78.4441 65.5241C77.3135 62.296 71.7498 49.1602 80.0061 48.7734C80.5119 43.6188 87.6749 40.8964 96.6304 39.1038C105.586 37.3112 111.157 41.5435 110.48 45.7312C109.803 49.9189 104.299 51.4511 99.9404 50.1941C98.6982 54.7239 92.6882 53.1693 91.3865 52.2916C90.3824 56.6802 85.436 57.7438 85.9641 60.8009C86.4922 63.858 86.7823 66.9746 86.9013 67.5994C87.0203 68.2242 84.4095 69.4366 83.8368 68.1944C83.264 66.9522 81.0326 64.7803 78.4441 65.5241Z" fill="#31241C"/>
<path d="M103.183 137.191C108.613 138.269 105.504 119.845 105.467 117.063L105.095 117.435C116.788 117.539 128.478 117.551 140.166 117.472C148.526 117.398 156.872 117.182 165.232 117.182C170.372 117.182 175.482 116.989 180.615 116.795C186.119 116.58 191.601 116.602 196.978 115.174C207.236 112.451 210.97 101.607 212.033 92.1155C212.085 91.6394 211.342 91.6469 211.289 92.1155C210.501 99.1817 208.359 106.925 202.676 111.626C198.399 115.174 192.084 115.62 186.773 115.88C181.462 116.141 176.174 116.364 170.878 116.438C154.127 116.676 137.362 116.84 120.604 116.803C115.441 116.803 110.277 116.775 105.11 116.721C105.012 116.723 104.918 116.763 104.849 116.832C104.78 116.901 104.74 116.995 104.738 117.093C104.738 119.436 107.193 137.258 103.399 136.506C102.93 136.41 102.73 137.131 103.198 137.25L103.183 137.191Z" fill="#1F0E03"/>
<path d="M211.669 60.2503C211.669 69.4885 212.07 78.7788 211.446 88.0021C211.408 88.4855 212.152 88.4781 212.19 88.0021C212.814 78.7788 212.42 69.4885 212.413 60.2503C212.413 60.1517 212.373 60.0571 212.304 59.9873C212.234 59.9176 212.139 59.8784 212.041 59.8784C211.942 59.8784 211.848 59.9176 211.778 59.9873C211.708 60.0571 211.669 60.1517 211.669 60.2503Z" fill="#1F0E03"/>
<path d="M470.874 112.355H362.21C345.864 112.355 332.613 125.606 332.613 141.951V180.95C332.613 197.295 345.864 210.546 362.21 210.546H470.874C487.219 210.546 500.47 197.295 500.47 180.95V141.951C500.47 125.606 487.219 112.355 470.874 112.355Z" fill="#0F3015"/>
<path d="M366.122 227.565C361.035 232.377 356.884 232.377 356.891 227.565C356.899 222.752 356.891 214.868 356.929 210.055C356.966 205.243 361.101 201.293 366.174 201.293H384.628C389.701 201.293 389.694 205.235 384.628 210.055L366.122 227.565Z" fill="#0F3015"/>
<path d="M348.71 132.99V130.455H360.656V132.99H356.203V145H353.163V132.99H348.71ZM362.624 145V130.455H365.699V136.456H371.942V130.455H375.01V145H371.942V138.991H365.699V145H362.624ZM380.053 145H376.757L381.778 130.455H385.741L390.756 145H387.46L383.817 133.778H383.703L380.053 145ZM379.847 139.283H387.631V141.683H379.847V139.283ZM404.673 130.455V145H402.016L395.688 135.845H395.582V145H392.506V130.455H395.205L401.484 139.602H401.612V130.455H404.673ZM407.213 145V130.455H410.289V136.868H410.48L415.715 130.455H419.401L414.003 136.967L419.465 145H415.786L411.801 139.02L410.289 140.866V145H407.213ZM428.776 134.638C428.719 134.065 428.475 133.62 428.044 133.303C427.614 132.985 427.029 132.827 426.29 132.827C425.788 132.827 425.364 132.898 425.019 133.04C424.673 133.177 424.408 133.369 424.223 133.615C424.043 133.861 423.953 134.141 423.953 134.453C423.944 134.714 423.998 134.941 424.117 135.135C424.24 135.329 424.408 135.497 424.621 135.639C424.834 135.777 425.08 135.897 425.36 136.001C425.639 136.101 425.937 136.186 426.255 136.257L427.561 136.57C428.196 136.712 428.778 136.901 429.309 137.138C429.839 137.375 430.298 137.666 430.686 138.011C431.075 138.357 431.375 138.764 431.588 139.233C431.806 139.702 431.917 140.239 431.922 140.845C431.917 141.735 431.69 142.507 431.24 143.161C430.795 143.809 430.151 144.313 429.309 144.673C428.471 145.028 427.46 145.206 426.276 145.206C425.102 145.206 424.079 145.026 423.208 144.666C422.341 144.306 421.664 143.774 421.176 143.068C420.694 142.358 420.44 141.48 420.417 140.433H423.392C423.426 140.921 423.565 141.328 423.811 141.655C424.062 141.977 424.396 142.221 424.813 142.386C425.234 142.547 425.71 142.628 426.24 142.628C426.761 142.628 427.213 142.552 427.597 142.401C427.985 142.249 428.286 142.038 428.499 141.768C428.712 141.499 428.819 141.188 428.819 140.838C428.819 140.511 428.721 140.237 428.527 140.014C428.338 139.792 428.059 139.602 427.689 139.446C427.325 139.29 426.877 139.148 426.347 139.02L424.763 138.622C423.537 138.324 422.569 137.857 421.858 137.223C421.148 136.589 420.795 135.734 420.8 134.659C420.795 133.778 421.03 133.009 421.503 132.351C421.981 131.693 422.637 131.179 423.471 130.81C424.304 130.44 425.251 130.256 426.311 130.256C427.391 130.256 428.333 130.44 429.138 130.81C429.948 131.179 430.578 131.693 431.027 132.351C431.477 133.009 431.709 133.771 431.723 134.638H428.776ZM437.549 130.455L437.272 140.639H434.673L434.388 130.455H437.549ZM435.972 145.185C435.504 145.185 435.101 145.019 434.765 144.688C434.429 144.351 434.263 143.949 434.268 143.48C434.263 143.016 434.429 142.618 434.765 142.287C435.101 141.955 435.504 141.79 435.972 141.79C436.422 141.79 436.817 141.955 437.158 142.287C437.499 142.618 437.672 143.016 437.677 143.48C437.672 143.793 437.589 144.079 437.428 144.339C437.272 144.595 437.066 144.801 436.81 144.957C436.555 145.109 436.275 145.185 435.972 145.185Z" fill="#FFC6A4"/>
<path d="M428.097 159.96H352.317V164.884H428.097V159.96Z" fill="url(#paint4_linear_194_7476)"/>
<path d="M417.758 171.928H352.317V176.859H417.758V171.928Z" fill="url(#paint5_linear_194_7476)"/>
<path d="M395.726 183.903H352.317V188.835H395.726V183.903Z" fill="url(#paint6_linear_194_7476)"/>
<path d="M445.487 191.743C447.719 186.134 455.559 182.125 459.553 182.177H473.031C477.494 182.594 484.835 186.134 487.096 191.743C481.537 197.181 474.069 200.226 466.292 200.226C458.515 200.226 451.047 197.181 445.487 191.743V191.743Z" fill="#31241C"/>
<path d="M471.796 170.67C471.796 170.67 473.09 181.277 473.983 187.272C474.63 191.653 458.906 192.88 458.43 188.157C458.013 182.556 457.537 173.065 457.537 173.065" fill="#FFC6A4"/>
<path d="M472.443 175.542L471.804 170.67L457.567 173.065C457.567 173.065 457.716 175.981 457.909 179.64C460.466 180.46 463.209 180.509 465.793 179.78C468.378 179.051 470.691 177.577 472.443 175.542V175.542Z" fill="#AB5D2D"/>
<path d="M448.373 162.28C448.238 164.082 448.46 165.893 449.025 167.61C449.59 169.327 450.488 170.915 451.667 172.285C452.846 173.654 454.283 174.778 455.897 175.593C457.51 176.407 459.268 176.895 461.07 177.03V177.03C462.873 177.165 464.684 176.943 466.4 176.378C468.117 175.813 469.705 174.916 471.075 173.736C472.445 172.557 473.569 171.12 474.383 169.507C475.197 167.893 475.685 166.135 475.82 164.333L476.906 149.814C477.041 148.012 476.82 146.201 476.254 144.485C475.689 142.769 474.791 141.181 473.612 139.812C472.433 138.442 470.996 137.319 469.382 136.506C467.769 135.692 466.011 135.205 464.209 135.071V135.071C462.407 134.935 460.595 135.156 458.878 135.721C457.161 136.285 455.572 137.183 454.202 138.362C452.832 139.541 451.708 140.979 450.895 142.593C450.081 144.207 449.593 145.966 449.459 147.768L448.373 162.28Z" fill="#FFC6A4"/>
<path d="M467.237 149.992C466.857 149.263 466.27 148.662 465.55 148.265C464.831 147.868 464.009 147.693 463.19 147.761C462.26 147.872 462.246 149.345 463.19 149.249C463.749 149.185 464.314 149.294 464.81 149.559C465.305 149.825 465.708 150.236 465.965 150.736C466.403 151.577 467.675 150.833 467.237 149.992Z" fill="#31241C"/>
<path d="M452.264 149.575C452.616 149.214 453.049 148.942 453.528 148.783C454.007 148.624 454.517 148.582 455.016 148.661C455.945 148.884 456.332 147.456 455.41 147.232C454.659 147.088 453.883 147.131 453.153 147.358C452.422 147.586 451.759 147.989 451.222 148.534C450.568 149.218 451.609 150.267 452.264 149.575V149.575Z" fill="#31241C"/>
<path d="M458.422 161.045C458.344 161.044 458.267 161.027 458.195 160.995C458.123 160.963 458.059 160.917 458.006 160.859L455.626 158.189C455.568 158.123 455.526 158.044 455.504 157.959C455.482 157.873 455.48 157.784 455.499 157.698C455.518 157.611 455.557 157.529 455.614 157.461C455.671 157.392 455.744 157.338 455.826 157.304L458.69 156.114C458.759 156.085 458.833 156.069 458.908 156.069C458.982 156.068 459.056 156.083 459.126 156.111C459.195 156.139 459.258 156.181 459.311 156.234C459.363 156.287 459.405 156.35 459.434 156.419C459.464 156.487 459.481 156.561 459.482 156.635C459.484 156.71 459.47 156.784 459.443 156.854C459.415 156.923 459.373 156.986 459.321 157.039C459.268 157.092 459.205 157.134 459.136 157.163L456.994 158.048L458.854 160.13C458.903 160.185 458.94 160.249 458.964 160.318C458.989 160.387 458.999 160.461 458.995 160.534C458.991 160.607 458.972 160.679 458.94 160.745C458.908 160.811 458.864 160.87 458.809 160.919C458.7 161.006 458.562 161.051 458.422 161.045V161.045Z" fill="#31241C"/>
<path d="M458.207 168.684C456.682 168.684 455.648 167.063 455.045 163.731C455.03 163.644 455.036 163.555 455.062 163.471C455.088 163.387 455.133 163.31 455.194 163.247C455.257 163.185 455.333 163.138 455.417 163.109C455.501 163.081 455.59 163.072 455.678 163.083C456.955 163.275 458.246 163.37 459.538 163.366C460.423 163.366 461.39 163.329 462.513 163.255C462.615 163.244 462.717 163.262 462.808 163.309C462.9 163.355 462.975 163.426 463.027 163.515C463.08 163.602 463.108 163.703 463.108 163.805C463.108 163.907 463.08 164.008 463.027 164.095C461.182 167.182 459.612 168.684 458.207 168.684ZM456.295 164.288C456.764 166.386 457.448 167.569 458.207 167.569C458.697 167.569 459.746 167.137 461.487 164.43C459.755 164.537 458.018 164.489 456.295 164.288Z" fill="#31241C"/>
<path d="M461.948 156.366C462.028 156.687 462.201 156.977 462.446 157.2C462.69 157.422 462.995 157.567 463.322 157.617C463.649 157.666 463.983 157.617 464.283 157.477C464.582 157.336 464.833 157.11 465.004 156.827C465.175 156.544 465.259 156.217 465.244 155.887C465.229 155.556 465.117 155.238 464.921 154.971C464.725 154.705 464.455 154.502 464.144 154.389C463.834 154.276 463.497 154.257 463.175 154.336C462.744 154.443 462.372 154.717 462.142 155.098C461.912 155.478 461.842 155.934 461.948 156.366V156.366Z" fill="#1A191F"/>
<path d="M451.951 155.771C452.031 156.092 452.205 156.382 452.45 156.605C452.695 156.827 453.001 156.972 453.328 157.02C453.655 157.069 453.99 157.02 454.289 156.878C454.588 156.737 454.839 156.51 455.009 156.227C455.18 155.943 455.262 155.615 455.246 155.285C455.23 154.954 455.117 154.636 454.92 154.37C454.724 154.104 454.452 153.902 454.141 153.79C453.83 153.678 453.492 153.661 453.171 153.741C452.957 153.793 452.755 153.887 452.578 154.018C452.401 154.148 452.251 154.313 452.137 154.502C452.024 154.69 451.949 154.9 451.917 155.118C451.885 155.336 451.897 155.558 451.951 155.771Z" fill="#1A191F"/>
<path d="M473.187 160.688C473.032 161.326 473.004 161.987 473.104 162.635C473.205 163.284 473.432 163.906 473.774 164.466C474.115 165.026 474.563 165.514 475.093 165.901C475.623 166.287 476.224 166.566 476.861 166.72C477.499 166.876 478.161 166.904 478.809 166.803C479.457 166.703 480.079 166.475 480.639 166.134C481.2 165.793 481.687 165.344 482.074 164.814C482.461 164.285 482.739 163.684 482.894 163.046L483.266 161.514C483.421 160.876 483.449 160.214 483.349 159.565C483.248 158.916 483.021 158.294 482.68 157.733C482.338 157.172 481.89 156.684 481.36 156.296C480.83 155.909 480.229 155.629 479.591 155.474V155.474C478.953 155.319 478.291 155.291 477.643 155.392C476.994 155.493 476.372 155.721 475.811 156.063C475.251 156.405 474.763 156.855 474.377 157.385C473.991 157.916 473.713 158.518 473.559 159.156L473.187 160.688Z" fill="#FFC6A4"/>
<path d="M480.722 155.98C481.897 152.633 487.624 139.021 479.108 138.604C478.58 133.264 471.149 130.422 461.874 128.622C452.598 126.822 446.811 131.151 447.51 135.495C448.21 139.839 453.915 141.446 458.437 140.137C459.724 144.83 465.95 143.246 467.303 142.309C468.345 146.861 473.514 147.962 472.927 151.13C472.339 154.299 472.071 157.535 471.96 158.182C471.848 158.829 474.541 160.086 475.128 158.792C475.716 157.497 478.037 155.184 480.722 155.98Z" fill="#31241C"/>
<path d="M470.517 208.337C481.443 207.898 493.151 200.951 495.479 189.66C495.576 189.191 494.862 188.99 494.735 189.459C492.504 200.423 481.101 207.169 470.487 207.593C470.011 207.593 470.011 208.337 470.487 208.337H470.517Z" fill="#1F0E03"/>
<path d="M461.479 208.411C463.473 208.478 465.466 208.523 467.43 208.56C467.529 208.56 467.623 208.521 467.693 208.451C467.763 208.381 467.802 208.287 467.802 208.188C467.802 208.09 467.763 207.995 467.693 207.925C467.623 207.855 467.529 207.816 467.43 207.816C465.436 207.779 463.443 207.734 461.479 207.667C461.003 207.667 461.003 208.411 461.479 208.411Z" fill="#1F0E03"/>
<path d="M365.951 224.835C369.67 221.465 373.456 218.14 376.982 214.511C378.611 212.837 380.061 210.658 382.025 209.341C383.237 208.662 384.608 208.32 385.997 208.352C388.675 208.196 391.375 208.27 394.06 208.233C398.924 208.166 403.782 207.906 408.654 207.913C413.86 207.913 419.067 208.158 424.274 208.396C434.419 208.858 444.587 209.341 454.711 208.292C455.187 208.248 455.187 207.504 454.711 207.548C444.357 208.62 433.951 208.091 423.574 207.623C418.115 207.37 412.663 207.162 407.21 207.169C402.339 207.169 397.467 207.452 392.595 207.504C389.27 207.541 384.643 206.805 381.653 208.694C379.801 209.869 378.41 211.93 376.937 213.484C373.307 217.307 369.343 220.788 365.423 224.314C365.066 224.634 365.594 225.155 365.951 224.835Z" fill="#1F0E03"/>
<path d="M279.416 44.9443H423.671C431.952 44.9443 438.665 51.6572 438.665 59.938V74.3606C438.665 82.6414 431.952 89.3543 423.671 89.3543H279.416C271.135 89.3543 264.422 82.6414 264.422 74.3606V59.938C264.422 51.6572 271.135 44.9443 279.416 44.9443Z" fill="#FAFFF2" stroke="black"/>
<path d="M288.468 55.5057L288.468 55.5057L288.47 55.5029C288.706 55.0236 288.932 54.9561 289.011 54.9561C289.089 54.9561 289.315 55.0236 289.552 55.5029L291.285 59.0209L291.291 59.0338L291.298 59.0464C291.669 59.7006 292.175 60.268 292.783 60.7102C293.391 61.1525 294.087 61.4594 294.824 61.6105L294.838 61.6133L294.852 61.6154L298.734 62.1806C298.734 62.1806 298.734 62.1806 298.734 62.1807C299.264 62.2587 299.397 62.4519 299.42 62.5243C299.443 62.5958 299.451 62.8286 299.069 63.2013C299.068 63.2017 299.068 63.202 299.068 63.2023L296.265 65.9081L296.254 65.9188L296.244 65.93C295.735 66.4852 295.352 67.143 295.119 67.8591C294.887 68.5751 294.81 69.3328 294.896 70.0809L294.897 70.0948L294.9 70.1086L295.562 73.969L295.562 73.9692C295.653 74.4981 295.509 74.6843 295.447 74.7292C295.385 74.7744 295.162 74.8525 294.689 74.6026L294.689 74.6026L294.683 74.5997L291.18 72.8071L291.17 72.8021L291.16 72.7975C290.475 72.4845 289.73 72.3226 288.977 72.3226C288.224 72.3226 287.48 72.4845 286.795 72.7975L286.782 72.8032L286.77 72.8097L283.304 74.632L283.303 74.6323C282.829 74.8822 282.607 74.8041 282.545 74.7589C282.483 74.714 282.339 74.5278 282.43 73.9989L282.43 73.9988L283.092 70.1384L283.094 70.1251L283.096 70.1117C283.183 69.3632 283.107 68.6048 282.875 67.8881C282.642 67.1715 282.257 66.5135 281.747 65.959L281.738 65.9491L281.728 65.9398L278.924 63.2026L278.924 63.2023C278.541 62.829 278.548 62.5958 278.572 62.5243C278.595 62.4519 278.728 62.2587 279.257 62.1807C279.257 62.1806 279.258 62.1806 279.258 62.1806L283.14 61.6154L283.154 61.6133L283.168 61.6105C283.905 61.4594 284.6 61.1525 285.209 60.7102C285.817 60.268 286.323 59.7006 286.694 59.0464L286.7 59.0353L286.706 59.0239L288.468 55.5057Z" fill="#0F3015" stroke="black"/>
<path d="M319.464 55.5042L319.465 55.5029C319.701 55.0236 319.927 54.9561 320.006 54.9561C320.084 54.9561 320.31 55.0236 320.546 55.5026C320.546 55.5027 320.546 55.5028 320.546 55.5029L322.272 59.0201L322.278 59.0342L322.286 59.0478C322.659 59.7012 323.167 60.2677 323.776 60.7096C324.385 61.1514 325.081 61.4585 325.818 61.6103L325.832 61.6133L325.847 61.6154L329.722 62.1807C329.722 62.1807 329.722 62.1807 329.722 62.1807C330.256 62.2589 330.387 62.4526 330.41 62.5231C330.433 62.5942 330.439 62.8275 330.056 63.2013C330.056 63.2017 330.055 63.202 330.055 63.2023L327.253 65.9081L327.242 65.9188L327.231 65.93C326.723 66.4852 326.339 67.143 326.106 67.8591C325.874 68.5752 325.798 69.3328 325.883 70.0808L325.885 70.0948L325.887 70.1086L326.549 73.969L326.549 73.9692C326.64 74.5 326.497 74.686 326.437 74.7301C326.377 74.7736 326.158 74.853 325.683 74.6026L325.683 74.6021L322.209 72.7797L322.197 72.7734L322.184 72.7677C321.499 72.4548 320.755 72.2928 320.002 72.2928C319.249 72.2928 318.504 72.4548 317.819 72.7677L317.807 72.7735L317.794 72.78L314.328 74.6023L314.328 74.6026C313.854 74.8525 313.632 74.7744 313.569 74.7292C313.507 74.6843 313.363 74.4981 313.454 73.9692L313.454 73.969L314.116 70.1086L314.119 70.0948L314.12 70.0808C314.206 69.3328 314.13 68.5751 313.897 67.8591C313.665 67.143 313.281 66.4852 312.772 65.93L312.763 65.9198L312.753 65.91L309.949 63.1728L309.949 63.1725C309.566 62.7993 309.573 62.5661 309.596 62.4946C309.62 62.4222 309.753 62.229 310.282 62.1509C310.282 62.1509 310.282 62.1509 310.282 62.1509L314.157 61.5856L314.171 61.5836L314.184 61.5809C314.922 61.431 315.62 61.1245 316.229 60.6822C316.839 60.2399 317.347 59.672 317.718 59.0168L317.725 59.0049L317.731 58.9926L319.464 55.5042Z" fill="#0F3015" stroke="black"/>
<path d="M350.458 55.5049L350.459 55.5029C350.697 55.0219 350.921 54.9561 350.997 54.9561C351.072 54.9561 351.296 55.0219 351.534 55.5029L353.267 59.0209L353.273 59.0342L353.281 59.0472C353.653 59.7015 354.161 60.2687 354.77 60.7108C355.379 61.1528 356.076 61.4596 356.813 61.6105L356.827 61.6133L356.841 61.6154L360.717 62.1807C360.717 62.1807 360.717 62.1807 360.717 62.1807C361.251 62.2589 361.382 62.4526 361.405 62.5231C361.428 62.5942 361.434 62.8276 361.051 63.2015C361.05 63.2018 361.05 63.202 361.05 63.2023L358.247 65.9081L358.236 65.9188L358.226 65.93C357.717 66.4852 357.334 67.143 357.101 67.8591C356.869 68.5751 356.793 69.3328 356.878 70.0808L356.88 70.0948L356.882 70.1086L357.544 73.969L357.544 73.9692C357.635 74.4981 357.491 74.6843 357.429 74.7292C357.367 74.7744 357.145 74.8525 356.671 74.6026L356.67 74.6023L353.204 72.78L353.192 72.7735L353.179 72.7677C352.494 72.4548 351.75 72.2928 350.997 72.2928C350.243 72.2928 349.499 72.4548 348.814 72.7677L348.801 72.7735L348.789 72.78L345.323 74.6023L345.322 74.6026C344.849 74.8525 344.626 74.7744 344.564 74.7292C344.502 74.6843 344.358 74.4981 344.449 73.9692L344.449 73.969L345.111 70.1086L345.114 70.0948L345.115 70.0808C345.201 69.3328 345.124 68.5752 344.892 67.8591C344.659 67.143 344.276 66.4852 343.767 65.93L343.758 65.9198L343.748 65.91L340.944 63.1728L340.943 63.1725C340.559 62.7982 340.565 62.5645 340.588 62.4934C340.611 62.4229 340.742 62.2292 341.276 62.1509C341.277 62.1509 341.277 62.1509 341.277 62.1509L345.152 61.5856L345.166 61.5836L345.18 61.5807C345.917 61.4297 346.612 61.1227 347.22 60.6805C347.829 60.2382 348.335 59.6709 348.706 59.0166L348.712 59.0052L348.718 58.9934L350.458 55.5049Z" fill="#0F3015" stroke="black"/>
<path d="M383.966 73.2225L387.432 75.0449C388.518 75.6176 389.24 75.0969 389.032 73.8845L383.966 73.2225ZM383.966 73.2225C383.346 72.9394 382.673 72.7928 381.991 72.7928C381.31 72.7928 380.636 72.9394 380.017 73.2225M383.966 73.2225H380.017M380.017 73.2225L376.543 75.0449M380.017 73.2225L376.543 75.0449M376.543 75.0449C375.457 75.6176 374.743 75.0969 374.944 73.8845L375.613 70.0241L376.543 75.0449ZM381.446 55.5042L381.447 55.5029C381.683 55.0236 381.909 54.9561 381.988 54.9561C382.066 54.9561 382.292 55.0236 382.529 55.5029L384.262 59.0209L384.268 59.0339L384.275 59.0466C384.647 59.7017 385.154 60.2696 385.764 60.7119C386.373 61.1542 387.071 61.4607 387.809 61.6106L387.823 61.6134L387.836 61.6154L391.711 62.1806C392.24 62.2586 392.374 62.4519 392.397 62.5243C392.42 62.5958 392.428 62.8286 392.046 63.2013C392.045 63.2017 392.045 63.202 392.045 63.2023L389.242 65.9081L389.231 65.9188L389.221 65.93C388.712 66.4852 388.329 67.143 388.096 67.8591C387.864 68.5751 387.787 69.3328 387.873 70.0808L387.874 70.0948L387.877 70.1086L388.539 73.969L388.539 73.9692C388.63 74.4981 388.486 74.6843 388.424 74.7292C388.362 74.7744 388.139 74.8525 387.666 74.6026L387.665 74.6023L384.199 72.78L384.187 72.7735L384.174 72.7677C383.489 72.4548 382.745 72.2928 381.991 72.2928C381.238 72.2928 380.494 72.4548 379.809 72.7677L379.796 72.7734L379.784 72.7797L376.311 74.6021L376.31 74.6026C375.835 74.8527 375.616 74.774 375.555 74.7296C375.492 74.6844 375.349 74.4973 375.437 73.968C375.437 73.9674 375.437 73.9668 375.437 73.9662L376.106 70.1095L376.108 70.0947L376.11 70.0797C376.194 69.3313 376.116 68.5735 375.882 67.8575C375.648 67.1416 375.264 66.4842 374.754 65.9296L374.745 65.9195L374.735 65.91L371.931 63.1728L371.931 63.1725C371.548 62.7993 371.555 62.5661 371.578 62.4945C371.602 62.4222 371.735 62.2289 372.264 62.1509C372.264 62.1509 372.264 62.1509 372.264 62.1509L376.146 61.5857L376.161 61.5836L376.175 61.5807C376.911 61.4297 377.607 61.1227 378.215 60.6805C378.823 60.2382 379.33 59.6709 379.7 59.0166L379.707 59.0048L379.713 58.9926L381.446 55.5042Z" fill="#0F3015" stroke="black"/>
<path d="M412.441 55.5041L412.442 55.5029C412.678 55.0236 412.904 54.9561 412.982 54.9561C413.061 54.9561 413.287 55.0236 413.523 55.5029L415.256 59.0209L415.263 59.0338L415.27 59.0464C415.64 59.7006 416.147 60.268 416.755 60.7102C417.363 61.1525 418.059 61.4594 418.795 61.6105L418.809 61.6133L418.824 61.6154L422.706 62.1806C422.706 62.1806 422.706 62.1806 422.706 62.1806C423.235 62.2586 423.368 62.4519 423.392 62.5243C423.415 62.5958 423.422 62.8288 423.04 63.2016C423.04 63.2018 423.04 63.2021 423.039 63.2023L420.237 65.9081L420.226 65.9185L420.216 65.9296C419.706 66.4842 419.322 67.1416 419.088 67.8575C418.854 68.5735 418.776 69.3313 418.86 70.0797L418.862 70.0947L418.864 70.1095L419.533 73.9662C419.533 73.9668 419.533 73.9674 419.533 73.968C419.621 74.4973 419.478 74.6844 419.415 74.7296C419.354 74.774 419.135 74.8527 418.66 74.6026L418.659 74.6021L415.186 72.7797L415.174 72.7734L415.161 72.7677C414.476 72.4548 413.732 72.2928 412.979 72.2928C412.226 72.2928 411.481 72.4548 410.796 72.7677L410.784 72.7735L410.771 72.78L407.305 74.6023L407.304 74.6026C406.831 74.8525 406.608 74.7744 406.546 74.7292C406.484 74.6843 406.34 74.4981 406.431 73.9692L406.431 73.969L407.093 70.1086L407.096 70.0948L407.097 70.0808C407.183 69.3328 407.107 68.5752 406.874 67.8591C406.642 67.143 406.258 66.4852 405.749 65.93L405.74 65.9198L405.73 65.91L402.926 63.1728L402.925 63.1725C402.542 62.7993 402.55 62.5661 402.573 62.4946C402.597 62.4222 402.73 62.2289 403.259 62.1509C403.259 62.1509 403.259 62.1509 403.259 62.1509L407.134 61.5856L407.148 61.5836L407.161 61.5809C407.899 61.431 408.597 61.1245 409.206 60.6822C409.816 60.2399 410.324 59.672 410.695 59.0168L410.702 59.0049L410.708 58.9926L412.441 55.5041Z" fill="#0F3015" stroke="black"/>
<mask id="path-111-inside-1_194_7476" fill="white">
<path d="M341.45 87.5707C343.897 87.5707 346.337 87.3326 348.784 87.3029C348.882 87.3029 348.977 87.2637 349.047 87.194C349.117 87.1242 349.156 87.0296 349.156 86.931C349.156 86.8324 349.117 86.7378 349.047 86.668C348.977 86.5983 348.882 86.5591 348.784 86.5591C346.337 86.5591 343.897 86.7971 341.45 86.8269C341.351 86.8269 341.257 86.866 341.187 86.9358C341.117 87.0055 341.078 87.1001 341.078 87.1988C341.078 87.2974 341.117 87.392 341.187 87.4617C341.257 87.5315 341.351 87.5707 341.45 87.5707Z"/>
</mask>
<path d="M341.45 87.5707C343.897 87.5707 346.337 87.3326 348.784 87.3029C348.882 87.3029 348.977 87.2637 349.047 87.194C349.117 87.1242 349.156 87.0296 349.156 86.931C349.156 86.8324 349.117 86.7378 349.047 86.668C348.977 86.5983 348.882 86.5591 348.784 86.5591C346.337 86.5591 343.897 86.7971 341.45 86.8269C341.351 86.8269 341.257 86.866 341.187 86.9358C341.117 87.0055 341.078 87.1001 341.078 87.1988C341.078 87.2974 341.117 87.392 341.187 87.4617C341.257 87.5315 341.351 87.5707 341.45 87.5707Z" fill="#1F0E03"/>
<path d="M348.784 87.3029V86.3028L348.772 86.303L348.784 87.3029ZM341.45 86.8269V87.8269L341.462 87.8268L341.45 86.8269ZM341.45 88.5707C342.702 88.5707 343.948 88.5098 345.168 88.4466C346.397 88.383 347.596 88.3174 348.796 88.3028L348.772 86.303C347.524 86.3181 346.28 86.3864 345.065 86.4493C343.842 86.5126 342.644 86.5707 341.45 86.5707V88.5707ZM348.784 88.3029C349.148 88.3029 349.497 88.1584 349.754 87.9011L348.34 86.4869C348.458 86.369 348.617 86.3029 348.784 86.3029V88.3029ZM349.754 87.9011C350.011 87.6437 350.156 87.2947 350.156 86.931H348.156C348.156 86.7645 348.222 86.6048 348.34 86.4869L349.754 87.9011ZM350.156 86.931C350.156 86.5672 350.011 86.2183 349.754 85.9609L348.34 87.3751C348.222 87.2573 348.156 87.0975 348.156 86.931H350.156ZM349.754 85.9609C349.497 85.7036 349.148 85.5591 348.784 85.5591V87.5591C348.617 87.5591 348.457 87.4929 348.34 87.3751L349.754 85.9609ZM348.784 85.5591C347.531 85.5591 346.285 85.62 345.065 85.6831C343.837 85.7467 342.637 85.8123 341.438 85.8269L341.462 87.8268C342.71 87.8116 343.953 87.7434 345.168 87.6805C346.392 87.6172 347.589 87.5591 348.784 87.5591V85.5591ZM341.45 85.8269C341.086 85.8269 340.737 85.9714 340.48 86.2287L341.894 87.6429C341.776 87.7607 341.616 87.8269 341.45 87.8269V85.8269ZM340.48 86.2287C340.222 86.486 340.078 86.835 340.078 87.1988H342.078C342.078 87.3652 342.012 87.525 341.894 87.6429L340.48 86.2287ZM340.078 87.1988C340.078 87.5625 340.222 87.9115 340.48 88.1689L341.894 86.7546C342.012 86.8725 342.078 87.0323 342.078 87.1988H340.078ZM340.48 88.1689C340.737 88.4262 341.086 88.5707 341.45 88.5707V86.5707C341.616 86.5707 341.776 86.6368 341.894 86.7546L340.48 88.1689Z" fill="black" mask="url(#path-111-inside-1_194_7476)"/>
<mask id="path-113-inside-2_194_7476" fill="white">
<path d="M352.19 87.3028C360.938 87.102 369.685 87.4962 378.432 87.3549C382.791 87.2805 387.12 86.8714 391.471 86.6557C396.053 86.4325 400.635 86.5143 405.217 86.6557C409.591 86.7672 413.957 86.9383 418.33 86.9978C421.35 87.0424 424.415 87.1912 427.383 86.5515C432.247 85.4953 434.308 81.568 434.635 76.8819C434.635 76.4059 433.891 76.4059 433.891 76.8819C433.713 79.4778 433.147 82.0291 431.176 83.8812C429.421 85.5771 426.773 86.0309 424.482 86.2094C420.987 86.3743 417.487 86.3569 413.994 86.1573C409.866 86.0532 405.745 85.897 401.624 85.8226C393.39 85.6813 385.26 86.5664 377.012 86.6482C368.763 86.73 360.491 86.3879 352.228 86.5738C352.129 86.5738 352.034 86.613 351.965 86.6828C351.895 86.7525 351.856 86.8471 351.856 86.9458C351.856 87.0444 351.895 87.139 351.965 87.2087C352.034 87.2785 352.129 87.3177 352.228 87.3177L352.19 87.3028Z"/>
</mask>
<path d="M352.19 87.3028C360.938 87.102 369.685 87.4962 378.432 87.3549C382.791 87.2805 387.12 86.8714 391.471 86.6557C396.053 86.4325 400.635 86.5143 405.217 86.6557C409.591 86.7672 413.957 86.9383 418.33 86.9978C421.35 87.0424 424.415 87.1912 427.383 86.5515C432.247 85.4953 434.308 81.568 434.635 76.8819C434.635 76.4059 433.891 76.4059 433.891 76.8819C433.713 79.4778 433.147 82.0291 431.176 83.8812C429.421 85.5771 426.773 86.0309 424.482 86.2094C420.987 86.3743 417.487 86.3569 413.994 86.1573C409.866 86.0532 405.745 85.897 401.624 85.8226C393.39 85.6813 385.26 86.5664 377.012 86.6482C368.763 86.73 360.491 86.3879 352.228 86.5738C352.129 86.5738 352.034 86.613 351.965 86.6828C351.895 86.7525 351.856 86.8471 351.856 86.9458C351.856 87.0444 351.895 87.139 351.965 87.2087C352.034 87.2785 352.129 87.3177 352.228 87.3177L352.19 87.3028Z" fill="#1F0E03"/>
<path d="M352.19 87.3028L352.167 86.303L351.819 88.2312L352.19 87.3028ZM378.432 87.3549L378.448 88.3547L378.449 88.3547L378.432 87.3549ZM391.471 86.6557L391.423 85.6568L391.422 85.6569L391.471 86.6557ZM405.217 86.6557L405.186 87.6552L405.192 87.6553L405.217 86.6557ZM418.33 86.9978L418.345 85.9979L418.344 85.9979L418.33 86.9978ZM427.383 86.5515L427.593 87.5291L427.595 87.5288L427.383 86.5515ZM434.635 76.8819L435.632 76.9516L435.635 76.9168V76.8819H434.635ZM433.891 76.8819L434.889 76.9505L434.891 76.9163V76.8819H433.891ZM431.176 83.8812L430.491 83.1524L430.481 83.162L431.176 83.8812ZM424.482 86.2094L424.529 87.2083L424.544 87.2075L424.56 87.2063L424.482 86.2094ZM413.994 86.1573L414.051 85.1589L414.035 85.158L414.019 85.1576L413.994 86.1573ZM401.624 85.8226L401.642 84.8227L401.642 84.8227L401.624 85.8226ZM352.228 86.5738V87.5738H352.239L352.25 87.5736L352.228 86.5738ZM352.228 87.3177V88.3177L352.599 86.3892L352.228 87.3177ZM352.213 88.3025C356.567 88.2026 360.924 88.2506 365.299 88.3064C369.668 88.3622 374.057 88.4257 378.448 88.3547L378.416 86.355C374.06 86.4254 369.702 86.3624 365.324 86.3066C360.952 86.2508 356.561 86.2022 352.167 86.303L352.213 88.3025ZM378.449 88.3547C382.821 88.2801 387.237 87.8668 391.521 87.6544L391.422 85.6569C387.003 85.876 382.761 86.2808 378.415 86.355L378.449 88.3547ZM391.52 87.6545C396.061 87.4333 400.61 87.514 405.186 87.6552L405.248 85.6561C400.66 85.5146 396.046 85.4317 391.423 85.6568L391.52 87.6545ZM405.192 87.6553C409.545 87.7664 413.937 87.9381 418.317 87.9977L418.344 85.9979C413.977 85.9385 409.636 85.7681 405.243 85.656L405.192 87.6553ZM418.316 87.9977C421.279 88.0415 424.486 88.1989 427.593 87.5291L427.172 85.574C424.344 86.1836 421.421 86.0434 418.345 85.9979L418.316 87.9977ZM427.595 87.5288C430.273 86.9473 432.225 85.5563 433.535 83.643C434.83 81.7525 435.461 79.4101 435.632 76.9516L433.637 76.8123C433.482 79.0398 432.919 81.0041 431.885 82.5128C430.868 83.9987 429.357 85.0995 427.171 85.5743L427.595 87.5288ZM435.635 76.8819C435.635 76.477 435.465 76.1073 435.168 75.8535C434.892 75.6179 434.558 75.5249 434.263 75.5249C433.968 75.5249 433.634 75.6179 433.358 75.8535C433.061 76.1073 432.891 76.477 432.891 76.8819H434.891C434.891 77.0489 434.814 77.24 434.656 77.3748C434.52 77.4915 434.372 77.5249 434.263 77.5249C434.154 77.5249 434.006 77.4915 433.87 77.3748C433.712 77.24 433.635 77.0489 433.635 76.8819H435.635ZM432.893 76.8133C432.72 79.3397 432.179 81.5669 430.491 83.1525L431.861 84.61C434.116 82.4914 434.705 79.616 434.889 76.9505L432.893 76.8133ZM430.481 83.162C429.004 84.5897 426.686 85.0346 424.404 85.2124L424.56 87.2063C426.859 87.0272 429.838 86.5645 431.871 84.6004L430.481 83.162ZM424.435 85.2105C420.975 85.3737 417.509 85.3565 414.051 85.1589L413.937 87.1557C417.464 87.3572 421 87.3748 424.529 87.2083L424.435 85.2105ZM414.019 85.1576C409.912 85.054 405.764 84.8971 401.642 84.8227L401.606 86.8224C405.726 86.8968 409.82 87.0523 413.969 87.157L414.019 85.1576ZM401.642 84.8227C397.487 84.7514 393.365 84.9392 389.271 85.1531C385.168 85.3675 381.1 85.6076 377.002 85.6483L377.021 87.6482C381.172 87.607 385.293 87.3637 389.376 87.1504C393.468 86.9366 397.528 86.7524 401.607 86.8224L401.642 84.8227ZM377.002 85.6483C372.891 85.689 368.775 85.6242 364.638 85.5721C360.506 85.52 356.356 85.4807 352.205 85.5741L352.25 87.5736C356.363 87.481 360.481 87.5198 364.613 87.5719C368.739 87.6239 372.883 87.6892 377.021 87.6482L377.002 85.6483ZM352.228 85.5738C351.864 85.5738 351.515 85.7183 351.258 85.9757L352.672 87.3899C352.554 87.5077 352.394 87.5738 352.228 87.5738V85.5738ZM351.258 85.9757C351 86.233 350.856 86.582 350.856 86.9458H352.856C352.856 87.1122 352.79 87.272 352.672 87.3899L351.258 85.9757ZM350.856 86.9458C350.856 87.3095 351 87.6585 351.258 87.9158L352.672 86.5016C352.79 86.6195 352.856 86.7793 352.856 86.9458H350.856ZM351.258 87.9158C351.515 88.1731 351.864 88.3177 352.228 88.3177V86.3177C352.394 86.3177 352.554 86.3838 352.672 86.5016L351.258 87.9158ZM352.599 86.3892L352.562 86.3744L351.819 88.2312L351.856 88.2461L352.599 86.3892Z" fill="black" mask="url(#path-113-inside-2_194_7476)"/>
<path d="M15.9636 152.686H77.1722C85.453 152.686 92.1659 159.399 92.1659 167.68V185.702C92.1659 193.983 85.453 200.696 77.1722 200.696H15.9636C7.68287 200.696 0.969971 193.983 0.969971 185.702V167.68C0.969971 159.399 7.68287 152.686 15.9636 152.686Z" fill="#FAFFF2" stroke="black"/>
<path d="M9.88636 189V185.455L18.1705 177.784C18.875 177.102 19.4659 176.489 19.9432 175.943C20.428 175.398 20.7955 174.864 21.0455 174.341C21.2955 173.811 21.4205 173.239 21.4205 172.625C21.4205 171.943 21.2652 171.356 20.9545 170.864C20.6439 170.364 20.2197 169.981 19.6818 169.716C19.1439 169.443 18.5341 169.307 17.8523 169.307C17.1402 169.307 16.5189 169.451 15.9886 169.739C15.4583 170.027 15.0492 170.439 14.7614 170.977C14.4735 171.515 14.3295 172.155 14.3295 172.898H9.65909C9.65909 171.375 10.0038 170.053 10.6932 168.932C11.3826 167.811 12.3485 166.943 13.5909 166.33C14.8333 165.716 16.2652 165.409 17.8864 165.409C19.553 165.409 21.0038 165.705 22.2386 166.295C23.4811 166.879 24.447 167.689 25.1364 168.727C25.8258 169.765 26.1705 170.955 26.1705 172.295C26.1705 173.174 25.9962 174.042 25.6477 174.898C25.3068 175.754 24.697 176.705 23.8182 177.75C22.9394 178.788 21.7008 180.034 20.1023 181.489L16.7045 184.818V184.977H26.4773V189H9.88636ZM29.1903 184.909V181.034L38.9062 165.727H42.2472V171.091H40.2699L34.1449 180.784V180.966H47.9517V184.909H29.1903ZM40.3608 189V183.727L40.4517 182.011V165.727H45.0653V189H40.3608ZM61.4119 164.636L53.9119 192.5H49.7415L57.2415 164.636H61.4119ZM64.6193 189L74.267 169.909V169.75H63.0284V165.727H79.358V169.807L69.6989 189H64.6193Z" fill="#0F3015"/>
<path d="M9.88636 189H8.88636V190H9.88636V189ZM9.88636 185.455L9.20696 184.721L8.88636 185.018V185.455H9.88636ZM18.1705 177.784L18.8499 178.518L18.858 178.51L18.8659 178.503L18.1705 177.784ZM19.9432 175.943L19.1958 175.279L19.1906 175.285L19.9432 175.943ZM21.0455 174.341L21.9476 174.772L21.95 174.767L21.0455 174.341ZM20.9545 170.864L20.1051 171.391L20.1087 171.397L20.9545 170.864ZM19.6818 169.716L19.2296 170.608L19.2397 170.613L19.6818 169.716ZM14.7614 170.977L15.643 171.449L15.643 171.449L14.7614 170.977ZM14.3295 172.898V173.898H15.3295V172.898H14.3295ZM9.65909 172.898H8.65909V173.898H9.65909V172.898ZM10.6932 168.932L11.545 169.456L11.545 169.456L10.6932 168.932ZM13.5909 166.33L13.1481 165.433L13.1481 165.433L13.5909 166.33ZM22.2386 166.295L21.807 167.198L21.8136 167.201L22.2386 166.295ZM25.1364 168.727L24.3034 169.281L24.3034 169.281L25.1364 168.727ZM25.6477 174.898L24.7215 174.521L24.7187 174.528L25.6477 174.898ZM23.8182 177.75L24.5814 178.396L24.5837 178.393L23.8182 177.75ZM20.1023 181.489L19.4293 180.749L19.4156 180.761L19.4024 180.774L20.1023 181.489ZM16.7045 184.818L16.0046 184.104L15.7045 184.398V184.818H16.7045ZM16.7045 184.977H15.7045V185.977H16.7045V184.977ZM26.4773 184.977H27.4773V183.977H26.4773V184.977ZM26.4773 189V190H27.4773V189H26.4773ZM10.8864 189V185.455H8.88636V189H10.8864ZM10.5658 186.188L18.8499 178.518L17.491 177.05L9.20696 184.721L10.5658 186.188ZM18.8659 178.503C19.5839 177.808 20.1952 177.174 20.6958 176.602L19.1906 175.285C18.7366 175.804 18.1661 176.397 17.475 177.065L18.8659 178.503ZM20.6906 176.608C21.2223 176.009 21.6483 175.398 21.9476 174.772L20.1433 173.909C19.9426 174.329 19.6337 174.786 19.1958 175.279L20.6906 176.608ZM21.95 174.767C22.2658 174.097 22.4205 173.379 22.4205 172.625H20.4205C20.4205 173.098 20.3251 173.524 20.1409 173.914L21.95 174.767ZM22.4205 172.625C22.4205 171.787 22.2279 171.008 21.8003 170.33L20.1087 171.397C20.3024 171.704 20.4205 172.099 20.4205 172.625H22.4205ZM21.804 170.336C21.3928 169.674 20.8261 169.165 20.124 168.819L19.2397 170.613C19.6133 170.797 19.895 171.053 20.1051 171.391L21.804 170.336ZM20.134 168.824C19.4387 168.471 18.6705 168.307 17.8523 168.307V170.307C18.3976 170.307 18.8492 170.415 19.2296 170.608L20.134 168.824ZM17.8523 168.307C17.0036 168.307 16.2126 168.479 15.5115 168.86L16.4657 170.617C16.8253 170.422 17.2767 170.307 17.8523 170.307V168.307ZM15.5115 168.86C14.8075 169.242 14.2587 169.797 13.8797 170.505L15.643 171.449C15.8398 171.082 16.1092 170.811 16.4657 170.617L15.5115 168.86ZM13.8797 170.505C13.499 171.217 13.3295 172.026 13.3295 172.898H15.3295C15.3295 172.285 15.448 171.814 15.643 171.449L13.8797 170.505ZM14.3295 171.898H9.65909V173.898H14.3295V171.898ZM10.6591 172.898C10.6591 171.53 10.9669 170.396 11.545 169.456L9.84133 168.408C9.04068 169.71 8.65909 171.22 8.65909 172.898H10.6591ZM11.545 169.456C12.1306 168.503 12.9507 167.761 14.0337 167.226L13.1481 165.433C11.7463 166.125 10.6346 167.118 9.84133 168.408L11.545 169.456ZM14.0337 167.226C15.1169 166.691 16.3927 166.409 17.8864 166.409V164.409C16.1376 164.409 14.5498 164.741 13.1481 165.433L14.0337 167.226ZM17.8864 166.409C19.4356 166.409 20.733 166.684 21.807 167.197L22.6703 165.393C21.2746 164.726 19.6705 164.409 17.8864 164.409V166.409ZM21.8136 167.201C22.9078 167.714 23.7253 168.41 24.3034 169.281L25.9693 168.174C25.1686 166.968 24.0543 166.043 22.6636 165.39L21.8136 167.201ZM24.3034 169.281C24.8755 170.142 25.1705 171.136 25.1705 172.295H27.1705C27.1705 170.773 26.776 169.388 25.9693 168.174L24.3034 169.281ZM25.1705 172.295C25.1705 173.038 25.0238 173.778 24.7215 174.521L26.5739 175.275C26.9686 174.305 27.1705 173.31 27.1705 172.295H25.1705ZM24.7187 174.528C24.4315 175.249 23.8926 176.107 23.0527 177.107L24.5837 178.393C25.5014 177.302 26.1822 176.259 26.5768 175.268L24.7187 174.528ZM23.055 177.104C22.2155 178.095 21.012 179.309 19.4293 180.749L20.7753 182.228C22.3895 180.759 23.6632 179.481 24.5814 178.396L23.055 177.104ZM19.4024 180.774L16.0046 184.104L17.4045 185.532L20.8022 182.203L19.4024 180.774ZM15.7045 184.818V184.977H17.7045V184.818H15.7045ZM16.7045 185.977H26.4773V183.977H16.7045V185.977ZM25.4773 184.977V189H27.4773V184.977H25.4773ZM26.4773 188H9.88636V190H26.4773V188ZM29.1903 184.909H28.1903V185.909H29.1903V184.909ZM29.1903 181.034L28.3461 180.498L28.1903 180.744V181.034H29.1903ZM38.9062 165.727V164.727H38.3566L38.062 165.191L38.9062 165.727ZM42.2472 165.727H43.2472V164.727H42.2472V165.727ZM42.2472 171.091V172.091H43.2472V171.091H42.2472ZM40.2699 171.091V170.091H39.7189L39.4245 170.557L40.2699 171.091ZM34.1449 180.784L33.2995 180.25L33.1449 180.495V180.784H34.1449ZM34.1449 180.966H33.1449V181.966H34.1449V180.966ZM47.9517 180.966H48.9517V179.966H47.9517V180.966ZM47.9517 184.909V185.909H48.9517V184.909H47.9517ZM40.3608 189H39.3608V190H40.3608V189ZM40.3608 183.727L39.3622 183.674L39.3608 183.701V183.727H40.3608ZM40.4517 182.011L41.4503 182.064L41.4517 182.038V182.011H40.4517ZM40.4517 165.727V164.727H39.4517V165.727H40.4517ZM45.0653 165.727H46.0653V164.727H45.0653V165.727ZM45.0653 189V190H46.0653V189H45.0653ZM30.1903 184.909V181.034H28.1903V184.909H30.1903ZM30.0346 181.57L39.7505 166.263L38.062 165.191L28.3461 180.498L30.0346 181.57ZM38.9062 166.727H42.2472V164.727H38.9062V166.727ZM41.2472 165.727V171.091H43.2472V165.727H41.2472ZM42.2472 170.091H40.2699V172.091H42.2472V170.091ZM39.4245 170.557L33.2995 180.25L34.9903 181.318L41.1153 171.625L39.4245 170.557ZM33.1449 180.784V180.966H35.1449V180.784H33.1449ZM34.1449 181.966H47.9517V179.966H34.1449V181.966ZM46.9517 180.966V184.909H48.9517V180.966H46.9517ZM47.9517 183.909H29.1903V185.909H47.9517V183.909ZM41.3608 189V183.727H39.3608V189H41.3608ZM41.3594 183.78L41.4503 182.064L39.4531 181.958L39.3622 183.674L41.3594 183.78ZM41.4517 182.011V165.727H39.4517V182.011H41.4517ZM40.4517 166.727H45.0653V164.727H40.4517V166.727ZM44.0653 165.727V189H46.0653V165.727H44.0653ZM45.0653 188H40.3608V190H45.0653V188ZM61.4119 164.636L62.3776 164.896L62.7167 163.636H61.4119V164.636ZM53.9119 192.5V193.5H54.6784L54.8776 192.76L53.9119 192.5ZM49.7415 192.5L48.7758 192.24L48.4367 193.5H49.7415V192.5ZM57.2415 164.636V163.636H56.4751L56.2758 164.376L57.2415 164.636ZM60.4463 164.376L52.9463 192.24L54.8776 192.76L62.3776 164.896L60.4463 164.376ZM53.9119 191.5H49.7415V193.5H53.9119V191.5ZM50.7071 192.76L58.2071 164.896L56.2758 164.376L48.7758 192.24L50.7071 192.76ZM57.2415 165.636H61.4119V163.636H57.2415V165.636ZM64.6193 189L63.7268 188.549L62.9935 190H64.6193V189ZM74.267 169.909L75.1596 170.36L75.267 170.147V169.909H74.267ZM74.267 169.75H75.267V168.75H74.267V169.75ZM63.0284 169.75H62.0284V170.75H63.0284V169.75ZM63.0284 165.727V164.727H62.0284V165.727H63.0284ZM79.358 165.727H80.358V164.727H79.358V165.727ZM79.358 169.807L80.2512 170.256L80.358 170.044V169.807H79.358ZM69.6989 189V190H70.3151L70.5921 189.45L69.6989 189ZM65.5118 189.451L75.1596 170.36L73.3745 169.458L63.7268 188.549L65.5118 189.451ZM75.267 169.909V169.75H73.267V169.909H75.267ZM74.267 168.75H63.0284V170.75H74.267V168.75ZM64.0284 169.75V165.727H62.0284V169.75H64.0284ZM63.0284 166.727H79.358V164.727H63.0284V166.727ZM78.358 165.727V169.807H80.358V165.727H78.358ZM78.4647 169.357L68.8056 188.55L70.5921 189.45L80.2512 170.256L78.4647 169.357ZM69.6989 188H64.6193V190H69.6989V188Z" fill="black"/>
<mask id="path-118-inside-3_194_7476" fill="white">
<path d="M53.6007 198.525C64.2075 195.93 76.0267 201.151 85.6963 194.613C86.0905 194.353 85.6963 193.706 85.317 193.973C75.7738 200.43 63.91 195.238 53.3998 197.811C52.9387 197.923 53.1321 198.637 53.6007 198.555V198.525Z"/>
</mask>
<path d="M53.6007 198.525C64.2075 195.93 76.0267 201.151 85.6963 194.613C86.0905 194.353 85.6963 193.706 85.317 193.973C75.7738 200.43 63.91 195.238 53.3998 197.811C52.9387 197.923 53.1321 198.637 53.6007 198.555V198.525Z" fill="#1F0E03"/>
<path d="M53.6007 198.525L53.363 197.554L52.6007 197.741V198.525H53.6007ZM85.6963 194.613L85.1452 193.778L85.1362 193.785L85.6963 194.613ZM85.317 193.973L85.8773 194.802L85.8855 194.796L85.8936 194.79L85.317 193.973ZM53.3998 197.811L53.635 198.783L53.6377 198.783L53.3998 197.811ZM53.6007 198.555L53.7727 199.54L54.6007 199.396V198.555H53.6007ZM53.8384 199.497C58.9683 198.241 64.3554 198.88 69.9701 199.047C75.4975 199.212 81.1455 198.897 86.2564 195.441L85.1362 193.785C80.5775 196.867 75.4811 197.211 70.0297 197.048C64.6657 196.888 58.8399 196.214 53.363 197.554L53.8384 199.497ZM86.2474 195.447C87.0221 194.936 86.9381 194.053 86.6538 193.58C86.5059 193.334 86.2552 193.087 85.898 192.972C85.5044 192.845 85.083 192.914 84.7403 193.156L85.8936 194.79C85.7406 194.898 85.5107 194.948 85.2854 194.876C85.0965 194.815 84.9908 194.695 84.9397 194.61C84.8871 194.523 84.8439 194.393 84.8657 194.232C84.891 194.044 84.9984 193.876 85.1452 193.779L86.2474 195.447ZM84.7566 193.145C80.263 196.185 75.1897 196.517 69.7519 196.349C64.4043 196.184 58.5913 195.511 53.162 196.84L53.6377 198.783C58.7185 197.539 64.0925 198.175 69.6901 198.348C75.1976 198.518 80.8277 198.218 85.8773 194.802L84.7566 193.145ZM53.1647 196.839C52.7714 196.935 52.446 197.188 52.2708 197.55C52.1089 197.885 52.11 198.235 52.1863 198.517C52.3348 199.066 52.9047 199.692 53.7727 199.54L53.4287 197.57C53.5877 197.542 53.7649 197.584 53.9038 197.687C54.0258 197.778 54.0894 197.893 54.1169 197.995C54.1439 198.095 54.1538 198.251 54.0708 198.422C53.9743 198.621 53.7977 198.744 53.635 198.783L53.1647 196.839ZM54.6007 198.555V198.525H52.6007V198.555H54.6007Z" fill="black" mask="url(#path-118-inside-3_194_7476)"/>
<path d="M88.0427 191.943L88.0428 191.943L88.0427 191.943Z" fill="#1F0E03" stroke="black"/>
<defs>
<linearGradient id="paint0_linear_194_7476" x1="245.618" y1="0.266602" x2="245.618" y2="302.751" gradientUnits="userSpaceOnUse">
<stop stop-color="#FAFFF2"/>
<stop offset="1" stop-color="#E5D9B6"/>
</linearGradient>
<linearGradient id="paint1_linear_194_7476" x1="163.488" y1="74.3628" x2="163.488" y2="79.1158" gradientUnits="userSpaceOnUse">
<stop stop-color="#FAFFF2"/>
<stop offset="1" stop-color="#E5D9B6"/>
</linearGradient>
<linearGradient id="paint2_linear_194_7476" x1="158.501" y1="85.9141" x2="158.501" y2="90.667" gradientUnits="userSpaceOnUse">
<stop stop-color="#FAFFF2"/>
<stop offset="1" stop-color="#E5D9B6"/>
</linearGradient>
<linearGradient id="paint3_linear_194_7476" x1="147.875" y1="97.458" x2="147.875" y2="102.211" gradientUnits="userSpaceOnUse">
<stop stop-color="#FAFFF2"/>
<stop offset="1" stop-color="#E5D9B6"/>
</linearGradient>
<linearGradient id="paint4_linear_194_7476" x1="390.207" y1="159.96" x2="390.207" y2="164.884" gradientUnits="userSpaceOnUse">
<stop stop-color="#FAFFF2"/>
<stop offset="1" stop-color="#E5D9B6"/>
</linearGradient>
<linearGradient id="paint5_linear_194_7476" x1="385.037" y1="171.928" x2="385.037" y2="176.859" gradientUnits="userSpaceOnUse">
<stop stop-color="#FAFFF2"/>
<stop offset="1" stop-color="#E5D9B6"/>
</linearGradient>
<linearGradient id="paint6_linear_194_7476" x1="374.021" y1="183.903" x2="374.021" y2="188.835" gradientUnits="userSpaceOnUse">
<stop stop-color="#FAFFF2"/>
<stop offset="1" stop-color="#E5D9B6"/>
</linearGradient>
</defs>
</svg>
