<svg width="50" height="50" viewBox="0 0 50 50" fill="none" xmlns="http://www.w3.org/2000/svg">
<path d="M25 4.6875C13.7998 4.6875 4.6875 13.7998 4.6875 25C4.6875 36.2002 13.7998 45.3125 25 45.3125C36.2002 45.3125 45.3125 36.2002 45.3125 25C45.3125 13.7998 36.2002 4.6875 25 4.6875ZM25 35.9287C24.6137 35.9287 24.2361 35.8142 23.9149 35.5996C23.5937 35.3849 23.3434 35.0799 23.1955 34.723C23.0477 34.3661 23.009 33.9734 23.0844 33.5945C23.1598 33.2157 23.3458 32.8677 23.6189 32.5945C23.8921 32.3214 24.2401 32.1354 24.619 32.06C24.9978 31.9846 25.3905 32.0233 25.7474 32.1711C26.1043 32.319 26.4094 32.5693 26.624 32.8905C26.8386 33.2117 26.9531 33.5893 26.9531 33.9756C26.9531 34.4936 26.7474 34.9904 26.3811 35.3567C26.0148 35.7229 25.518 35.9287 25 35.9287ZM27.1211 16.2852L26.5605 28.1992C26.5605 28.6136 26.3959 29.011 26.1029 29.3041C25.8099 29.5971 25.4124 29.7617 24.998 29.7617C24.5836 29.7617 24.1862 29.5971 23.8932 29.3041C23.6002 29.011 23.4355 28.6136 23.4355 28.1992L22.875 16.291V16.2861C22.8627 15.9999 22.9085 15.7142 23.0095 15.4461C23.1106 15.1781 23.2648 14.9333 23.463 14.7264C23.6612 14.5195 23.8992 14.3549 24.1627 14.2425C24.4261 14.13 24.7096 14.072 24.9961 14.072C25.2826 14.072 25.5661 14.13 25.8295 14.2425C26.093 14.3549 26.331 14.5195 26.5292 14.7264C26.7273 14.9333 26.8816 15.1781 26.9827 15.4461C27.0837 15.7142 27.1295 15.9999 27.1172 16.2861L27.1211 16.2852Z" fill="#EF4B4B"/>
</svg>
