<svg width="50" height="50" viewBox="0 0 50 50" fill="none" xmlns="http://www.w3.org/2000/svg">
<path d="M42.1875 17.1875H31.25V6.25C31.25 5.0068 30.7561 3.81451 29.8771 2.93544C28.998 2.05636 27.8057 1.5625 26.5625 1.5625H7.8125C6.5693 1.5625 5.37701 2.05636 4.49794 2.93544C3.61886 3.81451 3.125 5.0068 3.125 6.25V46.875C3.125 47.2894 3.28962 47.6868 3.58265 47.9799C3.87567 48.2729 4.2731 48.4375 4.6875 48.4375H14.8438C15.051 48.4375 15.2497 48.3552 15.3962 48.2087C15.5427 48.0622 15.625 47.8634 15.625 47.6562V40.6689C15.625 39.8281 16.2715 39.1064 17.1123 39.0645C17.3236 39.0543 17.5347 39.0871 17.7329 39.1609C17.9311 39.2348 18.1123 39.3481 18.2654 39.494C18.4185 39.6399 18.5404 39.8154 18.6237 40.0098C18.707 40.2042 18.75 40.4135 18.75 40.625V47.6562C18.75 47.8634 18.8323 48.0622 18.9788 48.2087C19.1253 48.3552 19.324 48.4375 19.5312 48.4375H45.3125C45.7269 48.4375 46.1243 48.2729 46.4174 47.9799C46.7104 47.6868 46.875 47.2894 46.875 46.875V21.875C46.875 20.6318 46.3811 19.4395 45.5021 18.5604C44.623 17.6814 43.4307 17.1875 42.1875 17.1875ZM9.57812 42.1748C9.25452 42.2171 8.92579 42.1571 8.63806 42.003C8.35033 41.849 8.11806 41.6087 7.97384 41.316C7.82962 41.0232 7.78069 40.6926 7.83392 40.3706C7.88715 40.0487 8.03987 39.7514 8.27064 39.5206C8.50142 39.2899 8.79866 39.1372 9.12065 39.0839C9.44264 39.0307 9.77321 39.0796 10.066 39.2238C10.3587 39.3681 10.599 39.6003 10.753 39.8881C10.9071 40.1758 10.9671 40.5045 10.9248 40.8281C10.8801 41.1696 10.7239 41.4868 10.4804 41.7304C10.2368 41.9739 9.91963 42.1301 9.57812 42.1748ZM9.57812 34.3623C9.25452 34.4046 8.92579 34.3446 8.63806 34.1905C8.35033 34.0365 8.11806 33.7962 7.97384 33.5035C7.82962 33.2107 7.78069 32.8801 7.83392 32.5581C7.88715 32.2362 8.03987 31.9389 8.27064 31.7081C8.50142 31.4774 8.79866 31.3247 9.12065 31.2714C9.44264 31.2182 9.77321 31.2671 10.066 31.4113C10.3587 31.5556 10.599 31.7878 10.753 32.0756C10.9071 32.3633 10.9671 32.692 10.9248 33.0156C10.8801 33.3571 10.7239 33.6743 10.4804 33.9179C10.2368 34.1614 9.91963 34.3176 9.57812 34.3623ZM9.57812 26.5498C9.25452 26.5921 8.92579 26.5321 8.63806 26.378C8.35033 26.224 8.11806 25.9837 7.97384 25.691C7.82962 25.3982 7.78069 25.0676 7.83392 24.7456C7.88715 24.4237 8.03987 24.1264 8.27064 23.8956C8.50142 23.6649 8.79866 23.5122 9.12065 23.4589C9.44264 23.4057 9.77321 23.4546 10.066 23.5988C10.3587 23.7431 10.599 23.9753 10.753 24.2631C10.9071 24.5508 10.9671 24.8795 10.9248 25.2031C10.8801 25.5446 10.7239 25.8618 10.4804 26.1054C10.2368 26.3489 9.91963 26.5051 9.57812 26.5498ZM9.57812 18.7373C9.25452 18.7796 8.92579 18.7196 8.63806 18.5655C8.35033 18.4115 8.11806 18.1712 7.97384 17.8785C7.82962 17.5857 7.78069 17.2551 7.83392 16.9331C7.88715 16.6112 8.03987 16.3139 8.27064 16.0831C8.50142 15.8524 8.79866 15.6997 9.12065 15.6464C9.44264 15.5932 9.77321 15.6421 10.066 15.7863C10.3587 15.9306 10.599 16.1628 10.753 16.4506C10.9071 16.7383 10.9671 17.067 10.9248 17.3906C10.8801 17.7321 10.7239 18.0493 10.4804 18.2929C10.2368 18.5364 9.91963 18.6926 9.57812 18.7373ZM9.57812 10.9248C9.25452 10.9671 8.92579 10.9071 8.63806 10.753C8.35033 10.599 8.11806 10.3587 7.97384 10.066C7.82962 9.77321 7.78069 9.44264 7.83392 9.12065C7.88715 8.79866 8.03987 8.50142 8.27064 8.27064C8.50142 8.03987 8.79866 7.88715 9.12065 7.83392C9.44264 7.78069 9.77321 7.82962 10.066 7.97384C10.3587 8.11806 10.599 8.35033 10.753 8.63806C10.9071 8.92579 10.9671 9.25452 10.9248 9.57812C10.8801 9.91963 10.7239 10.2368 10.4804 10.4804C10.2368 10.7239 9.91963 10.8801 9.57812 10.9248ZM17.3906 34.3623C17.067 34.4046 16.7383 34.3446 16.4506 34.1905C16.1628 34.0365 15.9306 33.7962 15.7863 33.5035C15.6421 33.2107 15.5932 32.8801 15.6464 32.5581C15.6997 32.2362 15.8524 31.9389 16.0831 31.7081C16.3139 31.4774 16.6112 31.3247 16.9331 31.2714C17.2551 31.2182 17.5857 31.2671 17.8785 31.4113C18.1712 31.5556 18.4115 31.7878 18.5655 32.0756C18.7196 32.3633 18.7796 32.692 18.7373 33.0156C18.6926 33.3571 18.5364 33.6743 18.2929 33.9179C18.0493 34.1614 17.7321 34.3176 17.3906 34.3623ZM17.3906 26.5498C17.067 26.5921 16.7383 26.5321 16.4506 26.378C16.1628 26.224 15.9306 25.9837 15.7863 25.691C15.6421 25.3982 15.5932 25.0676 15.6464 24.7456C15.6997 24.4237 15.8524 24.1264 16.0831 23.8956C16.3139 23.6649 16.6112 23.5122 16.9331 23.4589C17.2551 23.4057 17.5857 23.4546 17.8785 23.5988C18.1712 23.7431 18.4115 23.9753 18.5655 24.2631C18.7196 24.5508 18.7796 24.8795 18.7373 25.2031C18.6926 25.5446 18.5364 25.8618 18.2929 26.1054C18.0493 26.3489 17.7321 26.5051 17.3906 26.5498ZM17.3906 18.7373C17.067 18.7796 16.7383 18.7196 16.4506 18.5655C16.1628 18.4115 15.9306 18.1712 15.7863 17.8785C15.6421 17.5857 15.5932 17.2551 15.6464 16.9331C15.6997 16.6112 15.8524 16.3139 16.0831 16.0831C16.3139 15.8524 16.6112 15.6997 16.9331 15.6464C17.2551 15.5932 17.5857 15.6421 17.8785 15.7863C18.1712 15.9306 18.4115 16.1628 18.5655 16.4506C18.7196 16.7383 18.7796 17.067 18.7373 17.3906C18.6926 17.7321 18.5364 18.0493 18.2929 18.2929C18.0493 18.5364 17.7321 18.6926 17.3906 18.7373ZM17.3906 10.9248C17.067 10.9671 16.7383 10.9071 16.4506 10.753C16.1628 10.599 15.9306 10.3587 15.7863 10.066C15.6421 9.77321 15.5932 9.44264 15.6464 9.12065C15.6997 8.79866 15.8524 8.50142 16.0831 8.27064C16.3139 8.03987 16.6112 7.88715 16.9331 7.83392C17.2551 7.78069 17.5857 7.82962 17.8785 7.97384C18.1712 8.11806 18.4115 8.35033 18.5655 8.63806C18.7196 8.92579 18.7796 9.25452 18.7373 9.57812C18.6926 9.91963 18.5364 10.2368 18.2929 10.4804C18.0493 10.7239 17.7321 10.8801 17.3906 10.9248ZM25.2031 42.1748C24.8795 42.2171 24.5508 42.1571 24.2631 42.003C23.9753 41.849 23.7431 41.6087 23.5988 41.316C23.4546 41.0232 23.4057 40.6926 23.4589 40.3706C23.5122 40.0487 23.6649 39.7514 23.8956 39.5206C24.1264 39.2899 24.4237 39.1372 24.7456 39.0839C25.0676 39.0307 25.3982 39.0796 25.691 39.2238C25.9837 39.3681 26.224 39.6003 26.378 39.8881C26.5321 40.1758 26.5921 40.5045 26.5498 40.8281C26.5051 41.1696 26.3489 41.4868 26.1054 41.7304C25.8618 41.9739 25.5446 42.1301 25.2031 42.1748ZM25.2031 34.3623C24.8795 34.4046 24.5508 34.3446 24.2631 34.1905C23.9753 34.0365 23.7431 33.7962 23.5988 33.5035C23.4546 33.2107 23.4057 32.8801 23.4589 32.5581C23.5122 32.2362 23.6649 31.9389 23.8956 31.7081C24.1264 31.4774 24.4237 31.3247 24.7456 31.2714C25.0676 31.2182 25.3982 31.2671 25.691 31.4113C25.9837 31.5556 26.224 31.7878 26.378 32.0756C26.5321 32.3633 26.5921 32.692 26.5498 33.0156C26.5051 33.3571 26.3489 33.6743 26.1054 33.9179C25.8618 34.1614 25.5446 34.3176 25.2031 34.3623ZM25.2031 26.5498C24.8795 26.5921 24.5508 26.5321 24.2631 26.378C23.9753 26.224 23.7431 25.9837 23.5988 25.691C23.4546 25.3982 23.4057 25.0676 23.4589 24.7456C23.5122 24.4237 23.6649 24.1264 23.8956 23.8956C24.1264 23.6649 24.4237 23.5122 24.7456 23.4589C25.0676 23.4057 25.3982 23.4546 25.691 23.5988C25.9837 23.7431 26.224 23.9753 26.378 24.2631C26.5321 24.5508 26.5921 24.8795 26.5498 25.2031C26.5051 25.5446 26.3489 25.8618 26.1054 26.1054C25.8618 26.3489 25.5446 26.5051 25.2031 26.5498ZM25.2031 18.7373C24.8795 18.7796 24.5508 18.7196 24.2631 18.5655C23.9753 18.4115 23.7431 18.1712 23.5988 17.8785C23.4546 17.5857 23.4057 17.2551 23.4589 16.9331C23.5122 16.6112 23.6649 16.3139 23.8956 16.0831C24.1264 15.8524 24.4237 15.6997 24.7456 15.6464C25.0676 15.5932 25.3982 15.6421 25.691 15.7863C25.9837 15.9306 26.224 16.1628 26.378 16.4506C26.5321 16.7383 26.5921 17.067 26.5498 17.3906C26.5051 17.7321 26.3489 18.0493 26.1054 18.2929C25.8618 18.5364 25.5446 18.6926 25.2031 18.7373ZM25.2031 10.9248C24.8795 10.9671 24.5508 10.9071 24.2631 10.753C23.9753 10.599 23.7431 10.3587 23.5988 10.066C23.4546 9.77321 23.4057 9.44264 23.4589 9.12065C23.5122 8.79866 23.6649 8.50142 23.8956 8.27064C24.1264 8.03987 24.4237 7.88715 24.7456 7.83392C25.0676 7.78069 25.3982 7.82962 25.691 7.97384C25.9837 8.11806 26.224 8.35033 26.378 8.63806C26.5321 8.92579 26.5921 9.25452 26.5498 9.57812C26.5051 9.91963 26.3489 10.2368 26.1054 10.4804C25.8618 10.7239 25.5446 10.8801 25.2031 10.9248ZM43.3594 45.3125H31.25V20.3125H42.1875C42.6019 20.3125 42.9993 20.4771 43.2924 20.7701C43.5854 21.0632 43.75 21.4606 43.75 21.875V44.9219C43.75 45.0255 43.7088 45.1248 43.6356 45.1981C43.5623 45.2713 43.463 45.3125 43.3594 45.3125Z" fill="#E5D9B6"/>
<path d="M39.0625 39.0625C38.7535 39.0625 38.4514 39.1541 38.1944 39.3258C37.9375 39.4975 37.7372 39.7415 37.6189 40.0271C37.5007 40.3126 37.4697 40.6267 37.53 40.9298C37.5903 41.2329 37.7391 41.5113 37.9576 41.7299C38.1762 41.9484 38.4546 42.0972 38.7577 42.1575C39.0608 42.2178 39.3749 42.1868 39.6604 42.0686C39.946 41.9503 40.19 41.75 40.3617 41.4931C40.5334 41.2361 40.625 40.934 40.625 40.625C40.625 40.2106 40.4604 39.8132 40.1674 39.5201C39.8743 39.2271 39.4769 39.0625 39.0625 39.0625ZM39.0625 31.25C38.7535 31.25 38.4514 31.3416 38.1944 31.5133C37.9375 31.685 37.7372 31.929 37.6189 32.2146C37.5007 32.5001 37.4697 32.8142 37.53 33.1173C37.5903 33.4204 37.7391 33.6988 37.9576 33.9174C38.1762 34.1359 38.4546 34.2847 38.7577 34.345C39.0608 34.4053 39.3749 34.3743 39.6604 34.2561C39.946 34.1378 40.19 33.9375 40.3617 33.6806C40.5334 33.4236 40.625 33.1215 40.625 32.8125C40.625 32.3981 40.4604 32.0007 40.1674 31.7076C39.8743 31.4146 39.4769 31.25 39.0625 31.25ZM39.0625 23.4375C38.7535 23.4375 38.4514 23.5291 38.1944 23.7008C37.9375 23.8725 37.7372 24.1165 37.6189 24.4021C37.5007 24.6876 37.4697 25.0017 37.53 25.3048C37.5903 25.6079 37.7391 25.8863 37.9576 26.1049C38.1762 26.3234 38.4546 26.4722 38.7577 26.5325C39.0608 26.5928 39.3749 26.5618 39.6604 26.4436C39.946 26.3253 40.19 26.125 40.3617 25.8681C40.5334 25.6111 40.625 25.309 40.625 25C40.625 24.5856 40.4604 24.1882 40.1674 23.8951C39.8743 23.6021 39.4769 23.4375 39.0625 23.4375ZM32.8125 39.0625C32.5035 39.0625 32.2014 39.1541 31.9444 39.3258C31.6875 39.4975 31.4872 39.7415 31.3689 40.0271C31.2507 40.3126 31.2197 40.6267 31.28 40.9298C31.3403 41.2329 31.4891 41.5113 31.7076 41.7299C31.9262 41.9484 32.2046 42.0972 32.5077 42.1575C32.8108 42.2178 33.1249 42.1868 33.4104 42.0686C33.696 41.9503 33.94 41.75 34.1117 41.4931C34.2834 41.2361 34.375 40.934 34.375 40.625C34.375 40.2106 34.2104 39.8132 33.9174 39.5201C33.6243 39.2271 33.2269 39.0625 32.8125 39.0625ZM32.8125 31.25C32.5035 31.25 32.2014 31.3416 31.9444 31.5133C31.6875 31.685 31.4872 31.929 31.3689 32.2146C31.2507 32.5001 31.2197 32.8142 31.28 33.1173C31.3403 33.4204 31.4891 33.6988 31.7076 33.9174C31.9262 34.1359 32.2046 34.2847 32.5077 34.345C32.8108 34.4053 33.1249 34.3743 33.4104 34.2561C33.696 34.1378 33.94 33.9375 34.1117 33.6806C34.2834 33.4236 34.375 33.1215 34.375 32.8125C34.375 32.3981 34.2104 32.0007 33.9174 31.7076C33.6243 31.4146 33.2269 31.25 32.8125 31.25ZM32.8125 23.4375C32.5035 23.4375 32.2014 23.5291 31.9444 23.7008C31.6875 23.8725 31.4872 24.1165 31.3689 24.4021C31.2507 24.6876 31.2197 25.0017 31.28 25.3048C31.3403 25.6079 31.4891 25.8863 31.7076 26.1049C31.9262 26.3234 32.2046 26.4722 32.5077 26.5325C32.8108 26.5928 33.1249 26.5618 33.4104 26.4436C33.696 26.3253 33.94 26.125 34.1117 25.8681C34.2834 25.6111 34.375 25.309 34.375 25C34.375 24.5856 34.2104 24.1882 33.9174 23.8951C33.6243 23.6021 33.2269 23.4375 32.8125 23.4375Z" fill="#E5D9B6"/>
</svg>
