<svg width="50" height="50" viewBox="0 0 50 50" fill="none" xmlns="http://www.w3.org/2000/svg">
<path d="M41.7969 21.875H28.125C26.8818 21.875 25.6895 21.3811 24.8104 20.5021C23.9314 19.623 23.4375 18.4307 23.4375 17.1875V3.51562C23.4375 3.41202 23.3963 3.31267 23.3231 3.23941C23.2498 3.16616 23.1505 3.125 23.0469 3.125H14.0625C12.4049 3.125 10.8152 3.78348 9.64308 4.95558C8.47098 6.12769 7.8125 7.7174 7.8125 9.375V40.625C7.8125 42.2826 8.47098 43.8723 9.64308 45.0444C10.8152 46.2165 12.4049 46.875 14.0625 46.875H35.9375C37.5951 46.875 39.1848 46.2165 40.3569 45.0444C41.529 43.8723 42.1875 42.2826 42.1875 40.625V22.2656C42.1875 22.162 42.1463 22.0627 42.0731 21.9894C41.9998 21.9162 41.9005 21.875 41.7969 21.875ZM32.8125 37.5H17.1875C16.7731 37.5 16.3757 37.3354 16.0826 37.0424C15.7896 36.7493 15.625 36.3519 15.625 35.9375C15.625 35.5231 15.7896 35.1257 16.0826 34.8326C16.3757 34.5396 16.7731 34.375 17.1875 34.375H32.8125C33.2269 34.375 33.6243 34.5396 33.9174 34.8326C34.2104 35.1257 34.375 35.5231 34.375 35.9375C34.375 36.3519 34.2104 36.7493 33.9174 37.0424C33.6243 37.3354 33.2269 37.5 32.8125 37.5ZM32.8125 29.6875H17.1875C16.7731 29.6875 16.3757 29.5229 16.0826 29.2299C15.7896 28.9368 15.625 28.5394 15.625 28.125C15.625 27.7106 15.7896 27.3132 16.0826 27.0201C16.3757 26.7271 16.7731 26.5625 17.1875 26.5625H32.8125C33.2269 26.5625 33.6243 26.7271 33.9174 27.0201C34.2104 27.3132 34.375 27.7106 34.375 28.125C34.375 28.5394 34.2104 28.9368 33.9174 29.2299C33.6243 29.5229 33.2269 29.6875 32.8125 29.6875Z" fill="#0F3015"/>
<path d="M40.9395 18.4169L26.8955 4.37296C26.8682 4.34581 26.8335 4.32734 26.7957 4.31987C26.7579 4.3124 26.7188 4.31627 26.6832 4.33098C26.6476 4.3457 26.6171 4.37061 26.5957 4.40257C26.5742 4.43454 26.5627 4.47214 26.5625 4.51065V17.1874C26.5625 17.6018 26.7271 17.9992 27.0201 18.2923C27.3132 18.5853 27.7106 18.7499 28.125 18.7499H40.8018C40.8403 18.7498 40.8779 18.7382 40.9098 18.7167C40.9418 18.6953 40.9667 18.6648 40.9814 18.6292C40.9961 18.5936 41 18.5545 40.9925 18.5167C40.9851 18.4789 40.9666 18.4442 40.9395 18.4169V18.4169Z" fill="#0F3015"/>
</svg>
