<svg width="500" height="346" viewBox="0 0 500 346" fill="none" xmlns="http://www.w3.org/2000/svg">
<path d="M73.8192 334.801C55.4655 304.755 36.7391 273.731 31.0692 238.973C25.3994 204.215 35.8873 164.48 65.4875 145.341C88.7192 130.328 118.439 130.627 144.679 121.797C208.271 100.388 244.194 28.6305 307.54 6.49023C356.399 -10.5925 413.59 7.40192 449.512 44.5885C485.434 81.7752 501.419 135.213 499.902 186.833C498.384 238.454 480.696 288.531 456.752 334.315L73.8192 334.801Z" fill="url(#paint0_linear_159_5521)"/>
<path d="M395.416 86.9126H134.377C123.285 86.9126 114.293 95.9045 114.293 106.997V312.894C114.293 323.986 123.285 332.978 134.377 332.978H395.416C406.508 332.978 415.5 323.986 415.5 312.894V106.997C415.5 95.9045 406.508 86.9126 395.416 86.9126Z" fill="#1D686F"/>
<path d="M192.68 70.921C196.293 64.6257 197.105 56.2806 193.019 50.2914C188.081 43.0444 178.006 41.4805 169.282 42.3057C152.465 43.9228 136.926 51.8552 122.579 60.7792C111.046 67.9464 97.9896 78.0815 99.4603 93.3541C100.538 104.501 107.879 108.527 118.326 108.201C141.571 107.436 180.814 91.5507 192.68 70.921Z" fill="#A4BE7B"/>
<path d="M408.845 105.839V131.719H107.639V105.839C107.639 95.3841 117.621 86.9126 129.886 86.9126H386.585C398.877 86.8927 408.845 95.3841 408.845 105.839Z" fill="#5F8D4E"/>
<path d="M408.845 225.73V315.455C408.845 325.131 398.863 332.977 386.585 332.977H129.886C117.608 332.977 107.639 325.131 107.639 315.455V131.379H408.845V225.73Z" fill="#FAFFF2"/>
<path d="M192.726 114.789C196.875 114.789 200.239 111.222 200.239 106.823C200.239 102.424 196.875 98.8574 192.726 98.8574C188.576 98.8574 185.212 102.424 185.212 106.823C185.212 111.222 188.576 114.789 192.726 114.789Z" fill="#D7E4F9"/>
<path d="M192.672 70.6548H192.779C194.046 70.6548 195.261 71.1582 196.158 72.0543C197.054 72.9503 197.557 74.1656 197.557 75.4329V105.526C197.557 106.795 197.053 108.012 196.156 108.909C195.258 109.806 194.041 110.31 192.772 110.31H192.666C191.399 110.31 190.183 109.807 189.287 108.911C188.391 108.015 187.888 106.799 187.888 105.532V75.4329C187.888 74.8049 188.012 74.183 188.252 73.6028C188.493 73.0227 188.845 72.4957 189.29 72.0519C189.734 71.6081 190.261 71.2563 190.842 71.0166C191.422 70.7769 192.044 70.6539 192.672 70.6548Z" fill="#5E3B3B"/>
<path d="M153.743 114.789C157.892 114.789 161.256 111.222 161.256 106.823C161.256 102.424 157.892 98.8574 153.743 98.8574C149.593 98.8574 146.23 102.424 146.23 106.823C146.23 111.222 149.593 114.789 153.743 114.789Z" fill="#D7E4F9"/>
<path d="M153.789 70.6548H153.69C151.047 70.6548 148.905 72.797 148.905 75.4395V105.526C148.905 108.168 151.047 110.31 153.69 110.31H153.789C156.432 110.31 158.574 108.168 158.574 105.526V75.4395C158.574 72.797 156.432 70.6548 153.789 70.6548Z" fill="#5E3B3B"/>
<path d="M235.23 114.789C239.38 114.789 242.744 111.222 242.744 106.823C242.744 102.424 239.38 98.8574 235.23 98.8574C231.081 98.8574 227.717 102.424 227.717 106.823C227.717 111.222 231.081 114.789 235.23 114.789Z" fill="#D7E4F9"/>
<path d="M235.277 70.6548H235.177C232.535 70.6548 230.392 72.797 230.392 75.4395V105.526C230.392 108.168 232.535 110.31 235.177 110.31H235.277C237.919 110.31 240.062 108.168 240.062 105.526V75.4395C240.062 72.797 237.919 70.6548 235.277 70.6548Z" fill="#5E3B3B"/>
<path d="M277.734 114.789C281.883 114.789 285.247 111.222 285.247 106.823C285.247 102.424 281.883 98.8574 277.734 98.8574C273.584 98.8574 270.221 102.424 270.221 106.823C270.221 111.222 273.584 114.789 277.734 114.789Z" fill="#D7E4F9"/>
<path d="M277.681 70.6548H277.787C279.054 70.6548 280.27 71.1582 281.166 72.0543C282.062 72.9503 282.565 74.1656 282.565 75.4329V105.526C282.565 106.795 282.061 108.012 281.164 108.909C280.266 109.806 279.049 110.31 277.78 110.31H277.674C276.407 110.31 275.191 109.807 274.295 108.911C273.399 108.015 272.896 106.799 272.896 105.532V75.4329C272.896 74.8049 273.02 74.183 273.26 73.6028C273.501 73.0227 273.853 72.4957 274.298 72.0519C274.742 71.6081 275.269 71.2563 275.85 71.0166C276.43 70.7769 277.052 70.6539 277.681 70.6548Z" fill="#5E3B3B"/>
<path d="M320.237 114.789C324.386 114.789 327.75 111.222 327.75 106.823C327.75 102.424 324.386 98.8574 320.237 98.8574C316.087 98.8574 312.724 102.424 312.724 106.823C312.724 111.222 316.087 114.789 320.237 114.789Z" fill="#D7E4F9"/>
<path d="M320.183 70.6548H320.29C321.557 70.6548 322.772 71.1582 323.669 72.0543C324.565 72.9503 325.068 74.1656 325.068 75.4329V105.526C325.068 106.154 324.944 106.776 324.704 107.357C324.463 107.937 324.111 108.465 323.667 108.909C323.222 109.353 322.695 109.706 322.114 109.946C321.534 110.187 320.912 110.31 320.283 110.31H320.177C318.91 110.31 317.694 109.807 316.798 108.911C315.902 108.015 315.399 106.799 315.399 105.532V75.4329C315.399 74.8049 315.522 74.183 315.763 73.6028C316.004 73.0227 316.356 72.4957 316.801 72.0519C317.245 71.6081 317.772 71.2563 318.353 71.0166C318.933 70.7769 319.555 70.6539 320.183 70.6548Z" fill="#5E3B3B"/>
<path d="M362.741 114.789C366.891 114.789 370.254 111.222 370.254 106.823C370.254 102.424 366.891 98.8574 362.741 98.8574C358.592 98.8574 355.228 102.424 355.228 106.823C355.228 111.222 358.592 114.789 362.741 114.789Z" fill="#D7E4F9"/>
<path d="M362.795 70.6548H362.695C360.052 70.6548 357.91 72.797 357.91 75.4395V105.526C357.91 108.168 360.052 110.31 362.695 110.31H362.795C365.437 110.31 367.579 108.168 367.579 105.526V75.4395C367.579 72.797 365.437 70.6548 362.795 70.6548Z" fill="#5E3B3B"/>
<path d="M153.743 166.077H125.56V189.116H153.743V166.077Z" fill="#E5D9B6"/>
<path d="M153.743 202.685H125.56V225.723H153.743V202.685Z" fill="#E5D9B6"/>
<path d="M153.743 239.299H125.56V262.338H153.743V239.299Z" fill="#E5D9B6"/>
<path d="M153.743 275.907H125.56V298.945H153.743V275.907Z" fill="#E5D9B6"/>
<path d="M193.272 166.077H165.089V189.116H193.272V166.077Z" fill="#E5D9B6"/>
<path d="M193.272 202.685H165.089V225.723H193.272V202.685Z" fill="#0F3015"/>
<path d="M193.272 239.299H165.089V262.338H193.272V239.299Z" fill="#E5D9B6"/>
<path d="M193.272 275.907H165.089V298.945H193.272V275.907Z" fill="#E5D9B6"/>
<path d="M232.801 166.077H204.618V189.116H232.801V166.077Z" fill="#E5D9B6"/>
<path d="M232.801 202.685H204.618V225.723H232.801V202.685Z" fill="#E5D9B6"/>
<path d="M232.801 239.299H204.618V262.338H232.801V239.299Z" fill="#E5D9B6"/>
<path d="M232.801 275.907H204.618V298.945H232.801V275.907Z" fill="#E5D9B6"/>
<path d="M272.337 166.077H244.154V189.116H272.337V166.077Z" fill="#E5D9B6"/>
<path d="M272.337 202.685H244.154V225.723H272.337V202.685Z" fill="#E5D9B6"/>
<path d="M272.337 239.299H244.154V262.338H272.337V239.299Z" fill="#E5D9B6"/>
<path d="M272.337 275.907H244.154V298.945H272.337V275.907Z" fill="#E5D9B6"/>
<path d="M311.866 166.077H283.683V189.116H311.866V166.077Z" fill="#E5D9B6"/>
<path d="M311.866 202.685H283.683V225.723H311.866V202.685Z" fill="#E5D9B6"/>
<path d="M311.866 239.299H283.683V262.338H311.866V239.299Z" fill="#E5D9B6"/>
<path d="M311.866 275.907H283.683V298.945H311.866V275.907Z" fill="#E5D9B6"/>
<path d="M351.394 239.299H323.212V262.338H351.394V239.299Z" fill="#A4BE7B"/>
<path d="M351.394 166.077H323.212V189.116H351.394V166.077Z" fill="#A4BE7B"/>
<path d="M351.394 202.685H323.212V225.723H351.394V202.685Z" fill="#A4BE7B"/>
<path d="M351.394 275.907H323.212V298.945H351.394V275.907Z" fill="#A4BE7B"/>
<path d="M390.925 275.907H362.742V298.945H390.925V275.907Z" fill="#A4BE7B"/>
<path d="M390.924 166.077H362.742V189.116H390.924V166.077Z" fill="#A4BE7B"/>
<path d="M390.925 202.685H362.742V225.723H390.925V202.685Z" fill="#A4BE7B"/>
<path d="M390.925 239.299H362.742V262.338H390.925V239.299Z" fill="#A4BE7B"/>
<path d="M177.74 222.908L169.508 211.895L172.116 209.712L177.706 217.192L186.224 205.486L188.853 207.642L177.74 222.908Z" fill="#FFFDF9"/>
<path d="M395.589 333.976H129.885C117.068 333.976 106.64 325.671 106.64 315.456V185.216H108.637V315.456C108.637 324.566 118.166 331.98 129.885 331.98H395.589V333.976Z" fill="#5E3B3B"/>
<path d="M409.843 213.938H407.846V257.693H409.843V213.938Z" fill="#5E3B3B"/>
<path d="M409.843 171.96H407.846V105.832C407.846 95.9498 398.31 87.9109 386.585 87.9109H129.885C125.703 87.8848 121.587 88.954 117.947 91.012C112.117 94.3394 108.63 99.9027 108.63 105.832H106.634C106.634 99.1773 110.487 92.9884 116.948 89.2818C120.891 87.0501 125.348 85.8892 129.879 85.9145H386.585C399.408 85.9145 409.843 94.8518 409.843 105.832V171.96Z" fill="#5E3B3B"/>
<path d="M463.98 325.983L465.059 313.359H455.802L456.361 325.983H463.98Z" fill="#FFB486"/>
<path d="M465.045 313.559L464.426 320.666C461.643 320.807 458.852 320.631 456.108 320.141L455.775 312.82L465.045 313.559Z" fill="#FCA377"/>
<path d="M466.423 332.744H442.333C442.27 332.047 442.304 331.343 442.433 330.655L466.084 330.788L466.423 332.744Z" fill="#4A292F"/>
<path d="M466.084 330.788L442.42 330.635C442.646 328.186 445.747 327.035 448.589 326.31L449.154 326.163L450.352 325.897L450.924 325.771C451.705 325.615 452.471 325.392 453.214 325.105C453.64 324.899 454.159 324.606 454.604 324.333C454.764 324.24 454.904 324.154 455.03 324.067L455.762 323.601C457.313 324.107 459.642 325.598 464.76 323.249L464.913 324.134L464.999 324.639L466.084 330.788Z" fill="#4A292F"/>
<path d="M448.295 327.873C448.33 327.341 448.435 326.815 448.608 326.31L448.295 327.873Z" fill="#4A292F"/>
<path d="M450.025 327.567C450.057 326.996 450.173 326.433 450.371 325.897L450.025 327.567Z" fill="#4A292F"/>
<path d="M455.063 324.1C455.962 324.872 459.256 327.068 464.945 324.167L455.063 324.1Z" fill="#4A292F"/>
<path d="M448.475 317.499C457.232 318.87 465.371 319.442 471.553 317.499C471.553 317.499 476.79 258.798 467.507 204.868L448.947 204.954C448.947 204.954 441.806 269.765 448.475 317.499Z" fill="#5E3B3B"/>
<path d="M447.743 151.191C444.209 150.332 442.013 148.795 441.221 146.612C440.063 143.431 442.319 140.21 442.552 139.851L443.251 140.364C443.157 140.49 440.981 143.511 442 146.313C442.665 148.209 444.661 149.567 447.916 150.352L447.743 151.191Z" fill="#5E3B3B"/>
<path d="M409.745 325.984L413.731 313.36H404.467L401.646 325.984H409.745Z" fill="#FFB486"/>
<path d="M413.751 313.247L411.554 320.194C408.727 320.726 405.817 320.631 403.03 319.915L404.607 312.861H407.934L413.751 313.247Z" fill="#FCA377"/>
<path d="M458.723 167.554C458.723 167.554 483.712 172.139 481.462 196.835C480.531 207.11 472.765 214.211 472.765 214.211L469.91 205.526L459.928 208.887L458.723 167.554Z" fill="#0F3015"/>
<path d="M444.848 169.944L446.598 156.501H454.544L456.421 169.944H444.848Z" fill="#FFB587"/>
<path d="M448.907 161.692C453.931 160.281 459.861 153.347 457.645 145.341C455.888 138.986 445.001 140.736 442.133 146.193C437.641 154.651 437.361 164.94 448.907 161.692Z" fill="#FFB587"/>
<path d="M403.07 183.386C402.584 183.04 401 181.982 400.74 181.443C400.481 180.904 399.576 178.116 398.99 178.342C398.405 178.568 399.423 180.438 398.904 180.565C398.578 180.645 396.461 177.084 395.902 177.663C395.53 178.043 397.1 180.019 396.841 180.146C396.581 180.272 395.164 177.417 394.585 177.949C394.006 178.482 396.581 180.898 396.275 181.144C396.129 181.264 393.879 178.103 393.42 178.548C392.808 179.147 395.35 181.343 395.097 181.643C394.971 181.783 394.205 180.851 393.686 180.352C393.394 180.072 393.127 180.259 393.207 180.518C394.092 183.18 398.351 185.682 398.624 186.075C399.037 186.654 399.456 187.213 399.875 187.752L403.07 183.386Z" fill="#FFBA8C"/>
<path d="M397.433 316.933C405.885 318.131 413.791 318.404 420.658 316.933C449.141 264.088 461.053 204.389 461.053 204.389H439.052C410.623 253.367 397.433 316.933 397.433 316.933Z" fill="#5E3B3B"/>
<path d="M415.8 189.036L403.303 182.315L398.751 188.231C398.751 188.231 406.118 207.43 420.559 205.813C432.111 204.522 439.079 182.867 439.079 182.867L415.8 189.036Z" fill="#0F3015"/>
<path d="M473.031 220.473C453.153 229.517 424.272 221.598 424.272 221.598L425.117 218.657L425.25 218.204L432.763 193.182L413.005 192.943C413.005 192.943 426.242 174.369 433.954 169.858C436.388 168.552 439.025 167.67 441.754 167.249L442.473 167.129C447.806 166.287 453.247 166.409 458.537 167.488L459.089 167.608C461.937 168.212 464.675 169.249 467.208 170.683C467.208 170.683 465.791 178.668 467.774 184.085C472.292 196.403 472.971 211.123 473.044 217.399C473.044 217.572 473.044 217.745 473.044 217.905C473.031 219.535 473.031 220.473 473.031 220.473Z" fill="#0F3015"/>
<path d="M455.642 224.579L454.764 224.646C454.551 224.646 454.338 224.679 454.098 224.686C438.639 225.551 424.239 221.598 424.239 221.598L425.117 218.657L425.25 218.204L431.106 198.692C432.091 197.687 437.042 189.622 437.814 186.354C437.814 186.354 438.147 194.706 435.518 201.554C433.861 205.879 431.998 212.301 434.187 216.381C437.095 221.678 455.396 224.506 455.642 224.579Z" fill="#00353A"/>
<path d="M422.256 180.849L414.001 190.991L414.672 191.537L422.927 181.395L422.256 180.849Z" fill="#5E3B3B"/>
<path d="M444.808 162.504C443.386 162.557 441.995 162.083 440.901 161.173L441.507 160.554C441.593 160.634 443.716 162.643 447.762 161.046L448.082 161.845C447.043 162.272 445.931 162.496 444.808 162.504V162.504Z" fill="#5E3B3B"/>
<path d="M456.008 166.916C454.328 167.721 452.481 168.118 450.618 168.074C448.755 168.03 446.928 167.547 445.288 166.663L445.421 165.585L455.795 165.452L456.008 166.916Z" fill="#FFB587"/>
<path d="M449.739 222.516C441.383 222.472 433.07 221.319 425.017 219.089L425.257 218.257C433.232 220.465 441.464 221.606 449.739 221.651C458.391 221.651 466.183 220.253 472.871 217.505L473.197 218.303C466.41 221.098 458.517 222.516 449.739 222.516Z" fill="#5E3B3B"/>
<path d="M473.696 220.473H472.831C472.831 220.26 472.771 198.998 467.594 184.145L468.406 183.858C473.636 198.851 473.696 220.26 473.696 220.473Z" fill="#5E3B3B"/>
<path d="M451.855 170.383C447.709 170.383 443.783 168.387 442.246 167.501L442.678 166.75C444.967 168.08 452.873 172.007 458.23 167.169L458.809 167.834C456.9 169.537 454.413 170.448 451.855 170.383V170.383Z" fill="#5E3B3B"/>
<path d="M412.34 332.744H388.256C388.193 332.047 388.227 331.343 388.356 330.655L412.007 330.788L412.34 332.744Z" fill="#4A292F"/>
<path d="M412.008 330.788L388.363 330.635C388.59 328.186 391.691 327.035 394.526 326.31L395.098 326.163L396.296 325.897L396.868 325.771C397.649 325.615 398.415 325.392 399.157 325.105C399.583 324.899 400.102 324.606 400.548 324.333L400.974 324.067L401.706 323.601C403.25 324.107 405.586 325.598 410.697 323.249L410.856 324.134L410.943 324.639L412.008 330.788Z" fill="#4A292F"/>
<path d="M394.219 327.873C394.254 327.341 394.357 326.816 394.525 326.31L394.219 327.873Z" fill="#4A292F"/>
<path d="M395.949 327.567C395.98 326.996 396.097 326.433 396.295 325.897L395.949 327.567Z" fill="#4A292F"/>
<path d="M400.974 324.1C401.872 324.872 405.166 327.068 410.856 324.167L400.974 324.1Z" fill="#4A292F"/>
<path d="M439.413 186.893L435.048 191.792L435.693 192.367L440.059 187.469L439.413 186.893Z" fill="#5E3B3B"/>
<path d="M471.208 218.656H470.369C470.369 213.759 469.704 206.851 469.704 206.784L470.562 206.705C470.569 206.791 471.208 213.745 471.208 218.656Z" fill="#5E3B3B"/>
<path d="M418.835 206.591C405.206 206.591 398.152 188.657 398.085 188.477L398.891 188.164C398.957 188.344 405.792 205.726 418.855 205.726C419.413 205.728 419.971 205.697 420.525 205.633C431.838 204.369 438.606 183.672 438.892 182.814L439.717 183.08C439.425 183.979 432.47 205.167 420.625 206.491C420.031 206.558 419.433 206.592 418.835 206.591Z" fill="#5E3B3B"/>
<path d="M472.539 181.975C467.321 185.09 454.937 184.338 450.491 173.99C447.217 166.357 448.828 157.719 449.593 155.31L448.262 151.037C446.295 150.104 444.714 148.517 443.786 146.547C442.859 144.578 442.644 142.347 443.178 140.237C443.178 140.237 443.923 140.829 446.226 140.643C447.503 140.53 450.884 139.272 454.211 139.977C457.226 140.363 463.528 142.453 464.154 152.422C464.686 160.647 471.534 161.532 474.801 164.833C481.283 171.454 478.435 178.455 472.539 181.975Z" fill="#5E3B3B"/>
<path d="M451.296 153.094C451.298 153.538 451.167 153.973 450.921 154.342C450.675 154.712 450.325 155.001 449.915 155.171C449.505 155.342 449.053 155.387 448.618 155.3C448.182 155.214 447.782 155 447.468 154.686C447.154 154.372 446.94 153.972 446.854 153.536C446.767 153.101 446.812 152.649 446.983 152.239C447.154 151.829 447.442 151.479 447.812 151.233C448.182 150.987 448.616 150.857 449.06 150.858C449.354 150.858 449.645 150.916 449.916 151.028C450.187 151.14 450.434 151.305 450.641 151.513C450.849 151.72 451.014 151.967 451.126 152.238C451.238 152.51 451.296 152.8 451.296 153.094V153.094Z" fill="#FFB587"/>
<path d="M480.304 169.139C479.637 166.791 478.255 164.71 476.351 163.183C475.244 162.316 474.035 161.587 472.751 161.013C469.324 159.296 465.784 157.519 464.958 151.776C463.554 142.027 457.139 140.65 454.451 140.51H454.397C451.968 140.19 449.593 140.916 448.022 141.402C447.586 141.548 447.142 141.668 446.691 141.761L446.552 140.909C446.965 140.818 447.374 140.704 447.776 140.57C449.42 140.071 451.902 139.305 454.524 139.651C457.425 139.804 464.346 141.275 465.837 151.63C466.596 156.954 469.93 158.604 473.157 160.221C474.507 160.825 475.776 161.594 476.937 162.51C478.975 164.155 480.451 166.392 481.163 168.912L480.304 169.139Z" fill="#5E3B3B"/>
<path d="M467.408 318.398C461.924 319.169 455.429 318.584 448.475 317.499C445.873 298.866 445.513 277.923 445.866 258.938C445.866 259.157 451.563 240.863 451.563 240.863C451.563 240.863 449.087 255.158 449.932 263.756C450.811 272.64 454.058 275.262 455.309 285.27C456.041 291.12 453.12 295.525 454.185 301.654C455.303 308.109 460.247 312.102 465.078 316.434C465.777 317.08 466.642 317.712 467.408 318.398Z" fill="#4A292F"/>
<path d="M445.992 260.168L445.174 259.882C447.496 253.227 449.719 246.373 451.782 239.519L452.607 239.765C450.544 246.606 448.315 253.5 445.992 260.168Z" fill="#FDFFFE"/>
<path d="M421.976 314.444C421.543 315.276 421.104 316.108 420.645 316.933C413.784 318.404 405.878 318.124 397.426 316.933C402.196 295.584 408.422 274.585 416.06 254.086C416.645 260.295 415.115 266.763 413.291 272.826C410.889 280.811 407.967 288.923 408.693 297.222C409.225 303.211 412.326 309.64 417.603 312.867C418.969 313.619 420.445 314.151 421.976 314.444V314.444Z" fill="#4A292F"/>
<path d="M414.895 259.396L414.083 259.103C419.247 244.723 424.511 231.852 429.296 221.89L430.074 222.269C425.303 232.198 420.052 245.042 414.895 259.396Z" fill="#FDFFFE"/>
<path d="M141.258 180.298L105.15 171.454C92.6284 179.003 77.8268 181.842 63.4011 179.462C48.9754 177.083 35.8697 169.641 26.4357 158.471C17.0017 147.301 11.8569 133.135 11.9245 118.515C11.9921 103.894 17.2676 89.7765 26.8045 78.6944C36.3414 67.6124 49.5153 60.2916 63.9624 58.0458C78.4096 55.7999 93.1842 58.7759 105.635 66.4398C118.086 74.1037 127.399 85.9538 131.901 99.8638C136.404 113.774 135.803 128.833 130.205 142.34L141.258 180.298Z" fill="#0F3015"/>
<path d="M110.026 155.441C130.282 135.186 130.282 102.345 110.026 82.0902C89.7711 61.8349 56.9308 61.8349 36.6755 82.0902C16.4202 102.345 16.4202 135.186 36.6755 155.441C56.9308 175.696 89.7711 175.696 110.026 155.441Z" fill="#FAFFF2"/>
<path d="M110.026 155.441C130.282 135.186 130.282 102.345 110.026 82.0902C89.7711 61.8349 56.9308 61.8349 36.6755 82.0902C16.4202 102.345 16.4202 135.186 36.6755 155.441C56.9308 175.696 89.7711 175.696 110.026 155.441Z" fill="#FAFFF2"/>
<path d="M103.945 126.342L75.2366 117.105L60.2501 81.5291C60.0286 80.9996 59.6059 80.5798 59.0748 80.362C58.5438 80.1443 57.948 80.1463 57.4185 80.3678C56.889 80.5893 56.4692 81.0121 56.2515 81.5431C56.0337 82.0742 56.0358 82.6699 56.2573 83.1994L70.4185 116.773L31.6015 105.293C31.5027 105.261 31.3993 105.245 31.2954 105.247C31.0376 105.248 30.7889 105.342 30.5945 105.512C30.4001 105.681 30.2728 105.915 30.2358 106.17C30.1988 106.425 30.2544 106.685 30.3927 106.903C30.5309 107.12 30.7426 107.281 30.9893 107.356L71.5033 119.335L71.6896 119.78L71.49 120.413L72.0356 120.592L72.2353 121.071L72.7943 120.832L102.621 130.435C102.836 130.504 103.06 130.54 103.286 130.541C103.799 130.54 104.295 130.357 104.684 130.023C105.074 129.69 105.332 129.229 105.412 128.722C105.492 128.216 105.389 127.697 105.122 127.26C104.854 126.822 104.439 126.495 103.952 126.335L103.945 126.342Z" fill="#0F3015"/>
<path d="M67.3242 83.3922V84.9427H73.0007V83.3922H71.1639V74.9141H69.7531L66.6454 77.576L67.1844 78.3146C67.242 78.4031 67.3225 78.4744 67.4173 78.5209C67.5207 78.5795 67.6379 78.6094 67.7567 78.6074C67.836 78.6066 67.9146 78.5931 67.9896 78.5675C68.0742 78.5335 68.1528 78.4863 68.2226 78.4278L69.3272 77.4828V83.3722L67.3242 83.3922Z" fill="#0F3015"/>
<path d="M79.8619 83.1792H76.6277L78.3845 81.3824C78.6507 81.1096 78.8969 80.85 79.1365 80.5905C79.3797 80.331 79.6022 80.0529 79.802 79.7586C79.9918 79.47 80.146 79.1594 80.2611 78.8336C80.3837 78.4876 80.4445 78.1227 80.4408 77.7556C80.4449 77.3326 80.361 76.9133 80.1946 76.5245C80.0403 76.1708 79.8136 75.8535 79.5291 75.5928C79.2358 75.3352 78.8942 75.1384 78.5242 75.0138C78.1314 74.8841 77.7201 74.8189 77.3064 74.8208C76.8906 74.8189 76.4771 74.8841 76.082 75.0138C75.7063 75.1342 75.3564 75.3238 75.0505 75.5728C74.7462 75.8343 74.4934 76.1502 74.3052 76.5045C74.1086 76.8927 73.9781 77.3111 73.9192 77.7423L73.8726 78.0617L74.8109 78.2281H75.0106C75.1842 78.2333 75.354 78.1767 75.4897 78.0684C75.628 77.9462 75.7236 77.7829 75.7625 77.6025C75.7985 77.4433 75.8592 77.2906 75.9422 77.15C76.0286 77.0137 76.1364 76.8924 76.2616 76.7906C76.5421 76.5764 76.887 76.4638 77.2399 76.4712C77.4276 76.468 77.6145 76.4973 77.7922 76.5577C77.9472 76.6041 78.0902 76.6836 78.2115 76.7906C78.3316 76.8987 78.4249 77.0331 78.4843 77.1833C78.5603 77.3712 78.5965 77.5729 78.5908 77.7755C78.592 78.0012 78.5584 78.2257 78.491 78.441C78.4151 78.674 78.3124 78.8973 78.1849 79.1065C78.0391 79.3413 77.8744 79.5639 77.6924 79.772C77.4928 80.0049 77.2732 80.2444 77.0269 80.484L74.0323 83.4986C73.9286 83.5993 73.8489 83.7221 73.7994 83.858C73.7521 83.9766 73.7273 84.1029 73.7262 84.2306V84.956H80.6338V83.9179C80.6358 83.8219 80.6186 83.7266 80.5831 83.6375C80.5477 83.5483 80.4948 83.4672 80.4275 83.3988C80.3536 83.3249 80.2652 83.2672 80.1678 83.2294C80.0704 83.1916 79.9662 83.1745 79.8619 83.1792V83.1792Z" fill="#0F3015"/>
<path d="M75.9886 156.488C75.7002 156.219 75.3607 156.011 74.9904 155.875C74.6126 155.739 74.2141 155.669 73.8125 155.669C73.6187 155.671 73.4252 155.686 73.2336 155.716L76.1284 152.049H74.4114C74.2322 152.048 74.0549 152.086 73.8924 152.162C73.7481 152.234 73.621 152.336 73.5197 152.461L71.1506 155.656C70.7802 156.135 70.4737 156.661 70.2389 157.22C70.0489 157.673 69.9472 158.159 69.9395 158.65C69.934 159.14 70.0151 159.626 70.179 160.088C70.3332 160.504 70.571 160.885 70.8778 161.206C71.1856 161.521 71.5579 161.766 71.9692 161.924C72.4153 162.094 72.8895 162.178 73.3667 162.171C73.8557 162.176 74.3413 162.088 74.7974 161.911C75.2146 161.748 75.5964 161.506 75.9221 161.199C76.2361 160.893 76.4851 160.526 76.6541 160.121C76.8294 159.699 76.9177 159.247 76.9136 158.79C76.9203 158.335 76.8366 157.882 76.6674 157.459C76.5083 157.093 76.2775 156.763 75.9886 156.488ZM71.7296 158.85C71.7294 158.638 71.7701 158.428 71.8494 158.231C71.9241 158.037 72.0373 157.861 72.1821 157.712C72.3325 157.558 72.514 157.438 72.7145 157.359C72.9422 157.266 73.187 157.22 73.4332 157.226C73.66 157.223 73.8855 157.262 74.0987 157.339C74.29 157.409 74.4646 157.518 74.6111 157.659C74.7535 157.806 74.8645 157.98 74.9372 158.171C75.0192 158.397 75.0598 158.636 75.057 158.877C75.0581 159.104 75.0175 159.329 74.9372 159.542C74.8583 159.737 74.7406 159.913 74.5911 160.061C74.4384 160.214 74.2545 160.332 74.0521 160.407C73.5916 160.571 73.0885 160.571 72.628 160.407C72.4396 160.33 72.2695 160.215 72.1289 160.068C71.9903 159.919 71.8858 159.742 71.8228 159.549C71.7609 159.321 71.7362 159.085 71.7496 158.85H71.7296Z" fill="#0F3015"/>
<path d="M116.662 118.835C116.45 118.581 116.19 118.37 115.897 118.216C116.117 118.078 116.312 117.905 116.476 117.704C116.646 117.49 116.775 117.246 116.855 116.985C116.946 116.697 116.991 116.396 116.988 116.093C116.992 115.706 116.913 115.323 116.755 114.969C116.601 114.632 116.374 114.334 116.09 114.097C115.805 113.853 115.475 113.667 115.118 113.551C114.73 113.423 114.323 113.36 113.914 113.365C113.498 113.361 113.085 113.424 112.689 113.551C112.313 113.674 111.964 113.866 111.658 114.117C111.352 114.373 111.101 114.687 110.919 115.042C110.716 115.431 110.584 115.852 110.527 116.286L110.48 116.606L111.418 116.766H111.518H111.618C111.79 116.771 111.957 116.714 112.09 116.606C112.228 116.491 112.324 116.335 112.363 116.16C112.402 115.994 112.47 115.837 112.563 115.694C112.643 115.557 112.746 115.435 112.869 115.335C113 115.231 113.149 115.152 113.308 115.102C113.481 115.041 113.664 115.012 113.847 115.015C114.034 115.013 114.221 115.04 114.4 115.095C114.55 115.144 114.69 115.22 114.812 115.321C114.924 115.426 115.012 115.553 115.072 115.694C115.143 115.879 115.177 116.075 115.172 116.273C115.173 116.457 115.142 116.64 115.078 116.812C115.018 116.963 114.919 117.096 114.792 117.198C114.618 117.325 114.422 117.42 114.213 117.478C113.914 117.556 113.605 117.591 113.295 117.584H113.009V119.101H113.342C113.713 119.093 114.084 119.131 114.446 119.214C114.667 119.267 114.874 119.367 115.052 119.507C115.178 119.609 115.27 119.745 115.318 119.9C115.379 120.091 115.409 120.291 115.405 120.492C115.403 120.661 115.369 120.828 115.305 120.985C115.237 121.158 115.135 121.317 115.005 121.45C114.858 121.592 114.686 121.707 114.5 121.79C114.269 121.882 114.022 121.927 113.774 121.923C113.547 121.927 113.32 121.887 113.109 121.803C112.944 121.731 112.791 121.635 112.656 121.517C112.541 121.41 112.442 121.287 112.363 121.151C112.283 120.998 112.21 120.858 112.164 120.758L112.104 120.632C112.045 120.49 111.94 120.372 111.804 120.299C111.684 120.234 111.549 120.201 111.412 120.206C111.275 120.207 111.139 120.234 111.012 120.286L110.24 120.612L110.327 120.905C110.434 121.259 110.575 121.602 110.746 121.93C110.917 122.254 111.142 122.546 111.412 122.795C111.705 123.052 112.047 123.249 112.417 123.374C112.861 123.518 113.327 123.587 113.794 123.58C114.246 123.583 114.696 123.511 115.125 123.367C115.527 123.233 115.9 123.023 116.223 122.748C116.554 122.467 116.818 122.116 116.995 121.72C117.172 121.324 117.259 120.893 117.248 120.459C117.247 119.866 117.04 119.292 116.662 118.835V118.835Z" fill="#0F3015"/>
<path d="M35.4147 114.323C35.1148 114.03 34.7566 113.803 34.3633 113.658C33.4866 113.325 32.5182 113.325 31.6415 113.658C31.2413 113.81 30.8732 114.035 30.5568 114.323C30.2415 114.618 29.992 114.977 29.8247 115.375C29.6525 115.779 29.5664 116.214 29.5719 116.653C29.5657 117.09 29.6448 117.524 29.8048 117.93C29.9589 118.29 30.1854 118.614 30.4703 118.882C30.7387 119.144 31.0613 119.344 31.4152 119.467C31.7727 119.601 32.1515 119.669 32.5332 119.667C32.779 119.667 33.0242 119.642 33.2652 119.594L30.2706 123.507H32.0142C32.1883 123.507 32.3606 123.471 32.5199 123.4C32.6677 123.328 32.7957 123.221 32.8926 123.088L35.1685 119.8C35.3415 119.547 35.5012 119.301 35.6343 119.068C35.7721 118.835 35.8944 118.592 36.0003 118.343C36.1001 118.093 36.1781 117.834 36.2332 117.571C36.293 117.298 36.322 117.019 36.3198 116.739C36.3208 116.285 36.242 115.835 36.0868 115.408C35.9387 115.005 35.71 114.636 35.4147 114.323V114.323ZM31.5284 115.934C31.5983 115.754 31.7048 115.591 31.8411 115.455C31.984 115.315 32.1538 115.207 32.3402 115.135C32.5534 115.058 32.7789 115.019 33.0057 115.022C33.2323 115.015 33.4582 115.051 33.6712 115.129C33.8501 115.196 34.0116 115.303 34.1437 115.441C34.2822 115.578 34.389 115.744 34.4564 115.927C34.538 116.139 34.5786 116.365 34.5762 116.593C34.5782 116.789 34.542 116.983 34.4697 117.165C34.4005 117.341 34.2964 117.502 34.1636 117.637C34.0194 117.783 33.8474 117.899 33.6579 117.977C33.4456 118.059 33.2201 118.102 32.9924 118.103C32.7661 118.107 32.5409 118.071 32.3269 117.997C32.154 117.938 31.997 117.84 31.8677 117.711C31.738 117.576 31.6382 117.415 31.5749 117.238C31.5034 117.024 31.4675 116.799 31.4685 116.573C31.4483 116.358 31.4686 116.141 31.5284 115.934V115.934Z" fill="#0F3015"/>
<path d="M49.2612 73.5858L47.5322 74.584L50.8862 80.3932L52.6152 79.395L49.2612 73.5858Z" fill="#0F3015"/>
<path d="M96.3875 157.643L94.6506 158.642L98.0046 164.478L99.7415 163.479L96.3875 157.643Z" fill="#0F3015"/>
<path d="M29.6089 92.2281L28.6107 93.957L34.5583 97.3909L35.5565 95.6619L29.6089 92.2281Z" fill="#0F3015"/>
<path d="M29.6089 92.2281L28.6107 93.957L34.5583 97.3909L35.5565 95.6619L29.6089 92.2281Z" fill="#0F3015"/>
<path d="M112.149 139.884L111.15 141.613L117.098 145.047L118.096 143.318L112.149 139.884Z" fill="#0F3015"/>
<path d="M34.5548 139.892L28.6072 143.326L29.6054 145.055L35.553 141.621L34.5548 139.892Z" fill="#0F3015"/>
<path d="M34.5548 139.892L28.6072 143.326L29.6054 145.055L35.553 141.621L34.5548 139.892Z" fill="#0F3015"/>
<path d="M117.099 92.2429L111.151 95.6768L112.149 97.4057L118.097 93.9719L117.099 92.2429Z" fill="#0F3015"/>
<path d="M50.8855 156.876L47.5315 162.686L49.2604 163.684L52.6144 157.874L50.8855 156.876Z" fill="#0F3015"/>
<path d="M50.8855 156.876L47.5315 162.686L49.2604 163.684L52.6144 157.874L50.8855 156.876Z" fill="#0F3015"/>
<path d="M97.4424 73.574L94.0884 79.3833L95.8173 80.3815L99.1713 74.5722L97.4424 73.574Z" fill="#0F3015"/>
<path d="M78.6619 119.627C79.1387 116.695 77.1491 113.933 74.218 113.456C71.2869 112.979 68.5242 114.969 68.0473 117.9C67.5705 120.831 69.5601 123.594 72.4912 124.07C75.4223 124.547 78.185 122.558 78.6619 119.627Z" fill="#A4BE7B"/>
<path d="M142.703 181.676L105.31 172.519C92.786 179.935 78.0683 182.751 63.6914 180.483C49.3145 178.216 36.1784 171.005 26.5453 160.095C16.9123 149.184 11.3853 135.256 10.9163 120.709C10.4473 106.162 15.0656 91.9063 23.9758 80.3978L25.553 81.6222C17.257 92.2202 12.7725 105.304 12.8225 118.762C12.8264 129.489 15.6793 140.022 21.0895 149.284C26.4997 158.546 34.273 166.205 43.6143 171.478C52.9557 176.75 63.5298 179.447 74.2553 179.292C84.9807 179.137 95.4726 176.136 104.658 170.596L105.01 170.383L139.841 178.914L129.194 142.313L129.327 141.987C132.387 134.639 133.955 126.755 133.939 118.796C133.934 108.22 131.16 97.8306 125.893 88.6604C120.625 79.4902 113.049 71.8592 103.916 66.5267C94.7838 61.1942 84.4142 58.3463 73.8392 58.2662C63.2643 58.186 52.8527 60.8766 43.6405 66.0701L42.6556 64.3332C53.9628 57.9789 66.9656 55.2965 79.8643 56.6573C92.7631 58.018 104.92 63.3546 114.652 71.9284C124.385 80.5023 131.211 91.8893 134.187 104.514C137.163 117.138 136.141 130.375 131.263 142.393L142.703 181.676Z" fill="#0F3015"/>
<path d="M73.3532 171.628C63.7669 171.626 54.3616 169.017 46.1438 164.081C37.926 159.145 31.2049 152.068 26.7 143.606C22.195 135.144 20.0757 125.617 20.5688 116.043C21.0619 106.47 24.1489 97.2104 29.4994 89.2563C34.8499 81.3022 42.2625 74.9526 50.944 70.8871C59.6255 66.8216 69.249 65.1932 78.7847 66.1761C88.3204 67.1591 97.4094 70.7165 105.079 76.4675C112.749 82.2185 118.71 89.9467 122.325 98.8251L120.475 99.5771C116.502 89.8332 109.604 81.5614 100.733 75.9016C91.8617 70.2417 81.4536 67.4723 70.9426 67.975C60.4317 68.4777 50.3354 72.2278 42.0448 78.7084C33.7542 85.189 27.6775 94.0813 24.6519 104.16C21.6264 114.239 21.8009 125.007 25.1515 134.983C28.5021 144.958 34.8638 153.649 43.36 159.857C51.8562 166.066 62.0688 169.487 72.5905 169.648C83.1122 169.81 93.4251 166.705 102.108 160.761L103.233 162.411C94.4384 168.443 84.0174 171.657 73.3532 171.628V171.628Z" fill="#5F8D4E"/>
<path d="M116.463 149.374L114.833 148.223C120.967 139.626 124.254 129.323 124.229 118.762H126.226C126.249 129.735 122.835 140.44 116.463 149.374V149.374Z" fill="#5F8D4E"/>
<path d="M388.715 131.047H146.23V133.043H388.715V131.047Z" fill="#5E3B3B"/>
<path d="M360.772 329.148C376.343 320.13 381.654 300.196 372.635 284.625C363.617 269.054 343.683 263.742 328.112 272.761C312.541 281.78 307.229 301.714 316.248 317.285C325.267 332.856 345.201 338.167 360.772 329.148Z" fill="#FFC76C"/>
<path d="M364.552 313.04C371.213 301.937 367.611 287.536 356.508 280.875C345.405 274.214 331.004 277.815 324.343 288.919C317.682 300.022 321.283 314.423 332.386 321.084C343.49 327.745 357.891 324.144 364.552 313.04Z" fill="#FFE9AB"/>
<path d="M344.461 334.215C339.962 334.308 335.492 333.488 331.32 331.804C327.147 330.12 323.36 327.608 320.186 324.419C317.013 321.229 314.519 317.429 312.856 313.249C311.193 309.068 310.395 304.594 310.51 300.096C310.625 295.598 311.652 291.171 313.527 287.081C315.402 282.991 318.087 279.324 321.42 276.302C324.753 273.279 328.664 270.964 332.917 269.496C337.17 268.028 341.677 267.438 346.164 267.761L346.098 269.092C340.421 268.79 334.766 270.008 329.717 272.621C324.668 275.234 320.407 279.147 317.376 283.957C314.344 288.766 312.651 294.297 312.471 299.98C312.292 305.662 313.632 311.289 316.353 316.281C319.075 321.272 323.079 325.447 327.953 328.374C332.826 331.301 338.393 332.874 344.078 332.931C349.763 332.988 355.36 331.527 360.291 328.698C365.223 325.869 369.31 321.776 372.131 316.84L373.282 317.505C370.375 322.582 366.178 326.801 361.118 329.737C356.057 332.672 350.311 334.219 344.461 334.222V334.215Z" fill="#5E3B3B"/>
<path d="M377.255 306.332L375.924 306.113C377.052 299.169 375.857 292.048 372.524 285.853C369.191 279.659 363.906 274.738 357.49 271.854L358.036 270.636C362.329 272.565 366.164 275.383 369.288 278.904C372.412 282.424 374.753 286.567 376.157 291.06C377.718 295.993 378.094 301.226 377.255 306.332V306.332Z" fill="#5E3B3B"/>
<path d="M346.684 316.481C344.809 316.815 342.878 316.458 341.247 315.476C339.703 314.428 338.588 312.859 338.106 311.057L337.44 309.001L342.924 307.284L343.662 309.66C344.226 311.479 345.51 312.075 347.515 311.45C349.512 310.824 350.23 309.573 349.638 307.697C349.296 306.552 348.579 305.556 347.602 304.868C346.081 303.92 344.419 303.221 342.677 302.799C339.829 301.956 337.717 300.993 336.342 299.911C334.968 298.843 333.963 297.372 333.467 295.705C332.859 293.995 332.878 292.125 333.52 290.428C334.287 288.727 335.631 287.353 337.314 286.548L336.462 283.819L341.2 282.335L342.058 285.064C343.918 284.734 345.834 285.086 347.455 286.055C348.984 287.106 350.087 288.668 350.563 290.461L350.843 291.359L345.366 293.07L344.987 291.858C344.408 290.008 343.156 289.389 341.22 289.988C339.283 290.587 338.605 291.792 339.164 293.582C339.504 294.672 340.209 295.612 341.16 296.244C342.693 297.168 344.352 297.865 346.085 298.313C348.937 299.201 351.056 300.183 352.44 301.261C353.833 302.369 354.851 303.88 355.355 305.587C355.99 307.365 355.971 309.312 355.301 311.077C354.527 312.819 353.146 314.219 351.415 315.017L352.393 318.145L347.648 319.629L346.684 316.481Z" fill="#FFC76C"/>
<path d="M320.99 287.067C323.308 288.255 325.156 290.192 326.233 292.564C327.31 290.188 329.158 288.246 331.477 287.053V287.053C329.156 285.869 327.307 283.931 326.233 281.557V281.557C325.158 283.933 323.31 285.876 320.99 287.067V287.067Z" fill="#FFF9EE"/>
<path d="M328.05 301.481C329.398 302.17 330.472 303.296 331.098 304.675V304.675C331.719 303.292 332.795 302.163 334.146 301.474V301.474C332.798 300.785 331.723 299.659 331.098 298.28V298.28C330.471 299.659 329.397 300.787 328.05 301.481V301.481Z" fill="#FFF9EE"/>
<path d="M99.8195 269.652C99.8195 269.652 95.068 239.24 118.04 229.131C141.012 219.023 99.8195 269.652 99.8195 269.652Z" fill="#9FB26B"/>
<path d="M70.8709 269.452C70.8709 269.452 74.1383 243.392 58.9456 242.773C43.7528 242.154 70.8709 269.452 70.8709 269.452Z" fill="#9FB26B"/>
<path d="M88.699 250.739C88.699 250.739 84.3668 206.765 104.005 203.863C124.987 200.769 88.699 250.739 88.699 250.739Z" fill="#9FB26B"/>
<path d="M97.8424 289.144L96.5115 289.11C96.5115 288.824 97.3832 260.748 110.852 247.186L111.797 248.124C98.7075 261.32 97.8557 288.864 97.8424 289.144Z" fill="#47393D"/>
<path d="M75.8218 289.197C75.6555 288.245 71.6892 265.905 64.5088 258.159L65.487 257.254C72.947 265.313 76.9798 288.005 77.1461 288.964L75.8218 289.197Z" fill="#47393D"/>
<path d="M86.4632 289.197C86.41 288.797 81.3258 249.268 100.624 219.761L101.736 220.493C82.71 249.574 87.7276 288.624 87.7609 289.037L86.4632 289.197Z" fill="#47393D"/>
<path d="M79.7351 259.796C79.7351 259.796 66.5255 228.233 84.826 215.143C103.126 202.053 79.7351 259.796 79.7351 259.796Z" fill="#9FB26B"/>
<path d="M83.0626 289.197C82.9761 288.904 74.8573 259.324 83.0626 230.123L84.3403 230.482C76.2415 259.33 84.2604 288.544 84.3403 288.837L83.0626 289.197Z" fill="#47393D"/>
<path d="M88.8717 234.701L87.594 234.328C90.1228 225.677 91.1676 219.655 90.7151 216.407L92.046 216.221C92.5185 219.661 91.4537 225.877 88.8717 234.701Z" fill="white"/>
<path d="M97.1236 332.978H73.486C73.486 332.978 65.2075 304.157 66.8313 283.953H103.812C105.509 304.343 97.1236 332.978 97.1236 332.978Z" fill="#011204"/>
<path d="M103.992 291.732H66.6654V293.063H103.992V291.732Z" fill="white"/>
<path d="M103.765 295.978H66.8844V297.309H103.765V295.978Z" fill="white"/>
<path d="M474.66 332.559H58.4535V334.555H474.66V332.559Z" fill="#5E3B3B"/>
<path d="M308.165 320.62H244.958V332.852H308.165V320.62Z" fill="#FFC76C"/>
<path d="M321.475 307.098H258.269V319.329H321.475V307.098Z" fill="#FFC76C"/>
<path d="M308.212 293.615H245.005V305.847H308.212V293.615Z" fill="#FFC76C"/>
<path d="M302.222 293.615H300.891V305.847H302.222V293.615Z" fill="#5E3B3B"/>
<path d="M295.568 293.615H294.237V305.847H295.568V293.615Z" fill="#5E3B3B"/>
<path d="M275.604 293.615H274.273V305.847H275.604V293.615Z" fill="#5E3B3B"/>
<path d="M262.294 293.615H260.963V305.847H262.294V293.615Z" fill="#5E3B3B"/>
<path d="M315.485 307.098H314.154V319.329H315.485V307.098Z" fill="#5E3B3B"/>
<path d="M308.831 307.098H307.5V319.329H308.831V307.098Z" fill="#5E3B3B"/>
<path d="M288.866 307.098H287.535V319.329H288.866V307.098Z" fill="#5E3B3B"/>
<path d="M282.212 307.098H280.881V319.329H282.212V307.098Z" fill="#5E3B3B"/>
<path d="M275.557 320.62H274.226V332.852H275.557V320.62Z" fill="#5E3B3B"/>
<path d="M262.248 320.62H260.917V332.852H262.248V320.62Z" fill="#5E3B3B"/>
<path d="M255.593 320.62H254.262V332.852H255.593V320.62Z" fill="#5E3B3B"/>
<path d="M307.865 305.78H244.998V307.111H307.865V305.78Z" fill="#5E3B3B"/>
<path d="M321.481 319.389H258.314V320.72H321.481V319.389Z" fill="#5E3B3B"/>
<path d="M298.01 311.889C299.885 312.844 301.378 314.41 302.243 316.328C303.114 314.409 304.608 312.84 306.482 311.876V311.876C304.608 310.917 303.114 309.353 302.243 307.437V307.437C301.376 309.357 299.884 310.926 298.01 311.889V311.889Z" fill="#FFF9EE"/>
<path d="M253.363 299.385C254.711 300.073 255.783 301.2 256.404 302.579V302.579C257.034 301.199 258.11 300.072 259.459 299.378C258.111 298.688 257.034 297.562 256.404 296.184V296.184C255.782 297.564 254.71 298.693 253.363 299.385V299.385Z" fill="#FFF9EE"/>
<path d="M322.141 307.098H320.81V320.72H322.141V307.098Z" fill="#5E3B3B"/>
<defs>
<linearGradient id="paint0_linear_159_5521" x1="393" y1="4.00002" x2="130" y2="335" gradientUnits="userSpaceOnUse">
<stop stop-color="#E5D9B6"/>
<stop offset="1" stop-color="#FAFFF2"/>
</linearGradient>
</defs>
</svg>
