<svg width="20" height="20" viewBox="0 0 20 20" fill="none" xmlns="http://www.w3.org/2000/svg">
<path d="M16.2381 16.6848C15.8967 13.6813 14.526 12.4363 13.5249 11.5285C12.8327 10.8984 12.4999 10.5707 12.4999 10C12.4999 9.43712 12.8315 9.11563 13.5217 8.49845C14.5346 7.59337 15.9217 6.35353 16.2389 3.30938C16.2643 3.05363 16.2357 2.79541 16.1549 2.55142C16.0742 2.30743 15.9431 2.08311 15.7702 1.89298C15.5855 1.6899 15.3603 1.52776 15.1092 1.41702C14.858 1.30627 14.5865 1.24938 14.312 1.25001H5.68775C5.41288 1.24915 5.14089 1.30593 4.88932 1.41667C4.63775 1.52742 4.41219 1.68968 4.2272 1.89298C4.0548 2.08337 3.92422 2.30779 3.84389 2.55175C3.76355 2.79572 3.73525 3.05381 3.76079 3.30938C4.07681 6.34376 5.45884 7.57462 6.46782 8.47306C7.1647 9.09376 7.49985 9.41759 7.49985 10C7.49985 10.5899 7.16392 10.9203 6.4647 11.5527C5.4686 12.4551 4.10142 13.6906 3.76157 16.6848C3.73398 16.9394 3.76042 17.1969 3.83918 17.4406C3.91793 17.6843 4.04723 17.9086 4.2186 18.0988C4.40398 18.3045 4.63063 18.4688 4.88377 18.581C5.13691 18.6932 5.41086 18.7508 5.68775 18.75H14.312C14.5889 18.7508 14.8628 18.6932 15.1159 18.581C15.3691 18.4688 15.5957 18.3045 15.7811 18.0988C15.9525 17.9086 16.0818 17.6843 16.1605 17.4406C16.2393 17.1969 16.2657 16.9394 16.2381 16.6848ZM13.41 16.875H6.6065C5.99712 16.875 5.82525 16.1719 6.25259 15.7359C7.28696 14.6875 9.37486 13.9367 9.37486 12.7344V8.75001C9.37486 7.97462 7.89048 7.38282 6.97212 6.12501C6.82056 5.91759 6.83579 5.62501 7.22095 5.62501H12.7963C13.1249 5.62501 13.1956 5.91524 13.0463 6.12306C12.1413 7.38282 10.6249 7.97071 10.6249 8.75001V12.7344C10.6249 13.927 12.801 14.5703 13.7655 15.7371C14.1542 16.2074 14.0182 16.875 13.41 16.875Z" fill="#FF003D"/>
</svg>
