<svg width="23" height="21" viewBox="0 0 23 21" fill="none" xmlns="http://www.w3.org/2000/svg">
<path d="M19.1818 0.25H10.0909C9.24727 0.250902 8.43849 0.586419 7.84198 1.18293C7.24546 1.77944 6.90995 2.58822 6.90905 3.43182V9.34091H15.6233L12.6301 6.34716C12.4668 6.17528 12.3771 5.94642 12.3801 5.70937C12.3832 5.47231 12.4787 5.24582 12.6463 5.07818C12.814 4.91054 13.0404 4.81502 13.2775 4.81199C13.5146 4.80895 13.7434 4.89864 13.9153 5.06193L18.4608 9.60739C18.6311 9.77786 18.7268 10.009 18.7268 10.25C18.7268 10.491 18.6311 10.7221 18.4608 10.8926L13.9153 15.4381C13.7434 15.6014 13.5146 15.691 13.2775 15.688C13.0404 15.685 12.814 15.5895 12.6463 15.4218C12.4787 15.2542 12.3832 15.0277 12.3801 14.7906C12.3771 14.5536 12.4668 14.3247 12.6301 14.1528L15.6233 11.1591H6.90905V17.0682C6.90905 18.8892 8.82893 20.25 10.5454 20.25H19.1818C20.0254 20.2491 20.8342 19.9136 21.4307 19.3171C22.0272 18.7206 22.3627 17.9118 22.3636 17.0682V3.43182C22.3627 2.58822 22.0272 1.77944 21.4307 1.18293C20.8342 0.586419 20.0254 0.250902 19.1818 0.25V0.25ZM1.4545 9.34091C1.2134 9.34091 0.982165 9.43669 0.811677 9.60718C0.641189 9.77766 0.54541 10.0089 0.54541 10.25C0.54541 10.4911 0.641189 10.7223 0.811677 10.8928C0.982165 11.0633 1.2134 11.1591 1.4545 11.1591H6.90905V9.34091H1.4545Z" fill="#E5D9B6"/>
</svg>
