<svg width="30" height="30" viewBox="0 0 30 30" fill="none" xmlns="http://www.w3.org/2000/svg">
<path d="M22.9103 28.1249C21.7665 28.1249 20.1599 27.7113 17.754 26.3671C14.8284 24.7265 12.5655 23.2119 9.65577 20.3097C6.8503 17.506 5.48507 15.6908 3.57432 12.2138C1.41573 8.28803 1.7837 6.23022 2.19503 5.35073C2.68487 4.29955 3.40792 3.67084 4.34249 3.04682C4.87332 2.69903 5.43507 2.40089 6.02061 2.15619C6.07921 2.131 6.1337 2.10698 6.18233 2.0853C6.47237 1.95463 6.91182 1.75717 7.46846 1.96811C7.83995 2.10756 8.17159 2.39291 8.69073 2.90561C9.75538 3.95561 11.2103 6.29409 11.747 7.44252C12.1073 8.21655 12.3458 8.72748 12.3464 9.30053C12.3464 9.97143 12.0089 10.4888 11.5993 11.0472C11.5226 11.1521 11.4464 11.2523 11.3726 11.3496C10.9267 11.9355 10.8288 12.1048 10.8933 12.4072C11.0239 13.0148 11.9983 14.8236 13.5997 16.4214C15.2011 18.0193 16.9577 18.9322 17.5677 19.0622C17.8829 19.1296 18.0558 19.0277 18.6605 18.566C18.7472 18.4997 18.8362 18.4312 18.9294 18.3626C19.554 17.898 20.0474 17.5693 20.7024 17.5693H20.706C21.2761 17.5693 21.7642 17.8165 22.5728 18.2244C23.6274 18.7564 26.0362 20.1925 27.0927 21.2583C27.6065 21.7763 27.8931 22.1068 28.0331 22.4777C28.244 23.0361 28.0454 23.4738 27.9159 23.7667C27.8942 23.8154 27.8702 23.8687 27.845 23.9279C27.5984 24.5124 27.2985 25.0729 26.9491 25.6025C26.3263 26.5341 25.6952 27.2554 24.6417 27.7458C24.1007 28.0017 23.5087 28.1314 22.9103 28.1249Z" fill="#0F3015"/>
</svg>
