<svg width="30" height="30" viewBox="0 0 30 30" fill="none" xmlns="http://www.w3.org/2000/svg">
<path d="M24.8438 4.6875H5.15625C4.28629 4.68843 3.45224 5.03443 2.83708 5.64958C2.22193 6.26474 1.87593 7.09879 1.875 7.96875V22.0312C1.87593 22.9012 2.22193 23.7353 2.83708 24.3504C3.45224 24.9656 4.28629 25.3116 5.15625 25.3125H24.8438C25.7137 25.3116 26.5478 24.9656 27.1629 24.3504C27.7781 23.7353 28.1241 22.9012 28.125 22.0312V7.96875C28.1241 7.09879 27.7781 6.26474 27.1629 5.64958C26.5478 5.03443 25.7137 4.68843 24.8438 4.6875ZM24.0129 10.115L15.5754 16.6775C15.4109 16.8054 15.2084 16.8749 15 16.8749C14.7916 16.8749 14.5891 16.8054 14.4246 16.6775L5.98711 10.115C5.88798 10.0402 5.80471 9.94636 5.74215 9.83904C5.67959 9.73172 5.63898 9.61303 5.62269 9.48988C5.60639 9.36673 5.61473 9.24157 5.64723 9.12167C5.67972 9.00177 5.73572 8.88952 5.81197 8.79145C5.88822 8.69338 5.9832 8.61145 6.09139 8.5504C6.19959 8.48936 6.31883 8.45042 6.4422 8.43586C6.56557 8.4213 6.6906 8.43141 6.81003 8.46559C6.92946 8.49976 7.0409 8.55734 7.13789 8.63496L15 14.7498L22.8621 8.63496C23.0587 8.4865 23.3058 8.42138 23.5501 8.4537C23.7943 8.48601 24.016 8.61316 24.1672 8.80765C24.3184 9.00214 24.387 9.24833 24.3581 9.49298C24.3292 9.73764 24.2052 9.9611 24.0129 10.115Z" fill="#0F3015"/>
</svg>
