<svg width="500" height="373" viewBox="0 0 500 373" fill="none" xmlns="http://www.w3.org/2000/svg">
<path d="M500 327.4H0V327.65H500V327.4Z" fill="#285430"/>
<path d="M124.82 342.53H91.7V342.78H124.82V342.53Z" fill="#285430"/>
<path d="M81.22 342.53H62.03V342.78H81.22V342.53Z" fill="#285430"/>
<path d="M210.55 346.21H191.36V346.46H210.55V346.21Z" fill="#285430"/>
<path d="M310.61 351.79H267.42V352.04H310.61V351.79Z" fill="#285430"/>
<path d="M258.52 351.79H252.19V352.04H258.52V351.79Z" fill="#285430"/>
<path d="M453.35 346.21H359.67V346.46H453.35V346.21Z" fill="#285430"/>
<path d="M237 282.8H43.91C42.3973 282.797 40.9475 282.195 39.8788 281.124C38.8102 280.053 38.21 278.603 38.21 277.09V5.66C38.2231 4.15602 38.8292 2.71798 39.8964 1.65822C40.9637 0.598458 42.4059 0.00257639 43.91 0H237C238.514 0 239.967 0.601588 241.038 1.67242C242.108 2.74325 242.71 4.19561 242.71 5.71V277.09C242.71 278.604 242.108 280.057 241.038 281.128C239.967 282.198 238.514 282.8 237 282.8ZM43.91 0.200001C42.4636 0.20265 41.0774 0.779065 40.0556 1.80273C39.0338 2.82639 38.46 4.21365 38.46 5.66V277.09C38.46 278.536 39.0338 279.924 40.0556 280.947C41.0774 281.971 42.4636 282.547 43.91 282.55H237C238.447 282.547 239.834 281.971 240.858 280.948C241.881 279.924 242.457 278.537 242.46 277.09V5.66C242.457 4.21273 241.881 2.82549 240.858 1.80212C239.834 0.77874 238.447 0.202644 237 0.200001H43.91Z" fill="#285430"/>
<path d="M453.31 282.8H260.21C258.696 282.797 257.246 282.195 256.175 281.125C255.105 280.054 254.503 278.604 254.5 277.09V5.66C254.516 4.15511 255.124 2.71708 256.193 1.65759C257.262 0.598109 258.705 0.00254829 260.21 0H453.31C454.812 0.0052045 456.252 0.602249 457.317 1.66173C458.382 2.72121 458.987 4.15775 459 5.66V277.09C459 278.601 458.401 280.05 457.335 281.121C456.268 282.191 454.821 282.795 453.31 282.8ZM260.21 0.200001C258.763 0.202644 257.375 0.77874 256.352 1.80212C255.329 2.82549 254.753 4.21273 254.75 5.66V277.09C254.753 278.537 255.329 279.924 256.352 280.948C257.375 281.971 258.763 282.547 260.21 282.55H453.31C454.757 282.547 456.145 281.971 457.168 280.948C458.191 279.924 458.767 278.537 458.77 277.09V5.66C458.767 4.21273 458.191 2.82549 457.168 1.80212C456.145 0.77874 454.757 0.202644 453.31 0.200001H260.21Z" fill="#285430"/>
<path d="M267.4 241.97H245.41V329.2H267.4V241.97Z" fill="#285430"/>
<path d="M263.22 329.21H267.4V317.33H258.84L263.22 329.21Z" fill="#A4BE7B"/>
<path d="M171.04 241.97H149.05V329.2H171.04V241.97Z" fill="#285430"/>
<path d="M267.4 241.97H167.4V321.91H267.4V241.97Z" fill="#A4BE7B"/>
<path d="M263.77 245.91V267.06H171V245.91H263.74M264.13 245.52H170.64V267.44H264.16V245.52H264.13Z" fill="#285430"/>
<path d="M171.57 329.21H167.4V317.33H175.95L171.57 329.21Z" fill="#A4BE7B"/>
<path d="M215.19 256.48C215.19 256.917 215.32 257.344 215.562 257.708C215.805 258.071 216.15 258.355 216.554 258.522C216.958 258.689 217.402 258.733 217.831 258.648C218.26 258.562 218.654 258.352 218.963 258.043C219.272 257.734 219.482 257.34 219.567 256.911C219.653 256.482 219.609 256.038 219.442 255.634C219.274 255.23 218.991 254.885 218.628 254.642C218.264 254.4 217.837 254.27 217.4 254.27C216.814 254.27 216.252 254.503 215.837 254.917C215.423 255.332 215.19 255.894 215.19 256.48Z" fill="#285430"/>
<path d="M263.77 271.37V292.52H171V271.37H263.74M264.13 270.99H170.64V292.91H264.16V271L264.13 270.99Z" fill="#285430"/>
<path d="M215.19 282C215.19 282.437 215.32 282.864 215.562 283.228C215.805 283.591 216.15 283.875 216.554 284.042C216.958 284.209 217.402 284.253 217.831 284.168C218.26 284.082 218.654 283.872 218.963 283.563C219.272 283.254 219.482 282.86 219.567 282.431C219.653 282.002 219.609 281.558 219.442 281.154C219.274 280.75 218.991 280.405 218.628 280.162C218.264 279.92 217.837 279.79 217.4 279.79C216.814 279.79 216.252 280.023 215.837 280.437C215.423 280.852 215.19 281.414 215.19 282Z" fill="#285430"/>
<path d="M263.77 296.84V318H171V296.84H263.74M264.13 296.45H170.64V318.38H264.16V296.45H264.13Z" fill="#285430"/>
<path d="M215.19 307.42C215.192 307.857 215.323 308.283 215.567 308.645C215.811 309.007 216.157 309.289 216.561 309.455C216.965 309.621 217.409 309.663 217.837 309.576C218.265 309.49 218.658 309.279 218.966 308.969C219.274 308.66 219.484 308.266 219.568 307.838C219.653 307.409 219.608 306.965 219.441 306.562C219.273 306.159 218.99 305.814 218.627 305.572C218.264 305.33 217.837 305.2 217.4 305.2C217.109 305.2 216.821 305.258 216.552 305.369C216.283 305.481 216.039 305.645 215.834 305.851C215.628 306.057 215.466 306.302 215.355 306.571C215.245 306.841 215.189 307.129 215.19 307.42Z" fill="#285430"/>
<path d="M157.61 191.31H135.62V329.21H157.61V191.31Z" fill="#285430"/>
<path d="M153.43 329.21H157.61V317.33H149.06L153.43 329.21Z" fill="#A4BE7B"/>
<path d="M75.4299 191.31H53.4399V329.21H75.4299V191.31Z" fill="#285430"/>
<path d="M157.61 191.31H71.78V321.92H157.61V191.31Z" fill="#A4BE7B"/>
<path d="M153.91 195V224.57H75.48V195H153.91ZM154.37 194.55H75V225H154.35V194.56L154.37 194.55Z" fill="#285430"/>
<path d="M153.91 228.18V306.61H116.55V228.18H153.91ZM154.37 227.72H116.1V307.07H154.37V227.72Z" fill="#285430"/>
<path d="M112.84 228.18V306.61H75.48V228.18H112.84ZM113.29 227.72H75V307.07H113.27V227.72H113.29Z" fill="#285430"/>
<path d="M75.96 329.21H71.78V317.33H80.34L75.96 329.21Z" fill="#A4BE7B"/>
<path d="M112.48 209.8C112.478 210.239 112.607 210.67 112.849 211.036C113.092 211.402 113.438 211.688 113.843 211.858C114.249 212.028 114.696 212.073 115.127 211.988C115.558 211.904 115.955 211.693 116.266 211.383C116.578 211.073 116.79 210.678 116.877 210.247C116.963 209.816 116.92 209.369 116.752 208.963C116.584 208.556 116.3 208.209 115.934 207.965C115.569 207.72 115.139 207.59 114.7 207.59C114.113 207.59 113.55 207.822 113.134 208.237C112.718 208.651 112.483 209.213 112.48 209.8Z" fill="#285430"/>
<path d="M120.4 265.53C120.4 265.97 120.53 266.399 120.775 266.764C121.019 267.13 121.366 267.414 121.773 267.582C122.179 267.75 122.626 267.793 123.057 267.707C123.488 267.62 123.883 267.408 124.193 267.096C124.503 266.785 124.714 266.388 124.798 265.957C124.883 265.526 124.838 265.079 124.668 264.674C124.498 264.268 124.212 263.922 123.846 263.679C123.48 263.437 123.049 263.308 122.61 263.31C122.319 263.31 122.031 263.368 121.762 263.479C121.493 263.591 121.249 263.755 121.044 263.961C120.838 264.167 120.676 264.412 120.565 264.681C120.455 264.951 120.399 265.239 120.4 265.53Z" fill="#285430"/>
<path d="M104.57 265.53C104.572 265.967 104.703 266.393 104.947 266.755C105.191 267.117 105.537 267.399 105.941 267.565C106.345 267.73 106.789 267.773 107.217 267.686C107.645 267.6 108.038 267.389 108.346 267.079C108.654 266.77 108.864 266.376 108.948 265.948C109.033 265.519 108.988 265.075 108.821 264.672C108.653 264.269 108.37 263.924 108.007 263.682C107.643 263.439 107.217 263.31 106.78 263.31C106.489 263.31 106.201 263.368 105.932 263.479C105.663 263.591 105.419 263.755 105.214 263.961C105.008 264.167 104.846 264.412 104.735 264.681C104.625 264.951 104.569 265.239 104.57 265.53Z" fill="#285430"/>
<path d="M102.07 152.87H92.7999C93.6542 157.367 94.1922 161.918 94.4099 166.49C94.4099 171.49 87.3499 191.32 97.4099 191.32C107.47 191.32 100.41 171.54 100.41 166.49C100.644 161.917 101.199 157.366 102.07 152.87Z" fill="#285430"/>
<path d="M66.8 173.15V179.15C66.8106 182.366 68.093 185.448 70.3674 187.723C72.6418 189.997 75.7236 191.279 78.94 191.29H84.94C88.1565 191.279 91.2383 189.997 93.5127 187.723C95.7871 185.448 97.0695 182.366 97.08 179.15V173.15H66.8Z" fill="#5F8D4E"/>
<path d="M195.67 229.26C195.67 236.26 203.5 241.98 213.07 241.98H221.71C231.28 241.98 239.11 236.26 239.11 229.26H195.67Z" fill="#285430"/>
<path d="M424.61 219C419.37 223.28 412.13 231.11 405.51 242.13C401.09 249.47 398.43 257.13 397.26 267.31C397.26 255.81 397.33 243.46 397.37 231.8C398.7 228.8 401.74 221.88 403.92 216.42C411.19 198.19 413.92 193.7 420.45 177.98C429.18 156.98 438.12 132.12 435.56 134.11C430.34 138.16 410.34 175.61 408.18 180.97C402.292 195.274 398.653 210.403 397.39 225.82C397.39 214.82 397.47 204.82 397.51 197.06C397.65 171.75 398.08 163.58 398.29 161.06C399.1 159.78 400.05 158.29 400.61 157.49C405.31 150.69 407.12 144.91 411.54 134.77C417.82 120.42 423.22 94.93 421.64 96.21C415.06 101.57 409.88 113.07 403.06 127.74C396.24 142.41 398.19 150.84 396.84 163.36C396.56 165.82 396.34 175.09 396.18 187.95C394.42 174.25 391.1 165.23 385.05 157.03C377.61 146.94 370.41 140.13 365.13 136.57C359.85 133.01 374.25 157.79 381.13 168.57C387.26 178.21 392.91 186.7 396.13 195.07C395.96 212.5 395.88 234.56 395.88 255.07C394.3 245.73 391.72 235.66 388.28 227.87C384.14 218.51 377.78 204.15 372.71 199.28C371.5 198.11 378.01 226.04 382.19 233.46C386.37 240.88 389.44 247.89 392.07 252.1C392.68 253.1 394.72 256.87 395.88 259.05C395.88 284.12 396.02 306.24 396.24 313.77H397.32C397.25 311.83 397.23 299.07 397.26 282.19C399.87 273.03 405.83 262.57 410.75 253.03C416.11 242.7 429.85 214.75 424.61 219Z" fill="#A4BE7B"/>
<path d="M412.44 329.21H381.1L378.73 298.49H414.81L412.44 329.21Z" fill="#222831"/>
<path d="M417.14 302.07H376.39L375.23 291.7H418.31L417.14 302.07Z" fill="#5F8D4E"/>
<path d="M124.26 20.4902H68.21V82.0402H124.26V20.4902Z" fill="#285430"/>
<path d="M130.33 20.4902H72.4299V82.0402H130.33V20.4902Z" fill="#5F8D4E"/>
<path d="M125.48 77.2001V25.3501L77.28 25.3501V77.2001H125.48Z" fill="#FAFFF2"/>
<path d="M113.79 64.6202V37.9102H88.96V64.6202H113.79Z" fill="#5F8D4E"/>
<path d="M410.05 27.6699H357.98V84.8499H410.05V27.6699Z" fill="#285430"/>
<path d="M415.69 27.6699H361.91V84.8499H415.69V27.6699Z" fill="#5F8D4E"/>
<path d="M411.19 80.3397V32.1797H366.42V80.3397H411.19Z" fill="#FAFFF2"/>
<path d="M388.8 70.23C396.515 70.23 402.77 63.9755 402.77 56.26C402.77 48.5446 396.515 42.29 388.8 42.29C381.085 42.29 374.83 48.5446 374.83 56.26C374.83 63.9755 381.085 70.23 388.8 70.23Z" fill="#5F8D4E"/>
<path d="M182.49 57.1899H140.91V102.85H182.49V57.1899Z" fill="#285430"/>
<path d="M186.99 57.1899H144.04V102.85H186.99V57.1899Z" fill="#5F8D4E"/>
<path d="M183.39 99.25V60.79H147.64V99.25H183.39Z" fill="#FAFFF2"/>
<path d="M165.52 70.2998L155.74 87.2398H175.3L165.52 70.2998Z" fill="#5F8D4E"/>
<path d="M250 372.56C357.083 372.56 443.89 367.492 443.89 361.24C443.89 354.988 357.083 349.92 250 349.92C142.918 349.92 56.1101 354.988 56.1101 361.24C56.1101 367.492 142.918 372.56 250 372.56Z" fill="#E5D9B6" fill-opacity="0.4"/>
<path d="M349.25 108.43L339.33 104.43C339.33 104.43 326.24 128.3 322.49 129.51C317.39 131.15 306.83 135.71 300.57 136.51C299.72 137.51 298.33 140.62 298.46 141.75C306.87 144.56 325.35 140.83 329.31 137.89C338.32 131.22 349.25 108.43 349.25 108.43Z" fill="#E58A7B"/>
<path d="M352.3 103C354.15 109.83 344.13 123.57 344.13 123.57L331 116.21C331 116.21 333.46 110.56 336.46 104.81C341.27 95.5198 350.19 95.2098 352.3 103Z" fill="#0F3015"/>
<path opacity="0.2" d="M352.3 103C354.15 109.83 344.13 123.57 344.13 123.57L331 116.21C331 116.21 333.46 110.56 336.46 104.81C341.27 95.5198 350.19 95.2098 352.3 103Z" fill="#F46D80"/>
<path opacity="0.2" d="M336.21 119.15L341.38 122.05L342.29 106.18C339.28 108.49 337.16 115.45 336.21 119.15Z" fill="#F46D80"/>
<path d="M343.66 97.8601C343.66 97.8601 333.44 120.6 339.4 162.94H379.67C380.31 156.76 378.19 126.6 385.86 97.4801C381.442 96.6168 376.973 96.0456 372.48 95.7701C366.782 95.4399 361.069 95.4399 355.37 95.7701C351.42 96.1713 347.505 96.8699 343.66 97.8601Z" fill="#0F3015"/>
<path opacity="0.2" d="M343.66 97.8601C343.66 97.8601 333.44 120.6 339.4 162.94H379.67C380.31 156.76 378.19 126.6 385.86 97.4801C381.442 96.6168 376.973 96.0456 372.48 95.7701C366.782 95.4399 361.069 95.4399 355.37 95.7701C351.42 96.1713 347.505 96.8699 343.66 97.8601Z" fill="#F46D80"/>
<g style="mix-blend-mode:multiply">
<path d="M334.32 362.14C334.26 363.22 349.53 364.09 368.42 364.09C387.31 364.09 402.69 363.22 402.75 362.14C402.81 361.06 387.55 360.2 368.65 360.2C349.75 360.2 334.39 361.07 334.32 362.14Z" fill="#0F3015" fill-opacity="0.25"/>
</g>
<path d="M361.2 333.763L354.058 336.527L360.211 352.421L367.353 349.656L361.2 333.763Z" fill="#E58A7B"/>
<path d="M393.05 354.45H385.52L382.76 337.02H390.29L393.05 354.45Z" fill="#E58A7B"/>
<path d="M385 353.58H393.46C393.607 353.581 393.749 353.633 393.86 353.728C393.972 353.823 394.046 353.955 394.07 354.1L395.16 360.79C395.183 360.958 395.17 361.129 395.121 361.291C395.072 361.453 394.988 361.603 394.876 361.73C394.765 361.857 394.627 361.959 394.472 362.028C394.317 362.097 394.149 362.132 393.98 362.13C391.03 362.08 389.61 361.9 385.89 361.9C383.6 361.9 378.89 362.14 375.71 362.14C372.53 362.14 372.32 359.02 373.63 358.73C379.51 357.46 381.79 355.73 383.75 354.05C384.096 353.747 384.54 353.579 385 353.58Z" fill="#011204"/>
<path d="M360 351L368 348.66C368.142 348.62 368.295 348.63 368.431 348.688C368.568 348.746 368.68 348.849 368.75 348.98L371.75 354.98C371.819 355.132 371.855 355.298 371.854 355.465C371.853 355.633 371.816 355.798 371.744 355.949C371.673 356.101 371.569 356.235 371.44 356.342C371.312 356.449 371.161 356.527 371 356.57C368.09 357.37 366.14 357.86 362.5 358.92C359.99 359.65 357.43 360.84 354.95 361.63C353.23 362.18 349.19 362.2 347.1 362.2C344.01 362.2 343.32 358.94 344.65 358.79C348 358.42 348.45 358.59 350.3 357.66C353.327 356.337 356.07 354.442 358.38 352.08C358.815 351.584 359.374 351.211 360 351Z" fill="#011204"/>
<path d="M301.83 136.47L293.55 133L290.14 142.18C293.534 142.697 296.986 142.697 300.38 142.18L301.83 136.47Z" fill="#E58A7B"/>
<path d="M287.39 132.76L287.17 138.86L290.14 142.16L293.55 132.98L287.39 132.76Z" fill="#E58A7B"/>
<path d="M362.18 335.112L355.016 337.878L358.189 346.097L365.353 343.331L362.18 335.112Z" fill="#CF6F64"/>
<path d="M390.29 337.02H382.76L384.19 346.01H391.72L390.29 337.02Z" fill="#CF6F64"/>
<path opacity="0.2" d="M338.12 151.49C338.27 153.3 338.44 155.15 338.66 157.05L368.6 147.33C373.276 145.944 377.339 143.006 380.12 139C380.24 136.33 380.39 133.52 380.62 130.59C380.72 129.17 380.84 127.71 380.97 126.23C381.1 124.75 381.28 123.11 381.47 121.53L338.12 151.49Z" fill="#F46D80"/>
<path d="M347.9 118.69L346.9 118.57C347.49 113.57 351.22 109.63 355.15 109.73V110.73C351.71 110.66 348.43 114.21 347.9 118.69Z" fill="#FAFFF2"/>
<path d="M353.23 127.92H353.06V126.92C356.5 127.05 359.73 123.46 360.26 118.99L361.26 119.11C360.73 124 357.12 127.92 353.23 127.92Z" fill="#FAFFF2"/>
<path d="M371.92 76.5C370.51 82.01 368.85 92.1 372.48 95.77C372.48 95.77 369.94 101.36 359.71 101.36C350.36 101.36 355.37 95.77 355.37 95.77C361.59 94.31 361.7 89.77 360.88 85.47L371.92 76.5Z" fill="#E58A7B"/>
<path d="M367.42 80.1602L360.89 85.4702C361.093 86.4583 361.21 87.462 361.24 88.4702C363.15 90.3702 366.98 85.5602 367.37 83.1002C367.568 82.1317 367.585 81.1348 367.42 80.1602Z" fill="#CF6F64"/>
<path d="M349.66 76.4302C350.114 77.2177 350.726 77.903 351.457 78.4433C352.189 78.9836 353.023 79.3672 353.91 79.5702C356.31 80.1002 357.51 77.8902 356.85 75.6702C356.26 73.6702 354.29 70.9802 351.85 71.4402C351.327 71.5478 350.838 71.7792 350.423 72.1148C350.008 72.4504 349.68 72.8806 349.465 73.3692C349.251 73.8579 349.156 74.3908 349.19 74.9233C349.224 75.4559 349.385 75.9726 349.66 76.4302Z" fill="#CF6F64"/>
<path d="M353.63 58.8002C349.89 60.5102 348.57 75.3702 353.27 77.5702C357.97 79.7702 360.71 55.5502 353.63 58.8002Z" fill="#011204"/>
<path d="M373.06 68.2097C372.16 75.6697 372.06 80.0598 368.06 83.8798C366.82 85.1474 365.255 86.0479 363.536 86.4817C361.817 86.9156 360.011 86.8659 358.319 86.3383C356.626 85.8107 355.112 84.8255 353.944 83.4917C352.776 82.1579 352 80.5272 351.7 78.7797C350.49 72.0797 352.16 61.0097 359.64 58.0397C361.212 57.3465 362.94 57.0863 364.646 57.286C366.352 57.4857 367.974 58.1382 369.343 59.1756C370.712 60.2131 371.778 61.5978 372.432 63.1863C373.086 64.7748 373.302 66.5092 373.06 68.2097Z" fill="#E58A7B"/>
<path d="M360.77 62.6599C366.31 61.2499 370.38 60.2899 368.92 64.8999C366.99 71.0599 364.67 77.0199 367.78 77.2899C369.68 77.4599 378.08 73.8999 377.01 70.2899C376.08 67.1499 380.01 66.2899 380.71 64.6999C383.3 58.9399 375.89 59.6999 377.21 56.1999C378.53 52.6999 371.21 47.0599 367.21 49.8699C360.7 54.4099 349.53 54.3399 355.4 46.8699C359.61 41.5399 352.1 42.6299 352.1 42.6299C352.1 42.6299 356.64 45.3199 349 49.4799C340.92 53.9199 348.33 65.8499 360.77 62.6599Z" fill="#011204"/>
<path d="M376 76.4302C374.906 78.0127 373.263 79.1319 371.39 79.5702C368.92 80.1002 367.97 77.8902 368.9 75.6702C369.73 73.6702 372.01 70.9802 374.37 71.4402C376.73 71.9002 377.27 74.4702 376 76.4302Z" fill="#E58A7B"/>
<path d="M339.4 162.94C339.4 162.94 332.64 223.44 332.11 246.4C331.57 270.28 355.02 344.79 355.02 344.79L367.02 339.79C367.02 339.79 353.02 271.71 355.02 248.26C357.14 222.69 365.9 162.98 365.9 162.98L339.4 162.94Z" fill="#0F3015"/>
<path opacity="0.2" d="M356.2 179.55C350.81 190.73 354.44 212.84 357.36 225.94C358.47 216.69 359.79 206.65 361.04 197.36C360.92 183.08 359.81 172.05 356.2 179.55Z" fill="#F46D80"/>
<path d="M366.49 335.83C366.55 335.83 367.91 339.65 367.91 339.65L354.07 345.47L351.89 341.41L366.49 335.83Z" fill="#0F3015"/>
<path d="M353.69 162.94C353.69 162.94 358.86 220.48 362.28 242.03C366.04 265.64 380.78 344.27 380.78 344.27H394.57C394.57 344.27 386.31 267.55 384.75 244.17C383.05 218.81 379.67 162.94 379.67 162.94H353.69Z" fill="#0F3015"/>
<path d="M394.78 340.68C394.84 340.68 395.24 344.53 395.24 344.53H380.08L379 340.11L394.78 340.68Z" fill="#0F3015"/>
<path opacity="0.2" d="M389.5 336.12C389.469 336.12 389.438 336.11 389.415 336.089C389.391 336.069 389.375 336.041 389.37 336.01C389.29 335.31 381.84 266.01 380.44 245.01C378.92 222.23 375.86 171.7 375.83 171.19C375.829 171.173 375.831 171.157 375.836 171.141C375.842 171.125 375.85 171.111 375.861 171.099C375.873 171.086 375.886 171.077 375.902 171.07C375.917 171.063 375.933 171.06 375.95 171.06C375.983 171.06 376.014 171.072 376.039 171.095C376.063 171.117 376.077 171.147 376.08 171.18C376.08 171.69 379.17 222.18 380.69 245C382.09 266 389.54 335.25 389.61 336C389.613 336.017 389.612 336.034 389.608 336.05C389.604 336.066 389.596 336.081 389.586 336.094C389.576 336.108 389.563 336.119 389.548 336.126C389.533 336.134 389.517 336.139 389.5 336.14V336.12Z" fill="#F46D80"/>
<path d="M361.62 70.2899C361.62 70.8999 361.24 71.3899 360.84 71.3899C360.44 71.3899 360.15 70.8999 360.19 70.2899C360.23 69.6799 360.57 69.1899 360.97 69.1899C361.37 69.1899 361.66 69.6899 361.62 70.2899Z" fill="#011204"/>
<path d="M354.76 70.2899C354.76 70.8999 354.37 71.3899 353.98 71.3899C353.59 71.3899 353.29 70.8999 353.32 70.2899C353.35 69.6799 353.71 69.1899 354.11 69.1899C354.51 69.1899 354.8 69.6899 354.76 70.2899Z" fill="#011204"/>
<path d="M356.92 70.6001C356.085 72.4628 355.009 74.2077 353.72 75.7901C354.72 76.7901 356.59 76.3301 356.59 76.3301L356.92 70.6001Z" fill="#DF5753"/>
<path d="M357.1 78.8802C357.077 78.8802 357.054 78.8755 357.033 78.8663C357.011 78.8572 356.992 78.8437 356.976 78.8269C356.96 78.81 356.948 78.7901 356.94 78.7683C356.932 78.7465 356.929 78.7233 356.93 78.7002C356.933 78.6515 356.954 78.6057 356.989 78.5722C357.024 78.5387 357.071 78.5201 357.12 78.5202C357.885 78.5255 358.641 78.3593 359.333 78.034C360.025 77.7087 360.636 77.2324 361.12 76.6402C361.155 76.6099 361.199 76.5933 361.245 76.5933C361.291 76.5933 361.335 76.6099 361.37 76.6402C361.402 76.6737 361.42 76.7185 361.42 76.7652C361.42 76.8118 361.402 76.8566 361.37 76.8902C360.852 77.5196 360.2 78.025 359.461 78.3694C358.722 78.7137 357.915 78.8883 357.1 78.8802Z" fill="#011204"/>
<path d="M362.84 68.4499C362.792 68.4744 362.739 68.4872 362.685 68.4872C362.631 68.4872 362.578 68.4744 362.53 68.4499C362.156 68.208 361.73 68.0576 361.287 68.0107C360.844 67.9638 360.396 68.0217 359.98 68.1799C359.939 68.2002 359.895 68.2121 359.85 68.215C359.804 68.218 359.759 68.2118 359.716 68.1969C359.673 68.182 359.634 68.1586 359.6 68.1282C359.566 68.0978 359.539 68.061 359.52 68.0199C359.483 67.9309 359.482 67.8309 359.517 67.7412C359.553 67.6516 359.622 67.5793 359.71 67.5399C360.233 67.3263 360.799 67.2421 361.361 67.2943C361.924 67.3466 362.465 67.5337 362.94 67.8399C362.978 67.8659 363.011 67.8993 363.036 67.9382C363.061 67.977 363.079 68.0205 363.087 68.066C363.096 68.1116 363.095 68.1584 363.085 68.2037C363.075 68.249 363.056 68.2919 363.03 68.3299C362.979 68.3872 362.913 68.4288 362.84 68.4499Z" fill="#011204"/>
<path d="M352.11 66.4498C352.056 66.4369 352.008 66.4092 351.97 66.3698C351.937 66.3372 351.91 66.2983 351.892 66.2554C351.874 66.2124 351.865 66.1664 351.865 66.1198C351.865 66.0732 351.874 66.0271 351.892 65.9842C351.91 65.9413 351.937 65.9024 351.97 65.8698C352.353 65.4399 352.83 65.1044 353.365 64.8893C353.899 64.6742 354.476 64.5854 355.05 64.6298C355.096 64.6369 355.14 64.6534 355.179 64.6782C355.219 64.703 355.252 64.7356 355.279 64.7741C355.305 64.8125 355.323 64.8559 355.332 64.9016C355.341 64.9473 355.34 64.9944 355.33 65.0398C355.308 65.1324 355.254 65.214 355.177 65.2692C355.099 65.3244 355.004 65.3495 354.91 65.3398C354.455 65.3112 354 65.3863 353.579 65.5596C353.158 65.7328 352.782 65.9996 352.48 66.3398C352.434 66.3904 352.376 66.4275 352.31 66.4469C352.245 66.4663 352.176 66.4673 352.11 66.4498Z" fill="#011204"/>
<path d="M389.73 107.32L379.33 104.55C379.33 104.55 369.13 129.66 365.52 131.29C360.62 133.53 348.21 141.29 342.93 144.96C342.64 146.21 342.87 149.52 343.53 150.43C352.53 148.79 369.76 142.16 373.36 138.79C381.57 131.1 389.73 107.32 389.73 107.32Z" fill="#E58A7B"/>
<path d="M382.47 354.9C381.962 354.94 381.457 354.802 381.04 354.51C380.911 354.393 380.815 354.246 380.76 354.081C380.706 353.916 380.695 353.74 380.73 353.57C380.736 353.464 380.771 353.361 380.831 353.273C380.891 353.185 380.973 353.115 381.07 353.07C381.91 352.64 384.26 354.13 384.53 354.3C384.559 354.318 384.582 354.346 384.595 354.378C384.608 354.41 384.609 354.446 384.6 354.48C384.591 354.515 384.574 354.547 384.549 354.573C384.525 354.599 384.494 354.619 384.46 354.63C383.808 354.79 383.141 354.88 382.47 354.9ZM381.47 353.34C381.394 353.323 381.315 353.323 381.24 353.34C381.201 353.359 381.17 353.389 381.148 353.427C381.127 353.464 381.117 353.507 381.12 353.55C381.093 353.666 381.098 353.787 381.133 353.902C381.168 354.016 381.232 354.119 381.32 354.2C381.71 354.55 382.69 354.59 383.98 354.34C383.212 353.834 382.347 353.493 381.44 353.34H381.47Z" fill="#0F3015"/>
<path d="M384.41 354.63C384.384 354.638 384.356 354.638 384.33 354.63C383.58 354.21 382.17 352.56 382.38 351.72C382.411 351.587 382.487 351.468 382.594 351.383C382.701 351.298 382.833 351.251 382.97 351.25C383.104 351.232 383.241 351.243 383.37 351.283C383.5 351.323 383.619 351.39 383.72 351.48C384.55 352.19 384.6 354.37 384.6 354.48C384.605 354.513 384.599 354.546 384.582 354.575C384.566 354.604 384.541 354.627 384.51 354.64C384.476 354.647 384.442 354.643 384.41 354.63ZM383.07 351.58H383C382.77 351.58 382.74 351.71 382.73 351.76C382.61 352.25 383.5 353.5 384.24 354.09C384.237 353.245 383.975 352.422 383.49 351.73C383.374 351.629 383.224 351.575 383.07 351.58Z" fill="#0F3015"/>
<path d="M355.92 353.65C355.308 353.863 354.642 353.863 354.03 353.65C353.891 353.575 353.773 353.466 353.688 353.333C353.602 353.2 353.551 353.048 353.54 352.89C353.527 352.791 353.54 352.691 353.577 352.598C353.613 352.505 353.673 352.423 353.75 352.36C354.55 351.64 357.82 352.36 358.19 352.5C358.225 352.509 358.256 352.53 358.278 352.559C358.3 352.588 358.311 352.624 358.31 352.66C358.311 352.698 358.302 352.735 358.282 352.767C358.263 352.799 358.234 352.824 358.2 352.84C357.464 353.172 356.701 353.443 355.92 353.65ZM354.29 352.46C354.176 352.483 354.069 352.535 353.98 352.61C353.948 352.634 353.924 352.666 353.909 352.703C353.895 352.741 353.892 352.781 353.9 352.82C353.906 352.925 353.939 353.027 353.995 353.116C354.051 353.205 354.128 353.278 354.22 353.33C354.75 353.61 355.98 353.39 357.57 352.72C356.499 352.45 355.39 352.362 354.29 352.46Z" fill="#0F3015"/>
<path d="M358.17 352.84H358.09C357.09 352.66 355.09 351.51 355.03 350.65C355.03 350.45 355.12 350.17 355.6 350.01C355.762 349.952 355.934 349.928 356.106 349.938C356.278 349.948 356.446 349.993 356.6 350.07C357.68 350.6 358.25 352.52 358.28 352.61C358.287 352.64 358.286 352.672 358.277 352.701C358.268 352.731 358.252 352.758 358.23 352.78C358.215 352.804 358.194 352.825 358.17 352.84ZM355.8 350.31H355.7C355.39 350.42 355.39 350.55 355.39 350.59C355.39 351.11 356.84 352.06 357.85 352.38C357.617 351.577 357.125 350.873 356.45 350.38C356.249 350.278 356.018 350.253 355.8 350.31Z" fill="#0F3015"/>
<path d="M343.78 144.37L333.35 149.17L332.14 152.17L335.99 154.76C335.99 154.76 343.19 153.98 345.24 149.35L343.78 144.37Z" fill="#E58A7B"/>
<path d="M344.22 150.6C343.987 148.596 343.325 146.665 342.28 144.94L343.93 143.7C345.171 145.688 345.963 147.923 346.25 150.25L344.22 150.6Z" fill="#011204"/>
<path d="M346 145.79C346.22 146.137 346.329 146.543 346.31 146.954C346.291 147.364 346.147 147.759 345.896 148.084C345.645 148.41 345.3 148.65 344.907 148.772C344.515 148.895 344.095 148.893 343.703 148.768C343.312 148.643 342.968 148.4 342.72 148.073C342.471 147.746 342.329 147.35 342.313 146.939C342.298 146.529 342.409 146.123 342.632 145.778C342.855 145.433 343.179 145.164 343.56 145.01C343.987 144.792 344.483 144.752 344.94 144.898C345.397 145.044 345.778 145.365 346 145.79Z" fill="#011204"/>
<path d="M326.3 153.05L327.69 154.45L337.05 150.45L333.35 149.17L326.3 153.05Z" fill="#E58A7B"/>
<path opacity="0.2" d="M366.49 335.83C366.55 335.83 367.91 339.65 367.91 339.65L354.07 345.47L351.89 341.41L366.49 335.83Z" fill="#F46D80"/>
<path opacity="0.2" d="M394.78 340.68C394.84 340.68 395.24 344.53 395.24 344.53H380.08L379 340.11L394.78 340.68Z" fill="#F46D80"/>
<path d="M392.44 104.44C395.19 113.31 384.44 125.44 384.44 125.44L369.59 119.38C371.35 114.253 373.38 109.223 375.67 104.31C380.23 94.4801 389.66 95.4902 392.44 104.44Z" fill="#0F3015"/>
<path opacity="0.2" d="M392.44 104.44C395.19 113.31 384.44 125.44 384.44 125.44L369.59 119.38C371.35 114.253 373.38 109.223 375.67 104.31C380.23 94.4801 389.66 95.4902 392.44 104.44Z" fill="#F46D80"/>
<path d="M239.005 16.0698H244.365C244.368 16.0698 244.369 16.0703 244.37 16.0708C244.372 16.0714 244.374 16.0725 244.375 16.0742C244.377 16.0759 244.378 16.0777 244.379 16.0791C244.379 16.0802 244.38 16.0818 244.38 16.0848C244.38 16.0878 244.379 16.0894 244.379 16.0905C244.378 16.0919 244.377 16.0937 244.375 16.0954C244.374 16.0972 244.372 16.0982 244.37 16.0989C244.369 16.0993 244.368 16.0998 244.365 16.0998H239.005C239.002 16.0998 239 16.0993 238.999 16.0989C238.998 16.0982 238.996 16.0972 238.994 16.0954C238.992 16.0937 238.991 16.0919 238.991 16.0905C238.99 16.0894 238.99 16.0878 238.99 16.0848C238.99 16.0818 238.99 16.0802 238.991 16.0791C238.991 16.0777 238.992 16.0759 238.994 16.0742C238.996 16.0725 238.998 16.0714 238.999 16.0708C239 16.0703 239.002 16.0698 239.005 16.0698Z" fill="#FAFFF2" stroke="#0F3015"/>
<path d="M327.347 72.9968L328.074 56.8632C328.074 56.8602 328.075 56.8586 328.076 56.8575C328.076 56.8561 328.077 56.8544 328.079 56.8528C328.081 56.8511 328.083 56.8501 328.084 56.8496C328.085 56.8492 328.087 56.8487 328.09 56.8489C328.093 56.849 328.095 56.8496 328.096 56.8501C328.097 56.8508 328.099 56.8519 328.1 56.8537C328.102 56.8555 328.103 56.8573 328.104 56.8588C328.104 56.8599 328.104 56.8615 328.104 56.8645L327.377 72.9982C327.377 73.0011 327.377 73.0027 327.376 73.0038C327.375 73.0052 327.374 73.0069 327.372 73.0085C327.371 73.0102 327.369 73.0112 327.367 73.0117C327.366 73.0122 327.365 73.0126 327.362 73.0125C327.359 73.0123 327.357 73.0117 327.356 73.0112C327.355 73.0106 327.353 73.0094 327.351 73.0076C327.35 73.0058 327.349 73.004 327.348 73.0025C327.348 73.0014 327.347 72.9998 327.347 72.9968Z" fill="#FAFFF2" stroke="#0F3015"/>
<path d="M212.391 20.6899H320.381C322.946 20.6899 324.991 22.8292 324.877 25.3908L314.344 261.111C314.236 263.516 312.255 265.41 309.848 265.41H201.858C199.294 265.41 197.248 263.271 197.363 260.709L207.896 24.9891C208.003 22.5843 209.984 20.6899 212.391 20.6899Z" fill="#FAFFF2" stroke="#0F3015"/>
<path opacity="0.56" d="M208.871 24.0601H316.861C319.426 24.0601 321.471 26.1994 321.357 28.7609L310.824 264.481C310.716 266.886 308.735 268.78 306.328 268.78H198.338C195.774 268.78 193.728 266.641 193.843 264.079L204.376 28.3592C204.483 25.9544 206.464 24.0601 208.871 24.0601Z" fill="#FAFFF2" stroke="#0F3015"/>
<path d="M209.202 134.6H299.912C302.476 134.6 304.522 136.739 304.407 139.3L304.014 148.11C303.906 150.515 301.926 152.41 299.518 152.41H208.808C206.244 152.41 204.198 150.27 204.313 147.709L204.706 138.899C204.814 136.494 206.795 134.6 209.202 134.6Z" fill="#0F3015" stroke="#0F3015"/>
<path d="M209.054 120.89H255.416C257.526 120.89 259.21 122.649 259.117 124.757C259.03 126.738 257.398 128.3 255.416 128.3H209.054C206.944 128.3 205.26 126.54 205.352 124.432C205.439 122.451 207.071 120.89 209.054 120.89Z" fill="#FAFFF2" stroke="#0F3015"/>
<path d="M206.932 185.35H297.642C300.206 185.35 302.252 187.489 302.137 190.05L301.744 198.85C301.637 201.255 299.656 203.15 297.248 203.15H206.538C203.974 203.15 201.928 201.01 202.043 198.449L202.436 189.649C202.544 187.244 204.524 185.35 206.932 185.35Z" fill="#0F3015" stroke="#0F3015"/>
<path opacity="0.47" d="M221.451 229.53H279.171C281.735 229.53 283.781 231.669 283.666 234.231L283.104 246.771C282.996 249.176 281.016 251.07 278.609 251.07H220.889C218.324 251.07 216.278 248.93 216.393 246.368L216.955 233.828C217.063 231.424 219.044 229.53 221.451 229.53Z" fill="#0F3015" stroke="#0F3015"/>
<mask id="path-109-inside-1_31_6217" fill="white">
<path d="M-nan -nanL279.87 255.07H212.157C212.146 255.07 212.134 255.071 212.123 255.073C212.123 255.073 212.122 255.073 212.122 255.073C212.077 255.08 212.036 255.043 212.045 254.998V254.998C212.047 254.986 212.05 254.973 212.051 254.961L213.05 232.44C213.05 232.424 213.053 232.409 213.059 232.395C213.065 232.381 213.074 232.369 213.086 232.358C213.097 232.348 213.11 232.34 213.125 232.335C213.139 232.33 213.155 232.328 213.17 232.33H280.858C280.886 232.33 280.913 232.32 280.94 232.32V232.32V232.32C280.967 232.32 280.99 232.342 280.991 232.369C280.991 232.369 280.991 232.37 280.991 232.37V232.37C280.991 232.397 280.979 232.424 280.978 232.452L280.003 254.921C280.001 254.973 279.991 255.03 279.946 255.055V255.055C279.923 255.067 279.896 255.073 279.87 255.07L-nan -nanL-nan -nanZM212.494 249.606C212.367 252.452 214.64 254.83 217.489 254.83H274.969C277.643 254.83 279.844 252.725 279.964 250.054L280.516 237.754C280.643 234.907 278.37 232.53 275.521 232.53H218.041C215.366 232.53 213.166 234.634 213.046 237.306L212.494 249.606Z"/>
</mask>
<path d="M-nan -nanL279.87 255.07H212.157C212.146 255.07 212.134 255.071 212.123 255.073C212.123 255.073 212.122 255.073 212.122 255.073C212.077 255.08 212.036 255.043 212.045 254.998V254.998C212.047 254.986 212.05 254.973 212.051 254.961L213.05 232.44C213.05 232.424 213.053 232.409 213.059 232.395C213.065 232.381 213.074 232.369 213.086 232.358C213.097 232.348 213.11 232.34 213.125 232.335C213.139 232.33 213.155 232.328 213.17 232.33H280.858C280.886 232.33 280.913 232.32 280.94 232.32V232.32V232.32C280.967 232.32 280.99 232.342 280.991 232.369C280.991 232.369 280.991 232.37 280.991 232.37V232.37C280.991 232.397 280.979 232.424 280.978 232.452L280.003 254.921C280.001 254.973 279.991 255.03 279.946 255.055V255.055C279.923 255.067 279.896 255.073 279.87 255.07L-nan -nanL-nan -nanZM212.494 249.606C212.367 252.452 214.64 254.83 217.489 254.83H274.969C277.643 254.83 279.844 252.725 279.964 250.054L280.516 237.754C280.643 234.907 278.37 232.53 275.521 232.53H218.041C215.366 232.53 213.166 234.634 213.046 237.306L212.494 249.606Z" fill="#0F3015"/>
<path d="M213.05 232.44L214.049 232.484L214.05 232.46L214.05 232.436L213.05 232.44ZM213.17 232.33L213.079 233.326L213.124 233.33H213.17V232.33ZM279.964 250.054L278.965 250.009L279.964 250.054ZM280.003 254.921L279.004 254.878L280.003 254.921ZM212.051 254.961L213.05 255.005L212.051 254.961ZM280.978 232.452L281.977 232.495L280.978 232.452ZM212.122 255.073L211.972 254.085L212.122 255.073ZM212.123 255.073L212.279 256.061L212.123 255.073ZM280.991 232.369L279.991 232.375L280.991 232.369ZM279.87 254.07H212.157V256.07H279.87V254.07ZM211.967 254.085C211.969 254.085 211.97 254.085 211.972 254.085L212.271 256.062C212.274 256.062 212.276 256.061 212.279 256.061L211.967 254.085ZM213.05 255.005L214.049 232.484L212.051 232.395L211.052 254.916L213.05 255.005ZM214.05 232.436C214.05 232.559 214.025 232.682 213.975 232.796L212.143 231.994C212.081 232.136 212.049 232.289 212.05 232.444L214.05 232.436ZM213.975 232.796C213.926 232.91 213.853 233.012 213.761 233.095L212.41 231.621C212.296 231.725 212.205 231.853 212.143 231.994L213.975 232.796ZM213.761 233.095C213.67 233.179 213.562 233.243 213.444 233.283L212.805 231.388C212.659 231.437 212.524 231.516 212.41 231.621L213.761 233.095ZM213.444 233.283C213.328 233.322 213.203 233.337 213.079 233.326L213.261 231.334C213.106 231.32 212.951 231.338 212.805 231.388L213.444 233.283ZM213.17 233.33H280.858V231.33H213.17V233.33ZM279.991 232.375C279.991 232.373 279.991 232.371 279.991 232.37H281.991C281.991 232.368 281.991 232.366 281.991 232.364L279.991 232.375ZM279.979 232.408L279.004 254.878L281.002 254.965L281.977 232.495L279.979 232.408ZM279.472 254.174C279.627 254.091 279.804 254.056 279.98 254.076L279.76 256.064C279.988 256.089 280.218 256.044 280.42 255.935L279.472 254.174ZM217.489 255.83H274.969V253.83H217.489V255.83ZM280.963 250.098L281.515 237.798L279.517 237.709L278.965 250.009L280.963 250.098ZM275.521 231.53H218.041V233.53H275.521V231.53ZM212.047 237.261L211.495 249.561L213.493 249.65L214.045 237.351L212.047 237.261ZM218.041 231.53C214.832 231.53 212.19 234.055 212.047 237.261L214.045 237.351C214.141 235.213 215.901 233.53 218.041 233.53V231.53ZM281.515 237.798C281.668 234.383 278.94 231.53 275.521 231.53V233.53C277.8 233.53 279.619 235.432 279.517 237.709L281.515 237.798ZM274.969 255.83C278.178 255.83 280.819 253.304 280.963 250.098L278.965 250.009C278.869 252.146 277.109 253.83 274.969 253.83V255.83ZM217.489 253.83C215.21 253.83 213.391 251.928 213.493 249.65L211.495 249.561C211.342 252.977 214.07 255.83 217.489 255.83V253.83ZM280.858 233.33C280.921 233.33 280.973 233.324 281.007 233.32C281.024 233.318 281.039 233.315 281.049 233.314C281.058 233.312 281.067 233.311 281.07 233.31C281.074 233.31 281.072 233.31 281.069 233.31C281.066 233.311 281.058 233.312 281.048 233.314C281.028 233.316 280.989 233.32 280.94 233.32L280.94 231.32C280.877 231.32 280.825 231.326 280.791 231.33C280.774 231.332 280.759 231.335 280.749 231.336C280.74 231.338 280.731 231.339 280.729 231.34C280.725 231.34 280.726 231.34 280.729 231.34C280.732 231.339 280.74 231.338 280.75 231.336C280.771 231.334 280.809 231.33 280.858 231.33V233.33ZM279.004 254.878C279.005 254.872 279.007 254.782 279.047 254.666C279.093 254.537 279.21 254.316 279.472 254.174L280.42 255.935C280.728 255.77 280.872 255.508 280.934 255.33C280.992 255.166 281 255.022 281.002 254.965L279.004 254.878ZM213.027 255.187C213.027 255.188 213.027 255.188 213.027 255.187C213.027 255.186 213.028 255.183 213.028 255.18C213.03 255.174 213.032 255.162 213.034 255.148C213.039 255.119 213.047 255.068 213.05 255.005L211.052 254.916C211.054 254.866 211.06 254.827 211.063 254.811C211.064 254.807 211.064 254.804 211.065 254.801C211.065 254.799 211.065 254.798 211.065 254.798C211.065 254.798 211.065 254.798 211.065 254.798C211.065 254.799 211.065 254.799 211.065 254.8C211.064 254.802 211.064 254.805 211.063 254.809L213.027 255.187ZM279.991 232.37C279.991 232.309 279.997 232.261 280.001 232.234C280.003 232.22 280.006 232.209 280.007 232.203C280.008 232.197 280.009 232.194 280.008 232.196C280.008 232.197 280.008 232.197 280.008 232.198C280.007 232.199 280.007 232.2 280.007 232.202C280.006 232.204 280.005 232.208 280.004 232.213C280.003 232.222 280 232.236 279.996 232.253C279.99 232.287 279.982 232.341 279.979 232.408L281.977 232.495C281.975 232.548 281.968 232.589 281.965 232.609C281.963 232.619 281.961 232.626 281.961 232.629C281.961 232.63 281.96 232.632 281.962 232.625C281.963 232.618 281.97 232.586 281.976 232.547C281.983 232.506 281.991 232.444 281.991 232.37H279.991ZM211.972 254.085C212.515 254.002 213.167 254.462 213.027 255.187L211.063 254.809C210.906 255.623 211.639 256.158 212.271 256.062L211.972 254.085ZM212.157 254.07C212.056 254.07 211.972 254.085 211.967 254.085L212.279 256.061C212.285 256.06 212.272 256.062 212.254 256.064C212.235 256.066 212.201 256.07 212.157 256.07V254.07ZM280.94 233.32C280.456 233.32 279.994 232.936 279.991 232.375L281.991 232.364C281.987 231.748 281.478 231.32 280.94 231.32L280.94 233.32Z" fill="#0F3015" mask="url(#path-109-inside-1_31_6217)"/>
<path d="M206.784 171.63H243.58C245.692 171.63 247.377 173.392 247.282 175.502C247.192 177.481 245.562 179.04 243.58 179.04H206.784C204.674 179.04 202.99 177.28 203.082 175.172C203.169 173.191 204.801 171.63 206.784 171.63Z" fill="#FAFFF2" stroke="#0F3015"/>
<path d="M282.611 73.3524L282.611 73.3563C282.357 78.7245 280.448 83.8827 277.146 88.1226L277.143 88.1265C274.697 91.3299 271.551 93.9305 267.944 95.7287C264.338 97.5269 260.367 98.4749 256.337 98.4999L256.336 98.4999C253.086 98.5246 249.865 97.8838 246.872 96.6167C243.879 95.3496 241.178 93.4832 238.933 91.1324C236.689 88.7816 234.949 85.9961 233.822 82.9477C232.695 79.8992 232.204 76.6522 232.379 73.4068L232.379 73.4054C232.725 66.6567 235.635 60.2949 240.515 55.6208C245.395 50.9467 251.877 48.3136 258.634 48.2598L258.635 48.2598C261.887 48.2295 265.111 48.8664 268.108 50.1313C271.105 51.3962 273.81 53.2621 276.057 55.6137C278.304 57.9654 280.045 60.7529 281.172 63.8039C282.299 66.8549 282.789 70.1047 282.611 73.3524Z" fill="#0F3015" stroke="#0F3015"/>
<path d="M-nan -nanL215.27 143.51C215.222 144.316 214.87 145.073 214.285 145.63C213.701 146.187 212.927 146.501 212.12 146.51C211.73 146.515 211.343 146.439 210.984 146.288C210.625 146.138 210.3 145.915 210.03 145.634C209.76 145.353 209.551 145.019 209.415 144.654C209.279 144.288 209.219 143.899 209.24 143.51C209.283 142.702 209.633 141.942 210.219 141.384C210.805 140.827 211.581 140.514 212.39 140.51C212.779 140.507 213.165 140.583 213.524 140.734C213.883 140.885 214.207 141.108 214.476 141.389C214.746 141.67 214.955 142.003 215.092 142.368C215.228 142.732 215.289 143.121 215.27 143.51L-nan -nanL-nan -nanZ" fill="#FFFDF9"/>
<path d="M-nan -nanL228.75 143.51C228.704 144.317 228.353 145.076 227.768 145.633C227.183 146.19 226.408 146.504 225.6 146.51C225.211 146.513 224.826 146.437 224.467 146.286C224.109 146.134 223.786 145.911 223.517 145.63C223.248 145.349 223.039 145.016 222.904 144.651C222.769 144.287 222.71 143.898 222.73 143.51C222.773 142.704 223.122 141.945 223.706 141.388C224.289 140.83 225.063 140.516 225.87 140.51C226.26 140.505 226.646 140.581 227.006 140.731C227.365 140.882 227.69 141.105 227.96 141.386C228.23 141.667 228.439 142.001 228.575 142.366C228.711 142.731 228.771 143.121 228.75 143.51L-nan -nanL-nan -nanZ" fill="#FFFDF9"/>
<path d="M-nan -nanL242.24 143.51C242.194 144.317 241.843 145.076 241.258 145.633C240.673 146.19 239.898 146.504 239.09 146.51C238.701 146.513 238.315 146.437 237.956 146.286C237.597 146.134 237.273 145.912 237.003 145.631C236.734 145.35 236.524 145.017 236.388 144.652C236.251 144.288 236.191 143.899 236.21 143.51C236.256 142.703 236.607 141.944 237.192 141.387C237.777 140.83 238.552 140.516 239.36 140.51C239.75 140.505 240.136 140.581 240.496 140.731C240.855 140.882 241.18 141.105 241.45 141.386C241.72 141.667 241.929 142.001 242.065 142.366C242.201 142.731 242.261 143.121 242.24 143.51L-nan -nanL-nan -nanZ" fill="#FFFDF9"/>
<path d="M213 194.25C212.952 195.055 212.6 195.813 212.015 196.37C211.431 196.927 210.657 197.241 209.85 197.25C209.46 197.253 209.075 197.176 208.716 197.025C208.357 196.874 208.033 196.651 207.763 196.37C207.494 196.089 207.284 195.757 207.148 195.392C207.011 195.027 206.951 194.638 206.97 194.25C207.015 193.443 207.366 192.684 207.952 192.127C208.537 191.57 209.312 191.256 210.12 191.25C210.509 191.246 210.895 191.323 211.254 191.474C211.613 191.625 211.937 191.848 212.206 192.129C212.476 192.41 212.685 192.743 212.822 193.107C212.958 193.472 213.019 193.861 213 194.25Z" fill="#FFFDF9"/>
<path d="M-nan -nanL226.48 194.25C226.434 195.055 226.085 195.812 225.502 196.369C224.919 196.926 224.146 197.241 223.34 197.25C222.95 197.254 222.564 197.179 222.204 197.028C221.845 196.878 221.52 196.655 221.25 196.374C220.98 196.092 220.771 195.759 220.635 195.393C220.499 195.028 220.439 194.639 220.46 194.25C220.506 193.443 220.857 192.684 221.442 192.127C222.027 191.57 222.802 191.256 223.61 191.25C223.999 191.246 224.384 191.323 224.743 191.474C225.101 191.625 225.424 191.848 225.693 192.129C225.962 192.41 226.171 192.743 226.306 193.108C226.441 193.473 226.5 193.861 226.48 194.25L-nan -nanL-nan -nanZ" fill="#FFFDF9"/>
<path d="M-nan -nanL240 194.25C239.954 195.056 239.603 195.815 239.018 196.373C238.433 196.93 237.658 197.243 236.85 197.25C236.461 197.251 236.076 197.174 235.717 197.022C235.359 196.871 235.036 196.648 234.766 196.367C234.497 196.087 234.288 195.754 234.151 195.39C234.014 195.026 233.952 194.638 233.97 194.25C234.018 193.444 234.37 192.686 234.954 192.13C235.539 191.573 236.313 191.258 237.12 191.25C237.509 191.245 237.896 191.32 238.256 191.471C238.615 191.622 238.94 191.845 239.21 192.126C239.48 192.407 239.689 192.741 239.825 193.106C239.961 193.471 240.02 193.86 240 194.25L-nan -nanL-nan -nanZ" fill="#FFFDF9"/>
<path d="M-nan -nanL253.46 194.25C253.412 195.055 253.06 195.813 252.475 196.37C251.891 196.927 251.117 197.241 250.31 197.25C249.921 197.251 249.536 197.174 249.177 197.022C248.819 196.871 248.496 196.648 248.226 196.367C247.957 196.087 247.748 195.754 247.611 195.39C247.474 195.026 247.412 194.638 247.43 194.25C247.478 193.444 247.83 192.686 248.414 192.129C248.999 191.573 249.773 191.258 250.58 191.25C250.969 191.246 251.355 191.323 251.714 191.474C252.073 191.625 252.397 191.848 252.666 192.129C252.936 192.41 253.145 192.743 253.282 193.107C253.418 193.472 253.479 193.861 253.46 194.25L-nan -nanL-nan -nanZ" fill="#FFFDF9"/>
<path d="M267 194.25C266.952 195.055 266.6 195.813 266.015 196.37C265.431 196.927 264.657 197.241 263.85 197.25C263.46 197.254 263.073 197.179 262.714 197.028C262.355 196.878 262.03 196.655 261.76 196.374C261.49 196.092 261.281 195.759 261.145 195.393C261.009 195.028 260.949 194.639 260.97 194.25C261.015 193.443 261.367 192.684 261.952 192.127C262.537 191.57 263.312 191.256 264.12 191.25C264.509 191.246 264.895 191.323 265.254 191.474C265.613 191.625 265.937 191.848 266.206 192.129C266.476 192.41 266.685 192.743 266.822 193.107C266.958 193.472 267.019 193.861 267 194.25Z" fill="#FFFDF9"/>
<path d="M265.092 57.7313C268.796 61.5187 268.608 67.7628 264.604 71.6779C260.6 75.593 254.354 75.6418 250.65 71.8544C246.946 68.067 247.135 61.8229 251.138 57.9078C255.142 53.9927 261.388 53.9439 265.092 57.7313Z" fill="#FAFFF2" stroke="#0F3015"/>
<path d="M256.337 98.4997L256.336 98.4997C252.436 98.5328 248.588 97.6058 245.131 95.8004C242.882 94.6259 240.843 93.103 239.087 91.2956C237.623 89.7891 237.854 87.3868 239.577 86.1833C244.223 82.9381 250.427 80.9297 257.17 80.9297C263.832 80.9297 269.791 82.8895 274.127 86.0572C275.819 87.2934 275.943 89.7148 274.409 91.1825C272.5 93.0085 270.322 94.5429 267.944 95.7285C264.338 97.5267 260.367 98.4747 256.337 98.4997Z" fill="#FAFFF2" stroke="#0F3015"/>
<path opacity="0.1" d="M265.092 57.7313C268.796 61.5187 268.608 67.7628 264.604 71.6779C260.6 75.593 254.354 75.6418 250.65 71.8544C246.946 68.067 247.135 61.8229 251.138 57.9078C255.142 53.9927 261.388 53.9439 265.092 57.7313Z" fill="#0F3015" stroke="#0F3015"/>
<path opacity="0.1" d="M256.337 98.4997L256.336 98.4997C252.436 98.5328 248.588 97.6058 245.131 95.8004C242.882 94.6259 240.843 93.103 239.087 91.2956C237.623 89.7891 237.854 87.3868 239.577 86.1833C244.223 82.9381 250.427 80.9297 257.17 80.9297C263.832 80.9297 269.791 82.8895 274.127 86.0572C275.819 87.2934 275.943 89.7148 274.409 91.1825C272.5 93.0085 270.322 94.5429 267.944 95.7285C264.338 97.5267 260.367 98.4747 256.337 98.4997Z" fill="#FAFFF2" stroke="#0F3015"/>
<mask id="path-125-inside-2_31_6217" fill="white">
<path d="M-nan -nanL285.52 53.1196C285.455 54.5744 284.937 55.9727 284.04 57.1196C283.376 57.9866 282.522 58.6904 281.545 59.1774C280.568 59.6644 279.492 59.9217 278.4 59.9296C277.342 59.936 276.298 59.6833 275.36 59.1935C274.423 58.7036 273.619 57.9916 273.02 57.1196C272.226 55.9413 271.834 54.5387 271.9 53.1196C271.996 51.294 272.786 49.5741 274.107 48.3105C275.428 47.0469 277.182 46.3349 279.01 46.3196C279.892 46.3116 280.766 46.4842 281.579 46.8268C282.391 47.1695 283.125 47.6749 283.735 48.312C284.345 48.9491 284.818 49.7043 285.125 50.5311C285.432 51.358 285.566 52.2389 285.52 53.1196L-nan -nanL-nan -nanZ"/>
</mask>
<path d="M-nan -nanL285.52 53.1196C285.455 54.5744 284.937 55.9727 284.04 57.1196C283.376 57.9866 282.522 58.6904 281.545 59.1774C280.568 59.6644 279.492 59.9217 278.4 59.9296C277.342 59.936 276.298 59.6833 275.36 59.1935C274.423 58.7036 273.619 57.9916 273.02 57.1196C272.226 55.9413 271.834 54.5387 271.9 53.1196C271.996 51.294 272.786 49.5741 274.107 48.3105C275.428 47.0469 277.182 46.3349 279.01 46.3196C279.892 46.3116 280.766 46.4842 281.579 46.8268C282.391 47.1695 283.125 47.6749 283.735 48.312C284.345 48.9491 284.818 49.7043 285.125 50.5311C285.432 51.358 285.566 52.2389 285.52 53.1196L-nan -nanL-nan -nanZ" fill="#FAFFF2"/>
<path d="M284.04 57.1196L283.252 56.5033L283.246 56.5115L284.04 57.1196ZM278.4 59.9296L278.406 60.9296L278.407 60.9296L278.4 59.9296ZM273.02 57.1196L272.19 57.6782L272.196 57.6859L273.02 57.1196ZM271.9 53.1196L270.901 53.0667L270.901 53.073L271.9 53.1196ZM279.01 46.3196L279.018 47.3196L279.019 47.3196L279.01 46.3196ZM284.521 53.0748C284.465 54.3218 284.021 55.5203 283.252 56.5034L284.827 57.7358C285.853 56.4251 286.444 54.8271 286.519 53.1644L284.521 53.0748ZM283.246 56.5115C282.674 57.2576 281.94 57.8633 281.099 58.2823L281.991 60.0724C283.105 59.5175 284.077 58.7156 284.834 57.7277L283.246 56.5115ZM281.099 58.2823C280.258 58.7014 279.332 58.9228 278.392 58.9296L278.407 60.9296C279.651 60.9205 280.877 60.6274 281.991 60.0724L281.099 58.2823ZM278.394 58.9296C277.499 58.9351 276.616 58.7213 275.823 58.3071L274.897 60.0798C275.98 60.6453 277.185 60.937 278.406 60.9296L278.394 58.9296ZM275.823 58.3071C275.03 57.8928 274.351 57.2907 273.844 56.5533L272.196 57.6859C272.887 58.6925 273.815 59.5144 274.897 60.0798L275.823 58.3071ZM273.849 56.5611C273.176 55.561 272.842 54.3706 272.899 53.1662L270.901 53.073C270.825 54.7067 271.277 56.3215 272.19 57.6782L273.849 56.5611ZM272.898 53.1725C272.982 51.6012 273.661 50.1208 274.798 49.0332L273.416 47.5878C271.911 49.0273 271.011 50.9869 270.901 53.0667L272.898 53.1725ZM274.798 49.0332C275.935 47.9456 277.445 47.3327 279.018 47.3196L279.001 45.3196C276.919 45.337 274.921 46.1482 273.416 47.5878L274.798 49.0332ZM279.019 47.3196C279.764 47.3128 280.503 47.4587 281.19 47.7483L281.967 45.9054C281.029 45.5097 280.019 45.3103 279.001 45.3196L279.019 47.3196ZM281.19 47.7483C281.877 48.0379 282.497 48.4651 283.013 49.0035L284.457 47.6205C283.753 46.8848 282.906 46.3011 281.967 45.9054L281.19 47.7483ZM283.013 49.0035C283.528 49.542 283.928 50.1803 284.187 50.8791L286.062 50.1831C285.708 49.2283 285.162 48.3562 284.457 47.6205L283.013 49.0035ZM284.187 50.8791C284.447 51.578 284.56 52.3225 284.521 53.0669L286.518 53.1723C286.572 52.1552 286.417 51.1379 286.062 50.1831L284.187 50.8791Z" fill="#0F3015" mask="url(#path-125-inside-2_31_6217)"/>
<path d="M130.41 157.44C129.46 159.52 128.46 161.81 127.59 164.03C126.72 166.25 125.83 168.54 125.06 170.82C123.488 175.313 122.29 179.929 121.48 184.62L121.26 186.09C121.239 186.342 121.263 186.596 121.33 186.84C121.566 187.669 121.938 188.453 122.43 189.16C123.714 190.991 125.204 192.668 126.87 194.16C128.626 195.794 130.469 197.333 132.39 198.77C134.31 200.25 136.33 201.69 138.32 203.05L136.45 206.56C131.698 204.49 127.188 201.904 123 198.85C120.766 197.221 118.749 195.312 117 193.17C115.963 191.895 115.154 190.451 114.61 188.9C114.293 187.932 114.131 186.919 114.13 185.9C114.13 185.66 114.13 185.31 114.13 185.14V184.65L114.23 183.65C114.803 178.44 115.899 173.301 117.5 168.31C118.28 165.85 119.11 163.4 120.06 161.01C121.01 158.62 121.99 156.28 123.2 153.85L130.41 157.44Z" fill="#FFBDB3"/>
<path d="M136.91 202.43L143.98 198.85L142.15 206.61C142.15 206.61 137.3 207.97 135.05 205.61L136.91 202.43Z" fill="#FFBDB3"/>
<path d="M150.45 200.12L148.57 206.54L142.15 206.61L143.98 198.85L150.45 200.12Z" fill="#FFBDB3"/>
<path d="M160.43 120C160.808 121.386 161.334 122.727 162 124C161.805 124.22 161.555 124.384 161.275 124.474C160.995 124.564 160.696 124.576 160.41 124.51L160.43 120Z" fill="#DF5753"/>
<path d="M160.22 120.06C160.634 120.06 160.97 119.545 160.97 118.91C160.97 118.275 160.634 117.76 160.22 117.76C159.806 117.76 159.47 118.275 159.47 118.91C159.47 119.545 159.806 120.06 160.22 120.06Z" fill="#011204"/>
<path d="M160 117.8L161.52 117.37C161.52 117.37 160.78 118.55 160 117.8Z" fill="#011204"/>
<path d="M140.9 127.34C141.81 131.99 142.72 140.52 139.46 143.63C139.46 143.63 140.74 148.35 149.39 148.35C158.9 148.35 153.93 143.63 153.93 143.63C148.74 142.39 148.87 138.54 149.78 134.92L140.9 127.34Z" fill="#FFBDB3"/>
<path d="M138.37 116.74C138.85 124.51 138.89 127.81 142.81 131.8C148.72 137.8 158.16 135.52 160.01 127.8C161.68 120.8 160.62 109.28 153.01 106.19C151.339 105.502 149.521 105.251 147.727 105.462C145.932 105.672 144.222 106.337 142.756 107.393C141.29 108.449 140.118 109.862 139.351 111.498C138.583 113.133 138.246 114.937 138.37 116.74Z" fill="#FFBDB3"/>
<path d="M139.14 108C135.24 109.42 130.04 108.36 132.08 120.39C134.24 133.13 130.92 137.32 130.92 137.32C130.92 137.32 145.71 140.47 160.81 137.13C160.81 137.13 156.2 129.07 157.49 123.13C159.14 115.63 157.84 112.86 157.84 112.86C157.84 112.86 144.62 106 139.14 108Z" fill="#011204"/>
<path d="M155.64 120.79C155.644 122.267 156.067 123.713 156.86 124.96C157.92 126.58 159.17 125.96 159.48 124.24C159.76 122.73 159.55 120.06 158.2 119.02C156.85 117.98 155.66 119 155.64 120.79Z" fill="#FFBDB3"/>
<path d="M135.75 109.31C134.63 106.16 139.97 101.31 151.27 103.31C162.57 105.31 163.06 114.72 163.06 114.72L160.78 112L160.88 114.86L149.27 117.09L135.75 109.31Z" fill="#011204"/>
<path d="M136.71 144.16C136.643 143.703 136.758 143.239 137.028 142.865C137.299 142.492 137.705 142.239 138.16 142.16C141.68 141.58 149.68 140.4 153.7 140.96C156.7 141.38 157.48 143.12 157.61 144.55C157.63 144.8 157.597 145.052 157.512 145.289C157.427 145.525 157.292 145.74 157.117 145.92C156.942 146.1 156.73 146.241 156.496 146.332C156.262 146.423 156.011 146.464 155.76 146.45L138.38 145.67C137.97 145.649 137.58 145.488 137.276 145.213C136.972 144.937 136.772 144.566 136.71 144.16Z" fill="#285430"/>
<path opacity="0.6" d="M136.71 144.16C136.643 143.703 136.758 143.239 137.028 142.865C137.299 142.492 137.705 142.239 138.16 142.16C141.68 141.58 149.68 140.4 153.7 140.96C156.7 141.38 157.48 143.12 157.61 144.55C157.63 144.8 157.597 145.052 157.512 145.289C157.427 145.525 157.292 145.74 157.117 145.92C156.942 146.1 156.73 146.241 156.496 146.332C156.262 146.423 156.011 146.464 155.76 146.45L138.38 145.67C137.97 145.649 137.58 145.488 137.276 145.213C136.972 144.937 136.772 144.566 136.71 144.16Z" fill="#FAFFF2"/>
<path d="M146.76 318.86L153.21 323.33L164 308.71L157.55 304.23L146.76 318.86Z" fill="#FFBDB3"/>
<path d="M131.72 318.56L138.53 322.45L148.08 306.98L141.27 303.09L131.72 318.56Z" fill="#FFBDB3"/>
<path d="M163.99 308.71L158.43 316.25L151.98 311.77L157.54 304.24L163.99 308.71Z" fill="#CF6F64"/>
<path d="M141.26 303.1L148.08 306.98L143.16 314.95L136.34 311.07L141.26 303.1Z" fill="#CF6F64"/>
<path d="M152.2 193C152.2 193 177.38 224.73 172.65 255.08C168.84 279.59 146.74 312.78 146.74 312.78L136.35 307.62C143.673 292.945 149.923 277.759 155.05 262.18C156.631 257.343 157.092 252.211 156.399 247.17C155.706 242.128 153.877 237.311 151.05 233.08C138.29 214.45 117.85 225.54 131.6 193H152.2Z" fill="#285430"/>
<path opacity="0.6" d="M152.2 193C152.2 193 177.38 224.73 172.65 255.08C168.84 279.59 146.74 312.78 146.74 312.78L136.35 307.62C143.673 292.945 149.923 277.759 155.05 262.18C156.631 257.343 157.092 252.211 156.399 247.17C155.706 242.128 153.877 237.311 151.05 233.08C138.29 214.45 117.85 225.54 131.6 193H152.2Z" fill="#FAFFF2"/>
<path opacity="0.4" d="M164.55 213.38L160.89 209.74C160.89 210.03 167.98 253.8 169.97 266.1C171.144 262.507 172.043 258.829 172.66 255.1C175 240.21 170.11 225 164.55 213.38Z" fill="#FAFFF2"/>
<path d="M163.44 193C163.44 193 193.76 232.88 194.62 256.79C195.33 276.79 161.62 315.54 161.62 315.54L151.82 309.2C151.82 309.2 171.55 281.68 176.52 259.2C174.6 236.92 134 193 134 193H163.44Z" fill="#285430"/>
<path opacity="0.6" d="M163.44 193C163.44 193 193.76 232.88 194.62 256.79C195.33 276.79 161.62 315.54 161.62 315.54L151.82 309.2C151.82 309.2 171.55 281.68 176.52 259.2C174.6 236.92 134 193 134 193H163.44Z" fill="#FAFFF2"/>
<path d="M125.93 145.41C122.69 146.18 119.58 157.96 119.58 157.96L132.25 166.42C132.25 166.42 136.47 157.1 134.99 153.02C133.46 148.77 130 144.44 125.93 145.41Z" fill="#285430"/>
<path opacity="0.2" d="M128.41 153L127.53 163.27L132.24 166.43C133.54 163.502 134.503 160.436 135.11 157.29L128.41 153Z" fill="#FAFFF2"/>
<path d="M167.19 145.64C167.19 145.64 170.93 146.95 163.44 192.99H131.58C132.12 179.99 132.13 171.99 125.93 145.41C130.391 144.49 134.913 143.895 139.46 143.63C144.277 143.284 149.113 143.284 153.93 143.63C160.15 144.2 167.19 145.64 167.19 145.64Z" fill="#285430"/>
<path d="M170.43 153C171.15 155 171.91 157.15 172.71 159.22C173.51 161.29 174.27 163.42 175.08 165.52L177.53 171.8L178.15 173.37L178.47 174.15L178.62 174.54C178.62 174.61 178.62 174.61 178.62 174.6C178.437 174.342 178.198 174.13 177.92 173.98C177.524 173.747 177.079 173.613 176.62 173.59C176.239 173.578 175.86 173.65 175.51 173.8C175.05 174.01 175.05 174.1 175.06 174.09C175.143 174.023 175.217 173.946 175.28 173.86C175.834 173.133 176.313 172.353 176.71 171.53C177.18 170.61 177.63 169.63 178.08 168.64C178.96 166.64 179.77 164.57 180.58 162.48C181.39 160.39 182.16 158.28 182.91 156.15L185.19 149.77L189.04 150.77C188.28 155.33 187.3 159.77 186.12 164.29C185.55 166.54 184.88 168.77 184.12 171.02C183.74 172.15 183.32 173.27 182.84 174.42C182.34 175.668 181.724 176.867 181 178C180.734 178.381 180.44 178.742 180.12 179.08C179.609 179.632 178.99 180.071 178.3 180.37C177.688 180.633 177.025 180.756 176.36 180.73C175.615 180.702 174.889 180.485 174.25 180.1C173.497 179.63 172.871 178.981 172.43 178.21C172.28 177.95 172.15 177.69 172.06 177.5L171.87 177.12L171.49 176.34L170.73 174.79C169.73 172.71 168.73 170.61 167.86 168.5C166.99 166.39 166.07 164.25 165.21 162.1C164.35 159.95 163.58 157.8 162.85 155.48L170.43 153Z" fill="#FFBDB3"/>
<path d="M167.19 145.64C171.02 146.55 175.33 157.87 175.33 157.87L163.94 167.56C163.94 167.56 156.57 155.22 158.06 151.15C159.61 146.91 162.19 144.45 167.19 145.64Z" fill="#285430"/>
<path d="M187 146.19L191 142.85L193.78 147.18L191.73 150.79C191.73 150.79 188.47 153.79 185.59 152.26C185.133 151.233 185.023 150.084 185.278 148.989C185.532 147.893 186.137 146.911 187 146.19Z" fill="#FFBDB3"/>
<path d="M198.22 142.86L197.92 143.94L191.59 145.01L190.97 142.85L198.22 142.86Z" fill="#FFBDB3"/>
<path d="M162.4 316.05L150.98 308.66L153.03 305.11L165.86 313L162.4 316.05Z" fill="#285430"/>
<path d="M143 321.93C141.998 321.807 141.035 321.466 140.18 320.93C140.145 320.918 140.114 320.895 140.092 320.864C140.071 320.834 140.059 320.797 140.059 320.76C140.059 320.722 140.071 320.686 140.092 320.656C140.114 320.625 140.145 320.602 140.18 320.59C140.49 320.49 143.18 319.66 143.96 320.3C144.048 320.373 144.114 320.468 144.153 320.575C144.192 320.682 144.201 320.798 144.18 320.91C144.166 321.09 144.106 321.263 144.007 321.414C143.907 321.564 143.77 321.687 143.61 321.77C143.423 321.872 143.213 321.927 143 321.93ZM140.75 320.83C142 321.47 143 321.7 143.48 321.46C143.584 321.402 143.672 321.318 143.735 321.217C143.798 321.115 143.834 320.999 143.84 320.88C143.84 320.72 143.84 320.65 143.75 320.61C143.33 320.27 141.83 320.53 140.73 320.83H140.75Z" fill="#011204"/>
<path d="M140.25 321C140.197 320.999 140.147 320.978 140.11 320.94C140.095 320.912 140.087 320.882 140.087 320.85C140.087 320.819 140.095 320.788 140.11 320.76C140.11 320.67 140.76 318.5 141.78 318.01C141.91 317.951 142.052 317.92 142.195 317.92C142.338 317.92 142.48 317.951 142.61 318.01C142.75 318.054 142.872 318.144 142.955 318.266C143.039 318.387 143.079 318.533 143.07 318.68C143 319.58 141.17 320.82 140.33 321.03L140.25 321ZM142.19 318.27C142.093 318.273 141.997 318.297 141.91 318.34C141.29 318.64 140.78 319.81 140.53 320.52C141.41 320.15 142.62 319.17 142.66 318.62C142.66 318.53 142.66 318.42 142.43 318.32C142.355 318.28 142.274 318.253 142.19 318.24V318.27Z" fill="#011204"/>
<path d="M157.27 326.25C156.14 326.25 154.57 324.8 153.71 323.91C153.688 323.879 153.676 323.843 153.676 323.805C153.676 323.767 153.688 323.731 153.71 323.7C153.73 323.668 153.758 323.641 153.791 323.624C153.825 323.606 153.862 323.598 153.9 323.6C154.3 323.6 157.77 324.12 158.26 325.1C158.312 325.188 158.339 325.288 158.339 325.39C158.339 325.492 158.312 325.592 158.26 325.68C158.187 325.832 158.076 325.964 157.937 326.062C157.799 326.16 157.638 326.221 157.47 326.24L157.27 326.25ZM154.37 324.05C155.63 325.27 156.74 325.95 157.37 325.87C157.48 325.855 157.586 325.814 157.676 325.75C157.767 325.685 157.84 325.599 157.89 325.5C157.912 325.466 157.924 325.426 157.924 325.385C157.924 325.344 157.912 325.304 157.89 325.27C157.63 324.73 155.78 324.27 154.37 324.05Z" fill="#011204"/>
<path d="M154.48 324C154.255 324.006 154.031 323.989 153.81 323.95C153.779 323.945 153.75 323.932 153.725 323.913C153.701 323.894 153.681 323.869 153.67 323.84C153.655 323.81 153.647 323.778 153.647 323.745C153.647 323.712 153.655 323.679 153.67 323.65C153.73 323.58 155.08 321.95 156.36 321.84C156.722 321.811 157.081 321.926 157.36 322.16C157.75 322.5 157.73 322.8 157.63 322.99C157.38 323.67 155.65 324 154.48 324ZM154.22 323.63C155.34 323.69 157.13 323.32 157.36 322.83C157.36 322.83 157.44 322.67 157.18 322.45C157.076 322.36 156.955 322.292 156.825 322.251C156.694 322.209 156.556 322.195 156.42 322.21C155.557 322.45 154.79 322.949 154.22 323.64V323.63Z" fill="#011204"/>
<path d="M140.52 319.92L132.04 317.52C131.894 317.476 131.736 317.487 131.598 317.551C131.46 317.616 131.35 317.729 131.29 317.87L128.43 324.3C128.363 324.464 128.331 324.642 128.337 324.819C128.344 324.997 128.387 325.171 128.466 325.331C128.544 325.491 128.655 325.632 128.792 325.745C128.929 325.859 129.089 325.942 129.26 325.99C132.26 326.77 133.7 326.99 137.43 328.06C139.73 328.7 143.01 329.89 146.18 330.79C149.35 331.69 150.41 328.6 149.18 327.94C143.62 325 143.18 322.94 141.66 320.74C141.388 320.341 140.984 320.051 140.52 319.92Z" fill="#285430"/>
<path d="M153.94 322.74L146.7 317.74C146.577 317.651 146.426 317.609 146.275 317.624C146.123 317.639 145.983 317.708 145.88 317.82L141.08 322.98C140.963 323.113 140.876 323.27 140.824 323.44C140.772 323.609 140.757 323.788 140.78 323.964C140.803 324.14 140.862 324.309 140.955 324.46C141.049 324.611 141.173 324.741 141.32 324.84C143.87 326.55 145.19 327.24 148.38 329.45C150.38 330.81 154.25 333.83 156.95 335.71C159.65 337.59 161.66 335.01 160.7 333.99C156.4 329.4 155.46 326.52 154.75 323.91C154.627 323.436 154.34 323.022 153.94 322.74Z" fill="#285430"/>
<path d="M148.07 313.43L135.02 306.94L136.37 303.41L150.31 310.24L148.07 313.43Z" fill="#285430"/>
<path d="M131.1 191.12L130 194C129.89 194.22 130.15 194.45 130.52 194.45H163.6C163.89 194.45 164.13 194.31 164.15 194.13L164.43 191.27C164.43 191.08 164.2 190.91 163.89 190.91H131.62C131.523 190.901 131.425 190.915 131.334 190.952C131.244 190.988 131.163 191.046 131.1 191.12Z" fill="#285430"/>
<path opacity="0.4" d="M131.1 191.12L130 194C129.89 194.22 130.15 194.45 130.52 194.45H163.6C163.89 194.45 164.13 194.31 164.15 194.13L164.43 191.27C164.43 191.08 164.2 190.91 163.89 190.91H131.62C131.523 190.901 131.425 190.915 131.334 190.952C131.244 190.988 131.163 191.046 131.1 191.12Z" fill="#FAFFF2"/>
<path d="M136.31 194.73H135.44C135.27 194.73 135.14 194.64 135.15 194.53L135.56 190.82C135.56 190.72 135.72 190.63 135.89 190.63H136.76C136.93 190.63 137.06 190.72 137.05 190.82L136.64 194.53C136.63 194.64 136.48 194.73 136.31 194.73Z" fill="#285430"/>
<path d="M156.71 194.73H155.85C155.68 194.73 155.55 194.64 155.56 194.53L155.96 190.82C155.96 190.72 156.13 190.63 156.3 190.63H157.16C157.33 190.63 157.47 190.72 157.45 190.82L157.05 194.53C157 194.64 156.89 194.73 156.71 194.73Z" fill="#285430"/>
<g style="mix-blend-mode:multiply">
<path d="M135.55 364.08C150.346 364.08 162.34 363.212 162.34 362.14C162.34 361.069 150.346 360.2 135.55 360.2C120.754 360.2 108.76 361.069 108.76 362.14C108.76 363.212 120.754 364.08 135.55 364.08Z" fill="#285430"/>
</g>
<path d="M151.87 359.4C147.13 358.02 141.87 356.25 138.69 354.4C138.6 354.34 138.5 354.31 138.41 354.26V332.8H148C148.728 332.757 149.412 332.437 149.912 331.907C150.412 331.376 150.691 330.674 150.691 329.945C150.691 329.216 150.412 328.514 149.912 327.983C149.412 327.453 148.728 327.133 148 327.09H138.46V229.27H132.7V327.09H123.17C122.781 327.067 122.391 327.124 122.025 327.257C121.658 327.39 121.323 327.596 121.039 327.864C120.756 328.131 120.53 328.454 120.375 328.812C120.221 329.17 120.141 329.555 120.141 329.945C120.141 330.335 120.221 330.721 120.375 331.078C120.53 331.436 120.756 331.759 121.039 332.026C121.323 332.294 121.658 332.5 122.025 332.633C122.391 332.766 122.781 332.823 123.17 332.8H132.7V354.23C132.61 354.23 132.52 354.31 132.43 354.37C129.2 356.25 123.98 358.02 119.24 359.37C118.92 359.467 118.645 359.675 118.465 359.957C118.285 360.239 118.212 360.576 118.259 360.907C118.306 361.239 118.47 361.542 118.722 361.763C118.973 361.983 119.295 362.106 119.63 362.11H151.48C151.8 362.088 152.102 361.958 152.337 361.74C152.572 361.522 152.725 361.23 152.77 360.913C152.816 360.596 152.752 360.272 152.588 359.997C152.424 359.722 152.17 359.511 151.87 359.4Z" fill="#0F3015"/>
<path d="M153.34 219.31H117.78C114.919 219.31 112.6 221.629 112.6 224.49V235.06C112.6 237.921 114.919 240.24 117.78 240.24H153.34C156.201 240.24 158.52 237.921 158.52 235.06V224.49C158.52 221.629 156.201 219.31 153.34 219.31Z" fill="#285430"/>
<path d="M117.45 240.25V242.07C117.45 243.57 119.08 244.79 121.08 244.79H150.08C152.08 244.79 153.71 243.57 153.71 242.07V240.25H117.45Z" fill="#285430"/>
<path opacity="0.3" d="M117.45 240.25V242.07C117.45 243.57 119.08 244.79 121.08 244.79H150.08C152.08 244.79 153.71 243.57 153.71 242.07V240.25H117.45Z" fill="#FAFFF2"/>
</svg>
