<svg width="18" height="14" viewBox="0 0 18 14" fill="none" xmlns="http://www.w3.org/2000/svg">
<path d="M0 11.6875C0 12.2677 0.230468 12.8241 0.640704 13.2343C1.05094 13.6445 1.60734 13.875 2.1875 13.875H15.3125C15.8927 13.875 16.4491 13.6445 16.8593 13.2343C17.2695 12.8241 17.5 12.2677 17.5 11.6875V5.67188H0V11.6875ZM2.57812 8.71875C2.57812 8.40795 2.70159 8.10988 2.92136 7.89011C3.14113 7.67034 3.4392 7.54688 3.75 7.54688H5.625C5.9358 7.54688 6.23387 7.67034 6.45364 7.89011C6.67341 8.10988 6.79688 8.40795 6.79688 8.71875V9.5C6.79688 9.8108 6.67341 10.1089 6.45364 10.3286C6.23387 10.5484 5.9358 10.6719 5.625 10.6719H3.75C3.4392 10.6719 3.14113 10.5484 2.92136 10.3286C2.70159 10.1089 2.57812 9.8108 2.57812 9.5V8.71875ZM15.3125 0.125H2.1875C1.60734 0.125 1.05094 0.355468 0.640704 0.765704C0.230468 1.17594 0 1.73234 0 2.3125V3.32812H17.5V2.3125C17.5 1.73234 17.2695 1.17594 16.8593 0.765704C16.4491 0.355468 15.8927 0.125 15.3125 0.125Z" fill="#1272B2"/>
</svg>
