<svg width="500" height="369" viewBox="0 0 500 369" fill="none" xmlns="http://www.w3.org/2000/svg">
<g clip-path="url(#clip0_158_5317)">
<path d="M449.9 343.54H416.78V343.79H449.9V343.54Z" fill="#285430"/>
<path d="M331.22 346.26H322.53V346.51H331.22V346.26Z" fill="#285430"/>
<path d="M415.78 334.26H396.59V334.51H415.78V334.26Z" fill="#285430"/>
<path d="M95.65 335.94H52.46V336.19H95.65V335.94Z" fill="#285430"/>
<path d="M110.89 335.94H104.56V336.19H110.89V335.94Z" fill="#285430"/>
<path d="M225.15 340.16H131.47V340.41H225.15V340.16Z" fill="#285430"/>
<path d="M238.4 282.85H45.3C43.7856 282.85 42.3332 282.248 41.2624 281.177C40.1916 280.107 39.59 278.654 39.59 277.14V5.7098C39.6032 4.2041 40.2106 2.76455 41.28 1.70451C42.3494 0.644467 43.7942 0.049747 45.3 0.0498047H238.4C239.15 0.0498047 239.892 0.197497 240.585 0.484451C241.278 0.771406 241.907 1.192 242.438 1.72223C242.968 2.25245 243.388 2.88192 243.675 3.57468C243.962 4.26745 244.11 5.00996 244.11 5.7598V277.14C244.11 277.89 243.962 278.632 243.675 279.325C243.388 280.018 242.968 280.647 242.438 281.177C241.907 281.708 241.278 282.128 240.585 282.415C239.892 282.702 239.15 282.85 238.4 282.85V282.85ZM45.3 0.249805C43.8527 0.252449 42.4655 0.828545 41.4421 1.85192C40.4187 2.8753 39.8426 4.26253 39.84 5.7098V277.14C39.8426 278.587 40.4187 279.974 41.4421 280.998C42.4655 282.021 43.8527 282.597 45.3 282.6H238.4C239.847 282.597 241.234 282.021 242.258 280.998C243.281 279.974 243.857 278.587 243.86 277.14V5.7098C243.857 4.26253 243.281 2.8753 242.258 1.85192C241.234 0.828545 239.847 0.252449 238.4 0.249805H45.3Z" fill="#285430"/>
<path d="M454.7 282.85H261.6C260.086 282.85 258.633 282.248 257.562 281.177C256.491 280.107 255.89 278.654 255.89 277.14V5.7098C255.903 4.2041 256.51 2.76455 257.58 1.70451C258.649 0.644467 260.094 0.049747 261.6 0.0498047H454.7C456.214 0.0498047 457.667 0.651392 458.737 1.72223C459.808 2.79306 460.41 4.24542 460.41 5.7598V277.14C460.41 278.654 459.808 280.107 458.737 281.177C457.667 282.248 456.214 282.85 454.7 282.85V282.85ZM261.6 0.249805C260.153 0.252449 258.765 0.828545 257.742 1.85192C256.719 2.8753 256.143 4.26253 256.14 5.7098V277.14C256.143 278.587 256.719 279.974 257.742 280.998C258.765 282.021 260.153 282.597 261.6 282.6H454.7C456.147 282.597 457.534 282.021 458.558 280.998C459.581 279.974 460.157 278.587 460.16 277.14V5.7098C460.157 4.26253 459.581 2.8753 458.558 1.85192C457.534 0.828545 456.147 0.252449 454.7 0.249805H261.6Z" fill="#285430"/>
<path d="M500 327.45H0V327.7H500V327.45Z" fill="#285430"/>
<path d="M90.88 202.18L75.6 197.46C75.379 197.38 75.1934 197.224 75.0756 197.021C74.9579 196.817 74.9156 196.579 74.9562 196.347C74.9968 196.116 75.1176 195.906 75.2975 195.755C75.4774 195.603 75.7049 195.52 75.94 195.52L93.56 196.45C89.4 189.22 86.94 184.7 84.14 179.04C84.0468 178.826 84.0316 178.586 84.0969 178.361C84.1623 178.137 84.304 177.943 84.4977 177.812C84.6913 177.682 84.9245 177.623 85.1569 177.646C85.3893 177.669 85.6062 177.773 85.77 177.94C89.53 182.17 92.68 185.6 97.77 191.01C98.97 184.01 100.37 177.56 102.11 171.09C102.155 170.825 102.304 170.588 102.523 170.433C102.743 170.277 103.015 170.215 103.28 170.26C103.545 170.305 103.782 170.454 103.937 170.673C104.093 170.892 104.155 171.165 104.11 171.43C103.643 176.643 103.472 181.878 103.6 187.11L104.08 187.28C108.307 182.453 112.743 177.817 117.39 173.37C117.577 173.223 117.81 173.148 118.047 173.158C118.285 173.168 118.511 173.262 118.685 173.423C118.86 173.584 118.971 173.802 119 174.038C119.028 174.274 118.971 174.512 118.84 174.71C114.346 180.408 110.196 186.369 106.41 192.56C112.45 190.28 118.523 188.07 124.63 185.93C124.86 185.864 125.107 185.883 125.324 185.983C125.542 186.084 125.716 186.259 125.815 186.477C125.915 186.695 125.932 186.941 125.865 187.171C125.798 187.401 125.651 187.599 125.45 187.73C119.12 191.32 112.86 194.99 106.61 198.79L122.72 203.92C122.943 204.001 123.13 204.158 123.247 204.363C123.365 204.569 123.406 204.81 123.363 205.043C123.319 205.276 123.195 205.485 123.011 205.635C122.828 205.785 122.597 205.865 122.36 205.86L105.81 204.86C109.08 208.69 111.35 211.32 114 214.29C114.149 214.472 114.229 214.702 114.226 214.937C114.223 215.173 114.137 215.4 113.982 215.578C113.828 215.756 113.616 215.874 113.383 215.911C113.15 215.948 112.912 215.902 112.71 215.78C109.38 213.57 106.45 211.61 102.19 208.78C102.63 212.18 103 214.78 103.45 217.4C103.475 217.635 103.416 217.872 103.283 218.067C103.15 218.263 102.952 218.406 102.724 218.469C102.496 218.533 102.253 218.513 102.038 218.415C101.823 218.316 101.65 218.144 101.55 217.93C100.44 215.1 99.43 212.29 98.15 208.55C93.34 231.55 94.58 253.88 99.23 276.76L93.47 275.76C90.0751 253.286 90.9914 230.371 96.17 208.24C93.28 211.24 91.17 213.47 89.17 215.73C89.0004 215.896 88.7773 215.997 88.5405 216.013C88.3037 216.03 88.0686 215.962 87.8774 215.821C87.6862 215.68 87.5513 215.476 87.4968 215.245C87.4423 215.014 87.4718 214.771 87.58 214.56C88.94 212.3 90.41 210.01 92.39 207.04C87.24 208.17 83.72 208.95 79.83 209.83C79.5966 209.872 79.3558 209.83 79.1507 209.711C78.9456 209.592 78.7894 209.404 78.7101 209.18C78.6308 208.957 78.6335 208.712 78.7178 208.491C78.802 208.269 78.9623 208.084 79.17 207.97C82.66 206.1 86 204.5 90.88 202.18Z" fill="#285430"/>
<path d="M82.75 210.13L94.49 203.91C94.784 203.761 95.0123 203.509 95.1307 203.201C95.2491 202.894 95.2492 202.553 95.1309 202.246C95.0126 201.938 94.7844 201.686 94.4905 201.537C94.1966 201.388 93.8579 201.354 93.54 201.44L79.05 205.05C81.41 198.25 82.9 193.67 84.36 188.63C84.4495 188.32 84.4228 187.987 84.2851 187.695C84.1473 187.402 83.9078 187.17 83.6114 187.042C83.3149 186.913 82.9818 186.897 82.6742 186.996C82.3666 187.095 82.1056 187.303 81.94 187.58C79.56 191.58 77.29 195.18 73.94 200.49C71.94 195.07 69.83 190.04 67.55 185.1C67.4068 184.805 67.1598 184.574 66.8564 184.45C66.553 184.326 66.2145 184.318 65.9059 184.429C65.5973 184.539 65.3403 184.759 65.1842 185.048C65.028 185.336 64.9838 185.671 65.06 185.99C66.06 189.91 66.89 193.86 67.53 197.73L67.09 197.99C63.29 195.03 59.4033 192.193 55.43 189.48C55.1533 189.289 54.8142 189.209 54.4812 189.258C54.1482 189.306 53.846 189.479 53.6355 189.742C53.4249 190.004 53.3217 190.337 53.3467 190.672C53.3717 191.008 53.5229 191.322 53.77 191.55C57.9566 195.383 61.9566 199.403 65.77 203.61C60.63 202.723 55.48 201.877 50.32 201.07C49.9939 201.025 49.6626 201.102 49.3901 201.287C49.1177 201.472 48.9235 201.751 48.8451 202.071C48.7667 202.391 48.8097 202.728 48.9658 203.018C49.1219 203.308 49.3799 203.529 49.69 203.64C55.39 205.64 61.05 207.64 66.69 209.77L54.2 216.53C53.8936 216.676 53.6546 216.933 53.5318 217.25C53.409 217.566 53.4118 217.917 53.5396 218.232C53.6674 218.546 53.9105 218.8 54.2192 218.941C54.5278 219.082 54.8787 219.099 55.2 218.99L68.65 215.58C66.65 218.99 65.21 221.58 63.65 224.16C63.4793 224.438 63.4169 224.77 63.4747 225.091C63.5324 225.412 63.7064 225.701 63.9633 225.902C64.2202 226.104 64.5422 226.204 64.868 226.183C65.1938 226.162 65.5006 226.022 65.73 225.79L73 218.68C73.12 220.68 73.22 222.46 73.28 224.1C73.2932 224.429 73.4276 224.74 73.6572 224.976C73.8868 225.211 74.1954 225.353 74.5234 225.374C74.8514 225.395 75.1757 225.294 75.4335 225.09C75.6914 224.886 75.8647 224.594 75.92 224.27C76.25 222.27 76.57 220.19 76.92 217.7C85.92 239.41 88.92 261.56 88.58 284.91L94.05 282.81C93.1905 260.097 88.0115 237.755 78.79 216.98C80.87 218.44 82.61 219.68 84.2 220.85C84.4652 221.083 84.8122 221.202 85.1648 221.179C85.5174 221.157 85.8466 220.995 86.08 220.73C86.3134 220.465 86.4318 220.118 86.4093 219.765C86.3868 219.413 86.2252 219.083 85.96 218.85C84.88 217.7 83.69 216.48 82.32 215.08C86.32 215.19 89.38 215.28 92.32 215.38C92.6437 215.387 92.959 215.276 93.2067 215.068C93.4544 214.859 93.6174 214.567 93.6653 214.247C93.7132 213.927 93.6425 213.6 93.4666 213.328C93.2908 213.056 93.0217 212.858 92.71 212.77C89.79 211.98 86.76 211.17 82.75 210.13Z" fill="#5F8D4E"/>
<path d="M103.48 222.75L94.72 218.1C94.5191 217.991 94.3646 217.813 94.2855 217.599C94.2063 217.385 94.208 217.149 94.2901 216.936C94.3722 216.722 94.5291 216.546 94.7315 216.44C94.934 216.335 95.1681 216.306 95.39 216.36L106.18 219.05C104.42 213.99 103.33 210.63 102.25 206.87C102.141 206.638 102.129 206.372 102.216 206.131C102.304 205.89 102.483 205.694 102.715 205.585C102.947 205.476 103.213 205.464 103.454 205.551C103.695 205.639 103.891 205.818 104 206.05C105.78 208.99 107.45 211.69 109.94 215.64C111.45 211.59 113.01 207.84 114.72 204.15C114.821 203.941 114.996 203.777 115.21 203.689C115.425 203.601 115.665 203.596 115.883 203.674C116.102 203.752 116.283 203.909 116.394 204.113C116.504 204.317 116.535 204.555 116.48 204.78C115.71 207.78 115.08 210.78 114.6 213.69L114.88 213.85C117.76 211.603 120.713 209.453 123.74 207.4C123.837 207.324 123.948 207.268 124.067 207.234C124.186 207.201 124.311 207.192 124.433 207.207C124.556 207.222 124.674 207.26 124.782 207.321C124.889 207.382 124.984 207.463 125.06 207.56C125.136 207.657 125.192 207.769 125.226 207.887C125.259 208.006 125.268 208.131 125.253 208.253C125.239 208.376 125.2 208.494 125.139 208.602C125.078 208.709 124.997 208.804 124.9 208.88C121.747 211.74 118.747 214.74 115.9 217.88C119.74 217.213 123.593 216.577 127.46 215.97C127.694 215.93 127.934 215.981 128.133 216.111C128.331 216.241 128.473 216.441 128.53 216.671C128.587 216.902 128.554 217.145 128.44 217.352C128.325 217.56 128.135 217.716 127.91 217.79C123.663 219.263 119.427 220.79 115.2 222.37L124.5 227.37C124.704 227.478 124.862 227.657 124.943 227.874C125.023 228.09 125.022 228.329 124.937 228.544C124.853 228.759 124.693 228.936 124.487 229.04C124.281 229.145 124.043 229.17 123.82 229.11L113.82 226.57C115.29 229.14 116.4 231.06 117.55 233.01C117.661 233.206 117.698 233.434 117.655 233.655C117.611 233.875 117.491 234.073 117.314 234.212C117.137 234.351 116.917 234.423 116.692 234.413C116.468 234.403 116.254 234.314 116.09 234.16L110.71 228.87C110.61 230.46 110.54 231.82 110.49 233.09C110.486 233.326 110.393 233.552 110.23 233.723C110.067 233.894 109.846 233.997 109.61 234.012C109.375 234.027 109.142 233.953 108.958 233.805C108.775 233.656 108.654 233.444 108.62 233.21C108.37 231.7 108.12 230.08 107.84 228.15C101.26 243.98 99.12 260.15 99.34 277.15L95.34 275.62C95.9674 259.059 99.7412 242.77 106.46 227.62C104.85 228.76 103.46 229.72 102.28 230.62C102.092 230.769 101.854 230.841 101.615 230.82C101.376 230.8 101.154 230.689 100.995 230.51C100.835 230.331 100.749 230.098 100.756 229.858C100.763 229.618 100.861 229.39 101.03 229.22C101.88 228.32 102.8 227.36 103.89 226.22L96.33 226.44C96.098 226.449 95.8708 226.372 95.6921 226.224C95.5135 226.076 95.3961 225.866 95.3626 225.637C95.329 225.407 95.3817 225.173 95.5105 224.98C95.6393 224.786 95.835 224.648 96.06 224.59C98.19 224.13 100.45 223.53 103.48 222.75Z" fill="#A4BE7B"/>
<path d="M78.7899 327.28H108.61C109.615 327.282 110.582 326.9 111.314 326.212C112.047 325.524 112.489 324.583 112.55 323.58L115.71 272.14C115.85 269.87 71.5499 269.87 71.7099 272.14L74.8699 323.58C74.9309 324.579 75.37 325.518 76.0981 326.205C76.8263 326.893 77.7887 327.277 78.7899 327.28Z" fill="#011204"/>
<path d="M77 208.43C76.6123 208.11 76.3111 207.698 76.1241 207.232C75.9372 206.765 75.8704 206.259 75.93 205.76L76.6 200.06L75.07 202.71C74.8583 203.082 74.5693 203.405 74.2225 203.656C73.8758 203.907 73.4792 204.082 73.0595 204.167C72.6399 204.252 72.2068 204.247 71.7895 204.15C71.3721 204.054 70.9802 203.87 70.64 203.61L67.64 201.35L70.37 205.76C70.7529 206.371 70.903 207.099 70.7928 207.812C70.6826 208.524 70.3195 209.173 69.77 209.64L66.24 212.64L69.7 211.85C70.4334 211.678 71.2046 211.788 71.8605 212.159C72.5163 212.529 73.0088 213.133 73.24 213.85L74.43 217.49L75.19 213.62C75.2724 213.21 75.4396 212.822 75.6808 212.481C75.922 212.139 76.2319 211.852 76.5906 211.637C76.9493 211.423 77.349 211.285 77.7639 211.234C78.1788 211.183 78.5999 211.219 79 211.34L81.33 212.02L77 208.43Z" fill="#285430"/>
<path d="M96.87 198.61C97.1544 198.377 97.3752 198.076 97.5116 197.735C97.648 197.394 97.6956 197.024 97.65 196.66L97.16 192.49L98.28 194.43C98.4343 194.701 98.6449 194.936 98.8976 195.12C99.1503 195.303 99.4393 195.43 99.7452 195.493C100.051 195.555 100.367 195.552 100.671 195.482C100.976 195.413 101.262 195.279 101.51 195.09L103.7 193.44L101.7 196.66C101.423 197.106 101.316 197.637 101.396 198.156C101.477 198.675 101.741 199.148 102.14 199.49L104.72 201.71L102.19 201.13C101.655 201.008 101.094 201.09 100.617 201.36C100.14 201.63 99.7807 202.069 99.61 202.59L98.74 205.25L98.18 202.42C98.12 202.12 97.9985 201.836 97.8231 201.585C97.6476 201.335 97.4222 201.123 97.1609 200.965C96.8996 200.806 96.6081 200.703 96.305 200.662C96.0019 200.622 95.6937 200.645 95.4 200.73L93.7 201.23L96.87 198.61Z" fill="#A4BE7B"/>
<path d="M108.66 222.48C108.862 222.309 109.019 222.091 109.117 221.845C109.214 221.599 109.25 221.333 109.22 221.07L108.87 218.07L109.67 219.46C109.782 219.654 109.934 219.821 110.116 219.952C110.297 220.083 110.505 220.173 110.724 220.218C110.943 220.262 111.17 220.259 111.388 220.21C111.606 220.16 111.811 220.065 111.99 219.93L113.56 218.74L112.13 221.05C111.939 221.367 111.866 221.741 111.923 222.106C111.979 222.471 112.162 222.805 112.44 223.05L114.29 224.64L112.48 224.22C112.101 224.13 111.703 224.182 111.36 224.366C111.017 224.551 110.754 224.854 110.62 225.22L110 227.13L109.6 225.13C109.558 224.914 109.47 224.709 109.344 224.529C109.218 224.349 109.056 224.197 108.868 224.083C108.679 223.969 108.469 223.895 108.251 223.867C108.033 223.839 107.811 223.857 107.6 223.92L106.38 224.28L108.66 222.48Z" fill="#285430"/>
<path d="M384.64 80.6997H358.47C357.741 80.6997 357.15 81.2907 357.15 82.0197V87.1097C357.15 87.8387 357.741 88.4297 358.47 88.4297H384.64C385.369 88.4297 385.96 87.8387 385.96 87.1097V82.0197C385.96 81.2907 385.369 80.6997 384.64 80.6997Z" fill="#A4BE7B"/>
<path d="M375.84 90.2798H349.67C348.941 90.2798 348.35 90.8708 348.35 91.5998V96.6898C348.35 97.4188 348.941 98.0098 349.67 98.0098H375.84C376.569 98.0098 377.16 97.4188 377.16 96.6898V91.5998C377.16 90.8708 376.569 90.2798 375.84 90.2798Z" fill="#A4BE7B"/>
<path d="M405.99 90.2798H379.82C379.091 90.2798 378.5 90.8708 378.5 91.5998V96.6898C378.5 97.4188 379.091 98.0098 379.82 98.0098H405.99C406.719 98.0098 407.31 97.4188 407.31 96.6898V91.5998C407.31 90.8708 406.719 90.2798 405.99 90.2798Z" fill="#5F8D4E"/>
<path d="M419.98 19.1699H392.06C391.331 19.1699 390.74 19.7609 390.74 20.4899V26.0499C390.74 26.7789 391.331 27.3699 392.06 27.3699H419.98C420.709 27.3699 421.3 26.7789 421.3 26.0499V20.4899C421.3 19.7609 420.709 19.1699 419.98 19.1699Z" fill="#A4BE7B"/>
<path d="M419.98 39.52H392.06C391.331 39.52 390.74 40.111 390.74 40.84V46.4C390.74 47.129 391.331 47.72 392.06 47.72H419.98C420.709 47.72 421.3 47.129 421.3 46.4V40.84C421.3 40.111 420.709 39.52 419.98 39.52Z" fill="#A4BE7B"/>
<path d="M410.65 29.3398H382.73C382.001 29.3398 381.41 29.9308 381.41 30.6598V36.2198C381.41 36.9489 382.001 37.5398 382.73 37.5398H410.65C411.379 37.5398 411.97 36.9489 411.97 36.2198V30.6598C411.97 29.9308 411.379 29.3398 410.65 29.3398Z" fill="#A4BE7B"/>
<path d="M442.63 29.3398H414.71C413.981 29.3398 413.39 29.9308 413.39 30.6598V36.2198C413.39 36.9489 413.981 37.5398 414.71 37.5398H442.63C443.359 37.5398 443.95 36.9489 443.95 36.2198V30.6598C443.95 29.9308 443.359 29.3398 442.63 29.3398Z" fill="#5F8D4E"/>
<path d="M218.93 268.25H410.98V262.73H218.93V268.25Z" fill="#285430"/>
<path d="M409.55 268.25H452.57V262.73H409.55V268.25Z" fill="#011204"/>
<path d="M238.89 281.67V268.25H229.94L238.89 281.67Z" fill="#011204"/>
<path d="M234.42 281.67L225.47 268.25H229.94L238.89 281.67H234.42Z" fill="#011204"/>
<path d="M445.56 281.67V268.25H436.61L445.56 281.67Z" fill="#011204"/>
<path d="M441.08 281.67L432.14 268.25H436.61L445.56 281.67H441.08Z" fill="#011204"/>
<path d="M421.83 263.48H426.89C427.429 263.48 427.962 263.372 428.458 263.161C428.954 262.95 429.403 262.641 429.776 262.252C430.15 261.864 430.441 261.404 430.633 260.9C430.824 260.396 430.911 259.858 430.89 259.32L430.25 240.26H418.45L417.81 259.32C417.788 259.86 417.876 260.399 418.069 260.904C418.261 261.41 418.554 261.871 418.93 262.259C419.306 262.648 419.757 262.957 420.255 263.167C420.753 263.376 421.289 263.483 421.83 263.48Z" fill="#5F8D4E"/>
<path d="M400.373 251.409C404.754 247.027 404.754 239.923 400.373 235.541C395.991 231.16 388.887 231.16 384.505 235.541C380.123 239.923 380.123 247.027 384.505 251.409C388.887 255.791 395.991 255.791 400.373 251.409Z" fill="#5F8D4E"/>
<path d="M391.66 263.31H393.22V255.88H392.44C390.783 255.927 389.133 255.641 387.588 255.04C386.043 254.438 384.634 253.532 383.445 252.377C382.256 251.221 381.311 249.839 380.666 248.312C380.02 246.784 379.688 245.143 379.688 243.485C379.688 241.827 380.02 240.186 380.666 238.659C381.311 237.131 382.256 235.749 383.445 234.593C384.634 233.438 386.043 232.532 387.588 231.93C389.133 231.329 390.783 231.043 392.44 231.09V229.52C388.925 229.702 385.607 231.202 383.148 233.721C380.689 236.239 379.269 239.591 379.171 243.11C379.073 246.628 380.303 250.055 382.618 252.707C384.932 255.359 388.161 257.041 391.66 257.42V263.31Z" fill="#285430"/>
<path d="M385.85 263.48H399.19C399.19 262.684 398.874 261.921 398.311 261.359C397.749 260.796 396.985 260.48 396.19 260.48H388.83C388.034 260.48 387.271 260.796 386.709 261.359C386.146 261.921 385.83 262.684 385.83 263.48H385.85Z" fill="#285430"/>
<path d="M422.59 263.48L412.05 252.94L401.5 263.48H422.59Z" fill="#A4BE7B"/>
<path d="M412.05 252.94L422.59 263.48H412.05V252.94Z" fill="#285430"/>
<path d="M338.56 249.69C338.61 250.69 338.64 251.49 338.64 252.02C338.64 254.202 338.164 256.358 337.245 258.337C336.327 260.317 334.987 262.072 333.32 263.48H314.79C313.129 262.074 311.793 260.323 310.876 258.35C309.959 256.376 309.483 254.226 309.48 252.05C309.48 251.52 309.48 250.72 309.56 249.72L338.56 249.69Z" fill="#A4BE7B"/>
<path d="M336 257.9C336 258.963 336.231 260.012 336.678 260.976C337.126 261.94 337.778 262.794 338.59 263.48H347.59C348.624 262.599 349.396 261.451 349.82 260.16C349.998 260.192 350.179 260.209 350.36 260.21C352.17 260.21 354.19 258.77 354.19 256.85C354.19 254.93 353.03 253.49 351.3 253.49C350.899 253.494 350.502 253.558 350.12 253.68V253.55C350.115 253.085 349.926 252.641 349.594 252.315C349.262 251.989 348.815 251.807 348.35 251.81H337.8C337.567 251.805 337.336 251.846 337.119 251.93C336.902 252.015 336.704 252.142 336.537 252.304C336.369 252.466 336.236 252.659 336.143 252.873C336.051 253.087 336.003 253.317 336 253.55C336 255.56 336 257.2 336 257.9ZM350.1 259.07C350.172 258.684 350.209 258.293 350.21 257.9C350.21 257.36 350.21 256.27 350.21 254.9C350.574 254.73 350.969 254.638 351.37 254.63C353.01 254.63 353.14 256.34 353.14 256.87C353.14 258.11 351.66 259.11 350.43 259.11L350.1 259.07Z" fill="#285430"/>
<path d="M252.44 263.48L253.91 246.59H232.5L231.02 263.48H252.44Z" fill="#5F8D4E"/>
<path d="M252.44 263.48L253.91 246.59H255.07L253.59 263.48H252.44Z" fill="#285430"/>
<path d="M250.4 261.76L251.58 248.31H234.53L233.35 261.76H250.4Z" fill="#285430"/>
<path d="M249.1 260.65L250.08 249.42H235.84L234.85 260.65H249.1Z" fill="#285430"/>
<path d="M276.58 263.48H255.07L257.45 236.19H278.97L276.58 263.48Z" fill="#5F8D4E"/>
<path d="M276.58 263.48H277.61L280 236.19H278.97L276.58 263.48Z" fill="#285430"/>
<path d="M274.63 260.7H257.5L259.4 238.98H276.53L274.63 260.7Z" fill="#285430"/>
<path d="M273.38 258.91H259.07L260.66 240.76H274.97L273.38 258.91Z" fill="#285430"/>
<path d="M263.047 250.599L264.455 252.006C265.696 253.248 267.71 253.248 268.952 252.006L270.359 250.599C271.601 249.357 271.601 247.344 270.359 246.102L268.952 244.695C267.71 243.453 265.696 243.453 264.455 244.695L263.047 246.102C261.806 247.344 261.806 249.357 263.047 250.599Z" fill="#285430"/>
<path d="M262.357 255.829L263.05 256.522C264.292 257.764 266.305 257.764 267.547 256.522L268.24 255.829C269.482 254.588 269.482 252.574 268.24 251.332L267.547 250.639C266.305 249.397 264.292 249.397 263.05 250.639L262.357 251.332C261.115 252.574 261.115 254.588 262.357 255.829Z" fill="#285430"/>
<path d="M69.39 68.7803H99.95C100.679 68.7803 101.27 68.1893 101.27 67.4603V61.1903C101.27 60.4613 100.679 59.8703 99.95 59.8703H69.39C68.661 59.8703 68.07 60.4613 68.07 61.1903V67.4603C68.07 68.1893 68.661 68.7803 69.39 68.7803Z" fill="#A4BE7B"/>
<path d="M84.8899 57.7402L115.45 57.7402C116.179 57.7402 116.77 57.1493 116.77 56.4202V50.1502C116.77 49.4212 116.179 48.8302 115.45 48.8302H84.8899C84.1609 48.8302 83.5699 49.4212 83.5699 50.1502V56.4202C83.5699 57.1493 84.1609 57.7402 84.8899 57.7402Z" fill="#A4BE7B"/>
<path d="M50.1499 57.7402L80.7099 57.7402C81.4389 57.7402 82.0299 57.1493 82.0299 56.4202V50.1502C82.0299 49.4212 81.4389 48.8302 80.7099 48.8302H50.1499C49.4209 48.8302 48.8299 49.4212 48.8299 50.1502V56.4202C48.8299 57.1493 49.4209 57.7402 50.1499 57.7402Z" fill="#5F8D4E"/>
<path d="M250 368.76C357.082 368.76 443.89 363.692 443.89 357.44C443.89 351.188 357.082 346.12 250 346.12C142.917 346.12 56.11 351.188 56.11 357.44C56.11 363.692 142.917 368.76 250 368.76Z" fill="#E5D9B6" fill-opacity="0.57"/>
<path d="M392.74 26.54H334.24C323.951 26.54 315.61 34.881 315.61 45.17V203.95C315.61 214.239 323.951 222.58 334.24 222.58H392.74C403.029 222.58 411.37 214.239 411.37 203.95V45.17C411.37 34.881 403.029 26.54 392.74 26.54Z" fill="#0F3015"/>
<path opacity="0.3" d="M392.95 26.54H334.03C323.857 26.54 315.61 34.787 315.61 44.96V204.16C315.61 214.333 323.857 222.58 334.03 222.58H392.95C403.123 222.58 411.37 214.333 411.37 204.16V44.96C411.37 34.787 403.123 26.54 392.95 26.54Z" fill="#E5D9B6"/>
<path d="M411.37 36.16V75.05H315.61V36.16C315.61 33.6087 316.623 31.1618 318.428 29.3577C320.232 27.5536 322.679 26.54 325.23 26.54H401.75C404.301 26.54 406.748 27.5536 408.552 29.3577C410.356 31.1618 411.37 33.6087 411.37 36.16Z" fill="#0F3015"/>
<path d="M342.7 47.4701C342.7 49.3901 341.28 50.5701 338.99 50.5701H336.99V53.0501H335.37V44.3501H339C341.28 44.3801 342.7 45.5501 342.7 47.4701ZM341.07 47.4701C341.07 46.3801 340.34 45.7401 338.92 45.7401H337V49.2001H338.89C340.34 49.2001 341.07 48.5701 341.07 47.4701Z" fill="#E5D9B6"/>
<path d="M348 46.37V47.85C347.88 47.8369 347.76 47.8369 347.64 47.85C347.375 47.8309 347.11 47.8701 346.862 47.9649C346.615 48.0597 346.391 48.2077 346.207 48.3984C346.023 48.5892 345.883 48.8181 345.797 49.069C345.711 49.3198 345.681 49.5864 345.71 49.85V53.05H344.16V46.41H345.64V47.41C345.908 47.0456 346.267 46.7579 346.681 46.5754C347.095 46.3929 347.55 46.3221 348 46.37V46.37Z" fill="#E5D9B6"/>
<path d="M355.42 50.2603H350.21C350.309 50.7439 350.583 51.1739 350.98 51.4674C351.377 51.761 351.868 51.8973 352.36 51.8503C352.695 51.8622 353.029 51.8044 353.34 51.6804C353.652 51.5565 353.934 51.3691 354.17 51.1303L355 52.1303C354.496 52.6288 353.861 52.9735 353.168 53.1241C352.476 53.2746 351.755 53.2247 351.089 52.9802C350.424 52.7358 349.842 52.3068 349.412 51.7436C348.982 51.1805 348.721 50.5064 348.66 49.8003C348.646 49.3478 348.725 48.8974 348.893 48.477C349.061 48.0566 349.314 47.6754 349.635 47.3572C349.957 47.0391 350.342 46.7907 350.764 46.6278C351.186 46.4648 351.638 46.3908 352.09 46.4103C352.542 46.3927 352.992 46.47 353.413 46.6371C353.833 46.8042 354.214 47.0575 354.53 47.3806C354.847 47.7036 355.092 48.0894 355.25 48.5131C355.409 48.9367 355.477 49.3888 355.45 49.8403C355.45 49.9203 355.43 50.1103 355.42 50.2603ZM350.2 49.2603H354C353.952 48.8015 353.731 48.3784 353.381 48.0774C353.032 47.7763 352.581 47.6199 352.12 47.6403C351.659 47.616 351.205 47.766 350.85 48.0606C350.494 48.3551 350.262 48.7727 350.2 49.2303V49.2603Z" fill="#E5D9B6"/>
<path d="M368.05 49.28V53.05H366.49V49.44C366.49 48.26 365.94 47.69 365 47.69C364.06 47.69 363.27 48.36 363.27 49.69V53.05H361.72V49.44C361.72 48.26 361.17 47.69 360.22 47.69C359.27 47.69 358.49 48.36 358.49 49.69V53.05H356.94V46.41H358.42V47.26C358.692 46.9541 359.029 46.7127 359.406 46.5536C359.783 46.3944 360.191 46.3214 360.6 46.34C361.036 46.3108 361.471 46.3972 361.863 46.5903C362.254 46.7835 362.588 47.0766 362.83 47.44C363.135 47.0804 363.517 46.7947 363.949 46.6041C364.38 46.4136 364.849 46.3233 365.32 46.34C366.93 46.37 368.05 47.27 368.05 49.28Z" fill="#E5D9B6"/>
<path d="M369.82 44.4102C369.838 44.1573 369.951 43.9206 370.136 43.7479C370.322 43.5753 370.566 43.4796 370.82 43.4802C370.945 43.4707 371.071 43.4867 371.19 43.5273C371.309 43.5678 371.419 43.6321 371.512 43.7163C371.606 43.8004 371.681 43.9026 371.734 44.0167C371.787 44.1309 371.816 44.2545 371.82 44.3802C371.82 44.6454 371.714 44.8998 371.527 45.0873C371.339 45.2749 371.085 45.3802 370.82 45.3802C370.555 45.3802 370.3 45.2749 370.113 45.0873C369.925 44.8998 369.82 44.6454 369.82 44.3802V44.4102ZM370.04 46.4102H371.59V53.0502H370L370.04 46.4102Z" fill="#E5D9B6"/>
<path d="M380.06 46.4402V53.0502H378.58V52.2102C378.314 52.5131 377.984 52.7536 377.614 52.9143C377.244 53.0751 376.843 53.1522 376.44 53.1402C376.048 53.1775 375.653 53.1265 375.283 52.9908C374.914 52.855 374.579 52.6381 374.305 52.3559C374.03 52.0738 373.823 51.7336 373.697 51.3605C373.572 50.9874 373.532 50.5908 373.58 50.2002V46.4102H375.13V50.0502C375.13 51.2602 375.71 51.8302 376.69 51.8302C376.947 51.8417 377.204 51.7962 377.442 51.697C377.68 51.5977 377.893 51.4472 378.066 51.2562C378.238 51.0651 378.367 50.8382 378.442 50.5917C378.517 50.3452 378.537 50.0852 378.5 49.8302V46.4702L380.06 46.4402Z" fill="#E5D9B6"/>
<path d="M393.2 49.28V53.05H391.65V49.44C391.65 48.26 391.1 47.69 390.16 47.69C389.22 47.69 388.43 48.36 388.43 49.69V53.05H386.87V49.44C386.87 48.26 386.33 47.69 385.38 47.69C384.43 47.69 383.65 48.36 383.65 49.69V53.05H382.1V46.41H383.58V47.26C383.852 46.9541 384.189 46.7127 384.566 46.5536C384.943 46.3944 385.351 46.3214 385.76 46.34C386.195 46.3108 386.631 46.3972 387.023 46.5903C387.414 46.7835 387.748 47.0766 387.99 47.44C388.295 47.0804 388.677 46.7947 389.109 46.6041C389.54 46.4136 390.009 46.3233 390.48 46.34C392.09 46.37 393.2 47.27 393.2 49.28Z" fill="#E5D9B6"/>
<path d="M383.48 191.73H343.5C338.065 191.73 333.66 196.136 333.66 201.57V202.32C333.66 207.754 338.065 212.16 343.5 212.16H383.48C388.914 212.16 393.32 207.754 393.32 202.32V201.57C393.32 196.136 388.914 191.73 383.48 191.73Z" fill="#0F3015"/>
<path d="M348 203.52C348 205.38 346.51 206.62 344.18 206.81L343.87 208.35H342.47L342.78 206.81C341.635 206.74 340.528 206.371 339.57 205.74L340.5 204.01C341.278 204.567 342.188 204.912 343.14 205.01L343.62 202.65C342.32 202.26 340.89 201.74 340.89 200.05C340.89 198.19 342.42 196.93 344.79 196.77L345.1 195.23H346.5L346.19 196.78C347.095 196.851 347.974 197.125 348.76 197.58L347.91 199.31C347.285 198.904 346.571 198.654 345.83 198.58L345.34 201.04C346.63 201.41 348 201.91 348 203.52ZM344 200.64L344.4 198.64C343.61 198.79 343.16 199.22 343.15 199.76C343.14 200.3 343.52 200.43 344 200.64V200.64ZM345.73 203.88C345.73 203.48 345.41 203.22 344.92 203.04L344.54 204.96C345.32 204.8 345.75 204.41 345.75 203.88H345.73Z" fill="#E5D9B6"/>
<path d="M387.17 149.94H337.74V151.94H387.17V149.94Z" fill="#0F3015"/>
<path d="M387.17 117.1H337.74V119.1H387.17V117.1Z" fill="#0F3015"/>
<path d="M387.17 85.4399H337.74V87.4399H387.17V85.4399Z" fill="#0F3015"/>
<path d="M368.141 108.271C371.499 104.912 371.499 99.4668 368.141 96.1083C364.782 92.7498 359.337 92.7498 355.979 96.1083C352.62 99.4668 352.62 104.912 355.979 108.271C359.337 111.629 364.782 111.629 368.141 108.271Z" fill="#0F3015"/>
<path d="M368.21 100.33L363.27 105.27L360.96 107.58L358.65 105.27L360.96 102.97L365.9 98.02L368.21 100.33Z" fill="#E5D9B6"/>
<path d="M363.27 105.27L360.96 107.58L356.06 102.68L358.37 100.38L360.96 102.97L363.27 105.27Z" fill="#E5D9B6"/>
<path d="M362.06 142.52C366.81 142.52 370.66 138.669 370.66 133.92C370.66 129.17 366.81 125.32 362.06 125.32C357.31 125.32 353.46 129.17 353.46 133.92C353.46 138.669 357.31 142.52 362.06 142.52Z" fill="#0F3015"/>
<path d="M368.21 132.06L363.27 137.01L360.96 139.32L358.65 137.01L360.96 134.7L365.9 129.75L368.21 132.06Z" fill="#E5D9B6"/>
<path d="M363.27 137.01L360.96 139.32L356.06 134.42L358.37 132.11L360.96 134.7L363.27 137.01Z" fill="#E5D9B6"/>
<path d="M362.06 176.55C366.81 176.55 370.66 172.7 370.66 167.95C370.66 163.2 366.81 159.35 362.06 159.35C357.31 159.35 353.46 163.2 353.46 167.95C353.46 172.7 357.31 176.55 362.06 176.55Z" fill="#0F3015"/>
<path d="M368.21 166.09L363.27 171.03L360.96 173.34L358.65 171.03L360.96 168.73L365.9 163.78L368.21 166.09Z" fill="#E5D9B6"/>
<path d="M363.27 171.03L360.96 173.34L356.06 168.44L358.37 166.14L360.96 168.73L363.27 171.03Z" fill="#E5D9B6"/>
<path d="M350.79 61.2603L352.4 63.8403L355.34 64.5703L353.39 66.8903L353.6 69.9203L350.79 68.7903L347.97 69.9203L348.18 66.8903L346.23 64.5703L349.18 63.8403L350.79 61.2603Z" fill="#E5D9B6"/>
<path d="M362.06 61.2603L363.67 63.8403L366.62 64.5703L364.67 66.8903L364.88 69.9203L362.06 68.7903L359.25 69.9203L359.46 66.8903L357.51 64.5703L360.45 63.8403L362.06 61.2603Z" fill="#E5D9B6"/>
<path d="M373.34 61.2603L374.94 63.8403L377.89 64.5703L375.94 66.8903L376.15 69.9203L373.34 68.7903L370.52 69.9203L370.73 66.8903L368.78 64.5703L371.73 63.8403L373.34 61.2603Z" fill="#E5D9B6"/>
<path d="M280.23 15.3799H221.73C211.441 15.3799 203.1 23.7208 203.1 34.0099V192.79C203.1 203.079 211.441 211.42 221.73 211.42H280.23C290.519 211.42 298.86 203.079 298.86 192.79V34.0099C298.86 23.7208 290.519 15.3799 280.23 15.3799Z" fill="#0F3015"/>
<path opacity="0.5" d="M279.61 15.3799H222.35C217.245 15.3799 212.348 17.408 208.738 21.0181C205.128 24.6282 203.1 29.5245 203.1 34.6299V192.17C203.1 194.699 203.598 197.203 204.566 199.539C205.534 201.875 206.953 203.998 208.742 205.785C210.53 207.573 212.654 208.991 214.99 209.957C217.327 210.924 219.831 211.421 222.36 211.42H279.61C282.139 211.421 284.643 210.924 286.98 209.957C289.316 208.991 291.44 207.573 293.228 205.785C295.017 203.998 296.436 201.875 297.404 199.539C298.372 197.203 298.87 194.699 298.87 192.17V34.6299C298.87 32.1011 298.372 29.5971 297.404 27.2609C296.436 24.9248 295.017 22.8022 293.228 21.0145C291.44 19.2269 289.316 17.8091 286.98 16.8423C284.643 15.8755 282.139 15.3786 279.61 15.3799V15.3799Z" fill="#E5D9B6"/>
<path d="M298.87 25.0497V63.9297H203.1V25.0497C203.1 22.4983 204.114 20.0514 205.918 18.2473C207.722 16.4432 210.169 15.4297 212.72 15.4297H289.24C291.792 15.4297 294.24 16.4429 296.046 18.2467C297.852 20.0505 298.867 22.4974 298.87 25.0497Z" fill="#0F3015"/>
<path d="M222.85 41.0498L223.41 39.7998C224.233 40.4359 225.24 40.7869 226.28 40.7998C227.63 40.7998 228.21 40.3198 228.21 39.6698C228.21 37.7998 223.03 39.0298 223.03 35.7898C223.03 34.3898 224.15 33.1898 226.54 33.1898C227.559 33.1779 228.561 33.4442 229.44 33.9598L228.93 35.2198C228.203 34.7878 227.376 34.5534 226.53 34.5398C225.18 34.5398 224.64 35.0598 224.64 35.7198C224.64 37.5698 229.8 36.3598 229.8 39.5598C229.8 40.9498 228.67 42.1498 226.28 42.1498C225.047 42.1709 223.841 41.7842 222.85 41.0498Z" fill="#E5D9B6"/>
<path d="M235.25 41.5596C234.812 41.8683 234.286 42.0262 233.75 42.0096C233.443 42.0574 233.129 42.0329 232.833 41.938C232.536 41.8431 232.266 41.6805 232.044 41.4631C231.822 41.2456 231.653 40.9793 231.552 40.6854C231.451 40.3914 231.419 40.0778 231.46 39.7696V36.5796H230.37V35.3296H231.46V33.8096H233V35.3296H234.78V36.5796H233V39.7296C233 40.3796 233.32 40.7296 233.92 40.7296C234.232 40.7354 234.537 40.6407 234.79 40.4596L235.25 41.5596Z" fill="#E5D9B6"/>
<path d="M242.09 38.0496V41.9396H240.62V41.1296C240.376 41.4444 240.057 41.692 239.691 41.8495C239.326 42.0069 238.926 42.0689 238.53 42.0296C237.01 42.0296 236.05 41.1996 236.05 40.0296C236.05 38.8596 236.8 38.0296 238.81 38.0296H240.53V37.9296C240.53 37.0296 239.98 36.4896 238.88 36.4896C238.159 36.4853 237.457 36.7171 236.88 37.1496L236.25 36.0496C237.074 35.4809 238.06 35.1933 239.06 35.2296C241 35.2096 242.09 36.1196 242.09 38.0496ZM240.53 39.8696V39.0496H238.93C237.87 39.0496 237.58 39.4396 237.58 39.9296C237.58 40.4196 238.06 40.8496 238.85 40.8496C239.199 40.8761 239.548 40.7943 239.848 40.6153C240.149 40.4363 240.387 40.1689 240.53 39.8496V39.8696Z" fill="#E5D9B6"/>
<path d="M250.62 38.1198V41.9198H249.06V38.3198C249.06 37.1398 248.48 36.5598 247.48 36.5598C247.22 36.5458 246.961 36.5892 246.72 36.687C246.479 36.7847 246.262 36.9344 246.085 37.1253C245.909 37.3163 245.776 37.5438 245.698 37.7918C245.619 38.0397 245.596 38.3019 245.63 38.5598V41.9098H244.08V35.2798H245.56V36.1398C245.847 35.8253 246.201 35.5787 246.595 35.4179C246.99 35.257 247.415 35.1859 247.84 35.2098C248.224 35.1803 248.61 35.2364 248.969 35.3741C249.329 35.5118 249.654 35.7277 249.92 36.0061C250.186 36.2846 250.386 36.6187 250.508 36.9842C250.629 37.3497 250.667 37.7376 250.62 38.1198V38.1198Z" fill="#E5D9B6"/>
<path d="M259.16 32.6997V41.9197H257.67V41.0497C257.398 41.3625 257.059 41.6097 256.678 41.7725C256.297 41.9353 255.884 42.0096 255.47 41.9897C254.568 41.9897 253.704 41.6315 253.066 40.9939C252.428 40.3562 252.07 39.4914 252.07 38.5897C252.07 37.688 252.428 36.8231 253.066 36.1855C253.704 35.5479 254.568 35.1897 255.47 35.1897C255.87 35.1713 256.27 35.2415 256.64 35.3953C257.01 35.5492 257.341 35.7829 257.61 36.0797V32.6797L259.16 32.6997ZM257.63 38.5997C257.614 38.2079 257.484 37.8294 257.255 37.5112C257.026 37.193 256.708 36.9491 256.342 36.8099C255.975 36.6708 255.576 36.6424 255.193 36.7284C254.811 36.8143 254.462 37.0108 254.19 37.2935C253.918 37.5761 253.736 37.9324 253.665 38.318C253.594 38.7036 253.638 39.1016 253.791 39.4624C253.945 39.8232 254.201 40.131 254.528 40.3474C254.855 40.5638 255.238 40.6794 255.63 40.6797C255.902 40.6888 256.173 40.6406 256.425 40.5383C256.677 40.4359 256.905 40.2816 257.094 40.0854C257.282 39.8893 257.427 39.6556 257.52 39.3996C257.612 39.1437 257.65 38.8711 257.63 38.5997Z" fill="#E5D9B6"/>
<path d="M266.76 38.0496V41.9396H265.29V41.1296C265.048 41.4458 264.728 41.6945 264.362 41.8521C263.996 42.0097 263.596 42.0708 263.2 42.0296C261.69 42.0296 260.73 41.1996 260.73 40.0296C260.73 38.8596 261.47 38.0296 263.49 38.0296H265.21V37.9296C265.21 37.0296 264.66 36.4896 263.55 36.4896C262.829 36.483 262.126 36.7151 261.55 37.1496L260.93 36.0496C261.754 35.4809 262.739 35.1933 263.74 35.2296C265.65 35.2096 266.76 36.1196 266.76 38.0496ZM265.21 39.8696V39.0496H263.6C262.54 39.0496 262.26 39.4396 262.26 39.9296C262.26 40.4196 262.73 40.8496 263.53 40.8496C263.879 40.8761 264.227 40.7943 264.528 40.6153C264.829 40.4363 265.067 40.1689 265.21 39.8496V39.8696Z" fill="#E5D9B6"/>
<path d="M272.59 35.2097V36.6897C272.47 36.6761 272.35 36.6761 272.23 36.6897C271.961 36.6693 271.691 36.7094 271.439 36.807C271.187 36.9046 270.96 37.0573 270.775 37.2539C270.59 37.4504 270.452 37.6858 270.369 37.9429C270.287 38.2 270.263 38.4723 270.3 38.7397V41.9597H268.75V35.2797H270.23V36.2797C270.498 35.9128 270.856 35.6214 271.269 35.4339C271.683 35.2464 272.138 35.1692 272.59 35.2097V35.2097Z" fill="#E5D9B6"/>
<path d="M280.35 32.6997V41.9197H278.86V41.0497C278.588 41.3625 278.249 41.6097 277.868 41.7725C277.487 41.9353 277.074 42.0096 276.66 41.9897C275.758 41.9897 274.893 41.6315 274.256 40.9939C273.618 40.3562 273.26 39.4914 273.26 38.5897C273.26 37.688 273.618 36.8231 274.256 36.1855C274.893 35.5479 275.758 35.1897 276.66 35.1897C277.06 35.1706 277.46 35.2405 277.83 35.3944C278.2 35.5483 278.531 35.7823 278.8 36.0797V32.6797L280.35 32.6997ZM278.82 38.5997C278.804 38.2079 278.674 37.8294 278.445 37.5112C278.216 37.193 277.898 36.9491 277.532 36.8099C277.165 36.6708 276.766 36.6424 276.383 36.7284C276.001 36.8143 275.652 37.0108 275.38 37.2935C275.108 37.5761 274.925 37.9324 274.855 38.318C274.784 38.7036 274.828 39.1016 274.981 39.4624C275.135 39.8232 275.391 40.131 275.718 40.3474C276.045 40.5638 276.428 40.6794 276.82 40.6797C277.092 40.6904 277.364 40.6433 277.617 40.5415C277.87 40.4396 278.098 40.2854 278.287 40.0889C278.476 39.8924 278.621 39.6581 278.713 39.4014C278.805 39.1447 278.841 38.8715 278.82 38.5997V38.5997Z" fill="#E5D9B6"/>
<path d="M271.78 180.58H231.8C226.366 180.58 221.96 184.986 221.96 190.42V191.17C221.96 196.605 226.366 201.01 231.8 201.01H271.78C277.215 201.01 281.62 196.605 281.62 191.17V190.42C281.62 184.986 277.215 180.58 271.78 180.58Z" fill="#0F3015"/>
<path d="M275.48 138.78H226.05V140.78H275.48V138.78Z" fill="#0F3015"/>
<path d="M275.48 105.94H226.05V107.94H275.48V105.94Z" fill="#0F3015"/>
<path d="M275.48 74.2798H226.05V76.2798H275.48V74.2798Z" fill="#0F3015"/>
<path d="M258.377 124.735C259.468 120.113 256.606 115.481 251.983 114.39C247.36 113.299 242.728 116.162 241.637 120.784C240.546 125.407 243.409 130.039 248.032 131.13C252.655 132.221 257.286 129.358 258.377 124.735Z" fill="#0F3015"/>
<path d="M256.17 120.9L251.22 125.85L248.91 128.16L246.6 125.85L248.91 123.54L253.86 118.59L256.17 120.9Z" fill="#E5D9B6"/>
<path d="M251.22 125.85L248.91 128.16L244.02 123.26L246.32 120.95L248.91 123.54L251.22 125.85Z" fill="#E5D9B6"/>
<path d="M254.053 164.736C258.441 162.918 260.525 157.888 258.707 153.499C256.889 149.111 251.859 147.028 247.471 148.845C243.082 150.663 240.999 155.693 242.816 160.082C244.634 164.47 249.665 166.553 254.053 164.736Z" fill="#0F3015"/>
<path d="M256.92 154.93L251.97 159.88L249.66 162.19L247.35 159.88L249.66 157.57L254.61 152.62L256.92 154.93Z" fill="#E5D9B6"/>
<path d="M251.97 159.88L249.66 162.19L244.77 157.29L247.07 154.98L249.66 157.57L251.97 159.88Z" fill="#E5D9B6"/>
<path d="M250.01 99.6201C254.71 99.6201 258.52 95.81 258.52 91.1101C258.52 86.4102 254.71 82.6001 250.01 82.6001C245.31 82.6001 241.5 86.4102 241.5 91.1101C241.5 95.81 245.31 99.6201 250.01 99.6201Z" fill="#011204"/>
<path opacity="0.5" d="M250.01 99.6201C254.71 99.6201 258.52 95.81 258.52 91.1101C258.52 86.4102 254.71 82.6001 250.01 82.6001C245.31 82.6001 241.5 86.4102 241.5 91.1101C241.5 95.81 245.31 99.6201 250.01 99.6201Z" fill="#E5D9B6"/>
<path d="M252.535 86.3079L245.203 93.6406L247.487 95.9246L254.819 88.5919L252.535 86.3079Z" fill="#E5D9B6"/>
<path d="M245.208 88.595L252.541 95.9277L254.825 93.6438L247.492 86.3111L245.208 88.595Z" fill="#E5D9B6"/>
<path d="M289.3 26.1396V48.9596L294.12 44.1396V26.1396H289.3Z" fill="#0F3015"/>
<path d="M298.93 26.1396V48.9596L294.12 44.1396V26.1396H298.93Z" fill="#0F3015"/>
<g opacity="0.3">
<path d="M298.94 26.1299V48.9699L294.12 44.1399L289.3 48.9699V26.1299H298.94Z" fill="#E5D9B6"/>
</g>
<path d="M296.47 3.3198C296.799 3.94602 297.359 4.41891 298.032 4.63752C298.705 4.85612 299.436 4.80311 300.07 4.4898V4.4898C300.516 4.27221 301.013 4.18019 301.507 4.22361C302.001 4.26703 302.474 4.44426 302.875 4.73626C303.276 5.02826 303.59 5.42398 303.783 5.88093C303.976 6.33787 304.04 6.83877 303.97 7.3298V7.3298C303.876 8.03 304.056 8.73943 304.471 9.31101C304.886 9.88259 305.505 10.2725 306.2 10.3998V10.3998C306.689 10.4832 307.146 10.6987 307.521 11.023C307.896 11.3473 308.176 11.7679 308.329 12.2395C308.483 12.7112 308.504 13.2157 308.392 13.6987C308.279 14.1817 308.036 14.6247 307.69 14.9798V14.9798C307.2 15.4886 306.925 16.1679 306.925 16.8748C306.925 17.5817 307.2 18.261 307.69 18.7698V18.7698C308.036 19.126 308.278 19.5697 308.39 20.0531C308.502 20.5365 308.48 21.0414 308.327 21.5134C308.174 21.9854 307.895 22.4068 307.52 22.7321C307.145 23.0574 306.689 23.2744 306.2 23.3598V23.3598C305.51 23.4916 304.896 23.8838 304.487 24.4552C304.077 25.0266 303.903 25.7335 304 26.4298V26.4298C304.068 26.92 304.002 27.4196 303.808 27.875C303.614 28.3304 303.3 28.7246 302.9 29.0153C302.499 29.306 302.027 29.4823 301.534 29.5254C301.041 29.5684 300.545 29.4766 300.1 29.2598V29.2598C299.465 28.9517 298.736 28.9014 298.065 29.1195C297.393 29.3377 296.833 29.8073 296.5 30.4298V30.4298C296.268 30.867 295.92 31.2326 295.496 31.4876C295.071 31.7426 294.585 31.8773 294.09 31.8773C293.595 31.8773 293.109 31.7426 292.685 31.4876C292.26 31.2326 291.913 30.867 291.68 30.4298C291.344 29.7904 290.769 29.3092 290.08 29.0902C289.391 28.8713 288.644 28.9322 288 29.2598C287.555 29.4766 287.06 29.5684 286.567 29.5254C286.074 29.4823 285.601 29.306 285.201 29.0153C284.8 28.7246 284.486 28.3304 284.292 27.875C284.098 27.4196 284.032 26.92 284.1 26.4298V26.4298C284.199 25.7288 284.022 25.0168 283.606 24.444C283.19 23.8713 282.567 23.4825 281.87 23.3598V23.3598C281.381 23.2744 280.925 23.0574 280.55 22.7321C280.175 22.4068 279.896 21.9854 279.743 21.5134C279.59 21.0414 279.568 20.5365 279.681 20.0531C279.793 19.5697 280.035 19.126 280.38 18.7698V18.7698C280.871 18.261 281.145 17.5817 281.145 16.8748C281.145 16.1679 280.871 15.4886 280.38 14.9798C280.037 14.6233 279.798 14.1804 279.687 13.6984C279.577 13.2164 279.599 12.7134 279.752 12.2431C279.905 11.7728 280.183 11.3529 280.556 11.0282C280.929 10.7036 281.383 10.4864 281.87 10.3998V10.3998C282.566 10.2748 283.187 9.88544 283.603 9.31327C284.018 8.7411 284.197 8.03039 284.1 7.3298C284.03 6.83877 284.095 6.33787 284.288 5.88093C284.481 5.42398 284.795 5.02826 285.196 4.73626C285.597 4.44426 286.07 4.26703 286.564 4.22361C287.058 4.18019 287.554 4.27221 288 4.4898V4.4898C288.636 4.80098 289.368 4.8529 290.042 4.63461C290.715 4.41631 291.278 3.94488 291.61 3.3198V3.3198C291.839 2.87246 292.187 2.49703 292.616 2.23487C293.045 1.97271 293.538 1.83398 294.04 1.83398C294.543 1.83398 295.036 1.97271 295.464 2.23487C295.893 2.49703 296.241 2.87246 296.47 3.3198Z" fill="#0F3015"/>
<path d="M296.47 3.3198C296.799 3.94602 297.359 4.41891 298.032 4.63752C298.705 4.85612 299.436 4.80311 300.07 4.4898V4.4898C300.516 4.27221 301.013 4.18019 301.507 4.22361C302.001 4.26703 302.474 4.44426 302.875 4.73626C303.276 5.02826 303.59 5.42398 303.783 5.88093C303.976 6.33787 304.04 6.83877 303.97 7.3298V7.3298C303.876 8.03 304.056 8.73943 304.471 9.31101C304.886 9.88259 305.505 10.2725 306.2 10.3998V10.3998C306.689 10.4832 307.146 10.6987 307.521 11.023C307.896 11.3473 308.176 11.7679 308.329 12.2395C308.483 12.7112 308.504 13.2157 308.392 13.6987C308.279 14.1817 308.036 14.6247 307.69 14.9798V14.9798C307.2 15.4886 306.925 16.1679 306.925 16.8748C306.925 17.5817 307.2 18.261 307.69 18.7698V18.7698C308.036 19.126 308.278 19.5697 308.39 20.0531C308.502 20.5365 308.48 21.0414 308.327 21.5134C308.174 21.9854 307.895 22.4068 307.52 22.7321C307.145 23.0574 306.689 23.2744 306.2 23.3598V23.3598C305.51 23.4916 304.896 23.8838 304.487 24.4552C304.077 25.0266 303.903 25.7335 304 26.4298V26.4298C304.068 26.92 304.002 27.4196 303.808 27.875C303.614 28.3304 303.3 28.7246 302.9 29.0153C302.499 29.306 302.027 29.4823 301.534 29.5254C301.041 29.5684 300.545 29.4766 300.1 29.2598V29.2598C299.465 28.9517 298.736 28.9014 298.065 29.1195C297.393 29.3377 296.833 29.8073 296.5 30.4298V30.4298C296.268 30.867 295.92 31.2326 295.496 31.4876C295.071 31.7426 294.585 31.8773 294.09 31.8773C293.595 31.8773 293.109 31.7426 292.685 31.4876C292.26 31.2326 291.913 30.867 291.68 30.4298C291.344 29.7904 290.769 29.3092 290.08 29.0902C289.391 28.8713 288.644 28.9322 288 29.2598C287.555 29.4766 287.06 29.5684 286.567 29.5254C286.074 29.4823 285.601 29.306 285.201 29.0153C284.8 28.7246 284.486 28.3304 284.292 27.875C284.098 27.4196 284.032 26.92 284.1 26.4298V26.4298C284.199 25.7288 284.022 25.0168 283.606 24.444C283.19 23.8713 282.567 23.4825 281.87 23.3598V23.3598C281.381 23.2744 280.925 23.0574 280.55 22.7321C280.175 22.4068 279.896 21.9854 279.743 21.5134C279.59 21.0414 279.568 20.5365 279.681 20.0531C279.793 19.5697 280.035 19.126 280.38 18.7698V18.7698C280.871 18.261 281.145 17.5817 281.145 16.8748C281.145 16.1679 280.871 15.4886 280.38 14.9798C280.037 14.6233 279.798 14.1804 279.687 13.6984C279.577 13.2164 279.599 12.7134 279.752 12.2431C279.905 11.7728 280.183 11.3529 280.556 11.0282C280.929 10.7036 281.383 10.4864 281.87 10.3998V10.3998C282.566 10.2748 283.187 9.88544 283.603 9.31327C284.018 8.7411 284.197 8.03039 284.1 7.3298C284.03 6.83877 284.095 6.33787 284.288 5.88093C284.481 5.42398 284.795 5.02826 285.196 4.73626C285.597 4.44426 286.07 4.26703 286.564 4.22361C287.058 4.18019 287.554 4.27221 288 4.4898V4.4898C288.636 4.80098 289.368 4.8529 290.042 4.63461C290.715 4.41631 291.278 3.94488 291.61 3.3198V3.3198C291.839 2.87246 292.187 2.49703 292.616 2.23487C293.045 1.97271 293.538 1.83398 294.04 1.83398C294.543 1.83398 295.036 1.97271 295.464 2.23487C295.893 2.49703 296.241 2.87246 296.47 3.3198Z" fill="#0F3015"/>
<g opacity="0.5">
<path d="M296.47 3.3198C296.799 3.94602 297.359 4.41891 298.032 4.63752C298.705 4.85612 299.436 4.80311 300.07 4.4898V4.4898C300.516 4.27221 301.013 4.18019 301.507 4.22361C302.001 4.26703 302.474 4.44426 302.875 4.73626C303.276 5.02826 303.59 5.42398 303.783 5.88093C303.976 6.33787 304.04 6.83877 303.97 7.3298V7.3298C303.876 8.03 304.056 8.73943 304.471 9.31101C304.886 9.88259 305.505 10.2725 306.2 10.3998V10.3998C306.689 10.4832 307.146 10.6987 307.521 11.023C307.896 11.3473 308.176 11.7679 308.329 12.2395C308.483 12.7112 308.504 13.2157 308.392 13.6987C308.279 14.1817 308.036 14.6247 307.69 14.9798V14.9798C307.2 15.4886 306.925 16.1679 306.925 16.8748C306.925 17.5817 307.2 18.261 307.69 18.7698V18.7698C308.036 19.126 308.278 19.5697 308.39 20.0531C308.502 20.5365 308.48 21.0414 308.327 21.5134C308.174 21.9854 307.895 22.4068 307.52 22.7321C307.145 23.0574 306.689 23.2744 306.2 23.3598V23.3598C305.51 23.4916 304.896 23.8838 304.487 24.4552C304.077 25.0266 303.903 25.7335 304 26.4298V26.4298C304.068 26.92 304.002 27.4196 303.808 27.875C303.614 28.3304 303.3 28.7246 302.9 29.0153C302.499 29.306 302.027 29.4823 301.534 29.5254C301.041 29.5684 300.545 29.4766 300.1 29.2598V29.2598C299.465 28.9517 298.736 28.9014 298.065 29.1195C297.393 29.3377 296.833 29.8073 296.5 30.4298V30.4298C296.268 30.867 295.92 31.2326 295.496 31.4876C295.071 31.7426 294.585 31.8773 294.09 31.8773C293.595 31.8773 293.109 31.7426 292.685 31.4876C292.26 31.2326 291.913 30.867 291.68 30.4298C291.344 29.7904 290.769 29.3092 290.08 29.0902C289.391 28.8713 288.644 28.9322 288 29.2598C287.555 29.4766 287.06 29.5684 286.567 29.5254C286.074 29.4823 285.601 29.306 285.201 29.0153C284.8 28.7246 284.486 28.3304 284.292 27.875C284.098 27.4196 284.032 26.92 284.1 26.4298V26.4298C284.199 25.7288 284.022 25.0168 283.606 24.444C283.19 23.8713 282.567 23.4825 281.87 23.3598V23.3598C281.381 23.2744 280.925 23.0574 280.55 22.7321C280.175 22.4068 279.896 21.9854 279.743 21.5134C279.59 21.0414 279.568 20.5365 279.681 20.0531C279.793 19.5697 280.035 19.126 280.38 18.7698V18.7698C280.871 18.261 281.145 17.5817 281.145 16.8748C281.145 16.1679 280.871 15.4886 280.38 14.9798C280.037 14.6233 279.798 14.1804 279.687 13.6984C279.577 13.2164 279.599 12.7134 279.752 12.2431C279.905 11.7728 280.183 11.3529 280.556 11.0282C280.929 10.7036 281.383 10.4864 281.87 10.3998V10.3998C282.566 10.2748 283.187 9.88544 283.603 9.31327C284.018 8.7411 284.197 8.03039 284.1 7.3298C284.03 6.83877 284.095 6.33787 284.288 5.88093C284.481 5.42398 284.795 5.02826 285.196 4.73626C285.597 4.44426 286.07 4.26703 286.564 4.22361C287.058 4.18019 287.554 4.27221 288 4.4898V4.4898C288.636 4.80098 289.368 4.8529 290.042 4.63461C290.715 4.41631 291.278 3.94488 291.61 3.3198V3.3198C291.839 2.87246 292.187 2.49703 292.616 2.23487C293.045 1.97271 293.538 1.83398 294.04 1.83398C294.543 1.83398 295.036 1.97271 295.464 2.23487C295.893 2.49703 296.241 2.87246 296.47 3.3198Z" fill="#E5D9B6"/>
</g>
<path d="M289.73 14.0498H288.49C288.215 14.0507 287.949 14.1532 287.744 14.3377C287.539 14.5222 287.41 14.7757 287.38 15.0498L287.08 20.7698C287.072 20.9061 287.092 21.0426 287.138 21.1709C287.185 21.2993 287.257 21.4167 287.351 21.516C287.445 21.6153 287.558 21.6944 287.683 21.7484C287.809 21.8023 287.944 21.83 288.08 21.8298H289.32C289.605 21.8253 289.877 21.7137 290.083 21.5172C290.289 21.3207 290.413 21.0538 290.43 20.7698L290.73 15.0498C290.73 14.7846 290.625 14.5302 290.437 14.3427C290.25 14.1552 289.995 14.0498 289.73 14.0498Z" fill="#E5D9B6"/>
<path d="M299.62 14.0499H296.71L297.52 12.1399C297.612 11.94 297.647 11.7184 297.62 11.4999L297.45 9.99994C297.418 9.70909 297.28 9.44021 297.063 9.24467C296.845 9.04914 296.563 8.94065 296.27 8.93994H294.82C294.731 10.4385 294.183 11.8734 293.25 13.0499L292.36 14.1699C292.132 14.4562 291.996 14.8048 291.97 15.1699L291.69 20.5099C291.681 20.6786 291.706 20.8474 291.764 21.006C291.822 21.1646 291.912 21.3097 292.028 21.4324C292.144 21.555 292.284 21.6527 292.439 21.7193C292.594 21.786 292.761 21.8202 292.93 21.8199H298C298.225 21.8175 298.447 21.7682 298.652 21.6753C298.857 21.5823 299.04 21.4477 299.19 21.2799L299.66 20.7599C299.825 20.5513 299.941 20.3088 300 20.0499L301 15.7399C301.044 15.5422 301.045 15.3374 301.004 15.1392C300.962 14.9409 300.879 14.7537 300.76 14.5899V14.5899C300.625 14.4176 300.452 14.2791 300.254 14.1853C300.056 14.0916 299.839 14.0453 299.62 14.0499V14.0499Z" fill="#E5D9B6"/>
<path d="M250.01 48.96L251.62 51.53L254.57 52.27L252.62 54.59L252.83 57.62L250.01 56.48L247.2 57.62L247.41 54.59L245.46 52.27L248.41 51.53L250.01 48.96Z" fill="#E5D9B6"/>
<path d="M236.62 192.39C236.62 194.25 235.13 195.49 232.8 195.69L232.49 197.22H231.09L231.4 195.69C230.255 195.612 229.149 195.24 228.19 194.61L229.12 192.88C229.898 193.437 230.808 193.781 231.76 193.88L232.24 191.52C230.94 191.13 229.51 190.61 229.51 188.92C229.51 187.06 231.04 185.81 233.41 185.64L233.72 184.1H235.12L234.81 185.65C235.716 185.721 236.594 185.994 237.38 186.45L236.53 188.18C235.901 187.775 235.185 187.529 234.44 187.46L233.96 189.91C235.24 190.28 236.62 190.78 236.62 192.39ZM232.62 189.51L233.02 187.51C232.23 187.66 231.78 188.1 231.77 188.63C231.76 189.16 232.13 189.3 232.63 189.51H232.62ZM234.35 192.75C234.35 192.35 234.03 192.1 233.54 191.92L233.16 193.83C233.93 193.68 234.36 193.28 234.36 192.75H234.35Z" fill="#E5D9B6"/>
<path d="M165.76 26.54H107.26C96.9709 26.54 88.63 34.881 88.63 45.17V203.95C88.63 214.239 96.9709 222.58 107.26 222.58H165.76C176.049 222.58 184.39 214.239 184.39 203.95V45.17C184.39 34.881 176.049 26.54 165.76 26.54Z" fill="#5F8D4E"/>
<path opacity="0.7" d="M165.47 26.54H107.55C97.1008 26.54 88.63 35.0108 88.63 45.46V203.66C88.63 214.109 97.1008 222.58 107.55 222.58H165.47C175.919 222.58 184.39 214.109 184.39 203.66V45.46C184.39 35.0108 175.919 26.54 165.47 26.54Z" fill="#E5D9B6"/>
<path d="M184.39 36.16V75.05H88.63V36.16C88.63 33.6087 89.6435 31.1618 91.4476 29.3577C93.2517 27.5536 95.6986 26.54 98.25 26.54H174.77C177.321 26.54 179.768 27.5536 181.572 29.3577C183.376 31.1618 184.39 33.6087 184.39 36.16Z" fill="#0F3015"/>
<path d="M184.39 36.16V75.05H88.63V36.16C88.63 33.6087 89.6435 31.1618 91.4476 29.3577C93.2517 27.5536 95.6986 26.54 98.25 26.54H174.77C177.321 26.54 179.768 27.5536 181.572 29.3577C183.376 31.1618 184.39 33.6087 184.39 36.16Z" fill="#0F3015"/>
<path d="M128.64 50.7204C128.64 52.2104 127.48 53.0804 125.24 53.0804H120.91V44.3804H125C127.09 44.3804 128.21 45.2604 128.21 46.6404C128.221 47.0317 128.122 47.4182 127.924 47.7559C127.726 48.0936 127.437 48.3688 127.09 48.5504C127.555 48.6848 127.961 48.9722 128.242 49.366C128.523 49.7598 128.663 50.237 128.64 50.7204V50.7204ZM122.53 45.6404V48.0504H124.81C125.93 48.0504 126.57 47.6604 126.57 46.8604C126.57 46.0604 125.93 45.6504 124.81 45.6504L122.53 45.6404ZM127.01 50.5604C127.01 49.6904 126.36 49.3004 125.14 49.3004H122.53V51.8104H125.14C126.36 51.8104 127 51.4304 127 50.5604H127.01Z" fill="#E5D9B6"/>
<path d="M135.78 49.1902V53.0502H134.32V52.2402C134.075 52.5528 133.755 52.7989 133.39 52.9562C133.024 53.1134 132.626 53.1766 132.23 53.1402C130.71 53.1402 129.75 52.3102 129.75 51.1402C129.75 49.9702 130.5 49.1402 132.51 49.1402H134.23V49.0402C134.23 48.1302 133.68 47.6002 132.57 47.6002C131.849 47.5958 131.147 47.8276 130.57 48.2602L129.96 47.1302C130.784 46.5615 131.769 46.2739 132.77 46.3102C134.68 46.3702 135.78 47.2702 135.78 49.1902ZM134.23 51.0502V50.2802H132.62C131.57 50.2802 131.28 50.6802 131.28 51.1702C131.28 51.6602 131.75 52.0902 132.55 52.0902C132.904 52.115 133.256 52.0279 133.558 51.8413C133.859 51.6546 134.094 51.3779 134.23 51.0502Z" fill="#E5D9B6"/>
<path d="M137 52.4201L137.6 51.2401C138.295 51.6682 139.094 51.8965 139.91 51.9001C140.91 51.9001 141.31 51.6301 141.31 51.1701C141.31 49.9001 137.2 51.0901 137.2 48.4401C137.2 47.1901 138.33 46.3701 140.13 46.3701C140.991 46.3538 141.843 46.5496 142.61 46.9401L142.02 48.1201C141.441 47.783 140.78 47.6102 140.11 47.6201C139.17 47.6201 138.72 47.9301 138.72 48.3701C138.72 49.7101 142.82 48.5201 142.82 51.1201C142.82 52.3601 141.68 53.1701 139.82 53.1701C138.829 53.1873 137.852 52.9275 137 52.4201V52.4201Z" fill="#E5D9B6"/>
<path d="M144 44.4102C144 44.1449 144.105 43.8906 144.293 43.703C144.48 43.5155 144.735 43.4102 145 43.4102C145.265 43.4102 145.519 43.5155 145.707 43.703C145.894 43.8906 146 44.1449 146 44.4102C146 44.6754 145.894 44.9297 145.707 45.1173C145.519 45.3048 145.265 45.4102 145 45.4102C144.866 45.419 144.732 45.3992 144.607 45.3521C144.482 45.3049 144.368 45.2316 144.273 45.1369C144.178 45.0422 144.105 44.9284 144.058 44.8031C144.011 44.6777 143.991 44.5438 144 44.4102V44.4102ZM144.21 46.4102H145.76V53.0502H144.21V46.4102Z" fill="#E5D9B6"/>
<path d="M147.22 49.7599C147.215 49.2952 147.306 48.8345 147.488 48.4068C147.669 47.9791 147.938 47.5938 148.276 47.2752C148.615 46.9566 149.015 46.7116 149.453 46.5558C149.891 46.4 150.356 46.3367 150.82 46.3699C151.389 46.3309 151.958 46.455 152.459 46.7278C152.96 47.0006 153.374 47.4106 153.65 47.9099L152.46 48.5999C152.291 48.3146 152.049 48.0792 151.759 47.9176C151.469 47.756 151.142 47.674 150.81 47.6799C150.258 47.6799 149.729 47.8991 149.339 48.2891C148.949 48.6792 148.73 49.2083 148.73 49.7599C148.73 50.3116 148.949 50.8406 149.339 51.2307C149.729 51.6208 150.258 51.8399 150.81 51.8399C151.142 51.8458 151.469 51.7638 151.759 51.6022C152.049 51.4406 152.291 51.2052 152.46 50.9199L153.65 51.6099C153.376 52.1129 152.964 52.5271 152.463 52.8035C151.961 53.08 151.391 53.2071 150.82 53.1699C150.355 53.2003 149.89 53.1343 149.452 52.9762C149.014 52.818 148.613 52.5712 148.275 52.251C147.937 51.9309 147.669 51.5443 147.488 51.1157C147.306 50.687 147.215 50.2254 147.22 49.7599Z" fill="#E5D9B6"/>
<path d="M141.105 141.729C144.428 138.406 144.428 133.017 141.105 129.694C137.781 126.371 132.393 126.371 129.07 129.694C125.746 133.017 125.746 138.406 129.07 141.729C132.393 145.052 137.781 145.052 141.105 141.729Z" fill="#5F8D4E"/>
<path opacity="0.5" d="M141.105 141.729C144.428 138.406 144.428 133.017 141.105 129.694C137.781 126.371 132.393 126.371 129.07 129.694C125.746 133.017 125.746 138.406 129.07 141.729C132.393 145.052 137.781 145.052 141.105 141.729Z" fill="#E5D9B6"/>
<path d="M137.604 130.903L130.272 138.235L132.556 140.519L139.888 133.187L137.604 130.903Z" fill="#E5D9B6"/>
<path d="M130.273 133.196L137.605 140.528L139.889 138.244L132.557 130.912L130.273 133.196Z" fill="#E5D9B6"/>
<path d="M135.48 175.76C140.23 175.76 144.08 171.91 144.08 167.16C144.08 162.41 140.23 158.56 135.48 158.56C130.73 158.56 126.88 162.41 126.88 167.16C126.88 171.91 130.73 175.76 135.48 175.76Z" fill="#0F3015"/>
<path d="M141.64 165.3L136.69 170.25L134.38 172.56L132.07 170.25L134.38 167.94L139.33 162.99L141.64 165.3Z" fill="#E5D9B6"/>
<path d="M136.69 170.25L134.38 172.56L129.49 167.66L131.79 165.35L134.38 167.94L136.69 170.25Z" fill="#E5D9B6"/>
<path d="M156.5 191.73H116.52C111.086 191.73 106.68 196.136 106.68 201.57V202.32C106.68 207.754 111.086 212.16 116.52 212.16H156.5C161.935 212.16 166.34 207.754 166.34 202.32V201.57C166.34 196.136 161.935 191.73 156.5 191.73Z" fill="#0F3015"/>
<path d="M119.61 203.89C119.61 205.75 118.12 206.99 115.78 207.18L115.48 208.72H114.08L114.39 207.18C113.242 207.108 112.133 206.739 111.17 206.11L112.11 204.38C112.888 204.937 113.798 205.282 114.75 205.38L115.22 203.02C113.93 202.63 112.5 202.11 112.5 200.42C112.5 198.56 114.02 197.3 116.4 197.14L116.71 195.6H118.1L117.8 197.15C118.706 197.221 119.584 197.495 120.37 197.95L119.51 199.68C118.886 199.273 118.172 199.022 117.43 198.95L116.94 201.41C118.23 201.78 119.61 202.28 119.61 203.89ZM115.61 201.01L116.01 199.01C115.21 199.16 114.77 199.59 114.75 200.13C114.73 200.67 115.11 200.8 115.62 201.05L115.61 201.01ZM117.34 204.25C117.34 203.85 117.02 203.59 116.53 203.41L116.15 205.33C116.91 205.17 117.35 204.78 117.35 204.25H117.34Z" fill="#E5D9B6"/>
<path d="M160.2 149.94H110.77V151.94H160.2V149.94Z" fill="#0F3015"/>
<path d="M160.2 117.1H110.77V119.1H160.2V117.1Z" fill="#0F3015"/>
<path d="M160.2 85.4399H110.77V87.4399H160.2V85.4399Z" fill="#0F3015"/>
<path d="M141.109 108.293C144.432 104.97 144.432 99.5813 141.109 96.2579C137.785 92.9345 132.397 92.9346 129.074 96.2579C125.751 99.5813 125.751 104.97 129.074 108.293C132.397 111.616 137.785 111.616 141.109 108.293Z" fill="#5F8D4E"/>
<path opacity="0.5" d="M141.109 108.293C144.432 104.97 144.432 99.5813 141.109 96.2579C137.785 92.9345 132.397 92.9346 129.074 96.2579C125.751 99.5813 125.751 104.97 129.074 108.293C132.397 111.616 137.785 111.616 141.109 108.293Z" fill="#E5D9B6"/>
<path d="M137.609 97.4666L130.276 104.799L132.56 107.083L139.893 99.7506L137.609 97.4666Z" fill="#E5D9B6"/>
<path d="M130.277 99.7508L137.61 107.083L139.894 104.8L132.561 97.4668L130.277 99.7508Z" fill="#E5D9B6"/>
<path d="M260.09 354.16L267.76 355.57L273.56 341.41L265.18 338.07L260.09 354.16Z" fill="#FFC2BC"/>
<path opacity="0.1" d="M262.84 345.19L265.03 338.61L268.89 339.55L273.56 341.41L271.06 347.58L262.84 345.19Z" fill="#E5D9B6"/>
<path d="M258.59 351.509C258.59 351.509 258.29 351.239 257.9 350.929C257.51 350.619 257.27 350.449 256.9 350.189C256.185 349.648 255.34 349.303 254.45 349.189C254.173 349.195 253.905 349.294 253.69 349.469C253.565 349.56 253.472 349.689 253.427 349.837C253.382 349.985 253.387 350.144 253.44 350.289C254.059 350.94 254.881 351.36 255.77 351.479L256.48 351.629C257.142 351.749 257.809 351.833 258.48 351.879V351.879C258.52 351.879 258.559 351.868 258.592 351.847C258.626 351.826 258.653 351.795 258.67 351.759C258.691 351.715 258.695 351.665 258.68 351.618C258.665 351.572 258.633 351.533 258.59 351.509V351.509ZM256.99 351.309C255.55 351.069 253.99 350.619 253.82 350.109C253.82 350.039 253.76 349.909 253.98 349.709C254.042 349.653 254.115 349.61 254.194 349.582C254.273 349.555 254.357 349.544 254.44 349.549C254.578 349.551 254.716 349.568 254.85 349.599C255.777 349.957 256.641 350.46 257.41 351.089C257.56 351.199 257.7 351.319 257.84 351.439C257.57 351.409 257.28 351.359 257 351.309H256.99Z" fill="#0F3015"/>
<path d="M258.2 348.359C257.951 348.048 257.594 347.841 257.2 347.779C256.63 347.689 256.39 347.909 256.3 348.119C256.08 348.569 256.42 349.409 256.92 350.189C257.115 350.49 257.329 350.777 257.56 351.049C257.794 351.329 258.055 351.583 258.34 351.809C258.369 351.821 258.401 351.821 258.43 351.809V351.809C258.463 351.82 258.498 351.82 258.53 351.809C258.562 351.799 258.59 351.78 258.613 351.756C258.636 351.732 258.652 351.702 258.66 351.669C258.704 351.375 258.731 351.077 258.74 350.779C258.83 349.935 258.64 349.085 258.2 348.359V348.359ZM258.29 351.229C258.19 351.129 258.08 351.029 257.98 350.909C257.19 350.039 256.45 348.699 256.64 348.239C256.64 348.239 256.72 348.059 257.1 348.119H257.21C257.459 348.179 257.68 348.32 257.84 348.519C258.22 349.224 258.39 350.022 258.33 350.819C258.32 350.979 258.31 351.099 258.29 351.229V351.229Z" fill="#0F3015"/>
<path d="M259.6 350.949L268.87 353.169C269.034 353.202 269.182 353.291 269.288 353.42C269.394 353.55 269.451 353.712 269.45 353.879L269.17 361.259C269.147 361.585 268.997 361.888 268.751 362.103C268.506 362.319 268.186 362.429 267.86 362.409C267.77 362.42 267.68 362.42 267.59 362.409C264.26 361.559 261.34 360.679 257.17 359.689C252.26 358.519 253.36 359.359 247.57 358.059C244.08 357.269 244.46 353.459 245.99 353.629C252.99 354.459 254.18 352.749 257.41 351.139C258.097 350.828 258.87 350.76 259.6 350.949V350.949Z" fill="#011204"/>
<path d="M315.29 355.56H322.63L324.8 343.39L315.82 341.72L315.29 355.56Z" fill="#FFC2BC"/>
<path opacity="0.1" d="M315.82 341.72L324.8 343.39L323.34 351.59L315.52 351.27L315.82 341.72Z" fill="#E5D9B6"/>
<path d="M326.38 349.35L313.2 348.6L312.8 343.4L327.55 344.41L326.38 349.35Z" fill="#0F3015"/>
<path opacity="0.5" d="M326.38 349.35L313.2 348.6L312.8 343.4L327.55 344.41L326.38 349.35Z" fill="white"/>
<path d="M314.22 355.75C314.22 355.75 313.88 355.56 313.44 355.34C313 355.12 312.78 355.03 312.38 354.88C311.599 354.498 310.724 354.349 309.86 354.45C309.606 354.514 309.387 354.675 309.25 354.9C309.164 355.025 309.118 355.173 309.118 355.325C309.118 355.476 309.164 355.625 309.25 355.75C309.951 356.242 310.809 356.459 311.66 356.36H312.33C312.937 356.321 313.542 356.248 314.14 356.14V356.14C314.177 356.128 314.21 356.108 314.237 356.08C314.263 356.052 314.281 356.017 314.29 355.98C314.304 355.939 314.304 355.895 314.291 355.854C314.279 355.813 314.254 355.776 314.22 355.75V355.75ZM312.71 355.94C311.35 356.04 309.88 355.94 309.56 355.52C309.5 355.45 309.45 355.34 309.56 355.1C309.598 355.027 309.652 354.964 309.718 354.916C309.784 354.867 309.86 354.835 309.94 354.82C310.063 354.804 310.187 354.804 310.31 354.82C311.251 354.952 312.163 355.239 313.01 355.67C313.178 355.73 313.338 355.807 313.49 355.9L312.71 355.94Z" fill="#0F3015"/>
<path d="M314.34 355.93C314.311 355.631 314.264 355.333 314.2 355.04C314.053 354.182 313.652 353.388 313.05 352.76C312.904 352.635 312.733 352.543 312.549 352.487C312.364 352.432 312.171 352.416 311.98 352.44C311.43 352.49 311.27 352.76 311.25 352.99C311.16 353.49 311.7 354.24 312.38 354.88C312.616 355.119 312.87 355.34 313.14 355.54C313.421 355.761 313.726 355.949 314.05 356.1C314.076 356.11 314.104 356.11 314.13 356.1C314.163 356.11 314.197 356.11 314.23 356.1C314.263 356.085 314.29 356.061 314.31 356.031C314.329 356 314.34 355.965 314.34 355.93V355.93ZM311.61 353.05C311.61 353 311.61 352.86 312 352.82H312.1C312.35 352.815 312.593 352.904 312.78 353.07C313.296 353.675 313.641 354.407 313.78 355.19C313.81 355.315 313.83 355.442 313.84 355.57L313.48 355.33C312.57 354.64 311.57 353.51 311.61 353.05Z" fill="#0F3015"/>
<path d="M315 354.96L323.94 354.91C324.103 354.91 324.261 354.966 324.388 355.067C324.515 355.169 324.604 355.311 324.64 355.47L326.3 362.73C326.336 362.882 326.341 363.04 326.315 363.194C326.29 363.349 326.234 363.496 326.152 363.629C326.069 363.762 325.961 363.877 325.834 363.968C325.706 364.059 325.562 364.124 325.41 364.16H325.16C321.94 364.16 319.07 363.96 315.06 363.99C310.33 363.99 311.53 364.57 305.97 364.68C302.62 364.75 301.97 360.94 303.41 360.75C309.91 359.89 310.57 357.92 313.07 355.58C313.617 355.147 314.303 354.927 315 354.96V354.96Z" fill="#011204"/>
<path d="M298.74 175.91L264.12 337.91L276.88 341.3C286.42 320.42 294.42 299.05 300.38 282.3C303.21 274.37 304.38 266.91 306.51 259.92C309.09 251.61 312.56 243.97 314.32 236.99C323.57 200.45 322.83 182.15 322.83 182.15L324.83 177.33L298.74 175.91Z" fill="#011204"/>
<path opacity="0.3" d="M320 210.68C318.75 218.05 316.94 226.85 314.35 237.07C313.51 240.39 307.88 256.38 306.54 260C304.98 236.6 310.33 197 310.33 197L320 210.68Z" fill="#E5D9B6"/>
<path d="M309.37 176.74L311.98 265.74L314.27 343.74L326.27 344.57C329.62 325.48 332.08 308.17 333.84 292.57C335 282.38 333.04 274.93 333.66 266.2C333.77 264.75 333.88 263.26 334.01 261.74C336.133 236.744 336.277 211.619 334.44 186.6C334.09 181.83 333.85 178.6 333.85 178.6L309.34 175.47L309.37 176.74Z" fill="#011204"/>
<path d="M275.19 345.86L262.57 341.97L263.43 336.83L277.51 341.34L275.19 345.86Z" fill="#0F3015"/>
<path opacity="0.5" d="M275.19 345.86L262.57 341.97L263.43 336.83L277.51 341.34L275.19 345.86Z" fill="white"/>
<path d="M307.65 120.29C305.299 123.771 303.545 127.621 302.46 131.68C301.925 133.509 301.505 135.369 301.2 137.25L300.33 139.64L292.61 136.57L291.39 136.09C293.27 127.62 300.55 119.96 305.95 120.09C306.524 120.072 307.096 120.139 307.65 120.29V120.29Z" fill="#0F3015"/>
<path opacity="0.2" d="M307.65 120.29C305.299 123.771 303.545 127.621 302.46 131.68C301.925 133.509 301.505 135.369 301.2 137.25L300.33 139.64L292.61 136.57L291.39 136.09C293.27 127.62 300.55 119.96 305.95 120.09C306.524 120.072 307.096 120.139 307.65 120.29V120.29Z" fill="white"/>
<path d="M298 175.15C298.93 173.07 298.81 169.02 301.88 168.25C305.96 167.25 309.32 166.95 325.38 168.31C332.96 168.96 334.64 175.01 334.38 178.12C334.35 178.533 334.208 178.931 333.97 179.27L333.65 179.73C332.9 180.02 298.53 176.21 298.19 176.42C298.046 176.246 297.951 176.035 297.918 175.811C297.884 175.587 297.913 175.359 298 175.15V175.15Z" fill="#0F3015"/>
<path opacity="0.2" d="M298 175.15C298.93 173.07 298.81 169.02 301.88 168.25C305.96 167.25 309.32 166.95 325.38 168.31C332.96 168.96 334.64 175.01 334.38 178.12C334.35 178.533 334.208 178.931 333.97 179.27L333.65 179.73C332.9 180.02 298.53 176.21 298.19 176.42C298.046 176.246 297.951 176.035 297.918 175.811C297.884 175.587 297.913 175.359 298 175.15V175.15Z" fill="white"/>
<path d="M306.36 120.23C306.14 120.64 299.31 121.35 299.85 151.23C299.92 155.08 298.94 163.23 298.94 163.23L297.94 165.72C297.539 166.731 297.361 167.816 297.42 168.902C297.479 169.988 297.772 171.049 298.28 172.01L298.78 172.94L333.41 176.46H334.41C334.41 176.46 336.64 158.38 339.62 146.29C340.62 142.35 341.62 137.51 341.62 137.51C340.917 132.954 340.582 128.349 340.62 123.74C340.62 123.74 340.62 123.69 340.62 123.68C336.424 122.436 332.143 121.501 327.81 120.88C323.209 120.179 318.564 119.801 313.91 119.75C309.58 119.98 306.37 120.22 306.36 120.23Z" fill="#0F3015"/>
<path d="M327.77 105.25C326.53 109.66 324.98 117.79 327.87 121.03L325.68 123.32C324.807 124.215 323.706 124.856 322.496 125.173C321.286 125.491 320.013 125.473 318.812 125.121C317.612 124.77 316.53 124.098 315.682 123.178C314.834 122.258 314.253 121.125 314 119.9V119.9C319.07 119.1 318 114.01 318.92 109.1L327.77 105.25Z" fill="#FFC2BC"/>
<path opacity="0.2" d="M316.23 104.05C317.23 107.57 318.71 113.23 317.65 117.14C322.2 117.54 325.22 113.41 325.41 112.09C324.851 110.535 324.409 108.941 324.09 107.32L316.23 104.05Z" fill="#E5D9B6"/>
<path d="M329.11 98.3597C328.56 105.86 328.5 109.04 324.67 112.84C318.91 118.57 309.82 116.26 308.11 108.76C306.57 102 307.72 90.8897 315.11 87.9797C316.732 87.338 318.491 87.1204 320.221 87.3477C321.951 87.5749 323.594 88.2395 324.995 89.2785C326.397 90.3175 327.51 91.6967 328.23 93.2857C328.95 94.8747 329.253 96.6211 329.11 98.3597V98.3597Z" fill="#FFC2BC"/>
<path d="M333.44 94.88C332.678 97.7154 332.172 100.614 331.93 103.54H329.07C328.813 103.796 328.632 104.119 328.549 104.473C328.466 104.826 328.484 105.196 328.6 105.54C328.118 105.329 327.708 104.981 327.42 104.54C327.214 104.106 327.111 103.63 327.12 103.15C327.05 101.309 326.852 99.4743 326.53 97.66C325.06 97.06 323.36 97.2199 321.99 96.4199C318.906 94.6631 316.225 92.2783 314.12 89.4199C312.982 89.9531 311.97 90.7218 311.152 91.675C310.333 92.6283 309.726 93.7446 309.37 94.9499C309.038 95.0153 308.693 94.9808 308.38 94.8509C308.067 94.7211 307.799 94.5015 307.61 94.22C307.247 93.6474 307.043 92.9879 307.02 92.3099C306.82 90.5428 307.276 88.7636 308.3 87.3099C309.056 86.3121 310.159 85.6342 311.39 85.41C311.913 85.4189 312.435 85.355 312.94 85.22C313.46 84.98 313.94 84.36 314.44 84.04C315.603 83.3982 316.88 82.9919 318.2 82.8443C319.519 82.6967 320.855 82.8108 322.13 83.18C325.296 84.2117 328.162 86 330.48 88.39C331.79 89.68 333.93 93.15 333.44 94.88Z" fill="#011204"/>
<path d="M331.72 105.57C330.987 106.825 329.786 107.739 328.38 108.11C326.52 108.58 325.63 106.91 326.18 105.17C326.68 103.6 328.26 101.5 330.1 101.76C330.744 101.874 331.317 102.24 331.692 102.776C332.067 103.312 332.214 103.975 332.1 104.62C332.043 104.96 331.914 105.284 331.72 105.57V105.57Z" fill="#FFC2BC"/>
<path d="M317.5 100.24C317.5 100.9 317.13 101.41 316.71 101.42C316.29 101.43 315.94 100.88 315.94 100.23C315.94 99.5799 316.31 99.0599 316.73 99.0499C317.15 99.0399 317.5 99.5899 317.5 100.24Z" fill="#011204"/>
<path d="M310.08 100.16C310.08 100.82 309.71 101.33 309.28 101.34C308.85 101.35 308.51 100.8 308.52 100.14C308.53 99.4801 308.88 98.9701 309.31 98.9601C309.74 98.9501 310.11 99.4901 310.08 100.16Z" fill="#011204"/>
<path d="M313 101.52C312.396 103.012 311.592 104.414 310.61 105.69C310.943 105.929 311.324 106.092 311.726 106.17C312.128 106.248 312.543 106.237 312.94 106.14L313 101.52Z" fill="#3A3A3A"/>
<path d="M315.27 108.36C314.9 108.519 314.515 108.64 314.12 108.72C314.076 108.729 314.031 108.72 313.994 108.696C313.956 108.672 313.93 108.634 313.92 108.59C313.916 108.548 313.927 108.506 313.951 108.471C313.975 108.437 314.01 108.411 314.05 108.4C314.859 108.251 315.621 107.914 316.274 107.415C316.927 106.917 317.454 106.271 317.81 105.53C317.82 105.489 317.845 105.453 317.881 105.431C317.916 105.409 317.959 105.401 318 105.41C318.019 105.412 318.036 105.418 318.053 105.428C318.069 105.437 318.083 105.45 318.094 105.465C318.105 105.48 318.113 105.497 318.118 105.515C318.122 105.533 318.123 105.552 318.12 105.57C317.573 106.838 316.55 107.84 315.27 108.36V108.36Z" fill="#011204"/>
<path d="M320.1 96.5299C320.057 96.5447 320.011 96.5469 319.967 96.5362C319.922 96.5256 319.882 96.5026 319.85 96.4699C319.552 96.164 319.185 95.9342 318.779 95.8002C318.374 95.6662 317.942 95.6318 317.52 95.6999C317.446 95.7124 317.371 95.6967 317.308 95.656C317.245 95.6153 317.199 95.5525 317.18 95.4799C317.166 95.4486 317.158 95.4146 317.157 95.3801C317.156 95.3455 317.163 95.3112 317.176 95.2793C317.189 95.2473 317.209 95.2184 317.233 95.1945C317.258 95.1705 317.288 95.1519 317.32 95.1399C317.829 95.053 318.351 95.0904 318.842 95.2489C319.333 95.4073 319.778 95.6822 320.14 96.05C320.195 96.0995 320.231 96.1664 320.242 96.2393C320.252 96.3121 320.238 96.3866 320.2 96.4499C320.191 96.4698 320.177 96.4873 320.159 96.5012C320.142 96.515 320.122 96.5248 320.1 96.5299V96.5299Z" fill="#011204"/>
<path d="M308.12 96.8799C308.068 96.9009 308.011 96.9064 307.956 96.8958C307.901 96.8851 307.851 96.8588 307.81 96.8199C307.781 96.7911 307.758 96.7568 307.743 96.7191C307.727 96.6813 307.719 96.6408 307.719 96.5999C307.719 96.559 307.727 96.5185 307.743 96.4807C307.758 96.443 307.781 96.4087 307.81 96.3799V96.3799C308.189 95.9123 308.675 95.5434 309.227 95.3048C309.779 95.0662 310.381 94.965 310.98 95.0099C311.021 95.0124 311.06 95.023 311.096 95.0411C311.132 95.0592 311.164 95.0844 311.191 95.1152C311.217 95.1461 311.236 95.1819 311.248 95.2205C311.26 95.2591 311.264 95.2997 311.26 95.3399V95.3399C311.248 95.4239 311.204 95.4999 311.136 95.5521C311.069 95.6042 310.985 95.6285 310.9 95.6199C310.406 95.5898 309.911 95.6795 309.458 95.8815C309.006 96.0834 308.608 96.3916 308.3 96.7799C308.25 96.8276 308.188 96.862 308.12 96.8799V96.8799Z" fill="#011204"/>
<path d="M326.65 118.64L329.42 121.25C329.42 121.25 319.42 128.25 319.25 127.8C318.561 126.835 317.81 125.916 317 125.05L326.65 118.64Z" fill="#0F3015"/>
<path d="M316.54 118.4L313.01 119.8C313.01 119.8 313.61 127.36 313.92 127C314.913 126.341 315.948 125.75 317.02 125.23L316.54 118.4Z" fill="#0F3015"/>
<path opacity="0.2" d="M326.65 118.64L329.42 121.25C329.42 121.25 319.42 128.25 319.25 127.8C318.561 126.835 317.81 125.916 317 125.05L326.65 118.64Z" fill="white"/>
<path opacity="0.2" d="M316.54 118.4L313.01 119.8C313.01 119.8 313.61 127.36 313.92 127C314.913 126.341 315.948 125.75 317.02 125.23L316.54 118.4Z" fill="white"/>
<path d="M314.66 149.61C315.3 150.56 320.51 149.61 320.51 149.61L324.98 149.92C325.221 149.923 325.455 149.838 325.639 149.682C325.823 149.526 325.944 149.308 325.98 149.07L327.22 143.42C327.238 143.289 327.204 143.156 327.125 143.05C327.047 142.944 326.93 142.872 326.8 142.85L323.27 142.22C321.85 141.96 320.385 142.269 319.19 143.08L315.45 145.62L314.66 149.61Z" fill="#FFC2BC"/>
<path d="M315.64 145.34L315.41 149.69C315.41 149.69 295.31 157.24 289.55 153.94C285.77 151.78 289.55 142.62 292.61 136.55L300.33 139.44L297.78 146.05L315.64 145.34Z" fill="#FFC2BC"/>
<g opacity="0.1">
<path d="M314.66 149.61C315.3 150.56 320.51 149.61 320.51 149.61L324.98 149.92C325.221 149.923 325.455 149.838 325.639 149.682C325.823 149.526 325.944 149.308 325.98 149.07L327.22 143.42C327.238 143.289 327.204 143.156 327.125 143.05C327.047 142.944 326.93 142.872 326.8 142.85L323.27 142.22C321.85 141.96 320.385 142.269 319.19 143.08L315.45 145.62L314.66 149.61Z" fill="#E5D9B6"/>
<path d="M315.64 145.34L315.41 149.69C315.41 149.69 295.31 157.24 289.55 153.94C285.77 151.78 289.55 142.62 292.61 136.55L300.33 139.44L297.78 146.05L315.64 145.34Z" fill="#E5D9B6"/>
</g>
<path d="M339.43 126.98L324.61 147.38L302.9 143.38L301.9 147.66C301.9 147.66 322.9 159.1 328.67 155.75C334.44 152.4 344.07 132.12 344.07 132.12L339.43 126.98Z" fill="#FFC2BC"/>
<path d="M301.92 147.65C301.27 148.59 296.07 147.58 296.07 147.58L291.6 147.83C291.356 147.832 291.12 147.745 290.935 147.584C290.751 147.424 290.632 147.202 290.6 146.96L289.43 141.31C289.413 141.179 289.447 141.047 289.525 140.94C289.604 140.834 289.72 140.762 289.85 140.74L293.4 140.15C294.825 139.911 296.287 140.242 297.47 141.07L302.88 143.52L301.92 147.65Z" fill="#FFC2BC"/>
<path d="M342.24 125.05C345.73 129.17 344.71 139.37 339.68 145.85L327.43 138.65C327.43 138.65 334.62 126.51 338.58 124.12C340.28 123.12 341 123.56 342.24 125.05Z" fill="#0F3015"/>
<path opacity="0.2" d="M342.24 125.05C345.73 129.17 344.71 139.37 339.68 145.85L327.43 138.65C327.43 138.65 334.62 126.51 338.58 124.12C340.28 123.12 341 123.56 342.24 125.05Z" fill="white"/>
<path d="M231.95 356.881L239.72 357.951L247.66 342.451L239.06 341.021L231.95 356.881Z" fill="#FFC2BC"/>
<path opacity="0.2" d="M239.06 341.021L247.66 342.451L243.33 350.881L235.19 349.651L239.06 341.021Z" fill="#E5D9B6"/>
<path d="M242 355.05L232.39 354.53C232.232 354.517 232.073 354.561 231.945 354.654C231.816 354.748 231.726 354.885 231.69 355.04L229.74 362.04C229.699 362.187 229.688 362.34 229.706 362.491C229.725 362.642 229.774 362.787 229.849 362.919C229.924 363.051 230.025 363.167 230.145 363.26C230.266 363.353 230.403 363.421 230.55 363.46H230.82C233.93 363.58 236.17 363.51 240.11 363.72C242.52 363.85 249.76 364.5 253.11 364.72C256.46 364.94 257.04 361.63 255.7 361.26C249.7 359.6 245.2 357.47 243.33 355.65C242.983 355.283 242.505 355.067 242 355.05V355.05Z" fill="#011204"/>
<path d="M242.47 356.05C242.432 356.041 242.399 356.019 242.375 355.988C242.351 355.957 242.339 355.919 242.34 355.88C242.332 355.845 242.337 355.807 242.353 355.774C242.37 355.742 242.397 355.715 242.43 355.7C242.72 355.54 245.37 354.11 246.22 354.6C246.316 354.655 246.394 354.736 246.445 354.833C246.496 354.931 246.519 355.041 246.51 355.15C246.532 355.342 246.502 355.536 246.423 355.712C246.344 355.888 246.218 356.04 246.06 356.15C245.598 356.43 245.054 356.539 244.52 356.46C243.823 356.404 243.135 356.267 242.47 356.05V356.05ZM245.78 354.93C244.816 355.054 243.884 355.356 243.03 355.82C243.931 356.186 244.939 356.186 245.84 355.82C245.939 355.742 246.017 355.641 246.067 355.526C246.118 355.411 246.139 355.286 246.13 355.16C246.13 355.117 246.122 355.074 246.104 355.035C246.087 354.995 246.062 354.96 246.03 354.93C245.948 354.91 245.862 354.91 245.78 354.93V354.93Z" fill="#0F3015"/>
<path d="M242.45 356.18C242.425 356.157 242.405 356.129 242.392 356.098C242.378 356.067 242.371 356.034 242.37 356C242.37 355.88 242.65 353.62 243.61 352.93C243.724 352.839 243.856 352.774 243.998 352.739C244.14 352.705 244.287 352.702 244.43 352.73C244.571 352.736 244.706 352.791 244.81 352.886C244.914 352.982 244.981 353.11 245 353.25C245.11 354.09 243.44 355.75 242.6 356.15H242.51L242.45 356.18ZM244.27 353.02C244.117 353.02 243.968 353.073 243.85 353.17C243.253 353.849 242.877 354.693 242.77 355.59C243.62 355.03 244.7 353.76 244.62 353.24C244.62 353.19 244.62 353.05 244.37 353.03H244.27V353.02Z" fill="#0F3015"/>
<path d="M190.5 311.86L196.19 312.07C205.667 311.629 215.074 310.232 224.27 307.9C232.5 305.9 246.14 299.6 246.14 299.6C241.75 318.38 233.84 347 233.84 347L246.06 348.41C246.06 348.41 277.88 287.79 263.84 280.85C251.29 274.15 202.74 278.55 202.74 278.55L197.74 273.3L163.81 276.05C163.81 276.05 157.32 311.81 190.5 311.86Z" fill="#011204"/>
<path d="M246.84 350.881L232.86 346.641L234.54 340.811L249.69 346.571L246.84 350.881Z" fill="#0F3015"/>
<path opacity="0.5" d="M246.84 350.881L232.86 346.641L234.54 340.811L249.69 346.571L246.84 350.881Z" fill="white"/>
<path opacity="0.4" d="M194.71 298.6C198.12 308.6 224.03 307.6 227.64 307.12C206.31 311.23 202.29 311.79 196.19 312.07L190.5 311.86C188.723 311.859 186.948 311.729 185.19 311.47C187.83 294.28 190.59 286.53 194.71 298.6Z" fill="#E5D9B6"/>
<path d="M124.86 339.61L123.86 347.46L141.99 350.43L142.99 342.55L124.86 339.61Z" fill="#FFC2BC"/>
<path d="M125.47 348.56L131.11 340.71C131.2 340.583 131.245 340.428 131.236 340.272C131.227 340.115 131.165 339.967 131.06 339.85L126.25 334.46C126.042 334.231 125.751 334.094 125.442 334.079C125.132 334.065 124.83 334.173 124.6 334.38C124.544 334.445 124.5 334.52 124.47 334.6C122.69 337.16 121.54 339.08 119.24 342.29C117.84 344.24 113.38 350.01 111.45 352.7C109.52 355.39 111.93 357.7 112.96 356.7C117.61 352.52 121.78 349.87 124.35 349.3C124.802 349.201 125.201 348.937 125.47 348.56Z" fill="#011204"/>
<path d="M124.26 348.36C124.292 348.341 124.328 348.331 124.365 348.331C124.402 348.331 124.438 348.341 124.47 348.36C124.503 348.376 124.53 348.402 124.547 348.434C124.563 348.467 124.568 348.505 124.56 348.54C124.56 348.88 124.33 351.88 123.46 352.32C123.367 352.379 123.26 352.41 123.15 352.41C123.04 352.41 122.933 352.379 122.84 352.32C122.671 352.233 122.527 352.104 122.424 351.944C122.32 351.784 122.26 351.6 122.25 351.41C122.261 350.87 122.459 350.351 122.81 349.94C123.235 349.363 123.721 348.834 124.26 348.36V348.36ZM124.16 348.96C123.36 349.522 122.809 350.371 122.62 351.33C122.634 351.456 122.678 351.577 122.747 351.683C122.817 351.789 122.91 351.877 123.02 351.94C123.15 352.01 123.25 352 123.27 351.94C123.351 351.907 123.417 351.847 123.46 351.77C123.864 350.885 124.102 349.932 124.16 348.96V348.96Z" fill="#0F3015"/>
<path d="M124.27 348.3C124.331 348.275 124.399 348.275 124.46 348.3C124.55 348.38 126.28 349.87 126.35 351.05C126.363 351.192 126.346 351.335 126.299 351.47C126.253 351.604 126.178 351.727 126.08 351.83C125.999 351.947 125.88 352.032 125.743 352.071C125.606 352.109 125.46 352.098 125.33 352.04C124.55 351.68 124.06 349.38 124.18 348.46V348.38C124.188 348.361 124.2 348.344 124.216 348.33C124.231 348.316 124.25 348.306 124.27 348.3V348.3ZM126.03 351.14C125.773 350.273 125.26 349.503 124.56 348.93C124.565 349.96 124.917 350.957 125.56 351.76C125.588 351.776 125.619 351.785 125.65 351.787C125.682 351.79 125.714 351.786 125.744 351.776C125.774 351.765 125.802 351.749 125.825 351.727C125.848 351.706 125.867 351.68 125.88 351.65V351.561C125.964 351.437 126.006 351.29 126 351.14H126.03Z" fill="#0F3015"/>
<path opacity="0.2" d="M142.98 342.55L141.98 350.43L132.63 348.89L133.64 341.03L142.98 342.55Z" fill="#E5D9B6"/>
<path d="M195.43 291.16C198.19 295.53 207.73 348.25 189.92 360.03C176.8 368.68 135.5 352.31 135.5 352.31L136.82 339.22C136.82 339.22 170.37 345.5 174.52 342.12C178.67 338.74 164.82 302.12 164.14 293.55C163.46 284.98 195.43 291.16 195.43 291.16Z" fill="#011204"/>
<path d="M134.58 353.25L135.03 338.65L141.09 338.75L139.47 354.88L134.58 353.25Z" fill="#0F3015"/>
<path opacity="0.5" d="M134.58 353.25L135.03 338.65L141.09 338.75L139.47 354.88L134.58 353.25Z" fill="white"/>
<path d="M199.17 274.68C198.1 272.68 194.84 268.75 191.7 268.2C187.53 267.47 186.64 267.31 170.55 269.78C162.96 270.94 162.41 276.9 162.83 279.99C162.887 280.405 163.056 280.795 163.32 281.12L163.67 281.55C164.45 281.79 198.67 275.78 199.02 275.97C199.162 275.79 199.251 275.574 199.277 275.346C199.304 275.119 199.267 274.888 199.17 274.68V274.68Z" fill="#0F3015"/>
<path opacity="0.2" d="M199.17 274.68C198.1 272.68 194.84 268.75 191.7 268.2C187.53 267.47 186.64 267.31 170.55 269.78C162.96 270.94 162.41 276.9 162.83 279.99C162.887 280.405 163.056 280.795 163.32 281.12L163.67 281.55C164.45 281.79 198.67 275.78 199.02 275.97C199.162 275.79 199.251 275.574 199.277 275.346C199.304 275.119 199.267 274.888 199.17 274.68V274.68Z" fill="white"/>
<path d="M236.31 217.05C238.529 216.888 240.677 216.202 242.58 215.05C243.892 214.131 245.01 212.962 245.87 211.61C246.145 211.206 246.262 210.715 246.2 210.23C246.056 209.095 245.607 208.021 244.9 207.12C244.706 206.886 244.43 206.736 244.128 206.7C243.826 206.665 243.523 206.747 243.28 206.93C242.12 207.76 240.8 208.63 239.76 209.44C236.83 209.99 234.05 212.69 233.81 215.66C234.6 216.05 235.51 216.63 236.31 217.05Z" fill="#FFC2BC"/>
<path d="M237.59 213.121L238.39 216.991C238.39 216.991 219.14 230.621 215.47 230.821C212.95 230.961 210.03 231.091 207.01 231.191C203.55 231.311 199.94 231.381 196.66 231.361C190.73 231.311 185.88 230.921 184.89 229.881C181.89 226.711 185.1 221.711 189.79 221.761C195.9 221.821 206.58 223.271 216.72 222.881C220.19 222.751 237.59 213.121 237.59 213.121Z" fill="#FFC2BC"/>
<path opacity="0.2" d="M207 231.191C203.54 231.311 199.93 231.381 196.65 231.361L193 226.141C197.828 227.337 202.52 229.029 207 231.191V231.191Z" fill="#E5D9B6"/>
<path d="M195 220.64C195 220.64 186.51 219.03 185.07 223.13C183.63 227.23 187.41 234.53 199.21 233.25L200.41 220.77L195 220.64Z" fill="#0F3015"/>
<path opacity="0.2" d="M195 220.64C195 220.64 186.51 219.03 185.07 223.13C183.63 227.23 187.41 234.53 199.21 233.25L200.41 220.77L195 220.64Z" fill="white"/>
<path d="M188.51 220.74C188.74 221.14 195.2 229.63 196.1 236.25C196.75 241.03 196.1 246.25 196.01 251.57C195.94 255.41 197.3 263.57 197.3 263.57L198.37 266.03C198.802 267.028 199.014 268.108 198.99 269.196C198.966 270.283 198.706 271.353 198.23 272.33L197.76 273.33L163.25 277.95L163.04 277.84C163.04 277.84 159.97 275.27 160.99 272V269.47C162.37 264.96 161.99 259.15 158.57 247.16C157.48 243.25 156.27 238.45 156.27 238.45C157.18 229.81 154.37 225.45 154.34 225.45C154.31 225.45 154.34 225.4 154.34 225.39C158.494 224.019 162.742 222.95 167.05 222.19C171.627 221.335 176.258 220.807 180.91 220.61C185.29 220.6 188.5 220.73 188.51 220.74Z" fill="#0F3015"/>
<path d="M185.1 190.33C187.27 192.84 187.74 196.33 188.66 199.56C189.41 202.16 191.04 207.44 190.03 209.94C188.88 212.79 183.22 210.38 181.34 212.8C173.86 222.47 169.34 218.31 166.47 215.92C165.03 214.74 159.56 213.57 158.15 212.36C156.74 211.15 154.33 210.54 155.37 205.84C159.53 187.01 166.44 185.9 175.66 186.41C179.19 186.6 182.72 187.57 185.1 190.33Z" fill="#011204"/>
<path d="M166.63 206.45C168.02 210.82 169.83 218.89 167.04 222.23L169.3 224.45C170.201 225.33 171.326 225.946 172.552 226.231C173.779 226.516 175.06 226.46 176.256 226.068C177.453 225.677 178.52 224.965 179.34 224.009C180.16 223.054 180.703 221.892 180.91 220.65V220.65C175.82 220.02 176.73 214.9 175.65 210.01L166.63 206.45Z" fill="#FFC2BC"/>
<path opacity="0.2" d="M178.13 204.85C177.19 208.4 175.95 214.11 177.13 217.98C172.59 218.53 169.44 214.49 169.22 213.18C169.727 211.609 170.111 210.001 170.37 208.37L178.13 204.85Z" fill="#E5D9B6"/>
<path d="M165.08 199.6C165.86 207.08 166.03 210.26 169.98 213.94C175.92 219.48 184.98 216.88 186.4 209.33C187.72 202.53 186.22 191.46 178.76 188.78C177.117 188.184 175.349 188.017 173.624 188.296C171.899 188.575 170.273 189.291 168.903 190.375C167.532 191.459 166.461 192.876 165.792 194.491C165.123 196.105 164.878 197.864 165.08 199.6V199.6Z" fill="#FFC2BC"/>
<path d="M166.88 203.53C167.465 204.532 167.776 205.67 167.78 206.83C168.108 206.578 168.343 206.224 168.446 205.823C168.55 205.423 168.516 204.999 168.35 204.62C168.11 203.83 167.7 203.45 166.88 203.53Z" fill="#011204"/>
<path d="M162.69 206.89C163.467 208.12 164.695 208.995 166.11 209.33C167.99 209.74 168.83 208.04 168.22 206.33C167.68 204.78 166.03 202.73 164.22 203.04C163.579 203.177 163.018 203.562 162.661 204.111C162.303 204.66 162.177 205.329 162.31 205.97C162.372 206.3 162.501 206.613 162.69 206.89V206.89Z" fill="#FFC2BC"/>
<path d="M175.78 201.35C175.78 202.01 176.18 202.51 176.6 202.51C177.02 202.51 177.36 201.94 177.33 201.29C177.3 200.64 176.92 200.13 176.5 200.14C176.08 200.15 175.75 200.7 175.78 201.35Z" fill="#011204"/>
<path d="M183.19 201.05C183.19 201.7 183.59 202.21 184.02 202.2C184.45 202.19 184.78 201.64 184.74 200.98C184.7 200.32 184.35 199.82 183.92 199.82C183.49 199.82 183.13 200.37 183.19 201.05Z" fill="#011204"/>
<path d="M183.73 199.86L185.27 199.38C185.27 199.38 184.54 200.57 183.73 199.86Z" fill="#011204"/>
<path d="M181.28 202.25C181.931 203.721 182.778 205.097 183.8 206.34C183.475 206.591 183.099 206.768 182.698 206.86C182.298 206.951 181.882 206.955 181.48 206.87L181.28 202.25Z" fill="#3A3A3A"/>
<path d="M179.23 209.16C179.604 209.308 179.993 209.415 180.39 209.48C180.411 209.484 180.433 209.485 180.454 209.48C180.475 209.476 180.495 209.468 180.513 209.456C180.53 209.443 180.546 209.428 180.557 209.41C180.569 209.392 180.576 209.371 180.58 209.35V209.35C180.584 209.308 180.573 209.266 180.549 209.232C180.526 209.197 180.491 209.172 180.45 209.16C179.636 209.041 178.862 208.73 178.192 208.251C177.522 207.773 176.977 207.142 176.6 206.41C176.587 206.372 176.561 206.339 176.526 206.317C176.492 206.295 176.451 206.286 176.41 206.29C176.372 206.297 176.338 206.319 176.316 206.351C176.293 206.383 176.284 206.422 176.29 206.46V206.46C176.881 207.709 177.936 208.678 179.23 209.16V209.16Z" fill="#011204"/>
<path d="M174 196.49C174.044 196.503 174.091 196.503 174.135 196.49C174.179 196.478 174.219 196.454 174.25 196.42C174.538 196.107 174.898 195.867 175.298 195.721C175.698 195.575 176.127 195.527 176.55 195.58C176.625 195.59 176.701 195.572 176.763 195.53C176.826 195.487 176.871 195.423 176.89 195.35C176.903 195.317 176.908 195.282 176.907 195.247C176.906 195.212 176.898 195.178 176.883 195.146C176.868 195.114 176.846 195.086 176.82 195.063C176.794 195.039 176.763 195.021 176.73 195.01V195.01C176.219 194.939 175.698 194.992 175.212 195.167C174.726 195.341 174.289 195.63 173.94 196.01C173.885 196.06 173.85 196.128 173.841 196.201C173.832 196.274 173.849 196.349 173.89 196.41C173.901 196.431 173.916 196.45 173.935 196.463C173.954 196.477 173.977 196.487 174 196.49V196.49Z" fill="#011204"/>
<path d="M186 196.46C186.053 196.477 186.11 196.479 186.164 196.466C186.219 196.454 186.269 196.428 186.31 196.39C186.369 196.33 186.402 196.249 186.402 196.165C186.402 196.081 186.369 196 186.31 195.94V195.94C185.917 195.485 185.42 195.131 184.861 194.91C184.302 194.689 183.698 194.607 183.1 194.67C183.06 194.674 183.02 194.686 182.985 194.705C182.949 194.724 182.917 194.751 182.892 194.782C182.867 194.814 182.848 194.851 182.838 194.89C182.827 194.929 182.824 194.97 182.83 195.01V195.01C182.845 195.094 182.892 195.168 182.961 195.217C183.031 195.266 183.116 195.285 183.2 195.27C183.694 195.231 184.19 195.308 184.649 195.495C185.107 195.683 185.515 195.976 185.84 196.35C185.878 196.405 185.935 196.444 186 196.46V196.46Z" fill="#011204"/>
<path d="M176.32 200.18L177.86 199.69C177.86 199.69 177.12 200.92 176.32 200.18Z" fill="#011204"/>
<path d="M172.23 192.29C174.44 194.99 166.45 202.05 166.88 203.53C164.71 203.67 163.1 199.12 162.99 196.76C162.879 194.377 163.624 192.033 165.09 190.15C166.02 188.96 167.74 188.74 169.25 188.54C169.687 188.447 170.142 188.482 170.56 188.64C170.812 188.776 171.026 188.973 171.183 189.212C171.34 189.451 171.435 189.725 171.46 190.01C171.57 190.812 171.832 191.586 172.23 192.29Z" fill="#011204"/>
<path d="M169.25 188.54C170.69 189.683 171.751 191.233 172.295 192.989C172.84 194.744 172.841 196.624 172.3 198.38C173.269 197.59 174.072 196.614 174.66 195.51C174.969 194.935 175.112 194.286 175.073 193.634C175.035 192.982 174.815 192.354 174.44 191.82C175.495 192.598 176.386 193.577 177.061 194.702C177.735 195.826 178.18 197.073 178.37 198.37C178.822 198.038 179.195 197.61 179.463 197.118C179.73 196.625 179.887 196.08 179.92 195.52C179.967 194.97 179.893 194.416 179.703 193.898C179.513 193.38 179.211 192.91 178.82 192.52C179.588 193.193 180.174 194.049 180.524 195.009C180.874 195.968 180.975 197.001 180.82 198.01C181.33 197.616 181.737 197.105 182.007 196.52C182.277 195.935 182.401 195.294 182.37 194.65C182.315 193.962 182.107 193.296 181.76 192.699C181.414 192.102 180.939 191.59 180.37 191.2C181.419 191.779 182.298 192.623 182.92 193.648C183.541 194.672 183.882 195.842 183.91 197.04C186.19 194.83 185.42 191.66 182.62 189.92C178.517 187.723 173.715 187.228 169.25 188.54Z" fill="#011204"/>
<path d="M168.15 219.8L165.47 222.49C165.47 222.49 175.69 229.17 175.84 228.72C176.493 227.72 177.211 226.765 177.99 225.86L168.15 219.8Z" fill="#0F3015"/>
<path d="M178.25 219.23L181.82 220.53C181.82 220.53 181.47 228.1 181.14 227.75C180.133 227.113 179.084 226.545 178 226.05L178.25 219.23Z" fill="#0F3015"/>
<path opacity="0.2" d="M168.15 219.8L165.47 222.49C165.47 222.49 175.69 229.17 175.84 228.72C176.493 227.72 177.211 226.765 177.99 225.86L168.15 219.8Z" fill="white"/>
<path opacity="0.2" d="M178.25 219.23L181.82 220.53C181.82 220.53 181.47 228.1 181.14 227.75C180.133 227.113 179.084 226.545 178 226.05L178.25 219.23Z" fill="white"/>
<path d="M113.2 251.34L104.59 252.16L107.59 258.92C109.925 257.896 112.159 256.654 114.26 255.21L113.2 251.34Z" fill="#FFC2BC"/>
<path d="M101.41 257.33L101.55 257.58C101.813 258.037 102.197 258.413 102.658 258.669C103.12 258.925 103.643 259.049 104.17 259.03L107.6 258.92L104.6 252.16L102.5 253.36C102.167 253.548 101.874 253.8 101.638 254.102C101.403 254.403 101.23 254.749 101.128 255.118C101.027 255.487 101 255.872 101.048 256.252C101.096 256.632 101.219 256.998 101.41 257.33V257.33Z" fill="#FFC2BC"/>
<path d="M115.13 254.96C115.13 254.96 130.18 256.34 144.27 249.69C144.27 249.69 153.74 241.8 158.86 235.17C166.46 225.31 159.39 222.34 153.78 228.7C149.62 233.42 139.98 242.54 139.98 242.54C127.87 249.54 112.14 251.72 112.14 251.72C109.09 256.12 115.13 254.96 115.13 254.96Z" fill="#FFC2BC"/>
<path d="M163.22 224.95C166.8 227.82 161.46 235.32 154.5 244.34L145.87 233.14C145.87 233.14 156.82 219.82 163.22 224.95Z" fill="#0F3015"/>
<path opacity="0.2" d="M163.22 224.95C166.8 227.82 161.46 235.32 154.5 244.34L145.87 233.14C145.87 233.14 156.82 219.82 163.22 224.95Z" fill="white"/>
</g>
<defs>
<clipPath id="clip0_158_5317">
<rect width="500" height="368.76" fill="white"/>
</clipPath>
</defs>
</svg>
