<svg width="500" height="500" viewBox="0 0 500 500" fill="none" xmlns="http://www.w3.org/2000/svg">
<g style="mix-blend-mode:multiply">
<path d="M243.4 498C268.236 498 288.37 481.658 288.37 461.5C288.37 441.342 268.236 425 243.4 425C218.564 425 198.43 441.342 198.43 461.5C198.43 481.658 218.564 498 243.4 498Z" fill="url(#paint0_linear_33_8075)"/>
</g>
<path d="M117.82 274.24C112.345 274.241 106.994 272.606 102.454 269.545C97.9147 266.484 94.3928 262.137 92.3405 257.061C90.2882 251.985 89.7989 246.411 90.9356 241.055C92.0722 235.699 94.7829 230.805 98.72 227C137.773 189.28 189.836 168.022 244.129 167.625C298.423 167.229 350.79 187.725 390.39 224.87C395.705 229.857 398.821 236.752 399.053 244.037C399.284 251.322 396.612 258.4 391.625 263.715C386.638 269.03 379.743 272.146 372.458 272.378C365.173 272.609 358.095 269.937 352.78 264.95C323.468 237.464 284.711 222.299 244.529 222.593C204.347 222.887 165.816 238.618 136.91 266.53C131.793 271.488 124.944 274.254 117.82 274.24V274.24Z" fill="#0F3015"/>
<g style="mix-blend-mode:multiply" opacity="0.21">
<path d="M391.63 247.65C389.161 250.283 386.197 252.404 382.908 253.891C379.619 255.378 376.07 256.203 372.462 256.318C368.854 256.433 365.259 255.837 361.882 254.562C358.505 253.287 355.412 251.36 352.78 248.89C323.468 221.403 284.71 206.238 244.527 206.534C204.345 206.83 165.814 222.564 136.91 250.48C133.526 253.746 129.36 256.089 124.811 257.285C120.263 258.481 115.483 258.49 110.93 257.311C106.377 256.132 102.202 253.805 98.8059 250.552C95.4092 247.298 92.9041 243.228 91.53 238.73C89.7492 244.555 89.9546 250.808 92.1137 256.504C94.2729 262.2 98.2635 267.017 103.458 270.198C108.653 273.38 114.758 274.745 120.813 274.079C126.868 273.413 132.531 270.754 136.91 266.52C165.816 238.608 204.347 222.877 244.529 222.583C284.711 222.289 323.468 237.454 352.78 264.94C357.196 269.085 362.857 271.655 368.883 272.251C374.91 272.847 380.965 271.435 386.107 268.236C391.249 265.036 395.19 260.227 397.317 254.557C399.444 248.886 399.639 242.672 397.87 236.88C396.646 240.902 394.511 244.588 391.63 247.65Z" fill="#1272B2"/>
</g>
<path d="M321 348.8C317.394 348.81 313.822 348.108 310.488 346.735C307.154 345.362 304.124 343.346 301.57 340.8C294.229 333.459 285.515 327.635 275.923 323.662C266.332 319.689 256.052 317.644 245.67 317.644C235.288 317.644 225.008 319.689 215.417 323.662C205.825 327.635 197.111 333.459 189.77 340.8C184.617 345.955 177.627 348.851 170.339 348.852C163.05 348.853 156.059 345.958 150.905 340.805C145.75 335.652 142.854 328.662 142.853 321.374C142.852 314.085 145.747 307.095 150.9 301.94C163.343 289.493 178.117 279.62 194.377 272.883C210.637 266.147 228.065 262.68 245.665 262.68C263.265 262.68 280.693 266.147 296.953 272.883C313.213 279.62 327.986 289.493 340.43 301.94C344.255 305.786 346.857 310.678 347.908 315.999C348.958 321.321 348.41 326.835 346.332 331.845C344.254 336.856 340.74 341.14 336.232 344.157C331.724 347.174 326.424 348.79 321 348.8V348.8Z" fill="#0F3015"/>
<g style="mix-blend-mode:multiply" opacity="0.21">
<path d="M340.45 329.08C335.295 334.233 328.304 337.128 321.015 337.128C313.726 337.128 306.735 334.233 301.58 329.08C286.752 314.258 266.645 305.932 245.68 305.932C224.715 305.932 204.608 314.258 189.78 329.08C186.291 332.571 181.926 335.058 177.143 336.28C172.361 337.501 167.338 337.412 162.602 336.021C157.866 334.631 153.592 331.991 150.229 328.378C146.866 324.765 144.538 320.313 143.49 315.49C142.229 321.292 142.882 327.346 145.35 332.746C147.818 338.146 151.968 342.602 157.18 345.446C162.392 348.29 168.385 349.37 174.262 348.523C180.138 347.677 185.583 344.949 189.78 340.75C197.121 333.409 205.835 327.585 215.427 323.612C225.018 319.639 235.298 317.594 245.68 317.594C256.062 317.594 266.342 319.639 275.933 323.612C285.525 327.585 294.239 333.409 301.58 340.75C305.778 344.946 311.223 347.67 317.099 348.515C322.975 349.359 328.966 348.277 334.176 345.433C339.386 342.588 343.535 338.132 346.001 332.733C348.468 327.334 349.12 321.281 347.86 315.48C346.756 320.634 344.182 325.358 340.45 329.08V329.08Z" fill="#1272B2"/>
</g>
<path d="M242.76 423.81C267.596 423.81 287.73 403.676 287.73 378.84C287.73 354.004 267.596 333.87 242.76 333.87C217.924 333.87 197.79 354.004 197.79 378.84C197.79 403.676 217.924 423.81 242.76 423.81Z" fill="#0F3015"/>
<g style="mix-blend-mode:multiply" opacity="0.21">
<path d="M260.07 337.32C268.491 341.214 275.215 348.028 278.997 356.5C282.779 364.972 283.362 374.528 280.639 383.397C277.916 392.266 272.07 399.847 264.186 404.737C256.301 409.627 246.912 411.493 237.756 409.991C228.601 408.488 220.301 403.719 214.393 396.565C208.484 389.412 205.369 380.36 205.623 371.086C205.877 361.812 209.484 352.944 215.776 346.125C222.067 339.306 230.616 334.999 239.84 334C228.844 334.729 218.5 339.474 210.775 347.333C203.05 355.192 198.483 365.616 197.944 376.623C197.405 387.63 200.93 398.451 207.849 407.027C214.769 415.604 224.6 421.338 235.472 423.138C246.343 424.939 257.498 422.68 266.813 416.791C276.127 410.903 282.953 401.796 285.99 391.203C289.028 380.61 288.065 369.27 283.286 359.34C278.507 349.411 270.244 341.584 260.07 337.35V337.32Z" fill="#1272B2"/>
</g>
<path style="mix-blend-mode:multiply" d="M366.14 412.2H285.09V488.17H366.14V412.2Z" fill="url(#paint1_linear_33_8075)"/>
<path d="M318.53 392C320.454 395.63 323.44 398.585 327.09 400.47C333.16 403.58 348.7 409.6 349.68 410.16C350.66 410.72 356.48 411.16 355.35 407.98C355.35 407.98 324.28 383.09 320.98 383.71C317.68 384.33 318 391.25 318.53 392Z" fill="#0A1731"/>
<path d="M299.72 414.94C299.72 414.94 315.07 404.74 324.72 391.5C324.72 391.5 326.6 381.5 319.19 384.07C311.78 386.64 293.79 394.17 293.79 394.17C293.79 394.17 283.07 411.75 299.72 414.94Z" fill="#0A1731"/>
<path d="M280.22 350C280.22 350 281.88 355.36 280.22 358.95C278.56 362.54 287.9 361.64 289.41 357.69L286.58 349.77C286.58 349.77 281.35 344.52 280.22 350Z" fill="#F6A36A"/>
<path d="M322.19 412.62C325.946 415.4 330.46 416.969 335.13 417.12C342.88 417.33 361.77 415.88 363.05 415.98C364.33 416.08 366.93 411.65 364.22 408.98C364.22 408.98 323.72 400.69 320.64 402.98C317.56 405.27 321.25 412.2 322.19 412.62Z" fill="#1F2B54"/>
<path d="M288.94 416.68C288.94 416.68 309.76 419.07 327.94 414.68C327.94 414.68 336.94 407.37 328.58 404.16C320.22 400.95 299.1 394.31 299.1 394.31C299.1 394.31 276.82 401.7 288.94 416.68Z" fill="#1F2B54"/>
<path d="M364.22 409C364.22 409 367.67 405.5 368.87 402.61C370.07 399.72 372.24 398.04 374.87 400.21C377.5 402.38 367.65 416.58 367.65 416.58L363.03 416.02C363.03 416.02 365.34 409.57 364.22 409Z" fill="#0A1731"/>
<path d="M369.27 401.69C369.27 401.69 369.11 402.97 372.48 403.62C372.48 403.62 367.83 416.14 366.86 416.46L367.67 416.54C367.67 416.54 375.67 405.86 375.53 400.54C375.53 400.57 372 395.75 369.27 401.69Z" fill="#F4ECD7"/>
<path d="M368.15 403.94L370.08 405.86L369.43 406.67L367.67 405.06C367.67 405.06 367.35 404.1 368.15 403.94Z" fill="#F4ECD7"/>
<path d="M367 405.7L368.92 407.63L368.28 408.43L366.51 406.83C366.51 406.83 366.22 405.86 367 405.7Z" fill="#F4ECD7"/>
<path d="M300.43 381.65L300.09 381.52C299.77 380.07 299.32 378.14 298.77 375.98C299.498 375.71 300.16 375.288 300.713 374.744C301.267 374.199 301.698 373.543 301.98 372.82C298.23 367.42 293.09 363.3 290.2 357.38C287.213 358.956 283.793 359.514 280.46 358.97V358.97C279.4 359.97 277.7 361.76 277.39 363.35C276.93 365.67 285.53 380.48 286.39 383.9C286.59 384.585 286.99 385.195 287.54 385.65C287.54 385.82 287.43 385.98 287.37 386.15C287.37 386.15 291.96 394.69 289.99 396.52C289.99 396.52 304.93 404.3 304.34 395.52L300.43 381.65Z" fill="#F4ECD7"/>
<path d="M290.75 359.39C290.639 358.489 290.656 357.576 290.8 356.68C291.05 355.52 281.02 357.01 279.92 354.17C279.92 354.17 279.22 357.23 279.5 357.9C279.78 358.57 289 361.38 290.75 359.39Z" fill="#F4ECD7"/>
<path d="M279.5 357.9C279.5 357.9 276.01 361.19 276.65 363.51C279.094 373.313 282.487 382.854 286.78 392C286.78 392 278.97 401.08 285.09 417.13C285.09 417.13 309.16 418.6 311.27 416.7C313.38 414.8 289.1 398.76 289.27 359.7C289.31 359.71 281.51 359.68 279.5 357.9Z" fill="#DD5829"/>
<g style="mix-blend-mode:multiply" opacity="0.32">
<path d="M292.19 417.37C285.95 414.51 284.92 406.94 286.26 400.9C287.26 396.33 290.26 392.41 287.83 387.9C286.13 384.8 283.93 381.96 282.25 378.83C281.17 376.83 280.16 374.83 279.25 372.71C281.325 379.302 283.84 385.746 286.78 392C286.78 392 278.97 401.08 285.09 417.13C285.09 417.13 288.33 417.32 292.53 417.48L292.19 417.37Z" fill="#1F2B54"/>
</g>
<g style="mix-blend-mode:multiply" opacity="0.32">
<path d="M295.1 399.76C295.1 399.76 293.49 404.1 290.76 405.54L292.05 406.83C292.05 406.83 296.22 404.1 296.86 401.37L295.1 399.76Z" fill="#1F2B54"/>
</g>
<path d="M313.05 360C312.937 359.899 312.844 359.777 312.778 359.64C312.712 359.504 312.674 359.355 312.666 359.204C312.657 359.052 312.679 358.901 312.73 358.758C312.78 358.614 312.859 358.483 312.96 358.37L320.09 350.43C320.191 350.317 320.313 350.224 320.45 350.158C320.587 350.092 320.735 350.054 320.886 350.046C321.038 350.037 321.19 350.059 321.333 350.11C321.476 350.16 321.608 350.238 321.72 350.34V350.34C321.947 350.545 322.084 350.831 322.1 351.137C322.117 351.442 322.013 351.741 321.81 351.97L314.68 359.91C314.475 360.137 314.189 360.273 313.884 360.29C313.578 360.307 313.279 360.203 313.05 360Z" fill="#0F3015"/>
<path d="M311.16 361.5C311.16 361.5 311.87 356.76 313.41 357.04C314.95 357.32 313.24 359.68 313.24 359.68C313.24 359.68 318.56 356.38 319.09 354.87C319.62 353.36 323.16 357.87 314.84 364.55C314.84 364.55 309.83 365 311.16 361.5Z" fill="#F6A36A"/>
<path d="M276.67 362.56C276.67 362.56 272.37 370.56 295.27 384.62C295.27 384.62 301.83 386.01 300.32 380.04C298.81 374.07 279.62 354.7 276.67 362.56Z" fill="#DD5829"/>
<path d="M299.4 384.39C299.4 384.39 302.68 385.51 314.87 364.51L311.17 362.01C311.17 362.01 292.44 375.28 292.86 380.59C293.28 385.9 298.56 385.07 299.4 384.39Z" fill="#DD5829"/>
<g style="mix-blend-mode:multiply" opacity="0.32">
<path d="M281.12 371.19C281.12 371.19 290.71 381.83 292.81 382.75C287.992 379.956 283.968 375.977 281.12 371.19V371.19Z" fill="#1F2B54"/>
</g>
<g style="mix-blend-mode:multiply" opacity="0.32">
<path d="M296.88 374C296.503 374.528 296.269 375.144 296.201 375.789C296.133 376.434 296.232 377.085 296.49 377.68C296.49 377.68 294.39 374.87 296.88 374Z" fill="#1F2B54"/>
</g>
<path d="M292 338.88C291.9 338.46 291.7 330.76 291.31 330.7C271 327.57 277.79 349 277.79 349L277.67 348.95C277.691 349.005 277.708 349.062 277.72 349.12C278.13 349.38 278.97 349.86 280.61 350.75C285.42 353.37 290.39 350.61 290.39 350.61C290.58 350.233 290.705 349.828 290.76 349.41C290.993 348.651 291.329 347.927 291.76 347.26C291.46 347.09 290.18 346.16 290.68 346.34C291.093 346.428 291.524 346.397 291.92 346.25C291.92 346.25 292.05 344.07 292.71 343.93C292.898 343.893 293.072 343.803 293.21 343.67C293.348 343.537 293.446 343.367 293.49 343.18C292.843 341.803 292.343 340.362 292 338.88Z" fill="#F6A36A"/>
<path d="M292 346.25C292 346.25 292.38 345.69 292.07 345.71C291.413 345.903 290.745 346.057 290.07 346.17C289.92 346.23 291.07 347.55 291.73 347.56C291.73 347.56 291.73 347.56 291.87 347.26C292.01 346.96 291.41 346.66 290.87 346.4C291.253 346.483 291.652 346.43 292 346.25V346.25Z" fill="#E96C76"/>
<path d="M291.12 339.82C291.12 339.82 290.12 340.67 287.69 339.26L286.33 339.47L287.64 339.7C287.64 339.7 290.14 342 291.12 339.82Z" fill="#1F2B54"/>
<path d="M283.32 336.57C283.32 336.57 291.47 336.37 292.86 335.38C292.86 335.38 294.44 323.52 279.22 328.66C279.22 328.66 271.31 330.83 271.51 340.32C271.71 349.81 272.75 345.49 270.92 345.66C270.16 345.834 269.448 346.176 268.837 346.661C268.226 347.146 267.732 347.762 267.391 348.463C267.049 349.164 266.869 349.933 266.864 350.713C266.859 351.493 267.028 352.264 267.36 352.97C269.14 356.92 270.72 357.32 269.36 358.51C268 359.7 274.9 373.33 286.76 362.26L284.41 345.26C284.41 345.26 278.46 346.26 280.41 341.74C280.41 341.74 281.01 339.37 282.41 341.55C283.81 343.73 286.24 346.07 283.32 336.57Z" fill="#0A1731"/>
<path d="M280.82 337.48H280.7V328.79C280.7 328.645 280.672 328.502 280.616 328.369C280.561 328.236 280.48 328.114 280.378 328.012C280.276 327.91 280.155 327.829 280.021 327.774C279.888 327.718 279.745 327.69 279.6 327.69C279.456 327.69 279.313 327.718 279.179 327.774C279.046 327.829 278.924 327.91 278.822 328.012C278.72 328.114 278.639 328.236 278.584 328.369C278.529 328.502 278.5 328.645 278.5 328.79V338.15C277.74 338.641 277.118 339.317 276.691 340.115C276.264 340.912 276.047 341.805 276.06 342.71C276.149 343.634 276.505 344.512 277.084 345.237C277.662 345.963 278.44 346.504 279.321 346.797C280.201 347.089 281.148 347.118 282.046 346.883C282.943 346.647 283.753 346.155 284.377 345.467C285 344.78 285.41 343.926 285.557 343.01C285.705 342.093 285.582 341.154 285.206 340.306C284.829 339.457 284.214 338.737 283.435 338.232C282.657 337.727 281.748 337.458 280.82 337.46V337.48Z" fill="#0F3015"/>
<g style="mix-blend-mode:multiply" opacity="0.33">
<path d="M284.39 342.73C284.39 345.09 282.78 347.01 280.78 347.01C278.78 347.01 277.17 345.09 277.17 342.73C277.17 340.37 278.79 338.46 280.78 338.46C282.77 338.46 284.39 340.37 284.39 342.73Z" fill="#1272B2"/>
</g>
<g style="mix-blend-mode:multiply" opacity="0.21">
<path d="M301.09 226C301.09 226 304.27 224.18 304.09 222.82C303.91 221.46 306.51 191.6 304.54 187.82C304.54 187.82 303.18 186 301.97 189.49C300.76 192.98 299.84 226.49 297.72 227.49C295.6 228.49 299.42 228.31 301.09 226Z" fill="#1272B2"/>
</g>
<g style="mix-blend-mode:multiply" opacity="0.21">
<path d="M313.21 228.46C313.21 228.46 318.97 221.33 317.15 216.03C315.33 210.73 311.24 183.03 312.15 181.93C313.06 180.83 330.03 174.66 330.94 175.57C331.85 176.48 332 177.39 331.24 178.14C330.48 178.89 318.67 184.51 316.39 184.96C316.39 184.96 320.8 219.81 320.48 221.79C320.48 221.79 316.24 228.15 313.21 228.46Z" fill="#1272B2"/>
</g>
<path d="M317.53 107.25C317.53 107.25 310.53 106.35 309.09 115.42C307.65 124.49 311.42 129.88 310.35 132.31C309.28 134.74 301.9 150.36 319.35 151.31C336.8 152.26 339.73 147.81 340.45 144.67C341.17 141.53 340.45 129.13 330.93 127.25C330.93 127.25 327.88 122.04 328.33 119.7C328.78 117.36 326.42 106.35 317.53 107.25Z" fill="#0A1731"/>
<path d="M300.87 220.78C300.87 220.78 301.56 224.56 301.25 225.02C300.94 225.48 295.16 231.96 293.77 231.96C292.38 231.96 291.14 230.19 294.62 224.79C295.328 223.691 295.626 222.377 295.46 221.08C295.46 221.08 297.93 216.84 300.87 220.78Z" fill="#F6A36A"/>
<path d="M293 227.19C293.32 226.9 295.19 228.56 297 226.78C298.81 225 301.12 222.26 301.53 222.94C301.94 223.643 302.086 224.469 301.94 225.27C301.8 226.1 294.94 234.05 291.94 233.36C288.94 232.67 291.36 228.7 293 227.19Z" fill="#0A1731"/>
<path d="M318.9 219.88C318.9 219.88 319.6 223.66 319.29 224.12C318.98 224.58 313.19 231.07 311.81 231.07C310.43 231.07 309.18 229.29 312.65 223.89C313.363 222.796 313.664 221.485 313.5 220.19C313.5 220.19 316 215.94 318.9 219.88Z" fill="#F6A36A"/>
<path d="M311.25 225.68C311.57 225.39 313.44 227.06 315.25 225.27C317.06 223.48 319.36 220.75 319.77 221.43C320.18 222.133 320.326 222.959 320.18 223.76C320.05 224.59 313.18 232.54 310.18 231.86C307.18 231.18 309.6 227.19 311.25 225.68Z" fill="#0A1731"/>
<path d="M315.2 163.22C315.2 163.22 294.2 175.09 293.59 178.01C292.98 180.93 296.8 184.76 299.74 183.79C302.68 182.82 317.32 176.14 320.64 173.23C323.96 170.32 322.31 161.84 315.2 163.22Z" fill="#0A1731"/>
<path d="M323.89 163.91C323.89 163.91 302.01 175.57 301.89 178.78C301.77 181.99 306.89 186.53 310.06 185.66C313.23 184.79 328.77 178.45 332.06 175.45C335.35 172.45 331.78 162.9 323.89 163.91Z" fill="#0A1731"/>
<path d="M303.6 181.82C303.6 181.82 305.6 185.95 304.19 192.47C302.78 198.99 301.59 220.54 301.59 220.54L295.59 220.9C295.59 220.9 292.59 180.68 293.53 178.26C294.47 175.84 303.46 175.18 303.6 181.82Z" fill="#0A1731"/>
<path d="M312.68 180.83C312.68 180.83 315.5 184.44 315.54 191.11C315.58 197.78 319 219.11 319 219.11L313.2 220.74C313.2 220.74 301.66 182.1 302.06 179.53C302.46 176.96 311.12 174.37 312.68 180.83Z" fill="#0A1731"/>
<path d="M327.85 178C327.85 178 337.19 175.44 332.64 165.68C332.64 165.68 324.75 170.07 309.56 166.2C309.56 166.21 307.91 180.62 327.85 178Z" fill="#0A1731"/>
<g opacity="0.3">
<path d="M315 185.8C314.18 181.97 310.32 179.45 310.28 179.42L310.44 179.17C310.44 179.17 314.44 181.78 315.3 185.74L315 185.8Z" fill="#67AFE9"/>
</g>
<g opacity="0.4">
<path d="M304.45 190.4C303.23 187.66 301.83 179.16 301.77 178.8C302.88 175.9 308.66 172.94 308.9 172.8L309.04 173.07C308.98 173.07 303.17 176.07 302.04 178.85C302.15 179.5 303.53 187.73 304.69 190.34L304.45 190.4Z" fill="#67AFE9"/>
</g>
<path d="M330.43 132.68C330.43 132.68 335.43 132.29 337.49 150.21C337.49 150.21 336.75 154.59 334.06 152C331.37 149.41 325.8 132.27 330.43 132.68Z" fill="#FF8BB1"/>
<path d="M311.12 134.53C311.12 134.53 306.75 134.05 303.65 153.97C303.65 153.97 303.99 158.86 306.54 155.97C309.09 153.08 315.23 134.13 311.12 134.53Z" fill="#FF8BB1"/>
<path d="M327.19 154.92L328.58 150.34H328.63L329.12 148.58L329.17 148.41L331.31 140.63C331.31 140.63 333.97 134.82 331.25 133.25C329.07 131.99 325.25 131.51 323.82 131.45C321.73 133.24 319.24 132.63 316.69 131.64C314.9 132.49 311.44 134.28 310.69 134.52C309.6 134.85 309.55 139.4 310.56 142.47L310.68 142.83L310.56 142.95C309.19 144.25 309.9 148.95 313.25 150.82C313.35 151.13 313.4 151.31 313.4 151.31H313.47C314.026 152.791 314.281 154.369 314.22 155.95C313.61 156.68 309 162.4 309.58 166.21C309.58 166.21 323.58 170.21 332.66 165.69C332.64 165.69 331 158.7 327.19 154.92Z" fill="#FF8BB1"/>
<g style="mix-blend-mode:multiply" opacity="0.33">
<path d="M312.75 135C313.61 135.585 314.579 135.99 315.6 136.19C317.443 136.626 319.346 136.751 321.23 136.56C323.173 136.363 325.029 135.656 326.61 134.51C327.429 133.952 328.027 133.124 328.3 132.17C326.831 131.801 325.331 131.57 323.82 131.48C321.73 133.27 319.24 132.66 316.69 131.67C315.39 132.29 313.2 133.41 311.81 134.06C312.086 134.409 312.401 134.724 312.75 135V135Z" fill="#DD5829"/>
</g>
<g style="mix-blend-mode:multiply" opacity="0.23">
<path d="M332.64 165.69C332.64 165.69 330.99 158.69 327.19 154.92L328.58 150.34H328.63L329.12 148.58L329.17 148.41L331.26 140.83C330.556 139.617 329.951 138.349 329.45 137.04C329.101 140.504 328.462 143.933 327.54 147.29C327.179 149.218 326.525 151.08 325.6 152.81C324.706 154.264 323.439 155.452 321.93 156.25C322.91 156.333 323.825 156.775 324.5 157.49C325.229 158.44 325.728 159.545 325.96 160.72C326.595 162.938 326.691 165.277 326.24 167.54C328.458 167.266 330.618 166.642 332.64 165.69V165.69Z" fill="#DD5829"/>
</g>
<path d="M316.58 126.14C316.58 126.14 317.31 130.52 316.79 131.49C316.27 132.46 321.9 134.39 323.74 131.78C323.74 131.78 322.69 126.16 323.48 125.17C323.48 125.17 319.18 121.6 316.58 126.14Z" fill="#F0CF9A"/>
<path d="M316.58 126.14C316.58 126.14 317.31 130.52 316.79 131.49C316.27 132.46 321.9 134.39 323.74 131.78C323.74 131.78 322.69 126.16 323.48 125.17C323.48 125.17 319.18 121.6 316.58 126.14Z" fill="#F6A36A"/>
<g style="mix-blend-mode:multiply" opacity="0.3">
<path d="M317 130.62C319.16 129.965 321.264 129.135 323.29 128.14C323.18 126.84 323.18 125.59 323.52 125.14C323.52 125.14 319.22 121.57 316.62 126.14C316.873 127.62 317 129.119 317 130.62V130.62Z" fill="#D85369"/>
</g>
<path d="M325.51 116.35C325.32 111.53 321.6 107.79 317.19 108C312.78 108.21 309.38 112.29 309.56 117.11C309.56 117.52 309.44 118.93 309.5 119.32C309.222 119.816 309.052 120.364 309 120.93C308.93 121.82 311.28 127.22 315.86 129.93C315.86 129.93 321.96 127.19 324.29 124.29C324.882 122.581 325.255 120.803 325.4 119C325.41 118.86 325.386 118.719 325.33 118.59C325.473 117.852 325.534 117.101 325.51 116.35V116.35Z" fill="#F6A36A"/>
<path d="M325.32 118.58C325.32 118.58 327.23 117.68 327.16 119.68C327.09 121.68 325.81 123.28 324.35 122.93C324.35 122.93 324.6 119.43 325.32 118.58Z" fill="#F6A36A"/>
<g style="mix-blend-mode:multiply" opacity="0.3">
<path d="M325.09 119.1C325.09 119.1 326.32 118.45 326.26 119.86C326.2 121.27 325.37 122.41 324.43 122.17C324.481 121.117 324.704 120.08 325.09 119.1V119.1Z" fill="#D85369"/>
</g>
<path d="M312.61 116.79C312.058 116.558 311.461 116.454 310.863 116.487C310.265 116.52 309.683 116.688 309.16 116.98C309.16 117.12 309.16 117.27 309.16 117.41C310.22 117.003 311.369 116.885 312.49 117.07C312.78 116.94 312.61 116.79 312.61 116.79Z" fill="#0A1731"/>
<g style="mix-blend-mode:multiply" opacity="0.7">
<path d="M313.38 117.57C313.38 117.57 313.38 118.03 313.38 118.72C313.36 119.112 313.32 119.502 313.26 119.89C313.203 120.344 313.096 120.79 312.94 121.22L312.87 121.38L312.77 121.55C312.732 121.611 312.685 121.665 312.63 121.71L312.58 121.76L312.52 121.82C312.478 121.889 312.455 121.969 312.455 122.05C312.455 122.131 312.478 122.211 312.52 122.28C312.685 122.604 312.952 122.864 313.28 123.02L313.5 123.11L313.7 123.17C313.814 123.202 313.932 123.222 314.05 123.23H314.28C314.204 123.239 314.126 123.239 314.05 123.23C313.927 123.239 313.803 123.239 313.68 123.23H313.46L313.21 123.16C313.028 123.09 312.857 122.996 312.7 122.88C312.524 122.743 312.381 122.569 312.28 122.37C312.248 122.314 312.225 122.253 312.21 122.19C312.2 122.124 312.2 122.056 312.21 121.99C312.201 121.92 312.201 121.85 312.21 121.78C312.245 121.711 312.289 121.648 312.34 121.59L312.4 121.53C312.434 121.504 312.462 121.469 312.48 121.43L312.56 121.3L312.62 121.15C312.699 120.947 312.765 120.74 312.82 120.53C312.87 120.31 312.92 120.1 312.96 119.89C313.04 119.48 313.11 119.08 313.17 118.75C313.31 118 313.38 117.57 313.38 117.57Z" fill="#D85369"/>
</g>
<path d="M321.1 118.11C320.532 117.342 319.72 116.79 318.797 116.545C317.874 116.299 316.894 116.375 316.02 116.76C316.02 116.76 315.85 116.91 316.13 117.04C316.986 116.844 317.875 116.838 318.734 117.023C319.593 117.207 320.401 117.579 321.1 118.11V118.11Z" fill="#0A1731"/>
<path d="M336.7 152.17C336.7 152.17 337.23 154.17 319.05 162.47L316.46 159.66C316.46 159.66 330.2 148.16 334.4 148.23C338.6 148.3 337.34 151.63 336.7 152.17Z" fill="#FF8BB1"/>
<g style="mix-blend-mode:multiply" opacity="0.33">
<path d="M310.14 147.21C310.14 147.21 309.2 145.33 311.39 141.21C312.244 140.085 312.686 138.701 312.64 137.29C312.859 138.048 312.917 138.843 312.81 139.625C312.703 140.407 312.434 141.158 312.02 141.83C310.61 144.23 309.82 145.48 310.14 147.21Z" fill="#DD5829"/>
</g>
<g style="mix-blend-mode:multiply" opacity="0.23">
<path d="M319.09 162.05C320.17 161.52 321.26 161.05 322.36 160.52L325.64 159.03L328.93 157.57C329.48 157.33 330.02 157.08 330.57 156.82C331.122 156.585 331.657 156.311 332.17 156C331.178 156.685 330.127 157.281 329.03 157.78C327.95 158.32 326.86 158.78 325.77 159.32C324.68 159.86 323.56 160.32 322.45 160.74C321.34 161.16 320.22 161.64 319.09 162.05Z" fill="#DD5829"/>
</g>
<g style="mix-blend-mode:multiply" opacity="0.23">
<path d="M316.46 159.66C317.52 158.71 318.61 157.8 319.71 156.89C320.81 155.98 321.92 155.1 323.04 154.22C324.16 153.34 325.3 152.48 326.47 151.66C327.05 151.25 327.64 150.84 328.23 150.45C328.54 150.26 328.83 150.06 329.14 149.89L329.61 149.63L330.1 149.42L329.63 149.67L329.19 149.96C328.89 150.15 328.61 150.37 328.32 150.58C327.74 150.99 327.17 151.42 326.61 151.85C325.48 152.72 324.35 153.58 323.23 154.46L319.86 157.08C318.73 157.94 317.6 158.81 316.46 159.66Z" fill="#DD5829"/>
</g>
<path d="M315.19 109.59C315.14 109.95 317.19 114.59 320.85 116.32C324.51 118.05 323.55 122.43 322.65 124.22C324.031 122.646 325.036 120.779 325.59 118.76C326.15 115.96 326.59 108.69 318.25 107.52C318.25 107.52 315.55 107.07 315.19 109.59Z" fill="#0A1731"/>
<path d="M316.54 111.29C316.54 111.29 311.96 117.49 309.27 118.03C309.27 118.03 307.74 109.23 316.54 107.52C316.54 107.52 317.71 110 316.54 111.29Z" fill="#0A1731"/>
<path d="M315.64 119.22C316.216 119.534 316.864 119.689 317.52 119.67C318.175 119.65 318.814 119.457 319.37 119.11C319.138 119.372 318.855 119.583 318.538 119.731C318.222 119.88 317.878 119.961 317.529 119.972C317.179 119.982 316.831 119.921 316.506 119.791C316.182 119.662 315.887 119.468 315.64 119.22Z" fill="#0A1731"/>
<path d="M309 119.11C309.464 119.424 310.016 119.584 310.576 119.566C311.137 119.548 311.677 119.353 312.12 119.01C311.95 119.264 311.723 119.473 311.456 119.621C311.189 119.769 310.891 119.852 310.586 119.861C310.281 119.871 309.978 119.808 309.702 119.677C309.426 119.547 309.186 119.352 309 119.11Z" fill="#0A1731"/>
<path d="M321.24 174.54L331.65 171.07L303.04 169.79L293.72 172.68L321.24 174.54Z" fill="#EAD4CE"/>
<path d="M321.24 174.54L291.3 172.52L291.5 151.35L320.88 152.9L321.24 174.54Z" fill="#0F3015"/>
<path opacity="0.47" d="M292.12 171.3L292.31 151.4L291.5 151.35L291.3 172.52L321.24 174.54L321.22 173.25L292.12 171.3Z" fill="#CC9A8F"/>
<path d="M320.88 152.9L321.69 152.75L321.85 174.45L321.24 174.54L320.88 152.9Z" fill="#EFCFC7"/>
<path d="M321.85 174.45L331.65 171.07L331.81 170.43L321.85 173.49V174.45Z" fill="#CC9A8F"/>
<path d="M307.22 162.55C307.139 162.882 306.967 163.184 306.722 163.422C306.478 163.661 306.172 163.826 305.838 163.898C305.504 163.971 305.157 163.948 304.836 163.832C304.514 163.717 304.232 163.513 304.021 163.245C303.81 162.977 303.678 162.654 303.642 162.315C303.605 161.975 303.665 161.633 303.814 161.325C303.963 161.018 304.195 160.759 304.485 160.578C304.774 160.396 305.108 160.3 305.45 160.3C305.715 160.328 305.972 160.409 306.205 160.539C306.439 160.668 306.644 160.842 306.809 161.052C306.974 161.262 307.095 161.502 307.166 161.759C307.236 162.017 307.255 162.285 307.22 162.55V162.55Z" fill="#CC9A8F"/>
<path d="M313.81 125.34C313.81 125.34 313.55 125.76 313.81 126.01C314.25 126.131 314.718 126.097 315.136 125.915C315.554 125.733 315.898 125.414 316.11 125.01C315.376 125.286 314.591 125.398 313.81 125.34V125.34Z" fill="#E86B87"/>
<path d="M313.26 124.73C313.26 124.73 313.26 125.32 313.5 125.4C313.74 125.48 315.84 125.46 316.27 124.87C315.275 124.707 314.265 124.66 313.26 124.73Z" fill="#D85369"/>
<path d="M219.51 213.88H213.41C211.258 213.879 209.16 214.548 207.406 215.796C205.653 217.043 204.332 218.805 203.627 220.838C202.921 222.871 202.867 225.073 203.472 227.138C204.077 229.203 205.31 231.028 207 232.36C207.19 234.75 206.95 238.47 203.67 238.88C199.04 239.45 209.77 241.67 213.49 234.61H219.49C222.183 234.526 224.738 233.398 226.614 231.463C228.489 229.528 229.538 226.939 229.538 224.245C229.538 221.55 228.489 218.962 226.614 217.027C224.738 215.092 222.183 213.964 219.49 213.88H219.51Z" fill="#DD5829"/>
<path d="M212.718 227.826C212.354 227.826 212.054 227.699 211.82 227.447C211.589 227.194 211.484 226.887 211.506 226.526C211.531 226.169 211.681 225.868 211.955 225.622C212.233 225.373 212.552 225.249 212.913 225.249C213.26 225.249 213.552 225.373 213.79 225.622C214.028 225.871 214.133 226.173 214.104 226.526C214.086 226.764 214.009 226.983 213.871 227.181C213.738 227.376 213.568 227.533 213.363 227.652C213.157 227.768 212.942 227.826 212.718 227.826ZM213.682 222C213.317 222 213.018 221.876 212.783 221.627C212.552 221.374 212.449 221.066 212.475 220.701C212.5 220.347 212.65 220.046 212.924 219.797C213.202 219.548 213.52 219.423 213.877 219.423C214.223 219.423 214.516 219.55 214.754 219.802C214.996 220.051 215.102 220.351 215.073 220.701C215.055 220.943 214.978 221.163 214.84 221.362C214.703 221.556 214.532 221.712 214.326 221.827C214.124 221.943 213.909 222 213.682 222ZM220.437 223.24C220.217 224.586 219.832 225.824 219.284 226.954C218.739 228.084 218.015 229.13 217.113 230.094H214.91C215.252 229.737 215.586 229.3 215.911 228.784C216.236 228.268 216.539 227.705 216.821 227.095C217.106 226.481 217.353 225.846 217.562 225.189C217.772 224.532 217.93 223.883 218.039 223.24C218.183 222.385 218.239 221.522 218.206 220.652C218.178 219.779 218.073 218.97 217.892 218.227C217.716 217.48 217.477 216.868 217.178 216.392H219.381C219.959 217.355 220.334 218.402 220.507 219.532C220.681 220.661 220.657 221.898 220.437 223.24Z" fill="#0F3015"/>
<path d="M282.14 123.57H287.7C289.662 123.568 291.577 124.177 293.177 125.313C294.777 126.449 295.983 128.056 296.628 129.909C297.272 131.763 297.323 133.771 296.773 135.655C296.224 137.539 295.1 139.204 293.56 140.42C293.38 142.6 293.61 146 296.56 146.42C300.78 146.95 290.99 148.97 287.56 142.53H282.06C279.606 142.45 277.278 141.419 275.57 139.655C273.862 137.89 272.907 135.531 272.907 133.075C272.907 130.619 273.862 128.26 275.57 126.495C277.278 124.731 279.606 123.7 282.06 123.62L282.14 123.57Z" fill="#F33F36"/>
<path d="M290.21 129.42C288.13 126.76 285.72 129.7 285.02 130.69C284.31 129.69 281.9 126.76 279.82 129.42C277.47 132.42 282.2 137.82 284.82 138.76V138.87H285.03H285.23V138.76C287.83 137.82 292.56 132.41 290.21 129.42Z" fill="#0F3015"/>
<path d="M201.67 99.52H196.11C194.146 99.5171 192.23 100.127 190.629 101.264C189.028 102.402 187.821 104.01 187.177 105.866C186.534 107.721 186.485 109.731 187.037 111.616C187.59 113.5 188.716 115.166 190.26 116.38C190.43 118.56 190.26 121.95 187.26 122.38C183.04 122.9 192.83 124.93 196.26 118.48H201.76C203.027 118.521 204.29 118.307 205.473 117.851C206.657 117.394 207.736 116.704 208.647 115.822C209.558 114.94 210.283 113.884 210.778 112.716C211.272 111.548 211.527 110.293 211.527 109.025C211.527 107.757 211.272 106.502 210.778 105.334C210.283 104.166 209.558 103.11 208.647 102.228C207.736 101.346 206.657 100.656 205.473 100.199C204.29 99.7429 203.027 99.5288 201.76 99.57L201.67 99.52Z" fill="#FCD246"/>
<path d="M197.123 114.937L199.217 102.295H200.027L197.933 114.937H197.123ZM200.659 106.497C200.675 106.086 200.555 105.768 200.298 105.544C200.045 105.32 199.661 105.208 199.148 105.208C198.799 105.208 198.496 105.258 198.239 105.357C197.982 105.452 197.776 105.585 197.622 105.757C197.47 105.924 197.376 106.119 197.34 106.339C197.304 106.52 197.316 106.678 197.375 106.813C197.437 106.948 197.534 107.065 197.666 107.164C197.801 107.26 197.961 107.343 198.145 107.416C198.33 107.485 198.525 107.544 198.733 107.594L199.602 107.811C200.027 107.91 200.409 108.041 200.748 108.206C201.09 108.371 201.377 108.573 201.607 108.814C201.841 109.054 202.006 109.337 202.101 109.663C202.196 109.989 202.21 110.363 202.141 110.784C202.035 111.403 201.79 111.94 201.405 112.394C201.019 112.845 200.514 113.196 199.889 113.446C199.263 113.693 198.539 113.816 197.716 113.816C196.899 113.816 196.209 113.691 195.646 113.441C195.083 113.191 194.673 112.82 194.417 112.33C194.163 111.836 194.087 111.225 194.189 110.498H196.259C196.222 110.837 196.272 111.12 196.407 111.347C196.545 111.571 196.751 111.74 197.024 111.856C197.297 111.968 197.618 112.024 197.987 112.024C198.353 112.024 198.677 111.971 198.96 111.866C199.247 111.76 199.479 111.614 199.656 111.426C199.834 111.238 199.943 111.023 199.982 110.779C200.022 110.552 199.987 110.361 199.879 110.206C199.77 110.051 199.596 109.92 199.355 109.811C199.118 109.699 198.823 109.6 198.471 109.515L197.414 109.238C196.598 109.031 195.98 108.707 195.562 108.265C195.144 107.824 194.994 107.23 195.113 106.483C195.218 105.87 195.473 105.335 195.878 104.877C196.287 104.417 196.8 104.059 197.419 103.806C198.041 103.549 198.721 103.421 199.459 103.421C200.21 103.421 200.843 103.551 201.36 103.811C201.877 104.068 202.254 104.426 202.491 104.887C202.728 105.348 202.801 105.885 202.708 106.497H200.659Z" fill="#385087"/>
<path d="M350.83 335.13H344.75C342.605 335.129 340.514 335.796 338.766 337.038C337.018 338.281 335.7 340.037 334.996 342.063C334.292 344.089 334.237 346.283 334.838 348.342C335.439 350.401 336.667 352.221 338.35 353.55C338.54 355.94 338.3 359.64 335.02 360.05C330.41 360.63 341.11 362.84 344.82 355.8H350.82C353.505 355.716 356.053 354.591 357.923 352.662C359.793 350.733 360.838 348.152 360.838 345.465C360.838 342.778 359.793 340.197 357.923 338.268C356.053 336.339 353.505 335.213 350.82 335.13H350.83Z" fill="#FF8BB1"/>
<path d="M343.48 352.11C344.988 352.11 346.21 351.286 346.21 350.27C346.21 349.254 344.988 348.43 343.48 348.43C341.972 348.43 340.75 349.254 340.75 350.27C340.75 351.286 341.972 352.11 343.48 352.11Z" fill="#385087"/>
<path d="M353.45 347.79C353.45 348.79 352.23 349.64 350.72 349.64C349.21 349.64 347.98 348.81 347.98 347.79C347.98 346.77 349.21 345.95 350.72 345.95C352.23 345.95 353.45 346.78 353.45 347.79Z" fill="#385087"/>
<path d="M346.21 341.37H345.06V350.27H346.21V341.37Z" fill="#385087"/>
<path d="M353.44 338.89H352.29V347.79H353.44V338.89Z" fill="#385087"/>
<path d="M353.45 338.89H345.06V341.81H353.45V338.89Z" fill="#385087"/>
<path d="M488.1 401.11H489.6C489.691 400.618 489.751 400.12 489.78 399.62" stroke="#0F3015" stroke-miterlimit="10"/>
<path d="M489.48 396.62C488.806 393.896 487.078 391.552 484.676 390.102C482.273 388.652 479.394 388.216 476.67 388.89" stroke="#0F3015" stroke-miterlimit="10" stroke-dasharray="3.02 3.02"/>
<path d="M475.25 389.35C474.789 389.54 474.341 389.76 473.91 390.01C473.78 389.53 473.64 389.01 473.47 388.58" stroke="#0F3015" stroke-miterlimit="10"/>
<path d="M472.39 386.18C471.212 384.056 469.563 382.23 467.57 380.843C465.576 379.456 463.291 378.545 460.89 378.18" stroke="#0F3015" stroke-miterlimit="10" stroke-dasharray="2.64 2.64"/>
<path d="M459.59 378C459.24 378 458.88 378 458.53 378H458.09C457.881 377.545 457.644 377.104 457.38 376.68" stroke="#0F3015" stroke-miterlimit="10"/>
<path d="M455.35 374.33C453.959 373.137 452.283 372.325 450.484 371.974C448.686 371.624 446.827 371.746 445.09 372.33" stroke="#0F3015" stroke-miterlimit="10" stroke-dasharray="3.12 3.12"/>
<path d="M443.65 372.89C443.202 373.119 442.771 373.379 442.36 373.67C441.99 373.33 441.6 373.02 441.21 372.67" stroke="#0F3015" stroke-miterlimit="10"/>
<path d="M438.61 371C434.241 368.579 429.151 367.802 424.259 368.809C419.367 369.816 414.997 372.541 411.94 376.49" stroke="#0F3015" stroke-miterlimit="10" stroke-dasharray="3.12 3.12"/>
<path d="M411 377.75C410.72 378.17 410.46 378.59 410.22 379.03C409.752 378.851 409.275 378.698 408.79 378.57" stroke="#0F3015" stroke-miterlimit="10"/>
<path d="M405.61 378C405.3 378 404.98 378 404.66 378C401.819 377.999 399.03 378.761 396.585 380.207C394.139 381.653 392.128 383.73 390.76 386.22" stroke="#0F3015" stroke-miterlimit="10" stroke-dasharray="3.25 3.25"/>
<path d="M390.05 387.69C389.852 388.15 389.678 388.621 389.53 389.1C389.28 389.1 389.04 389.1 388.79 389.1C388.54 389.1 388.28 389.1 388.03 389.1" stroke="#0F3015" stroke-miterlimit="10"/>
<path d="M385 389.78C383.268 390.454 381.745 391.572 380.583 393.022C379.42 394.472 378.661 396.203 378.38 398.04" stroke="#0F3015" stroke-miterlimit="10" stroke-dasharray="3.16 3.16"/>
<path d="M378.21 399.61C378.214 400.102 378.254 400.593 378.33 401.08H379.83" stroke="#0F3015" stroke-miterlimit="10"/>
<path d="M382.75 401.11H486.64" stroke="#0F3015" stroke-miterlimit="10" stroke-dasharray="2.93 2.93"/>
<path d="M120.1 401.11H121.6C121.691 400.618 121.751 400.12 121.78 399.62" stroke="#0F3015" stroke-miterlimit="10"/>
<path d="M121.48 396.62C120.806 393.896 119.078 391.552 116.676 390.102C114.273 388.652 111.394 388.216 108.67 388.89" stroke="#0F3015" stroke-miterlimit="10" stroke-dasharray="3.02 3.02"/>
<path d="M107.25 389.35C106.789 389.54 106.341 389.76 105.91 390.01C105.78 389.53 105.64 389.01 105.47 388.58" stroke="#0F3015" stroke-miterlimit="10"/>
<path d="M104.39 386.18C103.212 384.056 101.563 382.23 99.5697 380.843C97.5761 379.456 95.2909 378.545 92.8899 378.18" stroke="#0F3015" stroke-miterlimit="10" stroke-dasharray="2.64 2.64"/>
<path d="M91.5899 378C91.2399 378 90.8799 378 90.5299 378H90.0899C89.8812 377.545 89.6441 377.104 89.3799 376.68" stroke="#0F3015" stroke-miterlimit="10"/>
<path d="M87.3498 374.33C85.9593 373.137 84.2826 372.325 82.4841 371.974C80.6856 371.624 78.8268 371.746 77.0898 372.33" stroke="#0F3015" stroke-miterlimit="10" stroke-dasharray="3.12 3.12"/>
<path d="M75.65 372.89C75.2019 373.119 74.7708 373.379 74.36 373.67C73.99 373.33 73.6 373.02 73.21 372.67" stroke="#0F3015" stroke-miterlimit="10"/>
<path d="M70.6099 371C66.2414 368.579 61.1507 367.802 56.2589 368.809C51.367 369.816 46.9971 372.541 43.9399 376.49" stroke="#0F3015" stroke-miterlimit="10" stroke-dasharray="3.12 3.12"/>
<path d="M43 377.75C42.72 378.17 42.46 378.59 42.22 379.03C41.7519 378.851 41.2746 378.698 40.79 378.57" stroke="#0F3015" stroke-miterlimit="10"/>
<path d="M37.61 378C37.3 378 36.98 378 36.61 378C33.769 377.999 30.98 378.761 28.5346 380.207C26.0893 381.653 24.0776 383.73 22.71 386.22" stroke="#0F3015" stroke-miterlimit="10" stroke-dasharray="3.25 3.25"/>
<path d="M22.05 387.69C21.8516 388.15 21.678 388.621 21.53 389.1C21.28 389.1 21.04 389.1 20.79 389.1C20.54 389.1 20.28 389.1 20.03 389.1" stroke="#0F3015" stroke-miterlimit="10"/>
<path d="M17.0001 389.78C15.2654 390.445 13.7362 391.555 12.5655 392.998C11.3949 394.44 10.624 396.165 10.3301 398" stroke="#0F3015" stroke-miterlimit="10" stroke-dasharray="3.16 3.16"/>
<path d="M10.21 399.61C10.2143 400.102 10.2544 400.593 10.33 401.08H11.83" stroke="#0F3015" stroke-miterlimit="10"/>
<path d="M14.75 401.11H118.64" stroke="#0F3015" stroke-miterlimit="10" stroke-dasharray="2.93 2.93"/>
<path opacity="0.38" d="M199.69 49.4299C199.69 47.7722 199.031 46.1825 197.859 45.0104C196.687 43.8383 195.098 43.1799 193.44 43.1799C192.875 43.1791 192.313 43.2565 191.77 43.4099C191.137 41.9572 190.094 40.7207 188.769 39.8521C187.444 38.9834 185.894 38.5204 184.31 38.5199C182.611 38.5146 180.954 39.0505 179.58 40.0499C179.309 38.0702 178.32 36.2592 176.8 34.9619C175.28 33.6646 173.336 32.9716 171.339 33.0148C169.341 33.0581 167.429 33.8346 165.967 35.1964C164.505 36.5582 163.595 38.4103 163.41 40.3999C161.649 39.152 159.464 38.6548 157.337 39.0177C155.209 39.3806 153.313 40.5738 152.065 42.3349C150.817 44.0959 150.32 46.2805 150.683 48.4081C151.046 50.5357 152.239 52.432 154 53.6799C154.426 54.2961 154.996 54.7999 155.659 55.1482C156.323 55.4965 157.061 55.6789 157.81 55.6799H194.2C194.947 55.6748 195.682 55.4905 196.343 55.1425C197.005 54.7945 197.573 54.2929 198 53.6799C199.083 52.5292 199.687 51.0097 199.69 49.4299V49.4299Z" fill="#0F3015"/>
<path opacity="0.38" d="M77.6899 293.43C77.6899 291.772 77.0314 290.183 75.8593 289.01C74.6872 287.838 73.0975 287.18 71.4399 287.18C70.8753 287.179 70.3133 287.257 69.7699 287.41C69.1373 285.957 68.0945 284.721 66.7693 283.852C65.4442 282.983 63.8944 282.52 62.3099 282.52C60.6108 282.515 58.9541 283.05 57.5799 284.05C57.3091 282.07 56.3197 280.259 54.8 278.962C53.2803 277.665 51.3365 276.972 49.3388 277.015C47.3412 277.058 45.4292 277.835 43.9671 279.196C42.5049 280.558 41.5948 282.41 41.4099 284.4C39.6489 283.152 37.4643 282.655 35.3367 283.018C33.2091 283.381 31.3127 284.574 30.0649 286.335C28.8171 288.096 28.3199 290.281 28.6828 292.408C29.0457 294.536 30.2389 296.432 31.9999 297.68C32.4263 298.296 32.9955 298.8 33.659 299.148C34.3225 299.497 35.0605 299.679 35.8099 299.68H72.1999C72.9471 299.675 73.6822 299.491 74.3434 299.143C75.0046 298.795 75.5727 298.293 75.9999 297.68C77.0825 296.529 77.6868 295.01 77.6899 293.43V293.43Z" fill="#0F3015"/>
<path opacity="0.38" d="M461.69 105.43C461.69 103.772 461.031 102.183 459.859 101.01C458.687 99.8383 457.098 99.1799 455.44 99.1799C454.875 99.1791 454.313 99.2565 453.77 99.4099C453.137 97.9572 452.094 96.7207 450.769 95.8521C449.444 94.9835 447.894 94.5204 446.31 94.5199C444.611 94.5146 442.954 95.0505 441.58 96.0499C441.309 94.0702 440.32 92.2592 438.8 90.9619C437.28 89.6646 435.336 88.9716 433.339 89.0148C431.341 89.0581 429.429 89.8346 427.967 91.1964C426.505 92.5583 425.595 94.4103 425.41 96.3999C423.649 95.152 421.464 94.6548 419.337 95.0177C417.209 95.3806 415.313 96.5738 414.065 98.3349C412.817 100.096 412.32 102.281 412.683 104.408C413.046 106.536 414.239 108.432 416 109.68C416.426 110.296 416.996 110.8 417.659 111.148C418.323 111.497 419.061 111.679 419.81 111.68H456.2C456.947 111.675 457.682 111.491 458.343 111.143C459.005 110.795 459.573 110.293 460 109.68C461.083 108.529 461.687 107.01 461.69 105.43Z" fill="#0F3015"/>
<path d="M100.51 109.71C100 109.769 99.4952 109.866 98.9998 110C98.8019 109.541 98.5713 109.096 98.3098 108.67" stroke="#0F3015" stroke-miterlimit="10"/>
<path d="M96.8199 106.64C95.202 104.922 93.1023 103.733 90.7965 103.23C88.4907 102.726 86.0866 102.932 83.8999 103.82" stroke="#0F3015" stroke-miterlimit="10" stroke-dasharray="2.55 2.55"/>
<path d="M82.7399 104.36C82.3014 104.602 81.8774 104.869 81.4699 105.16C81.4041 104.664 81.3073 104.173 81.1799 103.69" stroke="#0F3015" stroke-miterlimit="10"/>
<path d="M80.1198 101.06C79.028 99.0794 77.3865 97.457 75.3932 96.3886C73.4 95.3201 71.1402 94.8511 68.8864 95.0382C66.6326 95.2253 64.4811 96.0605 62.6913 97.4431C60.9016 98.8256 59.5501 100.696 58.7998 102.83" stroke="#0F3015" stroke-miterlimit="10" stroke-dasharray="2.84 2.84"/>
<path d="M58.4099 104.19C58.3017 104.678 58.2249 105.172 58.1799 105.67C57.76 105.398 57.3224 105.154 56.8699 104.94" stroke="#0F3015" stroke-miterlimit="10"/>
<path d="M54.0699 104C51.4787 103.495 48.793 103.881 46.448 105.093C44.103 106.305 42.2359 108.274 41.1493 110.68C40.0627 113.086 39.8201 115.788 40.4609 118.349C41.1017 120.91 42.5883 123.179 44.6799 124.79C45.2941 125.678 46.1144 126.404 47.0705 126.905C48.0267 127.407 49.0902 127.669 50.1699 127.67H102.54C103.615 127.669 104.673 127.409 105.626 126.911C106.578 126.413 107.396 125.692 108.01 124.81C109.178 123.565 109.968 122.013 110.287 120.335C110.607 118.658 110.442 116.924 109.813 115.336C109.184 113.749 108.116 112.373 106.734 111.37C105.353 110.366 103.714 109.777 102.01 109.67" stroke="#0F3015" stroke-miterlimit="10" stroke-dasharray="2.96 2.96"/>
<path d="M74.5298 129V219H108.53" stroke="#0F3015" stroke-miterlimit="10" stroke-dasharray="3 3"/>
<path d="M385.59 47.31C385.072 47.3675 384.561 47.4678 384.06 47.61C383.852 47.1307 383.611 46.6663 383.34 46.22" stroke="#0F3015" stroke-width="1.04044" stroke-miterlimit="10"/>
<path d="M381.74 44.1099C380.059 42.3232 377.877 41.0865 375.48 40.5618C373.083 40.0372 370.584 40.2491 368.31 41.1698" stroke="#0F3015" stroke-width="1.04044" stroke-miterlimit="10" stroke-dasharray="2.65 2.65"/>
<path d="M367.1 41.74C366.643 41.9895 366.203 42.2667 365.78 42.57C365.707 42.0543 365.604 41.5434 365.47 41.04" stroke="#0F3015" stroke-width="1.04044" stroke-miterlimit="10"/>
<path d="M364.37 38.31C363.235 36.2485 361.528 34.5595 359.454 33.4471C357.38 32.3346 355.029 31.8462 352.684 32.0408C350.338 32.2353 348.1 33.1045 346.237 34.5435C344.375 35.9824 342.97 37.9296 342.19 40.15" stroke="#0F3015" stroke-width="1.04044" stroke-miterlimit="10" stroke-dasharray="2.95 2.95"/>
<path d="M341.78 41.5601C341.668 42.068 341.588 42.5823 341.54 43.1001C341.105 42.8157 340.65 42.5617 340.18 42.3401" stroke="#0F3015" stroke-width="1.04044" stroke-miterlimit="10"/>
<path d="M337.26 41.3799C336.5 41.2267 335.726 41.1497 334.95 41.1499C332.405 41.1508 329.925 41.9474 327.855 43.4282C325.786 44.909 324.231 46.9998 323.409 49.408C322.587 51.8162 322.538 54.4212 323.27 56.8584C324.002 59.2956 325.477 61.443 327.49 62.9999C328.132 63.9225 328.988 64.6769 329.983 65.1991C330.979 65.7213 332.086 65.996 333.21 65.9999H387.7C388.819 65.9912 389.92 65.7142 390.91 65.1922C391.9 64.6702 392.75 63.9184 393.39 62.9999C394.61 61.7039 395.436 60.0869 395.769 58.3384C396.103 56.5899 395.931 54.7825 395.274 53.1282C394.617 51.4739 393.502 50.0412 392.059 48.9983C390.617 47.9553 388.907 47.3454 387.13 47.2399" stroke="#0F3015" stroke-width="1.04044" stroke-miterlimit="10" stroke-dasharray="3.08 3.08"/>
<path d="M360.58 66.5V208" stroke="#0F3015" stroke-width="1.04044" stroke-miterlimit="10" stroke-dasharray="3.12 3.12"/>
<path d="M457.51 187.71C457 187.769 456.495 187.866 456 188C455.802 187.541 455.572 187.096 455.31 186.67" stroke="#0F3015" stroke-miterlimit="10"/>
<path d="M453.82 184.64C452.202 182.922 450.103 181.733 447.797 181.23C445.491 180.726 443.087 180.932 440.9 181.82" stroke="#0F3015" stroke-miterlimit="10" stroke-dasharray="2.55 2.55"/>
<path d="M439.74 182.36C439.302 182.602 438.878 182.869 438.47 183.16C438.404 182.664 438.308 182.173 438.18 181.69" stroke="#0F3015" stroke-miterlimit="10"/>
<path d="M437.12 179.06C436.028 177.079 434.387 175.457 432.393 174.389C430.4 173.32 428.14 172.851 425.887 173.038C423.633 173.225 421.481 174.061 419.692 175.443C417.902 176.826 416.55 178.696 415.8 180.83" stroke="#0F3015" stroke-miterlimit="10" stroke-dasharray="2.84 2.84"/>
<path d="M415.41 182.19C415.302 182.678 415.225 183.172 415.18 183.67C414.76 183.398 414.323 183.154 413.87 182.94" stroke="#0F3015" stroke-miterlimit="10"/>
<path d="M411.07 182C408.479 181.495 405.793 181.881 403.448 183.093C401.103 184.305 399.236 186.274 398.15 188.68C397.063 191.086 396.82 193.788 397.461 196.349C398.102 198.91 399.588 201.179 401.68 202.79C402.294 203.678 403.115 204.404 404.071 204.905C405.027 205.407 406.09 205.669 407.17 205.67H459.54C460.616 205.668 461.676 205.407 462.63 204.91C463.584 204.412 464.403 203.692 465.02 202.81C466.188 201.565 466.978 200.013 467.298 198.335C467.617 196.658 467.452 194.924 466.823 193.336C466.194 191.749 465.126 190.373 463.745 189.37C462.363 188.366 460.724 187.777 459.02 187.67" stroke="#0F3015" stroke-miterlimit="10" stroke-dasharray="2.96 2.96"/>
<path d="M437.53 207V318H347.53" stroke="#0F3015" stroke-miterlimit="10" stroke-dasharray="3 3"/>
<g style="mix-blend-mode:multiply" opacity="0.21">
<path d="M154.74 183.86C154.74 183.86 155.08 190.2 172.44 186.86C172.44 186.86 187.47 175.17 154.74 183.86Z" fill="#1272B2"/>
</g>
<g style="mix-blend-mode:multiply" opacity="0.38">
<path d="M171.86 127.39C171.808 126.805 171.908 126.216 172.15 125.68C172.15 125.68 167.46 121.5 164.74 126.96L164.91 128.1C167.22 127.81 169.53 127.54 171.86 127.39Z" fill="#F6A36A"/>
</g>
<path d="M159.45 165.79C167.542 164.284 175.803 163.897 184 164.64C184.53 166.473 184.865 168.357 185 170.26C185.18 173.26 176.07 175.87 175 179.52C172.833 180.182 170.54 180.319 168.31 179.92C168.31 179.92 164.46 174.17 159.05 174.48L157.46 174.58C157.46 174.58 157.88 166.18 159.45 165.79Z" fill="#0A1731"/>
<path d="M159.68 189.53C159.68 189.53 150 190.7 150 192.44C149.807 194.129 150.117 195.838 150.891 197.351C151.665 198.865 152.868 200.117 154.35 200.95L155.85 201.83L162.51 194.83C162.51 194.83 164.42 189.35 159.68 189.53Z" fill="#F33F36"/>
<path d="M191.52 166.14C191.52 166.14 186.86 166.84 181.95 171.69C177.04 176.54 158.95 189.74 158.95 189.74L161.95 194.93C161.95 194.93 198.51 174.63 200.1 172.49C201.69 170.35 197.37 162.49 191.52 166.14Z" fill="#0A1731"/>
<path d="M164.74 126.51C164.74 126.51 165.59 130.89 165.05 131.87C164.51 132.85 170.6 134.7 172.54 132.06C172.54 132.06 171.31 126.44 172.15 125.44C172.15 125.44 167.46 121.92 164.74 126.51Z" fill="#F6A36A"/>
<path d="M165.06 132C165.06 132 157.17 135.15 155.7 135.54C154.23 135.93 154.21 140.71 155.6 143.92C156.99 147.13 159.1 152.68 159.1 152.68L180.56 151.41L183.56 141.41C183.56 141.41 187.09 135.22 183.4 133.65C179.71 132.08 172.55 132.19 172.55 132.19C172.55 132.19 172.05 128.86 165.06 132Z" fill="#F33F36"/>
<path d="M159.1 152.65C159.1 152.65 157.48 168.65 157.56 170.1C157.64 171.55 182.25 171.4 185.08 168.54C185.08 168.54 180.35 152.89 181.35 149.54C182.35 146.19 162.08 142.31 159.1 152.65Z" fill="#F33F36"/>
<path d="M183.93 133.45C183.93 133.45 191.03 134.45 189.37 155.58C189.37 155.58 187.2 160.4 184.1 156.67C181 152.94 177.55 131.68 183.93 133.45Z" fill="#F33F36"/>
<path d="M176.14 130.86C176.5 129.39 176.94 127.86 176.02 127.86C175.678 127.89 175.337 127.936 175 128H174.92C173.92 128.15 172.37 128.39 170.74 128.61C167.2 128.61 162.44 128.26 161.79 128.32C160.87 128.41 161.46 129.91 161.96 131.32C162.46 132.73 161.62 133.25 161.62 133.25C162.87 135.67 165.82 135.83 168.67 135.25C171.93 135.84 175.56 135.67 176.67 132.78C176.66 132.75 175.78 132.33 176.14 130.86Z" fill="#F33F36"/>
<path d="M160.24 121.19C160.24 121.19 163.48 130.56 171.3 126.19C179.12 121.82 175 103 165.84 104.71C156.68 106.42 159.89 120.31 160.24 121.19Z" fill="#F6A36A"/>
<path d="M174.66 114.65C174.66 114.65 176.44 111.86 177.6 115.08C178.76 118.3 175.22 120 174.68 119.14C174.14 118.28 174.66 114.65 174.66 114.65Z" fill="#F6A36A"/>
<path d="M160 115.52C160 115.52 157.9 112.96 157.13 116.29C156.36 119.62 160.07 120.9 160.5 119.98C160.93 119.06 160 115.52 160 115.52Z" fill="#F6A36A"/>
<g style="mix-blend-mode:multiply" opacity="0.38">
<path d="M159.53 116.2C159.53 116.2 158.17 114.54 157.67 116.7C157.17 118.86 159.58 119.7 159.85 119.08C160.12 118.46 159.53 116.2 159.53 116.2Z" fill="#F6A36A"/>
</g>
<g style="mix-blend-mode:multiply" opacity="0.38">
<path d="M175.19 115.23C175.19 115.23 176.54 113.57 177.04 115.73C177.54 117.89 175.14 118.73 174.86 118.12C174.58 117.51 175.19 115.23 175.19 115.23Z" fill="#F6A36A"/>
</g>
<path d="M174.16 106.92C174.99 104.7 174.45 102.92 170.39 102.65C166.33 102.38 161.21 103.54 160.56 104.36C159.277 105.691 158.392 107.355 158.005 109.162C157.618 110.97 157.744 112.85 158.37 114.59C159.28 115.284 159.888 116.3 160.07 117.43C160.15 119.06 160.8 116.13 160.56 114.43C160.32 112.73 161.29 107.2 163.4 107.43C164.98 107.61 169.7 108.57 172.35 108.09C172.87 109.09 174.35 111.99 174.12 113.93C173.88 116.28 173.88 115.8 174.53 118.15C174.53 118.15 174.69 114.25 175.83 113.69C175.451 111.393 174.892 109.13 174.16 106.92V106.92Z" fill="#0A1731"/>
<path d="M162.34 112.56C162.52 112.296 162.753 112.071 163.023 111.899C163.292 111.727 163.594 111.612 163.91 111.56C164.251 111.515 164.597 111.567 164.91 111.71C165.194 111.85 165.441 112.056 165.63 112.31C165.158 111.96 164.574 111.797 163.99 111.85C163.701 111.884 163.42 111.969 163.16 112.1C162.874 112.23 162.6 112.384 162.34 112.56V112.56Z" fill="#0A1731"/>
<path d="M169.41 112.15C169.588 111.884 169.82 111.658 170.09 111.486C170.36 111.313 170.663 111.199 170.98 111.15C171.321 111.095 171.67 111.148 171.98 111.3C172.266 111.437 172.513 111.643 172.7 111.9C172.231 111.544 171.646 111.377 171.06 111.43C170.772 111.469 170.492 111.553 170.23 111.68C169.944 111.814 169.67 111.971 169.41 112.15V112.15Z" fill="#0A1731"/>
<path d="M172.88 114.53C172.712 114.802 172.491 115.039 172.23 115.224C171.968 115.41 171.673 115.541 171.36 115.61C171.023 115.672 170.675 115.634 170.36 115.5C170.064 115.379 169.803 115.186 169.6 114.94C170.09 115.269 170.685 115.405 171.27 115.32C171.555 115.271 171.829 115.173 172.08 115.03C172.362 114.889 172.63 114.721 172.88 114.53V114.53Z" fill="#0A1731"/>
<path d="M165.9 114.85C165.733 115.122 165.512 115.358 165.25 115.542C164.989 115.726 164.693 115.854 164.38 115.92C164.044 115.991 163.695 115.956 163.38 115.82C163.085 115.697 162.825 115.504 162.62 115.26C163.112 115.584 163.706 115.719 164.29 115.64C164.574 115.587 164.847 115.489 165.1 115.35C165.383 115.212 165.651 115.044 165.9 114.85V114.85Z" fill="#0A1731"/>
<path d="M170.2 120.21C170.035 120.482 169.815 120.717 169.556 120.901C169.296 121.085 169.001 121.214 168.69 121.28C168.354 121.349 168.005 121.314 167.69 121.18C167.401 121.053 167.144 120.861 166.94 120.62C167.432 120.945 168.026 121.08 168.61 121C168.894 120.947 169.167 120.849 169.42 120.71C169.697 120.571 169.958 120.403 170.2 120.21V120.21Z" fill="#0A1731"/>
<g style="mix-blend-mode:multiply">
<path d="M167.35 113.32L167.17 118.32C167.17 118.32 168.51 119.24 169.11 118.08L168.49 113.23C168.49 113.23 167.72 112.57 167.35 113.32Z" fill="#F6A36A"/>
</g>
<g style="mix-blend-mode:multiply" opacity="0.4">
<path d="M162.73 129C162.929 130.415 163.209 131.817 163.57 133.2C163.188 132.59 162.93 131.91 162.81 131.2C162.665 130.476 162.638 129.733 162.73 129V129Z" fill="#1F2B54"/>
</g>
<g style="mix-blend-mode:multiply" opacity="0.4">
<path d="M175.46 128.54C175.547 129.263 175.523 129.994 175.39 130.71C175.262 131.419 175.001 132.098 174.62 132.71C174.984 131.338 175.265 129.946 175.46 128.54V128.54Z" fill="#1F2B54"/>
</g>
<g style="mix-blend-mode:multiply" opacity="0.4">
<path d="M166 129.5C166.23 130.75 166.32 131.97 166.48 133.22C166.214 132.642 166.045 132.023 165.98 131.39C165.901 130.762 165.908 130.126 166 129.5V129.5Z" fill="#1F2B54"/>
</g>
<g style="mix-blend-mode:multiply" opacity="0.4">
<path d="M170.06 129.5C170.141 130.076 170.168 130.659 170.14 131.24C170.128 131.825 170.061 132.408 169.94 132.98C169.86 132.4 169.83 131.815 169.85 131.23C169.87 130.648 169.94 130.07 170.06 129.5Z" fill="#1F2B54"/>
</g>
<g style="mix-blend-mode:multiply" opacity="0.4">
<path d="M172.82 129.26C172.92 129.868 172.94 130.487 172.88 131.1C172.88 131.41 172.81 131.71 172.74 132.02C172.677 132.329 172.54 132.617 172.34 132.86C172.439 132.576 172.5 132.28 172.52 131.98C172.52 131.68 172.58 131.38 172.6 131.08C172.66 130.47 172.7 129.87 172.82 129.26Z" fill="#1F2B54"/>
</g>
<path d="M181 190.25C181 190.25 188.14 196.83 189.51 195.75C190.923 194.805 192.025 193.464 192.678 191.895C193.331 190.326 193.506 188.598 193.18 186.93L192.87 185.21L183.21 184.69C183.21 184.69 177.78 186.75 181 190.25Z" fill="#F33F36"/>
<path d="M148.61 169C148.61 169 153.14 168.67 158.61 172.3C164.08 175.93 183.61 184.85 183.61 184.85L181.76 190.54C181.76 190.54 143.57 178.76 141.68 177C139.79 175.24 142.42 166.72 148.61 169Z" fill="#0A1731"/>
<path opacity="0.42" d="M157.56 171.91C159.813 172.83 162.043 173.793 164.25 174.8C166.47 175.8 168.66 176.8 170.85 177.87C173.04 178.94 175.21 180.01 177.36 181.14C179.54 182.219 181.639 183.455 183.64 184.84C182.611 184.201 181.542 183.63 180.44 183.13L177.16 181.54L170.6 178.39L164.06 175.2C161.88 174.13 159.72 173 157.56 171.91Z" fill="#0F3015"/>
<path opacity="0.42" d="M164.53 185.24C166.202 185.528 167.856 185.919 169.48 186.41C171.109 186.879 172.706 187.453 174.26 188.13C172.591 187.842 170.941 187.451 169.32 186.96C167.688 186.49 166.088 185.915 164.53 185.24V185.24Z" fill="#0F3015"/>
<path d="M190.73 138.59H172V162.67H190.73V138.59Z" fill="#0F3015"/>
<path d="M183.13 150.63C183.049 150.962 182.877 151.264 182.633 151.503C182.388 151.741 182.082 151.906 181.748 151.979C181.414 152.051 181.067 152.028 180.746 151.913C180.424 151.797 180.142 151.594 179.931 151.325C179.72 151.057 179.589 150.735 179.552 150.395C179.515 150.056 179.575 149.713 179.724 149.406C179.873 149.099 180.106 148.839 180.395 148.658C180.684 148.477 181.019 148.38 181.36 148.38C181.89 148.45 182.372 148.725 182.703 149.145C183.033 149.565 183.187 150.098 183.13 150.63V150.63Z" fill="#CC9A8F"/>
<path d="M169.47 152.32C169.47 152.32 171.99 149.67 172.81 150.8C173.63 151.93 171.56 152.41 171.56 152.41C171.56 152.41 176.28 153.54 177.28 152.89C178.28 152.24 178.5 157.32 170.42 156.56C170.42 156.56 167.13 153.75 169.47 152.32Z" fill="#F6A36A"/>
<path d="M158.09 134.48C158.09 134.48 151.61 133.77 148.17 155.32C148.17 155.32 148.95 160.66 152.56 157.66C156.17 154.66 164.13 134.21 158.09 134.48Z" fill="#F33F36"/>
<path d="M151.67 160.15C151.67 160.15 153.22 162.9 170.45 156.55L169.26 152.66C169.26 152.66 151.43 149.92 149.26 153.66C147.09 157.4 150.83 160.09 151.67 160.15Z" fill="#F33F36"/>
<g style="mix-blend-mode:multiply" opacity="0.4">
<path d="M159.85 138C159.779 139.874 159.562 141.74 159.2 143.58C159.01 144.5 158.8 145.42 158.53 146.32C158.284 147.234 157.917 148.112 157.44 148.93C157.711 148.037 157.928 147.129 158.09 146.21L158.63 143.47C159 141.67 159.36 139.84 159.85 138Z" fill="#1F2B54"/>
</g>
<g style="mix-blend-mode:multiply" opacity="0.4">
<path d="M156.48 151.72C155.75 152.4 155 152.99 154.29 153.63C153.934 153.94 153.6 154.274 153.29 154.63C152.962 154.976 152.701 155.379 152.52 155.82C152.495 155.305 152.639 154.796 152.93 154.37C153.202 153.934 153.539 153.543 153.93 153.21C154.301 152.877 154.706 152.585 155.14 152.34C155.56 152.08 156.01 151.872 156.48 151.72V151.72Z" fill="#1F2B54"/>
</g>
<path d="M184.19 242.35C184.033 242.615 183.779 242.808 183.481 242.887C183.184 242.965 182.867 242.923 182.6 242.77L173.33 237.42C173.066 237.266 172.873 237.013 172.794 236.717C172.716 236.421 172.757 236.106 172.91 235.84V235.84C173.063 235.574 173.315 235.379 173.611 235.299C173.907 235.218 174.223 235.258 174.49 235.41L183.76 240.77C183.893 240.845 184.009 240.945 184.103 241.065C184.197 241.186 184.265 241.323 184.305 241.47C184.345 241.617 184.356 241.771 184.336 241.922C184.316 242.073 184.267 242.218 184.19 242.35Z" fill="#0F3015"/>
<g style="mix-blend-mode:multiply" opacity="0.21">
<path d="M160.85 289.35C160.85 289.35 161.65 296.61 170.13 294.59C178.61 292.57 209.66 273.59 259.28 277.24C308.9 280.89 316.97 285.31 320.2 288.14C323.43 290.97 331.09 294.59 331.09 290.96C331.09 287.33 253.23 240.53 160.85 289.35Z" fill="#1272B2"/>
</g>
<path d="M317.35 282.31C317.35 282.31 322.61 285.72 324.14 287.61C325.67 289.5 327.8 288.11 329.72 284.29C330.752 281.937 332.054 279.712 333.6 277.66C334.86 276.09 335.88 270.42 335.88 270.42C335.88 270.42 333.96 268.64 330.88 272.76C327.8 276.88 324.17 279.7 320.74 277.69C317.31 275.68 316.75 280 317.35 282.31Z" fill="#FCD246"/>
<path d="M324.8 288.49C324.8 288.49 327.02 290.14 328.94 286.7C330.86 283.26 337.49 273.48 335.88 270.42C335.88 270.42 334.88 269.21 332.88 270.57C332.362 270.939 331.907 271.388 331.53 271.9C331.21 272.47 332.09 273.55 333.16 274C334.23 274.45 329.23 286.58 324.8 288.49Z" fill="#0F3015"/>
<path d="M324.45 278.11C324.45 278.11 324.69 280.34 326.01 280.58C326.01 280.58 326.48 279.83 325.21 277.8L324.45 278.11Z" fill="#0F3015"/>
<path d="M326.15 277.13C326.15 277.13 326.56 279.33 327.89 279.46C327.89 279.46 328.3 278.68 326.89 276.76L326.15 277.13Z" fill="#0F3015"/>
<path d="M327.76 276.05C327.76 276.05 328.58 278.13 329.92 278.05C329.92 278.05 330.17 277.21 328.4 275.59L327.76 276.05Z" fill="#0F3015"/>
<path d="M326.06 283.71C326.156 283.944 326.18 284.202 326.129 284.45C326.079 284.698 325.956 284.925 325.776 285.104C325.597 285.282 325.368 285.403 325.12 285.451C324.871 285.499 324.614 285.473 324.38 285.375C324.147 285.277 323.948 285.112 323.808 284.901C323.668 284.69 323.594 284.442 323.595 284.189C323.596 283.936 323.672 283.689 323.814 283.479C323.955 283.269 324.156 283.106 324.39 283.01C324.545 282.945 324.712 282.911 324.881 282.911C325.049 282.911 325.216 282.945 325.372 283.01C325.527 283.075 325.668 283.171 325.786 283.291C325.904 283.411 325.997 283.553 326.06 283.71Z" fill="#0F3015"/>
<path d="M277.76 269.32C281.003 272.977 285.216 275.64 289.91 277C297.77 279.26 317.34 282.93 318.63 283.36C319.92 283.79 323.63 280.36 321.44 277.12C321.44 277.12 282.07 258.59 278.44 259.88C274.81 261.17 276.9 268.67 277.76 269.32Z" fill="#178B8E"/>
<path d="M242 271.06C242 271.06 282.44 273.11 283.73 266.7C285.02 260.29 278.07 255.56 248.94 251.95C248.93 252 232.24 260.09 242 271.06Z" fill="#178B8E"/>
<path d="M289.71 270.93C289.71 270.93 293.48 276.17 294.29 278.59C295.1 281.01 297.54 280.38 300.58 277.24C303.62 274.1 304.7 273.13 306.38 272.01C308.06 270.89 310.88 265.59 310.88 265.59C310.88 265.59 309.68 263.13 305.45 266.16C301.22 269.19 296.91 270.72 294.37 267.51C291.83 264.3 289.91 268.38 289.71 270.93Z" fill="#FCD246"/>
<path d="M294.61 279.71C294.61 279.71 296.14 282.13 299.07 279.37C302 276.61 311.38 269.2 310.88 265.59C310.88 265.59 310.37 264.03 308.06 264.69C307.454 264.881 306.884 265.168 306.37 265.54C305.88 266 306.37 267.39 307.2 268.21C308.03 269.03 299.37 279.36 294.61 279.71Z" fill="#0F3015"/>
<path d="M297.7 269.24C297.7 269.24 297.2 271.54 298.34 272.24C298.34 272.24 299.03 271.67 298.51 269.24H297.7Z" fill="#0F3015"/>
<path d="M299.61 268.85C299.61 268.85 299.27 271.19 300.47 271.8C300.47 271.8 301.11 271.16 300.41 268.74L299.61 268.85Z" fill="#0F3015"/>
<path d="M301.46 268.34C301.46 268.34 301.55 270.71 302.83 271.06C302.83 271.06 303.34 270.31 302.23 268.06L301.46 268.34Z" fill="#0F3015"/>
<path d="M297.37 275.39C297.395 275.738 297.282 276.082 297.056 276.348C296.829 276.613 296.508 276.779 296.16 276.81C295.889 276.84 295.616 276.787 295.375 276.66C295.134 276.532 294.937 276.336 294.81 276.095C294.682 275.854 294.63 275.581 294.66 275.31C294.689 275.039 294.8 274.783 294.976 274.576C295.153 274.369 295.388 274.219 295.651 274.147C295.913 274.075 296.192 274.083 296.449 274.171C296.707 274.258 296.933 274.421 297.097 274.639C297.261 274.856 297.356 275.118 297.37 275.39Z" fill="#0F3015"/>
<path d="M246.65 271.38C246.65 271.38 276.97 241.38 273.1 236.11C269.23 230.84 259.99 233.71 237.71 252.82C237.71 252.82 232 271.2 246.65 271.38Z" fill="#60C1C6"/>
<path d="M238.77 252.23C235.511 252.058 232.244 252.225 229.02 252.73C230.74 259.3 233.31 265.54 234.59 272.2C237.69 272.2 241.15 272.05 244.3 271.82C252.78 271.2 235.51 268.15 238.77 252.23Z" fill="#60C1C6"/>
<path d="M266.89 241.56C267.597 245.754 269.424 249.68 272.18 252.92C276.75 258.23 288.98 270.01 289.71 270.92C290.44 271.83 294.5 270.92 294.37 267.5C294.37 267.5 274.56 235.41 271.43 234.7C268.3 233.99 266.57 240.67 266.89 241.56Z" fill="#60C1C6"/>
<path d="M185 281.07C185 281.07 188.66 279.23 192.07 280.42C195.48 281.61 193.44 272.9 189.71 271.83L183 275.26C183 275.26 180 280.51 185 281.07Z" fill="#F6A36A"/>
<g style="mix-blend-mode:multiply" opacity="0.35">
<path d="M185.49 274L183 275.26C183 275.26 180 280.51 185 281.07C185.732 280.727 186.5 280.465 187.29 280.29C186.842 278.153 186.24 276.051 185.49 274Z" fill="#F6A36A"/>
</g>
<path d="M184.29 280.41L182.89 270L177.14 269.5L176 273.57L175.67 269.35C175.67 269.35 166.91 271.35 163.15 276.64C163.15 276.64 161.85 288.33 170.42 289.11C178.99 289.89 183.9 282.1 184.29 280.41Z" fill="#F6A36A"/>
<path d="M163.38 275.73C163.38 275.73 159.48 278.59 159.22 280.41C158.96 282.23 161.04 289.63 167.4 292.62C167.4 292.62 182.86 290.67 185.2 280.8C185.2 280.8 185.2 279.5 184.29 280.41C183.38 281.32 178.05 285.34 175.46 285.08C172.87 284.82 165.06 290.8 163.38 275.73Z" fill="#0A1731"/>
<path d="M169.35 286.15C169.35 286.15 173.77 281.6 174.29 280.83C174.29 280.83 175.46 281.09 174.68 282.25C173.9 283.41 172.99 284.07 174.42 284.85C175.85 285.63 178.57 284.07 178.7 282.77C178.83 281.47 182.21 282.25 183.38 281.22C184.55 280.19 173.64 291.22 169.38 286.15" fill="#0A1731"/>
<path d="M168.83 272C168.83 272 171.17 267.2 171.95 267.85C172.594 268.614 173.08 269.497 173.38 270.45C173.38 270.45 169 273.13 168.83 272Z" fill="#F6A36A"/>
<path d="M165.58 274.15L166.49 273.15C166.49 273.15 165.49 275.88 169.22 276.79C169.22 276.75 166.75 278.18 165.58 274.15Z" fill="#0A1731"/>
<path d="M168.78 272.81C168.93 273.04 168.69 273.46 168.24 273.76C167.79 274.06 167.31 274.12 167.16 273.89C167.01 273.66 167.25 273.25 167.7 272.95C168.15 272.65 168.63 272.59 168.78 272.81Z" fill="#0A1731"/>
<path d="M175.64 269.35L175.97 273.57L177.14 269.5C176.92 269.358 176.669 269.27 176.408 269.244C176.147 269.218 175.884 269.254 175.64 269.35Z" fill="#F4ECD7"/>
<path d="M226.81 253.22C226.81 253.22 230.49 251.93 232.65 252.1C234.81 252.27 236.37 268.02 237.18 271.81L232.51 272.27C232.51 272.27 231.43 256.64 226.81 253.22Z" fill="#F4ECD7"/>
<path d="M227.28 252.92C225.37 252.92 195.77 261.24 188.13 271.92C188.13 271.92 191.72 277.92 192.51 281.58C195.676 281.76 198.852 281.508 201.95 280.83C205.83 278.83 211.95 276.2 216.3 275.54C222.03 274.69 233.01 278.1 233.48 272.98C233.95 267.86 229.19 252.92 227.28 252.92Z" fill="#FCD246"/>
<g style="mix-blend-mode:multiply">
<path d="M199.37 271.51C198.83 269.08 198.01 266.74 197.37 264.36C196.51 264.86 195.68 265.36 194.88 265.9C195.012 266.22 195.1 266.556 195.14 266.9C195.57 270.43 196.92 273.8 197.49 277.32C197.72 278.68 197.83 280.05 197.98 281.42C198.75 281.34 199.52 281.23 200.29 281.11C200.315 277.887 200.006 274.67 199.37 271.51V271.51Z" fill="#FCD246"/>
</g>
<g style="mix-blend-mode:multiply">
<path d="M206 260L204.23 260.79C204.91 264.27 206.33 267.56 207.01 271.05C207.451 273.383 207.708 275.747 207.78 278.12C208.78 277.71 209.78 277.33 210.78 276.98C209.7 271.2 208.67 265.34 206 260Z" fill="#FCD246"/>
</g>
<g style="mix-blend-mode:multiply">
<path d="M227.78 253.66C227.67 253.444 227.576 253.22 227.5 252.99C227.433 252.95 227.358 252.926 227.28 252.92C225.997 253.115 224.73 253.406 223.49 253.79C224.59 257.3 227.06 260.54 228.14 264.07C229.292 267.837 230.108 271.699 230.58 275.61C231.267 275.49 231.919 275.22 232.49 274.82C232.65 267.49 231.034 260.23 227.78 253.66V253.66Z" fill="#FCD246"/>
</g>
<g style="mix-blend-mode:multiply">
<path d="M219.85 263.39C218.74 260.78 217.35 258.54 216.39 256.01C215.31 256.38 214.18 256.78 213.02 257.21C215.69 263.03 216.95 269.14 218.19 275.39C219.64 275.39 221.28 275.48 222.92 275.6C222.463 271.408 221.43 267.3 219.85 263.39V263.39Z" fill="#FCD246"/>
</g>
<path d="M193.46 281.75L190.72 282.08L187.16 272.54L189.59 269.8L189.75 272.54L193.46 281.75Z" fill="#F4ECD7"/>
<path d="M185.79 244C185.79 244 180.97 244.15 180.98 242.59C180.99 241.03 183.61 242.28 183.61 242.28C183.61 242.28 179.4 237.63 177.82 237.37C176.24 237.11 180.01 232.83 188.13 239.82C188.13 239.78 189.46 244.65 185.79 244Z" fill="#F6A36A"/>
<path d="M193.55 277.24C193.55 277.24 201.95 279.97 211.48 255.39C211.48 255.39 211.68 248.82 206.21 251.39C200.74 253.96 185.5 275.8 193.55 277.24Z" fill="#FCD246"/>
<path d="M210.48 251.44C210.48 251.44 211 248 188.08 239.76L186.29 243.86C186.29 243.86 202.75 259.94 207.92 258.57C213.09 257.2 211.31 252.14 210.48 251.44Z" fill="#FCD246"/>
<path opacity="0.46" d="M192.65 277.5C195.113 277.461 197.517 276.746 199.602 275.435C201.686 274.123 203.37 272.263 204.47 270.06C206.707 266.104 208.682 262.005 210.38 257.79C210.38 257.79 206.1 269.46 205.08 271.67C204.06 273.88 200.8 277.5 192.65 277.5Z" fill="#DD5829"/>
<path d="M185.79 243.96L188.13 239.26L190.39 240.39L187.97 245.72L185.79 243.96Z" fill="#F4ECD7"/>
<defs>
<linearGradient id="paint0_linear_33_8075" x1="243.4" y1="498" x2="243.4" y2="425" gradientUnits="userSpaceOnUse">
<stop offset="0.677083" stop-color="#A8DDE0" stop-opacity="0"/>
<stop offset="1" stop-color="#0F3015" stop-opacity="0.5"/>
</linearGradient>
<linearGradient id="paint1_linear_33_8075" x1="325.61" y1="488.17" x2="325.61" y2="412.2" gradientUnits="userSpaceOnUse">
<stop offset="0.645833" stop-color="white" stop-opacity="0"/>
<stop offset="1" stop-color="#0F3015" stop-opacity="0.5"/>
</linearGradient>
</defs>
</svg>
