<svg width="500" height="346" viewBox="0 0 500 346" fill="none" xmlns="http://www.w3.org/2000/svg">
<path d="M73.8193 334.801C55.4656 304.755 36.7392 273.731 31.0694 238.973C25.3995 204.215 35.8874 164.48 65.4876 145.341C88.7193 130.328 118.439 130.627 144.679 121.797C208.271 100.388 244.194 28.6305 307.54 6.49023C356.399 -10.5925 413.59 7.40192 449.512 44.5885C485.434 81.7752 501.419 135.213 499.902 186.833C498.384 238.454 480.696 288.531 456.752 334.315L73.8193 334.801Z" fill="#A1D0D4"/>
<path d="M395.416 86.9126H134.377C123.285 86.9126 114.293 95.9045 114.293 106.997V312.894C114.293 323.986 123.285 332.978 134.377 332.978H395.416C406.508 332.978 415.5 323.986 415.5 312.894V106.997C415.5 95.9045 406.508 86.9126 395.416 86.9126Z" fill="#1D686F"/>
<path d="M192.679 70.9213C196.293 64.6259 197.105 56.2809 193.019 50.2916C188.081 43.0446 178.006 41.4808 169.281 42.306C152.465 43.9231 136.926 51.8555 122.579 60.7795C111.046 67.9466 97.9893 78.0818 99.46 93.3544C100.538 104.501 107.878 108.527 118.326 108.201C141.571 107.436 180.814 91.5509 192.679 70.9213Z" fill="#94C8F0"/>
<path d="M408.845 105.839V131.719H107.639V105.839C107.639 95.3841 117.621 86.9126 129.885 86.9126H386.585C398.876 86.8927 408.845 95.3841 408.845 105.839Z" fill="#4CBEC8"/>
<path d="M408.845 225.73V315.456C408.845 325.132 398.863 332.978 386.585 332.978H129.885C117.607 332.978 107.639 325.132 107.639 315.456V131.379H408.845V225.73Z" fill="#F1FEFF"/>
<path d="M192.726 114.789C196.876 114.789 200.239 111.223 200.239 106.823C200.239 102.424 196.876 98.8577 192.726 98.8577C188.577 98.8577 185.213 102.424 185.213 106.823C185.213 111.223 188.577 114.789 192.726 114.789Z" fill="#D7E4F9"/>
<path d="M192.672 70.655H192.779C194.046 70.655 195.261 71.1584 196.158 72.0545C197.054 72.9506 197.557 74.1659 197.557 75.4331V105.526C197.557 106.795 197.053 108.012 196.156 108.909C195.258 109.806 194.041 110.311 192.772 110.311H192.666C191.399 110.311 190.183 109.807 189.287 108.911C188.391 108.015 187.888 106.8 187.888 105.532V75.4331C187.888 74.8051 188.012 74.1832 188.252 73.6031C188.493 73.0229 188.845 72.4959 189.29 72.0521C189.734 71.6084 190.261 71.2566 190.842 71.0168C191.422 70.7771 192.044 70.6542 192.672 70.655Z" fill="#5E3B3B"/>
<path d="M153.743 114.789C157.893 114.789 161.256 111.223 161.256 106.823C161.256 102.424 157.893 98.8577 153.743 98.8577C149.594 98.8577 146.23 102.424 146.23 106.823C146.23 111.223 149.594 114.789 153.743 114.789Z" fill="#D7E4F9"/>
<path d="M153.789 70.655H153.69C151.047 70.655 148.905 72.7972 148.905 75.4398V105.526C148.905 108.168 151.047 110.311 153.69 110.311H153.789C156.432 110.311 158.574 108.168 158.574 105.526V75.4398C158.574 72.7972 156.432 70.655 153.789 70.655Z" fill="#5E3B3B"/>
<path d="M235.23 114.789C239.379 114.789 242.743 111.223 242.743 106.823C242.743 102.424 239.379 98.8577 235.23 98.8577C231.081 98.8577 227.717 102.424 227.717 106.823C227.717 111.223 231.081 114.789 235.23 114.789Z" fill="#D7E4F9"/>
<path d="M235.277 70.655H235.177C232.534 70.655 230.392 72.7972 230.392 75.4398V105.526C230.392 108.168 232.534 110.311 235.177 110.311H235.277C237.919 110.311 240.061 108.168 240.061 105.526V75.4398C240.061 72.7972 237.919 70.655 235.277 70.655Z" fill="#5E3B3B"/>
<path d="M277.733 114.789C281.883 114.789 285.247 111.223 285.247 106.823C285.247 102.424 281.883 98.8577 277.733 98.8577C273.584 98.8577 270.22 102.424 270.22 106.823C270.22 111.223 273.584 114.789 277.733 114.789Z" fill="#D7E4F9"/>
<path d="M277.68 70.655H277.787C279.054 70.655 280.269 71.1584 281.165 72.0545C282.061 72.9506 282.565 74.1659 282.565 75.4331V105.526C282.565 106.795 282.061 108.012 281.163 108.909C280.266 109.806 279.049 110.311 277.78 110.311H277.674C276.406 110.311 275.191 109.807 274.295 108.911C273.399 108.015 272.896 106.8 272.896 105.532V75.4331C272.896 74.8051 273.019 74.1832 273.26 73.6031C273.5 73.0229 273.853 72.4959 274.297 72.0521C274.742 71.6084 275.269 71.2566 275.85 71.0168C276.43 70.7771 277.052 70.6542 277.68 70.655Z" fill="#5E3B3B"/>
<path d="M320.237 114.789C324.387 114.789 327.751 111.223 327.751 106.823C327.751 102.424 324.387 98.8577 320.237 98.8577C316.088 98.8577 312.724 102.424 312.724 106.823C312.724 111.223 316.088 114.789 320.237 114.789Z" fill="#D7E4F9"/>
<path d="M320.184 70.655H320.29C321.557 70.655 322.773 71.1584 323.669 72.0545C324.565 72.9506 325.068 74.1659 325.068 75.4331V105.526C325.068 106.154 324.944 106.776 324.704 107.357C324.464 107.937 324.111 108.465 323.667 108.909C323.223 109.353 322.695 109.706 322.115 109.946C321.534 110.187 320.912 110.311 320.283 110.311H320.177C318.91 110.311 317.694 109.807 316.798 108.911C315.902 108.015 315.399 106.8 315.399 105.532V75.4331C315.399 74.8051 315.523 74.1832 315.763 73.6031C316.004 73.0229 316.356 72.4959 316.801 72.0521C317.245 71.6084 317.773 71.2566 318.353 71.0168C318.934 70.7771 319.556 70.6542 320.184 70.655Z" fill="#5E3B3B"/>
<path d="M362.741 114.789C366.891 114.789 370.254 111.223 370.254 106.823C370.254 102.424 366.891 98.8577 362.741 98.8577C358.592 98.8577 355.228 102.424 355.228 106.823C355.228 111.223 358.592 114.789 362.741 114.789Z" fill="#D7E4F9"/>
<path d="M362.795 70.655H362.695C360.052 70.655 357.91 72.7972 357.91 75.4398V105.526C357.91 108.168 360.052 110.311 362.695 110.311H362.795C365.437 110.311 367.579 108.168 367.579 105.526V75.4398C367.579 72.7972 365.437 70.655 362.795 70.655Z" fill="#5E3B3B"/>
<path d="M153.743 166.077H125.56V189.116H153.743V166.077Z" fill="#DCE7F9"/>
<path d="M153.743 202.685H125.56V225.723H153.743V202.685Z" fill="#DCE7F9"/>
<path d="M153.743 239.299H125.56V262.338H153.743V239.299Z" fill="#DCE7F9"/>
<path d="M153.743 275.907H125.56V298.945H153.743V275.907Z" fill="#DCE7F9"/>
<path d="M193.271 166.077H165.088V189.116H193.271V166.077Z" fill="#DCE7F9"/>
<path d="M193.271 202.685H165.088V225.723H193.271V202.685Z" fill="#1D686F"/>
<path d="M193.271 239.299H165.088V262.338H193.271V239.299Z" fill="#DCE7F9"/>
<path d="M193.271 275.907H165.088V298.945H193.271V275.907Z" fill="#DCE7F9"/>
<path d="M232.8 166.077H204.618V189.116H232.8V166.077Z" fill="#DCE7F9"/>
<path d="M232.8 202.685H204.618V225.723H232.8V202.685Z" fill="#DCE7F9"/>
<path d="M232.8 239.299H204.618V262.338H232.8V239.299Z" fill="#DCE7F9"/>
<path d="M232.8 275.907H204.618V298.945H232.8V275.907Z" fill="#DCE7F9"/>
<path d="M272.337 166.077H244.154V189.116H272.337V166.077Z" fill="#DCE7F9"/>
<path d="M272.337 202.685H244.154V225.723H272.337V202.685Z" fill="#DCE7F9"/>
<path d="M272.337 239.299H244.154V262.338H272.337V239.299Z" fill="#DCE7F9"/>
<path d="M272.337 275.907H244.154V298.945H272.337V275.907Z" fill="#DCE7F9"/>
<path d="M311.866 166.077H283.683V189.116H311.866V166.077Z" fill="#DCE7F9"/>
<path d="M311.866 202.685H283.683V225.723H311.866V202.685Z" fill="#DCE7F9"/>
<path d="M311.866 239.299H283.683V262.338H311.866V239.299Z" fill="#DCE7F9"/>
<path d="M311.866 275.907H283.683V298.945H311.866V275.907Z" fill="#DCE7F9"/>
<path d="M351.394 239.299H323.211V262.338H351.394V239.299Z" fill="#FCBEBE"/>
<path d="M351.394 166.077H323.211V189.116H351.394V166.077Z" fill="#FCBEBE"/>
<path d="M351.394 202.685H323.211V225.723H351.394V202.685Z" fill="#FCBEBE"/>
<path d="M351.394 275.907H323.211V298.945H351.394V275.907Z" fill="#FCBEBE"/>
<path d="M390.924 275.907H362.741V298.945H390.924V275.907Z" fill="#FCBEBE"/>
<path d="M390.924 166.077H362.741V189.116H390.924V166.077Z" fill="#FCBEBE"/>
<path d="M390.924 202.685H362.741V225.723H390.924V202.685Z" fill="#FCBEBE"/>
<path d="M390.924 239.299H362.741V262.338H390.924V239.299Z" fill="#FCBEBE"/>
<path d="M177.739 222.909L169.507 211.895L172.116 209.712L177.706 217.192L186.224 205.487L188.853 207.643L177.739 222.909Z" fill="#FDFFFE"/>
<path d="M395.589 333.976H129.886C117.069 333.976 106.641 325.671 106.641 315.456V185.216H108.637V315.456C108.637 324.566 118.167 331.98 129.886 331.98H395.589V333.976Z" fill="#5E3B3B"/>
<path d="M409.843 213.938H407.847V257.693H409.843V213.938Z" fill="#5E3B3B"/>
<path d="M409.843 171.96H407.847V105.832C407.847 95.9498 398.31 87.9109 386.585 87.9109H129.885C125.703 87.8848 121.587 88.954 117.947 91.012C112.117 94.3394 108.63 99.9027 108.63 105.832H106.634C106.634 99.1773 110.487 92.9884 116.949 89.2818C120.891 87.0501 125.349 85.8892 129.879 85.9145H386.585C399.409 85.9145 409.843 94.8518 409.843 105.832V171.96Z" fill="#5E3B3B"/>
<path d="M463.98 325.983L465.058 313.359H455.801L456.36 325.983H463.98Z" fill="#FFB486"/>
<path d="M465.045 313.559L464.426 320.666C461.642 320.807 458.852 320.631 456.108 320.141L455.775 312.82L465.045 313.559Z" fill="#FCA377"/>
<path d="M466.423 332.744H442.333C442.27 332.047 442.303 331.343 442.432 330.655L466.083 330.788L466.423 332.744Z" fill="#4A292F"/>
<path d="M466.083 330.788L442.419 330.635C442.645 328.186 445.746 327.035 448.588 326.31L449.154 326.163L450.351 325.897L450.924 325.771C451.704 325.615 452.47 325.392 453.213 325.105C453.639 324.899 454.158 324.606 454.604 324.333C454.763 324.24 454.903 324.154 455.03 324.067L455.762 323.601C457.312 324.107 459.641 325.598 464.759 323.249L464.912 324.134L464.998 324.639L466.083 330.788Z" fill="#4A292F"/>
<path d="M448.295 327.873C448.33 327.341 448.435 326.815 448.608 326.31L448.295 327.873Z" fill="#4A292F"/>
<path d="M450.025 327.567C450.056 326.996 450.173 326.433 450.371 325.897L450.025 327.567Z" fill="#4A292F"/>
<path d="M455.063 324.1C455.961 324.872 459.255 327.068 464.945 324.167L455.063 324.1Z" fill="#4A292F"/>
<path d="M448.474 317.499C457.232 318.87 465.371 319.442 471.553 317.499C471.553 317.499 476.79 258.797 467.507 204.867L448.947 204.954C448.947 204.954 441.806 269.764 448.474 317.499Z" fill="#5E3B3B"/>
<path d="M447.742 151.191C444.209 150.332 442.013 148.795 441.221 146.612C440.063 143.431 442.319 140.21 442.552 139.851L443.25 140.364C443.157 140.49 440.981 143.511 441.999 146.313C442.665 148.209 444.661 149.567 447.915 150.352L447.742 151.191Z" fill="#5E3B3B"/>
<path d="M409.744 325.984L413.731 313.36H404.467L401.646 325.984H409.744Z" fill="#FFB486"/>
<path d="M413.75 313.247L411.554 320.194C408.726 320.726 405.816 320.631 403.029 319.915L404.606 312.861H407.934L413.75 313.247Z" fill="#FCA377"/>
<path d="M458.723 167.554C458.723 167.554 483.711 172.14 481.462 196.835C480.53 207.11 472.764 214.211 472.764 214.211L469.909 205.526L459.927 208.887L458.723 167.554Z" fill="#1D686F"/>
<path d="M444.848 169.944L446.598 156.501H454.544L456.421 169.944H444.848Z" fill="#FFB587"/>
<path d="M448.907 161.692C453.931 160.281 459.86 153.347 457.644 145.341C455.887 138.986 445 140.736 442.132 146.193C437.64 154.651 437.361 164.939 448.907 161.692Z" fill="#FFB587"/>
<path d="M403.07 183.386C402.584 183.04 401 181.982 400.74 181.443C400.481 180.904 399.576 178.116 398.99 178.342C398.405 178.568 399.423 180.438 398.904 180.565C398.578 180.644 396.461 177.084 395.902 177.663C395.53 178.042 397.1 180.019 396.841 180.145C396.581 180.272 395.164 177.417 394.585 177.949C394.006 178.482 396.581 180.897 396.275 181.143C396.129 181.263 393.879 178.102 393.42 178.548C392.808 179.147 395.35 181.343 395.097 181.643C394.971 181.782 394.205 180.851 393.686 180.352C393.394 180.072 393.127 180.258 393.207 180.518C394.092 183.18 398.351 185.682 398.624 186.075C399.037 186.654 399.456 187.213 399.875 187.752L403.07 183.386Z" fill="#FFBA8C"/>
<path d="M397.433 316.933C405.885 318.131 413.79 318.404 420.658 316.933C449.14 264.088 461.052 204.389 461.052 204.389H439.052C410.623 253.367 397.433 316.933 397.433 316.933Z" fill="#5E3B3B"/>
<path d="M415.8 189.036L403.302 182.315L398.75 188.231C398.75 188.231 406.117 207.43 420.558 205.813C432.111 204.522 439.078 182.867 439.078 182.867L415.8 189.036Z" fill="#1D686F"/>
<path d="M473.031 220.473C453.153 229.517 424.271 221.598 424.271 221.598L425.116 218.656L425.25 218.204L432.763 193.182L413.005 192.943C413.005 192.943 426.241 174.369 433.954 169.857C436.387 168.552 439.025 167.67 441.753 167.249L442.472 167.129C447.805 166.287 453.246 166.408 458.537 167.488L459.089 167.608C461.936 168.212 464.674 169.249 467.208 170.682C467.208 170.682 465.79 178.668 467.773 184.085C472.292 196.403 472.971 211.123 473.044 217.399C473.044 217.572 473.044 217.745 473.044 217.904C473.031 219.535 473.031 220.473 473.031 220.473Z" fill="#1D686F"/>
<path d="M455.642 224.579L454.764 224.646C454.551 224.646 454.338 224.679 454.098 224.685C438.639 225.551 424.238 221.598 424.238 221.598L425.117 218.656L425.25 218.204L431.106 198.692C432.091 197.687 437.042 189.622 437.814 186.354C437.814 186.354 438.147 194.706 435.518 201.554C433.861 205.879 431.998 212.301 434.187 216.38C437.095 221.678 455.396 224.506 455.642 224.579Z" fill="#00353A"/>
<path d="M422.255 180.849L414.001 190.991L414.672 191.537L422.926 181.395L422.255 180.849Z" fill="#5E3B3B"/>
<path d="M444.808 162.504C443.386 162.558 441.995 162.083 440.901 161.173L441.507 160.554C441.593 160.634 443.716 162.644 447.762 161.046L448.082 161.845C447.043 162.272 445.931 162.496 444.808 162.504V162.504Z" fill="#5E3B3B"/>
<path d="M456.008 166.916C454.328 167.721 452.481 168.118 450.618 168.074C448.755 168.03 446.928 167.547 445.288 166.663L445.421 165.585L455.795 165.452L456.008 166.916Z" fill="#FFB587"/>
<path d="M449.739 222.516C441.383 222.472 433.07 221.319 425.017 219.089L425.256 218.257C433.231 220.465 441.464 221.606 449.739 221.651C458.39 221.651 466.183 220.253 472.871 217.505L473.197 218.303C466.409 221.098 458.517 222.516 449.739 222.516Z" fill="#5E3B3B"/>
<path d="M473.696 220.473H472.831C472.831 220.26 472.771 198.998 467.593 184.145L468.405 183.858C473.636 198.851 473.696 220.26 473.696 220.473Z" fill="#5E3B3B"/>
<path d="M451.855 170.383C447.709 170.383 443.783 168.387 442.246 167.501L442.678 166.75C444.967 168.08 452.873 172.007 458.23 167.169L458.809 167.834C456.9 169.537 454.413 170.448 451.855 170.383V170.383Z" fill="#5E3B3B"/>
<path d="M412.339 332.744H388.255C388.192 332.047 388.226 331.343 388.355 330.655L412.006 330.788L412.339 332.744Z" fill="#4A292F"/>
<path d="M412.007 330.788L388.363 330.635C388.589 328.186 391.69 327.035 394.525 326.31L395.097 326.163L396.295 325.897L396.868 325.771C397.648 325.615 398.414 325.392 399.157 325.105C399.583 324.899 400.102 324.606 400.548 324.333L400.973 324.067L401.706 323.601C403.249 324.107 405.585 325.598 410.696 323.249L410.856 324.134L410.942 324.639L412.007 330.788Z" fill="#4A292F"/>
<path d="M394.219 327.873C394.253 327.341 394.356 326.816 394.525 326.31L394.219 327.873Z" fill="#4A292F"/>
<path d="M395.949 327.567C395.98 326.996 396.097 326.433 396.295 325.897L395.949 327.567Z" fill="#4A292F"/>
<path d="M400.973 324.1C401.872 324.872 405.166 327.068 410.855 324.167L400.973 324.1Z" fill="#4A292F"/>
<path d="M439.413 186.893L435.047 191.791L435.693 192.367L440.059 187.469L439.413 186.893Z" fill="#5E3B3B"/>
<path d="M471.208 218.656H470.369C470.369 213.758 469.704 206.851 469.704 206.784L470.562 206.704C470.569 206.791 471.208 213.745 471.208 218.656Z" fill="#5E3B3B"/>
<path d="M418.835 206.591C405.206 206.591 398.152 188.657 398.085 188.477L398.891 188.164C398.957 188.344 405.792 205.726 418.855 205.726C419.413 205.728 419.971 205.697 420.525 205.633C431.838 204.369 438.606 183.672 438.892 182.814L439.717 183.08C439.425 183.979 432.47 205.167 420.625 206.491C420.031 206.558 419.433 206.592 418.835 206.591Z" fill="#5E3B3B"/>
<path d="M472.538 181.976C467.321 185.09 454.937 184.338 450.491 173.99C447.217 166.357 448.828 157.719 449.593 155.31L448.262 151.038C446.295 150.104 444.713 148.517 443.786 146.548C442.859 144.578 442.644 142.348 443.178 140.237C443.178 140.237 443.923 140.829 446.226 140.643C447.503 140.53 450.884 139.272 454.211 139.978C457.226 140.364 463.528 142.453 464.153 152.422C464.686 160.647 471.533 161.532 474.801 164.833C481.283 171.454 478.434 178.455 472.538 181.976Z" fill="#5E3B3B"/>
<path d="M451.296 153.094C451.298 153.538 451.167 153.973 450.921 154.342C450.675 154.712 450.325 155.001 449.915 155.171C449.505 155.342 449.053 155.387 448.618 155.3C448.182 155.214 447.782 155 447.468 154.686C447.154 154.372 446.94 153.972 446.854 153.536C446.767 153.101 446.812 152.649 446.983 152.239C447.154 151.829 447.442 151.479 447.812 151.233C448.182 150.987 448.616 150.857 449.06 150.858C449.354 150.858 449.645 150.916 449.916 151.028C450.187 151.14 450.434 151.305 450.641 151.513C450.849 151.72 451.014 151.967 451.126 152.238C451.238 152.51 451.296 152.8 451.296 153.094V153.094Z" fill="#FFB587"/>
<path d="M480.304 169.139C479.636 166.791 478.255 164.71 476.351 163.183C475.244 162.316 474.035 161.587 472.751 161.013C469.324 159.296 465.783 157.519 464.958 151.776C463.554 142.027 457.139 140.65 454.45 140.51H454.397C451.968 140.19 449.592 140.916 448.022 141.402C447.586 141.548 447.142 141.668 446.691 141.761L446.551 140.909C446.965 140.818 447.374 140.704 447.776 140.57C449.419 140.071 451.902 139.305 454.524 139.651C457.425 139.804 464.346 141.275 465.837 151.63C466.595 156.954 469.929 158.604 473.157 160.221C474.506 160.825 475.776 161.594 476.937 162.51C478.974 164.155 480.451 166.392 481.162 168.912L480.304 169.139Z" fill="#5E3B3B"/>
<path d="M467.407 318.398C461.924 319.169 455.429 318.584 448.475 317.499C445.873 298.866 445.513 277.923 445.866 258.938C445.866 259.157 451.562 240.863 451.562 240.863C451.562 240.863 449.087 255.158 449.932 263.756C450.81 272.64 454.058 275.262 455.309 285.27C456.041 291.12 453.12 295.525 454.184 301.654C455.302 308.109 460.247 312.102 465.078 316.434C465.777 317.08 466.642 317.712 467.407 318.398Z" fill="#4A292F"/>
<path d="M445.992 260.168L445.174 259.882C447.496 253.228 449.719 246.373 451.782 239.519L452.607 239.765C450.544 246.606 448.315 253.5 445.992 260.168Z" fill="#FDFFFE"/>
<path d="M421.976 314.444C421.543 315.276 421.104 316.108 420.645 316.933C413.784 318.404 405.878 318.124 397.426 316.933C402.196 295.584 408.422 274.585 416.06 254.086C416.645 260.295 415.115 266.763 413.291 272.826C410.889 280.811 407.967 288.923 408.693 297.222C409.225 303.211 412.326 309.64 417.603 312.867C418.969 313.619 420.445 314.151 421.976 314.444V314.444Z" fill="#4A292F"/>
<path d="M414.894 259.396L414.083 259.104C419.247 244.723 424.511 231.853 429.295 221.89L430.074 222.27C425.302 232.199 420.052 245.042 414.894 259.396Z" fill="#FDFFFE"/>
<path d="M141.258 180.298L105.15 171.454C92.6284 179.003 77.8268 181.842 63.4011 179.462C48.9754 177.083 35.8697 169.641 26.4357 158.471C17.0017 147.301 11.8569 133.135 11.9245 118.515C11.9921 103.894 17.2676 89.7765 26.8045 78.6944C36.3414 67.6124 49.5153 60.2916 63.9624 58.0458C78.4096 55.7999 93.1842 58.7759 105.635 66.4398C118.086 74.1037 127.399 85.9538 131.901 99.8638C136.404 113.774 135.803 128.833 130.205 142.34L141.258 180.298Z" fill="#FF6C65"/>
<path d="M110.026 155.441C130.282 135.186 130.282 102.345 110.026 82.0899C89.7711 61.8346 56.9308 61.8346 36.6755 82.0899C16.4202 102.345 16.4202 135.186 36.6755 155.441C56.9308 175.696 89.7711 175.696 110.026 155.441Z" fill="white"/>
<path d="M110.026 155.441C130.282 135.186 130.282 102.345 110.026 82.0899C89.7711 61.8346 56.9308 61.8346 36.6755 82.0899C16.4202 102.345 16.4202 135.186 36.6755 155.441C56.9308 175.696 89.7711 175.696 110.026 155.441Z" fill="white"/>
<path d="M103.945 126.342L75.2366 117.105L60.2501 81.5291C60.0286 80.9996 59.6059 80.5798 59.0748 80.362C58.5438 80.1443 57.948 80.1463 57.4185 80.3678C56.889 80.5893 56.4692 81.0121 56.2515 81.5431C56.0337 82.0742 56.0358 82.6699 56.2573 83.1994L70.4185 116.773L31.6015 105.293C31.5027 105.261 31.3993 105.245 31.2954 105.247C31.0376 105.248 30.7889 105.342 30.5945 105.512C30.4001 105.681 30.2728 105.915 30.2358 106.17C30.1988 106.425 30.2544 106.685 30.3927 106.903C30.5309 107.12 30.7426 107.281 30.9893 107.356L71.5033 119.335L71.6896 119.78L71.49 120.413L72.0356 120.592L72.2353 121.071L72.7943 120.832L102.621 130.435C102.836 130.504 103.06 130.54 103.286 130.541C103.799 130.54 104.295 130.357 104.684 130.023C105.074 129.69 105.332 129.229 105.412 128.722C105.492 128.216 105.389 127.697 105.122 127.26C104.854 126.822 104.439 126.495 103.952 126.335L103.945 126.342Z" fill="#5E3B3B"/>
<path d="M67.3243 83.3924V84.943H73.0008V83.3924H71.1641V74.9143H69.7533L66.6455 77.5762L67.1845 78.3149C67.2422 78.4034 67.3226 78.4747 67.4175 78.5212C67.5208 78.5798 67.638 78.6097 67.7568 78.6077C67.8361 78.6068 67.9147 78.5934 67.9898 78.5678C68.0743 78.5337 68.1529 78.4866 68.2227 78.428L69.3274 77.483V83.3725L67.3243 83.3924Z" fill="#5E3B3B"/>
<path d="M79.8617 83.1792H76.6275L78.3844 81.3824C78.6506 81.1096 78.8968 80.85 79.1364 80.5905C79.3796 80.331 79.6021 80.0529 79.8018 79.7586C79.9917 79.47 80.1459 79.1594 80.261 78.8336C80.3836 78.4876 80.4444 78.1227 80.4407 77.7556C80.4448 77.3326 80.3609 76.9133 80.1945 76.5245C80.0402 76.1708 79.8135 75.8535 79.529 75.5928C79.2357 75.3352 78.8941 75.1384 78.5241 75.0138C78.1313 74.8841 77.72 74.8189 77.3063 74.8208C76.8904 74.8189 76.477 74.8841 76.0818 75.0138C75.7061 75.1342 75.3563 75.3238 75.0504 75.5728C74.7461 75.8343 74.4933 76.1502 74.305 76.5045C74.1084 76.8927 73.978 77.3111 73.9191 77.7423L73.8725 78.0617L74.8108 78.2281H75.0104C75.184 78.2333 75.3539 78.1767 75.4896 78.0684C75.6279 77.9462 75.7235 77.7829 75.7624 77.6025C75.7984 77.4433 75.859 77.2906 75.9421 77.15C76.0284 77.0137 76.1363 76.8924 76.2615 76.7906C76.542 76.5764 76.8869 76.4638 77.2398 76.4712C77.4275 76.468 77.6144 76.4973 77.7921 76.5577C77.9471 76.6041 78.0901 76.6836 78.2114 76.7906C78.3314 76.8987 78.4248 77.0331 78.4842 77.1833C78.5601 77.3712 78.5964 77.5729 78.5907 77.7755C78.5919 78.0012 78.5582 78.2257 78.4909 78.441C78.415 78.674 78.3123 78.8973 78.1847 79.1065C78.039 79.3413 77.8743 79.5639 77.6923 79.772C77.4926 80.0049 77.273 80.2444 77.0268 80.484L74.0322 83.4986C73.9284 83.5993 73.8488 83.7221 73.7993 83.858C73.752 83.9766 73.7272 84.1029 73.7261 84.2306V84.956H80.6337V83.9179C80.6357 83.8219 80.6185 83.7266 80.583 83.6375C80.5476 83.5483 80.4947 83.4672 80.4274 83.3988C80.3535 83.3249 80.2651 83.2672 80.1677 83.2294C80.0703 83.1916 79.9661 83.1745 79.8617 83.1792V83.1792Z" fill="#5E3B3B"/>
<path d="M75.9889 156.488C75.7004 156.219 75.361 156.011 74.9907 155.876C74.6129 155.739 74.2144 155.67 73.8128 155.669C73.6189 155.671 73.4254 155.687 73.2338 155.716L76.1286 152.049H74.4117C74.2324 152.048 74.0551 152.087 73.8926 152.162C73.7484 152.234 73.6213 152.336 73.52 152.462L71.1509 155.656C70.7805 156.135 70.474 156.661 70.2392 157.22C70.0491 157.673 69.9475 158.159 69.9397 158.651C69.9342 159.14 70.0153 159.627 70.1793 160.088C70.3335 160.504 70.5713 160.885 70.878 161.206C71.1859 161.521 71.5581 161.766 71.9694 161.925C72.4155 162.094 72.8897 162.178 73.3669 162.171C73.856 162.176 74.3415 162.088 74.7977 161.911C75.2148 161.748 75.5966 161.507 75.9223 161.199C76.2364 160.893 76.4853 160.526 76.6543 160.121C76.8297 159.7 76.9179 159.247 76.9139 158.79C76.9206 158.335 76.8369 157.882 76.6676 157.459C76.5085 157.093 76.2777 156.763 75.9889 156.488ZM71.7298 158.85C71.7296 158.638 71.7703 158.428 71.8496 158.231C71.9243 158.038 72.0375 157.861 72.1824 157.712C72.3328 157.558 72.5143 157.438 72.7147 157.36C72.9425 157.266 73.1872 157.221 73.4334 157.226C73.6603 157.224 73.8858 157.262 74.0989 157.34C74.2902 157.409 74.4648 157.518 74.6113 157.659C74.7537 157.806 74.8647 157.98 74.9374 158.171C75.0195 158.397 75.0601 158.636 75.0572 158.877C75.0583 159.104 75.0177 159.33 74.9374 159.542C74.8586 159.737 74.7408 159.914 74.5914 160.061C74.4386 160.214 74.2548 160.332 74.0523 160.407C73.5918 160.571 73.0888 160.571 72.6282 160.407C72.4398 160.331 72.2697 160.215 72.1291 160.068C71.9906 159.919 71.8861 159.742 71.823 159.549C71.7611 159.322 71.7364 159.086 71.7498 158.85H71.7298Z" fill="#5E3B3B"/>
<path d="M116.663 118.835C116.451 118.581 116.191 118.371 115.897 118.217C116.117 118.078 116.312 117.905 116.476 117.704C116.647 117.49 116.775 117.247 116.856 116.985C116.946 116.697 116.991 116.396 116.989 116.094C116.993 115.706 116.913 115.323 116.756 114.969C116.602 114.632 116.374 114.335 116.09 114.097C115.806 113.853 115.475 113.667 115.119 113.552C114.73 113.424 114.323 113.361 113.914 113.365C113.499 113.361 113.085 113.424 112.69 113.552C112.314 113.674 111.964 113.866 111.658 114.117C111.353 114.373 111.102 114.688 110.92 115.042C110.717 115.431 110.584 115.852 110.527 116.287L110.48 116.606L111.419 116.766H111.518H111.618C111.79 116.771 111.958 116.715 112.091 116.606C112.228 116.492 112.324 116.335 112.364 116.16C112.402 115.994 112.47 115.837 112.563 115.694C112.643 115.557 112.747 115.436 112.869 115.335C113 115.232 113.149 115.153 113.309 115.102C113.482 115.042 113.664 115.012 113.848 115.016C114.035 115.014 114.221 115.041 114.4 115.095C114.551 115.144 114.691 115.221 114.813 115.322C114.924 115.427 115.012 115.553 115.072 115.694C115.143 115.879 115.177 116.076 115.172 116.273C115.174 116.457 115.142 116.64 115.079 116.812C115.018 116.964 114.92 117.096 114.793 117.198C114.618 117.325 114.422 117.42 114.214 117.478C113.914 117.556 113.605 117.592 113.295 117.584H113.009V119.102H113.342C113.713 119.094 114.084 119.132 114.447 119.215C114.667 119.267 114.874 119.367 115.052 119.508C115.178 119.609 115.271 119.746 115.318 119.9C115.38 120.091 115.409 120.292 115.405 120.492C115.403 120.661 115.369 120.829 115.305 120.985C115.237 121.159 115.135 121.317 115.006 121.451C114.858 121.592 114.687 121.707 114.5 121.79C114.269 121.882 114.023 121.927 113.774 121.923C113.547 121.928 113.321 121.887 113.109 121.803C112.944 121.732 112.792 121.635 112.656 121.517C112.541 121.41 112.443 121.287 112.364 121.151C112.284 120.998 112.211 120.858 112.164 120.759L112.104 120.632C112.046 120.49 111.94 120.372 111.805 120.299C111.684 120.234 111.549 120.202 111.412 120.206C111.275 120.207 111.139 120.234 111.013 120.286L110.241 120.612L110.327 120.905C110.435 121.259 110.575 121.602 110.746 121.93C110.917 122.254 111.142 122.547 111.412 122.795C111.706 123.052 112.047 123.249 112.417 123.374C112.862 123.518 113.327 123.588 113.794 123.58C114.247 123.583 114.696 123.511 115.125 123.367C115.527 123.233 115.9 123.023 116.223 122.748C116.554 122.467 116.818 122.116 116.995 121.72C117.173 121.324 117.259 120.893 117.248 120.459C117.248 119.866 117.041 119.292 116.663 118.835V118.835Z" fill="#5E3B3B"/>
<path d="M35.415 114.323C35.1151 114.03 34.7568 113.803 34.3635 113.658C33.4868 113.325 32.5184 113.325 31.6417 113.658C31.2415 113.81 30.8735 114.035 30.557 114.323C30.2417 114.618 29.9923 114.977 29.825 115.375C29.6527 115.779 29.5666 116.214 29.5721 116.653C29.5659 117.09 29.645 117.524 29.805 117.93C29.9591 118.29 30.1857 118.614 30.4705 118.882C30.739 119.144 31.0615 119.344 31.4155 119.467C31.7729 119.601 32.1518 119.669 32.5335 119.667C32.7793 119.667 33.0244 119.642 33.2655 119.594L30.2709 123.507H32.0144C32.1886 123.507 32.3608 123.471 32.5202 123.4C32.668 123.328 32.7959 123.221 32.8928 123.088L35.1687 119.8C35.3418 119.547 35.5015 119.301 35.6346 119.068C35.7724 118.835 35.8946 118.592 36.0006 118.343C36.1004 118.093 36.1783 117.834 36.2335 117.571C36.2932 117.298 36.3222 117.019 36.32 116.739C36.3211 116.285 36.2422 115.835 36.0871 115.408C35.939 115.005 35.7103 114.636 35.415 114.323V114.323ZM31.5286 115.934C31.5985 115.754 31.705 115.591 31.8414 115.455C31.9842 115.315 32.1541 115.207 32.3405 115.135C32.5537 115.058 32.7791 115.019 33.006 115.022C33.2325 115.015 33.4584 115.051 33.6714 115.129C33.8503 115.196 34.0118 115.303 34.1439 115.441C34.2825 115.578 34.3893 115.744 34.4567 115.927C34.5382 116.139 34.5789 116.365 34.5765 116.593C34.5784 116.789 34.5423 116.983 34.47 117.165C34.4007 117.341 34.2966 117.502 34.1639 117.637C34.0196 117.783 33.8477 117.899 33.6581 117.977C33.4458 118.059 33.2203 118.102 32.9926 118.103C32.7663 118.107 32.5411 118.071 32.3272 117.997C32.1543 117.938 31.9972 117.84 31.868 117.711C31.7382 117.576 31.6384 117.415 31.5752 117.238C31.5037 117.024 31.4677 116.799 31.4687 116.573C31.4485 116.358 31.4688 116.141 31.5286 115.934V115.934Z" fill="#5E3B3B"/>
<path d="M49.2612 73.5858L47.5322 74.584L50.8862 80.3932L52.6152 79.395L49.2612 73.5858Z" fill="#5E3B3B"/>
<path d="M96.3873 157.643L94.6504 158.641L98.0044 164.477L99.7413 163.479L96.3873 157.643Z" fill="#5E3B3B"/>
<path d="M29.6086 92.2283L28.6104 93.9573L34.5579 97.3911L35.5561 95.6622L29.6086 92.2283Z" fill="#5E3B3B"/>
<path d="M29.6086 92.2283L28.6104 93.9573L34.5579 97.3911L35.5561 95.6622L29.6086 92.2283Z" fill="#5E3B3B"/>
<path d="M112.149 139.884L111.15 141.613L117.098 145.047L118.096 143.318L112.149 139.884Z" fill="#5E3B3B"/>
<path d="M34.5545 139.892L28.6069 143.325L29.6051 145.054L35.5527 141.621L34.5545 139.892Z" fill="#5E3B3B"/>
<path d="M34.5545 139.892L28.6069 143.325L29.6051 145.054L35.5527 141.621L34.5545 139.892Z" fill="#5E3B3B"/>
<path d="M117.098 92.2429L111.151 95.6768L112.149 97.4057L118.097 93.9719L117.098 92.2429Z" fill="#5E3B3B"/>
<path d="M50.8852 156.876L47.5312 162.685L49.2602 163.684L52.6142 157.874L50.8852 156.876Z" fill="#5E3B3B"/>
<path d="M50.8852 156.876L47.5312 162.685L49.2602 163.684L52.6142 157.874L50.8852 156.876Z" fill="#5E3B3B"/>
<path d="M97.4424 73.5738L94.0884 79.3831L95.8173 80.3813L99.1713 74.572L97.4424 73.5738Z" fill="#5E3B3B"/>
<path d="M78.662 119.626C79.1388 116.695 77.1492 113.932 74.2181 113.455C71.287 112.979 68.5243 114.968 68.0475 117.899C67.5706 120.83 69.5602 123.593 72.4913 124.07C75.4224 124.547 78.1851 122.557 78.662 119.626Z" fill="#1D686F"/>
<path d="M142.703 181.676L105.31 172.519C92.786 179.935 78.0683 182.751 63.6914 180.483C49.3145 178.215 36.1784 171.005 26.5453 160.095C16.9123 149.184 11.3853 135.256 10.9163 120.708C10.4473 106.161 15.0656 91.906 23.9758 80.3975L25.553 81.622C17.257 92.22 12.7725 105.303 12.8225 118.762C12.8264 129.489 15.6793 140.022 21.0895 149.284C26.4997 158.546 34.273 166.205 43.6143 171.478C52.9557 176.75 63.5298 179.447 74.2553 179.292C84.9807 179.137 95.4726 176.136 104.658 170.596L105.01 170.383L139.841 178.914L129.194 142.313L129.327 141.987C132.387 134.639 133.955 126.755 133.939 118.795C133.934 108.22 131.16 97.8303 125.893 88.6601C120.625 79.4899 113.049 71.8589 103.916 66.5265C94.7838 61.194 84.4142 58.346 73.8392 58.2659C63.2643 58.1858 52.8527 60.8764 43.6405 66.0699L42.6556 64.333C53.9628 57.9787 66.9656 55.2963 79.8643 56.657C92.7631 58.0178 104.92 63.3544 114.652 71.9282C124.385 80.502 131.211 91.8891 134.187 104.513C137.163 117.138 136.141 130.375 131.263 142.393L142.703 181.676Z" fill="#5E3B3B"/>
<path d="M73.353 171.627C63.7667 171.625 54.3614 169.017 46.1436 164.081C37.9257 159.145 31.2047 152.067 26.6997 143.606C22.1948 135.144 20.0754 125.616 20.5685 116.043C21.0616 106.469 24.1486 97.21 29.4991 89.2558C34.8496 81.3017 42.2623 74.9521 50.9437 70.8866C59.6252 66.8211 69.2488 65.1927 78.7845 66.1757C88.3202 67.1586 97.4092 70.716 105.079 76.467C112.748 82.218 118.71 89.9462 122.325 98.8246L120.475 99.5766C116.501 89.8327 109.604 81.561 100.733 75.9011C91.8615 70.2412 81.4533 67.4719 70.9424 67.9745C60.4315 68.4772 50.3351 72.2273 42.0445 78.7079C33.754 85.1886 27.6772 94.0808 24.6517 104.159C21.6261 114.238 21.8007 125.007 25.1512 134.982C28.5018 144.957 34.8635 153.648 43.3598 159.857C51.856 166.065 62.0686 169.486 72.5903 169.648C83.112 169.81 93.4249 166.705 102.108 160.76L103.233 162.411C94.4381 168.442 84.0171 171.657 73.353 171.627V171.627Z" fill="#5E3B3B"/>
<path d="M116.463 149.374L114.833 148.222C120.967 139.626 124.253 129.323 124.229 118.762H126.225C126.249 129.735 122.835 140.44 116.463 149.374V149.374Z" fill="#5E3B3B"/>
<path d="M388.715 131.047H146.23V133.043H388.715V131.047Z" fill="#5E3B3B"/>
<path d="M360.772 329.148C376.343 320.13 381.654 300.196 372.635 284.625C363.617 269.054 343.683 263.742 328.112 272.761C312.541 281.78 307.229 301.714 316.248 317.285C325.267 332.856 345.201 338.167 360.772 329.148Z" fill="#FFC76C"/>
<path d="M364.551 313.04C371.212 301.937 367.611 287.536 356.508 280.875C345.404 274.214 331.004 277.815 324.343 288.919C317.682 300.022 321.283 314.423 332.386 321.084C343.489 327.745 357.89 324.144 364.551 313.04Z" fill="#FFE9AB"/>
<path d="M344.461 334.215C339.962 334.308 335.492 333.488 331.32 331.804C327.147 330.12 323.36 327.608 320.186 324.419C317.013 321.229 314.519 317.429 312.856 313.249C311.193 309.068 310.395 304.594 310.51 300.096C310.625 295.598 311.652 291.171 313.527 287.081C315.402 282.991 318.087 279.324 321.42 276.302C324.753 273.279 328.664 270.964 332.917 269.496C337.17 268.028 341.677 267.438 346.164 267.761L346.098 269.092C340.421 268.79 334.766 270.008 329.717 272.621C324.668 275.234 320.407 279.147 317.376 283.957C314.344 288.766 312.651 294.297 312.471 299.98C312.292 305.662 313.632 311.289 316.353 316.281C319.075 321.272 323.079 325.447 327.953 328.374C332.826 331.301 338.393 332.874 344.078 332.931C349.763 332.988 355.36 331.527 360.291 328.698C365.223 325.869 369.31 321.776 372.131 316.84L373.282 317.505C370.375 322.582 366.178 326.801 361.118 329.737C356.057 332.672 350.311 334.219 344.461 334.222V334.215Z" fill="#5E3B3B"/>
<path d="M377.255 306.332L375.924 306.113C377.053 299.169 375.857 292.048 372.524 285.853C369.191 279.659 363.907 274.738 357.491 271.854L358.036 270.636C362.329 272.565 366.165 275.383 369.288 278.904C372.412 282.424 374.753 286.567 376.157 291.06C377.718 295.993 378.094 301.226 377.255 306.332V306.332Z" fill="#5E3B3B"/>
<path d="M346.683 316.481C344.809 316.815 342.877 316.458 341.246 315.476C339.703 314.428 338.588 312.859 338.105 311.057L337.44 309.001L342.923 307.284L343.662 309.66C344.225 311.479 345.51 312.075 347.515 311.45C349.512 310.824 350.23 309.573 349.638 307.697C349.296 306.552 348.579 305.556 347.602 304.868C346.081 303.92 344.419 303.221 342.677 302.799C339.829 301.956 337.717 300.993 336.342 299.911C334.968 298.843 333.963 297.372 333.467 295.705C332.858 293.995 332.877 292.125 333.52 290.428C334.287 288.727 335.631 287.353 337.313 286.548L336.462 283.819L341.2 282.335L342.058 285.064C343.918 284.734 345.834 285.086 347.455 286.055C348.984 287.106 350.086 288.668 350.563 290.461L350.842 291.359L345.366 293.07L344.986 291.858C344.407 290.008 343.156 289.389 341.22 289.988C339.283 290.587 338.604 291.792 339.163 293.582C339.504 294.672 340.209 295.612 341.16 296.244C342.693 297.168 344.351 297.865 346.084 298.313C348.937 299.201 351.055 300.183 352.44 301.261C353.833 302.369 354.851 303.88 355.354 305.587C355.99 307.365 355.971 309.312 355.301 311.077C354.527 312.819 353.146 314.219 351.415 315.017L352.393 318.145L347.648 319.629L346.683 316.481Z" fill="#FFC76C"/>
<path d="M320.989 287.067C323.308 288.255 325.156 290.192 326.233 292.564C327.31 290.188 329.158 288.246 331.477 287.053V287.053C329.156 285.869 327.307 283.931 326.233 281.557V281.557C325.158 283.933 323.31 285.876 320.989 287.067V287.067Z" fill="#FFF9EE"/>
<path d="M328.05 301.481C329.398 302.17 330.472 303.296 331.098 304.675V304.675C331.719 303.292 332.795 302.163 334.146 301.474V301.474C332.798 300.785 331.723 299.659 331.098 298.28V298.28C330.471 299.659 329.397 300.787 328.05 301.481V301.481Z" fill="#FFF9EE"/>
<path d="M99.8195 269.651C99.8195 269.651 95.068 239.239 118.04 229.131C141.012 219.022 99.8195 269.651 99.8195 269.651Z" fill="#9FB26B"/>
<path d="M70.8711 269.452C70.8711 269.452 74.1386 243.392 58.9458 242.773C43.7531 242.154 70.8711 269.452 70.8711 269.452Z" fill="#9FB26B"/>
<path d="M88.699 250.739C88.699 250.739 84.3668 206.764 104.005 203.863C124.987 200.768 88.699 250.739 88.699 250.739Z" fill="#9FB26B"/>
<path d="M97.8427 289.143L96.5117 289.11C96.5117 288.824 97.3835 260.747 110.853 247.185L111.798 248.123C98.7078 261.32 97.856 288.864 97.8427 289.143Z" fill="#47393D"/>
<path d="M75.8218 289.197C75.6555 288.245 71.6892 265.905 64.5088 258.159L65.487 257.254C72.947 265.313 76.9798 288.005 77.1461 288.964L75.8218 289.197Z" fill="#47393D"/>
<path d="M86.4636 289.196C86.4104 288.797 81.3262 249.268 100.625 219.761L101.736 220.493C82.7103 249.574 87.728 288.624 87.7613 289.037L86.4636 289.196Z" fill="#47393D"/>
<path d="M79.7353 259.796C79.7353 259.796 66.5257 228.232 84.8262 215.143C103.127 202.053 79.7353 259.796 79.7353 259.796Z" fill="#9FB26B"/>
<path d="M83.0626 289.196C82.9761 288.904 74.8573 259.323 83.0626 230.122L84.3403 230.482C76.2415 259.33 84.2604 288.544 84.3403 288.837L83.0626 289.196Z" fill="#47393D"/>
<path d="M88.8719 234.701L87.5942 234.328C90.123 225.677 91.1678 219.655 90.7153 216.407L92.0463 216.221C92.5187 219.661 91.454 225.877 88.8719 234.701Z" fill="white"/>
<path d="M97.124 332.978H73.4864C73.4864 332.978 65.2079 304.156 66.8317 283.953H103.812C105.509 304.343 97.124 332.978 97.124 332.978Z" fill="#1D686F"/>
<path d="M103.992 291.731H66.6655V293.062H103.992V291.731Z" fill="white"/>
<path d="M103.765 295.978H66.8848V297.308H103.765V295.978Z" fill="white"/>
<path d="M474.66 332.559H58.4536V334.555H474.66V332.559Z" fill="#5E3B3B"/>
<path d="M308.166 320.62H244.959V332.852H308.166V320.62Z" fill="#FFC76C"/>
<path d="M321.475 307.098H258.269V319.329H321.475V307.098Z" fill="#FFC76C"/>
<path d="M308.212 293.615H245.005V305.847H308.212V293.615Z" fill="#FFC76C"/>
<path d="M302.223 293.615H300.892V305.847H302.223V293.615Z" fill="#5E3B3B"/>
<path d="M295.568 293.615H294.237V305.847H295.568V293.615Z" fill="#5E3B3B"/>
<path d="M275.604 293.615H274.273V305.847H275.604V293.615Z" fill="#5E3B3B"/>
<path d="M262.294 293.615H260.963V305.847H262.294V293.615Z" fill="#5E3B3B"/>
<path d="M315.486 307.098H314.155V319.329H315.486V307.098Z" fill="#5E3B3B"/>
<path d="M308.831 307.098H307.5V319.329H308.831V307.098Z" fill="#5E3B3B"/>
<path d="M288.867 307.098H287.536V319.329H288.867V307.098Z" fill="#5E3B3B"/>
<path d="M282.212 307.098H280.881V319.329H282.212V307.098Z" fill="#5E3B3B"/>
<path d="M275.558 320.62H274.227V332.852H275.558V320.62Z" fill="#5E3B3B"/>
<path d="M262.248 320.62H260.917V332.852H262.248V320.62Z" fill="#5E3B3B"/>
<path d="M255.593 320.62H254.262V332.852H255.593V320.62Z" fill="#5E3B3B"/>
<path d="M307.866 305.78H244.999V307.111H307.866V305.78Z" fill="#5E3B3B"/>
<path d="M321.482 319.389H258.315V320.72H321.482V319.389Z" fill="#5E3B3B"/>
<path d="M298.011 311.889C299.885 312.844 301.378 314.41 302.243 316.328C303.114 314.409 304.608 312.84 306.482 311.876V311.876C304.608 310.917 303.114 309.353 302.243 307.437V307.437C301.376 309.357 299.884 310.926 298.011 311.889V311.889Z" fill="#FFF9EE"/>
<path d="M253.364 299.385C254.711 300.073 255.784 301.2 256.405 302.579V302.579C257.034 301.199 258.111 300.072 259.46 299.378C258.111 298.688 257.035 297.562 256.405 296.184V296.184C255.782 297.564 254.71 298.693 253.364 299.385V299.385Z" fill="#FFF9EE"/>
<path d="M322.141 307.098H320.81V320.72H322.141V307.098Z" fill="#5E3B3B"/>
</svg>
