<svg width="200" height="288" viewBox="0 0 200 288" fill="none" xmlns="http://www.w3.org/2000/svg">
<path d="M180.187 193.047H74.2055V248H42.8037V110.617L70.2803 83.1402H42.8037V55.6635H180.187V83.1402H74.2055V189.121L97.7569 165.57H180.187V193.047Z" fill="#E5D9B6"/>
<path d="M25.3832 233C26.1059 233 26.729 233.262 27.2523 233.785C27.7508 234.283 28 234.894 28 235.617V248.701H14.9159L12.2991 246.084V248.701H9.68224V238.234C9.68224 237.511 9.94392 236.9 10.4673 236.402C10.9657 235.879 11.5763 235.617 12.2991 235.617H17.5327V235.542C17.5327 234.819 17.7944 234.221 18.3178 233.748C18.8162 233.249 19.4268 233 20.1495 233H25.3832ZM17.5327 238.607H12.2991V245.71H19.7757L17.5327 243.467V238.607ZM25.3832 235.991H20.1495V245.71H25.3832V235.991ZM28 210.941V214.754L20.1495 222.53V214.305H12.2991V224.025H28V227.016H14.8785L12.2991 224.399V227.016H9.68224V213.932C9.68224 213.234 9.94392 212.623 10.4673 212.1C10.9907 211.577 11.6012 211.315 12.2991 211.315H19.4019C21.3956 211.315 22.3925 212.187 22.3925 213.932V216.175H22.8037L28 210.941ZM25.3832 189.999C26.1059 189.999 26.729 190.261 27.2523 190.784C27.7508 191.283 28 191.893 28 192.616V203.083C28 203.806 27.7508 204.429 27.2523 204.952C26.729 205.451 26.1059 205.7 25.3832 205.7H12.2991C11.5763 205.7 10.9657 205.451 10.4673 204.952C9.94392 204.429 9.68224 203.806 9.68224 203.083V192.616C9.68224 191.893 9.94392 191.283 10.4673 190.784C10.9657 190.261 11.5763 189.999 12.2991 189.999H25.3832ZM25.3832 192.99H12.2991V202.709H25.3832V192.99ZM28 167.762V170.753H22.7664V180.472H28V183.463H12.2991C11.5763 183.463 10.9657 183.214 10.4673 182.715C9.94392 182.192 9.68224 181.569 9.68224 180.846L9.68224 167.762H28ZM20.1495 170.753H12.2991L12.2991 180.472H22.3925L20.1495 178.229V170.753ZM25.3832 145.347C26.081 145.347 26.6916 145.608 27.215 146.132C27.7383 146.655 28 147.266 28 147.964V161.048H14.9159L12.2991 158.431V161.048H9.68224L9.68224 147.964C9.68224 147.266 9.94392 146.655 10.4673 146.132C10.9907 145.608 11.6012 145.347 12.2991 145.347H25.3832ZM25.3832 148.337H12.2991L12.2991 158.057H27.6262L25.3832 155.814V148.337ZM25.3832 123.114C26.1059 123.114 26.729 123.376 27.2523 123.899C27.7508 124.397 28 125.008 28 125.731V138.815H14.9159L12.2991 136.198V138.815H9.68224V128.348C9.68224 127.625 9.94392 127.014 10.4673 126.516C10.9657 125.992 11.5763 125.731 12.2991 125.731H17.5327V125.656C17.5327 124.933 17.7944 124.335 18.3178 123.862C18.8162 123.363 19.4268 123.114 20.1495 123.114H25.3832ZM17.5327 128.721H12.2991V135.824H19.7757L17.5327 133.581V128.721ZM25.3832 126.105H20.1495V135.824H25.3832V126.105ZM28 101.429V104.419H22.7664L22.7664 114.139H28V117.13H12.2991C11.5763 117.13 10.9657 116.88 10.4673 116.382C9.94392 115.859 9.68224 115.236 9.68224 114.513V101.429H28ZM20.1495 104.419H12.2991V114.139H22.3925L20.1495 111.896L20.1495 104.419ZM27.9626 79.0134V84.2471L12.4486 91.3499L12.4486 92.8452L14.3178 91.7237H27.9626V94.7144H9.64486L9.64486 89.4433L25.1589 82.3779V80.8826L23.2897 82.0041H9.64486V79.0134H27.9626ZM25.3832 56.5981C26.081 56.5981 26.6916 56.8598 27.215 57.3832C27.7383 57.9065 28 58.5171 28 59.215V72.2991H14.9159L12.2991 69.6822V72.2991H9.68224L9.68224 59.215C9.68224 58.5171 9.94392 57.9065 10.4673 57.3832C10.9907 56.8598 11.6012 56.5981 12.2991 56.5981H25.3832ZM25.3832 59.5888H12.2991L12.2991 69.3084H27.6262L25.3832 67.0654V59.5888Z" fill="#E5D9B6"/>
</svg>
