<svg width="500" height="369" viewBox="0 0 500 369" fill="none" xmlns="http://www.w3.org/2000/svg">
<g clip-path="url(#clip0_158_5317)">
<path d="M449.9 343.54H416.78V343.79H449.9V343.54Z" fill="#08416D"/>
<path d="M331.22 346.26H322.53V346.51H331.22V346.26Z" fill="#08416D"/>
<path d="M415.78 334.26H396.59V334.51H415.78V334.26Z" fill="#08416D"/>
<path d="M95.65 335.94H52.46V336.19H95.65V335.94Z" fill="#08416D"/>
<path d="M110.89 335.94H104.56V336.19H110.89V335.94Z" fill="#08416D"/>
<path d="M225.15 340.16H131.47V340.41H225.15V340.16Z" fill="#08416D"/>
<path d="M238.4 282.85H45.2998C43.7855 282.85 42.3331 282.248 41.2623 281.178C40.1914 280.107 39.5898 278.654 39.5898 277.14V5.71005C39.603 4.20434 40.2104 2.7648 41.2798 1.70475C42.3492 0.644711 43.7941 0.0499911 45.2998 0.0500488H238.4C239.15 0.0500488 239.892 0.197741 240.585 0.484695C241.278 0.77165 241.907 1.19225 242.437 1.72247C242.968 2.25269 243.388 2.88216 243.675 3.57493C243.962 4.2677 244.11 5.0102 244.11 5.76005V277.14C244.11 277.89 243.962 278.632 243.675 279.325C243.388 280.018 242.968 280.647 242.437 281.178C241.907 281.708 241.278 282.128 240.585 282.415C239.892 282.702 239.15 282.85 238.4 282.85V282.85ZM45.2998 0.25005C43.8526 0.252693 42.4653 0.828789 41.442 1.85217C40.4186 2.87554 39.8425 4.26278 39.8398 5.71005V277.14C39.8425 278.587 40.4186 279.975 41.442 280.998C42.4653 282.021 43.8526 282.597 45.2998 282.6H238.4C239.847 282.597 241.234 282.021 242.258 280.998C243.281 279.975 243.857 278.587 243.86 277.14V5.71005C243.857 4.26278 243.281 2.87554 242.258 1.85217C241.234 0.828789 239.847 0.252693 238.4 0.25005H45.2998Z" fill="#08416D"/>
<path d="M454.7 282.85H261.6C260.085 282.85 258.633 282.248 257.562 281.178C256.491 280.107 255.89 278.654 255.89 277.14V5.71005C255.903 4.20434 256.51 2.7648 257.58 1.70475C258.649 0.644711 260.094 0.0499911 261.6 0.0500488H454.7C456.214 0.0500488 457.666 0.651637 458.737 1.72247C459.808 2.7933 460.41 4.24566 460.41 5.76005V277.14C460.41 278.654 459.808 280.107 458.737 281.178C457.666 282.248 456.214 282.85 454.7 282.85V282.85ZM261.6 0.25005C260.152 0.252693 258.765 0.828789 257.742 1.85217C256.718 2.87554 256.142 4.26278 256.14 5.71005V277.14C256.142 278.587 256.718 279.975 257.742 280.998C258.765 282.021 260.152 282.597 261.6 282.6H454.7C456.147 282.597 457.534 282.021 458.558 280.998C459.581 279.975 460.157 278.587 460.16 277.14V5.71005C460.157 4.26278 459.581 2.87554 458.558 1.85217C457.534 0.828789 456.147 0.252693 454.7 0.25005H261.6Z" fill="#08416D"/>
<path d="M500 327.45H0V327.7H500V327.45Z" fill="#08416D"/>
<path d="M90.8802 202.18L75.6002 197.46C75.3793 197.38 75.1936 197.225 75.0759 197.021C74.9581 196.818 74.9158 196.579 74.9564 196.348C74.997 196.116 75.1179 195.906 75.2978 195.755C75.4777 195.604 75.7052 195.52 75.9402 195.52L93.5602 196.45C89.4002 189.22 86.9402 184.7 84.1402 179.04C84.0471 178.826 84.0319 178.586 84.0972 178.362C84.1625 178.137 84.3043 177.943 84.4979 177.812C84.6915 177.682 84.9247 177.623 85.1571 177.646C85.3895 177.67 85.6065 177.774 85.7702 177.94C89.5302 182.17 92.6802 185.6 97.7702 191.01C98.9702 184.01 100.37 177.56 102.11 171.09C102.155 170.825 102.304 170.589 102.523 170.433C102.743 170.277 103.015 170.215 103.28 170.26C103.545 170.305 103.782 170.454 103.938 170.673C104.093 170.893 104.155 171.165 104.11 171.43C103.643 176.643 103.473 181.878 103.6 187.11L104.08 187.28C108.307 182.454 112.744 177.817 117.39 173.37C117.577 173.224 117.81 173.149 118.048 173.158C118.285 173.168 118.511 173.262 118.686 173.423C118.86 173.584 118.971 173.802 119 174.038C119.028 174.274 118.972 174.512 118.84 174.71C114.347 180.408 110.196 186.369 106.41 192.56C112.45 190.28 118.524 188.07 124.63 185.93C124.861 185.864 125.107 185.883 125.324 185.983C125.542 186.084 125.716 186.259 125.816 186.477C125.915 186.695 125.933 186.941 125.866 187.171C125.799 187.401 125.651 187.6 125.45 187.73C119.12 191.32 112.86 194.99 106.61 198.79L122.72 203.92C122.943 204.001 123.13 204.158 123.247 204.364C123.365 204.569 123.406 204.81 123.363 205.043C123.32 205.276 123.195 205.486 123.011 205.635C122.828 205.785 122.597 205.865 122.36 205.86L105.81 204.86C109.08 208.69 111.35 211.32 114 214.29C114.15 214.473 114.23 214.702 114.227 214.937C114.223 215.173 114.137 215.4 113.983 215.578C113.828 215.757 113.616 215.875 113.383 215.911C113.15 215.948 112.912 215.902 112.71 215.78C109.38 213.57 106.45 211.61 102.19 208.78C102.63 212.18 103 214.78 103.45 217.4C103.475 217.635 103.416 217.872 103.283 218.068C103.15 218.263 102.952 218.406 102.725 218.469C102.497 218.533 102.254 218.514 102.039 218.415C101.824 218.316 101.651 218.144 101.55 217.93C100.44 215.1 99.4302 212.29 98.1502 208.55C93.3402 231.55 94.5802 253.88 99.2302 276.76L93.4702 275.76C90.0753 253.286 90.9916 230.371 96.1702 208.24C93.2802 211.24 91.1702 213.47 89.1702 215.73C89.0007 215.896 88.7775 215.997 88.5407 216.013C88.3039 216.03 88.0689 215.962 87.8777 215.821C87.6865 215.681 87.5515 215.477 87.497 215.245C87.4425 215.014 87.472 214.772 87.5802 214.56C88.9402 212.3 90.4102 210.01 92.3902 207.04C87.2402 208.17 83.7202 208.95 79.8302 209.83C79.5968 209.872 79.3561 209.83 79.151 209.711C78.9458 209.592 78.7897 209.404 78.7104 209.18C78.6311 208.957 78.6338 208.713 78.718 208.491C78.8022 208.269 78.9625 208.085 79.1702 207.97C82.6602 206.1 86.0002 204.5 90.8802 202.18Z" fill="#08416D"/>
<path d="M82.7502 210.13L94.4902 203.91C94.7842 203.761 95.0125 203.509 95.1309 203.201C95.2494 202.894 95.2494 202.553 95.1312 202.246C95.0129 201.938 94.7847 201.686 94.4907 201.537C94.1968 201.388 93.8581 201.354 93.5402 201.44L79.0502 205.05C81.4102 198.25 82.9002 193.67 84.3602 188.63C84.4497 188.32 84.4231 187.987 84.2853 187.695C84.1475 187.402 83.9081 187.17 83.6116 187.042C83.3152 186.913 82.982 186.897 82.6744 186.996C82.3668 187.095 82.1058 187.303 81.9402 187.58C79.5602 191.58 77.2902 195.18 73.9402 200.49C71.9402 195.07 69.8302 190.04 67.5502 185.1C67.407 184.805 67.1601 184.574 66.8567 184.45C66.5533 184.326 66.2148 184.318 65.9062 184.429C65.5975 184.539 65.3405 184.759 65.1844 185.048C65.0283 185.336 64.9841 185.671 65.0602 185.99C66.0602 189.91 66.8902 193.86 67.5302 197.73L67.0902 197.99C63.2902 195.03 59.4035 192.193 55.4302 189.48C55.1535 189.289 54.8145 189.209 54.4815 189.258C54.1485 189.306 53.8462 189.479 53.6357 189.742C53.4252 190.004 53.322 190.337 53.3469 190.672C53.3719 191.008 53.5232 191.322 53.7702 191.55C57.9569 195.383 61.9569 199.403 65.7702 203.61C60.6302 202.723 55.4802 201.877 50.3202 201.07C49.9941 201.025 49.6628 201.102 49.3904 201.287C49.118 201.472 48.9238 201.751 48.8454 202.071C48.767 202.391 48.81 202.728 48.966 203.018C49.1221 203.308 49.3801 203.529 49.6902 203.64C55.3902 205.64 61.0502 207.64 66.6902 209.77L54.2002 216.53C53.8938 216.676 53.6548 216.933 53.532 217.25C53.4093 217.566 53.4121 217.917 53.5399 218.232C53.6677 218.546 53.9108 218.8 54.2194 218.941C54.5281 219.082 54.879 219.099 55.2002 218.99L68.6502 215.58C66.6502 218.99 65.2102 221.58 63.6502 224.16C63.4795 224.438 63.4171 224.77 63.4749 225.091C63.5327 225.412 63.7066 225.701 63.9635 225.902C64.2205 226.104 64.5425 226.204 64.8683 226.183C65.194 226.162 65.5008 226.022 65.7302 225.79L73.0002 218.68C73.1202 220.68 73.2202 222.46 73.2802 224.1C73.2934 224.429 73.4278 224.74 73.6574 224.976C73.8871 225.211 74.1956 225.353 74.5237 225.374C74.8517 225.395 75.1759 225.294 75.4338 225.09C75.6917 224.886 75.865 224.594 75.9202 224.27C76.2502 222.27 76.5702 220.19 76.9202 217.7C85.9202 239.41 88.9202 261.56 88.5802 284.91L94.0502 282.81C93.1907 260.097 88.0117 237.755 78.7902 216.98C80.8702 218.44 82.6102 219.68 84.2002 220.85C84.4654 221.083 84.8125 221.202 85.1651 221.179C85.5176 221.157 85.8468 220.995 86.0802 220.73C86.3136 220.465 86.4321 220.118 86.4096 219.765C86.3871 219.413 86.2254 219.083 85.9602 218.85C84.8802 217.7 83.6902 216.48 82.3202 215.08C86.3202 215.19 89.3802 215.28 92.3202 215.38C92.644 215.387 92.9593 215.276 93.2069 215.068C93.4546 214.859 93.6177 214.567 93.6656 214.247C93.7134 213.927 93.6428 213.6 93.4669 213.328C93.291 213.056 93.0219 212.858 92.7102 212.77C89.7902 211.98 86.7602 211.17 82.7502 210.13Z" fill="#A1D0D4"/>
<path d="M103.48 222.75L94.7203 218.1C94.5193 217.991 94.3648 217.813 94.2857 217.599C94.2066 217.385 94.2082 217.149 94.2903 216.936C94.3724 216.722 94.5294 216.546 94.7318 216.44C94.9342 216.335 95.1683 216.306 95.3903 216.36L106.18 219.05C104.42 213.99 103.33 210.63 102.25 206.87C102.142 206.638 102.129 206.372 102.217 206.131C102.304 205.89 102.483 205.694 102.715 205.585C102.947 205.476 103.213 205.464 103.454 205.551C103.695 205.639 103.892 205.818 104 206.05C105.78 208.99 107.45 211.69 109.94 215.64C111.45 211.59 113.01 207.84 114.72 204.15C114.821 203.941 114.996 203.777 115.211 203.689C115.425 203.601 115.665 203.596 115.883 203.674C116.102 203.752 116.284 203.909 116.394 204.113C116.504 204.317 116.535 204.555 116.48 204.78C115.71 207.78 115.08 210.78 114.6 213.69L114.88 213.85C117.76 211.603 120.714 209.453 123.74 207.4C123.837 207.324 123.949 207.268 124.068 207.234C124.187 207.201 124.311 207.192 124.433 207.207C124.556 207.222 124.674 207.26 124.782 207.321C124.89 207.382 124.984 207.463 125.06 207.56C125.136 207.657 125.193 207.769 125.226 207.887C125.259 208.006 125.269 208.131 125.254 208.253C125.239 208.376 125.2 208.494 125.139 208.602C125.079 208.709 124.997 208.804 124.9 208.88C121.747 211.74 118.747 214.74 115.9 217.88C119.74 217.213 123.594 216.577 127.46 215.97C127.694 215.93 127.934 215.981 128.133 216.111C128.331 216.241 128.473 216.441 128.53 216.671C128.587 216.902 128.555 217.145 128.44 217.352C128.325 217.56 128.136 217.716 127.91 217.79C123.664 219.263 119.427 220.79 115.2 222.37L124.5 227.37C124.705 227.478 124.862 227.657 124.943 227.874C125.024 228.09 125.022 228.329 124.938 228.544C124.854 228.759 124.693 228.936 124.487 229.04C124.281 229.145 124.044 229.17 123.82 229.11L113.82 226.57C115.29 229.14 116.4 231.06 117.55 233.01C117.661 233.206 117.698 233.434 117.655 233.655C117.612 233.875 117.491 234.073 117.314 234.212C117.138 234.351 116.917 234.423 116.693 234.413C116.468 234.403 116.254 234.314 116.09 234.16L110.71 228.87C110.61 230.46 110.54 231.82 110.49 233.09C110.486 233.326 110.394 233.552 110.231 233.723C110.068 233.894 109.846 233.997 109.611 234.012C109.375 234.027 109.142 233.953 108.959 233.805C108.775 233.656 108.654 233.444 108.62 233.21C108.37 231.7 108.12 230.08 107.84 228.15C101.26 243.98 99.1203 260.15 99.3403 277.15L95.3403 275.62C95.9676 259.059 99.7415 242.77 106.46 227.62C104.85 228.76 103.46 229.72 102.28 230.62C102.092 230.769 101.855 230.841 101.616 230.82C101.377 230.8 101.155 230.689 100.995 230.51C100.835 230.331 100.75 230.098 100.756 229.858C100.763 229.618 100.861 229.39 101.03 229.22C101.88 228.32 102.8 227.36 103.89 226.22L96.3303 226.44C96.0982 226.449 95.871 226.372 95.6924 226.224C95.5138 226.076 95.3964 225.866 95.3628 225.637C95.3293 225.407 95.382 225.173 95.5108 224.98C95.6395 224.786 95.8353 224.648 96.0603 224.59C98.1903 224.13 100.45 223.53 103.48 222.75Z" fill="#08416D" fill-opacity="0.1"/>
<path d="M78.7904 327.28H108.61C109.615 327.282 110.582 326.9 111.315 326.212C112.047 325.524 112.489 324.583 112.55 323.58L115.71 272.14C115.85 269.87 71.5504 269.87 71.7104 272.14L74.8704 323.58C74.9314 324.579 75.3705 325.518 76.0986 326.205C76.8267 326.893 77.7892 327.277 78.7904 327.28Z" fill="#A1D0D4"/>
<path d="M77.0002 208.43C76.6125 208.111 76.3113 207.698 76.1244 207.232C75.9374 206.765 75.8707 206.259 75.9302 205.76L76.6002 200.06L75.0702 202.71C74.8585 203.083 74.5696 203.405 74.2228 203.656C73.876 203.908 73.4794 204.082 73.0598 204.167C72.6401 204.252 72.207 204.247 71.7897 204.151C71.3724 204.055 70.9804 203.87 70.6402 203.61L67.6402 201.35L70.3702 205.76C70.7532 206.371 70.9033 207.1 70.7931 207.812C70.6829 208.525 70.3198 209.174 69.7702 209.64L66.2402 212.64L69.7002 211.85C70.4336 211.678 71.2049 211.789 71.8607 212.159C72.5166 212.53 73.009 213.133 73.2402 213.85L74.4302 217.49L75.1902 213.62C75.2727 213.21 75.4398 212.822 75.681 212.481C75.9222 212.139 76.2321 211.852 76.5909 211.637C76.9496 211.423 77.3492 211.285 77.7641 211.234C78.1791 211.183 78.6001 211.219 79.0002 211.34L81.3302 212.02L77.0002 208.43Z" fill="#08416D"/>
<path d="M96.8702 198.61C97.1546 198.378 97.3754 198.077 97.5118 197.736C97.6482 197.395 97.6959 197.025 97.6502 196.66L97.1602 192.49L98.2802 194.43C98.4345 194.702 98.6451 194.937 98.8978 195.12C99.1506 195.304 99.4395 195.431 99.7454 195.493C100.051 195.556 100.367 195.552 100.671 195.483C100.976 195.413 101.262 195.279 101.51 195.09L103.7 193.44L101.7 196.66C101.424 197.107 101.316 197.638 101.397 198.157C101.477 198.676 101.741 199.149 102.14 199.49L104.72 201.71L102.19 201.13C101.656 201.008 101.095 201.09 100.617 201.36C100.14 201.631 99.7809 202.069 99.6102 202.59L98.7402 205.25L98.1802 202.42C98.1202 202.12 97.9987 201.836 97.8233 201.586C97.6479 201.335 97.4224 201.124 97.1611 200.965C96.8998 200.806 96.6084 200.703 96.3053 200.663C96.0022 200.623 95.694 200.645 95.4002 200.73L93.7002 201.23L96.8702 198.61Z" fill="#08416D" fill-opacity="0.1"/>
<path d="M108.66 222.48C108.862 222.309 109.019 222.091 109.117 221.845C109.215 221.599 109.25 221.333 109.22 221.07L108.87 218.07L109.67 219.46C109.782 219.654 109.934 219.822 110.116 219.952C110.298 220.083 110.505 220.174 110.724 220.218C110.944 220.262 111.17 220.26 111.388 220.21C111.607 220.161 111.812 220.065 111.99 219.93L113.56 218.74L112.13 221.05C111.94 221.367 111.866 221.741 111.923 222.106C111.98 222.472 112.163 222.806 112.44 223.05L114.29 224.64L112.48 224.22C112.102 224.13 111.703 224.183 111.36 224.367C111.018 224.551 110.754 224.855 110.62 225.22L110 227.13L109.6 225.13C109.558 224.914 109.471 224.71 109.345 224.529C109.219 224.349 109.056 224.197 108.868 224.083C108.68 223.969 108.47 223.896 108.251 223.868C108.033 223.84 107.811 223.858 107.6 223.92L106.38 224.28L108.66 222.48Z" fill="#08416D"/>
<path d="M384.64 80.7002H358.47C357.741 80.7002 357.15 81.2912 357.15 82.0202V87.1102C357.15 87.8392 357.741 88.4302 358.47 88.4302H384.64C385.369 88.4302 385.96 87.8392 385.96 87.1102V82.0202C385.96 81.2912 385.369 80.7002 384.64 80.7002Z" fill="#08416D" fill-opacity="0.1"/>
<path d="M375.841 90.2803H349.671C348.942 90.2803 348.351 90.8713 348.351 91.6003V96.6903C348.351 97.4193 348.942 98.0103 349.671 98.0103H375.841C376.57 98.0103 377.161 97.4193 377.161 96.6903V91.6003C377.161 90.8713 376.57 90.2803 375.841 90.2803Z" fill="#08416D" fill-opacity="0.1"/>
<path d="M405.991 90.2803H379.821C379.092 90.2803 378.501 90.8713 378.501 91.6003V96.6903C378.501 97.4193 379.092 98.0103 379.821 98.0103H405.991C406.72 98.0103 407.311 97.4193 407.311 96.6903V91.6003C407.311 90.8713 406.72 90.2803 405.991 90.2803Z" fill="#A1D0D4"/>
<path d="M419.98 19.1702H392.06C391.331 19.1702 390.74 19.7611 390.74 20.4902V26.0502C390.74 26.7792 391.331 27.3702 392.06 27.3702H419.98C420.709 27.3702 421.3 26.7792 421.3 26.0502V20.4902C421.3 19.7611 420.709 19.1702 419.98 19.1702Z" fill="#08416D" fill-opacity="0.1"/>
<path d="M419.98 39.5203H392.06C391.331 39.5203 390.74 40.1112 390.74 40.8403V46.4003C390.74 47.1293 391.331 47.7203 392.06 47.7203H419.98C420.709 47.7203 421.3 47.1293 421.3 46.4003V40.8403C421.3 40.1112 420.709 39.5203 419.98 39.5203Z" fill="#08416D" fill-opacity="0.1"/>
<path d="M410.65 29.3401H382.73C382.001 29.3401 381.41 29.9311 381.41 30.6601V36.2201C381.41 36.9491 382.001 37.5401 382.73 37.5401H410.65C411.379 37.5401 411.97 36.9491 411.97 36.2201V30.6601C411.97 29.9311 411.379 29.3401 410.65 29.3401Z" fill="#08416D" fill-opacity="0.1"/>
<path d="M442.631 29.3401H414.711C413.982 29.3401 413.391 29.9311 413.391 30.6601V36.2201C413.391 36.9491 413.982 37.5401 414.711 37.5401H442.631C443.36 37.5401 443.951 36.9491 443.951 36.2201V30.6601C443.951 29.9311 443.36 29.3401 442.631 29.3401Z" fill="#A1D0D4"/>
<path d="M218.93 268.25H410.98V262.73H218.93V268.25Z" fill="#08416D" fill-opacity="0.1"/>
<path d="M409.55 268.25H452.57V262.73H409.55V268.25Z" fill="#08416D"/>
<path d="M238.89 281.67V268.25H229.94L238.89 281.67Z" fill="#08416D"/>
<path d="M234.42 281.67L225.47 268.25H229.94L238.89 281.67H234.42Z" fill="#08416D"/>
<path d="M445.56 281.67V268.25H436.61L445.56 281.67Z" fill="#08416D"/>
<path d="M441.081 281.67L432.141 268.25H436.611L445.561 281.67H441.081Z" fill="#08416D"/>
<path d="M421.83 263.48H426.89C427.429 263.48 427.962 263.372 428.458 263.161C428.954 262.95 429.403 262.641 429.776 262.252C430.15 261.864 430.441 261.404 430.633 260.9C430.824 260.396 430.911 259.858 430.89 259.32L430.25 240.26H418.45L417.81 259.32C417.788 259.86 417.876 260.399 418.069 260.904C418.261 261.41 418.554 261.871 418.93 262.259C419.306 262.648 419.757 262.957 420.255 263.167C420.753 263.376 421.289 263.483 421.83 263.48Z" fill="#A1D0D4"/>
<path d="M400.373 251.409C404.754 247.027 404.754 239.923 400.373 235.541C395.991 231.16 388.887 231.16 384.505 235.541C380.123 239.923 380.123 247.027 384.505 251.409C388.887 255.791 395.991 255.791 400.373 251.409Z" fill="#A1D0D4"/>
<path d="M391.659 263.31H393.219V255.88H392.439C390.782 255.927 389.132 255.641 387.587 255.04C386.042 254.438 384.634 253.532 383.445 252.377C382.256 251.221 381.311 249.839 380.665 248.312C380.02 246.784 379.687 245.143 379.687 243.485C379.687 241.827 380.02 240.186 380.665 238.659C381.311 237.131 382.256 235.749 383.445 234.593C384.634 233.438 386.042 232.532 387.587 231.93C389.132 231.329 390.782 231.043 392.439 231.09V229.52C388.924 229.702 385.607 231.202 383.148 233.721C380.689 236.239 379.269 239.591 379.171 243.11C379.072 246.628 380.303 250.055 382.617 252.707C384.932 255.359 388.16 257.041 391.659 257.42V263.31Z" fill="#08416D"/>
<path d="M385.85 263.48H399.19C399.19 262.684 398.874 261.921 398.311 261.359C397.749 260.796 396.986 260.48 396.19 260.48H388.83C388.034 260.48 387.271 260.796 386.709 261.359C386.146 261.921 385.83 262.684 385.83 263.48H385.85Z" fill="#08416D"/>
<path d="M422.59 263.48L412.05 252.94L401.5 263.48H422.59Z" fill="#08416D" fill-opacity="0.1"/>
<path d="M412.05 252.94L422.59 263.48H412.05V252.94Z" fill="#08416D"/>
<path d="M338.56 249.69C338.61 250.69 338.64 251.49 338.64 252.02C338.641 254.202 338.165 256.358 337.246 258.337C336.327 260.317 334.987 262.072 333.32 263.48H314.79C313.129 262.074 311.794 260.323 310.877 258.35C309.96 256.376 309.483 254.226 309.48 252.05C309.48 251.52 309.48 250.72 309.56 249.72L338.56 249.69Z" fill="#08416D" fill-opacity="0.1"/>
<path d="M336 257.9C336 258.963 336.231 260.012 336.678 260.976C337.126 261.94 337.778 262.794 338.59 263.48H347.59C348.624 262.599 349.396 261.451 349.82 260.16C349.998 260.192 350.179 260.209 350.36 260.21C352.17 260.21 354.19 258.77 354.19 256.85C354.19 254.93 353.03 253.49 351.3 253.49C350.899 253.494 350.502 253.558 350.12 253.68V253.55C350.115 253.085 349.926 252.641 349.594 252.315C349.262 251.989 348.815 251.807 348.35 251.81H337.8C337.567 251.805 337.336 251.846 337.119 251.93C336.902 252.015 336.704 252.142 336.537 252.304C336.369 252.466 336.236 252.659 336.143 252.873C336.051 253.087 336.003 253.317 336 253.55C336 255.56 336 257.2 336 257.9ZM350.1 259.07C350.172 258.684 350.209 258.293 350.21 257.9C350.21 257.36 350.21 256.27 350.21 254.9C350.574 254.73 350.969 254.638 351.37 254.63C353.01 254.63 353.14 256.34 353.14 256.87C353.14 258.11 351.66 259.11 350.43 259.11L350.1 259.07Z" fill="#08416D"/>
<path d="M252.44 263.48L253.91 246.59H232.5L231.02 263.48H252.44Z" fill="#A1D0D4"/>
<path d="M252.44 263.48L253.91 246.59H255.07L253.59 263.48H252.44Z" fill="#08416D"/>
<path d="M250.4 261.76L251.58 248.31H234.53L233.35 261.76H250.4Z" fill="#08416D"/>
<path d="M249.1 260.65L250.08 249.42H235.84L234.85 260.65H249.1Z" fill="#08416D"/>
<path d="M276.58 263.48H255.07L257.45 236.19H278.97L276.58 263.48Z" fill="#A1D0D4"/>
<path d="M276.58 263.48H277.61L280 236.19H278.97L276.58 263.48Z" fill="#08416D"/>
<path d="M274.63 260.7H257.5L259.4 238.98H276.53L274.63 260.7Z" fill="#08416D"/>
<path d="M273.38 258.91H259.07L260.66 240.76H274.97L273.38 258.91Z" fill="#08416D"/>
<path d="M263.047 250.599L264.455 252.006C265.696 253.248 267.71 253.248 268.952 252.006L270.359 250.599C271.601 249.357 271.601 247.344 270.359 246.102L268.952 244.695C267.71 243.453 265.696 243.453 264.455 244.695L263.047 246.102C261.806 247.344 261.806 249.357 263.047 250.599Z" fill="#08416D"/>
<path d="M262.356 255.829L263.049 256.522C264.291 257.764 266.305 257.764 267.546 256.522L268.239 255.829C269.481 254.588 269.481 252.574 268.239 251.332L267.546 250.639C266.305 249.397 264.291 249.397 263.049 250.639L262.356 251.332C261.114 252.574 261.114 254.588 262.356 255.829Z" fill="#08416D"/>
<path d="M69.39 68.78H99.95C100.679 68.78 101.27 68.189 101.27 67.46V61.19C101.27 60.461 100.679 59.87 99.95 59.87H69.39C68.661 59.87 68.07 60.461 68.07 61.19V67.46C68.07 68.189 68.661 68.78 69.39 68.78Z" fill="#08416D" fill-opacity="0.1"/>
<path d="M84.89 57.74L115.45 57.74C116.179 57.74 116.77 57.149 116.77 56.42V50.15C116.77 49.421 116.179 48.83 115.45 48.83H84.89C84.161 48.83 83.57 49.421 83.57 50.15V56.42C83.57 57.149 84.161 57.74 84.89 57.74Z" fill="#08416D" fill-opacity="0.1"/>
<path d="M50.1503 57.74L80.7103 57.74C81.4393 57.74 82.0303 57.149 82.0303 56.42V50.15C82.0303 49.421 81.4393 48.83 80.7103 48.83H50.1503C49.4213 48.83 48.8303 49.421 48.8303 50.15V56.42C48.8303 57.149 49.4213 57.74 50.1503 57.74Z" fill="#A1D0D4"/>
<path d="M250 368.76C357.082 368.76 443.89 363.692 443.89 357.44C443.89 351.188 357.082 346.12 250 346.12C142.917 346.12 56.1099 351.188 56.1099 357.44C56.1099 363.692 142.917 368.76 250 368.76Z" fill="#08416D" fill-opacity="0.1"/>
<path d="M392.74 26.54H334.24C323.951 26.54 315.61 34.881 315.61 45.17V203.95C315.61 214.239 323.951 222.58 334.24 222.58H392.74C403.029 222.58 411.37 214.239 411.37 203.95V45.17C411.37 34.881 403.029 26.54 392.74 26.54Z" fill="#22919B"/>
<path opacity="0.3" d="M392.95 26.54H334.03C323.857 26.54 315.61 34.787 315.61 44.96V204.16C315.61 214.333 323.857 222.58 334.03 222.58H392.95C403.123 222.58 411.37 214.333 411.37 204.16V44.96C411.37 34.787 403.123 26.54 392.95 26.54Z" fill="black"/>
<path d="M411.37 36.16V75.05H315.61V36.16C315.61 33.6087 316.624 31.1618 318.428 29.3577C320.232 27.5536 322.679 26.54 325.23 26.54H401.75C404.302 26.54 406.749 27.5536 408.553 29.3577C410.357 31.1618 411.37 33.6087 411.37 36.16Z" fill="#22919B"/>
<path d="M342.7 47.4698C342.7 49.3898 341.28 50.5698 338.99 50.5698H336.99V53.0499H335.37V44.3499H339C341.28 44.3799 342.7 45.5498 342.7 47.4698ZM341.07 47.4698C341.07 46.3798 340.34 45.7399 338.92 45.7399H337V49.1999H338.89C340.34 49.1999 341.07 48.5698 341.07 47.4698Z" fill="white"/>
<path d="M348 46.37V47.85C347.881 47.8369 347.76 47.8369 347.64 47.85C347.376 47.8309 347.11 47.8701 346.863 47.9649C346.615 48.0597 346.391 48.2077 346.207 48.3984C346.023 48.5892 345.883 48.8181 345.797 49.069C345.711 49.3198 345.682 49.5864 345.71 49.85V53.05H344.16V46.41H345.64V47.41C345.908 47.0456 346.267 46.7579 346.681 46.5754C347.096 46.3929 347.55 46.3221 348 46.37V46.37Z" fill="white"/>
<path d="M355.42 50.26H350.21C350.309 50.7437 350.583 51.1736 350.98 51.4672C351.377 51.7607 351.868 51.8971 352.36 51.85C352.695 51.862 353.029 51.8041 353.34 51.6802C353.652 51.5562 353.934 51.3689 354.17 51.13L355 52.13C354.496 52.6286 353.861 52.9733 353.168 53.1238C352.476 53.2744 351.755 53.2245 351.089 52.98C350.424 52.7355 349.842 52.3066 349.412 51.7434C348.982 51.1802 348.721 50.5061 348.66 49.8C348.646 49.3476 348.725 48.8971 348.893 48.4768C349.061 48.0564 349.314 47.6752 349.635 47.357C349.957 47.0388 350.342 46.7905 350.764 46.6275C351.186 46.4646 351.638 46.3905 352.09 46.41C352.542 46.3925 352.992 46.4697 353.413 46.6369C353.833 46.804 354.214 47.0572 354.53 47.3803C354.847 47.7034 355.092 48.0892 355.25 48.5128C355.409 48.9364 355.477 49.3885 355.45 49.84C355.45 49.92 355.43 50.11 355.42 50.26ZM350.2 49.26H354C353.952 48.8013 353.731 48.3782 353.381 48.0771C353.032 47.776 352.581 47.6197 352.12 47.64C351.659 47.6158 351.205 47.7658 350.85 48.0603C350.494 48.3549 350.262 48.7724 350.2 49.23V49.26Z" fill="white"/>
<path d="M368.05 49.28V53.05H366.49V49.44C366.49 48.26 365.94 47.69 365 47.69C364.06 47.69 363.27 48.36 363.27 49.69V53.05H361.72V49.44C361.72 48.26 361.17 47.69 360.22 47.69C359.27 47.69 358.49 48.36 358.49 49.69V53.05H356.94V46.41H358.42V47.26C358.692 46.9541 359.029 46.7127 359.406 46.5536C359.784 46.3944 360.191 46.3214 360.6 46.34C361.036 46.3108 361.472 46.3972 361.863 46.5903C362.255 46.7835 362.588 47.0766 362.83 47.44C363.135 47.0804 363.518 46.7947 363.949 46.6041C364.38 46.4136 364.849 46.3233 365.32 46.34C366.93 46.37 368.05 47.27 368.05 49.28Z" fill="white"/>
<path d="M369.82 44.41C369.838 44.1571 369.951 43.9203 370.137 43.7477C370.322 43.575 370.567 43.4793 370.82 43.48C370.946 43.4704 371.072 43.4865 371.191 43.527C371.31 43.5676 371.419 43.6319 371.513 43.716C371.606 43.8002 371.682 43.9024 371.735 44.0165C371.787 44.1306 371.817 44.2543 371.82 44.38C371.82 44.6452 371.715 44.8995 371.527 45.0871C371.34 45.2746 371.086 45.38 370.82 45.38C370.555 45.38 370.301 45.2746 370.113 45.0871C369.926 44.8995 369.82 44.6452 369.82 44.38V44.41ZM370.04 46.41H371.59V53.05H370L370.04 46.41Z" fill="white"/>
<path d="M380.06 46.4399V53.0499H378.58V52.2099C378.314 52.5129 377.984 52.7533 377.614 52.9141C377.244 53.0749 376.843 53.152 376.44 53.1399C376.048 53.1773 375.653 53.1262 375.284 52.9905C374.914 52.8548 374.58 52.6378 374.305 52.3557C374.031 52.0735 373.823 51.7333 373.698 51.3602C373.572 50.9871 373.532 50.5906 373.58 50.1999V46.4099H375.13V50.0499C375.13 51.2599 375.71 51.8299 376.69 51.8299C376.948 51.8414 377.205 51.7959 377.442 51.6967C377.68 51.5975 377.893 51.447 378.066 51.2559C378.239 51.0649 378.368 50.838 378.443 50.5915C378.518 50.345 378.537 50.0849 378.5 49.8299V46.4699L380.06 46.4399Z" fill="white"/>
<path d="M393.201 49.28V53.05H391.651V49.44C391.651 48.26 391.101 47.69 390.161 47.69C389.221 47.69 388.431 48.36 388.431 49.69V53.05H386.871V49.44C386.871 48.26 386.331 47.69 385.381 47.69C384.431 47.69 383.651 48.36 383.651 49.69V53.05H382.101V46.41H383.581V47.26C383.853 46.9541 384.189 46.7127 384.567 46.5536C384.944 46.3944 385.352 46.3214 385.761 46.34C386.196 46.3108 386.632 46.3972 387.023 46.5903C387.415 46.7835 387.749 47.0766 387.991 47.44C388.296 47.0804 388.678 46.7947 389.109 46.6041C389.541 46.4136 390.009 46.3233 390.481 46.34C392.091 46.37 393.201 47.27 393.201 49.28Z" fill="white"/>
<path d="M383.48 191.73H343.5C338.066 191.73 333.66 196.136 333.66 201.57V202.32C333.66 207.754 338.066 212.16 343.5 212.16H383.48C388.915 212.16 393.32 207.754 393.32 202.32V201.57C393.32 196.136 388.915 191.73 383.48 191.73Z" fill="#22919B"/>
<path d="M348 203.52C348 205.38 346.51 206.62 344.18 206.81L343.87 208.35H342.47L342.78 206.81C341.635 206.74 340.529 206.371 339.57 205.74L340.5 204.01C341.279 204.567 342.188 204.912 343.14 205.01L343.62 202.65C342.32 202.26 340.89 201.74 340.89 200.05C340.89 198.19 342.42 196.93 344.79 196.77L345.1 195.23H346.5L346.19 196.78C347.096 196.851 347.974 197.125 348.76 197.58L347.91 199.31C347.285 198.904 346.572 198.654 345.83 198.58L345.34 201.04C346.63 201.41 348 201.91 348 203.52ZM344 200.64L344.4 198.64C343.61 198.79 343.16 199.22 343.15 199.76C343.14 200.3 343.52 200.43 344 200.64V200.64ZM345.73 203.88C345.73 203.48 345.41 203.22 344.92 203.04L344.54 204.96C345.32 204.8 345.75 204.41 345.75 203.88H345.73Z" fill="white"/>
<path d="M387.17 149.94H337.74V151.94H387.17V149.94Z" fill="#22919B"/>
<path d="M387.17 117.1H337.74V119.1H387.17V117.1Z" fill="#22919B"/>
<path d="M387.17 85.4399H337.74V87.4399H387.17V85.4399Z" fill="#22919B"/>
<path d="M368.142 108.271C371.5 104.913 371.5 99.4673 368.142 96.1088C364.783 92.7503 359.338 92.7503 355.98 96.1088C352.621 99.4673 352.621 104.913 355.98 108.271C359.338 111.63 364.783 111.63 368.142 108.271Z" fill="#22919B"/>
<path d="M368.21 100.33L363.27 105.27L360.96 107.58L358.65 105.27L360.96 102.97L365.9 98.0203L368.21 100.33Z" fill="white"/>
<path d="M363.271 105.27L360.961 107.58L356.061 102.68L358.371 100.38L360.961 102.97L363.271 105.27Z" fill="white"/>
<path d="M362.06 142.52C366.81 142.52 370.66 138.67 370.66 133.92C370.66 129.17 366.81 125.32 362.06 125.32C357.31 125.32 353.46 129.17 353.46 133.92C353.46 138.67 357.31 142.52 362.06 142.52Z" fill="#22919B"/>
<path d="M368.209 132.06L363.269 137.01L360.959 139.32L358.649 137.01L360.959 134.7L365.899 129.75L368.209 132.06Z" fill="white"/>
<path d="M363.27 137.01L360.96 139.32L356.06 134.42L358.37 132.11L360.96 134.7L363.27 137.01Z" fill="white"/>
<path d="M362.06 176.55C366.81 176.55 370.66 172.7 370.66 167.95C370.66 163.2 366.81 159.35 362.06 159.35C357.31 159.35 353.46 163.2 353.46 167.95C353.46 172.7 357.31 176.55 362.06 176.55Z" fill="#22919B"/>
<path d="M368.209 166.09L363.269 171.03L360.959 173.34L358.649 171.03L360.959 168.73L365.899 163.78L368.209 166.09Z" fill="white"/>
<path d="M363.27 171.03L360.96 173.34L356.06 168.44L358.37 166.14L360.96 168.73L363.27 171.03Z" fill="white"/>
<path d="M350.79 61.26L352.4 63.84L355.34 64.57L353.39 66.89L353.6 69.92L350.79 68.79L347.97 69.92L348.18 66.89L346.23 64.57L349.18 63.84L350.79 61.26Z" fill="white"/>
<path d="M362.061 61.26L363.671 63.84L366.621 64.57L364.671 66.89L364.881 69.92L362.061 68.79L359.251 69.92L359.461 66.89L357.511 64.57L360.451 63.84L362.061 61.26Z" fill="white"/>
<path d="M373.34 61.26L374.94 63.84L377.89 64.57L375.94 66.89L376.15 69.92L373.34 68.79L370.52 69.92L370.73 66.89L368.78 64.57L371.73 63.84L373.34 61.26Z" fill="white"/>
<path d="M280.23 15.3801H221.73C211.441 15.3801 203.1 23.7211 203.1 34.0101V192.79C203.1 203.079 211.441 211.42 221.73 211.42H280.23C290.519 211.42 298.86 203.079 298.86 192.79V34.0101C298.86 23.7211 290.519 15.3801 280.23 15.3801Z" fill="#22919B"/>
<path opacity="0.5" d="M279.61 15.3801H222.35C217.245 15.3801 212.348 17.4082 208.738 21.0183C205.128 24.6284 203.1 29.5247 203.1 34.6301V192.17C203.1 194.699 203.598 197.203 204.566 199.539C205.534 201.875 206.953 203.998 208.742 205.785C210.53 207.573 212.654 208.991 214.99 209.958C217.327 210.925 219.831 211.421 222.36 211.42H279.61C282.139 211.421 284.643 210.925 286.98 209.958C289.316 208.991 291.44 207.573 293.228 205.785C295.017 203.998 296.436 201.875 297.404 199.539C298.372 197.203 298.87 194.699 298.87 192.17V34.6301C298.87 32.1013 298.372 29.5973 297.404 27.2612C296.436 24.925 295.017 22.8024 293.228 21.0148C291.44 19.2271 289.316 17.8094 286.98 16.8426C284.643 15.8758 282.139 15.3788 279.61 15.3801V15.3801Z" fill="white"/>
<path d="M298.87 25.0502V63.9302H203.1V25.0502C203.1 22.4988 204.114 20.0519 205.918 18.2478C207.722 16.4437 210.169 15.4302 212.72 15.4302H289.24C291.792 15.4302 294.24 16.4434 296.046 18.2472C297.852 20.051 298.867 22.4979 298.87 25.0502Z" fill="#22919B"/>
<path d="M222.85 41.0501L223.41 39.8001C224.233 40.4361 225.24 40.7871 226.28 40.8001C227.63 40.8001 228.21 40.3201 228.21 39.6701C228.21 37.8001 223.03 39.0301 223.03 35.7901C223.03 34.3901 224.15 33.1901 226.54 33.1901C227.559 33.1782 228.561 33.4444 229.44 33.9601L228.93 35.2201C228.203 34.788 227.376 34.5536 226.53 34.5401C225.18 34.5401 224.64 35.0601 224.64 35.7201C224.64 37.5701 229.8 36.3601 229.8 39.5601C229.8 40.9501 228.67 42.1501 226.28 42.1501C225.047 42.1712 223.841 41.7845 222.85 41.0501Z" fill="white"/>
<path d="M235.25 41.5601C234.812 41.8688 234.286 42.0267 233.75 42.0101C233.443 42.0579 233.129 42.0334 232.833 41.9385C232.536 41.8436 232.266 41.681 232.044 41.4636C231.822 41.2461 231.653 40.9798 231.552 40.6859C231.451 40.3919 231.419 40.0783 231.46 39.7701V36.5801H230.37V35.3301H231.46V33.8101H233V35.3301H234.78V36.5801H233V39.7301C233 40.3801 233.32 40.7301 233.92 40.7301C234.232 40.7359 234.537 40.6412 234.79 40.4601L235.25 41.5601Z" fill="white"/>
<path d="M242.09 38.0501V41.9401H240.62V41.1301C240.377 41.4448 240.057 41.6925 239.691 41.85C239.326 42.0074 238.926 42.0694 238.53 42.0301C237.01 42.0301 236.05 41.2001 236.05 40.0301C236.05 38.8601 236.8 38.0301 238.81 38.0301H240.53V37.9301C240.53 37.0301 239.98 36.4901 238.88 36.4901C238.159 36.4858 237.457 36.7176 236.88 37.1501L236.25 36.0501C237.074 35.4814 238.06 35.1938 239.06 35.2301C241 35.2101 242.09 36.1201 242.09 38.0501ZM240.53 39.8701V39.0501H238.93C237.87 39.0501 237.58 39.4401 237.58 39.9301C237.58 40.4201 238.06 40.8501 238.85 40.8501C239.199 40.8766 239.548 40.7948 239.848 40.6158C240.149 40.4368 240.387 40.1694 240.53 39.8501V39.8701Z" fill="white"/>
<path d="M250.62 38.1203V41.9203H249.06V38.3203C249.06 37.1403 248.48 36.5603 247.48 36.5603C247.22 36.5463 246.961 36.5897 246.72 36.6874C246.479 36.7852 246.262 36.9349 246.085 37.1258C245.909 37.3168 245.776 37.5443 245.698 37.7923C245.619 38.0402 245.596 38.3024 245.63 38.5603V41.9103H244.08V35.2803H245.56V36.1403C245.847 35.8258 246.201 35.5792 246.595 35.4184C246.99 35.2575 247.415 35.1864 247.84 35.2103C248.224 35.1808 248.61 35.2369 248.969 35.3746C249.329 35.5123 249.654 35.7282 249.92 36.0066C250.186 36.2851 250.386 36.6191 250.508 36.9847C250.629 37.3502 250.667 37.7381 250.62 38.1203V38.1203Z" fill="white"/>
<path d="M259.16 32.7002V41.9202H257.67V41.0502C257.399 41.363 257.059 41.6102 256.678 41.773C256.297 41.9358 255.884 42.0101 255.47 41.9902C254.569 41.9902 253.704 41.632 253.066 40.9943C252.429 40.3567 252.07 39.4919 252.07 38.5902C252.07 37.6884 252.429 36.8236 253.066 36.186C253.704 35.5484 254.569 35.1902 255.47 35.1902C255.871 35.1718 256.27 35.242 256.64 35.3958C257.01 35.5497 257.341 35.7834 257.61 36.0802V32.6802L259.16 32.7002ZM257.63 38.6002C257.615 38.2084 257.484 37.8299 257.255 37.5117C257.026 37.1935 256.708 36.9496 256.342 36.8104C255.975 36.6712 255.576 36.6429 255.193 36.7288C254.811 36.8148 254.462 37.0113 254.19 37.294C253.918 37.5766 253.736 37.9329 253.665 38.3185C253.594 38.7041 253.638 39.1021 253.791 39.4629C253.945 39.8237 254.201 40.1315 254.528 40.3479C254.855 40.5643 255.238 40.6799 255.63 40.6802C255.902 40.6893 256.173 40.6411 256.425 40.5387C256.677 40.4364 256.905 40.2821 257.094 40.0859C257.282 39.8897 257.428 39.6561 257.52 39.4001C257.613 39.1441 257.65 38.8716 257.63 38.6002Z" fill="white"/>
<path d="M266.76 38.0501V41.9401H265.29V41.1301C265.048 41.4463 264.728 41.695 264.362 41.8526C263.996 42.0102 263.596 42.0713 263.2 42.0301C261.69 42.0301 260.73 41.2001 260.73 40.0301C260.73 38.8601 261.47 38.0301 263.49 38.0301H265.21V37.9301C265.21 37.0301 264.66 36.4901 263.55 36.4901C262.829 36.4835 262.126 36.7156 261.55 37.1501L260.93 36.0501C261.754 35.4814 262.739 35.1938 263.74 35.2301C265.65 35.2101 266.76 36.1201 266.76 38.0501ZM265.21 39.8701V39.0501H263.6C262.54 39.0501 262.26 39.4401 262.26 39.9301C262.26 40.4201 262.73 40.8501 263.53 40.8501C263.879 40.8766 264.227 40.7948 264.528 40.6158C264.829 40.4368 265.067 40.1694 265.21 39.8501V39.8701Z" fill="white"/>
<path d="M272.59 35.2102V36.6902C272.47 36.6766 272.35 36.6766 272.23 36.6902C271.961 36.6698 271.691 36.7099 271.439 36.8075C271.187 36.9051 270.96 37.0578 270.775 37.2543C270.59 37.4509 270.452 37.6863 270.369 37.9434C270.287 38.2005 270.263 38.4728 270.3 38.7402V41.9602H268.75V35.2802H270.23V36.2802C270.498 35.9133 270.856 35.6219 271.269 35.4344C271.683 35.2469 272.138 35.1697 272.59 35.2102V35.2102Z" fill="white"/>
<path d="M280.35 32.7002V41.9202H278.86V41.0502C278.588 41.363 278.249 41.6102 277.868 41.773C277.487 41.9358 277.074 42.0101 276.66 41.9902C275.758 41.9902 274.893 41.632 274.256 40.9943C273.618 40.3567 273.26 39.4919 273.26 38.5902C273.26 37.6884 273.618 36.8236 274.256 36.186C274.893 35.5484 275.758 35.1902 276.66 35.1902C277.06 35.1711 277.46 35.241 277.83 35.3949C278.2 35.5488 278.531 35.7828 278.8 36.0802V32.6802L280.35 32.7002ZM278.82 38.6002C278.804 38.2084 278.674 37.8299 278.444 37.5117C278.215 37.1935 277.898 36.9496 277.531 36.8104C277.165 36.6712 276.765 36.6429 276.383 36.7288C276 36.8148 275.651 37.0113 275.38 37.294C275.108 37.5766 274.925 37.9329 274.854 38.3185C274.783 38.7041 274.827 39.1021 274.981 39.4629C275.134 39.8237 275.39 40.1315 275.717 40.3479C276.044 40.5643 276.428 40.6799 276.82 40.6802C277.092 40.6909 277.364 40.6438 277.617 40.542C277.87 40.4401 278.098 40.2859 278.287 40.0894C278.476 39.8929 278.621 39.6585 278.713 39.4019C278.805 39.1452 278.841 38.872 278.82 38.6002V38.6002Z" fill="white"/>
<path d="M271.78 180.58H231.8C226.365 180.58 221.96 184.986 221.96 190.42V191.17C221.96 196.605 226.365 201.01 231.8 201.01H271.78C277.214 201.01 281.62 196.605 281.62 191.17V190.42C281.62 184.986 277.214 180.58 271.78 180.58Z" fill="#22919B"/>
<path d="M275.48 138.78H226.05V140.78H275.48V138.78Z" fill="#22919B"/>
<path d="M275.48 105.94H226.05V107.94H275.48V105.94Z" fill="#22919B"/>
<path d="M275.48 74.28H226.05V76.28H275.48V74.28Z" fill="#22919B"/>
<path d="M258.378 124.735C259.469 120.112 256.606 115.481 251.983 114.39C247.361 113.298 242.729 116.161 241.638 120.784C240.547 125.407 243.41 130.039 248.032 131.13C252.655 132.221 257.287 129.358 258.378 124.735Z" fill="#22919B"/>
<path d="M256.17 120.9L251.22 125.85L248.91 128.16L246.6 125.85L248.91 123.54L253.86 118.59L256.17 120.9Z" fill="white"/>
<path d="M251.22 125.85L248.91 128.16L244.02 123.26L246.32 120.95L248.91 123.54L251.22 125.85Z" fill="white"/>
<path d="M254.052 164.736C258.441 162.918 260.524 157.888 258.707 153.499C256.889 149.111 251.858 147.028 247.47 148.845C243.082 150.663 240.998 155.693 242.816 160.082C244.634 164.47 249.664 166.553 254.052 164.736Z" fill="#22919B"/>
<path d="M256.92 154.93L251.97 159.88L249.66 162.19L247.35 159.88L249.66 157.57L254.61 152.62L256.92 154.93Z" fill="white"/>
<path d="M251.97 159.88L249.66 162.19L244.77 157.29L247.07 154.98L249.66 157.57L251.97 159.88Z" fill="white"/>
<path d="M250.01 99.6201C254.71 99.6201 258.52 95.81 258.52 91.1101C258.52 86.4102 254.71 82.6001 250.01 82.6001C245.31 82.6001 241.5 86.4102 241.5 91.1101C241.5 95.81 245.31 99.6201 250.01 99.6201Z" fill="#263238"/>
<path opacity="0.5" d="M250.01 99.6201C254.71 99.6201 258.52 95.81 258.52 91.1101C258.52 86.4102 254.71 82.6001 250.01 82.6001C245.31 82.6001 241.5 86.4102 241.5 91.1101C241.5 95.81 245.31 99.6201 250.01 99.6201Z" fill="white"/>
<path d="M252.535 86.3082L245.203 93.6409L247.487 95.9248L254.819 88.5921L252.535 86.3082Z" fill="white"/>
<path d="M245.208 88.595L252.541 95.9277L254.824 93.6438L247.492 86.3111L245.208 88.595Z" fill="white"/>
<path d="M289.3 26.1401V48.9601L294.12 44.1401V26.1401H289.3Z" fill="#22919B"/>
<path d="M298.93 26.1401V48.9601L294.12 44.1401V26.1401H298.93Z" fill="#22919B"/>
<g opacity="0.3">
<path d="M298.94 26.1301V48.9701L294.12 44.1401L289.3 48.9701V26.1301H298.94Z" fill="black"/>
</g>
<path d="M296.47 3.32004C296.798 3.94626 297.359 4.41916 298.032 4.63776C298.704 4.85636 299.436 4.80335 300.07 4.49004V4.49004C300.515 4.27245 301.012 4.18043 301.506 4.22385C302 4.26728 302.473 4.44451 302.874 4.7365C303.275 5.0285 303.589 5.42423 303.782 5.88117C303.975 6.33812 304.04 6.83901 303.97 7.33004V7.33004C303.876 8.03024 304.055 8.73968 304.47 9.31126C304.886 9.88283 305.505 10.2727 306.2 10.4V10.4C306.689 10.4835 307.145 10.699 307.521 11.0232C307.896 11.3475 308.175 11.7682 308.329 12.2398C308.482 12.7114 308.504 13.216 308.391 13.699C308.278 14.1819 308.036 14.6249 307.69 14.98V14.98C307.199 15.4889 306.925 16.1682 306.925 16.875C306.925 17.5819 307.199 18.2612 307.69 18.77V18.77C308.035 19.1263 308.277 19.5699 308.389 20.0534C308.502 20.5368 308.48 21.0416 308.327 21.5136C308.173 21.9857 307.894 22.407 307.52 22.7323C307.145 23.0576 306.689 23.2747 306.2 23.36V23.36C305.509 23.4918 304.896 23.884 304.486 24.4554C304.077 25.0268 303.903 25.7338 304 26.43V26.43C304.068 26.9203 304.001 27.4199 303.808 27.8753C303.614 28.3307 303.3 28.7248 302.899 29.0155C302.498 29.3062 302.026 29.4825 301.533 29.5256C301.04 29.5687 300.545 29.4769 300.1 29.26V29.26C299.465 28.9519 298.735 28.9017 298.064 29.1198C297.393 29.3379 296.832 29.8075 296.5 30.43V30.43C296.267 30.8672 295.92 31.2329 295.495 31.4879C295.071 31.7428 294.585 31.8775 294.09 31.8775C293.594 31.8775 293.109 31.7428 292.684 31.4879C292.26 31.2329 291.912 30.8672 291.68 30.43C291.343 29.7906 290.768 29.3094 290.08 29.0905C289.391 28.8715 288.644 28.9325 288 29.26C287.555 29.4769 287.059 29.5687 286.566 29.5256C286.073 29.4825 285.601 29.3062 285.2 29.0155C284.8 28.7248 284.486 28.3307 284.292 27.8753C284.098 27.4199 284.032 26.9203 284.1 26.43V26.43C284.199 25.729 284.021 25.0171 283.605 24.4443C283.189 23.8715 282.567 23.4828 281.87 23.36V23.36C281.381 23.2747 280.924 23.0576 280.55 22.7323C280.175 22.407 279.896 21.9857 279.743 21.5136C279.59 21.0416 279.568 20.5368 279.68 20.0534C279.792 19.5699 280.034 19.1263 280.38 18.77V18.77C280.87 18.2612 281.145 17.5819 281.145 16.875C281.145 16.1682 280.87 15.4889 280.38 14.98C280.037 14.6235 279.797 14.1806 279.687 13.6986C279.576 13.2166 279.599 12.7136 279.752 12.2433C279.905 11.773 280.182 11.3531 280.555 11.0285C280.929 10.7038 281.383 10.4866 281.87 10.4V10.4C282.566 10.275 283.187 9.88568 283.602 9.31351C284.018 8.74135 284.196 8.03064 284.1 7.33004C284.029 6.83901 284.094 6.33812 284.287 5.88117C284.48 5.42423 284.794 5.0285 285.195 4.7365C285.596 4.44451 286.069 4.26728 286.563 4.22385C287.057 4.18043 287.554 4.27245 288 4.49004V4.49004C288.636 4.80122 289.368 4.85314 290.041 4.63485C290.715 4.41656 291.277 3.94512 291.61 3.32004V3.32004C291.839 2.87271 292.187 2.49728 292.616 2.23512C293.044 1.97295 293.537 1.83423 294.04 1.83423C294.542 1.83423 295.035 1.97295 295.464 2.23512C295.893 2.49728 296.241 2.87271 296.47 3.32004Z" fill="#22919B"/>
<path d="M296.47 3.32004C296.798 3.94626 297.359 4.41916 298.032 4.63776C298.704 4.85636 299.436 4.80335 300.07 4.49004V4.49004C300.515 4.27245 301.012 4.18043 301.506 4.22385C302 4.26728 302.473 4.44451 302.874 4.7365C303.275 5.0285 303.589 5.42423 303.782 5.88117C303.975 6.33812 304.04 6.83901 303.97 7.33004V7.33004C303.876 8.03024 304.055 8.73968 304.47 9.31126C304.886 9.88283 305.505 10.2727 306.2 10.4V10.4C306.689 10.4835 307.145 10.699 307.521 11.0232C307.896 11.3475 308.175 11.7682 308.329 12.2398C308.482 12.7114 308.504 13.216 308.391 13.699C308.278 14.1819 308.036 14.6249 307.69 14.98V14.98C307.199 15.4889 306.925 16.1682 306.925 16.875C306.925 17.5819 307.199 18.2612 307.69 18.77V18.77C308.035 19.1263 308.277 19.5699 308.389 20.0534C308.502 20.5368 308.48 21.0416 308.327 21.5136C308.173 21.9857 307.894 22.407 307.52 22.7323C307.145 23.0576 306.689 23.2747 306.2 23.36V23.36C305.509 23.4918 304.896 23.884 304.486 24.4554C304.077 25.0268 303.903 25.7338 304 26.43V26.43C304.068 26.9203 304.001 27.4199 303.808 27.8753C303.614 28.3307 303.3 28.7248 302.899 29.0155C302.498 29.3062 302.026 29.4825 301.533 29.5256C301.04 29.5687 300.545 29.4769 300.1 29.26V29.26C299.465 28.9519 298.735 28.9017 298.064 29.1198C297.393 29.3379 296.832 29.8075 296.5 30.43V30.43C296.267 30.8672 295.92 31.2329 295.495 31.4879C295.071 31.7428 294.585 31.8775 294.09 31.8775C293.594 31.8775 293.109 31.7428 292.684 31.4879C292.26 31.2329 291.912 30.8672 291.68 30.43C291.343 29.7906 290.768 29.3094 290.08 29.0905C289.391 28.8715 288.644 28.9325 288 29.26C287.555 29.4769 287.059 29.5687 286.566 29.5256C286.073 29.4825 285.601 29.3062 285.2 29.0155C284.8 28.7248 284.486 28.3307 284.292 27.8753C284.098 27.4199 284.032 26.9203 284.1 26.43V26.43C284.199 25.729 284.021 25.0171 283.605 24.4443C283.189 23.8715 282.567 23.4828 281.87 23.36V23.36C281.381 23.2747 280.924 23.0576 280.55 22.7323C280.175 22.407 279.896 21.9857 279.743 21.5136C279.59 21.0416 279.568 20.5368 279.68 20.0534C279.792 19.5699 280.034 19.1263 280.38 18.77V18.77C280.87 18.2612 281.145 17.5819 281.145 16.875C281.145 16.1682 280.87 15.4889 280.38 14.98C280.037 14.6235 279.797 14.1806 279.687 13.6986C279.576 13.2166 279.599 12.7136 279.752 12.2433C279.905 11.773 280.182 11.3531 280.555 11.0285C280.929 10.7038 281.383 10.4866 281.87 10.4V10.4C282.566 10.275 283.187 9.88568 283.602 9.31351C284.018 8.74135 284.196 8.03064 284.1 7.33004C284.029 6.83901 284.094 6.33812 284.287 5.88117C284.48 5.42423 284.794 5.0285 285.195 4.7365C285.596 4.44451 286.069 4.26728 286.563 4.22385C287.057 4.18043 287.554 4.27245 288 4.49004V4.49004C288.636 4.80122 289.368 4.85314 290.041 4.63485C290.715 4.41656 291.277 3.94512 291.61 3.32004V3.32004C291.839 2.87271 292.187 2.49728 292.616 2.23512C293.044 1.97295 293.537 1.83423 294.04 1.83423C294.542 1.83423 295.035 1.97295 295.464 2.23512C295.893 2.49728 296.241 2.87271 296.47 3.32004Z" fill="#22919B"/>
<g opacity="0.5">
<path d="M296.47 3.32004C296.798 3.94626 297.359 4.41916 298.032 4.63776C298.704 4.85636 299.436 4.80335 300.07 4.49004V4.49004C300.515 4.27245 301.012 4.18043 301.506 4.22385C302 4.26728 302.473 4.44451 302.874 4.7365C303.275 5.0285 303.589 5.42423 303.782 5.88117C303.975 6.33812 304.04 6.83901 303.97 7.33004V7.33004C303.876 8.03024 304.055 8.73968 304.47 9.31126C304.886 9.88283 305.505 10.2727 306.2 10.4V10.4C306.689 10.4835 307.145 10.699 307.521 11.0232C307.896 11.3475 308.175 11.7682 308.329 12.2398C308.482 12.7114 308.504 13.216 308.391 13.699C308.278 14.1819 308.036 14.6249 307.69 14.98V14.98C307.199 15.4889 306.925 16.1682 306.925 16.875C306.925 17.5819 307.199 18.2612 307.69 18.77V18.77C308.035 19.1263 308.277 19.5699 308.389 20.0534C308.502 20.5368 308.48 21.0416 308.327 21.5136C308.173 21.9857 307.894 22.407 307.52 22.7323C307.145 23.0576 306.689 23.2747 306.2 23.36V23.36C305.509 23.4918 304.896 23.884 304.486 24.4554C304.077 25.0268 303.903 25.7338 304 26.43V26.43C304.068 26.9203 304.001 27.4199 303.808 27.8753C303.614 28.3307 303.3 28.7248 302.899 29.0155C302.498 29.3062 302.026 29.4825 301.533 29.5256C301.04 29.5687 300.545 29.4769 300.1 29.26V29.26C299.465 28.9519 298.735 28.9017 298.064 29.1198C297.393 29.3379 296.832 29.8075 296.5 30.43V30.43C296.267 30.8672 295.92 31.2329 295.495 31.4879C295.071 31.7428 294.585 31.8775 294.09 31.8775C293.594 31.8775 293.109 31.7428 292.684 31.4879C292.26 31.2329 291.912 30.8672 291.68 30.43C291.343 29.7906 290.768 29.3094 290.08 29.0905C289.391 28.8715 288.644 28.9325 288 29.26C287.555 29.4769 287.059 29.5687 286.566 29.5256C286.073 29.4825 285.601 29.3062 285.2 29.0155C284.8 28.7248 284.486 28.3307 284.292 27.8753C284.098 27.4199 284.032 26.9203 284.1 26.43V26.43C284.199 25.729 284.021 25.0171 283.605 24.4443C283.189 23.8715 282.567 23.4828 281.87 23.36V23.36C281.381 23.2747 280.924 23.0576 280.55 22.7323C280.175 22.407 279.896 21.9857 279.743 21.5136C279.59 21.0416 279.568 20.5368 279.68 20.0534C279.792 19.5699 280.034 19.1263 280.38 18.77V18.77C280.87 18.2612 281.145 17.5819 281.145 16.875C281.145 16.1682 280.87 15.4889 280.38 14.98C280.037 14.6235 279.797 14.1806 279.687 13.6986C279.576 13.2166 279.599 12.7136 279.752 12.2433C279.905 11.773 280.182 11.3531 280.555 11.0285C280.929 10.7038 281.383 10.4866 281.87 10.4V10.4C282.566 10.275 283.187 9.88568 283.602 9.31351C284.018 8.74135 284.196 8.03064 284.1 7.33004C284.029 6.83901 284.094 6.33812 284.287 5.88117C284.48 5.42423 284.794 5.0285 285.195 4.7365C285.596 4.44451 286.069 4.26728 286.563 4.22385C287.057 4.18043 287.554 4.27245 288 4.49004V4.49004C288.636 4.80122 289.368 4.85314 290.041 4.63485C290.715 4.41656 291.277 3.94512 291.61 3.32004V3.32004C291.839 2.87271 292.187 2.49728 292.616 2.23512C293.044 1.97295 293.537 1.83423 294.04 1.83423C294.542 1.83423 295.035 1.97295 295.464 2.23512C295.893 2.49728 296.241 2.87271 296.47 3.32004Z" fill="white"/>
</g>
<path d="M289.73 14.05H288.49C288.214 14.0509 287.949 14.1534 287.744 14.3379C287.539 14.5224 287.409 14.776 287.38 15.05L287.08 20.7701C287.072 20.9063 287.092 21.0428 287.138 21.1712C287.185 21.2995 287.257 21.417 287.351 21.5163C287.444 21.6156 287.557 21.6947 287.683 21.7486C287.808 21.8026 287.943 21.8303 288.08 21.83H289.32C289.604 21.8256 289.877 21.7139 290.083 21.5174C290.288 21.3209 290.412 21.054 290.43 20.7701L290.73 15.05C290.73 14.7848 290.625 14.5305 290.437 14.3429C290.25 14.1554 289.995 14.05 289.73 14.05Z" fill="white"/>
<path d="M299.619 14.0499H296.709L297.519 12.1399C297.611 11.94 297.646 11.7184 297.619 11.4999L297.449 9.99994C297.418 9.70909 297.279 9.44021 297.062 9.24467C296.844 9.04914 296.562 8.94065 296.269 8.93994H294.819C294.73 10.4385 294.182 11.8734 293.249 13.0499L292.359 14.1699C292.131 14.4562 291.995 14.8048 291.969 15.1699L291.689 20.5099C291.68 20.6786 291.705 20.8474 291.763 21.006C291.821 21.1646 291.911 21.3097 292.027 21.4324C292.143 21.555 292.283 21.6527 292.438 21.7193C292.593 21.786 292.761 21.8202 292.929 21.8199H297.999C298.224 21.8175 298.446 21.7682 298.651 21.6753C298.856 21.5823 299.039 21.4477 299.189 21.2799L299.659 20.7599C299.824 20.5513 299.94 20.3088 299.999 20.0499L300.999 15.7399C301.043 15.5422 301.044 15.3374 301.003 15.1392C300.962 14.9409 300.879 14.7537 300.759 14.5899V14.5899C300.624 14.4176 300.451 14.2791 300.253 14.1853C300.055 14.0916 299.838 14.0453 299.619 14.0499V14.0499Z" fill="white"/>
<path d="M250.01 48.96L251.62 51.53L254.57 52.27L252.62 54.59L252.83 57.62L250.01 56.48L247.2 57.62L247.41 54.59L245.46 52.27L248.41 51.53L250.01 48.96Z" fill="white"/>
<path d="M236.62 192.39C236.62 194.25 235.13 195.49 232.8 195.69L232.49 197.22H231.09L231.4 195.69C230.255 195.612 229.149 195.24 228.19 194.61L229.12 192.88C229.898 193.437 230.808 193.782 231.76 193.88L232.24 191.52C230.94 191.13 229.51 190.61 229.51 188.92C229.51 187.06 231.04 185.81 233.41 185.64L233.72 184.1H235.12L234.81 185.65C235.716 185.721 236.594 185.995 237.38 186.45L236.53 188.18C235.901 187.776 235.184 187.529 234.44 187.46L233.96 189.91C235.24 190.28 236.62 190.78 236.62 192.39ZM232.62 189.51L233.02 187.51C232.23 187.66 231.78 188.1 231.77 188.63C231.76 189.16 232.13 189.3 232.63 189.51H232.62ZM234.35 192.75C234.35 192.35 234.03 192.1 233.54 191.92L233.16 193.83C233.93 193.68 234.36 193.28 234.36 192.75H234.35Z" fill="white"/>
<path d="M165.76 26.54H107.26C96.9708 26.54 88.6299 34.881 88.6299 45.17V203.95C88.6299 214.239 96.9708 222.58 107.26 222.58H165.76C176.049 222.58 184.39 214.239 184.39 203.95V45.17C184.39 34.881 176.049 26.54 165.76 26.54Z" fill="#263238"/>
<path opacity="0.7" d="M165.47 26.54H107.55C97.1007 26.54 88.6299 35.0108 88.6299 45.46V203.66C88.6299 214.109 97.1007 222.58 107.55 222.58H165.47C175.919 222.58 184.39 214.109 184.39 203.66V45.46C184.39 35.0108 175.919 26.54 165.47 26.54Z" fill="white"/>
<path d="M184.39 36.16V75.05H88.6299V36.16C88.6299 33.6087 89.6434 31.1618 91.4475 29.3577C93.2516 27.5536 95.6985 26.54 98.2499 26.54H174.77C177.321 26.54 179.768 27.5536 181.572 29.3577C183.376 31.1618 184.39 33.6087 184.39 36.16Z" fill="#22919B"/>
<path d="M184.39 36.16V75.05H88.6299V36.16C88.6299 33.6087 89.6434 31.1618 91.4475 29.3577C93.2516 27.5536 95.6985 26.54 98.2499 26.54H174.77C177.321 26.54 179.768 27.5536 181.572 29.3577C183.376 31.1618 184.39 33.6087 184.39 36.16Z" fill="#22919B"/>
<path d="M128.64 50.7201C128.64 52.2101 127.48 53.0801 125.24 53.0801H120.91V44.3801H125C127.09 44.3801 128.21 45.2601 128.21 46.6401C128.221 47.0314 128.121 47.4179 127.923 47.7556C127.725 48.0933 127.436 48.3686 127.09 48.5501C127.555 48.6846 127.96 48.972 128.242 49.3658C128.523 49.7596 128.663 50.2368 128.64 50.7201V50.7201ZM122.53 45.6401V48.0501H124.81C125.93 48.0501 126.57 47.6601 126.57 46.8601C126.57 46.0601 125.93 45.6501 124.81 45.6501L122.53 45.6401ZM127.01 50.5601C127.01 49.6901 126.36 49.3001 125.14 49.3001H122.53V51.8101H125.14C126.36 51.8101 127 51.4301 127 50.5601H127.01Z" fill="white"/>
<path d="M135.78 49.1902V53.0502H134.32V52.2402C134.074 52.5528 133.754 52.7989 133.389 52.9562C133.024 53.1134 132.625 53.1766 132.23 53.1402C130.71 53.1402 129.75 52.3102 129.75 51.1402C129.75 49.9702 130.5 49.1402 132.51 49.1402H134.23V49.0402C134.23 48.1302 133.68 47.6002 132.57 47.6002C131.849 47.5958 131.146 47.8276 130.57 48.2602L129.96 47.1302C130.783 46.5615 131.769 46.2739 132.77 46.3102C134.68 46.3702 135.78 47.2702 135.78 49.1902ZM134.23 51.0502V50.2802H132.62C131.57 50.2802 131.28 50.6802 131.28 51.1702C131.28 51.6602 131.75 52.0902 132.55 52.0902C132.903 52.115 133.256 52.0279 133.557 51.8413C133.859 51.6546 134.094 51.3779 134.23 51.0502Z" fill="white"/>
<path d="M137 52.4201L137.6 51.2401C138.294 51.6682 139.093 51.8965 139.91 51.9001C140.91 51.9001 141.31 51.6301 141.31 51.1701C141.31 49.9001 137.2 51.0901 137.2 48.4401C137.2 47.1901 138.33 46.3701 140.13 46.3701C140.99 46.3538 141.842 46.5496 142.61 46.9401L142.02 48.1201C141.44 47.783 140.78 47.6102 140.11 47.6201C139.17 47.6201 138.72 47.9301 138.72 48.3701C138.72 49.7101 142.82 48.5201 142.82 51.1201C142.82 52.3601 141.68 53.1701 139.82 53.1701C138.828 53.1873 137.851 52.9275 137 52.4201V52.4201Z" fill="white"/>
<path d="M144 44.4102C144 44.1449 144.105 43.8906 144.293 43.703C144.48 43.5155 144.734 43.4102 145 43.4102C145.265 43.4102 145.519 43.5155 145.707 43.703C145.894 43.8906 146 44.1449 146 44.4102C146 44.6754 145.894 44.9297 145.707 45.1173C145.519 45.3048 145.265 45.4102 145 45.4102C144.866 45.419 144.732 45.3992 144.607 45.3521C144.481 45.3049 144.368 45.2316 144.273 45.1369C144.178 45.0422 144.105 44.9284 144.058 44.8031C144.011 44.6777 143.991 44.5438 144 44.4102V44.4102ZM144.21 46.4102H145.76V53.0502H144.21V46.4102Z" fill="white"/>
<path d="M147.219 49.7602C147.214 49.2955 147.305 48.8347 147.487 48.407C147.669 47.9793 147.937 47.594 148.276 47.2754C148.614 46.9568 149.015 46.7119 149.453 46.5561C149.891 46.4002 150.356 46.3369 150.819 46.3702C151.389 46.3311 151.957 46.4553 152.459 46.728C152.96 47.0008 153.373 47.4109 153.649 47.9102L152.459 48.6002C152.29 48.3149 152.048 48.0795 151.758 47.9179C151.469 47.7563 151.141 47.6743 150.809 47.6802C150.258 47.6802 149.729 47.8993 149.339 48.2894C148.949 48.6795 148.729 49.2085 148.729 49.7602C148.729 50.3118 148.949 50.8409 149.339 51.2309C149.729 51.621 150.258 51.8402 150.809 51.8402C151.141 51.8461 151.469 51.7641 151.758 51.6025C152.048 51.4409 152.29 51.2055 152.459 50.9202L153.649 51.6102C153.376 52.1132 152.964 52.5273 152.462 52.8038C151.961 53.0802 151.391 53.2073 150.819 53.1702C150.355 53.2005 149.889 53.1345 149.451 52.9764C149.013 52.8183 148.613 52.5714 148.275 52.2513C147.937 51.9311 147.669 51.5446 147.487 51.1159C147.305 50.6873 147.214 50.2257 147.219 49.7602Z" fill="white"/>
<path d="M141.105 141.728C144.428 138.405 144.428 133.017 141.105 129.693C137.781 126.37 132.393 126.37 129.07 129.693C125.746 133.017 125.746 138.405 129.07 141.728C132.393 145.052 137.781 145.052 141.105 141.728Z" fill="#263238"/>
<path opacity="0.5" d="M141.105 141.728C144.428 138.405 144.428 133.017 141.105 129.693C137.781 126.37 132.393 126.37 129.07 129.693C125.746 133.017 125.746 138.405 129.07 141.728C132.393 145.052 137.781 145.052 141.105 141.728Z" fill="white"/>
<path d="M137.605 130.903L130.272 138.235L132.556 140.519L139.889 133.187L137.605 130.903Z" fill="white"/>
<path d="M130.273 133.196L137.605 140.528L139.889 138.244L132.557 130.912L130.273 133.196Z" fill="white"/>
<path d="M135.48 175.76C140.23 175.76 144.08 171.91 144.08 167.16C144.08 162.41 140.23 158.56 135.48 158.56C130.73 158.56 126.88 162.41 126.88 167.16C126.88 171.91 130.73 175.76 135.48 175.76Z" fill="#22919B"/>
<path d="M141.64 165.3L136.69 170.25L134.38 172.56L132.07 170.25L134.38 167.94L139.33 162.99L141.64 165.3Z" fill="white"/>
<path d="M136.69 170.25L134.38 172.56L129.49 167.66L131.79 165.35L134.38 167.94L136.69 170.25Z" fill="white"/>
<path d="M156.5 191.73H116.52C111.085 191.73 106.68 196.136 106.68 201.57V202.32C106.68 207.754 111.085 212.16 116.52 212.16H156.5C161.934 212.16 166.34 207.754 166.34 202.32V201.57C166.34 196.136 161.934 191.73 156.5 191.73Z" fill="#22919B"/>
<path d="M119.61 203.89C119.61 205.75 118.12 206.99 115.78 207.18L115.48 208.72H114.08L114.39 207.18C113.242 207.108 112.133 206.739 111.17 206.11L112.11 204.38C112.888 204.937 113.798 205.282 114.75 205.38L115.22 203.02C113.93 202.63 112.5 202.11 112.5 200.42C112.5 198.56 114.02 197.3 116.4 197.14L116.71 195.6H118.1L117.8 197.15C118.706 197.221 119.584 197.495 120.37 197.95L119.51 199.68C118.885 199.273 118.172 199.022 117.43 198.95L116.94 201.41C118.23 201.78 119.61 202.28 119.61 203.89ZM115.61 201.01L116.01 199.01C115.21 199.16 114.77 199.59 114.75 200.13C114.73 200.67 115.11 200.8 115.62 201.05L115.61 201.01ZM117.34 204.25C117.34 203.85 117.02 203.59 116.53 203.41L116.15 205.33C116.91 205.17 117.35 204.78 117.35 204.25H117.34Z" fill="white"/>
<path d="M160.2 149.94H110.77V151.94H160.2V149.94Z" fill="#22919B"/>
<path d="M160.2 117.1H110.77V119.1H160.2V117.1Z" fill="#22919B"/>
<path d="M160.2 85.4399H110.77V87.4399H160.2V85.4399Z" fill="#22919B"/>
<path d="M141.109 108.293C144.432 104.97 144.432 99.5813 141.109 96.2579C137.785 92.9345 132.397 92.9346 129.074 96.2579C125.75 99.5813 125.75 104.97 129.074 108.293C132.397 111.616 137.785 111.616 141.109 108.293Z" fill="#263238"/>
<path opacity="0.5" d="M141.109 108.293C144.432 104.97 144.432 99.5813 141.109 96.2579C137.785 92.9345 132.397 92.9346 129.074 96.2579C125.75 99.5813 125.75 104.97 129.074 108.293C132.397 111.616 137.785 111.616 141.109 108.293Z" fill="white"/>
<path d="M137.609 97.4671L130.276 104.8L132.56 107.084L139.893 99.7511L137.609 97.4671Z" fill="white"/>
<path d="M130.277 99.7513L137.609 107.084L139.893 104.8L132.561 97.4673L130.277 99.7513Z" fill="white"/>
<path d="M260.09 354.16L267.76 355.57L273.56 341.41L265.18 338.07L260.09 354.16Z" fill="#FFC2BC"/>
<path opacity="0.1" d="M262.84 345.19L265.03 338.61L268.89 339.55L273.56 341.41L271.06 347.58L262.84 345.19Z" fill="black"/>
<path d="M258.59 351.51C258.59 351.51 258.29 351.24 257.9 350.93C257.51 350.62 257.27 350.45 256.9 350.19C256.185 349.648 255.34 349.304 254.45 349.19C254.173 349.196 253.905 349.294 253.69 349.47C253.565 349.561 253.472 349.69 253.427 349.838C253.382 349.986 253.387 350.145 253.44 350.29C254.059 350.94 254.881 351.36 255.77 351.48L256.48 351.63C257.142 351.75 257.809 351.833 258.48 351.88V351.88C258.52 351.88 258.559 351.869 258.592 351.847C258.626 351.826 258.653 351.796 258.67 351.76C258.691 351.716 258.695 351.665 258.68 351.619C258.665 351.572 258.633 351.533 258.59 351.51V351.51ZM256.99 351.31C255.55 351.07 253.99 350.62 253.82 350.11C253.82 350.04 253.76 349.91 253.98 349.71C254.042 349.654 254.115 349.61 254.194 349.583C254.273 349.555 254.357 349.544 254.44 349.55C254.578 349.552 254.716 349.569 254.85 349.6C255.777 349.958 256.641 350.461 257.41 351.09C257.56 351.2 257.7 351.32 257.84 351.44C257.57 351.41 257.28 351.36 257 351.31H256.99Z" fill="#22919B"/>
<path d="M258.2 348.36C257.951 348.049 257.594 347.842 257.2 347.78C256.63 347.69 256.39 347.91 256.3 348.12C256.08 348.57 256.42 349.41 256.92 350.19C257.115 350.49 257.329 350.777 257.56 351.05C257.794 351.329 258.055 351.584 258.34 351.81C258.369 351.822 258.401 351.822 258.43 351.81V351.81C258.463 351.82 258.498 351.82 258.53 351.81C258.562 351.799 258.59 351.781 258.613 351.756C258.636 351.732 258.652 351.702 258.66 351.67C258.704 351.375 258.731 351.078 258.74 350.78C258.83 349.936 258.64 349.086 258.2 348.36V348.36ZM258.29 351.23C258.19 351.13 258.08 351.03 257.98 350.91C257.19 350.04 256.45 348.7 256.64 348.24C256.64 348.24 256.72 348.06 257.1 348.12H257.21C257.459 348.18 257.68 348.32 257.84 348.52C258.22 349.224 258.39 350.022 258.33 350.82C258.32 350.98 258.31 351.1 258.29 351.23V351.23Z" fill="#22919B"/>
<path d="M259.6 350.95L268.87 353.17C269.034 353.202 269.182 353.291 269.288 353.421C269.394 353.55 269.451 353.712 269.45 353.88L269.17 361.26C269.147 361.585 268.997 361.889 268.751 362.104C268.506 362.319 268.186 362.429 267.86 362.41C267.77 362.421 267.68 362.421 267.59 362.41C264.26 361.56 261.34 360.68 257.17 359.69C252.26 358.52 253.36 359.36 247.57 358.06C244.08 357.27 244.46 353.46 245.99 353.63C252.99 354.46 254.18 352.75 257.41 351.14C258.097 350.828 258.87 350.761 259.6 350.95V350.95Z" fill="#263238"/>
<path d="M315.29 355.56H322.63L324.8 343.39L315.82 341.72L315.29 355.56Z" fill="#FFC2BC"/>
<path opacity="0.1" d="M315.821 341.72L324.801 343.39L323.341 351.59L315.521 351.27L315.821 341.72Z" fill="black"/>
<path d="M326.38 349.35L313.2 348.6L312.8 343.4L327.55 344.41L326.38 349.35Z" fill="#22919B"/>
<path opacity="0.5" d="M326.38 349.35L313.2 348.6L312.8 343.4L327.55 344.41L326.38 349.35Z" fill="white"/>
<path d="M314.22 355.75C314.22 355.75 313.88 355.56 313.44 355.34C313 355.12 312.78 355.03 312.38 354.88C311.599 354.498 310.724 354.349 309.86 354.45C309.606 354.514 309.387 354.676 309.25 354.9C309.164 355.025 309.118 355.173 309.118 355.325C309.118 355.477 309.164 355.625 309.25 355.75C309.951 356.242 310.809 356.46 311.66 356.36H312.33C312.937 356.322 313.542 356.249 314.14 356.14V356.14C314.177 356.129 314.21 356.108 314.237 356.08C314.263 356.052 314.281 356.018 314.29 355.98C314.304 355.939 314.304 355.895 314.291 355.854C314.279 355.813 314.254 355.777 314.22 355.75V355.75ZM312.71 355.94C311.35 356.04 309.88 355.94 309.56 355.52C309.5 355.45 309.45 355.34 309.56 355.1C309.598 355.028 309.652 354.965 309.718 354.916C309.784 354.868 309.86 354.835 309.94 354.82C310.063 354.805 310.187 354.805 310.31 354.82C311.251 354.952 312.163 355.239 313.01 355.67C313.178 355.731 313.338 355.808 313.49 355.9L312.71 355.94Z" fill="#22919B"/>
<path d="M314.34 355.93C314.311 355.631 314.264 355.334 314.2 355.04C314.053 354.182 313.652 353.388 313.05 352.76C312.904 352.636 312.733 352.543 312.549 352.488C312.364 352.433 312.171 352.417 311.98 352.44C311.43 352.49 311.27 352.76 311.25 352.99C311.16 353.49 311.7 354.24 312.38 354.88C312.616 355.119 312.87 355.34 313.14 355.54C313.421 355.762 313.726 355.95 314.05 356.1C314.076 356.11 314.104 356.11 314.13 356.1C314.163 356.11 314.197 356.11 314.23 356.1C314.263 356.085 314.29 356.061 314.31 356.031C314.329 356.001 314.34 355.966 314.34 355.93V355.93ZM311.61 353.05C311.61 353 311.61 352.86 312 352.82H312.1C312.35 352.816 312.593 352.905 312.78 353.07C313.296 353.676 313.641 354.407 313.78 355.19C313.81 355.315 313.83 355.442 313.84 355.57L313.48 355.33C312.57 354.64 311.57 353.51 311.61 353.05Z" fill="#22919B"/>
<path d="M315 354.96L323.94 354.91C324.103 354.911 324.261 354.966 324.388 355.068C324.515 355.17 324.604 355.311 324.64 355.47L326.3 362.73C326.336 362.883 326.341 363.04 326.316 363.195C326.29 363.349 326.235 363.497 326.152 363.63C326.069 363.763 325.961 363.878 325.834 363.969C325.707 364.06 325.563 364.125 325.41 364.16H325.16C321.94 364.16 319.07 363.96 315.06 363.99C310.33 363.99 311.53 364.57 305.97 364.68C302.62 364.75 301.97 360.94 303.41 360.75C309.91 359.89 310.57 357.92 313.07 355.58C313.618 355.147 314.303 354.927 315 354.96V354.96Z" fill="#263238"/>
<path d="M298.74 175.91L264.12 337.91L276.88 341.3C286.42 320.42 294.42 299.05 300.38 282.3C303.21 274.37 304.38 266.91 306.51 259.92C309.09 251.61 312.56 243.97 314.32 236.99C323.57 200.45 322.83 182.15 322.83 182.15L324.83 177.33L298.74 175.91Z" fill="#263238"/>
<path opacity="0.3" d="M320 210.68C318.75 218.05 316.94 226.85 314.35 237.07C313.51 240.39 307.88 256.38 306.54 260C304.98 236.6 310.33 197 310.33 197L320 210.68Z" fill="black"/>
<path d="M309.37 176.74L311.98 265.74L314.27 343.74L326.27 344.57C329.62 325.48 332.08 308.17 333.84 292.57C335 282.38 333.04 274.93 333.66 266.2C333.77 264.75 333.88 263.26 334.01 261.74C336.133 236.744 336.277 211.619 334.44 186.6C334.09 181.83 333.85 178.6 333.85 178.6L309.34 175.47L309.37 176.74Z" fill="#263238"/>
<path d="M275.19 345.86L262.57 341.97L263.43 336.83L277.51 341.34L275.19 345.86Z" fill="#22919B"/>
<path opacity="0.5" d="M275.19 345.86L262.57 341.97L263.43 336.83L277.51 341.34L275.19 345.86Z" fill="white"/>
<path d="M307.65 120.29C305.298 123.772 303.544 127.621 302.46 131.68C301.925 133.509 301.504 135.369 301.2 137.25L300.33 139.64L292.61 136.57L291.39 136.09C293.27 127.62 300.55 119.96 305.95 120.09C306.523 120.072 307.096 120.139 307.65 120.29V120.29Z" fill="#22919B"/>
<path opacity="0.2" d="M307.65 120.29C305.298 123.772 303.544 127.621 302.46 131.68C301.925 133.509 301.504 135.369 301.2 137.25L300.33 139.64L292.61 136.57L291.39 136.09C293.27 127.62 300.55 119.96 305.95 120.09C306.523 120.072 307.096 120.139 307.65 120.29V120.29Z" fill="white"/>
<path d="M298 175.15C298.93 173.07 298.81 169.02 301.88 168.25C305.96 167.25 309.32 166.95 325.38 168.31C332.96 168.96 334.64 175.01 334.38 178.12C334.35 178.533 334.208 178.931 333.97 179.27L333.65 179.73C332.9 180.02 298.53 176.21 298.19 176.42C298.046 176.246 297.951 176.035 297.918 175.811C297.884 175.587 297.913 175.359 298 175.15V175.15Z" fill="#22919B"/>
<path opacity="0.2" d="M298 175.15C298.93 173.07 298.81 169.02 301.88 168.25C305.96 167.25 309.32 166.95 325.38 168.31C332.96 168.96 334.64 175.01 334.38 178.12C334.35 178.533 334.208 178.931 333.97 179.27L333.65 179.73C332.9 180.02 298.53 176.21 298.19 176.42C298.046 176.246 297.951 176.035 297.918 175.811C297.884 175.587 297.913 175.359 298 175.15V175.15Z" fill="white"/>
<path d="M306.36 120.23C306.14 120.64 299.311 121.35 299.851 151.23C299.921 155.08 298.94 163.23 298.94 163.23L297.94 165.72C297.539 166.731 297.361 167.816 297.42 168.902C297.479 169.988 297.772 171.049 298.28 172.01L298.78 172.94L333.41 176.46H334.41C334.41 176.46 336.64 158.38 339.62 146.29C340.62 142.35 341.62 137.51 341.62 137.51C340.917 132.954 340.583 128.349 340.62 123.74C340.62 123.74 340.62 123.69 340.62 123.68C336.424 122.436 332.143 121.501 327.81 120.88C323.209 120.179 318.565 119.801 313.91 119.75C309.58 119.98 306.37 120.22 306.36 120.23Z" fill="#22919B"/>
<path d="M327.77 105.25C326.53 109.66 324.98 117.79 327.87 121.03L325.68 123.32C324.807 124.215 323.706 124.856 322.496 125.173C321.286 125.491 320.012 125.473 318.812 125.121C317.611 124.77 316.529 124.098 315.682 123.178C314.834 122.258 314.253 121.125 314 119.9V119.9C319.07 119.1 318 114.01 318.92 109.1L327.77 105.25Z" fill="#FFC2BC"/>
<path opacity="0.2" d="M316.23 104.05C317.23 107.57 318.71 113.23 317.65 117.14C322.2 117.54 325.22 113.41 325.41 112.09C324.851 110.536 324.41 108.941 324.09 107.32L316.23 104.05Z" fill="black"/>
<path d="M329.111 98.36C328.561 105.86 328.501 109.04 324.671 112.84C318.911 118.57 309.821 116.26 308.111 108.76C306.571 102 307.721 90.89 315.111 87.98C316.733 87.3382 318.492 87.1207 320.222 87.3479C321.952 87.5752 323.595 88.2397 324.996 89.2787C326.397 90.3177 327.511 91.6969 328.231 93.2859C328.951 94.8749 329.254 96.6213 329.111 98.36V98.36Z" fill="#FFC2BC"/>
<path d="M333.441 94.88C332.678 97.7154 332.173 100.614 331.931 103.54H329.071C328.813 103.796 328.632 104.119 328.549 104.473C328.466 104.826 328.484 105.196 328.601 105.54C328.118 105.329 327.708 104.981 327.421 104.54C327.214 104.106 327.112 103.63 327.121 103.15C327.05 101.309 326.853 99.4743 326.531 97.66C325.061 97.06 323.361 97.2199 321.991 96.4199C318.906 94.6631 316.225 92.2783 314.121 89.4199C312.983 89.9531 311.971 90.7218 311.152 91.675C310.333 92.6283 309.726 93.7446 309.371 94.9499C309.038 95.0153 308.694 94.9808 308.38 94.8509C308.067 94.7211 307.8 94.5015 307.611 94.22C307.247 93.6474 307.043 92.9879 307.021 92.3099C306.821 90.5428 307.276 88.7636 308.301 87.3099C309.057 86.3121 310.159 85.6342 311.391 85.41C311.914 85.4189 312.435 85.355 312.941 85.22C313.461 84.98 313.941 84.36 314.441 84.04C315.603 83.3982 316.881 82.9919 318.2 82.8443C319.52 82.6967 320.855 82.8108 322.131 83.18C325.296 84.2117 328.163 86 330.481 88.39C331.791 89.68 333.931 93.15 333.441 94.88Z" fill="#263238"/>
<path d="M331.721 105.57C330.987 106.826 329.786 107.739 328.381 108.11C326.521 108.58 325.631 106.91 326.181 105.17C326.681 103.6 328.261 101.5 330.101 101.76C330.745 101.875 331.317 102.24 331.692 102.776C332.067 103.313 332.214 103.976 332.101 104.62C332.044 104.96 331.914 105.284 331.721 105.57V105.57Z" fill="#FFC2BC"/>
<path d="M317.5 100.24C317.5 100.9 317.13 101.41 316.71 101.42C316.29 101.43 315.94 100.88 315.94 100.23C315.94 99.5799 316.31 99.0599 316.73 99.0499C317.15 99.0399 317.5 99.5899 317.5 100.24Z" fill="#263238"/>
<path d="M310.081 100.16C310.081 100.82 309.711 101.33 309.281 101.34C308.851 101.35 308.511 100.8 308.521 100.14C308.531 99.4798 308.881 98.9699 309.311 98.9599C309.741 98.9499 310.111 99.4899 310.081 100.16Z" fill="#263238"/>
<path d="M313 101.52C312.396 103.012 311.592 104.414 310.61 105.69C310.943 105.929 311.324 106.092 311.726 106.17C312.128 106.248 312.543 106.237 312.94 106.14L313 101.52Z" fill="#EC837E"/>
<path d="M315.271 108.36C314.901 108.519 314.515 108.64 314.121 108.72C314.077 108.729 314.031 108.72 313.994 108.696C313.957 108.672 313.93 108.634 313.921 108.59C313.917 108.548 313.928 108.506 313.951 108.471C313.975 108.437 314.01 108.411 314.051 108.4C314.859 108.251 315.621 107.914 316.274 107.415C316.928 106.917 317.454 106.271 317.811 105.53C317.82 105.489 317.846 105.453 317.881 105.431C317.917 105.409 317.96 105.401 318.001 105.41C318.019 105.412 318.037 105.418 318.053 105.428C318.069 105.437 318.083 105.45 318.094 105.465C318.106 105.48 318.114 105.497 318.118 105.515C318.123 105.533 318.124 105.552 318.121 105.57C317.574 106.838 316.55 107.84 315.271 108.36V108.36Z" fill="#263238"/>
<path d="M320.101 96.5299C320.058 96.5447 320.011 96.5469 319.967 96.5362C319.923 96.5256 319.882 96.5026 319.851 96.4699C319.553 96.164 319.185 95.9342 318.78 95.8002C318.374 95.6662 317.942 95.6318 317.521 95.6999C317.447 95.7124 317.371 95.6967 317.308 95.656C317.245 95.6153 317.2 95.5525 317.181 95.4799C317.166 95.4486 317.158 95.4146 317.157 95.3801C317.157 95.3455 317.163 95.3112 317.176 95.2793C317.189 95.2473 317.209 95.2184 317.234 95.1945C317.259 95.1705 317.288 95.1519 317.321 95.1399C317.829 95.053 318.351 95.0904 318.842 95.2489C319.333 95.4073 319.779 95.6822 320.141 96.05C320.195 96.0995 320.231 96.1664 320.242 96.2393C320.253 96.3121 320.238 96.3866 320.201 96.4499C320.191 96.4698 320.177 96.4873 320.16 96.5012C320.142 96.515 320.122 96.5248 320.101 96.5299V96.5299Z" fill="#263238"/>
<path d="M308.12 96.8799C308.068 96.9009 308.011 96.9064 307.956 96.8958C307.901 96.8851 307.851 96.8588 307.81 96.8199C307.781 96.7911 307.758 96.7568 307.743 96.7191C307.727 96.6813 307.719 96.6408 307.719 96.5999C307.719 96.559 307.727 96.5185 307.743 96.4807C307.758 96.443 307.781 96.4087 307.81 96.3799V96.3799C308.189 95.9123 308.675 95.5434 309.227 95.3048C309.779 95.0662 310.381 94.965 310.98 95.0099C311.021 95.0124 311.06 95.023 311.096 95.0411C311.132 95.0592 311.164 95.0844 311.191 95.1152C311.217 95.1461 311.236 95.1819 311.248 95.2205C311.26 95.2591 311.264 95.2997 311.26 95.3399V95.3399C311.248 95.4239 311.204 95.4999 311.136 95.5521C311.069 95.6042 310.985 95.6285 310.9 95.6199C310.406 95.5898 309.911 95.6795 309.458 95.8815C309.006 96.0834 308.608 96.3916 308.3 96.7799C308.25 96.8276 308.188 96.862 308.12 96.8799V96.8799Z" fill="#263238"/>
<path d="M326.651 118.64L329.421 121.25C329.421 121.25 319.421 128.25 319.251 127.8C318.562 126.835 317.811 125.916 317.001 125.05L326.651 118.64Z" fill="#22919B"/>
<path d="M316.541 118.4L313.011 119.8C313.011 119.8 313.611 127.36 313.921 127C314.913 126.341 315.949 125.75 317.021 125.23L316.541 118.4Z" fill="#22919B"/>
<path opacity="0.2" d="M326.651 118.64L329.421 121.25C329.421 121.25 319.421 128.25 319.251 127.8C318.562 126.835 317.811 125.916 317.001 125.05L326.651 118.64Z" fill="white"/>
<path opacity="0.2" d="M316.541 118.4L313.011 119.8C313.011 119.8 313.611 127.36 313.921 127C314.913 126.341 315.949 125.75 317.021 125.23L316.541 118.4Z" fill="white"/>
<path d="M314.66 149.61C315.3 150.56 320.51 149.61 320.51 149.61L324.98 149.92C325.221 149.923 325.455 149.838 325.639 149.682C325.823 149.526 325.944 149.308 325.98 149.07L327.22 143.42C327.238 143.289 327.204 143.157 327.125 143.05C327.047 142.944 326.93 142.872 326.8 142.85L323.27 142.22C321.85 141.96 320.385 142.269 319.19 143.08L315.45 145.62L314.66 149.61Z" fill="#FFC2BC"/>
<path d="M315.64 145.34L315.41 149.69C315.41 149.69 295.31 157.24 289.55 153.94C285.77 151.78 289.55 142.62 292.61 136.55L300.33 139.44L297.78 146.05L315.64 145.34Z" fill="#FFC2BC"/>
<g opacity="0.1">
<path d="M314.66 149.61C315.3 150.56 320.51 149.61 320.51 149.61L324.98 149.92C325.221 149.923 325.455 149.838 325.639 149.682C325.823 149.526 325.944 149.308 325.98 149.07L327.22 143.42C327.238 143.289 327.204 143.157 327.125 143.05C327.047 142.944 326.93 142.872 326.8 142.85L323.27 142.22C321.85 141.96 320.385 142.269 319.19 143.08L315.45 145.62L314.66 149.61Z" fill="black"/>
<path d="M315.64 145.34L315.41 149.69C315.41 149.69 295.31 157.24 289.55 153.94C285.77 151.78 289.55 142.62 292.61 136.55L300.33 139.44L297.78 146.05L315.64 145.34Z" fill="black"/>
</g>
<path d="M339.43 126.98L324.61 147.38L302.9 143.38L301.9 147.66C301.9 147.66 322.9 159.1 328.67 155.75C334.44 152.4 344.07 132.12 344.07 132.12L339.43 126.98Z" fill="#FFC2BC"/>
<path d="M301.92 147.65C301.27 148.59 296.07 147.58 296.07 147.58L291.6 147.83C291.356 147.832 291.12 147.745 290.935 147.584C290.751 147.424 290.632 147.202 290.6 146.96L289.43 141.31C289.413 141.179 289.447 141.047 289.525 140.94C289.604 140.834 289.72 140.762 289.85 140.74L293.4 140.15C294.825 139.911 296.287 140.242 297.47 141.07L302.88 143.52L301.92 147.65Z" fill="#FFC2BC"/>
<path d="M342.241 125.05C345.731 129.17 344.711 139.37 339.681 145.85L327.431 138.65C327.431 138.65 334.621 126.51 338.581 124.12C340.281 123.12 341.001 123.56 342.241 125.05Z" fill="#22919B"/>
<path opacity="0.2" d="M342.241 125.05C345.731 129.17 344.711 139.37 339.681 145.85L327.431 138.65C327.431 138.65 334.621 126.51 338.581 124.12C340.281 123.12 341.001 123.56 342.241 125.05Z" fill="white"/>
<path d="M231.95 356.88L239.72 357.95L247.66 342.45L239.06 341.02L231.95 356.88Z" fill="#FFC2BC"/>
<path opacity="0.2" d="M239.06 341.02L247.66 342.45L243.33 350.88L235.19 349.65L239.06 341.02Z" fill="black"/>
<path d="M242 355.05L232.39 354.53C232.232 354.516 232.073 354.56 231.945 354.654C231.816 354.748 231.726 354.885 231.69 355.04L229.74 362.04C229.699 362.186 229.688 362.339 229.706 362.49C229.725 362.641 229.774 362.787 229.849 362.919C229.924 363.051 230.025 363.167 230.145 363.259C230.266 363.352 230.403 363.42 230.55 363.46H230.82C233.93 363.58 236.17 363.51 240.11 363.72C242.52 363.85 249.76 364.5 253.11 364.72C256.46 364.94 257.04 361.63 255.7 361.26C249.7 359.6 245.2 357.47 243.33 355.65C242.983 355.283 242.505 355.067 242 355.05V355.05Z" fill="#263238"/>
<path d="M242.47 356.05C242.432 356.041 242.399 356.019 242.375 355.988C242.351 355.957 242.339 355.919 242.34 355.88C242.332 355.844 242.337 355.807 242.353 355.774C242.37 355.741 242.397 355.715 242.43 355.7C242.72 355.54 245.37 354.11 246.22 354.6C246.316 354.655 246.394 354.735 246.445 354.833C246.496 354.93 246.519 355.04 246.51 355.15C246.532 355.342 246.502 355.536 246.423 355.712C246.344 355.888 246.218 356.039 246.06 356.15C245.598 356.429 245.054 356.539 244.52 356.46C243.823 356.404 243.135 356.266 242.47 356.05V356.05ZM245.78 354.93C244.816 355.054 243.884 355.356 243.03 355.82C243.931 356.185 244.939 356.185 245.84 355.82C245.939 355.742 246.017 355.641 246.067 355.526C246.118 355.411 246.139 355.285 246.13 355.16C246.13 355.117 246.122 355.074 246.104 355.034C246.087 354.995 246.062 354.959 246.03 354.93C245.948 354.91 245.862 354.91 245.78 354.93V354.93Z" fill="#22919B"/>
<path d="M242.45 356.18C242.425 356.157 242.405 356.129 242.392 356.098C242.378 356.067 242.371 356.034 242.37 356C242.37 355.88 242.65 353.62 243.61 352.93C243.724 352.839 243.856 352.773 243.998 352.739C244.14 352.704 244.287 352.701 244.43 352.73C244.571 352.735 244.706 352.791 244.81 352.886C244.914 352.981 244.981 353.11 245 353.25C245.11 354.09 243.44 355.75 242.6 356.15H242.51L242.45 356.18ZM244.27 353.02C244.117 353.019 243.968 353.072 243.85 353.17C243.253 353.848 242.877 354.692 242.77 355.59C243.62 355.03 244.7 353.76 244.62 353.24C244.62 353.19 244.62 353.05 244.37 353.03H244.27V353.02Z" fill="#22919B"/>
<path d="M190.5 311.86L196.19 312.07C205.667 311.629 215.074 310.232 224.27 307.9C232.5 305.9 246.14 299.6 246.14 299.6C241.75 318.38 233.84 347 233.84 347L246.06 348.41C246.06 348.41 277.88 287.79 263.84 280.85C251.29 274.15 202.74 278.55 202.74 278.55L197.74 273.3L163.81 276.05C163.81 276.05 157.32 311.81 190.5 311.86Z" fill="#263238"/>
<path d="M246.84 350.88L232.86 346.64L234.54 340.81L249.69 346.57L246.84 350.88Z" fill="#22919B"/>
<path opacity="0.5" d="M246.84 350.88L232.86 346.64L234.54 340.81L249.69 346.57L246.84 350.88Z" fill="white"/>
<path opacity="0.4" d="M194.71 298.6C198.12 308.6 224.03 307.6 227.64 307.12C206.31 311.23 202.29 311.79 196.19 312.07L190.5 311.86C188.723 311.859 186.948 311.728 185.19 311.47C187.83 294.28 190.59 286.53 194.71 298.6Z" fill="black"/>
<path d="M124.86 339.61L123.86 347.46L141.99 350.43L142.99 342.55L124.86 339.61Z" fill="#FFC2BC"/>
<path d="M125.47 348.56L131.11 340.71C131.2 340.582 131.245 340.427 131.236 340.271C131.226 340.115 131.165 339.966 131.06 339.85L126.25 334.46C126.041 334.231 125.751 334.094 125.441 334.079C125.132 334.064 124.83 334.172 124.6 334.38C124.544 334.445 124.5 334.519 124.47 334.6C122.69 337.16 121.54 339.08 119.24 342.29C117.84 344.24 113.38 350.01 111.45 352.7C109.52 355.39 111.93 357.7 112.96 356.7C117.61 352.52 121.78 349.87 124.35 349.3C124.802 349.2 125.201 348.937 125.47 348.56Z" fill="#263238"/>
<path d="M124.26 348.36C124.292 348.34 124.328 348.33 124.365 348.33C124.402 348.33 124.438 348.34 124.47 348.36C124.503 348.375 124.53 348.401 124.547 348.434C124.563 348.467 124.568 348.504 124.56 348.54C124.56 348.88 124.33 351.88 123.46 352.32C123.367 352.379 123.26 352.41 123.15 352.41C123.04 352.41 122.933 352.379 122.84 352.32C122.671 352.233 122.527 352.103 122.424 351.943C122.32 351.784 122.26 351.6 122.25 351.41C122.261 350.87 122.459 350.35 122.81 349.94C123.235 349.363 123.721 348.833 124.26 348.36V348.36ZM124.16 348.96C123.36 349.522 122.809 350.371 122.62 351.33C122.634 351.456 122.678 351.576 122.747 351.682C122.817 351.788 122.91 351.877 123.02 351.94C123.15 352.01 123.25 352 123.27 351.94C123.351 351.906 123.417 351.846 123.46 351.77C123.864 350.884 124.102 349.932 124.16 348.96V348.96Z" fill="#22919B"/>
<path d="M124.27 348.3C124.331 348.275 124.399 348.275 124.46 348.3C124.55 348.38 126.28 349.87 126.35 351.05C126.363 351.192 126.345 351.335 126.299 351.469C126.252 351.604 126.178 351.727 126.08 351.83C125.999 351.947 125.879 352.032 125.743 352.07C125.606 352.109 125.46 352.098 125.33 352.04C124.55 351.68 124.06 349.38 124.18 348.46V348.38C124.188 348.361 124.2 348.344 124.216 348.33C124.231 348.316 124.25 348.306 124.27 348.3V348.3ZM126.03 351.14C125.772 350.273 125.26 349.503 124.56 348.93C124.565 349.959 124.917 350.956 125.56 351.76C125.588 351.775 125.618 351.784 125.65 351.787C125.682 351.789 125.714 351.785 125.744 351.775C125.774 351.765 125.801 351.748 125.825 351.727C125.848 351.705 125.867 351.679 125.88 351.65V351.56C125.964 351.437 126.006 351.289 126 351.14H126.03Z" fill="#22919B"/>
<path opacity="0.2" d="M142.98 342.55L141.98 350.43L132.63 348.89L133.64 341.03L142.98 342.55Z" fill="black"/>
<path d="M195.43 291.16C198.19 295.53 207.73 348.25 189.92 360.03C176.8 368.68 135.5 352.31 135.5 352.31L136.82 339.22C136.82 339.22 170.37 345.5 174.52 342.12C178.67 338.74 164.82 302.12 164.14 293.55C163.46 284.98 195.43 291.16 195.43 291.16Z" fill="#263238"/>
<path d="M134.58 353.25L135.03 338.65L141.09 338.75L139.47 354.88L134.58 353.25Z" fill="#22919B"/>
<path opacity="0.5" d="M134.58 353.25L135.03 338.65L141.09 338.75L139.47 354.88L134.58 353.25Z" fill="white"/>
<path d="M199.17 274.68C198.1 272.68 194.84 268.75 191.7 268.2C187.53 267.47 186.64 267.31 170.55 269.78C162.96 270.94 162.41 276.9 162.83 279.99C162.887 280.404 163.057 280.795 163.32 281.12L163.67 281.55C164.45 281.79 198.67 275.78 199.02 275.97C199.162 275.79 199.251 275.574 199.278 275.346C199.304 275.118 199.267 274.888 199.17 274.68V274.68Z" fill="#22919B"/>
<path opacity="0.2" d="M199.17 274.68C198.1 272.68 194.84 268.75 191.7 268.2C187.53 267.47 186.64 267.31 170.55 269.78C162.96 270.94 162.41 276.9 162.83 279.99C162.887 280.404 163.057 280.795 163.32 281.12L163.67 281.55C164.45 281.79 198.67 275.78 199.02 275.97C199.162 275.79 199.251 275.574 199.278 275.346C199.304 275.118 199.267 274.888 199.17 274.68V274.68Z" fill="white"/>
<path d="M236.31 217.05C238.529 216.887 240.677 216.202 242.58 215.05C243.892 214.13 245.01 212.961 245.87 211.61C246.145 211.206 246.262 210.715 246.2 210.23C246.056 209.095 245.607 208.02 244.9 207.12C244.706 206.886 244.43 206.735 244.128 206.7C243.826 206.665 243.523 206.747 243.28 206.93C242.12 207.76 240.8 208.63 239.76 209.44C236.83 209.99 234.05 212.69 233.81 215.66C234.6 216.05 235.51 216.63 236.31 217.05Z" fill="#FFC2BC"/>
<path d="M237.59 213.12L238.39 216.99C238.39 216.99 219.14 230.62 215.47 230.82C212.95 230.96 210.03 231.09 207.01 231.19C203.55 231.31 199.94 231.38 196.66 231.36C190.73 231.31 185.88 230.92 184.89 229.88C181.89 226.71 185.1 221.71 189.79 221.76C195.9 221.82 206.58 223.27 216.72 222.88C220.19 222.75 237.59 213.12 237.59 213.12Z" fill="#FFC2BC"/>
<path opacity="0.2" d="M207 231.19C203.54 231.31 199.93 231.38 196.65 231.36L193 226.14C197.828 227.336 202.52 229.028 207 231.19V231.19Z" fill="black"/>
<path d="M195 220.64C195 220.64 186.51 219.03 185.07 223.13C183.63 227.23 187.41 234.53 199.21 233.25L200.41 220.77L195 220.64Z" fill="#22919B"/>
<path opacity="0.2" d="M195 220.64C195 220.64 186.51 219.03 185.07 223.13C183.63 227.23 187.41 234.53 199.21 233.25L200.41 220.77L195 220.64Z" fill="white"/>
<path d="M188.51 220.74C188.74 221.14 195.2 229.63 196.1 236.25C196.75 241.03 196.1 246.25 196.01 251.57C195.94 255.41 197.3 263.57 197.3 263.57L198.37 266.03C198.802 267.028 199.014 268.108 198.99 269.195C198.966 270.283 198.706 271.352 198.23 272.33L197.76 273.33L163.25 277.95L163.04 277.84C163.04 277.84 159.97 275.27 160.99 272V269.47C162.37 264.96 161.99 259.15 158.57 247.16C157.48 243.25 156.27 238.45 156.27 238.45C157.18 229.81 154.37 225.45 154.34 225.45C154.31 225.45 154.34 225.4 154.34 225.39C158.494 224.019 162.742 222.949 167.05 222.19C171.627 221.334 176.258 220.806 180.91 220.61C185.29 220.6 188.5 220.73 188.51 220.74Z" fill="#22919B"/>
<path d="M185.1 190.33C187.27 192.84 187.74 196.33 188.66 199.56C189.41 202.16 191.04 207.44 190.03 209.94C188.88 212.79 183.22 210.38 181.34 212.8C173.86 222.47 169.34 218.31 166.47 215.92C165.03 214.74 159.56 213.57 158.15 212.36C156.74 211.15 154.33 210.54 155.37 205.84C159.53 187.01 166.44 185.9 175.66 186.41C179.19 186.6 182.72 187.57 185.1 190.33Z" fill="#263238"/>
<path d="M166.63 206.45C168.02 210.82 169.83 218.89 167.04 222.23L169.3 224.45C170.201 225.33 171.326 225.946 172.552 226.231C173.779 226.516 175.06 226.46 176.256 226.068C177.453 225.676 178.52 224.964 179.34 224.009C180.16 223.054 180.703 221.892 180.91 220.65V220.65C175.82 220.02 176.73 214.9 175.65 210.01L166.63 206.45Z" fill="#FFC2BC"/>
<path opacity="0.2" d="M178.13 204.85C177.19 208.4 175.95 214.11 177.13 217.98C172.59 218.53 169.44 214.49 169.22 213.18C169.727 211.609 170.112 210 170.37 208.37L178.13 204.85Z" fill="black"/>
<path d="M165.08 199.6C165.86 207.08 166.03 210.26 169.98 213.94C175.92 219.48 184.98 216.88 186.4 209.33C187.72 202.53 186.22 191.46 178.76 188.78C177.117 188.183 175.349 188.017 173.624 188.296C171.899 188.575 170.273 189.291 168.903 190.375C167.532 191.459 166.461 192.876 165.792 194.49C165.123 196.105 164.878 197.864 165.08 199.6V199.6Z" fill="#FFC2BC"/>
<path d="M166.88 203.53C167.465 204.532 167.776 205.67 167.78 206.83C168.108 206.578 168.343 206.224 168.446 205.823C168.55 205.423 168.516 204.999 168.35 204.62C168.11 203.83 167.7 203.45 166.88 203.53Z" fill="#263238"/>
<path d="M162.69 206.89C163.467 208.119 164.695 208.995 166.11 209.33C167.99 209.74 168.83 208.04 168.22 206.33C167.68 204.78 166.03 202.73 164.22 203.04C163.579 203.177 163.019 203.562 162.661 204.111C162.303 204.66 162.177 205.328 162.31 205.97C162.372 206.3 162.501 206.613 162.69 206.89V206.89Z" fill="#FFC2BC"/>
<path d="M175.78 201.35C175.78 202.01 176.18 202.51 176.6 202.51C177.02 202.51 177.36 201.94 177.33 201.29C177.3 200.64 176.92 200.13 176.5 200.14C176.08 200.15 175.75 200.7 175.78 201.35Z" fill="#263238"/>
<path d="M183.19 201.05C183.19 201.7 183.59 202.21 184.02 202.2C184.45 202.19 184.78 201.64 184.74 200.98C184.7 200.32 184.35 199.82 183.92 199.82C183.49 199.82 183.13 200.37 183.19 201.05Z" fill="#263238"/>
<path d="M183.73 199.86L185.27 199.38C185.27 199.38 184.54 200.57 183.73 199.86Z" fill="#263238"/>
<path d="M181.28 202.25C181.93 203.721 182.778 205.097 183.8 206.34C183.474 206.591 183.099 206.768 182.698 206.86C182.297 206.951 181.882 206.955 181.48 206.87L181.28 202.25Z" fill="#EC837E"/>
<path d="M179.23 209.16C179.604 209.307 179.993 209.415 180.39 209.48C180.411 209.484 180.433 209.484 180.454 209.48C180.475 209.476 180.495 209.467 180.512 209.455C180.53 209.443 180.545 209.428 180.557 209.409C180.568 209.391 180.576 209.371 180.58 209.35V209.35C180.584 209.308 180.573 209.266 180.549 209.231C180.525 209.197 180.49 209.171 180.45 209.16C179.636 209.041 178.861 208.729 178.192 208.251C177.522 207.773 176.976 207.142 176.6 206.41C176.586 206.371 176.56 206.338 176.526 206.317C176.491 206.295 176.45 206.285 176.41 206.29C176.372 206.297 176.338 206.319 176.316 206.351C176.293 206.382 176.284 206.422 176.29 206.46V206.46C176.88 207.709 177.935 208.677 179.23 209.16V209.16Z" fill="#263238"/>
<path d="M174 196.49C174.044 196.502 174.091 196.502 174.135 196.49C174.179 196.478 174.219 196.453 174.25 196.42C174.539 196.107 174.898 195.867 175.298 195.721C175.698 195.575 176.128 195.526 176.55 195.58C176.625 195.59 176.701 195.572 176.764 195.529C176.826 195.487 176.871 195.423 176.89 195.35C176.903 195.317 176.909 195.282 176.907 195.247C176.906 195.212 176.898 195.178 176.883 195.146C176.868 195.114 176.847 195.086 176.82 195.062C176.794 195.039 176.763 195.021 176.73 195.01V195.01C176.219 194.938 175.698 194.992 175.212 195.166C174.726 195.34 174.29 195.63 173.94 196.01C173.886 196.06 173.85 196.127 173.841 196.201C173.832 196.274 173.849 196.348 173.89 196.41C173.901 196.431 173.916 196.449 173.936 196.463C173.955 196.477 173.977 196.486 174 196.49V196.49Z" fill="#263238"/>
<path d="M186 196.46C186.053 196.476 186.11 196.478 186.164 196.466C186.219 196.454 186.269 196.428 186.31 196.39C186.369 196.33 186.402 196.249 186.402 196.165C186.402 196.081 186.369 196 186.31 195.94V195.94C185.917 195.485 185.42 195.131 184.861 194.91C184.302 194.689 183.698 194.606 183.1 194.67C183.06 194.674 183.02 194.685 182.985 194.705C182.949 194.724 182.917 194.75 182.892 194.782C182.867 194.814 182.848 194.851 182.838 194.89C182.827 194.929 182.824 194.97 182.83 195.01V195.01C182.845 195.093 182.892 195.168 182.961 195.217C183.031 195.265 183.116 195.284 183.2 195.27C183.694 195.23 184.19 195.308 184.649 195.495C185.107 195.683 185.515 195.976 185.84 196.35C185.878 196.405 185.935 196.444 186 196.46V196.46Z" fill="#263238"/>
<path d="M176.32 200.18L177.86 199.69C177.86 199.69 177.12 200.92 176.32 200.18Z" fill="#263238"/>
<path d="M172.23 192.29C174.44 194.99 166.45 202.05 166.88 203.53C164.71 203.67 163.1 199.12 162.99 196.76C162.879 194.377 163.624 192.032 165.09 190.15C166.02 188.96 167.74 188.74 169.25 188.54C169.687 188.447 170.142 188.482 170.56 188.64C170.811 188.776 171.025 188.973 171.182 189.212C171.339 189.451 171.435 189.725 171.46 190.01C171.57 190.812 171.832 191.585 172.23 192.29Z" fill="#263238"/>
<path d="M169.25 188.54C170.69 189.682 171.751 191.233 172.295 192.989C172.84 194.744 172.841 196.623 172.3 198.38C173.269 197.589 174.072 196.614 174.66 195.51C174.969 194.935 175.112 194.285 175.073 193.634C175.035 192.982 174.815 192.354 174.44 191.82C175.495 192.598 176.386 193.577 177.061 194.701C177.735 195.826 178.18 197.073 178.37 198.37C178.822 198.038 179.195 197.61 179.463 197.118C179.73 196.625 179.887 196.08 179.92 195.52C179.967 194.97 179.893 194.416 179.703 193.898C179.513 193.38 179.211 192.909 178.82 192.52C179.588 193.193 180.174 194.049 180.524 195.008C180.874 195.968 180.975 197 180.82 198.01C181.33 197.616 181.737 197.105 182.007 196.52C182.277 195.935 182.401 195.293 182.37 194.65C182.315 193.962 182.107 193.295 181.76 192.699C181.414 192.102 180.939 191.59 180.37 191.2C181.419 191.779 182.298 192.622 182.92 193.647C183.541 194.672 183.882 195.842 183.91 197.04C186.19 194.83 185.42 191.66 182.62 189.92C178.517 187.723 173.715 187.227 169.25 188.54Z" fill="#263238"/>
<path d="M168.15 219.8L165.47 222.49C165.47 222.49 175.69 229.17 175.84 228.72C176.493 227.72 177.211 226.765 177.99 225.86L168.15 219.8Z" fill="#22919B"/>
<path d="M178.25 219.23L181.82 220.53C181.82 220.53 181.47 228.1 181.14 227.75C180.133 227.113 179.084 226.545 178 226.05L178.25 219.23Z" fill="#22919B"/>
<path opacity="0.2" d="M168.15 219.8L165.47 222.49C165.47 222.49 175.69 229.17 175.84 228.72C176.493 227.72 177.211 226.765 177.99 225.86L168.15 219.8Z" fill="white"/>
<path opacity="0.2" d="M178.25 219.23L181.82 220.53C181.82 220.53 181.47 228.1 181.14 227.75C180.133 227.113 179.084 226.545 178 226.05L178.25 219.23Z" fill="white"/>
<path d="M113.2 251.34L104.59 252.16L107.59 258.92C109.925 257.896 112.159 256.654 114.26 255.21L113.2 251.34Z" fill="#FFC2BC"/>
<path d="M101.41 257.33L101.55 257.58C101.814 258.037 102.197 258.413 102.658 258.669C103.12 258.925 103.643 259.049 104.17 259.03L107.6 258.92L104.6 252.16L102.5 253.36C102.167 253.548 101.874 253.8 101.639 254.102C101.403 254.403 101.23 254.749 101.128 255.118C101.027 255.487 101 255.872 101.048 256.252C101.096 256.632 101.219 256.998 101.41 257.33V257.33Z" fill="#FFC2BC"/>
<path d="M115.13 254.96C115.13 254.96 130.18 256.34 144.27 249.69C144.27 249.69 153.74 241.8 158.86 235.17C166.46 225.31 159.39 222.34 153.78 228.7C149.62 233.42 139.98 242.54 139.98 242.54C127.87 249.54 112.14 251.72 112.14 251.72C109.09 256.12 115.13 254.96 115.13 254.96Z" fill="#FFC2BC"/>
<path d="M163.22 224.95C166.8 227.82 161.46 235.32 154.5 244.34L145.87 233.14C145.87 233.14 156.82 219.82 163.22 224.95Z" fill="#22919B"/>
<path opacity="0.2" d="M163.22 224.95C166.8 227.82 161.46 235.32 154.5 244.34L145.87 233.14C145.87 233.14 156.82 219.82 163.22 224.95Z" fill="white"/>
</g>
<defs>
<clipPath id="clip0_158_5317">
<rect width="500" height="368.76" fill="white"/>
</clipPath>
</defs>
</svg>
